G75*
G70*
%OFA0B0*%
%FSLAX24Y24*%
%IPPOS*%
%LPD*%
%AMOC8*
5,1,8,0,0,1.08239X$1,22.5*
%
%ADD10C,0.0080*%
%ADD11R,0.0354X0.0276*%
%ADD12R,0.0315X0.0315*%
%ADD13C,0.0740*%
%ADD14R,0.0138X0.0551*%
%ADD15R,0.0709X0.0748*%
%ADD16R,0.0472X0.0472*%
%ADD17R,0.0472X0.0276*%
%ADD18R,0.0276X0.0472*%
%ADD19R,0.0945X0.0748*%
%ADD20R,0.0400X0.1000*%
%ADD21R,0.0276X0.0354*%
%ADD22R,0.0394X0.0394*%
%ADD23C,0.0278*%
D10*
X001243Y000140D02*
X009243Y000140D01*
X009243Y013140D01*
X001243Y013140D01*
X001243Y000140D01*
X002943Y001640D02*
X002443Y002140D01*
X002443Y003840D01*
X002550Y003947D01*
X002940Y003947D01*
X003450Y003947D01*
X003693Y004190D01*
X004743Y004190D01*
X005043Y004490D01*
X005043Y005690D01*
X004993Y005740D01*
X004793Y005940D02*
X004593Y005940D01*
X004793Y005940D02*
X005043Y006190D01*
X005043Y006890D01*
X004843Y007090D01*
X004843Y007290D01*
X005479Y007926D01*
X005479Y007983D01*
X005683Y008380D02*
X005683Y008410D01*
X005213Y008410D01*
X005007Y008204D01*
X005007Y007983D01*
X004793Y008410D02*
X004213Y008410D01*
X004093Y008290D01*
X004093Y008014D01*
X004062Y007983D01*
X004062Y008159D01*
X003793Y008186D02*
X003793Y008340D01*
X004818Y009365D01*
X004312Y009365D01*
X004287Y009340D01*
X004243Y009384D01*
X004093Y008990D02*
X003943Y008840D01*
X002643Y008840D01*
X002393Y009090D01*
X002393Y011890D01*
X002243Y012040D01*
X002193Y012040D01*
X002743Y011135D02*
X003243Y011135D01*
X003743Y011135D01*
X004138Y010740D01*
X004243Y010740D01*
X004243Y011109D01*
X004731Y011597D01*
X005243Y011597D02*
X005243Y012540D01*
X005543Y012840D01*
X006243Y012840D01*
X006143Y012440D02*
X006043Y012340D01*
X006043Y012140D01*
X005755Y011852D01*
X005755Y011597D01*
X005499Y011597D02*
X005493Y011603D01*
X005493Y012190D01*
X006343Y011540D02*
X006343Y011140D01*
X006143Y010940D01*
X006143Y010740D01*
X006043Y010640D01*
X005558Y010467D02*
X005929Y010096D01*
X006243Y010096D01*
X006243Y009584D02*
X006149Y009584D01*
X006155Y009590D01*
X007693Y009590D01*
X008143Y009890D02*
X007951Y010082D01*
X007943Y010082D01*
X007558Y010467D01*
X007543Y010482D01*
X007543Y010940D01*
X007499Y010940D01*
X007543Y010940D02*
X007543Y011384D01*
X007543Y011896D02*
X007887Y012240D01*
X007943Y012240D01*
X008293Y012229D02*
X009103Y012229D01*
X009103Y012190D02*
X008293Y012190D01*
X008293Y013000D01*
X009103Y013000D01*
X009103Y012190D01*
X009103Y012308D02*
X008293Y012308D01*
X008293Y012386D02*
X009103Y012386D01*
X009103Y012465D02*
X008293Y012465D01*
X008293Y012543D02*
X009103Y012543D01*
X009103Y012622D02*
X008293Y012622D01*
X008293Y012700D02*
X009103Y012700D01*
X009103Y012779D02*
X008293Y012779D01*
X008293Y012857D02*
X009103Y012857D01*
X009103Y012936D02*
X008293Y012936D01*
X006943Y010984D02*
X006987Y010940D01*
X006987Y010526D01*
X006928Y010467D01*
X006943Y010984D02*
X006943Y011384D01*
X006543Y011640D02*
X006799Y011896D01*
X006943Y011896D01*
X006543Y011640D02*
X006443Y011640D01*
X006343Y011540D01*
X005499Y010526D02*
X005558Y010467D01*
X005499Y010526D02*
X005499Y010940D01*
X004987Y010940D02*
X004987Y010526D01*
X004928Y010467D01*
X004357Y009896D01*
X004243Y009896D01*
X003743Y010096D02*
X003743Y010545D01*
X003243Y010545D02*
X003243Y010096D01*
X003243Y009584D02*
X003243Y009140D01*
X003743Y009140D02*
X003743Y009584D01*
X003743Y009640D01*
X002743Y009584D02*
X002743Y009140D01*
X002543Y008640D02*
X002543Y007640D01*
X004343Y007640D01*
X004543Y007440D01*
X004543Y007940D02*
X004543Y007974D01*
X004534Y007983D01*
X005143Y007190D02*
X005343Y006990D01*
X005343Y003390D01*
X005093Y003140D01*
X005093Y003090D01*
X005393Y002790D02*
X005493Y002890D01*
X005493Y007390D01*
X005393Y007490D01*
X005143Y007190D02*
X005193Y007140D01*
X004643Y006740D02*
X003370Y006740D01*
X002981Y006740D01*
X002940Y006782D01*
X003370Y006740D02*
X002940Y006309D01*
X002940Y005837D01*
X002940Y005364D02*
X002718Y005364D01*
X002543Y005540D01*
X002543Y007140D01*
X002643Y007240D01*
X002925Y007240D01*
X002940Y007254D01*
X002483Y007500D02*
X002393Y007590D01*
X002393Y008340D01*
X002093Y008640D01*
X001743Y008640D01*
X001743Y009440D02*
X002543Y008640D01*
X002940Y007983D02*
X003589Y007983D01*
X003793Y008186D01*
X003683Y007500D02*
X003893Y007290D01*
X003683Y007500D02*
X002483Y007500D01*
X003543Y005540D02*
X003367Y005364D01*
X002940Y005364D01*
X003543Y005040D02*
X003543Y004690D01*
X003343Y004490D01*
X003010Y004490D01*
X002940Y004420D01*
X002940Y003947D02*
X002947Y003940D01*
X002940Y003475D02*
X002940Y003002D01*
X003306Y002640D02*
X004343Y002640D01*
X004534Y002449D01*
X004534Y002274D01*
X005007Y002274D01*
X005479Y002274D01*
X005951Y002274D01*
X006424Y002274D02*
X006438Y002272D01*
X006451Y002268D01*
X006463Y002260D01*
X006473Y002250D01*
X006481Y002238D01*
X006485Y002225D01*
X006487Y002211D01*
X006487Y001640D01*
X006476Y001639D01*
X006465Y001634D01*
X006456Y001627D01*
X006449Y001618D01*
X006444Y001607D01*
X006443Y001596D01*
X006443Y001196D01*
X006299Y000740D02*
X005543Y000740D01*
X006299Y000740D02*
X006399Y000640D01*
X006410Y000641D01*
X006421Y000646D01*
X006430Y000653D01*
X006437Y000662D01*
X006442Y000673D01*
X006443Y000684D01*
X007143Y001440D02*
X006999Y001584D01*
X006999Y001640D01*
X006896Y001742D01*
X006896Y002274D01*
X006896Y002594D01*
X007093Y002790D01*
X007305Y003002D01*
X007546Y003002D01*
X007093Y002790D02*
X007546Y002337D01*
X007546Y002274D01*
X007543Y001696D02*
X007549Y001690D01*
X007943Y001690D01*
X007943Y001190D02*
X007549Y001190D01*
X007543Y001184D01*
X007287Y001440D01*
X007143Y001440D01*
X006999Y001640D02*
X006943Y001640D01*
X007543Y001184D02*
X007599Y001240D01*
X006943Y003190D02*
X007143Y003390D01*
X007143Y006590D01*
X006593Y007140D01*
X006393Y007140D01*
X005943Y007590D01*
X005943Y007974D01*
X005951Y007983D01*
X005951Y008111D01*
X005683Y008380D01*
X005943Y008540D02*
X005943Y008740D01*
X005987Y008740D01*
X005987Y008884D01*
X006293Y009190D01*
X006543Y009340D02*
X006299Y009584D01*
X006243Y009584D01*
X006543Y009340D02*
X006543Y008784D01*
X006499Y008740D01*
X005943Y008540D02*
X006424Y008059D01*
X006424Y007983D01*
X006493Y007490D02*
X006743Y007490D01*
X006843Y007590D01*
X007893Y007590D01*
X008143Y007840D01*
X008143Y009890D01*
X008170Y010467D02*
X007558Y010467D01*
X008170Y010467D02*
X008343Y010640D01*
X008743Y010640D01*
X007893Y008440D02*
X007893Y008329D01*
X007546Y007983D01*
X006896Y007983D01*
X007546Y007254D02*
X007546Y006782D01*
X007660Y007140D02*
X008293Y007140D01*
X007660Y007140D02*
X007546Y007254D01*
X007546Y005837D02*
X007846Y005837D01*
X007943Y005740D01*
X007943Y005040D01*
X007843Y004940D01*
X007594Y004940D01*
X007546Y004892D01*
X006843Y004740D02*
X006793Y004790D01*
X006793Y005490D01*
X006393Y005890D01*
X005843Y005890D01*
X006089Y006546D02*
X005993Y006642D01*
X005993Y007140D01*
X004643Y006740D02*
X004448Y006546D01*
X004396Y006546D01*
X004396Y005128D02*
X004308Y005040D01*
X003543Y005040D01*
X004675Y003990D02*
X004396Y003711D01*
X004675Y003990D02*
X005093Y003990D01*
X006089Y003711D02*
X006193Y003607D01*
X006193Y003090D01*
X006127Y005090D02*
X006089Y005128D01*
X006127Y005090D02*
X006343Y005090D01*
X004534Y002274D02*
X004643Y002165D01*
X004443Y001965D01*
X004443Y001790D01*
X003849Y001790D01*
X003699Y001640D01*
X003589Y002274D02*
X004062Y002274D01*
X003306Y002640D02*
X002940Y002274D01*
X002943Y001640D02*
X003187Y001640D01*
X004818Y009365D02*
X005193Y009740D01*
X005243Y009740D01*
X004993Y009990D02*
X005493Y009990D01*
X005643Y009840D01*
X005643Y009740D01*
X004993Y009990D02*
X004843Y009840D01*
X004843Y009740D01*
X002743Y010096D02*
X002743Y010545D01*
X001743Y009640D02*
X001743Y009440D01*
D11*
X002743Y009584D03*
X002743Y010096D03*
X003243Y010096D03*
X003243Y009584D03*
X003743Y009584D03*
X003743Y010096D03*
X004243Y009896D03*
X004243Y009384D03*
X006243Y009584D03*
X006243Y010096D03*
X006943Y011384D03*
X006943Y011896D03*
X007543Y011896D03*
X007543Y011384D03*
X007543Y001696D03*
X007543Y001184D03*
X006443Y001196D03*
X006443Y000684D03*
D12*
X003743Y010545D03*
X003743Y011135D03*
X003243Y011135D03*
X003243Y010545D03*
X002743Y010545D03*
X002743Y011135D03*
D13*
X001743Y010640D03*
X001743Y009640D03*
X001743Y008640D03*
X001743Y007640D03*
X001743Y006640D03*
X001743Y005640D03*
X001743Y004640D03*
X001743Y003640D03*
X001743Y002640D03*
X001743Y001640D03*
X001743Y000640D03*
X008743Y000640D03*
X008743Y001640D03*
X008743Y002640D03*
X008743Y003640D03*
X008743Y004640D03*
X008743Y005640D03*
X008743Y006640D03*
X008743Y007640D03*
X008743Y008640D03*
X008743Y009640D03*
X008743Y010640D03*
X008743Y011640D03*
X001743Y011640D03*
D14*
X004731Y011597D03*
X004987Y011597D03*
X005243Y011597D03*
X005499Y011597D03*
X005755Y011597D03*
D15*
X006818Y012640D03*
X003668Y012640D03*
D16*
X002940Y007983D03*
X002940Y002274D03*
X007546Y002274D03*
X007546Y007983D03*
D17*
X007546Y007254D03*
X007546Y006782D03*
X007546Y006309D03*
X007546Y005837D03*
X007546Y005364D03*
X007546Y004892D03*
X007546Y004420D03*
X007546Y003947D03*
X007546Y003475D03*
X007546Y003002D03*
X002940Y003002D03*
X002940Y003475D03*
X002940Y003947D03*
X002940Y004420D03*
X002940Y004892D03*
X002940Y005364D03*
X002940Y005837D03*
X002940Y006309D03*
X002940Y006782D03*
X002940Y007254D03*
D18*
X003589Y007983D03*
X004062Y007983D03*
X004534Y007983D03*
X005007Y007983D03*
X005479Y007983D03*
X005951Y007983D03*
X006424Y007983D03*
X006896Y007983D03*
X006896Y002274D03*
X006424Y002274D03*
X005951Y002274D03*
X005479Y002274D03*
X005007Y002274D03*
X004534Y002274D03*
X004062Y002274D03*
X003589Y002274D03*
D19*
X004396Y003711D03*
X004396Y005128D03*
X004396Y006546D03*
X006089Y006546D03*
X006089Y005128D03*
X006089Y003711D03*
D20*
X005543Y000740D03*
X002943Y000740D03*
D21*
X003187Y001640D03*
X003699Y001640D03*
X006487Y001640D03*
X006999Y001640D03*
X006499Y008740D03*
X005987Y008740D03*
X005499Y010940D03*
X004987Y010940D03*
X006987Y010940D03*
X007499Y010940D03*
D22*
X007558Y010467D03*
X006928Y010467D03*
X006928Y008813D03*
X007558Y008813D03*
X005558Y008813D03*
X004928Y008813D03*
X004928Y010467D03*
X005558Y010467D03*
D23*
X006043Y010640D03*
X005643Y009740D03*
X005243Y009740D03*
X004843Y009740D03*
X004243Y010740D03*
X003493Y011740D03*
X002193Y012040D03*
X001693Y012440D03*
X002743Y009140D03*
X003243Y009140D03*
X003743Y009140D03*
X004093Y008990D03*
X004793Y008410D03*
X004543Y007940D03*
X004543Y007440D03*
X004643Y006740D03*
X005143Y007190D03*
X005393Y007490D03*
X005993Y007140D03*
X006493Y007490D03*
X006943Y007240D03*
X007893Y008440D03*
X007693Y009590D03*
X007043Y009240D03*
X006293Y009190D03*
X005683Y008410D03*
X005843Y005890D03*
X006343Y005090D03*
X006843Y004740D03*
X006943Y003190D03*
X007093Y002790D03*
X006193Y003090D03*
X005393Y002790D03*
X005093Y003090D03*
X004793Y002790D03*
X004443Y001790D03*
X005093Y003990D03*
X004593Y004540D03*
X004993Y005740D03*
X004593Y005940D03*
X003893Y007290D03*
X003543Y005540D03*
X003543Y005040D03*
X007943Y001690D03*
X007943Y001190D03*
X008293Y007140D03*
X007943Y012240D03*
X006243Y012840D03*
X006143Y012440D03*
X005493Y012190D03*
M02*
