%
M48
M72
T01C0.0118
T02C0.0400
%
T01
X3543Y5040
X3543Y5540
X4593Y5940
X4993Y5740
X4643Y6740
X5143Y7190
X5393Y7490
X5993Y7140
X6493Y7490
X6943Y7240
X7893Y8440
X7693Y9590
X7043Y9240
X6293Y9190
X5643Y9740
X5243Y9740
X4843Y9740
X4243Y10740
X3493Y11740
X2193Y12040
X1693Y12440
X2743Y9140
X3243Y9140
X3743Y9140
X4093Y8990
X4793Y8410
X4543Y7940
X4543Y7440
X3893Y7290
X5683Y8410
X6043Y10640
X5493Y12190
X6143Y12440
X6243Y12840
X7943Y12240
X8293Y7140
X6843Y4740
X6343Y5090
X5843Y5890
X5093Y3990
X4593Y4540
X5093Y3090
X5393Y2790
X4793Y2790
X4443Y1790
X6193Y3090
X6943Y3190
X7093Y2790
X7943Y1690
X7943Y1190
T02
X1743Y640
X1743Y1640
X1743Y2640
X1743Y3640
X1743Y4640
X1743Y5640
X1743Y6640
X1743Y7640
X1743Y8640
X1743Y9640
X1743Y10640
X1743Y11640
X8743Y11640
X8743Y10640
X8743Y9640
X8743Y8640
X8743Y7640
X8743Y6640
X8743Y5640
X8743Y4640
X8743Y3640
X8743Y2640
X8743Y1640
X8743Y640
M30
