G75*
G70*
%OFA0B0*%
%FSLAX24Y24*%
%IPPOS*%
%LPD*%
%AMOC8*
5,1,8,0,0,1.08239X$1,22.5*
%
%ADD10C,0.0600*%
%ADD11C,0.0278*%
%ADD12C,0.0080*%
D10*
X001743Y000650D03*
X001743Y001650D03*
X001743Y002650D03*
X001743Y003650D03*
X001743Y004650D03*
X001743Y005650D03*
X001743Y006650D03*
X001743Y007650D03*
X001743Y008650D03*
X001743Y009650D03*
X001743Y010650D03*
X001743Y011650D03*
X008743Y011650D03*
X008743Y010650D03*
X008743Y009650D03*
X008743Y008650D03*
X008743Y007650D03*
X008743Y006650D03*
X008743Y005650D03*
X008743Y004650D03*
X008743Y003650D03*
X008743Y002650D03*
X008743Y001650D03*
X008743Y000650D03*
D11*
X007993Y001700D03*
X007593Y001650D03*
X007093Y002800D03*
X006943Y003200D03*
X006193Y003100D03*
X006143Y002750D03*
X005493Y002900D03*
X005103Y003890D03*
X004593Y004550D03*
X003793Y005050D03*
X004593Y005950D03*
X005043Y005850D03*
X004643Y006750D03*
X004543Y007450D03*
X004943Y007400D03*
X005243Y007100D03*
X005393Y007500D03*
X005743Y007500D03*
X006443Y007500D03*
X006793Y007350D03*
X006993Y007050D03*
X007193Y008400D03*
X007293Y009350D03*
X006993Y009550D03*
X007493Y009750D03*
X007893Y009500D03*
X007843Y008400D03*
X008093Y006600D03*
X006843Y004950D03*
X005743Y005950D03*
X004813Y008420D03*
X005043Y009250D03*
X005393Y009200D03*
X006293Y009200D03*
X006243Y011100D03*
X006343Y011900D03*
X006943Y011950D03*
X007443Y012750D03*
X005243Y012100D03*
X004293Y010900D03*
X003843Y009250D03*
X003393Y009300D03*
X002743Y009400D03*
X002743Y008900D03*
X002493Y008650D03*
X002343Y009400D03*
X003562Y007300D03*
X004593Y003100D03*
X004643Y001800D03*
X002443Y001850D03*
X001843Y012400D03*
X001643Y012750D03*
D12*
X001403Y002396D02*
X001403Y001904D01*
X001505Y002006D01*
X001659Y002070D01*
X001826Y002070D01*
X001981Y002006D01*
X002099Y001888D01*
X002163Y001734D01*
X002163Y001650D01*
X002276Y001650D01*
X002223Y001703D01*
X002184Y001798D01*
X002184Y001902D01*
X002223Y001997D01*
X002296Y002070D01*
X002391Y002109D01*
X002494Y002109D01*
X002590Y002070D01*
X002662Y001997D01*
X002702Y001902D01*
X002702Y001798D01*
X002662Y001703D01*
X002609Y001650D01*
X004426Y001650D01*
X004423Y001653D01*
X004384Y001748D01*
X004384Y001852D01*
X004423Y001947D01*
X004496Y002020D01*
X004591Y002059D01*
X004694Y002059D01*
X004790Y002020D01*
X004862Y001947D01*
X004902Y001852D01*
X004902Y001748D01*
X004862Y001653D01*
X004859Y001650D01*
X007334Y001650D01*
X007334Y001702D01*
X007373Y001797D01*
X007446Y001870D01*
X007541Y001909D01*
X007644Y001909D01*
X007740Y001870D01*
X007812Y001797D01*
X007852Y001702D01*
X007852Y001650D01*
X008323Y001650D01*
X008323Y001734D01*
X008387Y001888D01*
X008505Y002006D01*
X008659Y002070D01*
X008826Y002070D01*
X008981Y002006D01*
X009083Y001904D01*
X009083Y002396D01*
X008981Y002294D01*
X008826Y002230D01*
X008659Y002230D01*
X008505Y002294D01*
X008387Y002412D01*
X008323Y002566D01*
X008323Y002734D01*
X008387Y002888D01*
X008505Y003006D01*
X008659Y003070D01*
X008826Y003070D01*
X008981Y003006D01*
X009083Y002904D01*
X009083Y003396D01*
X008981Y003294D01*
X008826Y003230D01*
X008659Y003230D01*
X008505Y003294D01*
X008387Y003412D01*
X008323Y003566D01*
X008323Y003734D01*
X008387Y003888D01*
X008505Y004006D01*
X008659Y004070D01*
X008826Y004070D01*
X008981Y004006D01*
X009083Y003904D01*
X009083Y004396D01*
X008981Y004294D01*
X008826Y004230D01*
X008659Y004230D01*
X008505Y004294D01*
X008387Y004412D01*
X008323Y004566D01*
X008323Y004734D01*
X008387Y004888D01*
X008505Y005006D01*
X008659Y005070D01*
X008826Y005070D01*
X008981Y005006D01*
X009083Y004904D01*
X009083Y005396D01*
X008981Y005294D01*
X008826Y005230D01*
X008659Y005230D01*
X008505Y005294D01*
X008387Y005412D01*
X008323Y005566D01*
X008323Y005734D01*
X008387Y005888D01*
X008505Y006006D01*
X008659Y006070D01*
X008826Y006070D01*
X008981Y006006D01*
X009083Y005904D01*
X009083Y006396D01*
X008981Y006294D01*
X008826Y006230D01*
X008659Y006230D01*
X008505Y006294D01*
X008387Y006412D01*
X008341Y006522D01*
X008312Y006453D01*
X008240Y006380D01*
X008144Y006341D01*
X008041Y006341D01*
X007946Y006380D01*
X007873Y006453D01*
X007834Y006548D01*
X007834Y006652D01*
X007873Y006747D01*
X007946Y006820D01*
X008041Y006859D01*
X008144Y006859D01*
X008240Y006820D01*
X008312Y006747D01*
X008323Y006722D01*
X008323Y006734D01*
X008387Y006888D01*
X008505Y007006D01*
X008659Y007070D01*
X008826Y007070D01*
X008981Y007006D01*
X009083Y006904D01*
X009083Y007396D01*
X008981Y007294D01*
X008826Y007230D01*
X008659Y007230D01*
X008505Y007294D01*
X008387Y007412D01*
X008323Y007566D01*
X008323Y007734D01*
X008387Y007888D01*
X008505Y008006D01*
X008659Y008070D01*
X008826Y008070D01*
X008981Y008006D01*
X009083Y007904D01*
X009083Y008396D01*
X008981Y008294D01*
X008826Y008230D01*
X008659Y008230D01*
X008505Y008294D01*
X008387Y008412D01*
X008323Y008566D01*
X008323Y008734D01*
X008387Y008888D01*
X008505Y009006D01*
X008659Y009070D01*
X008826Y009070D01*
X008981Y009006D01*
X009083Y008904D01*
X009083Y009396D01*
X008981Y009294D01*
X008826Y009230D01*
X008659Y009230D01*
X008505Y009294D01*
X008387Y009412D01*
X008323Y009566D01*
X008323Y009734D01*
X008387Y009888D01*
X008505Y010006D01*
X008659Y010070D01*
X008826Y010070D01*
X008981Y010006D01*
X009083Y009904D01*
X009083Y010396D01*
X008981Y010294D01*
X008826Y010230D01*
X008659Y010230D01*
X008505Y010294D01*
X008387Y010412D01*
X008323Y010566D01*
X008323Y010734D01*
X008387Y010888D01*
X008505Y011006D01*
X008659Y011070D01*
X008826Y011070D01*
X008981Y011006D01*
X009083Y010904D01*
X009083Y011369D01*
X009078Y011363D01*
X009029Y011314D01*
X008973Y011274D01*
X008912Y011242D01*
X008846Y011221D01*
X008783Y011211D01*
X008783Y011610D01*
X008703Y011610D01*
X008703Y011211D01*
X008640Y011221D01*
X008574Y011242D01*
X008512Y011274D01*
X008456Y011314D01*
X008407Y011363D01*
X008366Y011419D01*
X008335Y011481D01*
X008314Y011547D01*
X008304Y011610D01*
X008703Y011610D01*
X008703Y011690D01*
X008703Y012089D01*
X008640Y012079D01*
X008574Y012058D01*
X008512Y012026D01*
X008456Y011986D01*
X008407Y011937D01*
X008366Y011881D01*
X008335Y011819D01*
X008314Y011753D01*
X008304Y011690D01*
X008703Y011690D01*
X008783Y011690D01*
X008783Y012089D01*
X008846Y012079D01*
X008912Y012058D01*
X008973Y012026D01*
X009029Y011986D01*
X009078Y011937D01*
X009083Y011931D01*
X009083Y012990D01*
X001403Y012990D01*
X001403Y011904D01*
X001505Y012006D01*
X001659Y012070D01*
X001826Y012070D01*
X001981Y012006D01*
X002099Y011888D01*
X002163Y011734D01*
X002163Y011566D01*
X002099Y011412D01*
X001981Y011294D01*
X001826Y011230D01*
X001659Y011230D01*
X001505Y011294D01*
X001403Y011396D01*
X001403Y010904D01*
X001505Y011006D01*
X001659Y011070D01*
X001826Y011070D01*
X001981Y011006D01*
X002099Y010888D01*
X002163Y010734D01*
X002163Y010566D01*
X002099Y010412D01*
X001981Y010294D01*
X001826Y010230D01*
X001659Y010230D01*
X001505Y010294D01*
X001403Y010396D01*
X001403Y009904D01*
X001505Y010006D01*
X001659Y010070D01*
X001826Y010070D01*
X001981Y010006D01*
X002099Y009888D01*
X002163Y009734D01*
X002163Y009586D01*
X002196Y009620D01*
X002291Y009659D01*
X002394Y009659D01*
X002490Y009620D01*
X002543Y009566D01*
X002596Y009620D01*
X002691Y009659D01*
X002794Y009659D01*
X002890Y009620D01*
X002962Y009547D01*
X003002Y009452D01*
X003002Y009348D01*
X002962Y009253D01*
X002890Y009180D01*
X002816Y009150D01*
X002890Y009120D01*
X002962Y009047D01*
X003002Y008952D01*
X003002Y008848D01*
X002962Y008753D01*
X002890Y008680D01*
X002794Y008641D01*
X002752Y008641D01*
X002752Y008598D01*
X002712Y008503D01*
X002640Y008430D01*
X002544Y008391D01*
X002441Y008391D01*
X002346Y008430D01*
X002273Y008503D01*
X002234Y008598D01*
X002234Y008702D01*
X002273Y008797D01*
X002346Y008870D01*
X002441Y008909D01*
X002484Y008909D01*
X002484Y008952D01*
X002523Y009047D01*
X002596Y009120D01*
X002669Y009150D01*
X002596Y009180D01*
X002543Y009234D01*
X002490Y009180D01*
X002394Y009141D01*
X002291Y009141D01*
X002196Y009180D01*
X002123Y009253D01*
X002084Y009348D01*
X002084Y009397D01*
X001981Y009294D01*
X001826Y009230D01*
X001659Y009230D01*
X001505Y009294D01*
X001403Y009396D01*
X001403Y008904D01*
X001505Y009006D01*
X001659Y009070D01*
X001826Y009070D01*
X001981Y009006D01*
X002099Y008888D01*
X002163Y008734D01*
X002163Y008566D01*
X002099Y008412D01*
X001981Y008294D01*
X001826Y008230D01*
X001659Y008230D01*
X001505Y008294D01*
X001403Y008396D01*
X001403Y007904D01*
X001505Y008006D01*
X001659Y008070D01*
X001826Y008070D01*
X001981Y008006D01*
X002099Y007888D01*
X002163Y007734D01*
X002163Y007566D01*
X002099Y007412D01*
X001981Y007294D01*
X001826Y007230D01*
X001659Y007230D01*
X001505Y007294D01*
X001403Y007396D01*
X001403Y006904D01*
X001505Y007006D01*
X001659Y007070D01*
X001826Y007070D01*
X001981Y007006D01*
X002099Y006888D01*
X002163Y006734D01*
X002163Y006566D01*
X002099Y006412D01*
X001981Y006294D01*
X001826Y006230D01*
X001659Y006230D01*
X001505Y006294D01*
X001403Y006396D01*
X001403Y005904D01*
X001505Y006006D01*
X001659Y006070D01*
X001826Y006070D01*
X001981Y006006D01*
X002099Y005888D01*
X002163Y005734D01*
X002163Y005566D01*
X002099Y005412D01*
X001981Y005294D01*
X001826Y005230D01*
X001659Y005230D01*
X001505Y005294D01*
X001403Y005396D01*
X001403Y004904D01*
X001505Y005006D01*
X001659Y005070D01*
X001826Y005070D01*
X001981Y005006D01*
X002099Y004888D01*
X002163Y004734D01*
X002163Y004566D01*
X002099Y004412D01*
X001981Y004294D01*
X001826Y004230D01*
X001659Y004230D01*
X001505Y004294D01*
X001403Y004396D01*
X001403Y003904D01*
X001505Y004006D01*
X001659Y004070D01*
X001826Y004070D01*
X001981Y004006D01*
X002099Y003888D01*
X002163Y003734D01*
X002163Y003566D01*
X002099Y003412D01*
X001981Y003294D01*
X001826Y003230D01*
X001659Y003230D01*
X001505Y003294D01*
X001403Y003396D01*
X001403Y002904D01*
X001505Y003006D01*
X001659Y003070D01*
X001826Y003070D01*
X001981Y003006D01*
X002099Y002888D01*
X002163Y002734D01*
X002163Y002566D01*
X002099Y002412D01*
X001981Y002294D01*
X001826Y002230D01*
X001659Y002230D01*
X001505Y002294D01*
X001403Y002396D01*
X001403Y002348D02*
X001451Y002348D01*
X001403Y002270D02*
X001564Y002270D01*
X001572Y002034D02*
X001403Y002034D01*
X001403Y001956D02*
X001454Y001956D01*
X001403Y002113D02*
X009083Y002113D01*
X009083Y002191D02*
X001403Y002191D01*
X001403Y002976D02*
X001475Y002976D01*
X001403Y003055D02*
X001622Y003055D01*
X001864Y003055D02*
X005281Y003055D01*
X005273Y003047D02*
X005234Y002952D01*
X005234Y002848D01*
X005273Y002753D01*
X005346Y002680D01*
X005441Y002641D01*
X005544Y002641D01*
X005640Y002680D01*
X005712Y002753D01*
X005752Y002848D01*
X005752Y002952D01*
X005712Y003047D01*
X005640Y003120D01*
X005544Y003159D01*
X005441Y003159D01*
X005346Y003120D01*
X005273Y003047D01*
X005244Y002976D02*
X002011Y002976D01*
X002089Y002898D02*
X005234Y002898D01*
X005246Y002819D02*
X002127Y002819D01*
X002160Y002741D02*
X005286Y002741D01*
X005390Y002662D02*
X002163Y002662D01*
X002163Y002584D02*
X005943Y002584D01*
X005923Y002603D02*
X005996Y002530D01*
X006091Y002491D01*
X006194Y002491D01*
X006290Y002530D01*
X006362Y002603D01*
X006402Y002698D01*
X006402Y002802D01*
X006362Y002897D01*
X006359Y002900D01*
X006412Y002953D01*
X006452Y003048D01*
X006452Y003152D01*
X006412Y003247D01*
X006340Y003320D01*
X006244Y003359D01*
X006141Y003359D01*
X006046Y003320D01*
X005973Y003247D01*
X005934Y003152D01*
X005934Y003048D01*
X005973Y002953D01*
X005976Y002950D01*
X005923Y002897D01*
X005884Y002802D01*
X005884Y002698D01*
X005923Y002603D01*
X005899Y002662D02*
X005595Y002662D01*
X005700Y002741D02*
X005884Y002741D01*
X005891Y002819D02*
X005740Y002819D01*
X005752Y002898D02*
X005924Y002898D01*
X005964Y002976D02*
X005742Y002976D01*
X005705Y003055D02*
X005934Y003055D01*
X005934Y003133D02*
X005607Y003133D01*
X005378Y003133D02*
X001403Y003133D01*
X001403Y003212D02*
X005959Y003212D01*
X006016Y003290D02*
X001971Y003290D01*
X002055Y003369D02*
X006745Y003369D01*
X006723Y003347D02*
X006684Y003252D01*
X006684Y003148D01*
X006723Y003053D01*
X006796Y002980D01*
X006874Y002948D01*
X006873Y002947D01*
X006834Y002852D01*
X006834Y002748D01*
X006873Y002653D01*
X006946Y002580D01*
X007041Y002541D01*
X007144Y002541D01*
X007240Y002580D01*
X007312Y002653D01*
X007352Y002748D01*
X007352Y002852D01*
X007312Y002947D01*
X007240Y003020D01*
X007161Y003052D01*
X007162Y003053D01*
X007202Y003148D01*
X007202Y003252D01*
X007162Y003347D01*
X007090Y003420D01*
X006994Y003459D01*
X006891Y003459D01*
X006796Y003420D01*
X006723Y003347D01*
X006700Y003290D02*
X006369Y003290D01*
X006427Y003212D02*
X006684Y003212D01*
X006690Y003133D02*
X006452Y003133D01*
X006452Y003055D02*
X006723Y003055D01*
X006807Y002976D02*
X006422Y002976D01*
X006362Y002898D02*
X006853Y002898D01*
X006834Y002819D02*
X006395Y002819D01*
X006402Y002741D02*
X006837Y002741D01*
X006870Y002662D02*
X006387Y002662D01*
X006343Y002584D02*
X006943Y002584D01*
X007163Y003055D02*
X008622Y003055D01*
X008475Y002976D02*
X007283Y002976D01*
X007333Y002898D02*
X008396Y002898D01*
X008358Y002819D02*
X007352Y002819D01*
X007349Y002741D02*
X008326Y002741D01*
X008323Y002662D02*
X007316Y002662D01*
X007243Y002584D02*
X008323Y002584D01*
X008348Y002505D02*
X006228Y002505D01*
X006057Y002505D02*
X002137Y002505D01*
X002105Y002427D02*
X008381Y002427D01*
X008451Y002348D02*
X002035Y002348D01*
X001922Y002270D02*
X008564Y002270D01*
X008572Y002034D02*
X004755Y002034D01*
X004854Y001956D02*
X008454Y001956D01*
X008382Y001877D02*
X007722Y001877D01*
X007811Y001799D02*
X008350Y001799D01*
X008323Y001720D02*
X007844Y001720D01*
X007464Y001877D02*
X004891Y001877D01*
X004902Y001799D02*
X007375Y001799D01*
X007341Y001720D02*
X004890Y001720D01*
X004531Y002034D02*
X002625Y002034D01*
X002680Y001956D02*
X004432Y001956D01*
X004394Y001877D02*
X002702Y001877D01*
X002702Y001799D02*
X004384Y001799D01*
X004396Y001720D02*
X002669Y001720D01*
X002260Y002034D02*
X001913Y002034D01*
X002031Y001956D02*
X002206Y001956D01*
X002184Y001877D02*
X002103Y001877D01*
X002136Y001799D02*
X002184Y001799D01*
X002163Y001720D02*
X002216Y001720D01*
X001514Y003290D02*
X001403Y003290D01*
X001403Y003369D02*
X001430Y003369D01*
X001403Y003918D02*
X001417Y003918D01*
X001403Y003997D02*
X001495Y003997D01*
X001403Y004075D02*
X004921Y004075D01*
X004956Y004110D02*
X004883Y004037D01*
X004844Y003942D01*
X004844Y003838D01*
X004883Y003743D01*
X004956Y003670D01*
X005051Y003631D01*
X005154Y003631D01*
X005250Y003670D01*
X005322Y003743D01*
X005362Y003838D01*
X005362Y003942D01*
X005322Y004037D01*
X005250Y004110D01*
X005154Y004149D01*
X005051Y004149D01*
X004956Y004110D01*
X004867Y003997D02*
X001990Y003997D01*
X002069Y003918D02*
X004844Y003918D01*
X004844Y003840D02*
X002119Y003840D01*
X002151Y003761D02*
X004876Y003761D01*
X004944Y003683D02*
X002163Y003683D01*
X002163Y003604D02*
X008323Y003604D01*
X008323Y003683D02*
X005262Y003683D01*
X005330Y003761D02*
X008334Y003761D01*
X008367Y003840D02*
X005362Y003840D01*
X005362Y003918D02*
X008417Y003918D01*
X008495Y003997D02*
X005339Y003997D01*
X005284Y004075D02*
X009083Y004075D01*
X009083Y003997D02*
X008990Y003997D01*
X009069Y003918D02*
X009083Y003918D01*
X009083Y004154D02*
X001403Y004154D01*
X001403Y004232D02*
X001654Y004232D01*
X001831Y004232D02*
X008654Y004232D01*
X008831Y004232D02*
X009083Y004232D01*
X009083Y004311D02*
X008997Y004311D01*
X009076Y004389D02*
X009083Y004389D01*
X009083Y004939D02*
X009048Y004939D01*
X009083Y005017D02*
X008954Y005017D01*
X009083Y005096D02*
X007063Y005096D01*
X007062Y005097D02*
X006990Y005170D01*
X006894Y005209D01*
X006791Y005209D01*
X006696Y005170D01*
X006623Y005097D01*
X006584Y005002D01*
X006584Y004898D01*
X006623Y004803D01*
X006696Y004730D01*
X006791Y004691D01*
X006894Y004691D01*
X006990Y004730D01*
X007062Y004803D01*
X007102Y004898D01*
X007102Y005002D01*
X007062Y005097D01*
X007095Y005017D02*
X008531Y005017D01*
X008437Y004939D02*
X007102Y004939D01*
X007086Y004860D02*
X008375Y004860D01*
X008343Y004782D02*
X007041Y004782D01*
X006923Y004703D02*
X008323Y004703D01*
X008323Y004625D02*
X002163Y004625D01*
X002163Y004703D02*
X006762Y004703D01*
X006645Y004782D02*
X002143Y004782D01*
X002110Y004860D02*
X003616Y004860D01*
X003646Y004830D02*
X003573Y004903D01*
X003534Y004998D01*
X003534Y005102D01*
X003573Y005197D01*
X003646Y005270D01*
X003741Y005309D01*
X003844Y005309D01*
X003940Y005270D01*
X004012Y005197D01*
X004052Y005102D01*
X004052Y004998D01*
X004012Y004903D01*
X003940Y004830D01*
X003844Y004791D01*
X003741Y004791D01*
X003646Y004830D01*
X003559Y004939D02*
X002048Y004939D01*
X001954Y005017D02*
X003534Y005017D01*
X003534Y005096D02*
X001403Y005096D01*
X001403Y005174D02*
X003564Y005174D01*
X003629Y005253D02*
X001881Y005253D01*
X002018Y005331D02*
X008468Y005331D01*
X008389Y005410D02*
X002096Y005410D01*
X002130Y005488D02*
X008355Y005488D01*
X008323Y005567D02*
X002163Y005567D01*
X002163Y005645D02*
X004881Y005645D01*
X004896Y005630D02*
X004991Y005591D01*
X005094Y005591D01*
X005190Y005630D01*
X005262Y005703D01*
X005302Y005798D01*
X005302Y005902D01*
X005262Y005997D01*
X005190Y006070D01*
X005094Y006109D01*
X004991Y006109D01*
X004896Y006070D01*
X004845Y006018D01*
X004812Y006097D01*
X004740Y006170D01*
X004644Y006209D01*
X004541Y006209D01*
X004446Y006170D01*
X004373Y006097D01*
X004334Y006002D01*
X004334Y005898D01*
X004373Y005803D01*
X004446Y005730D01*
X004541Y005691D01*
X004644Y005691D01*
X004740Y005730D01*
X004791Y005782D01*
X004823Y005703D01*
X004896Y005630D01*
X004815Y005724D02*
X004723Y005724D01*
X004837Y006038D02*
X004864Y006038D01*
X004793Y006116D02*
X005542Y006116D01*
X005523Y006097D02*
X005596Y006170D01*
X005691Y006209D01*
X005794Y006209D01*
X005890Y006170D01*
X005962Y006097D01*
X006002Y006002D01*
X006002Y005898D01*
X005962Y005803D01*
X005890Y005730D01*
X005794Y005691D01*
X005691Y005691D01*
X005596Y005730D01*
X005523Y005803D01*
X005484Y005898D01*
X005484Y006002D01*
X005523Y006097D01*
X005499Y006038D02*
X005222Y006038D01*
X005278Y005959D02*
X005484Y005959D01*
X005491Y005881D02*
X005302Y005881D01*
X005302Y005802D02*
X005524Y005802D01*
X005613Y005724D02*
X005271Y005724D01*
X005204Y005645D02*
X008323Y005645D01*
X008323Y005724D02*
X005873Y005724D01*
X005961Y005802D02*
X008351Y005802D01*
X008384Y005881D02*
X005994Y005881D01*
X006002Y005959D02*
X008458Y005959D01*
X008581Y006038D02*
X005987Y006038D01*
X005943Y006116D02*
X009083Y006116D01*
X009083Y006038D02*
X008905Y006038D01*
X009028Y005959D02*
X009083Y005959D01*
X009083Y006195D02*
X005829Y006195D01*
X005656Y006195D02*
X004679Y006195D01*
X004506Y006195D02*
X001403Y006195D01*
X001403Y006273D02*
X001555Y006273D01*
X001447Y006352D02*
X001403Y006352D01*
X001403Y006116D02*
X004392Y006116D01*
X004349Y006038D02*
X001905Y006038D01*
X002028Y005959D02*
X004334Y005959D01*
X004341Y005881D02*
X002102Y005881D01*
X002134Y005802D02*
X004374Y005802D01*
X004463Y005724D02*
X002163Y005724D01*
X001930Y006273D02*
X008555Y006273D01*
X008447Y006352D02*
X008170Y006352D01*
X008289Y006430D02*
X008379Y006430D01*
X008347Y006509D02*
X008335Y006509D01*
X008314Y006744D02*
X008327Y006744D01*
X008360Y006823D02*
X008233Y006823D01*
X008400Y006901D02*
X005410Y006901D01*
X005390Y006880D02*
X005462Y006953D01*
X005502Y007048D01*
X005502Y007152D01*
X005462Y007247D01*
X005461Y007248D01*
X005540Y007280D01*
X005568Y007309D01*
X005596Y007280D01*
X005691Y007241D01*
X005794Y007241D01*
X005890Y007280D01*
X005962Y007353D01*
X006002Y007448D01*
X006002Y007552D01*
X005962Y007647D01*
X005890Y007720D01*
X005794Y007759D01*
X005691Y007759D01*
X005596Y007720D01*
X005568Y007691D01*
X005540Y007720D01*
X005444Y007759D01*
X005341Y007759D01*
X005246Y007720D01*
X005173Y007647D01*
X005141Y007568D01*
X005090Y007620D01*
X004994Y007659D01*
X004891Y007659D01*
X004796Y007620D01*
X004766Y007589D01*
X004762Y007597D01*
X004690Y007670D01*
X004594Y007709D01*
X004491Y007709D01*
X004396Y007670D01*
X004323Y007597D01*
X004284Y007502D01*
X004284Y007398D01*
X004323Y007303D01*
X004396Y007230D01*
X004491Y007191D01*
X004594Y007191D01*
X004690Y007230D01*
X004720Y007261D01*
X004723Y007253D01*
X004796Y007180D01*
X004891Y007141D01*
X004984Y007141D01*
X004984Y007048D01*
X005023Y006953D01*
X005096Y006880D01*
X005191Y006841D01*
X005294Y006841D01*
X005390Y006880D01*
X005473Y006980D02*
X008478Y006980D01*
X008630Y007058D02*
X005502Y007058D01*
X005502Y007137D02*
X006640Y007137D01*
X006646Y007130D02*
X006741Y007091D01*
X006844Y007091D01*
X006940Y007130D01*
X007012Y007203D01*
X007052Y007298D01*
X007052Y007402D01*
X007012Y007497D01*
X006940Y007570D01*
X006844Y007609D01*
X006741Y007609D01*
X006687Y007587D01*
X006662Y007647D01*
X006590Y007720D01*
X006494Y007759D01*
X006391Y007759D01*
X006296Y007720D01*
X006223Y007647D01*
X006184Y007552D01*
X006184Y007448D01*
X006223Y007353D01*
X006296Y007280D01*
X006391Y007241D01*
X006494Y007241D01*
X006548Y007263D01*
X006573Y007203D01*
X006646Y007130D01*
X006568Y007215D02*
X005476Y007215D01*
X005553Y007294D02*
X005583Y007294D01*
X005903Y007294D02*
X006283Y007294D01*
X006215Y007372D02*
X005970Y007372D01*
X006002Y007451D02*
X006184Y007451D01*
X006184Y007529D02*
X006002Y007529D01*
X005979Y007608D02*
X006207Y007608D01*
X006262Y007686D02*
X005923Y007686D01*
X006623Y007686D02*
X008323Y007686D01*
X008323Y007608D02*
X006848Y007608D01*
X006738Y007608D02*
X006679Y007608D01*
X006980Y007529D02*
X008338Y007529D01*
X008371Y007451D02*
X007032Y007451D01*
X007052Y007372D02*
X008427Y007372D01*
X008506Y007294D02*
X007050Y007294D01*
X007017Y007215D02*
X009083Y007215D01*
X009083Y007137D02*
X006946Y007137D01*
X007141Y008141D02*
X007046Y008180D01*
X006973Y008253D01*
X006934Y008348D01*
X006934Y008452D01*
X006973Y008547D01*
X007046Y008620D01*
X007141Y008659D01*
X007244Y008659D01*
X007340Y008620D01*
X007412Y008547D01*
X007452Y008452D01*
X007452Y008348D01*
X007412Y008253D01*
X007340Y008180D01*
X007244Y008141D01*
X007141Y008141D01*
X007102Y008157D02*
X001403Y008157D01*
X001403Y008079D02*
X009083Y008079D01*
X009083Y008157D02*
X007933Y008157D01*
X007894Y008141D02*
X007990Y008180D01*
X008062Y008253D01*
X008102Y008348D01*
X008102Y008452D01*
X008062Y008547D01*
X007990Y008620D01*
X007894Y008659D01*
X007791Y008659D01*
X007696Y008620D01*
X007623Y008547D01*
X007584Y008452D01*
X007584Y008348D01*
X007623Y008253D01*
X007696Y008180D01*
X007791Y008141D01*
X007894Y008141D01*
X008045Y008236D02*
X008646Y008236D01*
X008485Y008314D02*
X008088Y008314D01*
X008102Y008393D02*
X008406Y008393D01*
X008362Y008471D02*
X008094Y008471D01*
X008060Y008550D02*
X008330Y008550D01*
X008323Y008628D02*
X007969Y008628D01*
X007716Y008628D02*
X007319Y008628D01*
X007410Y008550D02*
X007626Y008550D01*
X007592Y008471D02*
X007444Y008471D01*
X007452Y008393D02*
X007584Y008393D01*
X007598Y008314D02*
X007438Y008314D01*
X007395Y008236D02*
X007641Y008236D01*
X007752Y008157D02*
X007283Y008157D01*
X006991Y008236D02*
X004995Y008236D01*
X004960Y008200D02*
X005032Y008273D01*
X005072Y008368D01*
X005072Y008472D01*
X005032Y008567D01*
X004960Y008640D01*
X004864Y008679D01*
X004761Y008679D01*
X004666Y008640D01*
X004593Y008567D01*
X004554Y008472D01*
X004554Y008368D01*
X004593Y008273D01*
X004666Y008200D01*
X004761Y008161D01*
X004864Y008161D01*
X004960Y008200D01*
X005049Y008314D02*
X006948Y008314D01*
X006934Y008393D02*
X005072Y008393D01*
X005072Y008471D02*
X006942Y008471D01*
X006976Y008550D02*
X005040Y008550D01*
X004971Y008628D02*
X007066Y008628D01*
X007241Y009091D02*
X007344Y009091D01*
X007440Y009130D01*
X007512Y009203D01*
X007552Y009298D01*
X007552Y009402D01*
X007515Y009491D01*
X007544Y009491D01*
X007634Y009528D01*
X007634Y009448D01*
X007673Y009353D01*
X007746Y009280D01*
X007841Y009241D01*
X007944Y009241D01*
X008040Y009280D01*
X008112Y009353D01*
X008152Y009448D01*
X008152Y009552D01*
X008112Y009647D01*
X008040Y009720D01*
X007944Y009759D01*
X007841Y009759D01*
X007752Y009722D01*
X007752Y009802D01*
X007712Y009897D01*
X007640Y009970D01*
X007544Y010009D01*
X007441Y010009D01*
X007346Y009970D01*
X007273Y009897D01*
X007234Y009802D01*
X007234Y009698D01*
X007271Y009609D01*
X007249Y009609D01*
X007212Y009697D01*
X007140Y009770D01*
X007044Y009809D01*
X006941Y009809D01*
X006846Y009770D01*
X006773Y009697D01*
X006734Y009602D01*
X006734Y009498D01*
X006773Y009403D01*
X006846Y009330D01*
X006941Y009291D01*
X007037Y009291D01*
X007073Y009203D01*
X007146Y009130D01*
X007241Y009091D01*
X007222Y009099D02*
X006531Y009099D01*
X006512Y009053D02*
X006552Y009148D01*
X006552Y009252D01*
X006512Y009347D01*
X006440Y009420D01*
X006344Y009459D01*
X006241Y009459D01*
X006146Y009420D01*
X006073Y009347D01*
X006034Y009252D01*
X006034Y009148D01*
X006073Y009053D01*
X006146Y008980D01*
X006241Y008941D01*
X006344Y008941D01*
X006440Y008980D01*
X006512Y009053D01*
X006480Y009021D02*
X008540Y009021D01*
X008441Y008942D02*
X006347Y008942D01*
X006239Y008942D02*
X003002Y008942D01*
X003002Y008864D02*
X008377Y008864D01*
X008344Y008785D02*
X002976Y008785D01*
X002916Y008707D02*
X008323Y008707D01*
X008596Y009256D02*
X007981Y009256D01*
X008094Y009335D02*
X008464Y009335D01*
X008386Y009413D02*
X008137Y009413D01*
X008152Y009492D02*
X008354Y009492D01*
X008323Y009570D02*
X008144Y009570D01*
X008111Y009649D02*
X008323Y009649D01*
X008323Y009727D02*
X008022Y009727D01*
X007764Y009727D02*
X007752Y009727D01*
X007750Y009806D02*
X008353Y009806D01*
X008385Y009884D02*
X007718Y009884D01*
X007647Y009963D02*
X008461Y009963D01*
X008589Y010041D02*
X001896Y010041D01*
X002024Y009963D02*
X007339Y009963D01*
X007268Y009884D02*
X002100Y009884D01*
X002133Y009806D02*
X006933Y009806D01*
X006803Y009727D02*
X002163Y009727D01*
X002163Y009649D02*
X002266Y009649D01*
X002420Y009649D02*
X002666Y009649D01*
X002546Y009570D02*
X002539Y009570D01*
X002820Y009649D02*
X006753Y009649D01*
X006734Y009570D02*
X002939Y009570D01*
X002985Y009492D02*
X003218Y009492D01*
X003246Y009520D02*
X003173Y009447D01*
X003134Y009352D01*
X003134Y009248D01*
X003173Y009153D01*
X003246Y009080D01*
X003341Y009041D01*
X003444Y009041D01*
X003540Y009080D01*
X003612Y009153D01*
X003652Y009248D01*
X003652Y009352D01*
X003612Y009447D01*
X003540Y009520D01*
X003444Y009559D01*
X003341Y009559D01*
X003246Y009520D01*
X003159Y009413D02*
X003002Y009413D01*
X002996Y009335D02*
X003134Y009335D01*
X003134Y009256D02*
X002964Y009256D01*
X002883Y009178D02*
X003163Y009178D01*
X003227Y009099D02*
X002910Y009099D01*
X002973Y009021D02*
X004920Y009021D01*
X004896Y009030D02*
X004991Y008991D01*
X005094Y008991D01*
X005190Y009030D01*
X005262Y009103D01*
X005302Y009198D01*
X005302Y009302D01*
X005262Y009397D01*
X005190Y009470D01*
X005094Y009509D01*
X004991Y009509D01*
X004896Y009470D01*
X004823Y009397D01*
X004784Y009302D01*
X004784Y009198D01*
X004823Y009103D01*
X004896Y009030D01*
X004827Y009099D02*
X003558Y009099D01*
X003622Y009178D02*
X004792Y009178D01*
X004784Y009256D02*
X003652Y009256D01*
X003652Y009335D02*
X004797Y009335D01*
X004839Y009413D02*
X003626Y009413D01*
X003568Y009492D02*
X004949Y009492D01*
X005137Y009492D02*
X006737Y009492D01*
X006769Y009413D02*
X006446Y009413D01*
X006517Y009335D02*
X006842Y009335D01*
X007051Y009256D02*
X006550Y009256D01*
X006552Y009178D02*
X007099Y009178D01*
X007364Y009099D02*
X009083Y009099D01*
X009083Y009021D02*
X008946Y009021D01*
X009045Y008942D02*
X009083Y008942D01*
X009083Y009178D02*
X007487Y009178D01*
X007534Y009256D02*
X007805Y009256D01*
X007692Y009335D02*
X007552Y009335D01*
X007547Y009413D02*
X007648Y009413D01*
X007634Y009492D02*
X007546Y009492D01*
X007254Y009649D02*
X007232Y009649D01*
X007234Y009727D02*
X007182Y009727D01*
X007235Y009806D02*
X007053Y009806D01*
X006139Y009413D02*
X005246Y009413D01*
X005288Y009335D02*
X006068Y009335D01*
X006036Y009256D02*
X005302Y009256D01*
X005293Y009178D02*
X006034Y009178D01*
X006054Y009099D02*
X005258Y009099D01*
X005166Y009021D02*
X006106Y009021D01*
X005212Y007686D02*
X004650Y007686D01*
X004752Y007608D02*
X004784Y007608D01*
X004436Y007686D02*
X002163Y007686D01*
X002163Y007608D02*
X004334Y007608D01*
X004295Y007529D02*
X003686Y007529D01*
X003708Y007520D02*
X003613Y007559D01*
X003510Y007559D01*
X003415Y007520D01*
X003342Y007447D01*
X003303Y007352D01*
X003303Y007248D01*
X003342Y007153D01*
X003415Y007080D01*
X003510Y007041D01*
X003613Y007041D01*
X003708Y007080D01*
X003781Y007153D01*
X003821Y007248D01*
X003821Y007352D01*
X003781Y007447D01*
X003708Y007520D01*
X003778Y007451D02*
X004284Y007451D01*
X004295Y007372D02*
X003812Y007372D01*
X003821Y007294D02*
X004333Y007294D01*
X004433Y007215D02*
X003807Y007215D01*
X003765Y007137D02*
X004984Y007137D01*
X004984Y007058D02*
X003654Y007058D01*
X003469Y007058D02*
X001855Y007058D01*
X002007Y006980D02*
X004520Y006980D01*
X004496Y006970D02*
X004591Y007009D01*
X004694Y007009D01*
X004790Y006970D01*
X004862Y006897D01*
X004902Y006802D01*
X004902Y006698D01*
X004862Y006603D01*
X004790Y006530D01*
X004694Y006491D01*
X004591Y006491D01*
X004496Y006530D01*
X004423Y006603D01*
X004384Y006698D01*
X004384Y006802D01*
X004423Y006897D01*
X004496Y006970D01*
X004427Y006901D02*
X002086Y006901D01*
X002126Y006823D02*
X004392Y006823D01*
X004384Y006744D02*
X002158Y006744D01*
X002163Y006666D02*
X004397Y006666D01*
X004439Y006587D02*
X002163Y006587D01*
X002139Y006509D02*
X004549Y006509D01*
X004737Y006509D02*
X007850Y006509D01*
X007834Y006587D02*
X004846Y006587D01*
X004888Y006666D02*
X007840Y006666D01*
X007872Y006744D02*
X004902Y006744D01*
X004893Y006823D02*
X007953Y006823D01*
X007896Y006430D02*
X002106Y006430D01*
X002038Y006352D02*
X008016Y006352D01*
X008605Y005253D02*
X003957Y005253D01*
X004022Y005174D02*
X006707Y005174D01*
X006623Y005096D02*
X004052Y005096D01*
X004052Y005017D02*
X006590Y005017D01*
X006584Y004939D02*
X004027Y004939D01*
X003969Y004860D02*
X006600Y004860D01*
X006979Y005174D02*
X009083Y005174D01*
X009083Y005253D02*
X008881Y005253D01*
X009018Y005331D02*
X009083Y005331D01*
X009083Y006273D02*
X008930Y006273D01*
X009038Y006352D02*
X009083Y006352D01*
X009083Y006980D02*
X009007Y006980D01*
X009083Y007058D02*
X008855Y007058D01*
X008980Y007294D02*
X009083Y007294D01*
X009083Y007372D02*
X009059Y007372D01*
X009065Y007922D02*
X009083Y007922D01*
X009083Y008000D02*
X008987Y008000D01*
X009083Y008236D02*
X008840Y008236D01*
X009001Y008314D02*
X009083Y008314D01*
X009079Y008393D02*
X009083Y008393D01*
X008499Y008000D02*
X001987Y008000D01*
X002065Y007922D02*
X008420Y007922D01*
X008368Y007843D02*
X002117Y007843D01*
X002150Y007765D02*
X008336Y007765D01*
X008889Y009256D02*
X009083Y009256D01*
X009083Y009335D02*
X009021Y009335D01*
X009024Y009963D02*
X009083Y009963D01*
X009083Y010041D02*
X008896Y010041D01*
X009083Y010120D02*
X001403Y010120D01*
X001403Y010198D02*
X009083Y010198D01*
X009083Y010277D02*
X008939Y010277D01*
X009042Y010355D02*
X009083Y010355D01*
X009082Y010905D02*
X009083Y010905D01*
X009083Y010983D02*
X009004Y010983D01*
X009083Y011062D02*
X008847Y011062D01*
X008831Y011219D02*
X009083Y011219D01*
X009083Y011297D02*
X009006Y011297D01*
X009083Y011140D02*
X004390Y011140D01*
X004344Y011159D02*
X004241Y011159D01*
X004146Y011120D01*
X004073Y011047D01*
X004034Y010952D01*
X004034Y010848D01*
X004073Y010753D01*
X004146Y010680D01*
X004241Y010641D01*
X004344Y010641D01*
X004440Y010680D01*
X004512Y010753D01*
X004552Y010848D01*
X004552Y010952D01*
X004512Y011047D01*
X004440Y011120D01*
X004344Y011159D01*
X004498Y011062D02*
X008639Y011062D01*
X008654Y011219D02*
X001403Y011219D01*
X001403Y011297D02*
X001502Y011297D01*
X001423Y011376D02*
X001403Y011376D01*
X001403Y011140D02*
X004195Y011140D01*
X004088Y011062D02*
X001847Y011062D01*
X002004Y010983D02*
X004047Y010983D01*
X004034Y010905D02*
X002082Y010905D01*
X002124Y010826D02*
X004043Y010826D01*
X004079Y010748D02*
X002157Y010748D01*
X002163Y010669D02*
X004173Y010669D01*
X004412Y010669D02*
X008323Y010669D01*
X008323Y010591D02*
X002163Y010591D01*
X002140Y010512D02*
X008345Y010512D01*
X008378Y010434D02*
X002108Y010434D01*
X002042Y010355D02*
X008444Y010355D01*
X008547Y010277D02*
X001939Y010277D01*
X001547Y010277D02*
X001403Y010277D01*
X001403Y010355D02*
X001444Y010355D01*
X001403Y010041D02*
X001589Y010041D01*
X001461Y009963D02*
X001403Y009963D01*
X001403Y009335D02*
X001464Y009335D01*
X001403Y009256D02*
X001596Y009256D01*
X001540Y009021D02*
X001403Y009021D01*
X001403Y009099D02*
X002575Y009099D01*
X002603Y009178D02*
X002483Y009178D01*
X002512Y009021D02*
X001946Y009021D01*
X002045Y008942D02*
X002484Y008942D01*
X002340Y008864D02*
X002109Y008864D01*
X002141Y008785D02*
X002268Y008785D01*
X002236Y008707D02*
X002163Y008707D01*
X002163Y008628D02*
X002234Y008628D01*
X002254Y008550D02*
X002156Y008550D01*
X002123Y008471D02*
X002305Y008471D01*
X002437Y008393D02*
X002079Y008393D01*
X002001Y008314D02*
X004576Y008314D01*
X004554Y008393D02*
X002548Y008393D01*
X002680Y008471D02*
X004554Y008471D01*
X004586Y008550D02*
X002732Y008550D01*
X002752Y008628D02*
X004654Y008628D01*
X004631Y008236D02*
X001840Y008236D01*
X001646Y008236D02*
X001403Y008236D01*
X001403Y008314D02*
X001485Y008314D01*
X001406Y008393D02*
X001403Y008393D01*
X001403Y008000D02*
X001499Y008000D01*
X001420Y007922D02*
X001403Y007922D01*
X001403Y007372D02*
X001427Y007372D01*
X001403Y007294D02*
X001506Y007294D01*
X001403Y007215D02*
X003316Y007215D01*
X003303Y007294D02*
X001980Y007294D01*
X002059Y007372D02*
X003311Y007372D01*
X003346Y007451D02*
X002115Y007451D01*
X002147Y007529D02*
X003438Y007529D01*
X003359Y007137D02*
X001403Y007137D01*
X001403Y007058D02*
X001630Y007058D01*
X001478Y006980D02*
X001403Y006980D01*
X001403Y006038D02*
X001581Y006038D01*
X001458Y005959D02*
X001403Y005959D01*
X001403Y005331D02*
X001468Y005331D01*
X001403Y005253D02*
X001605Y005253D01*
X001531Y005017D02*
X001403Y005017D01*
X001403Y004939D02*
X001437Y004939D01*
X001410Y004389D02*
X001403Y004389D01*
X001403Y004311D02*
X001488Y004311D01*
X001997Y004311D02*
X008488Y004311D01*
X008410Y004389D02*
X002076Y004389D01*
X002122Y004468D02*
X008364Y004468D01*
X008331Y004546D02*
X002154Y004546D01*
X002146Y003526D02*
X008340Y003526D01*
X008372Y003447D02*
X007023Y003447D01*
X006862Y003447D02*
X002113Y003447D01*
X004652Y007215D02*
X004761Y007215D01*
X004766Y006980D02*
X005012Y006980D01*
X005075Y006901D02*
X004858Y006901D01*
X005102Y007608D02*
X005157Y007608D01*
X004507Y010748D02*
X008329Y010748D01*
X008361Y010826D02*
X004543Y010826D01*
X004552Y010905D02*
X008403Y010905D01*
X008482Y010983D02*
X004539Y010983D01*
X005096Y011880D02*
X005191Y011841D01*
X005294Y011841D01*
X005390Y011880D01*
X005462Y011953D01*
X005502Y012048D01*
X005502Y012152D01*
X005462Y012247D01*
X005390Y012320D01*
X005294Y012359D01*
X005191Y012359D01*
X005096Y012320D01*
X005023Y012247D01*
X004984Y012152D01*
X004984Y012048D01*
X005023Y011953D01*
X005096Y011880D01*
X005051Y011925D02*
X002062Y011925D01*
X002116Y011847D02*
X005178Y011847D01*
X005308Y011847D02*
X006085Y011847D01*
X006084Y011848D02*
X006123Y011753D01*
X006196Y011680D01*
X006291Y011641D01*
X006394Y011641D01*
X006490Y011680D01*
X006562Y011753D01*
X006602Y011848D01*
X006602Y011952D01*
X006562Y012047D01*
X006490Y012120D01*
X006394Y012159D01*
X006291Y012159D01*
X006196Y012120D01*
X006123Y012047D01*
X006084Y011952D01*
X006084Y011848D01*
X006084Y011925D02*
X005434Y011925D01*
X005483Y012004D02*
X006105Y012004D01*
X006158Y012082D02*
X005502Y012082D01*
X005498Y012161D02*
X006787Y012161D01*
X006796Y012170D02*
X006723Y012097D01*
X006684Y012002D01*
X006684Y011898D01*
X006723Y011803D01*
X006796Y011730D01*
X006891Y011691D01*
X006994Y011691D01*
X007090Y011730D01*
X007162Y011803D01*
X007202Y011898D01*
X007202Y012002D01*
X007162Y012097D01*
X007090Y012170D01*
X006994Y012209D01*
X006891Y012209D01*
X006796Y012170D01*
X006717Y012082D02*
X006527Y012082D01*
X006580Y012004D02*
X006685Y012004D01*
X006684Y011925D02*
X006602Y011925D01*
X006601Y011847D02*
X006705Y011847D01*
X006758Y011768D02*
X006569Y011768D01*
X006499Y011690D02*
X008703Y011690D01*
X008703Y011768D02*
X008783Y011768D01*
X008783Y011847D02*
X008703Y011847D01*
X008703Y011925D02*
X008783Y011925D01*
X008783Y012004D02*
X008703Y012004D01*
X008703Y012082D02*
X008783Y012082D01*
X008828Y012082D02*
X009083Y012082D01*
X009083Y012004D02*
X009005Y012004D01*
X009083Y012161D02*
X007099Y012161D01*
X007169Y012082D02*
X008658Y012082D01*
X008481Y012004D02*
X007201Y012004D01*
X007202Y011925D02*
X008399Y011925D01*
X008349Y011847D02*
X007180Y011847D01*
X007127Y011768D02*
X008319Y011768D01*
X008318Y011533D02*
X002149Y011533D01*
X002163Y011611D02*
X008703Y011611D01*
X008703Y011533D02*
X008783Y011533D01*
X008783Y011454D02*
X008703Y011454D01*
X008703Y011376D02*
X008783Y011376D01*
X008783Y011297D02*
X008703Y011297D01*
X008703Y011219D02*
X008783Y011219D01*
X008480Y011297D02*
X001984Y011297D01*
X002062Y011376D02*
X008398Y011376D01*
X008349Y011454D02*
X002116Y011454D01*
X002163Y011690D02*
X006187Y011690D01*
X006117Y011768D02*
X002149Y011768D01*
X001983Y012004D02*
X005002Y012004D01*
X004984Y012082D02*
X001403Y012082D01*
X001403Y012004D02*
X001502Y012004D01*
X001424Y011925D02*
X001403Y011925D01*
X001403Y012161D02*
X001744Y012161D01*
X001696Y012180D02*
X001791Y012141D01*
X001894Y012141D01*
X001990Y012180D01*
X002062Y012253D01*
X002102Y012348D01*
X002102Y012452D01*
X002062Y012547D01*
X001990Y012620D01*
X001894Y012659D01*
X001791Y012659D01*
X001696Y012620D01*
X001623Y012547D01*
X001584Y012452D01*
X001584Y012348D01*
X001623Y012253D01*
X001696Y012180D01*
X001637Y012239D02*
X001403Y012239D01*
X001403Y012318D02*
X001597Y012318D01*
X001584Y012396D02*
X001403Y012396D01*
X001403Y012475D02*
X001593Y012475D01*
X001629Y012553D02*
X001403Y012553D01*
X001403Y012632D02*
X001725Y012632D01*
X001961Y012632D02*
X009083Y012632D01*
X009083Y012710D02*
X001403Y012710D01*
X001403Y012789D02*
X009083Y012789D01*
X009083Y012867D02*
X001403Y012867D01*
X001403Y012946D02*
X009083Y012946D01*
X009083Y012553D02*
X002056Y012553D01*
X002092Y012475D02*
X009083Y012475D01*
X009083Y012396D02*
X002102Y012396D01*
X002089Y012318D02*
X005094Y012318D01*
X005020Y012239D02*
X002048Y012239D01*
X001942Y012161D02*
X004987Y012161D01*
X005392Y012318D02*
X009083Y012318D01*
X009083Y012239D02*
X005466Y012239D01*
X002203Y009178D02*
X001403Y009178D01*
X001403Y008942D02*
X001441Y008942D01*
X001889Y009256D02*
X002122Y009256D01*
X002090Y009335D02*
X002021Y009335D01*
X001403Y010905D02*
X001403Y010905D01*
X001403Y010983D02*
X001482Y010983D01*
X001403Y011062D02*
X001639Y011062D01*
X007141Y003369D02*
X008430Y003369D01*
X008514Y003290D02*
X007186Y003290D01*
X007202Y003212D02*
X009083Y003212D01*
X009083Y003290D02*
X008971Y003290D01*
X009055Y003369D02*
X009083Y003369D01*
X009083Y003133D02*
X007195Y003133D01*
X008864Y003055D02*
X009083Y003055D01*
X009083Y002976D02*
X009011Y002976D01*
X009035Y002348D02*
X009083Y002348D01*
X009083Y002270D02*
X008922Y002270D01*
X008913Y002034D02*
X009083Y002034D01*
X009083Y001956D02*
X009031Y001956D01*
M02*
