%
M48
M72
T01C0.0118
T02C0.0197
T03C0.0236
T04C0.0350
%
T01
X2543Y2750
X3243Y1640
X4243Y1640
X4993Y1640
X5743Y1640
X6923Y3790
X6403Y3890
X6043Y3840
X5943Y5260
X6993Y5910
X7063Y4960
X8073Y4000
X5963Y6910
X5443Y6840
X5043Y6840
X5083Y7380
X5243Y7730
X5563Y8220
X5233Y8410
X4623Y8520
X4483Y8200
X4133Y8220
X3602Y8250
X2493Y8060
X2553Y9900
X2343Y10200
X2383Y10620
X2343Y12590
X2293Y12980
X2543Y13270
X1903Y13240
X3893Y12520
X3903Y10720
X3841Y10138
X4423Y10730
X6073Y10520
X6443Y10130
X6493Y10690
X7093Y11190
X7453Y11190
X8203Y11280
X8293Y12140
X8253Y13070
X6693Y12490
X6393Y12990
X7703Y9830
X7973Y9370
X8243Y8140
X7093Y8040
X6793Y8240
X6693Y8570
X6083Y8370
T02
X6335Y13640
X4150Y13640
T03
X4475Y12813
X6011Y12813
T04
X1743Y1640
X1743Y2640
X1743Y3640
X1743Y4640
X1743Y5640
X1743Y6640
X1743Y7640
X1743Y8640
X1743Y9640
X1743Y10640
X1743Y11640
X1743Y12640
X8743Y12640
X8743Y11640
X8743Y10640
X8743Y9640
X8743Y8640
X8743Y7640
X8743Y6640
X8743Y5640
X8743Y4640
X8743Y3640
X8743Y2640
X8743Y1640
M30
