G75*
G70*
%OFA0B0*%
%FSLAX24Y24*%
%IPPOS*%
%LPD*%
%AMOC8*
5,1,8,0,0,1.08239X$1,22.5*
%
%ADD10R,0.0433X0.0394*%
%ADD11R,0.0157X0.0531*%
%ADD12R,0.0591X0.0748*%
%ADD13C,0.0437*%
%ADD14R,0.0248X0.0327*%
%ADD15R,0.0472X0.0472*%
%ADD16R,0.0472X0.0276*%
%ADD17R,0.0276X0.0472*%
%ADD18R,0.0945X0.0748*%
%ADD19R,0.0394X0.0433*%
%ADD20R,0.0256X0.0492*%
%ADD21R,0.0315X0.0315*%
%ADD22R,0.0433X0.0551*%
%ADD23R,0.0413X0.0866*%
%ADD24R,0.0394X0.0413*%
%ADD25R,0.0394X0.0591*%
%ADD26C,0.0690*%
%ADD27C,0.0278*%
%ADD28C,0.0080*%
%ADD29C,0.0060*%
%ADD30C,0.0240*%
%ADD31C,0.0200*%
%ADD32C,0.0160*%
%ADD33C,0.0220*%
%ADD34C,0.0120*%
%ADD35C,0.0250*%
D10*
X005768Y002400D03*
X006437Y002400D03*
X006558Y009690D03*
X007227Y009690D03*
X006293Y011405D03*
X006293Y012075D03*
X004193Y012075D03*
X004193Y011405D03*
X003927Y009690D03*
X003258Y009690D03*
D11*
X004731Y012587D03*
X004987Y012587D03*
X005243Y012587D03*
X005499Y012587D03*
X005755Y012587D03*
D12*
X005637Y013640D03*
X004849Y013636D03*
D13*
X004150Y013422D02*
X004150Y013858D01*
X006335Y013858D02*
X006335Y013422D01*
D14*
X002446Y013690D03*
X001540Y013690D03*
D15*
X002940Y008983D03*
X002940Y003274D03*
X007546Y003274D03*
X007546Y008983D03*
D16*
X007546Y008254D03*
X007546Y007782D03*
X007546Y007309D03*
X007546Y006837D03*
X007546Y006364D03*
X007546Y005892D03*
X007546Y005420D03*
X007546Y004947D03*
X007546Y004475D03*
X007546Y004002D03*
X002940Y004002D03*
X002940Y004475D03*
X002940Y004947D03*
X002940Y005420D03*
X002940Y005892D03*
X002940Y006364D03*
X002940Y006837D03*
X002940Y007309D03*
X002940Y007782D03*
X002940Y008254D03*
D17*
X003589Y008983D03*
X004062Y008983D03*
X004534Y008983D03*
X005007Y008983D03*
X005479Y008983D03*
X005951Y008983D03*
X006424Y008983D03*
X006896Y008983D03*
X006896Y003274D03*
X006424Y003274D03*
X005951Y003274D03*
X005479Y003274D03*
X005007Y003274D03*
X004534Y003274D03*
X004062Y003274D03*
X003589Y003274D03*
D18*
X004396Y004711D03*
X004396Y006128D03*
X004396Y007546D03*
X006089Y007546D03*
X006089Y006128D03*
X006089Y004711D03*
D19*
X006443Y002375D03*
X006443Y001705D03*
X007043Y001695D03*
X007043Y001025D03*
X007643Y001705D03*
X007643Y002375D03*
X005577Y009690D03*
X004908Y009690D03*
X003427Y012810D03*
X002758Y012810D03*
D20*
X002938Y012028D03*
X003548Y012028D03*
X003548Y010552D03*
X002938Y010552D03*
X006938Y010552D03*
X007548Y010552D03*
X007548Y012028D03*
X006938Y012028D03*
D21*
X007693Y012995D03*
X007693Y013585D03*
D22*
X005597Y011511D03*
X004888Y011511D03*
X004888Y010369D03*
X005597Y010369D03*
D23*
X003824Y001840D03*
X002662Y001840D03*
D24*
X003243Y002441D03*
D25*
X003368Y000540D03*
X006518Y000540D03*
D26*
X001743Y001640D03*
X001743Y002640D03*
X001743Y003640D03*
X001743Y004640D03*
X001743Y005640D03*
X001743Y006640D03*
X001743Y007640D03*
X001743Y008640D03*
X001743Y009640D03*
X001743Y010640D03*
X001743Y011640D03*
X001743Y012640D03*
X008743Y012640D03*
X008743Y011640D03*
X008743Y010640D03*
X008743Y009640D03*
X008743Y008640D03*
X008743Y007640D03*
X008743Y006640D03*
X008743Y005640D03*
X008743Y004640D03*
X008743Y003640D03*
X008743Y002640D03*
X008743Y001640D03*
D27*
X008073Y004000D03*
X007063Y004960D03*
X006993Y005910D03*
X005943Y005260D03*
X006043Y003840D03*
X006403Y003890D03*
X006923Y003790D03*
X005743Y001640D03*
X004793Y001640D03*
X003843Y001640D03*
X002643Y001640D03*
X002543Y002750D03*
X005043Y006840D03*
X005443Y006840D03*
X005083Y007380D03*
X005243Y007730D03*
X005563Y008220D03*
X005233Y008410D03*
X004623Y008520D03*
X004483Y008200D03*
X004133Y008220D03*
X003602Y008250D03*
X002493Y008060D03*
X002553Y009900D03*
X002343Y010200D03*
X002383Y010620D03*
X002343Y012590D03*
X002293Y012980D03*
X002543Y013270D03*
X001903Y013240D03*
X003893Y012520D03*
X004843Y013840D03*
X005643Y013840D03*
X006393Y012990D03*
X006693Y012490D03*
X007093Y011190D03*
X007453Y011190D03*
X008203Y011280D03*
X008293Y012140D03*
X008253Y013070D03*
X006493Y010690D03*
X006073Y010520D03*
X006443Y010130D03*
X006693Y008570D03*
X006793Y008240D03*
X007093Y008040D03*
X007973Y009370D03*
X007703Y009830D03*
X008243Y008140D03*
X006083Y008370D03*
X005963Y006910D03*
X003841Y010138D03*
X003903Y010720D03*
X004423Y010730D03*
D28*
X004453Y010700D01*
X004453Y009870D01*
X004633Y009690D01*
X004908Y009690D01*
X004633Y009350D02*
X004293Y009690D01*
X004293Y010330D01*
X004163Y010460D01*
X004163Y011375D01*
X004193Y011405D01*
X003903Y010720D02*
X003903Y010470D01*
X004103Y010270D01*
X004103Y009865D01*
X003927Y009690D01*
X003927Y009385D01*
X003933Y009380D01*
X004353Y009380D01*
X004443Y009290D01*
X004443Y009074D01*
X004534Y008983D01*
X004493Y008941D01*
X004493Y008790D01*
X004633Y009350D02*
X007953Y009350D01*
X007973Y009370D01*
X007803Y009560D02*
X007873Y009630D01*
X008223Y009630D01*
X008233Y009620D01*
X008233Y008890D01*
X007873Y008530D01*
X007083Y008530D01*
X006793Y008240D01*
X006896Y008983D02*
X007546Y008983D01*
X007357Y009560D02*
X007803Y009560D01*
X007703Y009830D02*
X007823Y009950D01*
X007823Y011240D01*
X007613Y011450D01*
X006337Y011450D01*
X006293Y011405D01*
X006393Y010790D02*
X004993Y010790D01*
X004888Y010686D01*
X004888Y010369D01*
X005143Y010940D02*
X007203Y010940D01*
X007453Y011190D01*
X007093Y011190D02*
X006993Y011090D01*
X005643Y011090D01*
X005597Y011136D01*
X005597Y011511D01*
X005143Y010940D02*
X004888Y011194D01*
X004888Y011511D01*
X003841Y010138D02*
X003655Y010138D01*
X003553Y010240D01*
X003553Y010547D01*
X003548Y010552D01*
X003543Y010547D01*
X003693Y009380D02*
X003933Y009380D01*
X003693Y009380D02*
X003589Y009276D01*
X003589Y008983D01*
X003593Y008986D01*
X003589Y008983D02*
X002940Y008983D01*
X002940Y007782D02*
X002940Y007309D01*
X004160Y007309D01*
X004396Y007546D01*
X003010Y005490D02*
X002793Y005490D01*
X002543Y005240D01*
X002543Y003440D01*
X002693Y003290D01*
X002924Y003290D01*
X002940Y003274D01*
X002940Y004002D02*
X002940Y004475D01*
X002947Y004940D02*
X002940Y004947D01*
X002940Y005420D02*
X003010Y005490D01*
X002940Y006837D02*
X002940Y007309D01*
X005577Y009690D02*
X005963Y009690D01*
X006183Y009910D01*
X006183Y010230D01*
X006353Y010400D01*
X006938Y010400D01*
X006938Y010552D01*
X006938Y010400D02*
X007123Y010400D01*
X007203Y010320D01*
X007203Y009715D01*
X007227Y009690D01*
X007357Y009560D01*
X006493Y010690D02*
X006393Y010790D01*
X006327Y009079D02*
X006424Y008983D01*
X005993Y006990D02*
X005993Y006940D01*
X006089Y006128D02*
X006127Y006090D01*
X007546Y005892D02*
X007594Y005940D01*
X007843Y005940D01*
X007943Y006040D01*
X007943Y006740D01*
X007846Y006837D01*
X007546Y006837D01*
X007546Y004002D02*
X007305Y004002D01*
X007546Y003337D02*
X007546Y003274D01*
X005951Y003274D02*
X005479Y003274D01*
X005007Y003274D01*
X004534Y003274D01*
X004534Y003449D01*
X004062Y003274D02*
X003589Y003274D01*
X008233Y009620D02*
X008233Y010880D01*
X008743Y011390D01*
X008743Y011640D01*
X008203Y011280D02*
X008023Y011460D01*
X008023Y012900D01*
X007928Y012995D01*
X007693Y012995D01*
X008293Y013309D02*
X008293Y014000D01*
X009103Y014000D01*
X009103Y013190D01*
X008462Y013190D01*
X008455Y013205D01*
X008388Y013273D01*
X008300Y013309D01*
X008293Y013309D01*
X008304Y013308D02*
X009103Y013308D01*
X009103Y013386D02*
X008293Y013386D01*
X008293Y013465D02*
X009103Y013465D01*
X009103Y013543D02*
X008293Y013543D01*
X008293Y013622D02*
X009103Y013622D01*
X009103Y013700D02*
X008293Y013700D01*
X008293Y013779D02*
X009103Y013779D01*
X009103Y013857D02*
X008293Y013857D01*
X008293Y013936D02*
X009103Y013936D01*
X009103Y013229D02*
X008432Y013229D01*
D29*
X006921Y009840D02*
X006297Y009840D01*
X006237Y009780D01*
X006017Y009560D01*
X005864Y009560D01*
X005864Y009480D01*
X006921Y009480D01*
X006921Y009840D01*
X006921Y009798D02*
X006255Y009798D01*
X006196Y009740D02*
X006921Y009740D01*
X006921Y009681D02*
X006138Y009681D01*
X006079Y009623D02*
X006921Y009623D01*
X006921Y009564D02*
X006021Y009564D01*
X005864Y009506D02*
X006921Y009506D01*
X006652Y009220D02*
X007799Y009220D01*
X007878Y009141D01*
X008043Y009141D01*
X008043Y008884D01*
X007819Y008660D01*
X007029Y008660D01*
X006838Y008469D01*
X006698Y008469D01*
X006564Y008335D01*
X006564Y008145D01*
X006698Y008011D01*
X006864Y008011D01*
X006864Y007945D01*
X006998Y007811D01*
X007188Y007811D01*
X007322Y007945D01*
X007322Y008135D01*
X007188Y008269D01*
X007022Y008269D01*
X007022Y008285D01*
X007137Y008400D01*
X007927Y008400D01*
X008043Y008516D01*
X008043Y006824D01*
X007997Y006870D01*
X007900Y006967D01*
X007872Y006967D01*
X007872Y007012D01*
X007819Y007065D01*
X007272Y007065D01*
X007220Y007012D01*
X007220Y006662D01*
X007272Y006609D01*
X007813Y006609D01*
X007813Y006592D01*
X007272Y006592D01*
X007220Y006539D01*
X007220Y006189D01*
X007272Y006137D01*
X007813Y006137D01*
X007813Y006120D01*
X007272Y006120D01*
X007220Y006067D01*
X007220Y006007D01*
X007088Y006139D01*
X006898Y006139D01*
X006764Y006005D01*
X006764Y005815D01*
X006898Y005681D01*
X007088Y005681D01*
X007220Y005813D01*
X007220Y005717D01*
X007272Y005664D01*
X007819Y005664D01*
X007872Y005717D01*
X007872Y005810D01*
X007897Y005810D01*
X007973Y005886D01*
X008043Y005956D01*
X008043Y002185D01*
X008027Y002202D01*
X007905Y002252D01*
X007380Y002252D01*
X007330Y002231D01*
X007305Y002241D01*
X006984Y002241D01*
X006984Y002662D01*
X006934Y002784D01*
X006879Y002839D01*
X006879Y002941D01*
X006892Y002972D01*
X006892Y003561D01*
X007018Y003561D01*
X007152Y003695D01*
X007152Y003885D01*
X007018Y004019D01*
X006828Y004019D01*
X006694Y003885D01*
X006694Y003813D01*
X006632Y003838D01*
X006632Y003985D01*
X006498Y004119D01*
X006308Y004119D01*
X006198Y004009D01*
X006138Y004069D01*
X005948Y004069D01*
X005814Y003935D01*
X005814Y003745D01*
X005948Y003611D01*
X005971Y003611D01*
X005956Y003576D01*
X005956Y002972D01*
X005969Y002941D01*
X005969Y002927D01*
X005486Y002927D01*
X005365Y002877D01*
X005343Y002855D01*
X005121Y002855D01*
X005069Y002908D01*
X004941Y003036D01*
X004773Y003105D01*
X004289Y003105D01*
X004289Y003547D01*
X004237Y003600D01*
X003887Y003600D01*
X003834Y003547D01*
X003834Y003404D01*
X003817Y003404D01*
X003817Y003547D01*
X003764Y003600D01*
X003414Y003600D01*
X003361Y003547D01*
X003361Y003105D01*
X003277Y003105D01*
X003110Y003036D01*
X003052Y002978D01*
X002980Y002978D01*
X002859Y002928D01*
X002766Y002835D01*
X002716Y002714D01*
X002716Y002169D01*
X002766Y002048D01*
X002859Y001955D01*
X002980Y001905D01*
X003505Y001905D01*
X003627Y001955D01*
X003719Y002048D01*
X003770Y002169D01*
X003770Y002195D01*
X004494Y002195D01*
X004675Y002014D01*
X004842Y001945D01*
X005343Y001945D01*
X005365Y001923D01*
X005486Y001873D01*
X005916Y001873D01*
X005916Y001440D01*
X002443Y001440D01*
X002443Y006253D01*
X002541Y006154D01*
X002648Y006154D01*
X002666Y006137D01*
X003213Y006137D01*
X003266Y006189D01*
X003266Y006539D01*
X003213Y006592D01*
X002703Y006592D01*
X002703Y007946D01*
X002722Y007965D01*
X002722Y008026D01*
X003213Y008026D01*
X003266Y008079D01*
X003266Y008429D01*
X003213Y008482D01*
X002703Y008482D01*
X002703Y009223D01*
X002952Y009472D01*
X002952Y009456D01*
X003004Y009403D01*
X003512Y009403D01*
X003565Y009456D01*
X003565Y009840D01*
X004163Y009840D01*
X004163Y009636D01*
X004239Y009560D01*
X004579Y009220D01*
X004779Y009220D01*
X004779Y008709D01*
X004783Y008705D01*
X004783Y008684D01*
X004718Y008749D01*
X004528Y008749D01*
X004449Y008670D01*
X004295Y008670D01*
X004273Y008692D01*
X004289Y008709D01*
X004289Y009256D01*
X004237Y009309D01*
X003887Y009309D01*
X003834Y009256D01*
X003834Y008709D01*
X003887Y008656D01*
X003912Y008656D01*
X003912Y008629D01*
X004083Y008458D01*
X004092Y008449D01*
X004038Y008449D01*
X003904Y008315D01*
X003904Y008125D01*
X004038Y007991D01*
X004228Y007991D01*
X004298Y008061D01*
X004388Y007971D01*
X004578Y007971D01*
X004712Y008105D01*
X004712Y008291D01*
X004718Y008291D01*
X004783Y008356D01*
X004783Y008228D01*
X005093Y007918D01*
X005093Y007904D01*
X005014Y007825D01*
X005014Y007635D01*
X005148Y007501D01*
X005338Y007501D01*
X005472Y007635D01*
X005472Y007825D01*
X005393Y007904D01*
X005393Y008042D01*
X005305Y008130D01*
X005254Y008181D01*
X005328Y008181D01*
X005334Y008187D01*
X005334Y008125D01*
X005468Y007991D01*
X005580Y007991D01*
X005641Y007930D01*
X006265Y007930D01*
X006435Y008100D01*
X006523Y008188D01*
X006523Y008656D01*
X006599Y008656D01*
X006652Y008709D01*
X006652Y009220D01*
X006652Y009213D02*
X007806Y009213D01*
X007864Y009155D02*
X006652Y009155D01*
X006652Y009096D02*
X008043Y009096D01*
X008043Y009038D02*
X006652Y009038D01*
X006652Y008979D02*
X008043Y008979D01*
X008043Y008921D02*
X006652Y008921D01*
X006652Y008862D02*
X008021Y008862D01*
X007962Y008804D02*
X006652Y008804D01*
X006652Y008745D02*
X007904Y008745D01*
X007845Y008687D02*
X006629Y008687D01*
X006523Y008628D02*
X006997Y008628D01*
X006938Y008570D02*
X006523Y008570D01*
X006523Y008511D02*
X006880Y008511D01*
X007022Y008277D02*
X008043Y008277D01*
X008043Y008219D02*
X007238Y008219D01*
X007297Y008160D02*
X008043Y008160D01*
X008043Y008102D02*
X007322Y008102D01*
X007322Y008043D02*
X008043Y008043D01*
X008043Y007985D02*
X007322Y007985D01*
X007303Y007926D02*
X008043Y007926D01*
X008043Y007868D02*
X007244Y007868D01*
X007272Y007537D02*
X007220Y007484D01*
X007220Y007134D01*
X007272Y007081D01*
X007819Y007081D01*
X007872Y007134D01*
X007872Y007484D01*
X007819Y007537D01*
X007272Y007537D01*
X007252Y007517D02*
X005353Y007517D01*
X005412Y007575D02*
X008043Y007575D01*
X008043Y007517D02*
X007840Y007517D01*
X007872Y007458D02*
X008043Y007458D01*
X008043Y007400D02*
X007872Y007400D01*
X007872Y007341D02*
X008043Y007341D01*
X008043Y007283D02*
X007872Y007283D01*
X007872Y007224D02*
X008043Y007224D01*
X008043Y007166D02*
X007872Y007166D01*
X007845Y007107D02*
X008043Y007107D01*
X008043Y007049D02*
X007836Y007049D01*
X007872Y006990D02*
X008043Y006990D01*
X008043Y006932D02*
X007935Y006932D01*
X007994Y006873D02*
X008043Y006873D01*
X008043Y007634D02*
X005470Y007634D01*
X005472Y007692D02*
X008043Y007692D01*
X008043Y007751D02*
X005472Y007751D01*
X005472Y007809D02*
X008043Y007809D01*
X008043Y008336D02*
X007072Y008336D01*
X007131Y008394D02*
X008043Y008394D01*
X008043Y008453D02*
X007979Y008453D01*
X008038Y008511D02*
X008043Y008511D01*
X007220Y007458D02*
X002703Y007458D01*
X002703Y007400D02*
X007220Y007400D01*
X007220Y007341D02*
X002703Y007341D01*
X002703Y007283D02*
X007220Y007283D01*
X007220Y007224D02*
X002703Y007224D01*
X002703Y007166D02*
X007220Y007166D01*
X007247Y007107D02*
X002703Y007107D01*
X002703Y007049D02*
X004927Y007049D01*
X004948Y007069D02*
X004814Y006935D01*
X004814Y006745D01*
X004948Y006611D01*
X005138Y006611D01*
X005193Y006666D01*
X005193Y005842D01*
X004921Y005570D01*
X003751Y005570D01*
X003663Y005482D01*
X003278Y005097D01*
X003266Y005097D01*
X003266Y005122D01*
X003213Y005175D01*
X002666Y005175D01*
X002613Y005122D01*
X002613Y004772D01*
X002666Y004719D01*
X003213Y004719D01*
X003266Y004772D01*
X003266Y004797D01*
X003402Y004797D01*
X003490Y004885D01*
X003875Y005270D01*
X005045Y005270D01*
X005405Y005630D01*
X005493Y005718D01*
X005493Y006611D01*
X005538Y006611D01*
X005672Y006745D01*
X005672Y006935D01*
X005538Y007069D01*
X005348Y007069D01*
X005243Y006964D01*
X005138Y007069D01*
X004948Y007069D01*
X004869Y006990D02*
X002703Y006990D01*
X002703Y006932D02*
X004814Y006932D01*
X004814Y006873D02*
X002703Y006873D01*
X002703Y006815D02*
X004814Y006815D01*
X004814Y006756D02*
X002703Y006756D01*
X002703Y006698D02*
X004861Y006698D01*
X004920Y006639D02*
X002703Y006639D01*
X002466Y006230D02*
X002443Y006230D01*
X002443Y006171D02*
X002525Y006171D01*
X002443Y006113D02*
X002659Y006113D01*
X002666Y006120D02*
X002613Y006067D01*
X002613Y005717D01*
X002666Y005664D01*
X003213Y005664D01*
X003266Y005717D01*
X003266Y006067D01*
X003213Y006120D01*
X002666Y006120D01*
X002613Y006054D02*
X002443Y006054D01*
X002443Y005996D02*
X002613Y005996D01*
X002613Y005937D02*
X002443Y005937D01*
X002443Y005879D02*
X002613Y005879D01*
X002613Y005820D02*
X002443Y005820D01*
X002443Y005762D02*
X002613Y005762D01*
X002627Y005703D02*
X002443Y005703D01*
X002443Y005645D02*
X004995Y005645D01*
X005054Y005703D02*
X003252Y005703D01*
X003266Y005762D02*
X005112Y005762D01*
X005171Y005820D02*
X003266Y005820D01*
X003266Y005879D02*
X005193Y005879D01*
X005193Y005937D02*
X003266Y005937D01*
X003266Y005996D02*
X005193Y005996D01*
X005193Y006054D02*
X003266Y006054D01*
X003220Y006113D02*
X005193Y006113D01*
X005193Y006171D02*
X003248Y006171D01*
X003266Y006230D02*
X005193Y006230D01*
X005193Y006288D02*
X003266Y006288D01*
X003266Y006347D02*
X005193Y006347D01*
X005193Y006405D02*
X003266Y006405D01*
X003266Y006464D02*
X005193Y006464D01*
X005193Y006522D02*
X003266Y006522D01*
X003225Y006581D02*
X005193Y006581D01*
X005193Y006639D02*
X005166Y006639D01*
X005217Y006990D02*
X005269Y006990D01*
X005327Y007049D02*
X005158Y007049D01*
X005132Y007517D02*
X002703Y007517D01*
X002703Y007575D02*
X005074Y007575D01*
X005015Y007634D02*
X002703Y007634D01*
X002703Y007692D02*
X005014Y007692D01*
X005014Y007751D02*
X002703Y007751D01*
X002703Y007809D02*
X005014Y007809D01*
X005056Y007868D02*
X002703Y007868D01*
X002703Y007926D02*
X005085Y007926D01*
X005026Y007985D02*
X004591Y007985D01*
X004650Y008043D02*
X004968Y008043D01*
X004909Y008102D02*
X004708Y008102D01*
X004712Y008160D02*
X004851Y008160D01*
X004792Y008219D02*
X004712Y008219D01*
X004712Y008277D02*
X004783Y008277D01*
X004783Y008336D02*
X004762Y008336D01*
X004780Y008687D02*
X004783Y008687D01*
X004779Y008745D02*
X004722Y008745D01*
X004779Y008804D02*
X004289Y008804D01*
X004289Y008862D02*
X004779Y008862D01*
X004779Y008921D02*
X004289Y008921D01*
X004289Y008979D02*
X004779Y008979D01*
X004779Y009038D02*
X004289Y009038D01*
X004289Y009096D02*
X004779Y009096D01*
X004779Y009155D02*
X004289Y009155D01*
X004289Y009213D02*
X004779Y009213D01*
X004527Y009272D02*
X004274Y009272D01*
X004410Y009389D02*
X002868Y009389D01*
X002927Y009447D02*
X002960Y009447D01*
X002810Y009330D02*
X004469Y009330D01*
X004352Y009447D02*
X003556Y009447D01*
X003565Y009506D02*
X004293Y009506D01*
X004235Y009564D02*
X003565Y009564D01*
X003565Y009623D02*
X004176Y009623D01*
X004163Y009681D02*
X003565Y009681D01*
X003565Y009740D02*
X004163Y009740D01*
X004163Y009798D02*
X003565Y009798D01*
X003849Y009272D02*
X002751Y009272D01*
X002703Y009213D02*
X003834Y009213D01*
X003834Y009155D02*
X002703Y009155D01*
X002703Y009096D02*
X003834Y009096D01*
X003834Y009038D02*
X002703Y009038D01*
X002703Y008979D02*
X003834Y008979D01*
X003834Y008921D02*
X002703Y008921D01*
X002703Y008862D02*
X003834Y008862D01*
X003834Y008804D02*
X002703Y008804D01*
X002703Y008745D02*
X003834Y008745D01*
X003856Y008687D02*
X002703Y008687D01*
X002703Y008628D02*
X003913Y008628D01*
X003971Y008570D02*
X002703Y008570D01*
X002703Y008511D02*
X004030Y008511D01*
X004088Y008453D02*
X003723Y008453D01*
X003697Y008479D02*
X003507Y008479D01*
X003373Y008345D01*
X003373Y008155D01*
X003507Y008021D01*
X003697Y008021D01*
X003831Y008155D01*
X003831Y008345D01*
X003697Y008479D01*
X003782Y008394D02*
X003983Y008394D01*
X003924Y008336D02*
X003831Y008336D01*
X003831Y008277D02*
X003904Y008277D01*
X003904Y008219D02*
X003831Y008219D01*
X003831Y008160D02*
X003904Y008160D01*
X003927Y008102D02*
X003777Y008102D01*
X003719Y008043D02*
X003986Y008043D01*
X004280Y008043D02*
X004316Y008043D01*
X004374Y007985D02*
X002722Y007985D01*
X003230Y008043D02*
X003485Y008043D01*
X003426Y008102D02*
X003266Y008102D01*
X003266Y008160D02*
X003373Y008160D01*
X003373Y008219D02*
X003266Y008219D01*
X003266Y008277D02*
X003373Y008277D01*
X003373Y008336D02*
X003266Y008336D01*
X003266Y008394D02*
X003422Y008394D01*
X003480Y008453D02*
X003243Y008453D01*
X004278Y008687D02*
X004465Y008687D01*
X004524Y008745D02*
X004289Y008745D01*
X005275Y008160D02*
X005334Y008160D01*
X005333Y008102D02*
X005357Y008102D01*
X005392Y008043D02*
X005416Y008043D01*
X005393Y007985D02*
X005586Y007985D01*
X005429Y007868D02*
X006941Y007868D01*
X006883Y007926D02*
X005393Y007926D01*
X005558Y007049D02*
X007256Y007049D01*
X007220Y006990D02*
X005617Y006990D01*
X005672Y006932D02*
X007220Y006932D01*
X007220Y006873D02*
X005672Y006873D01*
X005672Y006815D02*
X007220Y006815D01*
X007220Y006756D02*
X005672Y006756D01*
X005624Y006698D02*
X007220Y006698D01*
X007242Y006639D02*
X005566Y006639D01*
X005493Y006581D02*
X007261Y006581D01*
X007220Y006522D02*
X005493Y006522D01*
X005493Y006464D02*
X007220Y006464D01*
X007220Y006405D02*
X005493Y006405D01*
X005493Y006347D02*
X007220Y006347D01*
X007220Y006288D02*
X005493Y006288D01*
X005493Y006230D02*
X007220Y006230D01*
X007238Y006171D02*
X005493Y006171D01*
X005493Y006113D02*
X006871Y006113D01*
X006813Y006054D02*
X005493Y006054D01*
X005493Y005996D02*
X006764Y005996D01*
X006764Y005937D02*
X005493Y005937D01*
X005493Y005879D02*
X006764Y005879D01*
X006764Y005820D02*
X005493Y005820D01*
X005493Y005762D02*
X006817Y005762D01*
X006876Y005703D02*
X005478Y005703D01*
X005419Y005645D02*
X007270Y005645D01*
X007272Y005647D02*
X007220Y005595D01*
X007220Y005244D01*
X007272Y005192D01*
X007819Y005192D01*
X007872Y005244D01*
X007872Y005595D01*
X007819Y005647D01*
X007272Y005647D01*
X007234Y005703D02*
X007110Y005703D01*
X007168Y005762D02*
X007220Y005762D01*
X007220Y005586D02*
X005361Y005586D01*
X005405Y005630D02*
X005405Y005630D01*
X005302Y005528D02*
X007220Y005528D01*
X007220Y005469D02*
X005244Y005469D01*
X005185Y005411D02*
X007220Y005411D01*
X007220Y005352D02*
X005127Y005352D01*
X005068Y005294D02*
X007220Y005294D01*
X007229Y005235D02*
X003840Y005235D01*
X003781Y005177D02*
X006955Y005177D01*
X006968Y005189D02*
X006834Y005055D01*
X006834Y004865D01*
X006968Y004731D01*
X007158Y004731D01*
X007220Y004793D01*
X007220Y004772D01*
X007272Y004719D01*
X007819Y004719D01*
X007872Y004772D01*
X007872Y005122D01*
X007819Y005175D01*
X007272Y005175D01*
X007222Y005125D01*
X007158Y005189D01*
X006968Y005189D01*
X006897Y005118D02*
X003723Y005118D01*
X003664Y005060D02*
X006838Y005060D01*
X006834Y005001D02*
X003606Y005001D01*
X003547Y004943D02*
X006834Y004943D01*
X006834Y004884D02*
X003489Y004884D01*
X003490Y004885D02*
X003490Y004885D01*
X003430Y004826D02*
X006873Y004826D01*
X006932Y004767D02*
X003261Y004767D01*
X003213Y004702D02*
X003266Y004650D01*
X003266Y004300D01*
X003213Y004247D01*
X003070Y004247D01*
X003070Y004230D01*
X003213Y004230D01*
X003266Y004177D01*
X003266Y003827D01*
X003213Y003774D01*
X002666Y003774D01*
X002613Y003827D01*
X002613Y004177D01*
X002666Y004230D01*
X002810Y004230D01*
X002810Y004247D01*
X002666Y004247D01*
X002613Y004300D01*
X002613Y004650D01*
X002666Y004702D01*
X003213Y004702D01*
X003266Y004650D02*
X007220Y004650D01*
X007220Y004300D01*
X007272Y004247D01*
X007819Y004247D01*
X007872Y004300D01*
X007872Y004650D01*
X008043Y004650D01*
X008043Y004592D02*
X007872Y004592D01*
X007872Y004650D02*
X007819Y004702D01*
X007272Y004702D01*
X007220Y004650D01*
X007220Y004592D02*
X003266Y004592D01*
X003266Y004533D02*
X007220Y004533D01*
X007220Y004475D02*
X003266Y004475D01*
X003266Y004416D02*
X007220Y004416D01*
X007220Y004358D02*
X003266Y004358D01*
X003265Y004299D02*
X007220Y004299D01*
X007030Y004007D02*
X008043Y004007D01*
X008043Y004065D02*
X006552Y004065D01*
X006610Y004007D02*
X006815Y004007D01*
X006757Y003948D02*
X006632Y003948D01*
X006632Y003890D02*
X006698Y003890D01*
X006694Y003831D02*
X006649Y003831D01*
X006892Y003539D02*
X008043Y003539D01*
X008043Y003597D02*
X007054Y003597D01*
X007112Y003656D02*
X008043Y003656D01*
X008043Y003714D02*
X007152Y003714D01*
X007152Y003773D02*
X008043Y003773D01*
X008043Y003831D02*
X007152Y003831D01*
X007147Y003890D02*
X008043Y003890D01*
X008043Y003948D02*
X007089Y003948D01*
X006892Y003480D02*
X008043Y003480D01*
X008043Y003422D02*
X006892Y003422D01*
X006892Y003363D02*
X008043Y003363D01*
X008043Y003305D02*
X006892Y003305D01*
X006892Y003246D02*
X008043Y003246D01*
X008043Y003188D02*
X006892Y003188D01*
X006892Y003129D02*
X008043Y003129D01*
X008043Y003071D02*
X006892Y003071D01*
X006892Y003012D02*
X008043Y003012D01*
X008043Y002954D02*
X006884Y002954D01*
X006879Y002895D02*
X008043Y002895D01*
X008043Y002837D02*
X006881Y002837D01*
X006936Y002778D02*
X008043Y002778D01*
X008043Y002720D02*
X006960Y002720D01*
X006984Y002661D02*
X008043Y002661D01*
X008043Y002603D02*
X006984Y002603D01*
X006984Y002544D02*
X008043Y002544D01*
X008043Y002486D02*
X006984Y002486D01*
X006984Y002427D02*
X008043Y002427D01*
X008043Y002369D02*
X006984Y002369D01*
X006984Y002310D02*
X008043Y002310D01*
X008043Y002252D02*
X007906Y002252D01*
X008035Y002193D02*
X008043Y002193D01*
X007379Y002252D02*
X006984Y002252D01*
X005964Y002954D02*
X005023Y002954D01*
X004964Y003012D02*
X005956Y003012D01*
X005956Y003071D02*
X004857Y003071D01*
X005081Y002895D02*
X005409Y002895D01*
X005903Y003656D02*
X002443Y003656D01*
X002443Y003714D02*
X005845Y003714D01*
X005814Y003773D02*
X002443Y003773D01*
X002443Y003831D02*
X002613Y003831D01*
X002613Y003890D02*
X002443Y003890D01*
X002443Y003948D02*
X002613Y003948D01*
X002613Y004007D02*
X002443Y004007D01*
X002443Y004065D02*
X002613Y004065D01*
X002613Y004124D02*
X002443Y004124D01*
X002443Y004182D02*
X002618Y004182D01*
X002614Y004299D02*
X002443Y004299D01*
X002443Y004241D02*
X002810Y004241D01*
X002613Y004358D02*
X002443Y004358D01*
X002443Y004416D02*
X002613Y004416D01*
X002613Y004475D02*
X002443Y004475D01*
X002443Y004533D02*
X002613Y004533D01*
X002613Y004592D02*
X002443Y004592D01*
X002443Y004650D02*
X002614Y004650D01*
X002618Y004767D02*
X002443Y004767D01*
X002443Y004709D02*
X008043Y004709D01*
X008043Y004767D02*
X007867Y004767D01*
X007872Y004826D02*
X008043Y004826D01*
X008043Y004884D02*
X007872Y004884D01*
X007872Y004943D02*
X008043Y004943D01*
X008043Y005001D02*
X007872Y005001D01*
X007872Y005060D02*
X008043Y005060D01*
X008043Y005118D02*
X007872Y005118D01*
X007863Y005235D02*
X008043Y005235D01*
X008043Y005177D02*
X007170Y005177D01*
X007194Y004767D02*
X007225Y004767D01*
X007872Y004533D02*
X008043Y004533D01*
X008043Y004475D02*
X007872Y004475D01*
X007872Y004416D02*
X008043Y004416D01*
X008043Y004358D02*
X007872Y004358D01*
X007872Y004299D02*
X008043Y004299D01*
X008043Y004241D02*
X003070Y004241D01*
X003261Y004182D02*
X008043Y004182D01*
X008043Y004124D02*
X003266Y004124D01*
X003266Y004065D02*
X005944Y004065D01*
X005885Y004007D02*
X003266Y004007D01*
X003266Y003948D02*
X005827Y003948D01*
X005814Y003890D02*
X003266Y003890D01*
X003266Y003831D02*
X005814Y003831D01*
X005965Y003597D02*
X004240Y003597D01*
X004289Y003539D02*
X005956Y003539D01*
X005956Y003480D02*
X004289Y003480D01*
X004289Y003422D02*
X005956Y003422D01*
X005956Y003363D02*
X004289Y003363D01*
X004289Y003305D02*
X005956Y003305D01*
X005956Y003246D02*
X004289Y003246D01*
X004289Y003188D02*
X005956Y003188D01*
X005956Y003129D02*
X004289Y003129D01*
X003834Y003422D02*
X003817Y003422D01*
X003817Y003480D02*
X003834Y003480D01*
X003834Y003539D02*
X003817Y003539D01*
X003767Y003597D02*
X003884Y003597D01*
X003411Y003597D02*
X002443Y003597D01*
X002443Y003539D02*
X003361Y003539D01*
X003361Y003480D02*
X002443Y003480D01*
X002443Y003422D02*
X003361Y003422D01*
X003361Y003363D02*
X002443Y003363D01*
X002443Y003305D02*
X003361Y003305D01*
X003361Y003246D02*
X002443Y003246D01*
X002443Y003188D02*
X003361Y003188D01*
X003361Y003129D02*
X002443Y003129D01*
X002443Y003071D02*
X003194Y003071D01*
X003086Y003012D02*
X002443Y003012D01*
X002443Y002954D02*
X002921Y002954D01*
X002826Y002895D02*
X002443Y002895D01*
X002443Y002837D02*
X002768Y002837D01*
X002743Y002778D02*
X002443Y002778D01*
X002443Y002720D02*
X002718Y002720D01*
X002716Y002661D02*
X002443Y002661D01*
X002443Y002603D02*
X002716Y002603D01*
X002716Y002544D02*
X002443Y002544D01*
X002443Y002486D02*
X002716Y002486D01*
X002716Y002427D02*
X002443Y002427D01*
X002443Y002369D02*
X002716Y002369D01*
X002716Y002310D02*
X002443Y002310D01*
X002443Y002252D02*
X002716Y002252D01*
X002716Y002193D02*
X002443Y002193D01*
X002443Y002135D02*
X002730Y002135D01*
X002754Y002076D02*
X002443Y002076D01*
X002443Y002018D02*
X002796Y002018D01*
X002855Y001959D02*
X002443Y001959D01*
X002443Y001901D02*
X005420Y001901D01*
X005916Y001842D02*
X002443Y001842D01*
X002443Y001784D02*
X005916Y001784D01*
X005916Y001725D02*
X002443Y001725D01*
X002443Y001667D02*
X005916Y001667D01*
X005916Y001608D02*
X002443Y001608D01*
X002443Y001550D02*
X005916Y001550D01*
X005916Y001491D02*
X002443Y001491D01*
X003631Y001959D02*
X004808Y001959D01*
X004672Y002018D02*
X003689Y002018D01*
X003731Y002076D02*
X004613Y002076D01*
X004555Y002135D02*
X003755Y002135D01*
X003770Y002193D02*
X004496Y002193D01*
X006142Y004065D02*
X006254Y004065D01*
X004937Y005586D02*
X002443Y005586D01*
X002443Y005528D02*
X003708Y005528D01*
X003663Y005482D02*
X003663Y005482D01*
X003650Y005469D02*
X002443Y005469D01*
X002443Y005411D02*
X003591Y005411D01*
X003533Y005352D02*
X002443Y005352D01*
X002443Y005294D02*
X003474Y005294D01*
X003416Y005235D02*
X002443Y005235D01*
X002443Y005177D02*
X003357Y005177D01*
X003299Y005118D02*
X003266Y005118D01*
X002613Y005118D02*
X002443Y005118D01*
X002443Y005060D02*
X002613Y005060D01*
X002613Y005001D02*
X002443Y005001D01*
X002443Y004943D02*
X002613Y004943D01*
X002613Y004884D02*
X002443Y004884D01*
X002443Y004826D02*
X002613Y004826D01*
X006319Y007985D02*
X006864Y007985D01*
X006666Y008043D02*
X006378Y008043D01*
X006436Y008102D02*
X006607Y008102D01*
X006564Y008160D02*
X006495Y008160D01*
X006523Y008219D02*
X006564Y008219D01*
X006564Y008277D02*
X006523Y008277D01*
X006523Y008336D02*
X006564Y008336D01*
X006523Y008394D02*
X006623Y008394D01*
X006681Y008453D02*
X006523Y008453D01*
X007114Y006113D02*
X007265Y006113D01*
X007220Y006054D02*
X007173Y006054D01*
X007872Y005762D02*
X008043Y005762D01*
X008043Y005820D02*
X007907Y005820D01*
X007965Y005879D02*
X008043Y005879D01*
X008043Y005937D02*
X008024Y005937D01*
X008043Y005703D02*
X007858Y005703D01*
X007822Y005645D02*
X008043Y005645D01*
X008043Y005586D02*
X007872Y005586D01*
X007872Y005528D02*
X008043Y005528D01*
X008043Y005469D02*
X007872Y005469D01*
X007872Y005411D02*
X008043Y005411D01*
X008043Y005352D02*
X007872Y005352D01*
X007872Y005294D02*
X008043Y005294D01*
D30*
X008071Y004002D02*
X007546Y004002D01*
X008071Y004002D02*
X008073Y004000D01*
X007546Y007782D02*
X007546Y008254D01*
X007660Y008140D01*
X008243Y008140D01*
X005922Y010369D02*
X006073Y010520D01*
X005922Y010369D02*
X005597Y010369D01*
X007548Y012435D02*
X007143Y012840D01*
X007143Y013585D01*
X006390Y013585D01*
X006335Y013640D01*
X007143Y013585D02*
X007693Y013585D01*
X007548Y012435D02*
X007548Y012028D01*
X003258Y009690D02*
X002873Y009690D01*
X002493Y009310D01*
X002493Y008260D01*
X002934Y008260D01*
X002940Y008254D01*
X002493Y008260D02*
X002493Y008060D01*
X002493Y006500D01*
X002628Y006364D01*
X002940Y006364D01*
X001743Y011640D02*
X002131Y012028D01*
X002938Y012028D01*
X002543Y013270D02*
X002446Y013367D01*
X002446Y013690D01*
X001540Y012843D02*
X001743Y012640D01*
X001540Y012843D02*
X001540Y013690D01*
D31*
X006443Y010130D02*
X006443Y009805D01*
X006558Y009690D01*
D32*
X005862Y012450D02*
X005852Y012450D01*
X005755Y012547D01*
X004731Y013728D02*
X004843Y013840D01*
X004731Y013728D02*
X004731Y012587D01*
X006437Y002400D02*
X006443Y002400D01*
D33*
X006203Y012450D02*
X005862Y012450D01*
X006203Y012450D02*
X006393Y012640D01*
X006393Y012990D01*
D34*
X005755Y012587D02*
X005755Y012547D01*
X005499Y012587D02*
X005499Y012184D01*
X005643Y012040D01*
X006258Y012040D01*
X006293Y012075D01*
X005243Y012190D02*
X005243Y012587D01*
X005243Y012190D02*
X005093Y012040D01*
X004227Y012040D01*
X004193Y012075D01*
X004193Y012650D01*
X004033Y012810D01*
X003427Y012810D01*
X002758Y012810D02*
X002728Y012840D01*
X002503Y012840D01*
X002363Y012980D01*
X002293Y012980D01*
X002723Y012810D02*
X002758Y012810D01*
X004062Y008983D02*
X004062Y008691D01*
X004233Y008520D01*
X004623Y008520D01*
X004933Y008290D02*
X005243Y007980D01*
X005243Y007730D01*
X005703Y008080D02*
X005563Y008220D01*
X005703Y008080D02*
X006203Y008080D01*
X006373Y008250D01*
X006373Y008931D01*
X006424Y008983D01*
X006083Y008851D02*
X006083Y008370D01*
X006083Y008851D02*
X005951Y008983D01*
X005479Y008983D02*
X005479Y008656D01*
X005233Y008410D01*
X004933Y008290D02*
X004933Y008909D01*
X005007Y008983D01*
X005443Y006840D02*
X005343Y006740D01*
X005343Y005780D01*
X004983Y005420D01*
X003813Y005420D01*
X003340Y004947D01*
X002940Y004947D01*
D35*
X003368Y002650D02*
X003243Y002525D01*
X003243Y002441D01*
X003368Y002650D02*
X004683Y002650D01*
X004933Y002400D01*
X005768Y002400D01*
X006424Y002414D02*
X006424Y003274D01*
X006424Y002414D02*
X006437Y002400D01*
X006443Y002400D02*
X006443Y002375D01*
X006443Y001705D02*
X007032Y001705D01*
X007043Y001695D01*
X007632Y001695D01*
X007643Y001705D01*
X007043Y001025D02*
X007043Y000665D01*
X006918Y000540D01*
X006518Y000540D01*
M02*
