G75*
G70*
%OFA0B0*%
%FSLAX24Y24*%
%IPPOS*%
%LPD*%
%AMOC8*
5,1,8,0,0,1.08239X$1,22.5*
%
%ADD10C,0.0080*%
%ADD11R,0.0433X0.0394*%
%ADD12R,0.0315X0.0315*%
%ADD13C,0.0740*%
%ADD14R,0.0394X0.0433*%
%ADD15R,0.0138X0.0551*%
%ADD16R,0.0709X0.0748*%
%ADD17R,0.0748X0.0748*%
%ADD18R,0.0472X0.0472*%
%ADD19R,0.0472X0.0276*%
%ADD20R,0.0276X0.0472*%
%ADD21R,0.0945X0.0748*%
%ADD22R,0.0400X0.1000*%
%ADD23R,0.0394X0.0394*%
%ADD24C,0.0278*%
%ADD25C,0.0100*%
%ADD26C,0.0160*%
D10*
X001243Y000140D02*
X009243Y000140D01*
X009243Y013140D01*
X001243Y013140D01*
X001243Y000140D01*
X002443Y001840D02*
X002506Y001840D01*
X002940Y002274D01*
X002924Y002290D01*
X002693Y002290D01*
X002543Y002440D01*
X002543Y004240D01*
X002793Y004490D01*
X003010Y004490D01*
X002940Y004420D01*
X002940Y003947D02*
X003450Y003947D01*
X003293Y003790D01*
X003293Y001825D01*
X003108Y001640D01*
X003589Y002274D02*
X004062Y002274D01*
X004443Y002183D02*
X004443Y001990D01*
X004643Y001790D01*
X004493Y001640D01*
X003777Y001640D01*
X004443Y002183D02*
X004534Y002274D01*
X004534Y002449D01*
X004534Y002274D02*
X005007Y002274D01*
X005479Y002274D01*
X005951Y002274D01*
X006143Y002740D02*
X005693Y002740D01*
X005593Y002640D01*
X005393Y002640D01*
X005243Y002790D01*
X005243Y003240D01*
X005343Y003340D01*
X005343Y006090D01*
X005007Y006426D01*
X005007Y007176D01*
X004893Y007290D01*
X004893Y007869D01*
X005007Y007983D01*
X004793Y008390D02*
X004813Y008410D01*
X004793Y008390D02*
X004393Y008390D01*
X004093Y008090D01*
X004093Y008014D01*
X004062Y007983D01*
X004062Y008159D01*
X003927Y008525D02*
X003927Y008640D01*
X003927Y008925D01*
X004243Y009240D01*
X005043Y009240D01*
X005243Y009690D02*
X004743Y010190D01*
X004743Y010690D01*
X005243Y011190D01*
X005243Y011597D01*
X005243Y012090D01*
X005499Y011597D02*
X005499Y010699D01*
X005658Y010540D01*
X005343Y010040D02*
X006543Y010040D01*
X006993Y009590D01*
X006993Y009540D01*
X007293Y009590D02*
X006943Y009940D01*
X006893Y009940D01*
X006327Y010505D01*
X006327Y010540D01*
X006343Y010540D01*
X006908Y010605D02*
X006908Y011040D01*
X006908Y010605D02*
X006987Y010526D01*
X006987Y010240D01*
X006993Y010240D01*
X007493Y009740D01*
X007293Y009590D02*
X007293Y009340D01*
X007143Y009140D02*
X007243Y009040D01*
X007243Y008440D01*
X007193Y008390D01*
X006896Y007983D02*
X007546Y007983D01*
X007543Y007986D01*
X007543Y008090D01*
X007843Y008390D01*
X008093Y007890D02*
X008093Y009290D01*
X007893Y009490D01*
X008243Y009782D02*
X008243Y007840D01*
X007903Y007500D01*
X007003Y007500D01*
X006843Y007340D01*
X006793Y007340D01*
X006593Y007040D02*
X007143Y006490D01*
X007143Y003390D01*
X006943Y003190D01*
X007305Y003002D02*
X007093Y002790D01*
X006896Y002594D01*
X006896Y002274D01*
X006896Y001821D01*
X007077Y001640D01*
X007593Y001640D01*
X007546Y002274D02*
X007546Y002337D01*
X007093Y002790D01*
X007305Y003002D02*
X007546Y003002D01*
X006408Y001640D02*
X006408Y001629D01*
X006411Y001619D01*
X006417Y001610D01*
X006424Y001603D01*
X006433Y001598D01*
X006443Y001595D01*
X006193Y003090D02*
X006193Y003607D01*
X006089Y003711D01*
X005493Y002890D02*
X005493Y007140D01*
X005743Y007490D02*
X005943Y007290D01*
X005943Y007240D01*
X006143Y007040D01*
X006593Y007040D01*
X006443Y007490D02*
X006593Y007640D01*
X007843Y007640D01*
X008093Y007890D01*
X007546Y007254D02*
X007546Y006782D01*
X007738Y006590D01*
X008093Y006590D01*
X007846Y005837D02*
X007943Y005740D01*
X007943Y005040D01*
X007843Y004940D01*
X007594Y004940D01*
X007546Y004892D01*
X007546Y005837D02*
X007846Y005837D01*
X006424Y007983D02*
X006327Y008079D01*
X006327Y008740D01*
X006327Y009155D01*
X006293Y009190D01*
X006327Y009505D02*
X006327Y009690D01*
X006327Y009505D02*
X006693Y009140D01*
X007143Y009140D01*
X008243Y009782D02*
X007558Y010467D01*
X007558Y011020D01*
X007577Y011040D01*
X007577Y011521D01*
X007543Y011555D01*
X007543Y012225D02*
X007543Y012640D01*
X007443Y012740D01*
X006818Y012065D02*
X006943Y011940D01*
X006818Y012065D02*
X006818Y012640D01*
X006343Y011890D02*
X006049Y011597D01*
X005755Y011597D01*
X005058Y010467D02*
X005058Y010325D01*
X005343Y010040D01*
X005243Y009690D02*
X005658Y009690D01*
X005393Y009190D02*
X005393Y009005D01*
X005658Y008740D01*
X005479Y007983D02*
X005479Y007726D01*
X005243Y007490D01*
X004643Y006740D02*
X004448Y006546D01*
X004396Y006546D01*
X004160Y006309D01*
X002940Y006309D01*
X002940Y006782D01*
X002925Y007240D02*
X002643Y007240D01*
X002543Y007140D01*
X002243Y007440D01*
X002243Y008890D01*
X002493Y009140D01*
X002943Y009140D01*
X003258Y008825D01*
X003258Y008640D01*
X003589Y008186D02*
X003589Y007983D01*
X003589Y008136D01*
X003589Y008186D02*
X003927Y008525D01*
X003593Y007986D02*
X003589Y007983D01*
X003589Y007894D01*
X003943Y007540D01*
X004243Y007540D01*
X004493Y007790D01*
X004493Y007941D01*
X004534Y007983D01*
X004543Y007440D02*
X004493Y007390D01*
X003843Y007390D01*
X003593Y007640D01*
X002643Y007640D01*
X002543Y007740D01*
X002543Y008290D01*
X002743Y008490D01*
X002743Y008890D01*
X002493Y008640D02*
X002393Y008540D01*
X002393Y007590D01*
X002483Y007500D01*
X003352Y007500D01*
X003562Y007290D01*
X003589Y007983D02*
X002940Y007983D01*
X002940Y007254D02*
X002925Y007240D01*
X002543Y007140D02*
X002543Y005540D01*
X002718Y005364D01*
X002940Y005364D01*
X003217Y005364D01*
X003493Y005640D01*
X004893Y005640D01*
X004993Y005540D01*
X004993Y004690D01*
X004843Y004540D01*
X004593Y004540D01*
X004743Y004190D02*
X005193Y004640D01*
X005193Y005690D01*
X005043Y005840D01*
X004396Y005128D02*
X004258Y004990D01*
X004208Y005040D01*
X003793Y005040D01*
X003693Y004190D02*
X004743Y004190D01*
X005103Y003880D02*
X004934Y003711D01*
X004396Y003711D01*
X003693Y004190D02*
X003450Y003947D01*
X002947Y003940D02*
X002940Y003947D01*
X002940Y003475D02*
X002940Y003002D01*
X002940Y005837D02*
X002940Y006309D01*
X003393Y009290D02*
X003243Y009440D01*
X003243Y009805D01*
X003243Y010475D02*
X003243Y010895D01*
X003243Y011485D02*
X003743Y011485D01*
X003948Y011485D01*
X004293Y011140D01*
X004293Y010890D01*
X004428Y010755D01*
X004428Y010467D01*
X004516Y010467D01*
X004293Y011140D02*
X004293Y011159D01*
X004731Y011597D01*
X003688Y012640D01*
X002977Y012790D02*
X002977Y012290D01*
X002527Y011840D01*
X002393Y011840D01*
X002243Y011690D01*
X002243Y009490D01*
X002343Y009390D01*
X002743Y009390D02*
X002743Y009805D01*
X002743Y010475D02*
X002743Y010895D01*
X002743Y011485D02*
X003243Y011485D01*
X003743Y010895D02*
X003743Y010475D01*
X003743Y009805D02*
X003743Y009340D01*
X003843Y009240D01*
X002308Y012290D02*
X002208Y012390D01*
X001843Y012390D01*
X001643Y012740D02*
X002258Y012740D01*
X002308Y012790D01*
X005951Y007983D02*
X005943Y007974D01*
X005943Y007290D01*
X005993Y006642D02*
X006089Y006546D01*
X005743Y006199D01*
X005743Y005940D01*
X006089Y005594D01*
X006089Y005128D01*
X006127Y005090D01*
X006928Y010467D02*
X006987Y010526D01*
X007558Y010467D02*
X008170Y010467D01*
X008343Y010640D01*
X008743Y010640D01*
X009103Y012190D02*
X008293Y012190D01*
X008293Y013000D01*
X009103Y013000D01*
X009103Y012190D01*
X009103Y012229D02*
X008293Y012229D01*
X008293Y012308D02*
X009103Y012308D01*
X009103Y012386D02*
X008293Y012386D01*
X008293Y012465D02*
X009103Y012465D01*
X009103Y012543D02*
X008293Y012543D01*
X008293Y012622D02*
X009103Y012622D01*
X009103Y012700D02*
X008293Y012700D01*
X008293Y012779D02*
X009103Y012779D01*
X009103Y012857D02*
X008293Y012857D01*
X008293Y012936D02*
X009103Y012936D01*
D11*
X007543Y012225D03*
X007543Y011555D03*
X007577Y011040D03*
X006908Y011040D03*
X003927Y008640D03*
X003258Y008640D03*
X003243Y009805D03*
X003243Y010475D03*
X003743Y010475D03*
X003743Y009805D03*
X002743Y009805D03*
X002743Y010475D03*
X006408Y001640D03*
X007077Y001640D03*
D12*
X003743Y010895D03*
X003743Y011485D03*
X003243Y011485D03*
X003243Y010895D03*
X002743Y010895D03*
X002743Y011485D03*
D13*
X001743Y011640D03*
X001743Y010640D03*
X001743Y009640D03*
X001743Y008640D03*
X001743Y007640D03*
X001743Y006640D03*
X001743Y005640D03*
X001743Y004640D03*
X001743Y003640D03*
X001743Y002640D03*
X001743Y001640D03*
X001743Y000640D03*
X008743Y000640D03*
X008743Y001640D03*
X008743Y002640D03*
X008743Y003640D03*
X008743Y004640D03*
X008743Y005640D03*
X008743Y006640D03*
X008743Y007640D03*
X008743Y008640D03*
X008743Y009640D03*
X008743Y010640D03*
X008743Y011640D03*
D14*
X006327Y010540D03*
X006327Y009690D03*
X005658Y009690D03*
X005658Y010540D03*
X005658Y008740D03*
X006327Y008740D03*
X002977Y012290D03*
X002977Y012790D03*
X002308Y012790D03*
X002308Y012290D03*
X003108Y001640D03*
X003777Y001640D03*
X006443Y001125D03*
X006443Y000455D03*
D15*
X005755Y011597D03*
X005499Y011597D03*
X005243Y011597D03*
X004987Y011597D03*
X004731Y011597D03*
D16*
X003668Y012640D03*
X006818Y012640D03*
D17*
X005743Y012640D03*
X004743Y012640D03*
D18*
X002940Y007983D03*
X002940Y002274D03*
X007546Y002274D03*
X007546Y007983D03*
D19*
X007546Y007254D03*
X007546Y006782D03*
X007546Y006309D03*
X007546Y005837D03*
X007546Y005364D03*
X007546Y004892D03*
X007546Y004420D03*
X007546Y003947D03*
X007546Y003475D03*
X007546Y003002D03*
X002940Y003002D03*
X002940Y003475D03*
X002940Y003947D03*
X002940Y004420D03*
X002940Y004892D03*
X002940Y005364D03*
X002940Y005837D03*
X002940Y006309D03*
X002940Y006782D03*
X002940Y007254D03*
D20*
X003589Y007983D03*
X004062Y007983D03*
X004534Y007983D03*
X005007Y007983D03*
X005479Y007983D03*
X005951Y007983D03*
X006424Y007983D03*
X006896Y007983D03*
X006896Y002274D03*
X006424Y002274D03*
X005951Y002274D03*
X005479Y002274D03*
X005007Y002274D03*
X004534Y002274D03*
X004062Y002274D03*
X003589Y002274D03*
D21*
X004396Y003711D03*
X004396Y005128D03*
X004396Y006546D03*
X006089Y006546D03*
X006089Y005128D03*
X006089Y003711D03*
D22*
X005543Y000740D03*
X002943Y000740D03*
D23*
X004428Y008813D03*
X005058Y008813D03*
X005058Y010467D03*
X004428Y010467D03*
X006928Y010467D03*
X007558Y010467D03*
X007558Y008813D03*
X006928Y008813D03*
D24*
X007193Y008390D03*
X007293Y009340D03*
X006993Y009540D03*
X007493Y009740D03*
X007893Y009490D03*
X007843Y008390D03*
X006993Y007040D03*
X006793Y007340D03*
X006443Y007490D03*
X005743Y007490D03*
X005493Y007140D03*
X005243Y007490D03*
X004893Y007290D03*
X004543Y007440D03*
X004643Y006740D03*
X005043Y005840D03*
X005743Y005940D03*
X006843Y004940D03*
X006943Y003190D03*
X007093Y002790D03*
X007593Y001640D03*
X007993Y001690D03*
X006193Y003090D03*
X006143Y002740D03*
X005493Y002890D03*
X005103Y003880D03*
X004593Y004540D03*
X003793Y005040D03*
X004593Y003090D03*
X004643Y001790D03*
X002443Y001840D03*
X003562Y007290D03*
X002493Y008640D03*
X002743Y008890D03*
X002743Y009390D03*
X002343Y009390D03*
X003393Y009290D03*
X003843Y009240D03*
X004813Y008410D03*
X005043Y009240D03*
X005393Y009190D03*
X006293Y009190D03*
X006243Y011090D03*
X006343Y011890D03*
X006943Y011940D03*
X007443Y012740D03*
X005243Y012090D03*
X004293Y010890D03*
X001843Y012390D03*
X001643Y012740D03*
X008093Y006590D03*
D25*
X003688Y012640D02*
X003668Y012640D01*
D26*
X006424Y002274D02*
X006408Y002258D01*
X006408Y001640D01*
X006443Y001605D01*
X006443Y001125D01*
X006443Y000455D02*
X005577Y000455D01*
X005543Y000490D01*
X005543Y000740D01*
M02*
