%
M48
M72
T01C0.0118
T02C0.0400
%
T01
X2443Y1850
X4593Y3100
X5103Y3890
X4593Y4550
X3793Y5050
X4593Y5950
X5043Y5850
X4643Y6750
X4543Y7450
X4943Y7400
X5243Y7100
X5393Y7500
X5743Y7500
X6443Y7500
X6793Y7350
X6993Y7050
X7193Y8400
X7293Y9350
X6993Y9550
X7493Y9750
X7893Y9500
X7843Y8400
X8093Y6600
X6843Y4950
X5743Y5950
X4813Y8420
X5043Y9250
X5393Y9200
X6293Y9200
X6243Y11100
X6343Y11900
X6943Y11950
X7443Y12750
X5243Y12100
X4293Y10900
X3843Y9250
X3393Y9300
X2743Y9400
X2743Y8900
X2493Y8650
X2343Y9400
X3562Y7300
X6193Y3100
X6143Y2750
X5493Y2900
X4643Y1800
X6943Y3200
X7093Y2800
X7593Y1650
X7993Y1700
X1843Y12400
X1643Y12750
T02
X1743Y650
X1743Y1650
X1743Y2650
X1743Y3650
X1743Y4650
X1743Y5650
X1743Y6650
X1743Y7650
X1743Y8650
X1743Y9650
X1743Y10650
X1743Y11650
X8743Y11650
X8743Y10650
X8743Y9650
X8743Y8650
X8743Y7650
X8743Y6650
X8743Y5650
X8743Y4650
X8743Y3650
X8743Y2650
X8743Y1650
X8743Y650
M30
