G75*
G70*
%OFA0B0*%
%FSLAX24Y24*%
%IPPOS*%
%LPD*%
%AMOC8*
5,1,8,0,0,1.08239X$1,22.5*
%
%ADD10C,0.0397*%
%ADD11C,0.0550*%
%ADD12C,0.0080*%
%ADD13C,0.0278*%
D10*
X004150Y013640D03*
X006335Y013640D03*
D11*
X008743Y012640D03*
X008743Y011640D03*
X008743Y010640D03*
X008743Y009640D03*
X008743Y008640D03*
X008743Y007640D03*
X008743Y006640D03*
X008743Y005640D03*
X008743Y004640D03*
X008743Y003640D03*
X008743Y002640D03*
X008743Y001640D03*
X001743Y001640D03*
X001743Y002640D03*
X001743Y003640D03*
X001743Y004640D03*
X001743Y005640D03*
X001743Y006640D03*
X001743Y007640D03*
X001743Y008640D03*
X001743Y009640D03*
X001743Y010640D03*
X001743Y011640D03*
X001743Y012640D03*
D12*
X001403Y002429D02*
X001403Y001851D01*
X001408Y001864D01*
X001519Y001975D01*
X001664Y002035D01*
X001821Y002035D01*
X001967Y001975D01*
X002078Y001864D01*
X002138Y001719D01*
X002138Y001561D01*
X002088Y001440D01*
X008398Y001440D01*
X008348Y001561D01*
X008348Y001719D01*
X008408Y001864D01*
X008519Y001975D01*
X008664Y002035D01*
X008821Y002035D01*
X008967Y001975D01*
X009078Y001864D01*
X009083Y001851D01*
X009083Y002429D01*
X009078Y002416D01*
X008967Y002305D01*
X008821Y002245D01*
X008664Y002245D01*
X008519Y002305D01*
X008408Y002416D01*
X008348Y002561D01*
X008348Y002719D01*
X008408Y002864D01*
X008519Y002975D01*
X008664Y003035D01*
X008821Y003035D01*
X008967Y002975D01*
X009078Y002864D01*
X009083Y002851D01*
X009083Y003429D01*
X009078Y003416D01*
X008967Y003305D01*
X008821Y003245D01*
X008664Y003245D01*
X008519Y003305D01*
X008408Y003416D01*
X008348Y003561D01*
X008348Y003719D01*
X008408Y003864D01*
X008519Y003975D01*
X008664Y004035D01*
X008821Y004035D01*
X008967Y003975D01*
X009078Y003864D01*
X009083Y003851D01*
X009083Y004429D01*
X009078Y004416D01*
X008967Y004305D01*
X008821Y004245D01*
X008664Y004245D01*
X008519Y004305D01*
X008408Y004416D01*
X008348Y004561D01*
X008348Y004719D01*
X008408Y004864D01*
X008519Y004975D01*
X008664Y005035D01*
X008821Y005035D01*
X008967Y004975D01*
X009078Y004864D01*
X009083Y004851D01*
X009083Y005429D01*
X009078Y005416D01*
X008967Y005305D01*
X008821Y005245D01*
X008664Y005245D01*
X008519Y005305D01*
X008408Y005416D01*
X008348Y005561D01*
X008348Y005719D01*
X008408Y005864D01*
X008519Y005975D01*
X008664Y006035D01*
X008821Y006035D01*
X008967Y005975D01*
X009078Y005864D01*
X009083Y005851D01*
X009083Y006429D01*
X009078Y006416D01*
X008967Y006305D01*
X008821Y006245D01*
X008664Y006245D01*
X008519Y006305D01*
X008408Y006416D01*
X008348Y006561D01*
X008348Y006719D01*
X008408Y006864D01*
X008519Y006975D01*
X008664Y007035D01*
X008821Y007035D01*
X008967Y006975D01*
X009078Y006864D01*
X009083Y006851D01*
X009083Y007429D01*
X009078Y007416D01*
X008967Y007305D01*
X008821Y007245D01*
X008664Y007245D01*
X008519Y007305D01*
X008408Y007416D01*
X008348Y007561D01*
X008348Y007719D01*
X008408Y007864D01*
X008519Y007975D01*
X008664Y008035D01*
X008821Y008035D01*
X008967Y007975D01*
X009078Y007864D01*
X009083Y007851D01*
X009083Y008429D01*
X009078Y008416D01*
X008967Y008305D01*
X008821Y008245D01*
X008664Y008245D01*
X008519Y008305D01*
X008408Y008416D01*
X008348Y008561D01*
X008348Y008719D01*
X008408Y008864D01*
X008519Y008975D01*
X008664Y009035D01*
X008821Y009035D01*
X008967Y008975D01*
X009078Y008864D01*
X009083Y008851D01*
X009083Y009402D01*
X009059Y009370D01*
X009013Y009323D01*
X008960Y009285D01*
X008902Y009255D01*
X008840Y009235D01*
X008783Y009226D01*
X008783Y009600D01*
X008703Y009600D01*
X008703Y009226D01*
X008646Y009235D01*
X008583Y009255D01*
X008525Y009285D01*
X008472Y009323D01*
X008426Y009370D01*
X008388Y009422D01*
X008358Y009481D01*
X008338Y009543D01*
X008329Y009600D01*
X008703Y009600D01*
X008703Y009680D01*
X008703Y010054D01*
X008646Y010045D01*
X008583Y010025D01*
X008525Y009995D01*
X008472Y009957D01*
X008426Y009910D01*
X008388Y009858D01*
X008358Y009799D01*
X008338Y009737D01*
X008329Y009680D01*
X008703Y009680D01*
X008783Y009680D01*
X008783Y010054D01*
X008840Y010045D01*
X008902Y010025D01*
X008960Y009995D01*
X009013Y009957D01*
X009059Y009910D01*
X009083Y009878D01*
X009083Y010429D01*
X009078Y010416D01*
X008967Y010305D01*
X008821Y010245D01*
X008664Y010245D01*
X008519Y010305D01*
X008408Y010416D01*
X008348Y010561D01*
X008348Y010719D01*
X008408Y010864D01*
X008519Y010975D01*
X008664Y011035D01*
X008821Y011035D01*
X008967Y010975D01*
X009078Y010864D01*
X009083Y010851D01*
X009083Y011429D01*
X009078Y011416D01*
X008967Y011305D01*
X008821Y011245D01*
X008664Y011245D01*
X008519Y011305D01*
X008440Y011384D01*
X008462Y011332D01*
X008462Y011228D01*
X008422Y011133D01*
X008350Y011060D01*
X008254Y011021D01*
X008151Y011021D01*
X008056Y011060D01*
X007983Y011133D01*
X007944Y011228D01*
X007944Y011332D01*
X007983Y011427D01*
X008056Y011500D01*
X008151Y011539D01*
X008254Y011539D01*
X008350Y011500D01*
X008390Y011459D01*
X008348Y011561D01*
X008348Y011719D01*
X008408Y011864D01*
X008519Y011975D01*
X008664Y012035D01*
X008821Y012035D01*
X008967Y011975D01*
X009078Y011864D01*
X009083Y011851D01*
X009083Y012429D01*
X009078Y012416D01*
X008967Y012305D01*
X008821Y012245D01*
X008664Y012245D01*
X008519Y012305D01*
X008408Y012416D01*
X008348Y012561D01*
X008348Y012719D01*
X008404Y012855D01*
X008400Y012850D01*
X008304Y012811D01*
X008201Y012811D01*
X008106Y012850D01*
X008033Y012923D01*
X007994Y013018D01*
X007994Y013122D01*
X008033Y013217D01*
X008106Y013290D01*
X008201Y013329D01*
X008304Y013329D01*
X008400Y013290D01*
X008472Y013217D01*
X008512Y013122D01*
X008512Y013018D01*
X008476Y012932D01*
X008519Y012975D01*
X008664Y013035D01*
X008821Y013035D01*
X008967Y012975D01*
X009078Y012864D01*
X009083Y012851D01*
X009083Y013980D01*
X001403Y013980D01*
X001403Y012851D01*
X001408Y012864D01*
X001519Y012975D01*
X001664Y013035D01*
X001821Y013035D01*
X001967Y012975D01*
X002048Y012893D01*
X002034Y012928D01*
X002034Y013032D01*
X002073Y013127D01*
X002146Y013200D01*
X002241Y013239D01*
X002284Y013239D01*
X002284Y013322D01*
X002323Y013417D01*
X002396Y013490D01*
X002491Y013529D01*
X002594Y013529D01*
X002690Y013490D01*
X002762Y013417D01*
X002802Y013322D01*
X002802Y013218D01*
X002762Y013123D01*
X002690Y013050D01*
X002594Y013011D01*
X002552Y013011D01*
X002552Y012928D01*
X002512Y012833D01*
X002489Y012810D01*
X002490Y012810D01*
X002562Y012737D01*
X002602Y012642D01*
X002602Y012538D01*
X002562Y012443D01*
X002490Y012370D01*
X002394Y012331D01*
X002291Y012331D01*
X002196Y012370D01*
X002123Y012443D01*
X002106Y012485D01*
X002078Y012416D01*
X001967Y012305D01*
X001821Y012245D01*
X001664Y012245D01*
X001519Y012305D01*
X001408Y012416D01*
X001403Y012429D01*
X001403Y011878D01*
X001426Y011910D01*
X001472Y011957D01*
X001525Y011995D01*
X001583Y012025D01*
X001646Y012045D01*
X001703Y012054D01*
X001703Y011680D01*
X001783Y011680D01*
X002157Y011680D01*
X002148Y011737D01*
X002127Y011799D01*
X002098Y011858D01*
X002059Y011910D01*
X002013Y011957D01*
X001960Y011995D01*
X001902Y012025D01*
X001840Y012045D01*
X001783Y012054D01*
X001783Y011680D01*
X001783Y011600D01*
X002157Y011600D01*
X002148Y011543D01*
X002127Y011481D01*
X002098Y011422D01*
X002059Y011370D01*
X002013Y011323D01*
X001960Y011285D01*
X001902Y011255D01*
X001840Y011235D01*
X001783Y011226D01*
X001783Y011600D01*
X001703Y011600D01*
X001703Y011226D01*
X001646Y011235D01*
X001583Y011255D01*
X001525Y011285D01*
X001472Y011323D01*
X001426Y011370D01*
X001403Y011402D01*
X001403Y010851D01*
X001408Y010864D01*
X001519Y010975D01*
X001664Y011035D01*
X001821Y011035D01*
X001967Y010975D01*
X002078Y010864D01*
X002138Y010719D01*
X002138Y010705D01*
X002163Y010767D01*
X002236Y010840D01*
X002331Y010879D01*
X002434Y010879D01*
X002530Y010840D01*
X002602Y010767D01*
X002642Y010672D01*
X002642Y010568D01*
X002602Y010473D01*
X002530Y010400D01*
X002515Y010394D01*
X002562Y010347D01*
X002602Y010252D01*
X002602Y010159D01*
X002604Y010159D01*
X002700Y010120D01*
X002772Y010047D01*
X002812Y009952D01*
X002812Y009848D01*
X002772Y009753D01*
X002700Y009680D01*
X002604Y009641D01*
X002501Y009641D01*
X002406Y009680D01*
X002333Y009753D01*
X002294Y009848D01*
X002294Y009941D01*
X002291Y009941D01*
X002196Y009980D01*
X002123Y010053D01*
X002084Y010148D01*
X002084Y010252D01*
X002123Y010347D01*
X002196Y010420D01*
X002211Y010426D01*
X002163Y010473D01*
X002132Y010548D01*
X002078Y010416D01*
X001967Y010305D01*
X001821Y010245D01*
X001664Y010245D01*
X001519Y010305D01*
X001408Y010416D01*
X001403Y010429D01*
X001403Y009851D01*
X001408Y009864D01*
X001519Y009975D01*
X001664Y010035D01*
X001821Y010035D01*
X001967Y009975D01*
X002078Y009864D01*
X002138Y009719D01*
X002138Y009561D01*
X002078Y009416D01*
X001967Y009305D01*
X001821Y009245D01*
X001664Y009245D01*
X001519Y009305D01*
X001408Y009416D01*
X001403Y009429D01*
X001403Y008851D01*
X001408Y008864D01*
X001519Y008975D01*
X001664Y009035D01*
X001821Y009035D01*
X001967Y008975D01*
X002078Y008864D01*
X002138Y008719D01*
X002138Y008561D01*
X002078Y008416D01*
X001967Y008305D01*
X001821Y008245D01*
X001664Y008245D01*
X001519Y008305D01*
X001408Y008416D01*
X001403Y008429D01*
X001403Y007851D01*
X001408Y007864D01*
X001519Y007975D01*
X001664Y008035D01*
X001821Y008035D01*
X001967Y007975D01*
X002078Y007864D01*
X002138Y007719D01*
X002138Y007561D01*
X002078Y007416D01*
X001967Y007305D01*
X001821Y007245D01*
X001664Y007245D01*
X001519Y007305D01*
X001408Y007416D01*
X001403Y007429D01*
X001403Y006851D01*
X001408Y006864D01*
X001519Y006975D01*
X001664Y007035D01*
X001821Y007035D01*
X001967Y006975D01*
X002078Y006864D01*
X002138Y006719D01*
X002138Y006561D01*
X002078Y006416D01*
X001967Y006305D01*
X001821Y006245D01*
X001664Y006245D01*
X001519Y006305D01*
X001408Y006416D01*
X001403Y006429D01*
X001403Y005851D01*
X001408Y005864D01*
X001519Y005975D01*
X001664Y006035D01*
X001821Y006035D01*
X001967Y005975D01*
X002078Y005864D01*
X002138Y005719D01*
X002138Y005561D01*
X002078Y005416D01*
X001967Y005305D01*
X001821Y005245D01*
X001664Y005245D01*
X001519Y005305D01*
X001408Y005416D01*
X001403Y005429D01*
X001403Y004851D01*
X001408Y004864D01*
X001519Y004975D01*
X001664Y005035D01*
X001821Y005035D01*
X001967Y004975D01*
X002078Y004864D01*
X002138Y004719D01*
X002138Y004561D01*
X002078Y004416D01*
X001967Y004305D01*
X001821Y004245D01*
X001664Y004245D01*
X001519Y004305D01*
X001408Y004416D01*
X001403Y004429D01*
X001403Y003851D01*
X001408Y003864D01*
X001519Y003975D01*
X001664Y004035D01*
X001821Y004035D01*
X001967Y003975D01*
X002078Y003864D01*
X002138Y003719D01*
X002138Y003561D01*
X002078Y003416D01*
X001967Y003305D01*
X001821Y003245D01*
X001664Y003245D01*
X001519Y003305D01*
X001408Y003416D01*
X001403Y003429D01*
X001403Y002851D01*
X001408Y002864D01*
X001519Y002975D01*
X001664Y003035D01*
X001821Y003035D01*
X001967Y002975D01*
X002078Y002864D01*
X002138Y002719D01*
X002138Y002561D01*
X002078Y002416D01*
X001967Y002305D01*
X001821Y002245D01*
X001664Y002245D01*
X001519Y002305D01*
X001408Y002416D01*
X001403Y002429D01*
X001403Y002396D02*
X001428Y002396D01*
X001403Y002318D02*
X001507Y002318D01*
X001403Y002239D02*
X009083Y002239D01*
X009083Y002161D02*
X001403Y002161D01*
X001403Y002082D02*
X009083Y002082D01*
X009083Y002004D02*
X008897Y002004D01*
X009016Y001925D02*
X009083Y001925D01*
X009083Y002318D02*
X008979Y002318D01*
X009057Y002396D02*
X009083Y002396D01*
X009074Y002867D02*
X009083Y002867D01*
X009083Y002946D02*
X008996Y002946D01*
X009083Y003024D02*
X008848Y003024D01*
X008638Y003024D02*
X001848Y003024D01*
X001996Y002946D02*
X008490Y002946D01*
X008411Y002867D02*
X002074Y002867D01*
X002109Y002789D02*
X008377Y002789D01*
X008348Y002710D02*
X002138Y002710D01*
X002138Y002632D02*
X008348Y002632D01*
X008351Y002553D02*
X002134Y002553D01*
X002102Y002475D02*
X008384Y002475D01*
X008428Y002396D02*
X002057Y002396D01*
X001979Y002318D02*
X008507Y002318D01*
X008588Y002004D02*
X001897Y002004D01*
X002016Y001925D02*
X008469Y001925D01*
X008401Y001847D02*
X002085Y001847D01*
X002117Y001768D02*
X008368Y001768D01*
X008348Y001690D02*
X002138Y001690D01*
X002138Y001611D02*
X008348Y001611D01*
X008360Y001533D02*
X002126Y001533D01*
X002093Y001454D02*
X008392Y001454D01*
X009083Y003103D02*
X001403Y003103D01*
X001403Y003181D02*
X009083Y003181D01*
X009083Y003260D02*
X008856Y003260D01*
X008999Y003338D02*
X009083Y003338D01*
X009078Y003417D02*
X009083Y003417D01*
X009054Y003888D02*
X009083Y003888D01*
X009083Y003966D02*
X008975Y003966D01*
X009083Y004045D02*
X006985Y004045D01*
X006974Y004049D02*
X006871Y004049D01*
X006776Y004010D01*
X006703Y003937D01*
X006664Y003842D01*
X006664Y003738D01*
X006703Y003643D01*
X006776Y003570D01*
X006871Y003531D01*
X006974Y003531D01*
X007070Y003570D01*
X007142Y003643D01*
X007182Y003738D01*
X007182Y003842D01*
X007142Y003937D01*
X007070Y004010D01*
X006974Y004049D01*
X006860Y004045D02*
X006615Y004045D01*
X006622Y004037D02*
X006550Y004110D01*
X006454Y004149D01*
X006351Y004149D01*
X006256Y004110D01*
X006198Y004051D01*
X006190Y004060D01*
X006094Y004099D01*
X005991Y004099D01*
X005896Y004060D01*
X005823Y003987D01*
X005784Y003892D01*
X005784Y003788D01*
X005823Y003693D01*
X005896Y003620D01*
X005991Y003581D01*
X006094Y003581D01*
X006190Y003620D01*
X006248Y003679D01*
X006256Y003670D01*
X006351Y003631D01*
X006454Y003631D01*
X006550Y003670D01*
X006622Y003743D01*
X006662Y003838D01*
X006662Y003942D01*
X006622Y004037D01*
X006652Y003966D02*
X006732Y003966D01*
X006683Y003888D02*
X006662Y003888D01*
X006650Y003809D02*
X006664Y003809D01*
X006667Y003731D02*
X006610Y003731D01*
X006700Y003652D02*
X006505Y003652D01*
X006300Y003652D02*
X006221Y003652D01*
X005864Y003652D02*
X002138Y003652D01*
X002138Y003574D02*
X006773Y003574D01*
X007073Y003574D02*
X008348Y003574D01*
X008348Y003652D02*
X007146Y003652D01*
X007179Y003731D02*
X008353Y003731D01*
X008385Y003809D02*
X007182Y003809D01*
X007163Y003888D02*
X008432Y003888D01*
X008510Y003966D02*
X007113Y003966D01*
X007114Y004701D02*
X007011Y004701D01*
X006916Y004740D01*
X006843Y004813D01*
X006804Y004908D01*
X002033Y004908D01*
X002092Y004830D02*
X006836Y004830D01*
X006804Y004908D02*
X006804Y005012D01*
X006843Y005107D01*
X006916Y005180D01*
X007011Y005219D01*
X007114Y005219D01*
X007210Y005180D01*
X007282Y005107D01*
X007322Y005012D01*
X007322Y004908D01*
X008452Y004908D01*
X008394Y004830D02*
X007289Y004830D01*
X007282Y004813D02*
X007322Y004908D01*
X007322Y004987D02*
X008547Y004987D01*
X008361Y004751D02*
X007220Y004751D01*
X007210Y004740D02*
X007282Y004813D01*
X007210Y004740D02*
X007114Y004701D01*
X006905Y004751D02*
X002124Y004751D01*
X002138Y004673D02*
X008348Y004673D01*
X008348Y004594D02*
X002138Y004594D01*
X002119Y004516D02*
X008367Y004516D01*
X008399Y004437D02*
X002086Y004437D01*
X002020Y004359D02*
X008466Y004359D01*
X008580Y004280D02*
X001906Y004280D01*
X001975Y003966D02*
X005815Y003966D01*
X005784Y003888D02*
X002054Y003888D01*
X002100Y003809D02*
X005784Y003809D01*
X005808Y003731D02*
X002133Y003731D01*
X002110Y003495D02*
X008375Y003495D01*
X008408Y003417D02*
X002078Y003417D01*
X001999Y003338D02*
X008486Y003338D01*
X008629Y003260D02*
X001856Y003260D01*
X001638Y003024D02*
X001403Y003024D01*
X001403Y002946D02*
X001490Y002946D01*
X001411Y002867D02*
X001403Y002867D01*
X001403Y003260D02*
X001629Y003260D01*
X001486Y003338D02*
X001403Y003338D01*
X001403Y003417D02*
X001408Y003417D01*
X001403Y003888D02*
X001432Y003888D01*
X001403Y003966D02*
X001510Y003966D01*
X001403Y004045D02*
X005881Y004045D01*
X006288Y004123D02*
X001403Y004123D01*
X001403Y004202D02*
X009083Y004202D01*
X009083Y004280D02*
X008906Y004280D01*
X009020Y004359D02*
X009083Y004359D01*
X009083Y004123D02*
X006517Y004123D01*
X006804Y004987D02*
X001938Y004987D01*
X001955Y005301D02*
X008530Y005301D01*
X008445Y005379D02*
X002040Y005379D01*
X002095Y005458D02*
X008391Y005458D01*
X008358Y005536D02*
X002127Y005536D01*
X002138Y005615D02*
X008348Y005615D01*
X008348Y005693D02*
X007142Y005693D01*
X007140Y005690D02*
X007212Y005763D01*
X007252Y005858D01*
X007252Y005962D01*
X007212Y006057D01*
X007140Y006130D01*
X007044Y006169D01*
X006941Y006169D01*
X006846Y006130D01*
X006773Y006057D01*
X006734Y005962D01*
X006734Y005858D01*
X006773Y005763D01*
X006846Y005690D01*
X006941Y005651D01*
X007044Y005651D01*
X007140Y005690D01*
X007216Y005772D02*
X008370Y005772D01*
X008402Y005850D02*
X007248Y005850D01*
X007252Y005929D02*
X008473Y005929D01*
X008597Y006007D02*
X007233Y006007D01*
X007184Y006086D02*
X009083Y006086D01*
X009083Y006164D02*
X007056Y006164D01*
X006929Y006164D02*
X001403Y006164D01*
X001403Y006086D02*
X006802Y006086D01*
X006753Y006007D02*
X001889Y006007D01*
X002013Y005929D02*
X006734Y005929D01*
X006737Y005850D02*
X002083Y005850D01*
X002116Y005772D02*
X006770Y005772D01*
X006843Y005693D02*
X002138Y005693D01*
X001982Y006321D02*
X008503Y006321D01*
X008425Y006400D02*
X002061Y006400D01*
X002103Y006478D02*
X008382Y006478D01*
X008350Y006557D02*
X002136Y006557D01*
X002138Y006635D02*
X004881Y006635D01*
X004896Y006620D02*
X004991Y006581D01*
X005094Y006581D01*
X005190Y006620D01*
X005243Y006674D01*
X005296Y006620D01*
X005391Y006581D01*
X005494Y006581D01*
X005590Y006620D01*
X005662Y006693D01*
X005702Y006788D01*
X005702Y006892D01*
X005662Y006987D01*
X005590Y007060D01*
X005494Y007099D01*
X005391Y007099D01*
X005296Y007060D01*
X005243Y007006D01*
X005190Y007060D01*
X005094Y007099D01*
X004991Y007099D01*
X004896Y007060D01*
X004823Y006987D01*
X004784Y006892D01*
X004784Y006788D01*
X004823Y006693D01*
X004896Y006620D01*
X004815Y006714D02*
X002138Y006714D01*
X002107Y006792D02*
X004784Y006792D01*
X004784Y006871D02*
X002071Y006871D01*
X001992Y006949D02*
X004808Y006949D01*
X004864Y007028D02*
X001839Y007028D01*
X001646Y007028D02*
X001403Y007028D01*
X001403Y007106D02*
X009083Y007106D01*
X009083Y007028D02*
X008839Y007028D01*
X008992Y006949D02*
X009083Y006949D01*
X009071Y006871D02*
X009083Y006871D01*
X009083Y007185D02*
X001403Y007185D01*
X001403Y007263D02*
X001621Y007263D01*
X001483Y007342D02*
X001403Y007342D01*
X001403Y007420D02*
X001406Y007420D01*
X001403Y006949D02*
X001493Y006949D01*
X001415Y006871D02*
X001403Y006871D01*
X001403Y006400D02*
X001425Y006400D01*
X001403Y006321D02*
X001503Y006321D01*
X001403Y006243D02*
X009083Y006243D01*
X009083Y006321D02*
X008982Y006321D01*
X009061Y006400D02*
X009083Y006400D01*
X009083Y006007D02*
X008889Y006007D01*
X009013Y005929D02*
X009083Y005929D01*
X009083Y005379D02*
X009040Y005379D01*
X009083Y005301D02*
X008955Y005301D01*
X009083Y005222D02*
X001403Y005222D01*
X001403Y005144D02*
X006880Y005144D01*
X006826Y005065D02*
X001403Y005065D01*
X001403Y004987D02*
X001547Y004987D01*
X001452Y004908D02*
X001403Y004908D01*
X001403Y005301D02*
X001530Y005301D01*
X001445Y005379D02*
X001403Y005379D01*
X001403Y005929D02*
X001473Y005929D01*
X001403Y006007D02*
X001597Y006007D01*
X001865Y007263D02*
X008621Y007263D01*
X008646Y007028D02*
X005622Y007028D01*
X005678Y006949D02*
X008493Y006949D01*
X008415Y006871D02*
X005702Y006871D01*
X005702Y006792D02*
X008378Y006792D01*
X008348Y006714D02*
X005671Y006714D01*
X005604Y006635D02*
X008348Y006635D01*
X008483Y007342D02*
X002003Y007342D01*
X002079Y007420D02*
X008406Y007420D01*
X008374Y007499D02*
X005361Y007499D01*
X005390Y007510D02*
X005462Y007583D01*
X005502Y007678D01*
X005502Y007782D01*
X005462Y007877D01*
X005390Y007950D01*
X005294Y007989D01*
X005191Y007989D01*
X005096Y007950D01*
X005023Y007877D01*
X004984Y007782D01*
X004984Y007678D01*
X005023Y007583D01*
X005096Y007510D01*
X005191Y007471D01*
X005294Y007471D01*
X005390Y007510D01*
X005456Y007577D02*
X008348Y007577D01*
X008348Y007656D02*
X005492Y007656D01*
X005502Y007734D02*
X008354Y007734D01*
X008387Y007813D02*
X007221Y007813D01*
X007240Y007820D02*
X007312Y007893D01*
X007352Y007988D01*
X007352Y008092D01*
X007312Y008187D01*
X007240Y008260D01*
X007144Y008299D01*
X007049Y008299D01*
X007012Y008387D01*
X006940Y008460D01*
X006844Y008499D01*
X006741Y008499D01*
X006646Y008460D01*
X006573Y008387D01*
X006534Y008292D01*
X006534Y008188D01*
X006573Y008093D01*
X006646Y008020D01*
X006741Y007981D01*
X006837Y007981D01*
X006873Y007893D01*
X006946Y007820D01*
X007041Y007781D01*
X007144Y007781D01*
X007240Y007820D01*
X007310Y007891D02*
X008435Y007891D01*
X008514Y007970D02*
X007344Y007970D01*
X007352Y008048D02*
X009083Y008048D01*
X009083Y007970D02*
X008972Y007970D01*
X009050Y007891D02*
X009083Y007891D01*
X009083Y008127D02*
X007337Y008127D01*
X007294Y008205D02*
X009083Y008205D01*
X009083Y008284D02*
X008914Y008284D01*
X009023Y008362D02*
X009083Y008362D01*
X009083Y008912D02*
X009030Y008912D01*
X009083Y008990D02*
X008930Y008990D01*
X009083Y009069D02*
X001403Y009069D01*
X001403Y009147D02*
X007834Y009147D01*
X007826Y009150D02*
X007921Y009111D01*
X008024Y009111D01*
X008120Y009150D01*
X008192Y009223D01*
X008232Y009318D01*
X008232Y009422D01*
X008192Y009517D01*
X008120Y009590D01*
X008024Y009629D01*
X007921Y009629D01*
X007826Y009590D01*
X007753Y009517D01*
X007714Y009422D01*
X007714Y009318D01*
X007753Y009223D01*
X007826Y009150D01*
X007752Y009226D02*
X001403Y009226D01*
X001403Y009304D02*
X001522Y009304D01*
X001442Y009383D02*
X001403Y009383D01*
X001403Y008990D02*
X001556Y008990D01*
X001456Y008912D02*
X001403Y008912D01*
X001403Y008362D02*
X001462Y008362D01*
X001403Y008284D02*
X001571Y008284D01*
X001403Y008205D02*
X002272Y008205D01*
X002273Y008207D02*
X002234Y008112D01*
X002234Y008008D01*
X002273Y007913D01*
X002346Y007840D01*
X002441Y007801D01*
X002544Y007801D01*
X002640Y007840D01*
X002712Y007913D01*
X002752Y008008D01*
X002752Y008112D01*
X002712Y008207D01*
X002640Y008280D01*
X002544Y008319D01*
X002441Y008319D01*
X002346Y008280D01*
X002273Y008207D01*
X002240Y008127D02*
X001403Y008127D01*
X001403Y008048D02*
X002234Y008048D01*
X002250Y007970D02*
X001972Y007970D01*
X002050Y007891D02*
X002295Y007891D01*
X002413Y007813D02*
X002099Y007813D01*
X002131Y007734D02*
X004984Y007734D01*
X004993Y007656D02*
X002138Y007656D01*
X002138Y007577D02*
X005029Y007577D01*
X005125Y007499D02*
X002112Y007499D01*
X002572Y007813D02*
X004997Y007813D01*
X005037Y007891D02*
X002690Y007891D01*
X002736Y007970D02*
X004061Y007970D01*
X004081Y007961D02*
X004184Y007961D01*
X004280Y008000D01*
X004298Y008019D01*
X004336Y007980D01*
X004431Y007941D01*
X004534Y007941D01*
X004630Y007980D01*
X004702Y008053D01*
X004742Y008148D01*
X004742Y008252D01*
X004729Y008283D01*
X004729Y008284D02*
X005005Y008284D01*
X005013Y008263D02*
X004974Y008358D01*
X004974Y008462D01*
X005013Y008557D01*
X005086Y008630D01*
X005181Y008669D01*
X005284Y008669D01*
X005380Y008630D01*
X005452Y008557D01*
X005489Y008470D01*
X005511Y008479D01*
X005614Y008479D01*
X005710Y008440D01*
X005782Y008367D01*
X005822Y008272D01*
X005822Y008168D01*
X005782Y008073D01*
X005710Y008000D01*
X005614Y007961D01*
X005511Y007961D01*
X005416Y008000D01*
X005343Y008073D01*
X005307Y008160D01*
X005284Y008151D01*
X005181Y008151D01*
X005086Y008190D01*
X005013Y008263D01*
X005071Y008205D02*
X004742Y008205D01*
X004733Y008127D02*
X005321Y008127D01*
X005368Y008048D02*
X004697Y008048D01*
X004603Y007970D02*
X005144Y007970D01*
X005341Y007970D02*
X005491Y007970D01*
X005448Y007891D02*
X006875Y007891D01*
X006842Y007970D02*
X005635Y007970D01*
X005757Y008048D02*
X006618Y008048D01*
X006559Y008127D02*
X006172Y008127D01*
X006134Y008111D02*
X006230Y008150D01*
X006302Y008223D01*
X006342Y008318D01*
X006342Y008422D01*
X006302Y008517D01*
X006230Y008590D01*
X006134Y008629D01*
X006031Y008629D01*
X005936Y008590D01*
X005863Y008517D01*
X005824Y008422D01*
X005824Y008318D01*
X005863Y008223D01*
X005936Y008150D01*
X006031Y008111D01*
X006134Y008111D01*
X005994Y008127D02*
X005804Y008127D01*
X005822Y008205D02*
X005881Y008205D01*
X005838Y008284D02*
X005817Y008284D01*
X005824Y008362D02*
X005784Y008362D01*
X005832Y008441D02*
X005707Y008441D01*
X005865Y008519D02*
X005468Y008519D01*
X005412Y008598D02*
X005955Y008598D01*
X006210Y008598D02*
X008348Y008598D01*
X008348Y008676D02*
X004833Y008676D01*
X004842Y008667D02*
X004770Y008740D01*
X004674Y008779D01*
X004571Y008779D01*
X004476Y008740D01*
X004403Y008667D01*
X004364Y008572D01*
X004364Y008468D01*
X004377Y008437D01*
X004336Y008420D01*
X004318Y008401D01*
X004280Y008440D01*
X004184Y008479D01*
X004081Y008479D01*
X003986Y008440D01*
X003913Y008367D01*
X003874Y008272D01*
X003874Y008168D01*
X003913Y008073D01*
X003986Y008000D01*
X004081Y007961D01*
X003938Y008048D02*
X003766Y008048D01*
X003748Y008030D02*
X003821Y008103D01*
X003861Y008198D01*
X003861Y008302D01*
X003821Y008397D01*
X003748Y008470D01*
X003653Y008509D01*
X003550Y008509D01*
X003455Y008470D01*
X003382Y008397D01*
X003343Y008302D01*
X003343Y008198D01*
X003382Y008103D01*
X003455Y008030D01*
X003550Y007991D01*
X003653Y007991D01*
X003748Y008030D01*
X003831Y008127D02*
X003891Y008127D01*
X003874Y008205D02*
X003861Y008205D01*
X003861Y008284D02*
X003879Y008284D01*
X003911Y008362D02*
X003836Y008362D01*
X003778Y008441D02*
X003988Y008441D01*
X004277Y008441D02*
X004375Y008441D01*
X004364Y008519D02*
X002120Y008519D01*
X002138Y008598D02*
X004375Y008598D01*
X004412Y008676D02*
X002138Y008676D01*
X002123Y008755D02*
X004512Y008755D01*
X004734Y008755D02*
X008363Y008755D01*
X008395Y008833D02*
X002090Y008833D01*
X002030Y008912D02*
X008456Y008912D01*
X008556Y008990D02*
X001930Y008990D01*
X001964Y009304D02*
X007720Y009304D01*
X007714Y009383D02*
X002044Y009383D01*
X002096Y009461D02*
X007730Y009461D01*
X007776Y009540D02*
X002129Y009540D01*
X002138Y009618D02*
X007548Y009618D01*
X007556Y009610D02*
X007651Y009571D01*
X007754Y009571D01*
X007850Y009610D01*
X007922Y009683D01*
X007962Y009778D01*
X007962Y009882D01*
X007922Y009977D01*
X007850Y010050D01*
X007754Y010089D01*
X007651Y010089D01*
X004100Y010089D01*
X004100Y010086D02*
X004061Y009991D01*
X003988Y009918D01*
X003893Y009879D01*
X003790Y009879D01*
X003694Y009918D01*
X003622Y009991D01*
X003582Y010086D01*
X003582Y010189D01*
X003622Y010284D01*
X003694Y010357D01*
X003790Y010397D01*
X003893Y010397D01*
X003988Y010357D01*
X004061Y010284D01*
X004100Y010189D01*
X004100Y010086D01*
X004100Y010168D02*
X009083Y010168D01*
X009083Y010246D02*
X008824Y010246D01*
X008986Y010325D02*
X009083Y010325D01*
X009083Y010403D02*
X009064Y010403D01*
X009083Y010089D02*
X007754Y010089D01*
X007651Y010089D02*
X007556Y010050D01*
X007483Y009977D01*
X007444Y009882D01*
X007444Y009778D01*
X007483Y009683D01*
X007556Y009610D01*
X007478Y009697D02*
X002716Y009697D01*
X002781Y009775D02*
X007445Y009775D01*
X007444Y009854D02*
X002812Y009854D01*
X002812Y009932D02*
X003680Y009932D01*
X003613Y010011D02*
X002787Y010011D01*
X002730Y010089D02*
X003582Y010089D01*
X003582Y010168D02*
X002602Y010168D01*
X002602Y010246D02*
X003606Y010246D01*
X003662Y010325D02*
X002572Y010325D01*
X002532Y010403D02*
X005841Y010403D01*
X005853Y010373D02*
X005926Y010300D01*
X006021Y010261D01*
X006124Y010261D01*
X006220Y010300D01*
X006292Y010373D01*
X006332Y010468D01*
X006332Y010485D01*
X006346Y010470D01*
X006441Y010431D01*
X006544Y010431D01*
X006640Y010470D01*
X006712Y010543D01*
X006752Y010638D01*
X006752Y010742D01*
X006712Y010837D01*
X006640Y010910D01*
X006544Y010949D01*
X006441Y010949D01*
X006346Y010910D01*
X006273Y010837D01*
X006234Y010742D01*
X006234Y010725D01*
X006220Y010740D01*
X006124Y010779D01*
X006021Y010779D01*
X005926Y010740D01*
X005853Y010667D01*
X005814Y010572D01*
X005814Y010468D01*
X005853Y010373D01*
X005902Y010325D02*
X004021Y010325D01*
X004077Y010246D02*
X008662Y010246D01*
X008500Y010325D02*
X006244Y010325D01*
X006305Y010403D02*
X008421Y010403D01*
X008381Y010482D02*
X006651Y010482D01*
X006719Y010560D02*
X008348Y010560D01*
X008348Y010639D02*
X006752Y010639D01*
X006752Y010717D02*
X008348Y010717D01*
X008380Y010796D02*
X006729Y010796D01*
X006675Y010874D02*
X008418Y010874D01*
X008497Y010953D02*
X007556Y010953D01*
X007600Y010970D02*
X007504Y010931D01*
X007401Y010931D01*
X007306Y010970D01*
X007273Y011004D01*
X007240Y010970D01*
X007144Y010931D01*
X007041Y010931D01*
X006946Y010970D01*
X006873Y011043D01*
X006834Y011138D01*
X006834Y011242D01*
X006873Y011337D01*
X006946Y011410D01*
X007041Y011449D01*
X007144Y011449D01*
X007240Y011410D01*
X007273Y011376D01*
X007306Y011410D01*
X007401Y011449D01*
X007504Y011449D01*
X007600Y011410D01*
X007672Y011337D01*
X007712Y011242D01*
X007712Y011138D01*
X007672Y011043D01*
X007600Y010970D01*
X007660Y011031D02*
X008127Y011031D01*
X008007Y011110D02*
X007700Y011110D01*
X007712Y011188D02*
X007960Y011188D01*
X007944Y011267D02*
X007702Y011267D01*
X007664Y011345D02*
X007949Y011345D01*
X007982Y011424D02*
X007566Y011424D01*
X007340Y011424D02*
X007206Y011424D01*
X006980Y011424D02*
X002098Y011424D01*
X002134Y011502D02*
X008062Y011502D01*
X008344Y011502D02*
X008372Y011502D01*
X008348Y011581D02*
X002154Y011581D01*
X002147Y011738D02*
X008356Y011738D01*
X008348Y011659D02*
X001783Y011659D01*
X001783Y011581D02*
X001703Y011581D01*
X001703Y011502D02*
X001783Y011502D01*
X001783Y011424D02*
X001703Y011424D01*
X001703Y011345D02*
X001783Y011345D01*
X001783Y011267D02*
X001703Y011267D01*
X001562Y011267D02*
X001403Y011267D01*
X001403Y011345D02*
X001451Y011345D01*
X001403Y011188D02*
X006834Y011188D01*
X006844Y011267D02*
X001924Y011267D01*
X002035Y011345D02*
X006881Y011345D01*
X006846Y011110D02*
X001403Y011110D01*
X001403Y011031D02*
X001655Y011031D01*
X001831Y011031D02*
X006885Y011031D01*
X006989Y010953D02*
X004563Y010953D01*
X004570Y010950D02*
X004474Y010989D01*
X004371Y010989D01*
X004276Y010950D01*
X004203Y010877D01*
X004164Y010782D01*
X004164Y010678D01*
X004203Y010583D01*
X004276Y010510D01*
X004371Y010471D01*
X004474Y010471D01*
X004570Y010510D01*
X004642Y010583D01*
X004682Y010678D01*
X004682Y010782D01*
X004642Y010877D01*
X004570Y010950D01*
X004644Y010874D02*
X006310Y010874D01*
X006256Y010796D02*
X004676Y010796D01*
X004682Y010717D02*
X005903Y010717D01*
X005842Y010639D02*
X004665Y010639D01*
X004619Y010560D02*
X005814Y010560D01*
X005814Y010482D02*
X004500Y010482D01*
X004346Y010482D02*
X002606Y010482D01*
X002638Y010560D02*
X004226Y010560D01*
X004180Y010639D02*
X002642Y010639D01*
X002623Y010717D02*
X004164Y010717D01*
X004170Y010796D02*
X002574Y010796D01*
X002446Y010874D02*
X004202Y010874D01*
X004283Y010953D02*
X001989Y010953D01*
X002067Y010874D02*
X002319Y010874D01*
X002192Y010796D02*
X002106Y010796D01*
X002138Y010717D02*
X002143Y010717D01*
X002160Y010482D02*
X002105Y010482D01*
X002064Y010403D02*
X002179Y010403D01*
X002114Y010325D02*
X001986Y010325D01*
X002084Y010246D02*
X001824Y010246D01*
X001662Y010246D02*
X001403Y010246D01*
X001403Y010168D02*
X002084Y010168D01*
X002108Y010089D02*
X001403Y010089D01*
X001403Y010011D02*
X001605Y010011D01*
X001476Y009932D02*
X001403Y009932D01*
X001403Y009854D02*
X001404Y009854D01*
X001403Y010325D02*
X001500Y010325D01*
X001421Y010403D02*
X001403Y010403D01*
X001403Y010874D02*
X001418Y010874D01*
X001403Y010953D02*
X001497Y010953D01*
X001703Y011738D02*
X001783Y011738D01*
X001783Y011816D02*
X001703Y011816D01*
X001703Y011895D02*
X001783Y011895D01*
X001783Y011973D02*
X001703Y011973D01*
X001703Y012052D02*
X001783Y012052D01*
X001797Y012052D02*
X009083Y012052D01*
X009083Y012130D02*
X001403Y012130D01*
X001403Y012052D02*
X001688Y012052D01*
X001563Y012287D02*
X001403Y012287D01*
X001403Y012209D02*
X009083Y012209D01*
X009083Y012287D02*
X008923Y012287D01*
X009027Y012366D02*
X009083Y012366D01*
X009083Y011973D02*
X008968Y011973D01*
X009047Y011895D02*
X009083Y011895D01*
X009081Y011424D02*
X009083Y011424D01*
X009083Y011345D02*
X009006Y011345D01*
X009083Y011267D02*
X008873Y011267D01*
X009083Y011188D02*
X008445Y011188D01*
X008462Y011267D02*
X008612Y011267D01*
X008479Y011345D02*
X008456Y011345D01*
X008399Y011110D02*
X009083Y011110D01*
X009083Y011031D02*
X008831Y011031D01*
X008989Y010953D02*
X009083Y010953D01*
X009083Y010874D02*
X009067Y010874D01*
X008655Y011031D02*
X008279Y011031D01*
X008388Y011816D02*
X002119Y011816D01*
X002071Y011895D02*
X008439Y011895D01*
X008517Y011973D02*
X001990Y011973D01*
X001923Y012287D02*
X006529Y012287D01*
X006546Y012270D02*
X006641Y012231D01*
X006744Y012231D01*
X006840Y012270D01*
X006912Y012343D01*
X006952Y012438D01*
X006952Y012542D01*
X006912Y012637D01*
X006840Y012710D01*
X006744Y012749D01*
X006641Y012749D01*
X006546Y012710D01*
X006473Y012637D01*
X006434Y012542D01*
X006434Y012438D01*
X006473Y012343D01*
X006546Y012270D01*
X006464Y012366D02*
X002478Y012366D01*
X002563Y012444D02*
X006434Y012444D01*
X006434Y012523D02*
X002595Y012523D01*
X002602Y012601D02*
X004351Y012601D01*
X004376Y012575D02*
X004574Y012575D01*
X004713Y012715D01*
X004713Y012912D01*
X004574Y013051D01*
X004376Y013051D01*
X004237Y012912D01*
X004237Y012715D01*
X004376Y012575D01*
X004272Y012680D02*
X002586Y012680D01*
X002541Y012758D02*
X004237Y012758D01*
X004237Y012837D02*
X002514Y012837D01*
X002546Y012915D02*
X004240Y012915D01*
X004319Y012994D02*
X002552Y012994D01*
X002711Y013072D02*
X006146Y013072D01*
X006134Y013042D02*
X006173Y013137D01*
X006246Y013210D01*
X006341Y013249D01*
X006444Y013249D01*
X006540Y013210D01*
X006612Y013137D01*
X006652Y013042D01*
X006652Y012938D01*
X006612Y012843D01*
X006540Y012770D01*
X006444Y012731D01*
X006341Y012731D01*
X006249Y012769D01*
X006249Y012715D01*
X006109Y012575D01*
X005912Y012575D01*
X005772Y012715D01*
X005772Y012912D01*
X005912Y013051D01*
X006109Y013051D01*
X006134Y013027D01*
X006134Y013042D01*
X006187Y013151D02*
X002774Y013151D01*
X002802Y013229D02*
X006293Y013229D01*
X006302Y013302D02*
X006237Y013315D01*
X006175Y013340D01*
X006120Y013377D01*
X006072Y013424D01*
X006035Y013480D01*
X006010Y013541D01*
X005997Y013607D01*
X005997Y013631D01*
X006326Y013631D01*
X006326Y013649D01*
X005997Y013649D01*
X005997Y013673D01*
X006010Y013739D01*
X006035Y013800D01*
X006072Y013856D01*
X006120Y013903D01*
X006175Y013940D01*
X006237Y013965D01*
X006302Y013978D01*
X006326Y013978D01*
X006326Y013649D01*
X006345Y013649D01*
X006674Y013649D01*
X006674Y013673D01*
X006661Y013739D01*
X006635Y013800D01*
X006598Y013856D01*
X006551Y013903D01*
X006496Y013940D01*
X006434Y013965D01*
X006369Y013978D01*
X006345Y013978D01*
X006345Y013649D01*
X006345Y013631D01*
X006674Y013631D01*
X006674Y013607D01*
X006661Y013541D01*
X006635Y013480D01*
X006598Y013424D01*
X006551Y013377D01*
X006496Y013340D01*
X006434Y013315D01*
X006369Y013302D01*
X006345Y013302D01*
X006345Y013631D01*
X006326Y013631D01*
X006326Y013302D01*
X006302Y013302D01*
X006326Y013308D02*
X006345Y013308D01*
X006399Y013308D02*
X008149Y013308D01*
X008045Y013229D02*
X006493Y013229D01*
X006599Y013151D02*
X008006Y013151D01*
X007994Y013072D02*
X006639Y013072D01*
X006652Y012994D02*
X008004Y012994D01*
X008041Y012915D02*
X006642Y012915D01*
X006606Y012837D02*
X008139Y012837D01*
X008366Y012837D02*
X008397Y012837D01*
X008364Y012758D02*
X006510Y012758D01*
X006516Y012680D02*
X006214Y012680D01*
X006249Y012758D02*
X006276Y012758D01*
X006135Y012601D02*
X006458Y012601D01*
X006870Y012680D02*
X008348Y012680D01*
X008348Y012601D02*
X006927Y012601D01*
X006952Y012523D02*
X008364Y012523D01*
X008396Y012444D02*
X006952Y012444D01*
X006922Y012366D02*
X008459Y012366D01*
X008563Y012287D02*
X006856Y012287D01*
X006272Y013308D02*
X004214Y013308D01*
X004184Y013302D02*
X004249Y013315D01*
X004311Y013340D01*
X004366Y013377D01*
X004413Y013424D01*
X004450Y013480D01*
X004476Y013541D01*
X004489Y013607D01*
X004489Y013631D01*
X004160Y013631D01*
X004160Y013649D01*
X004489Y013649D01*
X004489Y013673D01*
X004476Y013739D01*
X004450Y013800D01*
X004413Y013856D01*
X004366Y013903D01*
X004311Y013940D01*
X004249Y013965D01*
X004184Y013978D01*
X004159Y013978D01*
X004159Y013649D01*
X004141Y013649D01*
X004141Y013631D01*
X003812Y013631D01*
X003812Y013607D01*
X003825Y013541D01*
X003850Y013480D01*
X003887Y013424D01*
X003935Y013377D01*
X003990Y013340D01*
X004052Y013315D01*
X004117Y013302D01*
X004141Y013302D01*
X004141Y013631D01*
X004159Y013631D01*
X004159Y013302D01*
X004184Y013302D01*
X004159Y013308D02*
X004141Y013308D01*
X004087Y013308D02*
X002802Y013308D01*
X002775Y013386D02*
X003926Y013386D01*
X003861Y013465D02*
X002715Y013465D01*
X002371Y013465D02*
X001403Y013465D01*
X001403Y013543D02*
X003825Y013543D01*
X003812Y013622D02*
X001403Y013622D01*
X001403Y013700D02*
X003817Y013700D01*
X003812Y013673D02*
X003825Y013739D01*
X003850Y013800D01*
X003887Y013856D01*
X003935Y013903D01*
X003990Y013940D01*
X004052Y013965D01*
X004117Y013978D01*
X004141Y013978D01*
X004141Y013649D01*
X003812Y013649D01*
X003812Y013673D01*
X003841Y013779D02*
X001403Y013779D01*
X001403Y013857D02*
X003889Y013857D01*
X003983Y013936D02*
X001403Y013936D01*
X001403Y013386D02*
X002310Y013386D01*
X002284Y013308D02*
X001403Y013308D01*
X001403Y013229D02*
X002217Y013229D01*
X002097Y013151D02*
X001403Y013151D01*
X001403Y013072D02*
X002051Y013072D01*
X002034Y012994D02*
X001921Y012994D01*
X002026Y012915D02*
X002039Y012915D01*
X002089Y012444D02*
X002123Y012444D01*
X002208Y012366D02*
X002027Y012366D01*
X001564Y012994D02*
X001403Y012994D01*
X001403Y012915D02*
X001459Y012915D01*
X001459Y012366D02*
X001403Y012366D01*
X001403Y011973D02*
X001495Y011973D01*
X001415Y011895D02*
X001403Y011895D01*
X001880Y010011D02*
X002166Y010011D01*
X002294Y009932D02*
X002009Y009932D01*
X002082Y009854D02*
X002294Y009854D01*
X002324Y009775D02*
X002114Y009775D01*
X002138Y009697D02*
X002390Y009697D01*
X002088Y008441D02*
X003426Y008441D01*
X003368Y008362D02*
X002023Y008362D01*
X001914Y008284D02*
X002355Y008284D01*
X002630Y008284D02*
X003343Y008284D01*
X003343Y008205D02*
X002713Y008205D01*
X002746Y008127D02*
X003372Y008127D01*
X003437Y008048D02*
X002752Y008048D01*
X001514Y007970D02*
X001403Y007970D01*
X001403Y007891D02*
X001435Y007891D01*
X001403Y004359D02*
X001466Y004359D01*
X001403Y004280D02*
X001580Y004280D01*
X001588Y002004D02*
X001403Y002004D01*
X001403Y001925D02*
X001469Y001925D01*
X005204Y006635D02*
X005281Y006635D01*
X005264Y007028D02*
X005222Y007028D01*
X005489Y007813D02*
X006965Y007813D01*
X007182Y008284D02*
X008571Y008284D01*
X008462Y008362D02*
X007023Y008362D01*
X006959Y008441D02*
X008398Y008441D01*
X008365Y008519D02*
X006300Y008519D01*
X006334Y008441D02*
X006627Y008441D01*
X006563Y008362D02*
X006342Y008362D01*
X006327Y008284D02*
X006534Y008284D01*
X006534Y008205D02*
X006284Y008205D01*
X005054Y008598D02*
X004871Y008598D01*
X004882Y008572D02*
X004842Y008667D01*
X004882Y008572D02*
X004882Y008468D01*
X004842Y008373D01*
X004770Y008300D01*
X004729Y008283D01*
X004831Y008362D02*
X004974Y008362D01*
X004974Y008441D02*
X004870Y008441D01*
X004882Y008519D02*
X004998Y008519D01*
X004362Y007970D02*
X004205Y007970D01*
X004002Y009932D02*
X007465Y009932D01*
X007517Y010011D02*
X004069Y010011D01*
X004600Y012601D02*
X005886Y012601D01*
X005807Y012680D02*
X004678Y012680D01*
X004713Y012758D02*
X005772Y012758D01*
X005772Y012837D02*
X004713Y012837D01*
X004710Y012915D02*
X005776Y012915D01*
X005854Y012994D02*
X004632Y012994D01*
X004375Y013386D02*
X006111Y013386D01*
X006046Y013465D02*
X004440Y013465D01*
X004476Y013543D02*
X006010Y013543D01*
X005997Y013622D02*
X004489Y013622D01*
X004483Y013700D02*
X006002Y013700D01*
X006026Y013779D02*
X004459Y013779D01*
X004412Y013857D02*
X006074Y013857D01*
X006168Y013936D02*
X004317Y013936D01*
X004159Y013936D02*
X004141Y013936D01*
X004141Y013857D02*
X004159Y013857D01*
X004159Y013779D02*
X004141Y013779D01*
X004141Y013700D02*
X004159Y013700D01*
X004159Y013622D02*
X004141Y013622D01*
X004141Y013543D02*
X004159Y013543D01*
X004159Y013465D02*
X004141Y013465D01*
X004141Y013386D02*
X004159Y013386D01*
X006326Y013386D02*
X006345Y013386D01*
X006345Y013465D02*
X006326Y013465D01*
X006326Y013543D02*
X006345Y013543D01*
X006345Y013622D02*
X006326Y013622D01*
X006326Y013700D02*
X006345Y013700D01*
X006345Y013779D02*
X006326Y013779D01*
X006326Y013857D02*
X006345Y013857D01*
X006345Y013936D02*
X006326Y013936D01*
X006502Y013936D02*
X009083Y013936D01*
X009083Y013857D02*
X006597Y013857D01*
X006644Y013779D02*
X009083Y013779D01*
X009083Y013700D02*
X006668Y013700D01*
X006674Y013622D02*
X009083Y013622D01*
X009083Y013543D02*
X006661Y013543D01*
X006625Y013465D02*
X009083Y013465D01*
X009083Y013386D02*
X006560Y013386D01*
X007196Y010953D02*
X007349Y010953D01*
X007889Y010011D02*
X008556Y010011D01*
X008448Y009932D02*
X007941Y009932D01*
X007962Y009854D02*
X008386Y009854D01*
X008350Y009775D02*
X007960Y009775D01*
X007928Y009697D02*
X008332Y009697D01*
X008339Y009540D02*
X008170Y009540D01*
X008215Y009461D02*
X008368Y009461D01*
X008417Y009383D02*
X008232Y009383D01*
X008226Y009304D02*
X008499Y009304D01*
X008703Y009304D02*
X008783Y009304D01*
X008783Y009383D02*
X008703Y009383D01*
X008703Y009461D02*
X008783Y009461D01*
X008783Y009540D02*
X008703Y009540D01*
X008703Y009618D02*
X008051Y009618D01*
X007895Y009618D02*
X007857Y009618D01*
X008111Y009147D02*
X009083Y009147D01*
X009083Y009226D02*
X008193Y009226D01*
X008703Y009697D02*
X008783Y009697D01*
X008783Y009775D02*
X008703Y009775D01*
X008703Y009854D02*
X008783Y009854D01*
X008783Y009932D02*
X008703Y009932D01*
X008703Y010011D02*
X008783Y010011D01*
X008930Y010011D02*
X009083Y010011D01*
X009083Y009932D02*
X009038Y009932D01*
X009069Y009383D02*
X009083Y009383D01*
X009083Y009304D02*
X008986Y009304D01*
X009079Y007420D02*
X009083Y007420D01*
X009083Y007342D02*
X009003Y007342D01*
X009083Y007263D02*
X008865Y007263D01*
X009083Y005144D02*
X007246Y005144D01*
X007300Y005065D02*
X009083Y005065D01*
X009083Y004987D02*
X008938Y004987D01*
X009033Y004908D02*
X009083Y004908D01*
X006335Y010482D02*
X006332Y010482D01*
X008356Y013308D02*
X009083Y013308D01*
X009083Y013229D02*
X008460Y013229D01*
X008500Y013151D02*
X009083Y013151D01*
X009083Y013072D02*
X008512Y013072D01*
X008502Y012994D02*
X008564Y012994D01*
X008921Y012994D02*
X009083Y012994D01*
X009083Y012915D02*
X009026Y012915D01*
D13*
X008293Y012140D03*
X008203Y011280D03*
X007453Y011190D03*
X007093Y011190D03*
X006493Y010690D03*
X006073Y010520D03*
X006443Y010130D03*
X006693Y008570D03*
X006793Y008240D03*
X007093Y008040D03*
X007973Y009370D03*
X007703Y009830D03*
X008243Y008140D03*
X006993Y005910D03*
X007063Y004960D03*
X006403Y003890D03*
X006043Y003840D03*
X006923Y003790D03*
X005943Y005260D03*
X005443Y006840D03*
X005043Y006840D03*
X005083Y007380D03*
X005243Y007730D03*
X005563Y008220D03*
X005233Y008410D03*
X004623Y008520D03*
X004483Y008200D03*
X004133Y008220D03*
X003602Y008250D03*
X002493Y008060D03*
X002553Y009900D03*
X002343Y010200D03*
X002383Y010620D03*
X002343Y012590D03*
X002293Y012980D03*
X002543Y013270D03*
X001903Y013240D03*
X003893Y012520D03*
X003903Y010720D03*
X003841Y010138D03*
X004423Y010730D03*
X006083Y008370D03*
X005963Y006910D03*
X008073Y004000D03*
X005743Y001640D03*
X004993Y001640D03*
X004243Y001640D03*
X003243Y001640D03*
X002543Y002750D03*
X006693Y012490D03*
X006393Y012990D03*
X008253Y013070D03*
M02*
