G75*
G70*
%OFA0B0*%
%FSLAX24Y24*%
%IPPOS*%
%LPD*%
%AMOC8*
5,1,8,0,0,1.08239X$1,22.5*
%
%ADD10C,0.0080*%
%ADD11C,0.0100*%
%ADD12C,0.0060*%
%ADD13C,0.0030*%
%ADD14C,0.0050*%
%ADD15C,0.0040*%
D10*
X002863Y004254D02*
X002863Y004726D01*
X003375Y005474D02*
X003611Y005474D01*
X004123Y004726D02*
X004123Y004254D01*
X004498Y004143D02*
X004498Y004537D01*
X005088Y004537D02*
X005088Y004143D01*
X005501Y004200D02*
X005501Y004080D01*
X005785Y004080D02*
X005785Y004200D01*
X005283Y005450D02*
X005203Y005450D01*
X005203Y005730D02*
X005283Y005730D01*
X003611Y003506D02*
X003375Y003506D01*
X003553Y002680D02*
X003553Y002600D01*
X003833Y002600D02*
X003833Y002680D01*
X004203Y002680D02*
X004203Y002600D01*
X004483Y002600D02*
X004483Y002680D01*
X004853Y002680D02*
X004853Y002600D01*
X005133Y002600D02*
X005133Y002680D01*
X005503Y002680D02*
X005503Y002600D01*
X005783Y002600D02*
X005783Y002680D01*
X003383Y006300D02*
X003383Y006380D01*
X003103Y006380D02*
X003103Y006300D01*
X003183Y002680D02*
X003183Y002600D01*
X002903Y002600D02*
X002903Y002680D01*
X007653Y008100D02*
X007653Y008180D01*
X007933Y008180D02*
X007933Y008100D01*
X007433Y011550D02*
X007353Y011550D01*
X007353Y011830D02*
X007433Y011830D01*
X007453Y012700D02*
X007533Y012700D01*
X007533Y012980D02*
X007453Y012980D01*
X007299Y013168D02*
X006709Y013168D01*
X006709Y014112D01*
X007299Y014112D01*
X008087Y014112D02*
X008520Y014112D01*
X008677Y013955D01*
X008677Y013325D01*
X008520Y013168D01*
X008087Y013168D01*
X006533Y013190D02*
X006533Y011890D01*
X003953Y011890D01*
X003953Y013190D01*
X006533Y013190D01*
X005283Y010750D02*
X005203Y010750D01*
X005203Y010470D02*
X005283Y010470D01*
X003667Y012414D02*
X003669Y012428D01*
X003675Y012442D01*
X003683Y012454D01*
X003695Y012462D01*
X003709Y012468D01*
X003723Y012470D01*
X003737Y012468D01*
X003751Y012462D01*
X003763Y012454D01*
X003771Y012442D01*
X003777Y012428D01*
X003779Y012414D01*
X003777Y012400D01*
X003771Y012386D01*
X003763Y012374D01*
X003751Y012366D01*
X003737Y012360D01*
X003723Y012358D01*
X003709Y012360D01*
X003695Y012366D01*
X003683Y012374D01*
X003675Y012386D01*
X003669Y012400D01*
X003667Y012414D01*
X003565Y012375D02*
X003565Y013005D01*
X003253Y013548D02*
X003133Y013548D01*
X003133Y013832D02*
X003253Y013832D01*
X002620Y013005D02*
X002620Y012375D01*
X003053Y011830D02*
X003133Y011830D01*
X003133Y011550D02*
X003053Y011550D01*
X003033Y011132D02*
X003153Y011132D01*
X003153Y010848D02*
X003033Y010848D01*
X003033Y010482D02*
X003153Y010482D01*
X003153Y010198D02*
X003033Y010198D01*
X001953Y013548D02*
X001833Y013548D01*
X001833Y013832D02*
X001953Y013832D01*
D11*
X005166Y009943D02*
X003440Y008217D01*
X003440Y008063D01*
X005166Y006337D01*
X005319Y006337D01*
X007045Y008063D01*
X007045Y008217D01*
X005319Y009943D01*
X005166Y009943D01*
X005007Y007026D02*
X005009Y007056D01*
X005015Y007086D01*
X005024Y007115D01*
X005037Y007142D01*
X005054Y007167D01*
X005073Y007190D01*
X005096Y007211D01*
X005121Y007228D01*
X005147Y007242D01*
X005176Y007252D01*
X005205Y007259D01*
X005235Y007262D01*
X005266Y007261D01*
X005296Y007256D01*
X005325Y007247D01*
X005352Y007235D01*
X005378Y007220D01*
X005402Y007201D01*
X005423Y007179D01*
X005441Y007155D01*
X005456Y007128D01*
X005467Y007100D01*
X005475Y007071D01*
X005479Y007041D01*
X005479Y007011D01*
X005475Y006981D01*
X005467Y006952D01*
X005456Y006924D01*
X005441Y006897D01*
X005423Y006873D01*
X005402Y006851D01*
X005378Y006832D01*
X005352Y006817D01*
X005325Y006805D01*
X005296Y006796D01*
X005266Y006791D01*
X005235Y006790D01*
X005205Y006793D01*
X005176Y006800D01*
X005147Y006810D01*
X005121Y006824D01*
X005096Y006841D01*
X005073Y006862D01*
X005054Y006885D01*
X005037Y006910D01*
X005024Y006937D01*
X005015Y006966D01*
X005009Y006996D01*
X005007Y007026D01*
D12*
X005983Y005050D02*
X006083Y005050D01*
X005983Y005050D02*
X005983Y004110D01*
X005983Y003870D01*
X005983Y002930D01*
X006083Y002930D01*
X006503Y002930D02*
X006583Y002930D01*
X007003Y002930D02*
X007083Y002930D01*
X007503Y002930D02*
X007583Y002930D01*
X008003Y002930D02*
X008103Y002930D01*
X008103Y005050D01*
X008003Y005050D01*
X007583Y005050D02*
X007503Y005050D01*
X007083Y005050D02*
X007003Y005050D01*
X006583Y005050D02*
X006503Y005050D01*
X005983Y004110D02*
X006004Y004108D01*
X006024Y004103D01*
X006043Y004094D01*
X006060Y004082D01*
X006075Y004067D01*
X006087Y004050D01*
X006096Y004031D01*
X006101Y004011D01*
X006103Y003990D01*
X006101Y003969D01*
X006096Y003949D01*
X006087Y003930D01*
X006075Y003913D01*
X006060Y003898D01*
X006043Y003886D01*
X006024Y003877D01*
X006004Y003872D01*
X005983Y003870D01*
D13*
X006029Y005421D02*
X005716Y005735D01*
X005716Y005578D02*
X006029Y005578D01*
X006029Y005735D02*
X005716Y005421D01*
X005873Y005421D02*
X005873Y005735D01*
D14*
X003683Y012375D02*
X003683Y012414D01*
X003723Y012414D01*
X007843Y013240D02*
X007843Y014040D01*
D15*
X007953Y010549D02*
X007953Y010431D01*
X006733Y010431D02*
X006733Y010549D01*
M02*
