G75*
G70*
%OFA0B0*%
%FSLAX24Y24*%
%IPPOS*%
%LPD*%
%AMOC8*
5,1,8,0,0,1.08239X$1,22.5*
%
%ADD10R,0.0630X0.0551*%
%ADD11R,0.0472X0.0217*%
%ADD12C,0.0740*%
%ADD13R,0.0433X0.0748*%
%ADD14R,0.0433X0.0394*%
%ADD15R,0.0394X0.0709*%
%ADD16R,0.0248X0.0327*%
%ADD17R,0.0079X0.0394*%
%ADD18R,0.0394X0.0079*%
%ADD19R,0.0394X0.0433*%
%ADD20R,0.0220X0.0590*%
%ADD21R,0.0390X0.0118*%
%ADD22R,0.0551X0.0630*%
%ADD23C,0.0080*%
%ADD24C,0.0160*%
%ADD25C,0.0278*%
%ADD26C,0.0240*%
%ADD27C,0.0100*%
D10*
X003743Y010099D03*
X003743Y011201D03*
X006743Y011201D03*
X006743Y010099D03*
D11*
X005755Y010276D03*
X005755Y011024D03*
X004731Y011024D03*
X004731Y010650D03*
X004731Y010276D03*
D12*
X001743Y000650D03*
X001743Y001650D03*
X001743Y002650D03*
X001743Y003650D03*
X001743Y004650D03*
X001743Y005650D03*
X001743Y006650D03*
X001743Y007650D03*
X001743Y008650D03*
X001743Y009650D03*
X001743Y010650D03*
X001743Y011650D03*
X008743Y011650D03*
X008743Y010650D03*
X008743Y009650D03*
X008743Y008650D03*
X008743Y007650D03*
X008743Y006650D03*
X008743Y005650D03*
X008743Y004650D03*
X008743Y003650D03*
X008743Y002650D03*
X008743Y001650D03*
X008743Y000650D03*
D13*
X004296Y002372D03*
X003390Y002372D03*
X003390Y003828D03*
X004296Y003828D03*
D14*
X004177Y004500D03*
X003508Y004500D03*
X005043Y003485D03*
X005043Y002815D03*
X004177Y001700D03*
X003508Y001700D03*
X007408Y007150D03*
X008077Y007150D03*
X005577Y009600D03*
X004908Y009600D03*
X002943Y009815D03*
X002943Y010485D03*
D15*
X004792Y011900D03*
X005894Y011900D03*
D16*
X005696Y012700D03*
X004790Y012700D03*
D17*
G36*
X005841Y009334D02*
X005896Y009279D01*
X005619Y009002D01*
X005564Y009057D01*
X005841Y009334D01*
G37*
G36*
X005980Y009195D02*
X006035Y009140D01*
X005758Y008863D01*
X005703Y008918D01*
X005980Y009195D01*
G37*
G36*
X006119Y009056D02*
X006174Y009001D01*
X005897Y008724D01*
X005842Y008779D01*
X006119Y009056D01*
G37*
G36*
X006259Y008917D02*
X006314Y008862D01*
X006037Y008585D01*
X005982Y008640D01*
X006259Y008917D01*
G37*
G36*
X006398Y008778D02*
X006453Y008723D01*
X006176Y008446D01*
X006121Y008501D01*
X006398Y008778D01*
G37*
G36*
X006537Y008638D02*
X006592Y008583D01*
X006315Y008306D01*
X006260Y008361D01*
X006537Y008638D01*
G37*
G36*
X006676Y008499D02*
X006731Y008444D01*
X006454Y008167D01*
X006399Y008222D01*
X006676Y008499D01*
G37*
G36*
X006815Y008360D02*
X006870Y008305D01*
X006593Y008028D01*
X006538Y008083D01*
X006815Y008360D01*
G37*
G36*
X006955Y008221D02*
X007010Y008166D01*
X006733Y007889D01*
X006678Y007944D01*
X006955Y008221D01*
G37*
G36*
X007094Y008082D02*
X007149Y008027D01*
X006872Y007750D01*
X006817Y007805D01*
X007094Y008082D01*
G37*
G36*
X007233Y007942D02*
X007288Y007887D01*
X007011Y007610D01*
X006956Y007665D01*
X007233Y007942D01*
G37*
G36*
X007372Y007803D02*
X007427Y007748D01*
X007150Y007471D01*
X007095Y007526D01*
X007372Y007803D01*
G37*
G36*
X004867Y005298D02*
X004922Y005243D01*
X004645Y004966D01*
X004590Y005021D01*
X004867Y005298D01*
G37*
G36*
X004727Y005437D02*
X004782Y005382D01*
X004505Y005105D01*
X004450Y005160D01*
X004727Y005437D01*
G37*
G36*
X004588Y005576D02*
X004643Y005521D01*
X004366Y005244D01*
X004311Y005299D01*
X004588Y005576D01*
G37*
G36*
X004449Y005715D02*
X004504Y005660D01*
X004227Y005383D01*
X004172Y005438D01*
X004449Y005715D01*
G37*
G36*
X004310Y005854D02*
X004365Y005799D01*
X004088Y005522D01*
X004033Y005577D01*
X004310Y005854D01*
G37*
G36*
X004171Y005994D02*
X004226Y005939D01*
X003949Y005662D01*
X003894Y005717D01*
X004171Y005994D01*
G37*
G36*
X004031Y006133D02*
X004086Y006078D01*
X003809Y005801D01*
X003754Y005856D01*
X004031Y006133D01*
G37*
G36*
X003892Y006272D02*
X003947Y006217D01*
X003670Y005940D01*
X003615Y005995D01*
X003892Y006272D01*
G37*
G36*
X003753Y006411D02*
X003808Y006356D01*
X003531Y006079D01*
X003476Y006134D01*
X003753Y006411D01*
G37*
G36*
X003614Y006550D02*
X003669Y006495D01*
X003392Y006218D01*
X003337Y006273D01*
X003614Y006550D01*
G37*
G36*
X003475Y006690D02*
X003530Y006635D01*
X003253Y006358D01*
X003198Y006413D01*
X003475Y006690D01*
G37*
G36*
X003335Y006829D02*
X003390Y006774D01*
X003113Y006497D01*
X003058Y006552D01*
X003335Y006829D01*
G37*
D18*
G36*
X003113Y007803D02*
X003390Y007526D01*
X003335Y007471D01*
X003058Y007748D01*
X003113Y007803D01*
G37*
G36*
X003253Y007942D02*
X003530Y007665D01*
X003475Y007610D01*
X003198Y007887D01*
X003253Y007942D01*
G37*
G36*
X003392Y008082D02*
X003669Y007805D01*
X003614Y007750D01*
X003337Y008027D01*
X003392Y008082D01*
G37*
G36*
X003531Y008221D02*
X003808Y007944D01*
X003753Y007889D01*
X003476Y008166D01*
X003531Y008221D01*
G37*
G36*
X003670Y008360D02*
X003947Y008083D01*
X003892Y008028D01*
X003615Y008305D01*
X003670Y008360D01*
G37*
G36*
X003809Y008499D02*
X004086Y008222D01*
X004031Y008167D01*
X003754Y008444D01*
X003809Y008499D01*
G37*
G36*
X003949Y008638D02*
X004226Y008361D01*
X004171Y008306D01*
X003894Y008583D01*
X003949Y008638D01*
G37*
G36*
X004088Y008778D02*
X004365Y008501D01*
X004310Y008446D01*
X004033Y008723D01*
X004088Y008778D01*
G37*
G36*
X004227Y008917D02*
X004504Y008640D01*
X004449Y008585D01*
X004172Y008862D01*
X004227Y008917D01*
G37*
G36*
X004366Y009056D02*
X004643Y008779D01*
X004588Y008724D01*
X004311Y009001D01*
X004366Y009056D01*
G37*
G36*
X004505Y009195D02*
X004782Y008918D01*
X004727Y008863D01*
X004450Y009140D01*
X004505Y009195D01*
G37*
G36*
X004645Y009334D02*
X004922Y009057D01*
X004867Y009002D01*
X004590Y009279D01*
X004645Y009334D01*
G37*
G36*
X006733Y006411D02*
X007010Y006134D01*
X006955Y006079D01*
X006678Y006356D01*
X006733Y006411D01*
G37*
G36*
X006872Y006550D02*
X007149Y006273D01*
X007094Y006218D01*
X006817Y006495D01*
X006872Y006550D01*
G37*
G36*
X007011Y006690D02*
X007288Y006413D01*
X007233Y006358D01*
X006956Y006635D01*
X007011Y006690D01*
G37*
G36*
X007150Y006829D02*
X007427Y006552D01*
X007372Y006497D01*
X007095Y006774D01*
X007150Y006829D01*
G37*
G36*
X006593Y006272D02*
X006870Y005995D01*
X006815Y005940D01*
X006538Y006217D01*
X006593Y006272D01*
G37*
G36*
X006454Y006133D02*
X006731Y005856D01*
X006676Y005801D01*
X006399Y006078D01*
X006454Y006133D01*
G37*
G36*
X006315Y005994D02*
X006592Y005717D01*
X006537Y005662D01*
X006260Y005939D01*
X006315Y005994D01*
G37*
G36*
X006176Y005854D02*
X006453Y005577D01*
X006398Y005522D01*
X006121Y005799D01*
X006176Y005854D01*
G37*
G36*
X006037Y005715D02*
X006314Y005438D01*
X006259Y005383D01*
X005982Y005660D01*
X006037Y005715D01*
G37*
G36*
X005897Y005576D02*
X006174Y005299D01*
X006119Y005244D01*
X005842Y005521D01*
X005897Y005576D01*
G37*
G36*
X005758Y005437D02*
X006035Y005160D01*
X005980Y005105D01*
X005703Y005382D01*
X005758Y005437D01*
G37*
G36*
X005619Y005298D02*
X005896Y005021D01*
X005841Y004966D01*
X005564Y005243D01*
X005619Y005298D01*
G37*
D19*
X005243Y004985D03*
X005243Y004315D03*
X005043Y002335D03*
X005043Y001665D03*
X003393Y005015D03*
X003393Y005685D03*
X003558Y012150D03*
X003558Y012650D03*
X004227Y012650D03*
X004227Y012150D03*
X007843Y011135D03*
X007843Y010465D03*
D20*
X007193Y004190D03*
X006693Y004190D03*
X006193Y004190D03*
X005693Y004190D03*
X005693Y001310D03*
X006193Y001310D03*
X006693Y001310D03*
X007193Y001310D03*
D21*
X003012Y012144D03*
X003012Y012400D03*
X003012Y012656D03*
X002378Y012656D03*
X002378Y012400D03*
X002378Y012144D03*
D22*
X006892Y012550D03*
X007994Y012550D03*
D23*
X006892Y012550D02*
X006892Y012001D01*
X006943Y011950D01*
X006343Y011900D02*
X006293Y011850D01*
X006293Y011500D01*
X006193Y011400D01*
X005443Y011400D01*
X004943Y011900D01*
X004792Y011900D01*
X004542Y012150D01*
X004227Y012150D01*
X004393Y011800D02*
X003993Y011800D01*
X003893Y011900D01*
X003893Y013000D01*
X001443Y013000D01*
X001393Y012950D01*
X001393Y011900D01*
X001643Y011650D01*
X001743Y011650D01*
X002243Y012009D02*
X002243Y011150D01*
X001743Y010650D01*
X002243Y010150D01*
X002608Y010150D01*
X002943Y009815D01*
X002793Y009450D02*
X002743Y009400D01*
X002793Y009450D02*
X003143Y009450D01*
X003343Y009650D01*
X004143Y009650D01*
X004543Y010050D01*
X005943Y010050D01*
X006343Y009650D01*
X006643Y009650D01*
X006743Y009550D01*
X006743Y008789D01*
X006426Y008472D01*
X006565Y008333D02*
X006882Y008650D01*
X006893Y008650D01*
X006893Y009450D01*
X006993Y009550D01*
X007293Y009350D02*
X007043Y009100D01*
X007043Y008600D01*
X006893Y008450D01*
X006893Y008382D01*
X006704Y008194D01*
X006844Y008055D02*
X007189Y008400D01*
X007193Y008400D01*
X007217Y008150D02*
X006983Y007916D01*
X007122Y007779D02*
X007122Y007776D01*
X007296Y007950D01*
X008043Y007950D01*
X008243Y007750D01*
X008243Y007315D01*
X008077Y007150D01*
X008077Y006615D01*
X008093Y006600D01*
X008243Y006150D02*
X008743Y006650D01*
X008243Y006150D02*
X007774Y006150D01*
X007261Y006663D01*
X007122Y006524D02*
X007996Y005650D01*
X008743Y005650D01*
X008243Y004850D02*
X008239Y004850D01*
X006844Y006245D01*
X006704Y006106D02*
X008043Y004768D01*
X008043Y004350D01*
X008243Y004150D01*
X008243Y003450D01*
X008743Y002950D01*
X008743Y002650D01*
X008243Y002450D02*
X008743Y001950D01*
X008743Y001650D01*
X008243Y001950D02*
X008243Y001150D01*
X008743Y000650D01*
X007993Y001700D02*
X007893Y001800D01*
X007893Y002950D01*
X007693Y003150D01*
X007693Y003900D01*
X007493Y004100D01*
X007493Y004550D01*
X007393Y004650D01*
X007093Y004650D01*
X006693Y004250D01*
X006693Y004190D01*
X007193Y004190D02*
X007243Y004140D01*
X007243Y002950D01*
X007093Y002800D01*
X006943Y003200D02*
X006643Y003200D01*
X006193Y003650D01*
X006193Y004190D01*
X005693Y004400D02*
X006193Y004900D01*
X006193Y005226D01*
X006008Y005410D01*
X006148Y005549D02*
X005993Y005704D01*
X005993Y005850D01*
X006043Y005900D01*
X006043Y006100D01*
X005893Y006250D01*
X005443Y006250D01*
X005043Y005850D01*
X004961Y005132D02*
X004756Y005132D01*
X004593Y004969D01*
X004593Y004550D01*
X004296Y004382D02*
X004296Y003828D01*
X004296Y004382D02*
X004177Y004500D01*
X004243Y004565D01*
X004243Y005200D01*
X004043Y005400D01*
X004043Y005532D01*
X004199Y005688D01*
X004060Y005828D02*
X003843Y005611D01*
X003843Y005400D01*
X004093Y005150D01*
X004093Y004850D01*
X004043Y004800D01*
X003893Y004800D01*
X003843Y004750D01*
X003843Y002974D01*
X003390Y002522D01*
X003390Y002372D01*
X003390Y001818D01*
X003508Y001700D01*
X003043Y001950D02*
X003043Y005924D01*
X003503Y006384D01*
X003642Y006245D02*
X003393Y005996D01*
X003393Y005685D01*
X003781Y006106D02*
X004425Y006750D01*
X004643Y006750D01*
X004443Y007000D02*
X004843Y007000D01*
X005093Y006750D01*
X005643Y006750D01*
X006393Y007500D01*
X006443Y007500D01*
X006193Y007500D02*
X005743Y007050D01*
X005293Y007050D01*
X005243Y007100D01*
X004943Y007400D02*
X004993Y007450D01*
X004993Y007770D01*
X004553Y008210D01*
X004553Y008520D01*
X004643Y008610D01*
X004643Y008724D01*
X004477Y008890D01*
X004338Y008751D02*
X004089Y009000D01*
X003243Y009000D01*
X003093Y009150D01*
X002543Y009150D01*
X002343Y009350D01*
X002343Y009400D01*
X002493Y008900D02*
X001743Y009650D01*
X001743Y008650D02*
X002493Y008650D01*
X002493Y008900D02*
X002743Y008900D01*
X002943Y008750D02*
X001843Y007650D01*
X001743Y007650D01*
X001793Y007650D01*
X002243Y007850D02*
X002243Y007400D01*
X001743Y006900D01*
X001743Y006650D01*
X002343Y006500D02*
X001743Y005900D01*
X001743Y005650D01*
X002243Y005150D02*
X001743Y004650D01*
X002243Y005150D02*
X002243Y006150D01*
X002543Y006450D01*
X002543Y006700D01*
X002743Y006900D01*
X002743Y007850D01*
X003143Y008250D01*
X003447Y008250D01*
X003642Y008055D01*
X003638Y008055D01*
X003503Y007916D02*
X003368Y008050D01*
X003193Y008050D01*
X002943Y007800D01*
X002943Y006850D01*
X002743Y006650D01*
X002743Y006400D01*
X002443Y006100D01*
X002443Y004350D01*
X001743Y003650D01*
X001743Y002650D02*
X002443Y002650D01*
X002643Y002850D01*
X002643Y006050D01*
X002943Y006350D01*
X002943Y006650D01*
X003293Y007000D01*
X003643Y007000D01*
X003843Y007200D01*
X003843Y007400D01*
X003693Y007550D01*
X003590Y007550D01*
X003364Y007776D01*
X003224Y007637D02*
X003562Y007300D01*
X003362Y006800D02*
X004043Y006800D01*
X004443Y007200D01*
X004443Y007350D01*
X004543Y007450D01*
X004443Y007000D02*
X003993Y006550D01*
X003947Y006550D01*
X003642Y006245D01*
X003920Y005967D02*
X004354Y006400D01*
X005643Y006400D01*
X006493Y007250D01*
X006693Y007250D01*
X006793Y007350D01*
X007093Y007150D02*
X006993Y007050D01*
X007093Y007150D02*
X007408Y007150D01*
X007408Y007490D01*
X007261Y007637D01*
X007217Y008150D02*
X008243Y008150D01*
X008743Y007650D01*
X007893Y009500D02*
X008043Y009650D01*
X008743Y009650D01*
X007493Y009750D02*
X007144Y010099D01*
X006743Y010099D01*
X006493Y009500D02*
X006293Y009500D01*
X005893Y009900D01*
X004643Y009900D01*
X004543Y009800D01*
X004543Y009600D01*
X004443Y009500D01*
X003593Y009500D01*
X003393Y009300D01*
X003843Y009250D02*
X003943Y009350D01*
X004574Y009350D01*
X004756Y009168D01*
X004616Y009029D02*
X004796Y008850D01*
X004993Y008850D01*
X005043Y008900D01*
X005043Y009250D01*
X005043Y009465D01*
X004908Y009600D01*
X005393Y009200D02*
X005577Y009385D01*
X005577Y009600D01*
X005862Y009300D02*
X005730Y009168D01*
X005724Y009168D01*
X005862Y009300D02*
X006193Y009300D01*
X006293Y009200D01*
X006543Y009450D02*
X006543Y008868D01*
X006287Y008612D01*
X006148Y008751D02*
X005943Y008546D01*
X005943Y008300D01*
X006193Y008050D01*
X006193Y007500D01*
X005743Y007500D02*
X005683Y007560D01*
X005683Y008564D01*
X006008Y008890D01*
X005869Y009029D02*
X005393Y008553D01*
X005260Y008420D01*
X004813Y008420D01*
X005393Y008553D02*
X005393Y007500D01*
X005743Y005950D02*
X005743Y005650D01*
X005693Y005600D01*
X005693Y005450D01*
X005893Y005250D01*
X005890Y005250D01*
X005869Y005271D01*
X005730Y005132D02*
X005548Y004950D01*
X005243Y004950D01*
X005243Y004985D01*
X005243Y004850D01*
X004961Y005132D01*
X004774Y005150D02*
X004756Y005132D01*
X005243Y004985D02*
X005243Y004900D01*
X005243Y004315D02*
X005243Y004030D01*
X005103Y003890D01*
X005043Y003485D02*
X005377Y003485D01*
X005693Y003800D01*
X005693Y004190D01*
X005693Y004400D01*
X006843Y005132D02*
X006287Y005688D01*
X006426Y005828D02*
X007643Y004611D01*
X007643Y004150D01*
X007843Y003950D01*
X007843Y003250D01*
X008043Y003050D01*
X008043Y002150D01*
X008243Y001950D01*
X008243Y002450D02*
X008243Y003150D01*
X008043Y003350D01*
X008043Y004050D01*
X007843Y004250D01*
X007843Y004689D01*
X006565Y005967D01*
X006983Y006384D02*
X008717Y004650D01*
X008743Y004650D01*
X008243Y004450D02*
X008743Y003950D01*
X008743Y003650D01*
X008243Y004450D02*
X008243Y004850D01*
X006843Y004950D02*
X006843Y005132D01*
X005493Y002900D02*
X005493Y002700D01*
X006243Y001950D01*
X006643Y001950D01*
X006693Y001900D01*
X006693Y001310D01*
X006843Y001950D02*
X006143Y002650D01*
X006143Y002750D01*
X005443Y002250D02*
X005393Y002300D01*
X005077Y002300D01*
X005043Y002335D01*
X005043Y002815D01*
X004877Y002815D01*
X004593Y003100D01*
X004643Y001800D02*
X004277Y001800D01*
X004177Y001700D01*
X004643Y001800D02*
X005043Y001800D01*
X005043Y001665D01*
X005443Y001560D02*
X005443Y002250D01*
X005443Y001560D02*
X005693Y001310D01*
X006193Y001310D01*
X006843Y001950D02*
X007193Y001950D01*
X007193Y001310D01*
X003758Y005015D02*
X003393Y005015D01*
X003393Y004615D01*
X003508Y004500D01*
X003758Y005015D02*
X003793Y005050D01*
X002843Y006003D02*
X003364Y006524D01*
X003224Y006663D02*
X003362Y006800D01*
X002843Y006003D02*
X002843Y002750D01*
X001743Y001650D01*
X001743Y000650D02*
X003043Y001950D01*
X002343Y006500D02*
X002343Y006750D01*
X002543Y006950D01*
X002543Y007900D01*
X003093Y008450D01*
X003525Y008450D01*
X003781Y008194D01*
X003920Y008333D02*
X003654Y008600D01*
X002993Y008600D01*
X002243Y007850D01*
X002943Y008750D02*
X003782Y008750D01*
X004060Y008472D01*
X003177Y010485D02*
X002943Y010485D01*
X003177Y010485D02*
X003293Y010600D01*
X003293Y011885D01*
X003558Y012150D01*
X003552Y012144D01*
X003012Y012144D01*
X003012Y012400D01*
X003012Y012656D02*
X003552Y012656D01*
X003558Y012650D01*
X003893Y013000D02*
X004643Y013000D01*
X004790Y012853D01*
X004790Y012700D01*
X004593Y012400D02*
X004443Y012550D01*
X004327Y012550D01*
X004227Y012650D01*
X004593Y012400D02*
X005193Y012400D01*
X005243Y012350D01*
X005243Y012100D01*
X004793Y011900D02*
X004792Y011900D01*
X004443Y011750D02*
X004443Y011400D01*
X004493Y011350D01*
X004344Y011201D01*
X003743Y011201D01*
X004393Y011800D02*
X004443Y011750D01*
X004493Y011350D02*
X004669Y011174D01*
X004669Y011024D01*
X004731Y011024D01*
X004757Y011050D01*
X005893Y011901D02*
X005894Y011900D01*
X005893Y011901D02*
X005893Y012500D01*
X005696Y012697D01*
X005696Y012700D01*
X006493Y009500D02*
X006543Y009450D01*
X002378Y012144D02*
X002243Y012009D01*
X002378Y012400D02*
X001843Y012400D01*
X001737Y012656D02*
X001643Y012750D01*
X001737Y012656D02*
X002378Y012656D01*
D24*
X004343Y010650D02*
X003792Y010099D01*
X003743Y010099D01*
X004343Y010650D02*
X004293Y010700D01*
X004293Y010900D01*
X004343Y010650D02*
X004731Y010650D01*
X005755Y010276D02*
X005819Y010276D01*
X006243Y010700D01*
X006743Y011200D01*
X006743Y011201D01*
X006243Y011100D02*
X006243Y010700D01*
D25*
X006243Y011100D03*
X006343Y011900D03*
X006943Y011950D03*
X007443Y012750D03*
X007493Y009750D03*
X007293Y009350D03*
X006993Y009550D03*
X006293Y009200D03*
X007193Y008400D03*
X007843Y008400D03*
X007893Y009500D03*
X006793Y007350D03*
X006993Y007050D03*
X006443Y007500D03*
X005743Y007500D03*
X005393Y007500D03*
X005243Y007100D03*
X004943Y007400D03*
X004543Y007450D03*
X004643Y006750D03*
X004593Y005950D03*
X005043Y005850D03*
X005743Y005950D03*
X006843Y004950D03*
X006943Y003200D03*
X007093Y002800D03*
X007593Y001650D03*
X007993Y001700D03*
X006193Y003100D03*
X006143Y002750D03*
X005493Y002900D03*
X005103Y003890D03*
X004593Y004550D03*
X003793Y005050D03*
X004593Y003100D03*
X004643Y001800D03*
X002443Y001850D03*
X003562Y007300D03*
X002493Y008650D03*
X002743Y008900D03*
X002743Y009400D03*
X002343Y009400D03*
X003393Y009300D03*
X003843Y009250D03*
X004813Y008420D03*
X005043Y009250D03*
X005393Y009200D03*
X004293Y010900D03*
X005243Y012100D03*
X001843Y012400D03*
X001643Y012750D03*
X008093Y006600D03*
D26*
X005019Y010276D02*
X005193Y010450D01*
X005193Y010850D01*
X005019Y011024D01*
X004731Y011024D01*
X004731Y010276D02*
X005019Y010276D01*
D27*
X007443Y010865D02*
X007843Y010465D01*
X007843Y009550D01*
X007893Y009500D01*
X007443Y010865D02*
X007443Y011950D01*
X007994Y012501D01*
X007994Y012550D01*
X008743Y011650D02*
X008227Y011135D01*
X007843Y011135D01*
M02*
