G75*
G70*
%OFA0B0*%
%FSLAX24Y24*%
%IPPOS*%
%LPD*%
%AMOC8*
5,1,8,0,0,1.08239X$1,22.5*
%
%ADD10R,0.0433X0.0394*%
%ADD11R,0.0315X0.0315*%
%ADD12R,0.0394X0.0433*%
%ADD13R,0.0138X0.0551*%
%ADD14R,0.0709X0.0748*%
%ADD15R,0.0748X0.0748*%
%ADD16R,0.0472X0.0472*%
%ADD17R,0.0472X0.0276*%
%ADD18R,0.0276X0.0472*%
%ADD19R,0.0945X0.0748*%
%ADD20R,0.0400X0.1000*%
%ADD21R,0.0394X0.0394*%
D10*
X003258Y008640D03*
X003927Y008640D03*
X003743Y009805D03*
X003743Y010475D03*
X003243Y010475D03*
X003243Y009805D03*
X002743Y009805D03*
X002743Y010475D03*
X006908Y011040D03*
X007577Y011040D03*
X007543Y011555D03*
X007543Y012225D03*
X007077Y001640D03*
X006408Y001640D03*
D11*
X003743Y010895D03*
X003743Y011485D03*
X003243Y011485D03*
X003243Y010895D03*
X002743Y010895D03*
X002743Y011485D03*
D12*
X002977Y012290D03*
X002977Y012790D03*
X002308Y012790D03*
X002308Y012290D03*
X005658Y010540D03*
X005658Y009690D03*
X006327Y009690D03*
X006327Y010540D03*
X006327Y008740D03*
X005658Y008740D03*
X003777Y001640D03*
X003108Y001640D03*
X006443Y001125D03*
X006443Y000455D03*
D13*
X005755Y011597D03*
X005499Y011597D03*
X005243Y011597D03*
X004987Y011597D03*
X004731Y011597D03*
D14*
X003668Y012640D03*
X006818Y012640D03*
D15*
X005743Y012640D03*
X004743Y012640D03*
D16*
X002940Y007983D03*
X002940Y002274D03*
X007546Y002274D03*
X007546Y007983D03*
D17*
X007546Y007254D03*
X007546Y006782D03*
X007546Y006309D03*
X007546Y005837D03*
X007546Y005364D03*
X007546Y004892D03*
X007546Y004420D03*
X007546Y003947D03*
X007546Y003475D03*
X007546Y003002D03*
X002940Y003002D03*
X002940Y003475D03*
X002940Y003947D03*
X002940Y004420D03*
X002940Y004892D03*
X002940Y005364D03*
X002940Y005837D03*
X002940Y006309D03*
X002940Y006782D03*
X002940Y007254D03*
D18*
X003589Y007983D03*
X004062Y007983D03*
X004534Y007983D03*
X005007Y007983D03*
X005479Y007983D03*
X005951Y007983D03*
X006424Y007983D03*
X006896Y007983D03*
X006896Y002274D03*
X006424Y002274D03*
X005951Y002274D03*
X005479Y002274D03*
X005007Y002274D03*
X004534Y002274D03*
X004062Y002274D03*
X003589Y002274D03*
D19*
X004396Y003711D03*
X004396Y005128D03*
X004396Y006546D03*
X006089Y006546D03*
X006089Y005128D03*
X006089Y003711D03*
D20*
X002943Y000740D03*
X005543Y000740D03*
D21*
X005058Y008813D03*
X004428Y008813D03*
X004428Y010467D03*
X005058Y010467D03*
X006928Y010467D03*
X007558Y010467D03*
X007558Y008813D03*
X006928Y008813D03*
M02*
