G75*
G70*
%OFA0B0*%
%FSLAX24Y24*%
%IPPOS*%
%LPD*%
%AMOC8*
5,1,8,0,0,1.08239X$1,22.5*
%
%ADD10R,0.0433X0.0748*%
%ADD11R,0.0394X0.0433*%
%ADD12R,0.0079X0.0394*%
%ADD13R,0.0394X0.0079*%
%ADD14R,0.0433X0.0394*%
%ADD15R,0.0220X0.0590*%
%ADD16R,0.0118X0.0390*%
%ADD17R,0.0748X0.0433*%
%ADD18R,0.0500X0.0750*%
%ADD19R,0.1500X0.0750*%
%ADD20R,0.0236X0.0315*%
%ADD21R,0.0197X0.0315*%
%ADD22R,0.0551X0.0630*%
D10*
X005487Y003762D03*
X006393Y003762D03*
X006393Y005218D03*
X005487Y005218D03*
D11*
X006190Y006005D03*
X006190Y006675D03*
X006005Y010340D03*
X006005Y010990D03*
X006675Y010990D03*
X006675Y010340D03*
X006575Y013690D03*
X007205Y013690D03*
X007875Y013690D03*
X005905Y013690D03*
X001640Y008475D03*
X001640Y007805D03*
X003790Y002975D03*
X003790Y002305D03*
X004440Y002305D03*
X004440Y002975D03*
X005090Y002975D03*
X005090Y002305D03*
X005740Y002305D03*
X005740Y002975D03*
X006390Y002975D03*
X006390Y002305D03*
D12*
G36*
X004843Y006011D02*
X004788Y005956D01*
X004511Y006233D01*
X004566Y006288D01*
X004843Y006011D01*
G37*
G36*
X004982Y006150D02*
X004927Y006095D01*
X004650Y006372D01*
X004705Y006427D01*
X004982Y006150D01*
G37*
G36*
X005122Y006289D02*
X005067Y006234D01*
X004790Y006511D01*
X004845Y006566D01*
X005122Y006289D01*
G37*
G36*
X005261Y006428D02*
X005206Y006373D01*
X004929Y006650D01*
X004984Y006705D01*
X005261Y006428D01*
G37*
G36*
X005400Y006567D02*
X005345Y006512D01*
X005068Y006789D01*
X005123Y006844D01*
X005400Y006567D01*
G37*
G36*
X005539Y006707D02*
X005484Y006652D01*
X005207Y006929D01*
X005262Y006984D01*
X005539Y006707D01*
G37*
G36*
X005678Y006846D02*
X005623Y006791D01*
X005346Y007068D01*
X005401Y007123D01*
X005678Y006846D01*
G37*
G36*
X005818Y006985D02*
X005763Y006930D01*
X005486Y007207D01*
X005541Y007262D01*
X005818Y006985D01*
G37*
G36*
X005957Y007124D02*
X005902Y007069D01*
X005625Y007346D01*
X005680Y007401D01*
X005957Y007124D01*
G37*
G36*
X006096Y007263D02*
X006041Y007208D01*
X005764Y007485D01*
X005819Y007540D01*
X006096Y007263D01*
G37*
G36*
X006235Y007403D02*
X006180Y007348D01*
X005903Y007625D01*
X005958Y007680D01*
X006235Y007403D01*
G37*
G36*
X006374Y007542D02*
X006319Y007487D01*
X006042Y007764D01*
X006097Y007819D01*
X006374Y007542D01*
G37*
G36*
X003869Y010047D02*
X003814Y009992D01*
X003537Y010269D01*
X003592Y010324D01*
X003869Y010047D01*
G37*
G36*
X003730Y009908D02*
X003675Y009853D01*
X003398Y010130D01*
X003453Y010185D01*
X003730Y009908D01*
G37*
G36*
X003590Y009769D02*
X003535Y009714D01*
X003258Y009991D01*
X003313Y010046D01*
X003590Y009769D01*
G37*
G36*
X003451Y009630D02*
X003396Y009575D01*
X003119Y009852D01*
X003174Y009907D01*
X003451Y009630D01*
G37*
G36*
X003312Y009491D02*
X003257Y009436D01*
X002980Y009713D01*
X003035Y009768D01*
X003312Y009491D01*
G37*
G36*
X003173Y009351D02*
X003118Y009296D01*
X002841Y009573D01*
X002896Y009628D01*
X003173Y009351D01*
G37*
G36*
X003034Y009212D02*
X002979Y009157D01*
X002702Y009434D01*
X002757Y009489D01*
X003034Y009212D01*
G37*
G36*
X002894Y009073D02*
X002839Y009018D01*
X002562Y009295D01*
X002617Y009350D01*
X002894Y009073D01*
G37*
G36*
X002755Y008934D02*
X002700Y008879D01*
X002423Y009156D01*
X002478Y009211D01*
X002755Y008934D01*
G37*
G36*
X002616Y008795D02*
X002561Y008740D01*
X002284Y009017D01*
X002339Y009072D01*
X002616Y008795D01*
G37*
G36*
X002477Y008655D02*
X002422Y008600D01*
X002145Y008877D01*
X002200Y008932D01*
X002477Y008655D01*
G37*
G36*
X002338Y008516D02*
X002283Y008461D01*
X002006Y008738D01*
X002061Y008793D01*
X002338Y008516D01*
G37*
D13*
G36*
X002338Y007764D02*
X002061Y007487D01*
X002006Y007542D01*
X002283Y007819D01*
X002338Y007764D01*
G37*
G36*
X002477Y007625D02*
X002200Y007348D01*
X002145Y007403D01*
X002422Y007680D01*
X002477Y007625D01*
G37*
G36*
X002616Y007485D02*
X002339Y007208D01*
X002284Y007263D01*
X002561Y007540D01*
X002616Y007485D01*
G37*
G36*
X002755Y007346D02*
X002478Y007069D01*
X002423Y007124D01*
X002700Y007401D01*
X002755Y007346D01*
G37*
G36*
X002894Y007207D02*
X002617Y006930D01*
X002562Y006985D01*
X002839Y007262D01*
X002894Y007207D01*
G37*
G36*
X003034Y007068D02*
X002757Y006791D01*
X002702Y006846D01*
X002979Y007123D01*
X003034Y007068D01*
G37*
G36*
X003173Y006929D02*
X002896Y006652D01*
X002841Y006707D01*
X003118Y006984D01*
X003173Y006929D01*
G37*
G36*
X003312Y006789D02*
X003035Y006512D01*
X002980Y006567D01*
X003257Y006844D01*
X003312Y006789D01*
G37*
G36*
X003451Y006650D02*
X003174Y006373D01*
X003119Y006428D01*
X003396Y006705D01*
X003451Y006650D01*
G37*
G36*
X003590Y006511D02*
X003313Y006234D01*
X003258Y006289D01*
X003535Y006566D01*
X003590Y006511D01*
G37*
G36*
X003730Y006372D02*
X003453Y006095D01*
X003398Y006150D01*
X003675Y006427D01*
X003730Y006372D01*
G37*
G36*
X003869Y006233D02*
X003592Y005956D01*
X003537Y006011D01*
X003814Y006288D01*
X003869Y006233D01*
G37*
G36*
X005957Y009156D02*
X005680Y008879D01*
X005625Y008934D01*
X005902Y009211D01*
X005957Y009156D01*
G37*
G36*
X006096Y009017D02*
X005819Y008740D01*
X005764Y008795D01*
X006041Y009072D01*
X006096Y009017D01*
G37*
G36*
X006235Y008877D02*
X005958Y008600D01*
X005903Y008655D01*
X006180Y008932D01*
X006235Y008877D01*
G37*
G36*
X006374Y008738D02*
X006097Y008461D01*
X006042Y008516D01*
X006319Y008793D01*
X006374Y008738D01*
G37*
G36*
X005818Y009295D02*
X005541Y009018D01*
X005486Y009073D01*
X005763Y009350D01*
X005818Y009295D01*
G37*
G36*
X005678Y009434D02*
X005401Y009157D01*
X005346Y009212D01*
X005623Y009489D01*
X005678Y009434D01*
G37*
G36*
X005539Y009573D02*
X005262Y009296D01*
X005207Y009351D01*
X005484Y009628D01*
X005539Y009573D01*
G37*
G36*
X005400Y009713D02*
X005123Y009436D01*
X005068Y009491D01*
X005345Y009768D01*
X005400Y009713D01*
G37*
G36*
X005261Y009852D02*
X004984Y009575D01*
X004929Y009630D01*
X005206Y009907D01*
X005261Y009852D01*
G37*
G36*
X005122Y009991D02*
X004845Y009714D01*
X004790Y009769D01*
X005067Y010046D01*
X005122Y009991D01*
G37*
G36*
X004982Y010130D02*
X004705Y009853D01*
X004650Y009908D01*
X004927Y010185D01*
X004982Y010130D01*
G37*
G36*
X004843Y010269D02*
X004566Y009992D01*
X004511Y010047D01*
X004788Y010324D01*
X004843Y010269D01*
G37*
D14*
X004525Y010610D03*
X003855Y010610D03*
X002375Y011690D03*
X001705Y011690D03*
X001605Y012840D03*
X002275Y012840D03*
X006005Y011690D03*
X006675Y011690D03*
X004525Y005590D03*
X003855Y005590D03*
X003790Y004475D03*
X003790Y003805D03*
D15*
X001640Y002550D03*
X002140Y002550D03*
X002640Y002550D03*
X003140Y002550D03*
X003140Y005430D03*
X002640Y005430D03*
X002140Y005430D03*
X001640Y005430D03*
D16*
X006084Y012375D03*
X006340Y012375D03*
X006596Y012375D03*
X006596Y013009D03*
X006340Y013009D03*
X006084Y013009D03*
D17*
X004640Y004832D03*
X004640Y003848D03*
D18*
X004190Y011320D03*
X005100Y011320D03*
X003280Y011320D03*
D19*
X004190Y013760D03*
D20*
X002592Y010785D03*
X002592Y010195D03*
X001588Y010195D03*
X001588Y010785D03*
D21*
X001933Y010785D03*
X002247Y010785D03*
X002247Y010195D03*
X001933Y010195D03*
D22*
X002291Y013640D03*
X001189Y013640D03*
M02*
