%
M48
M72
T01C0.0118
T02C0.0315
T03C0.0400
%
T01
X2443Y1840
X4593Y3090
X5103Y3880
X4593Y4540
X3793Y5040
X4643Y6740
X4893Y7290
X5243Y7490
X5493Y7140
X5743Y7490
X6443Y7490
X6793Y7340
X6993Y7040
X7193Y8390
X7293Y9340
X6993Y9540
X7493Y9740
X7893Y9490
X7843Y8390
X8093Y6590
X6843Y4940
X5743Y5940
X5043Y5840
X4543Y7440
X4813Y8410
X5043Y9240
X5393Y9190
X6293Y9190
X6243Y11090
X6943Y11940
X7443Y12740
X5343Y12040
X4293Y10890
X4093Y11690
X2743Y9390
X2743Y8890
X2493Y8640
X2343Y9390
X3393Y9290
X3843Y9240
X3562Y7290
X6193Y3090
X6143Y2740
X5493Y2890
X4643Y1790
X6943Y3190
X7093Y2790
X7593Y1640
X7993Y1690
X1493Y12240
X1643Y12740
X1843Y12390
T02
X4475Y11774
X6011Y11774
T03
X1743Y640
X1743Y1640
X1743Y2640
X1743Y3640
X1743Y4640
X1743Y5640
X1743Y6640
X1743Y7640
X1743Y8640
X1743Y9640
X1743Y10640
X1743Y11640
X8743Y11640
X8743Y10640
X8743Y9640
X8743Y8640
X8743Y7640
X8743Y6640
X8743Y5640
X8743Y4640
X8743Y3640
X8743Y2640
X8743Y1640
X8743Y640
M30
