%
M48
M72
T01C0.0118
T02C0.0315
T03C0.0400
%
T01
X2643Y1833
X2643Y2943
X3843Y1833
X4793Y1833
X5743Y1833
X6073Y3953
X6453Y4033
X6823Y4083
X7063Y4603
X6793Y5103
X5943Y5503
X6783Y6273
X5743Y7133
X5313Y7873
X5563Y8413
X5233Y8603
X4623Y8713
X4583Y8343
X4643Y7933
X4133Y8363
X3602Y8443
X2493Y8253
X2553Y10093
X2343Y10393
X2383Y10813
X3903Y10913
X3841Y10331
X4423Y10923
X3893Y12713
X4643Y14033
X4943Y14033
X5243Y14033
X5543Y14033
X5843Y14033
X6393Y13183
X6693Y12683
X7093Y11383
X7453Y11383
X8203Y11473
X8293Y12333
X8253Y13263
X6493Y10883
X6073Y10713
X6443Y10323
X7703Y10023
X7973Y9563
X8243Y8333
X7043Y8333
X6633Y8323
X6643Y8713
X6083Y8563
X4853Y7093
X8073Y4193
X2343Y12783
X2393Y13333
X2793Y13833
X1943Y13433
T02
X4475Y12967
X6011Y12967
T03
X1743Y1833
X1743Y2833
X1743Y3833
X1743Y4833
X1743Y5833
X1743Y6833
X1743Y7833
X1743Y8833
X1743Y9833
X1743Y10833
X1743Y11833
X1743Y12833
X8743Y12833
X8743Y11833
X8743Y10833
X8743Y9833
X8743Y8833
X8743Y7833
X8743Y6833
X8743Y5833
X8743Y4833
X8743Y3833
X8743Y2833
X8743Y1833
M30
