G75*
G70*
%OFA0B0*%
%FSLAX24Y24*%
%IPPOS*%
%LPD*%
%AMOC8*
5,1,8,0,0,1.08239X$1,22.5*
%
%ADD10C,0.0050*%
%ADD11C,0.0040*%
%ADD12C,0.0080*%
%ADD13C,0.0020*%
D10*
X002248Y001584D02*
X002338Y001674D01*
X002518Y001674D01*
X002473Y001788D02*
X002293Y001968D01*
X002473Y001968D01*
X002518Y001923D01*
X002518Y001833D01*
X002473Y001788D01*
X002293Y001788D01*
X002248Y001833D01*
X002248Y001923D01*
X002293Y001968D01*
X002383Y001674D02*
X002383Y001494D01*
X002338Y001494D02*
X002248Y001584D01*
X002338Y001494D02*
X002518Y001494D01*
X002518Y002494D02*
X002338Y002494D01*
X002248Y002584D01*
X002338Y002674D01*
X002518Y002674D01*
X002518Y002788D02*
X002518Y002968D01*
X002518Y002878D02*
X002248Y002878D01*
X002338Y002788D01*
X002383Y002674D02*
X002383Y002494D01*
X002383Y003494D02*
X002383Y003674D01*
X002338Y003674D02*
X002518Y003674D01*
X002518Y003788D02*
X002338Y003968D01*
X002293Y003968D01*
X002248Y003923D01*
X002248Y003833D01*
X002293Y003788D01*
X002338Y003674D02*
X002248Y003584D01*
X002338Y003494D01*
X002518Y003494D01*
X002518Y003788D02*
X002518Y003968D01*
X002518Y004494D02*
X002338Y004494D01*
X002248Y004584D01*
X002338Y004674D01*
X002518Y004674D01*
X002473Y004788D02*
X002518Y004833D01*
X002518Y004923D01*
X002473Y004968D01*
X002428Y004968D01*
X002383Y004923D01*
X002383Y004878D01*
X002383Y004923D02*
X002338Y004968D01*
X002293Y004968D01*
X002248Y004923D01*
X002248Y004833D01*
X002293Y004788D01*
X002383Y004674D02*
X002383Y004494D01*
X002383Y005494D02*
X002383Y005674D01*
X002338Y005674D02*
X002518Y005674D01*
X002518Y005494D02*
X002338Y005494D01*
X002248Y005584D01*
X002338Y005674D01*
X002383Y005788D02*
X002383Y005968D01*
X002518Y005923D02*
X002248Y005923D01*
X002383Y005788D01*
X002383Y006494D02*
X002383Y006674D01*
X002338Y006674D02*
X002518Y006674D01*
X002473Y006788D02*
X002518Y006833D01*
X002518Y006923D01*
X002473Y006968D01*
X002383Y006968D01*
X002338Y006923D01*
X002338Y006878D01*
X002383Y006788D01*
X002248Y006788D01*
X002248Y006968D01*
X002338Y006674D02*
X002248Y006584D01*
X002338Y006494D01*
X002518Y006494D01*
X002518Y007494D02*
X002338Y007494D01*
X002248Y007584D01*
X002338Y007674D01*
X002518Y007674D01*
X002473Y007788D02*
X002518Y007833D01*
X002518Y007923D01*
X002473Y007968D01*
X002428Y007968D01*
X002383Y007923D01*
X002383Y007788D01*
X002473Y007788D01*
X002383Y007788D02*
X002293Y007878D01*
X002248Y007968D01*
X002383Y007674D02*
X002383Y007494D01*
X002383Y008494D02*
X002383Y008674D01*
X002338Y008674D02*
X002518Y008674D01*
X002518Y008788D02*
X002473Y008788D01*
X002293Y008968D01*
X002248Y008968D01*
X002248Y008788D01*
X002338Y008674D02*
X002248Y008584D01*
X002338Y008494D01*
X002518Y008494D01*
X002518Y009494D02*
X002248Y009494D01*
X002248Y009629D01*
X002293Y009674D01*
X002383Y009674D01*
X002428Y009629D01*
X002428Y009494D01*
X002428Y009584D02*
X002518Y009674D01*
X002518Y009788D02*
X002248Y009968D01*
X002248Y009788D02*
X002518Y009968D01*
X002248Y010394D02*
X002248Y010574D01*
X002248Y010484D02*
X002518Y010484D01*
X002518Y010688D02*
X002248Y010868D01*
X002248Y010688D02*
X002518Y010868D01*
X002473Y011294D02*
X002518Y011339D01*
X002518Y011429D01*
X002473Y011474D01*
X002383Y011474D01*
X002383Y011384D01*
X002293Y011294D02*
X002473Y011294D01*
X002293Y011294D02*
X002248Y011339D01*
X002248Y011429D01*
X002293Y011474D01*
X002248Y011588D02*
X002518Y011768D01*
X002248Y011768D01*
X002248Y011883D02*
X002248Y012018D01*
X002293Y012063D01*
X002473Y012063D01*
X002518Y012018D01*
X002518Y011883D01*
X002248Y011883D01*
X002248Y011588D02*
X002518Y011588D01*
X002518Y012294D02*
X002248Y012294D01*
X002248Y012429D01*
X002293Y012474D01*
X002383Y012474D01*
X002428Y012429D01*
X002428Y012294D01*
X002428Y012384D02*
X002518Y012474D01*
X002518Y012588D02*
X002338Y012588D01*
X002248Y012678D01*
X002338Y012768D01*
X002518Y012768D01*
X002518Y012883D02*
X002428Y012973D01*
X002518Y013063D01*
X002248Y013063D01*
X002248Y012883D02*
X002518Y012883D01*
X002383Y012768D02*
X002383Y012588D01*
X004152Y011259D02*
X004152Y010078D01*
X004368Y011794D02*
X004503Y011794D01*
X004548Y011839D01*
X004548Y011884D01*
X004503Y011929D01*
X004368Y011929D01*
X004368Y011794D02*
X004368Y012064D01*
X004503Y012064D01*
X004548Y012019D01*
X004548Y011974D01*
X004503Y011929D01*
X004662Y012064D02*
X004843Y012064D01*
X004753Y012064D02*
X004753Y011794D01*
X004957Y011794D02*
X004957Y012064D01*
X005137Y011794D01*
X005137Y012064D01*
X005333Y011259D02*
X005333Y010078D01*
X006652Y010078D02*
X006652Y011259D01*
X006898Y012394D02*
X006898Y012529D01*
X006943Y012574D01*
X007033Y012574D01*
X007078Y012529D01*
X007078Y012394D01*
X007078Y012484D02*
X007168Y012574D01*
X007123Y012688D02*
X007168Y012733D01*
X007168Y012823D01*
X007123Y012868D01*
X007078Y012868D01*
X007033Y012823D01*
X007033Y012733D01*
X006988Y012688D01*
X006943Y012688D01*
X006898Y012733D01*
X006898Y012823D01*
X006943Y012868D01*
X006898Y012983D02*
X006898Y013163D01*
X006898Y013073D02*
X007168Y013073D01*
X007168Y012394D02*
X006898Y012394D01*
X007833Y011259D02*
X007833Y010078D01*
X007968Y009999D02*
X007968Y009909D01*
X008013Y009863D01*
X008103Y009863D01*
X008103Y009954D01*
X008193Y010044D02*
X008013Y010044D01*
X007968Y009999D01*
X008193Y010044D02*
X008238Y009999D01*
X008238Y009909D01*
X008193Y009863D01*
X008238Y009749D02*
X007968Y009569D01*
X008238Y009569D01*
X008238Y009454D02*
X008238Y009319D01*
X008193Y009274D01*
X008013Y009274D01*
X007968Y009319D01*
X007968Y009454D01*
X008238Y009454D01*
X008238Y009749D02*
X007968Y009749D01*
X007968Y008944D02*
X007968Y008809D01*
X008013Y008763D01*
X008193Y008763D01*
X008238Y008809D01*
X008238Y008944D01*
X007968Y008944D01*
X007968Y008649D02*
X008013Y008649D01*
X008193Y008469D01*
X008238Y008469D01*
X008238Y008649D01*
X008238Y007944D02*
X007968Y007944D01*
X007968Y007809D01*
X008013Y007763D01*
X008193Y007763D01*
X008238Y007809D01*
X008238Y007944D01*
X008103Y007649D02*
X008013Y007649D01*
X007968Y007604D01*
X007968Y007514D01*
X008013Y007469D01*
X008058Y007469D01*
X008103Y007514D01*
X008103Y007649D01*
X008193Y007559D01*
X008238Y007469D01*
X008238Y006944D02*
X007968Y006944D01*
X007968Y006809D01*
X008013Y006763D01*
X008193Y006763D01*
X008238Y006809D01*
X008238Y006944D01*
X008238Y006649D02*
X008103Y006649D01*
X008148Y006559D01*
X008148Y006514D01*
X008103Y006469D01*
X008013Y006469D01*
X007968Y006514D01*
X007968Y006604D01*
X008013Y006649D01*
X008238Y006649D02*
X008238Y006469D01*
X008238Y005944D02*
X007968Y005944D01*
X007968Y005809D01*
X008013Y005763D01*
X008193Y005763D01*
X008238Y005809D01*
X008238Y005944D01*
X008103Y005649D02*
X008103Y005469D01*
X008238Y005514D02*
X008103Y005649D01*
X007968Y005514D02*
X008238Y005514D01*
X008238Y004944D02*
X007968Y004944D01*
X007968Y004809D01*
X008013Y004763D01*
X008193Y004763D01*
X008238Y004809D01*
X008238Y004944D01*
X008193Y004649D02*
X008238Y004604D01*
X008238Y004514D01*
X008193Y004469D01*
X008148Y004469D01*
X008103Y004514D01*
X008058Y004469D01*
X008013Y004469D01*
X007968Y004514D01*
X007968Y004604D01*
X008013Y004649D01*
X008103Y004559D02*
X008103Y004514D01*
X008238Y003944D02*
X007968Y003944D01*
X007968Y003809D01*
X008013Y003763D01*
X008193Y003763D01*
X008238Y003809D01*
X008238Y003944D01*
X008193Y003649D02*
X008238Y003604D01*
X008238Y003514D01*
X008193Y003469D01*
X008148Y003469D01*
X007968Y003649D01*
X007968Y003469D01*
X007968Y002844D02*
X007968Y002709D01*
X008013Y002663D01*
X008193Y002663D01*
X008238Y002709D01*
X008238Y002844D01*
X007968Y002844D01*
X007968Y002549D02*
X007968Y002369D01*
X007968Y002459D02*
X008238Y002459D01*
X008148Y002549D01*
X008238Y001944D02*
X007968Y001944D01*
X007968Y001809D01*
X008013Y001763D01*
X008193Y001763D01*
X008238Y001809D01*
X008238Y001944D01*
X008193Y001649D02*
X008013Y001649D01*
X008193Y001469D01*
X008013Y001469D01*
X007968Y001514D01*
X007968Y001604D01*
X008013Y001649D01*
X008193Y001649D02*
X008238Y001604D01*
X008238Y001514D01*
X008193Y001469D01*
X008238Y011274D02*
X008238Y011454D01*
X008238Y011364D02*
X007968Y011364D01*
X008013Y011569D02*
X007968Y011614D01*
X007968Y011704D01*
X008013Y011749D01*
X008103Y011704D02*
X008103Y011614D01*
X008058Y011569D01*
X008013Y011569D01*
X008103Y011704D02*
X008148Y011749D01*
X008193Y011749D01*
X008238Y011704D01*
X008238Y011614D01*
X008193Y011569D01*
X008193Y011863D02*
X008103Y011863D01*
X008058Y011909D01*
X008058Y012044D01*
X007968Y012044D02*
X008238Y012044D01*
X008238Y011909D01*
X008193Y011863D01*
X008058Y011954D02*
X007968Y011863D01*
X008013Y012274D02*
X007968Y012319D01*
X007968Y012409D01*
X008013Y012454D01*
X008193Y012454D01*
X008238Y012409D01*
X008238Y012319D01*
X008193Y012274D01*
X008193Y012569D02*
X008238Y012614D01*
X008238Y012704D01*
X008193Y012749D01*
X008013Y012749D01*
X007968Y012704D01*
X007968Y012614D01*
X008013Y012569D01*
X008058Y012863D02*
X008238Y012863D01*
X008058Y012863D02*
X007968Y012954D01*
X008058Y013044D01*
X008238Y013044D01*
D11*
X008163Y011049D02*
X008030Y011049D01*
X007963Y010982D01*
X008030Y010915D01*
X008163Y010915D01*
X008163Y010828D02*
X008163Y010728D01*
X008130Y010694D01*
X007996Y010694D01*
X007963Y010728D01*
X007963Y010828D01*
X008163Y010828D01*
X008163Y010607D02*
X008163Y010507D01*
X008130Y010473D01*
X007996Y010473D01*
X007963Y010507D01*
X007963Y010607D01*
X008163Y010607D01*
X008096Y010386D02*
X007963Y010386D01*
X008063Y010386D02*
X008063Y010252D01*
X008096Y010252D02*
X007963Y010252D01*
X008096Y010252D02*
X008163Y010319D01*
X008096Y010386D01*
X003823Y012489D02*
X003623Y012489D01*
X003623Y012589D01*
X003656Y012622D01*
X003723Y012622D01*
X003756Y012589D01*
X003756Y012489D01*
X003823Y012710D02*
X003623Y012710D01*
X003623Y012843D02*
X003823Y012843D01*
X003756Y012776D01*
X003823Y012710D01*
X003823Y012931D02*
X003623Y012931D01*
X003623Y013031D01*
X003656Y013064D01*
X003723Y013064D01*
X003756Y013031D01*
X003756Y012931D01*
X003756Y012997D02*
X003823Y013064D01*
X003373Y013031D02*
X003339Y013064D01*
X003206Y013064D01*
X003173Y013031D01*
X003173Y012931D01*
X003373Y012931D01*
X003373Y013031D01*
X003373Y013152D02*
X003373Y013285D01*
X003373Y013218D02*
X003173Y013218D01*
X003239Y013152D01*
X003173Y012843D02*
X003173Y012710D01*
X003373Y012710D01*
X003373Y012843D01*
X003273Y012776D02*
X003273Y012710D01*
X003373Y012622D02*
X003373Y012489D01*
X003173Y012489D01*
X002873Y012539D02*
X002873Y012672D01*
X002873Y012760D02*
X002873Y012893D01*
X002873Y012981D02*
X002873Y013081D01*
X002839Y013114D01*
X002706Y013114D01*
X002673Y013081D01*
X002673Y012981D01*
X002873Y012981D01*
X002773Y012826D02*
X002773Y012760D01*
X002673Y012760D02*
X002873Y012760D01*
X002673Y012760D02*
X002673Y012893D01*
X002706Y013202D02*
X002673Y013235D01*
X002673Y013302D01*
X002706Y013335D01*
X002739Y013335D01*
X002873Y013202D01*
X002873Y013335D01*
X002873Y012539D02*
X002673Y012539D01*
D12*
X002743Y012036D02*
X002562Y012036D01*
X002657Y011914D02*
X002733Y012029D01*
X002743Y012036D02*
X002835Y011914D01*
X002924Y012036D02*
X002743Y012036D01*
X003062Y012036D02*
X003243Y012036D01*
X003335Y011914D01*
X003424Y012036D02*
X003243Y012036D01*
X003233Y012029D02*
X003157Y011914D01*
X003562Y012036D02*
X003743Y012036D01*
X003835Y011914D01*
X003924Y012036D02*
X003743Y012036D01*
X003733Y012029D02*
X003657Y011914D01*
X003904Y012547D02*
X003904Y013177D01*
X003904Y012547D02*
X004377Y012547D01*
X004377Y013098D01*
X006109Y013098D01*
X006109Y012547D01*
X006581Y012547D01*
X006581Y013177D01*
X006581Y014239D02*
X003904Y014239D01*
X003293Y002219D02*
X005193Y002219D01*
X005193Y001319D02*
X003293Y001319D01*
X003543Y001619D02*
X003393Y001769D01*
X003543Y001919D01*
X003393Y001769D02*
X003743Y001769D01*
D13*
X002585Y002948D02*
X007900Y002948D01*
X007900Y009365D01*
X002585Y009365D01*
X002585Y002948D01*
M02*
