G75*
G70*
%OFA0B0*%
%FSLAX24Y24*%
%IPPOS*%
%LPD*%
%AMOC8*
5,1,8,0,0,1.08239X$1,22.5*
%
%ADD10C,0.0600*%
%ADD11C,0.0278*%
%ADD12C,0.0080*%
D10*
X001743Y001669D03*
X001743Y002669D03*
X001743Y003669D03*
X001743Y004669D03*
X001743Y005669D03*
X001743Y006669D03*
X001743Y007669D03*
X001743Y008669D03*
X001743Y009669D03*
X001743Y010669D03*
X001743Y011669D03*
X001743Y012669D03*
X008743Y012669D03*
X008743Y011669D03*
X008743Y010669D03*
X008743Y009669D03*
X008743Y008669D03*
X008743Y007669D03*
X008743Y006669D03*
X008743Y005669D03*
X008743Y004669D03*
X008743Y003669D03*
X008743Y002669D03*
X008743Y001669D03*
D11*
X007993Y002219D03*
X007993Y002719D03*
X007093Y003819D03*
X006943Y004219D03*
X006193Y004119D03*
X006143Y003769D03*
X005493Y003919D03*
X005103Y004909D03*
X004593Y005569D03*
X003793Y006069D03*
X004593Y006969D03*
X005043Y006869D03*
X004643Y007769D03*
X004543Y008469D03*
X004543Y009019D03*
X004793Y009439D03*
X005393Y010219D03*
X006293Y010219D03*
X006993Y010569D03*
X007293Y010369D03*
X007493Y010769D03*
X007893Y010519D03*
X007843Y009419D03*
X007193Y009419D03*
X006793Y008369D03*
X006993Y008069D03*
X006443Y008519D03*
X006243Y007469D03*
X005843Y006919D03*
X006343Y006119D03*
X006843Y005769D03*
X008093Y007619D03*
X005743Y008519D03*
X005393Y008519D03*
X005143Y008219D03*
X003743Y010169D03*
X003243Y010169D03*
X002743Y010169D03*
X002343Y010219D03*
X003562Y008319D03*
X004293Y011919D03*
X004143Y012569D03*
X005243Y013119D03*
X006343Y012919D03*
X006943Y012969D03*
X007443Y013769D03*
X002493Y012619D03*
X001843Y013419D03*
X001643Y013769D03*
X004593Y004119D03*
X004643Y002819D03*
X002443Y002869D03*
D12*
X002163Y002752D02*
X002099Y002907D01*
X001981Y003025D01*
X001826Y003089D01*
X001659Y003089D01*
X001505Y003025D01*
X001403Y002923D01*
X001403Y003415D01*
X001505Y003313D01*
X001659Y003249D01*
X001826Y003249D01*
X001981Y003313D01*
X002099Y003431D01*
X002163Y003585D01*
X002163Y003752D01*
X002099Y003907D01*
X001981Y004025D01*
X001826Y004089D01*
X001659Y004089D01*
X001505Y004025D01*
X001403Y003923D01*
X001403Y004415D01*
X001505Y004313D01*
X001659Y004249D01*
X001826Y004249D01*
X001981Y004313D01*
X002099Y004431D01*
X002163Y004585D01*
X002163Y004752D01*
X002099Y004907D01*
X001981Y005025D01*
X001826Y005089D01*
X001659Y005089D01*
X001505Y005025D01*
X001403Y004923D01*
X001403Y005415D01*
X001505Y005313D01*
X001659Y005249D01*
X001826Y005249D01*
X001981Y005313D01*
X002099Y005431D01*
X002163Y005585D01*
X002163Y005752D01*
X002099Y005907D01*
X001981Y006025D01*
X001826Y006089D01*
X001659Y006089D01*
X001505Y006025D01*
X001403Y005923D01*
X001403Y006415D01*
X001505Y006313D01*
X001659Y006249D01*
X001826Y006249D01*
X001981Y006313D01*
X002099Y006431D01*
X002163Y006585D01*
X002163Y006752D01*
X002099Y006907D01*
X001981Y007025D01*
X001826Y007089D01*
X001659Y007089D01*
X001505Y007025D01*
X001403Y006923D01*
X001403Y007415D01*
X001505Y007313D01*
X001659Y007249D01*
X001826Y007249D01*
X001981Y007313D01*
X002099Y007431D01*
X002163Y007585D01*
X002163Y007752D01*
X002099Y007907D01*
X001981Y008025D01*
X001826Y008089D01*
X001659Y008089D01*
X001505Y008025D01*
X001403Y007923D01*
X001403Y008415D01*
X001505Y008313D01*
X001659Y008249D01*
X001826Y008249D01*
X001981Y008313D01*
X002099Y008431D01*
X002163Y008585D01*
X002163Y008752D01*
X002099Y008907D01*
X001981Y009025D01*
X001826Y009089D01*
X001659Y009089D01*
X001505Y009025D01*
X001403Y008923D01*
X001403Y009415D01*
X001505Y009313D01*
X001659Y009249D01*
X001826Y009249D01*
X001981Y009313D01*
X002099Y009431D01*
X002163Y009585D01*
X002163Y009752D01*
X002099Y009907D01*
X001981Y010025D01*
X001826Y010089D01*
X001659Y010089D01*
X001505Y010025D01*
X001403Y009923D01*
X001403Y010415D01*
X001505Y010313D01*
X001659Y010249D01*
X001826Y010249D01*
X001981Y010313D01*
X002099Y010431D01*
X002163Y010585D01*
X002163Y010752D01*
X002099Y010907D01*
X001981Y011025D01*
X001826Y011089D01*
X001659Y011089D01*
X001505Y011025D01*
X001403Y010923D01*
X001403Y011388D01*
X001407Y011382D01*
X001456Y011333D01*
X001512Y011292D01*
X001574Y011261D01*
X001640Y011239D01*
X001703Y011229D01*
X001703Y011629D01*
X001783Y011629D01*
X001783Y011709D01*
X001703Y011709D01*
X001703Y012108D01*
X001640Y012098D01*
X001574Y012076D01*
X001512Y012045D01*
X001456Y012004D01*
X001407Y011955D01*
X001403Y011949D01*
X001403Y012415D01*
X001505Y012313D01*
X001659Y012249D01*
X001826Y012249D01*
X001981Y012313D01*
X002099Y012431D01*
X002163Y012585D01*
X002163Y012752D01*
X002099Y012907D01*
X001981Y013025D01*
X001826Y013089D01*
X001659Y013089D01*
X001505Y013025D01*
X001403Y012923D01*
X001403Y013671D01*
X001423Y013622D01*
X001496Y013549D01*
X001591Y013510D01*
X001600Y013510D01*
X001584Y013470D01*
X001584Y013367D01*
X001623Y013272D01*
X001696Y013199D01*
X001791Y013160D01*
X001894Y013160D01*
X001990Y013199D01*
X002062Y013272D01*
X002102Y013367D01*
X002102Y013470D01*
X002062Y013565D01*
X001990Y013638D01*
X001894Y013678D01*
X001886Y013678D01*
X001902Y013717D01*
X001902Y013820D01*
X001862Y013915D01*
X001790Y013988D01*
X001740Y014009D01*
X007345Y014009D01*
X007296Y013988D01*
X007223Y013915D01*
X007184Y013820D01*
X007184Y013717D01*
X007223Y013622D01*
X007296Y013549D01*
X007391Y013510D01*
X007494Y013510D01*
X007590Y013549D01*
X007662Y013622D01*
X007702Y013717D01*
X007702Y013820D01*
X007662Y013915D01*
X007590Y013988D01*
X007540Y014009D01*
X009083Y014009D01*
X009083Y012923D01*
X008981Y013025D01*
X008826Y013089D01*
X008659Y013089D01*
X008505Y013025D01*
X008387Y012907D01*
X008323Y012752D01*
X008323Y012585D01*
X008387Y012431D01*
X008505Y012313D01*
X008659Y012249D01*
X008826Y012249D01*
X008981Y012313D01*
X009083Y012415D01*
X009083Y011923D01*
X009082Y011923D01*
X009083Y011923D02*
X008981Y012025D01*
X008826Y012089D01*
X008659Y012089D01*
X008505Y012025D01*
X008387Y011907D01*
X008323Y011752D01*
X008323Y011585D01*
X008387Y011431D01*
X008505Y011313D01*
X008659Y011249D01*
X008826Y011249D01*
X008981Y011313D01*
X009083Y011415D01*
X009083Y010923D01*
X008981Y011025D01*
X008826Y011089D01*
X008659Y011089D01*
X008505Y011025D01*
X008387Y010907D01*
X008323Y010752D01*
X008323Y010585D01*
X008387Y010431D01*
X008505Y010313D01*
X008659Y010249D01*
X008826Y010249D01*
X008981Y010313D01*
X009083Y010415D01*
X009083Y009949D01*
X009078Y009955D01*
X009029Y010004D01*
X008973Y010045D01*
X008912Y010076D01*
X008846Y010098D01*
X008783Y010108D01*
X008783Y009709D01*
X008703Y009709D01*
X008703Y010108D01*
X008640Y010098D01*
X008574Y010076D01*
X008512Y010045D01*
X008456Y010004D01*
X008407Y009955D01*
X008366Y009899D01*
X008335Y009838D01*
X008314Y009772D01*
X008304Y009709D01*
X008703Y009709D01*
X008703Y009629D01*
X008304Y009629D01*
X008314Y009566D01*
X008335Y009500D01*
X008366Y009438D01*
X008407Y009382D01*
X008456Y009333D01*
X008512Y009292D01*
X008574Y009261D01*
X008640Y009239D01*
X008703Y009229D01*
X008703Y009629D01*
X008783Y009629D01*
X008783Y009229D01*
X008846Y009239D01*
X008912Y009261D01*
X008973Y009292D01*
X009029Y009333D01*
X009083Y009333D01*
X009078Y009382D02*
X009083Y009388D01*
X009083Y008923D01*
X008981Y009025D01*
X008826Y009089D01*
X008659Y009089D01*
X008505Y009025D01*
X008387Y008907D01*
X008323Y008752D01*
X008323Y008585D01*
X008387Y008431D01*
X008505Y008313D01*
X008659Y008249D01*
X008826Y008249D01*
X008981Y008313D01*
X009083Y008415D01*
X009083Y007923D01*
X008981Y008025D01*
X008826Y008089D01*
X008659Y008089D01*
X008505Y008025D01*
X008387Y007907D01*
X008323Y007752D01*
X008323Y007585D01*
X008387Y007431D01*
X008505Y007313D01*
X008659Y007249D01*
X008826Y007249D01*
X008981Y007313D01*
X009083Y007415D01*
X009083Y006923D01*
X008981Y007025D01*
X008826Y007089D01*
X008659Y007089D01*
X008505Y007025D01*
X008387Y006907D01*
X008323Y006752D01*
X008323Y006585D01*
X008387Y006431D01*
X008505Y006313D01*
X008659Y006249D01*
X008826Y006249D01*
X008981Y006313D01*
X009083Y006415D01*
X009083Y005923D01*
X008981Y006025D01*
X008826Y006089D01*
X008659Y006089D01*
X008505Y006025D01*
X008387Y005907D01*
X008323Y005752D01*
X008323Y005585D01*
X008387Y005431D01*
X008505Y005313D01*
X008659Y005249D01*
X008826Y005249D01*
X008981Y005313D01*
X009083Y005415D01*
X009083Y004923D01*
X008981Y005025D01*
X008826Y005089D01*
X008659Y005089D01*
X008505Y005025D01*
X008387Y004907D01*
X008323Y004752D01*
X008323Y004585D01*
X008387Y004431D01*
X008505Y004313D01*
X008659Y004249D01*
X008826Y004249D01*
X008981Y004313D01*
X009083Y004415D01*
X009083Y003923D01*
X008981Y004025D01*
X008826Y004089D01*
X008659Y004089D01*
X008505Y004025D01*
X008387Y003907D01*
X008323Y003752D01*
X008323Y003585D01*
X008387Y003431D01*
X008505Y003313D01*
X008659Y003249D01*
X008826Y003249D01*
X008981Y003313D01*
X009083Y003415D01*
X009083Y002923D01*
X008981Y003025D01*
X008826Y003089D01*
X008659Y003089D01*
X008505Y003025D01*
X008387Y002907D01*
X008323Y002752D01*
X008323Y002669D01*
X008252Y002669D01*
X008252Y002770D01*
X008212Y002865D01*
X008140Y002938D01*
X008044Y002978D01*
X007941Y002978D01*
X007846Y002938D01*
X007773Y002865D01*
X007734Y002770D01*
X007734Y002669D01*
X002163Y002669D01*
X002163Y002752D01*
X002163Y002739D02*
X007734Y002739D01*
X007753Y002817D02*
X002136Y002817D01*
X002103Y002896D02*
X007803Y002896D01*
X007933Y002974D02*
X002031Y002974D01*
X001913Y003053D02*
X008572Y003053D01*
X008454Y002974D02*
X008053Y002974D01*
X008182Y002896D02*
X008382Y002896D01*
X008350Y002817D02*
X008232Y002817D01*
X008252Y002739D02*
X008323Y002739D01*
X008564Y003288D02*
X001922Y003288D01*
X002035Y003367D02*
X008451Y003367D01*
X008381Y003445D02*
X002105Y003445D01*
X002137Y003524D02*
X006057Y003524D01*
X006091Y003510D02*
X006194Y003510D01*
X006290Y003549D01*
X006362Y003622D01*
X006402Y003717D01*
X006402Y003820D01*
X006362Y003915D01*
X006290Y003988D01*
X006194Y004028D01*
X006091Y004028D01*
X005996Y003988D01*
X005923Y003915D01*
X005884Y003820D01*
X005884Y003717D01*
X005923Y003622D01*
X005996Y003549D01*
X006091Y003510D01*
X006228Y003524D02*
X008348Y003524D01*
X008323Y003602D02*
X006343Y003602D01*
X006387Y003681D02*
X008323Y003681D01*
X008326Y003759D02*
X006402Y003759D01*
X006395Y003838D02*
X008358Y003838D01*
X008396Y003916D02*
X006362Y003916D01*
X006274Y003995D02*
X006807Y003995D01*
X006796Y003999D02*
X006891Y003960D01*
X006994Y003960D01*
X007090Y003999D01*
X007162Y004072D01*
X007202Y004167D01*
X007202Y004270D01*
X007162Y004365D01*
X007090Y004438D01*
X006994Y004478D01*
X006891Y004478D01*
X006796Y004438D01*
X006723Y004365D01*
X006684Y004270D01*
X006684Y004167D01*
X006723Y004072D01*
X006796Y003999D01*
X006723Y004073D02*
X005705Y004073D01*
X005712Y004065D02*
X005640Y004138D01*
X005544Y004178D01*
X005441Y004178D01*
X005346Y004138D01*
X005273Y004065D01*
X005234Y003970D01*
X005234Y003867D01*
X005273Y003772D01*
X005346Y003699D01*
X005441Y003660D01*
X005544Y003660D01*
X005640Y003699D01*
X005712Y003772D01*
X005752Y003867D01*
X005752Y003970D01*
X005712Y004065D01*
X005742Y003995D02*
X006011Y003995D01*
X005924Y003916D02*
X005752Y003916D01*
X005740Y003838D02*
X005891Y003838D01*
X005884Y003759D02*
X005700Y003759D01*
X005595Y003681D02*
X005899Y003681D01*
X005943Y003602D02*
X002163Y003602D01*
X002163Y003681D02*
X005390Y003681D01*
X005286Y003759D02*
X002160Y003759D01*
X002127Y003838D02*
X005246Y003838D01*
X005234Y003916D02*
X004757Y003916D01*
X004740Y003899D02*
X004812Y003972D01*
X004852Y004067D01*
X004852Y004170D01*
X004812Y004265D01*
X004740Y004338D01*
X004644Y004378D01*
X004541Y004378D01*
X004446Y004338D01*
X004373Y004265D01*
X004334Y004170D01*
X004334Y004067D01*
X004373Y003972D01*
X004446Y003899D01*
X004541Y003860D01*
X004644Y003860D01*
X004740Y003899D01*
X004822Y003995D02*
X005244Y003995D01*
X005281Y004073D02*
X004852Y004073D01*
X004852Y004152D02*
X005378Y004152D01*
X005607Y004152D02*
X006690Y004152D01*
X006684Y004230D02*
X004827Y004230D01*
X004769Y004309D02*
X006700Y004309D01*
X006745Y004387D02*
X002055Y004387D01*
X002113Y004466D02*
X006862Y004466D01*
X007023Y004466D02*
X008372Y004466D01*
X008340Y004544D02*
X002146Y004544D01*
X002163Y004623D02*
X008323Y004623D01*
X008323Y004701D02*
X002163Y004701D01*
X002151Y004780D02*
X008334Y004780D01*
X008367Y004858D02*
X002119Y004858D01*
X002069Y004937D02*
X008417Y004937D01*
X008495Y005015D02*
X001990Y005015D01*
X001831Y005251D02*
X008654Y005251D01*
X008831Y005251D02*
X009083Y005251D01*
X009083Y005329D02*
X008997Y005329D01*
X009076Y005408D02*
X009083Y005408D01*
X009083Y005172D02*
X001403Y005172D01*
X001403Y005094D02*
X009083Y005094D01*
X009083Y005015D02*
X008990Y005015D01*
X009069Y004937D02*
X009083Y004937D01*
X009055Y004387D02*
X009083Y004387D01*
X009083Y004309D02*
X008971Y004309D01*
X009083Y004230D02*
X007202Y004230D01*
X007195Y004152D02*
X009083Y004152D01*
X009083Y004073D02*
X008864Y004073D01*
X009011Y003995D02*
X009083Y003995D01*
X009083Y003367D02*
X009035Y003367D01*
X009083Y003288D02*
X008922Y003288D01*
X009083Y003210D02*
X001403Y003210D01*
X001403Y003288D02*
X001564Y003288D01*
X001451Y003367D02*
X001403Y003367D01*
X001403Y003131D02*
X009083Y003131D01*
X009083Y003053D02*
X008913Y003053D01*
X009031Y002974D02*
X009083Y002974D01*
X008475Y003995D02*
X007079Y003995D01*
X007163Y004073D02*
X008622Y004073D01*
X008514Y004309D02*
X007186Y004309D01*
X007141Y004387D02*
X008430Y004387D01*
X008488Y005329D02*
X004692Y005329D01*
X004644Y005310D02*
X004740Y005349D01*
X004812Y005422D01*
X004852Y005517D01*
X004852Y005620D01*
X004812Y005715D01*
X004740Y005788D01*
X004644Y005828D01*
X004541Y005828D01*
X004446Y005788D01*
X004373Y005715D01*
X004334Y005620D01*
X004334Y005517D01*
X004373Y005422D01*
X004446Y005349D01*
X004541Y005310D01*
X004644Y005310D01*
X004798Y005408D02*
X008410Y005408D01*
X008364Y005486D02*
X004839Y005486D01*
X004852Y005565D02*
X006680Y005565D01*
X006696Y005549D02*
X006791Y005510D01*
X006894Y005510D01*
X006990Y005549D01*
X007062Y005622D01*
X007102Y005717D01*
X007102Y005820D01*
X007062Y005915D01*
X006990Y005988D01*
X006894Y006028D01*
X006791Y006028D01*
X006696Y005988D01*
X006623Y005915D01*
X006584Y005820D01*
X006584Y005717D01*
X006623Y005622D01*
X006696Y005549D01*
X006614Y005643D02*
X004842Y005643D01*
X004806Y005722D02*
X006584Y005722D01*
X006584Y005800D02*
X004711Y005800D01*
X004475Y005800D02*
X002143Y005800D01*
X002163Y005722D02*
X004379Y005722D01*
X004343Y005643D02*
X002163Y005643D01*
X002154Y005565D02*
X004334Y005565D01*
X004347Y005486D02*
X002122Y005486D01*
X002076Y005408D02*
X004387Y005408D01*
X004494Y005329D02*
X001997Y005329D01*
X001654Y005251D02*
X001403Y005251D01*
X001403Y005329D02*
X001488Y005329D01*
X001410Y005408D02*
X001403Y005408D01*
X001403Y005015D02*
X001495Y005015D01*
X001417Y004937D02*
X001403Y004937D01*
X001403Y004387D02*
X001430Y004387D01*
X001403Y004309D02*
X001514Y004309D01*
X001622Y004073D02*
X001403Y004073D01*
X001403Y003995D02*
X001475Y003995D01*
X001403Y004152D02*
X004334Y004152D01*
X004334Y004073D02*
X001864Y004073D01*
X002011Y003995D02*
X004364Y003995D01*
X004429Y003916D02*
X002089Y003916D01*
X001971Y004309D02*
X004416Y004309D01*
X004359Y004230D02*
X001403Y004230D01*
X001403Y003053D02*
X001572Y003053D01*
X001454Y002974D02*
X001403Y002974D01*
X002110Y005879D02*
X006608Y005879D01*
X006665Y005957D02*
X002048Y005957D01*
X001954Y006036D02*
X008531Y006036D01*
X008437Y005957D02*
X007021Y005957D01*
X007078Y005879D02*
X008375Y005879D01*
X008343Y005800D02*
X007102Y005800D01*
X007102Y005722D02*
X008323Y005722D01*
X008323Y005643D02*
X007071Y005643D01*
X007005Y005565D02*
X008331Y005565D01*
X008605Y006271D02*
X001881Y006271D01*
X002018Y006350D02*
X008468Y006350D01*
X008389Y006428D02*
X002096Y006428D01*
X002130Y006507D02*
X008355Y006507D01*
X008323Y006585D02*
X002163Y006585D01*
X002163Y006664D02*
X004881Y006664D01*
X004896Y006649D02*
X004991Y006610D01*
X005094Y006610D01*
X005190Y006649D01*
X005262Y006722D01*
X005302Y006817D01*
X005302Y006920D01*
X005262Y007015D01*
X005190Y007088D01*
X005094Y007128D01*
X004991Y007128D01*
X004896Y007088D01*
X004845Y007037D01*
X004812Y007115D01*
X004740Y007188D01*
X004644Y007228D01*
X004541Y007228D01*
X004446Y007188D01*
X004373Y007115D01*
X004334Y007020D01*
X004334Y006917D01*
X004373Y006822D01*
X004446Y006749D01*
X004541Y006710D01*
X004644Y006710D01*
X004740Y006749D01*
X004791Y006800D01*
X004823Y006722D01*
X004896Y006649D01*
X004815Y006742D02*
X004723Y006742D01*
X004463Y006742D02*
X002163Y006742D01*
X002134Y006821D02*
X004374Y006821D01*
X004341Y006899D02*
X002102Y006899D01*
X002028Y006978D02*
X004334Y006978D01*
X004349Y007056D02*
X001905Y007056D01*
X001930Y007292D02*
X008555Y007292D01*
X008581Y007056D02*
X006066Y007056D01*
X006062Y007065D02*
X005990Y007138D01*
X005894Y007178D01*
X005791Y007178D01*
X005696Y007138D01*
X005623Y007065D01*
X005584Y006970D01*
X005584Y006867D01*
X005623Y006772D01*
X005696Y006699D01*
X005791Y006660D01*
X005894Y006660D01*
X005990Y006699D01*
X006062Y006772D01*
X006102Y006867D01*
X006102Y006970D01*
X006062Y007065D01*
X006099Y006978D02*
X008458Y006978D01*
X008384Y006899D02*
X006102Y006899D01*
X006083Y006821D02*
X008351Y006821D01*
X008323Y006742D02*
X006033Y006742D01*
X005904Y006664D02*
X008323Y006664D01*
X008447Y007370D02*
X002038Y007370D01*
X002106Y007449D02*
X008379Y007449D01*
X008347Y007527D02*
X002139Y007527D01*
X002163Y007606D02*
X008323Y007606D01*
X008323Y007684D02*
X002163Y007684D01*
X002158Y007763D02*
X008327Y007763D01*
X008360Y007841D02*
X007121Y007841D01*
X007140Y007849D02*
X007212Y007922D01*
X007252Y008017D01*
X007252Y008120D01*
X007212Y008215D01*
X007140Y008288D01*
X007052Y008325D01*
X007052Y008420D01*
X007012Y008515D01*
X006940Y008588D01*
X006844Y008628D01*
X006741Y008628D01*
X006687Y008605D01*
X006662Y008665D01*
X006590Y008738D01*
X006494Y008778D01*
X006391Y008778D01*
X006296Y008738D01*
X006223Y008665D01*
X006184Y008570D01*
X006184Y008467D01*
X006223Y008372D01*
X006296Y008299D01*
X006391Y008260D01*
X006494Y008260D01*
X006548Y008282D01*
X006573Y008222D01*
X006646Y008149D01*
X006734Y008113D01*
X006734Y008017D01*
X006773Y007922D01*
X006846Y007849D01*
X006941Y007810D01*
X007044Y007810D01*
X007140Y007849D01*
X007210Y007920D02*
X008400Y007920D01*
X008478Y007998D02*
X007244Y007998D01*
X007252Y008077D02*
X008630Y008077D01*
X008506Y008312D02*
X007082Y008312D01*
X007052Y008391D02*
X008427Y008391D01*
X008371Y008469D02*
X007032Y008469D01*
X006980Y008548D02*
X008338Y008548D01*
X008323Y008626D02*
X006848Y008626D01*
X006738Y008626D02*
X006679Y008626D01*
X006623Y008705D02*
X008323Y008705D01*
X008336Y008783D02*
X002150Y008783D01*
X002163Y008705D02*
X004436Y008705D01*
X004396Y008688D02*
X004491Y008728D01*
X004594Y008728D01*
X004690Y008688D01*
X004762Y008615D01*
X004802Y008520D01*
X004802Y008417D01*
X004762Y008322D01*
X004690Y008249D01*
X004594Y008210D01*
X004491Y008210D01*
X004396Y008249D01*
X004323Y008322D01*
X004284Y008417D01*
X004284Y008520D01*
X004323Y008615D01*
X004396Y008688D01*
X004334Y008626D02*
X002163Y008626D01*
X002147Y008548D02*
X003438Y008548D01*
X003415Y008538D02*
X003510Y008578D01*
X003613Y008578D01*
X003708Y008538D01*
X003781Y008465D01*
X003821Y008370D01*
X003821Y008267D01*
X003781Y008172D01*
X003708Y008099D01*
X003613Y008060D01*
X003510Y008060D01*
X003415Y008099D01*
X003342Y008172D01*
X003303Y008267D01*
X003303Y008370D01*
X003342Y008465D01*
X003415Y008538D01*
X003346Y008469D02*
X002115Y008469D01*
X002059Y008391D02*
X003311Y008391D01*
X003303Y008312D02*
X001980Y008312D01*
X001855Y008077D02*
X003469Y008077D01*
X003359Y008155D02*
X001403Y008155D01*
X001403Y008077D02*
X001630Y008077D01*
X001478Y007998D02*
X001403Y007998D01*
X001403Y008234D02*
X003316Y008234D01*
X003654Y008077D02*
X004921Y008077D01*
X004923Y008072D02*
X004996Y007999D01*
X005091Y007960D01*
X005194Y007960D01*
X005290Y007999D01*
X005362Y008072D01*
X005402Y008167D01*
X005402Y008260D01*
X005444Y008260D01*
X005540Y008299D01*
X005568Y008327D01*
X005596Y008299D01*
X005691Y008260D01*
X005794Y008260D01*
X005816Y008269D01*
X005877Y008209D01*
X006009Y008209D01*
X006103Y008302D01*
X006103Y008435D01*
X006002Y008536D01*
X006002Y008570D01*
X005962Y008665D01*
X005890Y008738D01*
X005794Y008778D01*
X005691Y008778D01*
X005596Y008738D01*
X005568Y008710D01*
X005540Y008738D01*
X005444Y008778D01*
X005341Y008778D01*
X005246Y008738D01*
X005173Y008665D01*
X005134Y008570D01*
X005134Y008478D01*
X005091Y008478D01*
X004996Y008438D01*
X004923Y008365D01*
X004884Y008270D01*
X004884Y008167D01*
X004923Y008072D01*
X004889Y008155D02*
X003765Y008155D01*
X003807Y008234D02*
X004433Y008234D01*
X004333Y008312D02*
X003821Y008312D01*
X003812Y008391D02*
X004295Y008391D01*
X004284Y008469D02*
X003778Y008469D01*
X003686Y008548D02*
X004295Y008548D01*
X004650Y008705D02*
X005212Y008705D01*
X005157Y008626D02*
X004752Y008626D01*
X004790Y008548D02*
X005134Y008548D01*
X005071Y008469D02*
X004802Y008469D01*
X004791Y008391D02*
X004948Y008391D01*
X004901Y008312D02*
X004753Y008312D01*
X004652Y008234D02*
X004884Y008234D01*
X004998Y007998D02*
X002007Y007998D01*
X002086Y007920D02*
X006775Y007920D01*
X006742Y007998D02*
X005287Y007998D01*
X005364Y008077D02*
X006734Y008077D01*
X006640Y008155D02*
X005397Y008155D01*
X005402Y008234D02*
X005852Y008234D01*
X005943Y008369D02*
X005793Y008519D01*
X005743Y008519D01*
X005923Y008705D02*
X006262Y008705D01*
X006207Y008626D02*
X005979Y008626D01*
X006002Y008548D02*
X006184Y008548D01*
X006184Y008469D02*
X006069Y008469D01*
X006103Y008391D02*
X006215Y008391D01*
X006283Y008312D02*
X006103Y008312D01*
X006034Y008234D02*
X006568Y008234D01*
X006865Y007841D02*
X002126Y007841D01*
X001555Y007292D02*
X001403Y007292D01*
X001403Y007370D02*
X001447Y007370D01*
X001403Y007213D02*
X004506Y007213D01*
X004392Y007135D02*
X001403Y007135D01*
X001403Y007056D02*
X001581Y007056D01*
X001458Y006978D02*
X001403Y006978D01*
X001403Y006350D02*
X001468Y006350D01*
X001403Y006271D02*
X001605Y006271D01*
X001403Y006193D02*
X009083Y006193D01*
X009083Y006271D02*
X008881Y006271D01*
X009018Y006350D02*
X009083Y006350D01*
X009083Y006114D02*
X001403Y006114D01*
X001403Y006036D02*
X001531Y006036D01*
X001437Y005957D02*
X001403Y005957D01*
X001403Y008312D02*
X001506Y008312D01*
X001427Y008391D02*
X001403Y008391D01*
X001403Y008940D02*
X001420Y008940D01*
X001403Y009019D02*
X001499Y009019D01*
X001403Y009097D02*
X009083Y009097D01*
X009083Y009019D02*
X008987Y009019D01*
X009065Y008940D02*
X009083Y008940D01*
X009083Y009176D02*
X007283Y009176D01*
X007244Y009160D02*
X007340Y009199D01*
X007412Y009272D01*
X007452Y009367D01*
X007452Y009470D01*
X007412Y009565D01*
X007340Y009638D01*
X007244Y009678D01*
X007141Y009678D01*
X007046Y009638D01*
X006973Y009565D01*
X006934Y009470D01*
X006934Y009367D01*
X006973Y009272D01*
X007046Y009199D01*
X007141Y009160D01*
X007244Y009160D01*
X007102Y009176D02*
X001403Y009176D01*
X001403Y009254D02*
X001646Y009254D01*
X001485Y009333D02*
X001403Y009333D01*
X001403Y009411D02*
X001406Y009411D01*
X001403Y009961D02*
X001441Y009961D01*
X001403Y010039D02*
X001540Y010039D01*
X001403Y010118D02*
X002104Y010118D01*
X002123Y010072D02*
X002084Y010167D01*
X002084Y010270D01*
X002123Y010365D01*
X002196Y010438D01*
X002291Y010478D01*
X002394Y010478D01*
X002490Y010438D01*
X002562Y010365D01*
X002566Y010358D01*
X002596Y010388D01*
X002691Y010428D01*
X002794Y010428D01*
X002890Y010388D01*
X002962Y010315D01*
X002993Y010242D01*
X003023Y010315D01*
X003096Y010388D01*
X003191Y010428D01*
X003294Y010428D01*
X003390Y010388D01*
X003462Y010315D01*
X003493Y010242D01*
X003523Y010315D01*
X003596Y010388D01*
X003691Y010428D01*
X003794Y010428D01*
X003890Y010388D01*
X003962Y010315D01*
X004002Y010220D01*
X004002Y010117D01*
X003962Y010022D01*
X003890Y009949D01*
X003794Y009910D01*
X003691Y009910D01*
X003596Y009949D01*
X003523Y010022D01*
X003493Y010095D01*
X003462Y010022D01*
X003390Y009949D01*
X003294Y009910D01*
X003191Y009910D01*
X003096Y009949D01*
X003023Y010022D01*
X002993Y010095D01*
X002962Y010022D01*
X002890Y009949D01*
X002794Y009910D01*
X002691Y009910D01*
X002596Y009949D01*
X002523Y010022D01*
X002520Y010030D01*
X002490Y009999D01*
X002394Y009960D01*
X002291Y009960D01*
X002196Y009999D01*
X002123Y010072D01*
X002156Y010039D02*
X001946Y010039D01*
X002045Y009961D02*
X002289Y009961D01*
X002397Y009961D02*
X002584Y009961D01*
X002901Y009961D02*
X003084Y009961D01*
X003016Y010039D02*
X002970Y010039D01*
X002979Y010275D02*
X003006Y010275D01*
X003061Y010353D02*
X002925Y010353D01*
X003401Y009961D02*
X003584Y009961D01*
X003516Y010039D02*
X003470Y010039D01*
X003479Y010275D02*
X003506Y010275D01*
X003561Y010353D02*
X003425Y010353D01*
X003901Y009961D02*
X005339Y009961D01*
X005341Y009960D02*
X005444Y009960D01*
X005540Y009999D01*
X005612Y010072D01*
X005652Y010167D01*
X005652Y010270D01*
X005612Y010365D01*
X005540Y010438D01*
X005444Y010478D01*
X005341Y010478D01*
X005246Y010438D01*
X005173Y010365D01*
X005134Y010270D01*
X005134Y010167D01*
X005173Y010072D01*
X005246Y009999D01*
X005341Y009960D01*
X005447Y009961D02*
X006239Y009961D01*
X006241Y009960D02*
X006344Y009960D01*
X006440Y009999D01*
X006512Y010072D01*
X006552Y010167D01*
X006552Y010270D01*
X006512Y010365D01*
X006440Y010438D01*
X006344Y010478D01*
X006241Y010478D01*
X006146Y010438D01*
X006073Y010365D01*
X006034Y010270D01*
X006034Y010167D01*
X006073Y010072D01*
X006146Y009999D01*
X006241Y009960D01*
X006347Y009961D02*
X008413Y009961D01*
X008358Y009882D02*
X002109Y009882D01*
X002141Y009804D02*
X008324Y009804D01*
X008306Y009725D02*
X002163Y009725D01*
X002163Y009647D02*
X004634Y009647D01*
X004646Y009658D02*
X004573Y009585D01*
X004534Y009490D01*
X004534Y009387D01*
X004573Y009292D01*
X004646Y009219D01*
X004741Y009180D01*
X004844Y009180D01*
X004940Y009219D01*
X005012Y009292D01*
X005052Y009387D01*
X005052Y009490D01*
X005012Y009585D01*
X004940Y009658D01*
X004844Y009698D01*
X004741Y009698D01*
X004646Y009658D01*
X004566Y009568D02*
X002156Y009568D01*
X002123Y009490D02*
X004534Y009490D01*
X004534Y009411D02*
X002079Y009411D01*
X002001Y009333D02*
X004556Y009333D01*
X004611Y009254D02*
X001840Y009254D01*
X001987Y009019D02*
X008499Y009019D01*
X008420Y008940D02*
X002065Y008940D01*
X002117Y008862D02*
X008368Y008862D01*
X008595Y009254D02*
X007395Y009254D01*
X007438Y009333D02*
X008457Y009333D01*
X008386Y009411D02*
X007452Y009411D01*
X007444Y009490D02*
X008340Y009490D01*
X008313Y009568D02*
X007410Y009568D01*
X007319Y009647D02*
X008703Y009647D01*
X008703Y009725D02*
X008783Y009725D01*
X008783Y009804D02*
X008703Y009804D01*
X008703Y009882D02*
X008783Y009882D01*
X008783Y009961D02*
X008703Y009961D01*
X008703Y010039D02*
X008783Y010039D01*
X008981Y010039D02*
X009083Y010039D01*
X009073Y009961D02*
X009083Y009961D01*
X009083Y010118D02*
X007364Y010118D01*
X007344Y010110D02*
X007440Y010149D01*
X007512Y010222D01*
X007552Y010317D01*
X007552Y010420D01*
X007512Y010515D01*
X007440Y010588D01*
X007344Y010628D01*
X007249Y010628D01*
X007212Y010715D01*
X007140Y010788D01*
X007044Y010828D01*
X006941Y010828D01*
X006846Y010788D01*
X006773Y010715D01*
X006734Y010620D01*
X006734Y010517D01*
X006773Y010422D01*
X006846Y010349D01*
X006941Y010310D01*
X007037Y010310D01*
X007073Y010222D01*
X007146Y010149D01*
X007241Y010110D01*
X007344Y010110D01*
X007222Y010118D02*
X006531Y010118D01*
X006552Y010196D02*
X007099Y010196D01*
X007051Y010275D02*
X006550Y010275D01*
X006517Y010353D02*
X006842Y010353D01*
X006769Y010432D02*
X006446Y010432D01*
X006737Y010510D02*
X002132Y010510D01*
X002163Y010589D02*
X006734Y010589D01*
X006753Y010667D02*
X002163Y010667D01*
X002163Y010746D02*
X006803Y010746D01*
X006933Y010824D02*
X002133Y010824D01*
X002100Y010903D02*
X008385Y010903D01*
X008353Y010824D02*
X007053Y010824D01*
X007182Y010746D02*
X007764Y010746D01*
X007746Y010738D02*
X007841Y010778D01*
X007944Y010778D01*
X008040Y010738D01*
X008112Y010665D01*
X008152Y010570D01*
X008152Y010467D01*
X008112Y010372D01*
X008040Y010299D01*
X007944Y010260D01*
X007841Y010260D01*
X007746Y010299D01*
X007673Y010372D01*
X007634Y010467D01*
X007634Y010570D01*
X007673Y010665D01*
X007746Y010738D01*
X007675Y010667D02*
X007232Y010667D01*
X007439Y010589D02*
X007641Y010589D01*
X007634Y010510D02*
X007515Y010510D01*
X007547Y010432D02*
X007648Y010432D01*
X007692Y010353D02*
X007552Y010353D01*
X007534Y010275D02*
X007805Y010275D01*
X007981Y010275D02*
X008596Y010275D01*
X008464Y010353D02*
X008094Y010353D01*
X008137Y010432D02*
X008386Y010432D01*
X008354Y010510D02*
X008152Y010510D01*
X008144Y010589D02*
X008323Y010589D01*
X008323Y010667D02*
X008111Y010667D01*
X008022Y010746D02*
X008323Y010746D01*
X008461Y010981D02*
X002024Y010981D01*
X001896Y011060D02*
X008589Y011060D01*
X008547Y011295D02*
X001977Y011295D01*
X001973Y011292D02*
X002029Y011333D01*
X002078Y011382D01*
X002119Y011438D01*
X002151Y011500D01*
X002172Y011566D01*
X002182Y011629D01*
X001783Y011629D01*
X001783Y011229D01*
X001846Y011239D01*
X001912Y011261D01*
X001973Y011292D01*
X002070Y011374D02*
X008444Y011374D01*
X008378Y011452D02*
X002126Y011452D01*
X002161Y011531D02*
X008345Y011531D01*
X008323Y011609D02*
X002179Y011609D01*
X002182Y011709D02*
X002172Y011772D01*
X002151Y011838D01*
X002119Y011899D01*
X002078Y011955D01*
X002029Y012004D01*
X001973Y012045D01*
X001912Y012076D01*
X001846Y012098D01*
X001783Y012108D01*
X001783Y011709D01*
X002182Y011709D01*
X002173Y011766D02*
X008329Y011766D01*
X008323Y011688D02*
X001783Y011688D01*
X001783Y011766D02*
X001703Y011766D01*
X001703Y011845D02*
X001783Y011845D01*
X001783Y011923D02*
X001703Y011923D01*
X001703Y012002D02*
X001783Y012002D01*
X001783Y012080D02*
X001703Y012080D01*
X001586Y012080D02*
X001403Y012080D01*
X001403Y012002D02*
X001454Y012002D01*
X001403Y012159D02*
X009083Y012159D01*
X009083Y012237D02*
X001403Y012237D01*
X001403Y012316D02*
X001502Y012316D01*
X001423Y012394D02*
X001403Y012394D01*
X001403Y012944D02*
X001424Y012944D01*
X001403Y013022D02*
X001502Y013022D01*
X001403Y013101D02*
X004984Y013101D01*
X004984Y013067D02*
X005023Y012972D01*
X005096Y012899D01*
X005191Y012860D01*
X005294Y012860D01*
X005390Y012899D01*
X005462Y012972D01*
X005502Y013067D01*
X005502Y013170D01*
X005462Y013265D01*
X005390Y013338D01*
X005294Y013378D01*
X005191Y013378D01*
X005096Y013338D01*
X005023Y013265D01*
X004984Y013170D01*
X004984Y013067D01*
X005002Y013022D02*
X001983Y013022D01*
X002062Y012944D02*
X005051Y012944D01*
X005178Y012865D02*
X002575Y012865D01*
X002544Y012878D02*
X002441Y012878D01*
X002346Y012838D01*
X002273Y012765D01*
X002234Y012670D01*
X002234Y012567D01*
X002273Y012472D01*
X002346Y012399D01*
X002441Y012360D01*
X002544Y012360D01*
X002640Y012399D01*
X002712Y012472D01*
X002752Y012567D01*
X002752Y012670D01*
X002712Y012765D01*
X002640Y012838D01*
X002544Y012878D01*
X002691Y012787D02*
X003994Y012787D01*
X003996Y012788D02*
X003923Y012715D01*
X003884Y012620D01*
X003884Y012517D01*
X003923Y012422D01*
X003996Y012349D01*
X004091Y012310D01*
X004194Y012310D01*
X004290Y012349D01*
X004362Y012422D01*
X004402Y012517D01*
X004402Y012620D01*
X004362Y012715D01*
X004290Y012788D01*
X004194Y012828D01*
X004091Y012828D01*
X003996Y012788D01*
X003920Y012708D02*
X002736Y012708D01*
X002752Y012630D02*
X003888Y012630D01*
X003884Y012551D02*
X002745Y012551D01*
X002713Y012473D02*
X003902Y012473D01*
X003951Y012394D02*
X002628Y012394D01*
X002358Y012394D02*
X002062Y012394D01*
X002116Y012473D02*
X002273Y012473D01*
X002240Y012551D02*
X002149Y012551D01*
X002163Y012630D02*
X002234Y012630D01*
X002249Y012708D02*
X002163Y012708D01*
X002149Y012787D02*
X002294Y012787D01*
X002411Y012865D02*
X002116Y012865D01*
X001942Y013179D02*
X004987Y013179D01*
X005020Y013258D02*
X002048Y013258D01*
X002089Y013336D02*
X005094Y013336D01*
X005392Y013336D02*
X009083Y013336D01*
X009083Y013258D02*
X005466Y013258D01*
X005498Y013179D02*
X009083Y013179D01*
X009083Y013101D02*
X006527Y013101D01*
X006562Y013065D02*
X006490Y013138D01*
X006394Y013178D01*
X006291Y013178D01*
X006196Y013138D01*
X006123Y013065D01*
X006084Y012970D01*
X006084Y012867D01*
X006123Y012772D01*
X006196Y012699D01*
X006291Y012660D01*
X006394Y012660D01*
X006490Y012699D01*
X006562Y012772D01*
X006602Y012867D01*
X006602Y012970D01*
X006562Y013065D01*
X006580Y013022D02*
X008502Y013022D01*
X008424Y012944D02*
X006602Y012944D01*
X006601Y012865D02*
X008370Y012865D01*
X008337Y012787D02*
X006569Y012787D01*
X006499Y012708D02*
X008323Y012708D01*
X008323Y012630D02*
X004398Y012630D01*
X004402Y012551D02*
X008337Y012551D01*
X008369Y012473D02*
X004383Y012473D01*
X004335Y012394D02*
X008423Y012394D01*
X008502Y012316D02*
X004209Y012316D01*
X004077Y012316D02*
X001984Y012316D01*
X001900Y012080D02*
X008639Y012080D01*
X008482Y012002D02*
X002032Y012002D01*
X002102Y011923D02*
X008403Y011923D01*
X008361Y011845D02*
X002147Y011845D01*
X001783Y011609D02*
X001703Y011609D01*
X001703Y011531D02*
X001783Y011531D01*
X001783Y011452D02*
X001703Y011452D01*
X001703Y011374D02*
X001783Y011374D01*
X001783Y011295D02*
X001703Y011295D01*
X001589Y011060D02*
X001403Y011060D01*
X001403Y011138D02*
X009083Y011138D01*
X009083Y011060D02*
X008896Y011060D01*
X009024Y010981D02*
X009083Y010981D01*
X009083Y011217D02*
X001403Y011217D01*
X001403Y011295D02*
X001508Y011295D01*
X001416Y011374D02*
X001403Y011374D01*
X001403Y010981D02*
X001461Y010981D01*
X001464Y010353D02*
X001403Y010353D01*
X001403Y010275D02*
X001596Y010275D01*
X001403Y010196D02*
X002084Y010196D01*
X002086Y010275D02*
X001889Y010275D01*
X002021Y010353D02*
X002118Y010353D01*
X002099Y010432D02*
X002189Y010432D01*
X002496Y010432D02*
X005239Y010432D01*
X005168Y010353D02*
X003925Y010353D01*
X003979Y010275D02*
X005136Y010275D01*
X005134Y010196D02*
X004002Y010196D01*
X004002Y010118D02*
X005154Y010118D01*
X005206Y010039D02*
X003970Y010039D01*
X004951Y009647D02*
X007066Y009647D01*
X006976Y009568D02*
X005020Y009568D01*
X005052Y009490D02*
X006942Y009490D01*
X006934Y009411D02*
X005052Y009411D01*
X005029Y009333D02*
X006948Y009333D01*
X006991Y009254D02*
X004975Y009254D01*
X005580Y010039D02*
X006106Y010039D01*
X006054Y010118D02*
X005631Y010118D01*
X005652Y010196D02*
X006034Y010196D01*
X006036Y010275D02*
X005650Y010275D01*
X005617Y010353D02*
X006068Y010353D01*
X006139Y010432D02*
X005546Y010432D01*
X006480Y010039D02*
X008504Y010039D01*
X008703Y009568D02*
X008783Y009568D01*
X008783Y009490D02*
X008703Y009490D01*
X008703Y009411D02*
X008783Y009411D01*
X008783Y009333D02*
X008703Y009333D01*
X008703Y009254D02*
X008783Y009254D01*
X008891Y009254D02*
X009083Y009254D01*
X009029Y009333D02*
X009078Y009382D01*
X009083Y010196D02*
X007487Y010196D01*
X007194Y008234D02*
X009083Y008234D01*
X009083Y008312D02*
X008980Y008312D01*
X009059Y008391D02*
X009083Y008391D01*
X009083Y008155D02*
X007237Y008155D01*
X005993Y007135D02*
X009083Y007135D01*
X009083Y007213D02*
X004679Y007213D01*
X004793Y007135D02*
X005692Y007135D01*
X005619Y007056D02*
X005222Y007056D01*
X005278Y006978D02*
X005587Y006978D01*
X005584Y006899D02*
X005302Y006899D01*
X005302Y006821D02*
X005603Y006821D01*
X005653Y006742D02*
X005271Y006742D01*
X005204Y006664D02*
X005781Y006664D01*
X004864Y007056D02*
X004837Y007056D01*
X005553Y008312D02*
X005583Y008312D01*
X006187Y012708D02*
X004365Y012708D01*
X004291Y012787D02*
X006117Y012787D01*
X006085Y012865D02*
X005308Y012865D01*
X005434Y012944D02*
X006084Y012944D01*
X006105Y013022D02*
X005483Y013022D01*
X005502Y013101D02*
X006158Y013101D01*
X007211Y013650D02*
X001961Y013650D01*
X001902Y013729D02*
X007184Y013729D01*
X007184Y013807D02*
X001902Y013807D01*
X001875Y013886D02*
X007211Y013886D01*
X007272Y013964D02*
X001814Y013964D01*
X002056Y013572D02*
X007273Y013572D01*
X007612Y013572D02*
X009083Y013572D01*
X009083Y013650D02*
X007674Y013650D01*
X007702Y013729D02*
X009083Y013729D01*
X009083Y013807D02*
X007702Y013807D01*
X007675Y013886D02*
X009083Y013886D01*
X009083Y013964D02*
X007614Y013964D01*
X008847Y012080D02*
X009083Y012080D01*
X009083Y012002D02*
X009004Y012002D01*
X008984Y012316D02*
X009083Y012316D01*
X009083Y012394D02*
X009062Y012394D01*
X009062Y012944D02*
X009083Y012944D01*
X009083Y013022D02*
X008983Y013022D01*
X009083Y013415D02*
X002102Y013415D01*
X002092Y013493D02*
X009083Y013493D01*
X009042Y011374D02*
X009083Y011374D01*
X009083Y011295D02*
X008939Y011295D01*
X009021Y010353D02*
X009083Y010353D01*
X009083Y010275D02*
X008889Y010275D01*
X008855Y008077D02*
X009083Y008077D01*
X009083Y007998D02*
X009007Y007998D01*
X009038Y007370D02*
X009083Y007370D01*
X009083Y007292D02*
X008930Y007292D01*
X008905Y007056D02*
X009083Y007056D01*
X009083Y006978D02*
X009028Y006978D01*
X009083Y006036D02*
X008954Y006036D01*
X009048Y005957D02*
X009083Y005957D01*
X001744Y013179D02*
X001403Y013179D01*
X001403Y013258D02*
X001637Y013258D01*
X001597Y013336D02*
X001403Y013336D01*
X001403Y013415D02*
X001584Y013415D01*
X001593Y013493D02*
X001403Y013493D01*
X001403Y013572D02*
X001473Y013572D01*
X001411Y013650D02*
X001403Y013650D01*
M02*
