G75*
G70*
%OFA0B0*%
%FSLAX24Y24*%
%IPPOS*%
%LPD*%
%AMOC8*
5,1,8,0,0,1.08239X$1,22.5*
%
%ADD10C,0.0080*%
%ADD11C,0.0100*%
%ADD12C,0.0060*%
%ADD13C,0.0030*%
%ADD14C,0.0050*%
%ADD15C,0.0040*%
D10*
X001243Y001455D02*
X001493Y001205D01*
X001993Y001205D01*
X002243Y001455D01*
X002243Y001955D01*
X001993Y002205D01*
X002243Y002455D01*
X002243Y002955D01*
X001993Y003205D01*
X002243Y003455D01*
X002243Y003955D01*
X001993Y004205D01*
X002243Y004455D01*
X002243Y004955D01*
X001993Y005205D01*
X002243Y005455D01*
X002243Y005955D01*
X001993Y006205D01*
X002243Y006455D01*
X002243Y006955D01*
X001993Y007205D01*
X002243Y007455D01*
X002243Y007955D01*
X001993Y008205D01*
X002243Y008455D01*
X002243Y008955D01*
X001993Y009205D01*
X002243Y009455D01*
X002243Y009955D01*
X001993Y010205D01*
X002243Y010455D01*
X002243Y010955D01*
X001993Y011205D01*
X002243Y011455D01*
X002243Y011955D01*
X001993Y012205D01*
X002243Y012455D01*
X002243Y012955D01*
X001993Y013205D01*
X001493Y013205D01*
X001243Y012955D01*
X001243Y012455D01*
X001493Y012205D01*
X001243Y011955D01*
X001243Y011455D01*
X001493Y011205D01*
X001243Y010955D01*
X001243Y010455D01*
X001493Y010205D01*
X001243Y009955D01*
X001243Y009455D01*
X001493Y009205D01*
X001243Y008955D01*
X001243Y008455D01*
X001493Y008205D01*
X001243Y007955D01*
X001243Y007455D01*
X001493Y007205D01*
X001243Y006955D01*
X001243Y006455D01*
X001493Y006205D01*
X001243Y005955D01*
X001243Y005455D01*
X001493Y005205D01*
X001243Y004955D01*
X001243Y004455D01*
X001493Y004205D01*
X001243Y003955D01*
X001243Y003455D01*
X001493Y003205D01*
X001243Y002955D01*
X001243Y002455D01*
X001493Y002205D01*
X001243Y001955D01*
X001243Y001455D01*
X002903Y002665D02*
X002903Y002745D01*
X003183Y002745D02*
X003183Y002665D01*
X003553Y002665D02*
X003553Y002745D01*
X003833Y002745D02*
X003833Y002665D01*
X004203Y002665D02*
X004203Y002745D01*
X004483Y002745D02*
X004483Y002665D01*
X004853Y002665D02*
X004853Y002745D01*
X005133Y002745D02*
X005133Y002665D01*
X005503Y002665D02*
X005503Y002745D01*
X005783Y002745D02*
X005783Y002665D01*
X005785Y004145D02*
X005785Y004265D01*
X005501Y004265D02*
X005501Y004145D01*
X005088Y004208D02*
X005088Y004602D01*
X004498Y004602D02*
X004498Y004208D01*
X004123Y004319D02*
X004123Y004791D01*
X003611Y005539D02*
X003375Y005539D01*
X003383Y006365D02*
X003383Y006445D01*
X003103Y006445D02*
X003103Y006365D01*
X002863Y004791D02*
X002863Y004319D01*
X003375Y003571D02*
X003611Y003571D01*
X005203Y005515D02*
X005283Y005515D01*
X005283Y005795D02*
X005203Y005795D01*
X007653Y008165D02*
X007653Y008245D01*
X007933Y008245D02*
X007933Y008165D01*
X008243Y007955D02*
X008243Y007455D01*
X008493Y007205D01*
X008243Y006955D01*
X008243Y006455D01*
X008493Y006205D01*
X008243Y005955D01*
X008243Y005455D01*
X008493Y005205D01*
X008243Y004955D01*
X008243Y004455D01*
X008493Y004205D01*
X008243Y003955D01*
X008243Y003455D01*
X008493Y003205D01*
X008243Y002955D01*
X008243Y002455D01*
X008493Y002205D01*
X008243Y001955D01*
X008243Y001455D01*
X008493Y001205D01*
X008993Y001205D01*
X009243Y001455D01*
X009243Y001955D01*
X008993Y002205D01*
X009243Y002455D01*
X009243Y002955D01*
X008993Y003205D01*
X009243Y003455D01*
X009243Y003955D01*
X008993Y004205D01*
X009243Y004455D01*
X009243Y004955D01*
X008993Y005205D01*
X009243Y005455D01*
X009243Y005955D01*
X008993Y006205D01*
X009243Y006455D01*
X009243Y006955D01*
X008993Y007205D01*
X009243Y007455D01*
X009243Y007955D01*
X008993Y008205D01*
X009243Y008455D01*
X009243Y008955D01*
X008993Y009205D01*
X009243Y009455D01*
X009243Y009955D01*
X008993Y010205D01*
X009243Y010455D01*
X009243Y010955D01*
X008993Y011205D01*
X009243Y011455D01*
X009243Y011955D01*
X008993Y012205D01*
X009243Y012455D01*
X009243Y012955D01*
X008993Y013205D01*
X008493Y013205D01*
X008243Y012955D01*
X008243Y012455D01*
X008493Y012205D01*
X008243Y011955D01*
X008243Y011455D01*
X008493Y011205D01*
X008243Y010955D01*
X008243Y010455D01*
X008493Y010205D01*
X008243Y009955D01*
X008243Y009455D01*
X008493Y009205D01*
X008243Y008955D01*
X008243Y008455D01*
X008493Y008205D01*
X008243Y007955D01*
X006533Y011955D02*
X006533Y013255D01*
X003953Y013255D01*
X003953Y011955D01*
X006533Y011955D01*
X007153Y012235D02*
X007233Y012235D01*
X007233Y012515D02*
X007153Y012515D01*
X007603Y012765D02*
X007683Y012765D01*
X007683Y013045D02*
X007603Y013045D01*
X007299Y013233D02*
X006709Y013233D01*
X006709Y014177D01*
X007299Y014177D01*
X008087Y014177D02*
X008520Y014177D01*
X008677Y014020D01*
X008677Y013390D01*
X008520Y013233D01*
X008087Y013233D01*
X005283Y010825D02*
X005203Y010825D01*
X005203Y010545D02*
X005283Y010545D01*
X003667Y012479D02*
X003669Y012493D01*
X003675Y012507D01*
X003683Y012519D01*
X003695Y012527D01*
X003709Y012533D01*
X003723Y012535D01*
X003737Y012533D01*
X003751Y012527D01*
X003763Y012519D01*
X003771Y012507D01*
X003777Y012493D01*
X003779Y012479D01*
X003777Y012465D01*
X003771Y012451D01*
X003763Y012439D01*
X003751Y012431D01*
X003737Y012425D01*
X003723Y012423D01*
X003709Y012425D01*
X003695Y012431D01*
X003683Y012439D01*
X003675Y012451D01*
X003669Y012465D01*
X003667Y012479D01*
X003565Y012440D02*
X003565Y013070D01*
X003253Y013613D02*
X003133Y013613D01*
X003133Y013897D02*
X003253Y013897D01*
X002620Y013070D02*
X002620Y012440D01*
X003053Y011895D02*
X003133Y011895D01*
X003133Y011615D02*
X003053Y011615D01*
X003033Y011197D02*
X003153Y011197D01*
X003153Y010913D02*
X003033Y010913D01*
X003033Y010547D02*
X003153Y010547D01*
X003153Y010263D02*
X003033Y010263D01*
X001953Y013613D02*
X001833Y013613D01*
X001833Y013897D02*
X001953Y013897D01*
D11*
X005166Y010008D02*
X003440Y008282D01*
X003440Y008128D01*
X005166Y006402D01*
X005319Y006402D01*
X007045Y008128D01*
X007045Y008282D01*
X005319Y010008D01*
X005166Y010008D01*
X005007Y007091D02*
X005009Y007121D01*
X005015Y007151D01*
X005024Y007180D01*
X005037Y007207D01*
X005054Y007232D01*
X005073Y007255D01*
X005096Y007276D01*
X005121Y007293D01*
X005147Y007307D01*
X005176Y007317D01*
X005205Y007324D01*
X005235Y007327D01*
X005266Y007326D01*
X005296Y007321D01*
X005325Y007312D01*
X005352Y007300D01*
X005378Y007285D01*
X005402Y007266D01*
X005423Y007244D01*
X005441Y007220D01*
X005456Y007193D01*
X005467Y007165D01*
X005475Y007136D01*
X005479Y007106D01*
X005479Y007076D01*
X005475Y007046D01*
X005467Y007017D01*
X005456Y006989D01*
X005441Y006962D01*
X005423Y006938D01*
X005402Y006916D01*
X005378Y006897D01*
X005352Y006882D01*
X005325Y006870D01*
X005296Y006861D01*
X005266Y006856D01*
X005235Y006855D01*
X005205Y006858D01*
X005176Y006865D01*
X005147Y006875D01*
X005121Y006889D01*
X005096Y006906D01*
X005073Y006927D01*
X005054Y006950D01*
X005037Y006975D01*
X005024Y007002D01*
X005015Y007031D01*
X005009Y007061D01*
X005007Y007091D01*
D12*
X005983Y005115D02*
X006083Y005115D01*
X005983Y005115D02*
X005983Y004175D01*
X005983Y003935D01*
X005983Y002995D01*
X006083Y002995D01*
X006503Y002995D02*
X006583Y002995D01*
X007003Y002995D02*
X007083Y002995D01*
X007503Y002995D02*
X007583Y002995D01*
X008003Y002995D02*
X008103Y002995D01*
X008103Y005115D01*
X008003Y005115D01*
X007583Y005115D02*
X007503Y005115D01*
X007083Y005115D02*
X007003Y005115D01*
X006583Y005115D02*
X006503Y005115D01*
X005983Y004175D02*
X006004Y004173D01*
X006024Y004168D01*
X006043Y004159D01*
X006060Y004147D01*
X006075Y004132D01*
X006087Y004115D01*
X006096Y004096D01*
X006101Y004076D01*
X006103Y004055D01*
X006101Y004034D01*
X006096Y004014D01*
X006087Y003995D01*
X006075Y003978D01*
X006060Y003963D01*
X006043Y003951D01*
X006024Y003942D01*
X006004Y003937D01*
X005983Y003935D01*
D13*
X006029Y005486D02*
X005716Y005800D01*
X005716Y005643D02*
X006029Y005643D01*
X006029Y005800D02*
X005716Y005486D01*
X005873Y005486D02*
X005873Y005800D01*
D14*
X006881Y011370D02*
X007393Y011370D01*
X007393Y012040D02*
X006881Y012040D01*
X007843Y013305D02*
X007843Y014105D01*
X003723Y012479D02*
X003683Y012479D01*
X003683Y012440D01*
D15*
X006883Y010494D02*
X006883Y010376D01*
X008103Y010376D02*
X008103Y010494D01*
M02*
