G75*
G70*
%OFA0B0*%
%FSLAX24Y24*%
%IPPOS*%
%LPD*%
%AMOC8*
5,1,8,0,0,1.08239X$1,22.5*
%
%ADD10R,0.0250X0.0500*%
%ADD11R,0.0394X0.0433*%
%ADD12R,0.0079X0.0394*%
%ADD13R,0.0394X0.0079*%
%ADD14R,0.0433X0.0394*%
%ADD15R,0.0220X0.0590*%
%ADD16R,0.0118X0.0390*%
%ADD17R,0.0748X0.0433*%
%ADD18R,0.0500X0.0750*%
%ADD19R,0.1500X0.0750*%
%ADD20R,0.0236X0.0315*%
%ADD21R,0.0197X0.0315*%
%ADD22R,0.0551X0.0630*%
D10*
X008335Y004303D03*
X008995Y004303D03*
X008995Y005163D03*
X008335Y005163D03*
D11*
X008965Y005848D03*
X008965Y006518D03*
X008965Y003618D03*
X008965Y002948D03*
X008365Y002948D03*
X007815Y002948D03*
X007815Y003618D03*
X008365Y003618D03*
X007265Y003618D03*
X006715Y003618D03*
X006715Y002948D03*
X007265Y002948D03*
X004615Y007998D03*
X004615Y008668D03*
X008430Y013833D03*
X009099Y013833D03*
X010030Y013833D03*
X010699Y013833D03*
X009599Y011183D03*
X009599Y010533D03*
X008930Y010533D03*
X008930Y011183D03*
D12*
G36*
X006794Y010240D02*
X006739Y010185D01*
X006462Y010462D01*
X006517Y010517D01*
X006794Y010240D01*
G37*
G36*
X006654Y010101D02*
X006599Y010046D01*
X006322Y010323D01*
X006377Y010378D01*
X006654Y010101D01*
G37*
G36*
X006515Y009962D02*
X006460Y009907D01*
X006183Y010184D01*
X006238Y010239D01*
X006515Y009962D01*
G37*
G36*
X006376Y009823D02*
X006321Y009768D01*
X006044Y010045D01*
X006099Y010100D01*
X006376Y009823D01*
G37*
G36*
X006237Y009684D02*
X006182Y009629D01*
X005905Y009906D01*
X005960Y009961D01*
X006237Y009684D01*
G37*
G36*
X006098Y009544D02*
X006043Y009489D01*
X005766Y009766D01*
X005821Y009821D01*
X006098Y009544D01*
G37*
G36*
X005958Y009405D02*
X005903Y009350D01*
X005626Y009627D01*
X005681Y009682D01*
X005958Y009405D01*
G37*
G36*
X005819Y009266D02*
X005764Y009211D01*
X005487Y009488D01*
X005542Y009543D01*
X005819Y009266D01*
G37*
G36*
X005680Y009127D02*
X005625Y009072D01*
X005348Y009349D01*
X005403Y009404D01*
X005680Y009127D01*
G37*
G36*
X005541Y008988D02*
X005486Y008933D01*
X005209Y009210D01*
X005264Y009265D01*
X005541Y008988D01*
G37*
G36*
X005402Y008848D02*
X005347Y008793D01*
X005070Y009070D01*
X005125Y009125D01*
X005402Y008848D01*
G37*
G36*
X005262Y008709D02*
X005207Y008654D01*
X004930Y008931D01*
X004985Y008986D01*
X005262Y008709D01*
G37*
G36*
X007768Y006204D02*
X007713Y006149D01*
X007436Y006426D01*
X007491Y006481D01*
X007768Y006204D01*
G37*
G36*
X007907Y006343D02*
X007852Y006288D01*
X007575Y006565D01*
X007630Y006620D01*
X007907Y006343D01*
G37*
G36*
X008046Y006482D02*
X007991Y006427D01*
X007714Y006704D01*
X007769Y006759D01*
X008046Y006482D01*
G37*
G36*
X008186Y006621D02*
X008131Y006566D01*
X007854Y006843D01*
X007909Y006898D01*
X008186Y006621D01*
G37*
G36*
X008325Y006761D02*
X008270Y006706D01*
X007993Y006983D01*
X008048Y007038D01*
X008325Y006761D01*
G37*
G36*
X008464Y006900D02*
X008409Y006845D01*
X008132Y007122D01*
X008187Y007177D01*
X008464Y006900D01*
G37*
G36*
X008603Y007039D02*
X008548Y006984D01*
X008271Y007261D01*
X008326Y007316D01*
X008603Y007039D01*
G37*
G36*
X008742Y007178D02*
X008687Y007123D01*
X008410Y007400D01*
X008465Y007455D01*
X008742Y007178D01*
G37*
G36*
X008882Y007317D02*
X008827Y007262D01*
X008550Y007539D01*
X008605Y007594D01*
X008882Y007317D01*
G37*
G36*
X009021Y007457D02*
X008966Y007402D01*
X008689Y007679D01*
X008744Y007734D01*
X009021Y007457D01*
G37*
G36*
X009160Y007596D02*
X009105Y007541D01*
X008828Y007818D01*
X008883Y007873D01*
X009160Y007596D01*
G37*
G36*
X009299Y007735D02*
X009244Y007680D01*
X008967Y007957D01*
X009022Y008012D01*
X009299Y007735D01*
G37*
D13*
G36*
X009299Y008931D02*
X009022Y008654D01*
X008967Y008709D01*
X009244Y008986D01*
X009299Y008931D01*
G37*
G36*
X009160Y009070D02*
X008883Y008793D01*
X008828Y008848D01*
X009105Y009125D01*
X009160Y009070D01*
G37*
G36*
X009021Y009210D02*
X008744Y008933D01*
X008689Y008988D01*
X008966Y009265D01*
X009021Y009210D01*
G37*
G36*
X008882Y009349D02*
X008605Y009072D01*
X008550Y009127D01*
X008827Y009404D01*
X008882Y009349D01*
G37*
G36*
X008742Y009488D02*
X008465Y009211D01*
X008410Y009266D01*
X008687Y009543D01*
X008742Y009488D01*
G37*
G36*
X008603Y009627D02*
X008326Y009350D01*
X008271Y009405D01*
X008548Y009682D01*
X008603Y009627D01*
G37*
G36*
X008464Y009766D02*
X008187Y009489D01*
X008132Y009544D01*
X008409Y009821D01*
X008464Y009766D01*
G37*
G36*
X008325Y009906D02*
X008048Y009629D01*
X007993Y009684D01*
X008270Y009961D01*
X008325Y009906D01*
G37*
G36*
X008186Y010045D02*
X007909Y009768D01*
X007854Y009823D01*
X008131Y010100D01*
X008186Y010045D01*
G37*
G36*
X008046Y010184D02*
X007769Y009907D01*
X007714Y009962D01*
X007991Y010239D01*
X008046Y010184D01*
G37*
G36*
X007907Y010323D02*
X007630Y010046D01*
X007575Y010101D01*
X007852Y010378D01*
X007907Y010323D01*
G37*
G36*
X007768Y010462D02*
X007491Y010185D01*
X007436Y010240D01*
X007713Y010517D01*
X007768Y010462D01*
G37*
G36*
X005541Y007679D02*
X005264Y007402D01*
X005209Y007457D01*
X005486Y007734D01*
X005541Y007679D01*
G37*
G36*
X005680Y007539D02*
X005403Y007262D01*
X005348Y007317D01*
X005625Y007594D01*
X005680Y007539D01*
G37*
G36*
X005819Y007400D02*
X005542Y007123D01*
X005487Y007178D01*
X005764Y007455D01*
X005819Y007400D01*
G37*
G36*
X005958Y007261D02*
X005681Y006984D01*
X005626Y007039D01*
X005903Y007316D01*
X005958Y007261D01*
G37*
G36*
X006098Y007122D02*
X005821Y006845D01*
X005766Y006900D01*
X006043Y007177D01*
X006098Y007122D01*
G37*
G36*
X006237Y006983D02*
X005960Y006706D01*
X005905Y006761D01*
X006182Y007038D01*
X006237Y006983D01*
G37*
G36*
X006376Y006843D02*
X006099Y006566D01*
X006044Y006621D01*
X006321Y006898D01*
X006376Y006843D01*
G37*
G36*
X006515Y006704D02*
X006238Y006427D01*
X006183Y006482D01*
X006460Y006759D01*
X006515Y006704D01*
G37*
G36*
X006654Y006565D02*
X006377Y006288D01*
X006322Y006343D01*
X006599Y006620D01*
X006654Y006565D01*
G37*
G36*
X006794Y006426D02*
X006517Y006149D01*
X006462Y006204D01*
X006739Y006481D01*
X006794Y006426D01*
G37*
G36*
X005402Y007818D02*
X005125Y007541D01*
X005070Y007596D01*
X005347Y007873D01*
X005402Y007818D01*
G37*
G36*
X005262Y007957D02*
X004985Y007680D01*
X004930Y007735D01*
X005207Y008012D01*
X005262Y007957D01*
G37*
D14*
X006780Y005833D03*
X007449Y005833D03*
X006715Y004918D03*
X006715Y004248D03*
X006780Y010783D03*
X007449Y010783D03*
X008930Y011883D03*
X009599Y011883D03*
X005299Y011883D03*
X004630Y011883D03*
X004530Y013033D03*
X005199Y013033D03*
D15*
X004565Y002743D03*
X005065Y002743D03*
X005565Y002743D03*
X006065Y002743D03*
X006065Y005623D03*
X005565Y005623D03*
X005065Y005623D03*
X004565Y005623D03*
D16*
X009009Y012568D03*
X009265Y012568D03*
X009521Y012568D03*
X009521Y013202D03*
X009265Y013202D03*
X009009Y013202D03*
D17*
X007565Y005225D03*
X007565Y004241D03*
D18*
X007115Y011513D03*
X008025Y011513D03*
X006205Y011513D03*
D19*
X007115Y013953D03*
D20*
X005517Y010978D03*
X005517Y010388D03*
X004513Y010388D03*
X004513Y010978D03*
D21*
X004857Y010978D03*
X005172Y010978D03*
X005172Y010388D03*
X004857Y010388D03*
D22*
X004314Y013783D03*
X005416Y013783D03*
M02*
