G75*
G70*
%OFA0B0*%
%FSLAX24Y24*%
%IPPOS*%
%LPD*%
%AMOC8*
5,1,8,0,0,1.08239X$1,22.5*
%
%ADD10R,0.0630X0.0551*%
%ADD11R,0.0472X0.0217*%
%ADD12C,0.0740*%
%ADD13R,0.0433X0.0748*%
%ADD14R,0.0276X0.0354*%
%ADD15R,0.0394X0.0709*%
%ADD16R,0.0248X0.0327*%
%ADD17R,0.0079X0.0394*%
%ADD18R,0.0394X0.0079*%
%ADD19R,0.0354X0.0276*%
%ADD20R,0.0220X0.0590*%
%ADD21R,0.0390X0.0118*%
%ADD22R,0.0551X0.0630*%
%ADD23C,0.0278*%
%ADD24C,0.0080*%
%ADD25C,0.0160*%
%ADD26C,0.0240*%
D10*
X003743Y010089D03*
X003743Y011191D03*
X006743Y011191D03*
X006743Y010089D03*
D11*
X005755Y010266D03*
X005755Y011014D03*
X004731Y011014D03*
X004731Y010640D03*
X004731Y010266D03*
D12*
X001743Y000640D03*
X001743Y001640D03*
X001743Y002640D03*
X001743Y003640D03*
X001743Y004640D03*
X001743Y005640D03*
X001743Y006640D03*
X001743Y007640D03*
X001743Y008640D03*
X001743Y009640D03*
X001743Y010640D03*
X001743Y011640D03*
X008743Y011640D03*
X008743Y010640D03*
X008743Y009640D03*
X008743Y008640D03*
X008743Y007640D03*
X008743Y006640D03*
X008743Y005640D03*
X008743Y004640D03*
X008743Y003640D03*
X008743Y002640D03*
X008743Y001640D03*
X008743Y000640D03*
D13*
X004296Y002512D03*
X003390Y002512D03*
X003390Y003968D03*
X004296Y003968D03*
D14*
X004099Y004590D03*
X003587Y004590D03*
X004787Y003540D03*
X005299Y003540D03*
X004099Y001840D03*
X003587Y001840D03*
X007387Y007140D03*
X007899Y007140D03*
X004349Y012140D03*
X004349Y012640D03*
X003837Y012640D03*
X003837Y012140D03*
X002999Y011540D03*
X002487Y011540D03*
X002199Y012690D03*
X001687Y012690D03*
D15*
X004792Y011890D03*
X005894Y011890D03*
D16*
X005696Y012640D03*
X004790Y012640D03*
D17*
G36*
X005841Y009324D02*
X005896Y009269D01*
X005619Y008992D01*
X005564Y009047D01*
X005841Y009324D01*
G37*
G36*
X005980Y009185D02*
X006035Y009130D01*
X005758Y008853D01*
X005703Y008908D01*
X005980Y009185D01*
G37*
G36*
X006119Y009046D02*
X006174Y008991D01*
X005897Y008714D01*
X005842Y008769D01*
X006119Y009046D01*
G37*
G36*
X006259Y008907D02*
X006314Y008852D01*
X006037Y008575D01*
X005982Y008630D01*
X006259Y008907D01*
G37*
G36*
X006398Y008768D02*
X006453Y008713D01*
X006176Y008436D01*
X006121Y008491D01*
X006398Y008768D01*
G37*
G36*
X006537Y008628D02*
X006592Y008573D01*
X006315Y008296D01*
X006260Y008351D01*
X006537Y008628D01*
G37*
G36*
X006676Y008489D02*
X006731Y008434D01*
X006454Y008157D01*
X006399Y008212D01*
X006676Y008489D01*
G37*
G36*
X006815Y008350D02*
X006870Y008295D01*
X006593Y008018D01*
X006538Y008073D01*
X006815Y008350D01*
G37*
G36*
X006955Y008211D02*
X007010Y008156D01*
X006733Y007879D01*
X006678Y007934D01*
X006955Y008211D01*
G37*
G36*
X007094Y008072D02*
X007149Y008017D01*
X006872Y007740D01*
X006817Y007795D01*
X007094Y008072D01*
G37*
G36*
X007233Y007932D02*
X007288Y007877D01*
X007011Y007600D01*
X006956Y007655D01*
X007233Y007932D01*
G37*
G36*
X007372Y007793D02*
X007427Y007738D01*
X007150Y007461D01*
X007095Y007516D01*
X007372Y007793D01*
G37*
G36*
X004867Y005288D02*
X004922Y005233D01*
X004645Y004956D01*
X004590Y005011D01*
X004867Y005288D01*
G37*
G36*
X004727Y005427D02*
X004782Y005372D01*
X004505Y005095D01*
X004450Y005150D01*
X004727Y005427D01*
G37*
G36*
X004588Y005566D02*
X004643Y005511D01*
X004366Y005234D01*
X004311Y005289D01*
X004588Y005566D01*
G37*
G36*
X004449Y005705D02*
X004504Y005650D01*
X004227Y005373D01*
X004172Y005428D01*
X004449Y005705D01*
G37*
G36*
X004310Y005844D02*
X004365Y005789D01*
X004088Y005512D01*
X004033Y005567D01*
X004310Y005844D01*
G37*
G36*
X004171Y005984D02*
X004226Y005929D01*
X003949Y005652D01*
X003894Y005707D01*
X004171Y005984D01*
G37*
G36*
X004031Y006123D02*
X004086Y006068D01*
X003809Y005791D01*
X003754Y005846D01*
X004031Y006123D01*
G37*
G36*
X003892Y006262D02*
X003947Y006207D01*
X003670Y005930D01*
X003615Y005985D01*
X003892Y006262D01*
G37*
G36*
X003753Y006401D02*
X003808Y006346D01*
X003531Y006069D01*
X003476Y006124D01*
X003753Y006401D01*
G37*
G36*
X003614Y006540D02*
X003669Y006485D01*
X003392Y006208D01*
X003337Y006263D01*
X003614Y006540D01*
G37*
G36*
X003475Y006680D02*
X003530Y006625D01*
X003253Y006348D01*
X003198Y006403D01*
X003475Y006680D01*
G37*
G36*
X003335Y006819D02*
X003390Y006764D01*
X003113Y006487D01*
X003058Y006542D01*
X003335Y006819D01*
G37*
D18*
G36*
X003113Y007793D02*
X003390Y007516D01*
X003335Y007461D01*
X003058Y007738D01*
X003113Y007793D01*
G37*
G36*
X003253Y007932D02*
X003530Y007655D01*
X003475Y007600D01*
X003198Y007877D01*
X003253Y007932D01*
G37*
G36*
X003392Y008072D02*
X003669Y007795D01*
X003614Y007740D01*
X003337Y008017D01*
X003392Y008072D01*
G37*
G36*
X003531Y008211D02*
X003808Y007934D01*
X003753Y007879D01*
X003476Y008156D01*
X003531Y008211D01*
G37*
G36*
X003670Y008350D02*
X003947Y008073D01*
X003892Y008018D01*
X003615Y008295D01*
X003670Y008350D01*
G37*
G36*
X003809Y008489D02*
X004086Y008212D01*
X004031Y008157D01*
X003754Y008434D01*
X003809Y008489D01*
G37*
G36*
X003949Y008628D02*
X004226Y008351D01*
X004171Y008296D01*
X003894Y008573D01*
X003949Y008628D01*
G37*
G36*
X004088Y008768D02*
X004365Y008491D01*
X004310Y008436D01*
X004033Y008713D01*
X004088Y008768D01*
G37*
G36*
X004227Y008907D02*
X004504Y008630D01*
X004449Y008575D01*
X004172Y008852D01*
X004227Y008907D01*
G37*
G36*
X004366Y009046D02*
X004643Y008769D01*
X004588Y008714D01*
X004311Y008991D01*
X004366Y009046D01*
G37*
G36*
X004505Y009185D02*
X004782Y008908D01*
X004727Y008853D01*
X004450Y009130D01*
X004505Y009185D01*
G37*
G36*
X004645Y009324D02*
X004922Y009047D01*
X004867Y008992D01*
X004590Y009269D01*
X004645Y009324D01*
G37*
G36*
X006593Y006262D02*
X006870Y005985D01*
X006815Y005930D01*
X006538Y006207D01*
X006593Y006262D01*
G37*
G36*
X006733Y006401D02*
X007010Y006124D01*
X006955Y006069D01*
X006678Y006346D01*
X006733Y006401D01*
G37*
G36*
X006872Y006540D02*
X007149Y006263D01*
X007094Y006208D01*
X006817Y006485D01*
X006872Y006540D01*
G37*
G36*
X007011Y006680D02*
X007288Y006403D01*
X007233Y006348D01*
X006956Y006625D01*
X007011Y006680D01*
G37*
G36*
X007150Y006819D02*
X007427Y006542D01*
X007372Y006487D01*
X007095Y006764D01*
X007150Y006819D01*
G37*
G36*
X006454Y006123D02*
X006731Y005846D01*
X006676Y005791D01*
X006399Y006068D01*
X006454Y006123D01*
G37*
G36*
X006315Y005984D02*
X006592Y005707D01*
X006537Y005652D01*
X006260Y005929D01*
X006315Y005984D01*
G37*
G36*
X006176Y005844D02*
X006453Y005567D01*
X006398Y005512D01*
X006121Y005789D01*
X006176Y005844D01*
G37*
G36*
X006037Y005705D02*
X006314Y005428D01*
X006259Y005373D01*
X005982Y005650D01*
X006037Y005705D01*
G37*
G36*
X005897Y005566D02*
X006174Y005289D01*
X006119Y005234D01*
X005842Y005511D01*
X005897Y005566D01*
G37*
G36*
X005758Y005427D02*
X006035Y005150D01*
X005980Y005095D01*
X005703Y005372D01*
X005758Y005427D01*
G37*
G36*
X005619Y005288D02*
X005896Y005011D01*
X005841Y004956D01*
X005564Y005233D01*
X005619Y005288D01*
G37*
D19*
X005243Y004896D03*
X005243Y004384D03*
X005043Y002296D03*
X005043Y001784D03*
X003393Y005234D03*
X003393Y005746D03*
X005243Y009234D03*
X005243Y009746D03*
X007743Y010684D03*
X007743Y011196D03*
D20*
X007193Y004180D03*
X006693Y004180D03*
X006193Y004180D03*
X005693Y004180D03*
X005693Y001300D03*
X006193Y001300D03*
X006693Y001300D03*
X007193Y001300D03*
D21*
X003262Y012084D03*
X003262Y012340D03*
X003262Y012596D03*
X002628Y012596D03*
X002628Y012340D03*
X002628Y012084D03*
D22*
X006892Y012540D03*
X007994Y012540D03*
D23*
X007993Y011790D03*
X007443Y012440D03*
X006943Y011940D03*
X006143Y012440D03*
X005443Y012140D03*
X004243Y010740D03*
X004793Y009740D03*
X004093Y009090D03*
X003743Y009140D03*
X003243Y009140D03*
X002743Y009140D03*
X003893Y007290D03*
X004543Y007440D03*
X004543Y007990D03*
X004793Y008410D03*
X005393Y007490D03*
X005143Y007190D03*
X004643Y006740D03*
X004593Y005940D03*
X004993Y005740D03*
X004593Y004540D03*
X005093Y003990D03*
X005093Y003090D03*
X005393Y002790D03*
X004793Y002790D03*
X004443Y001790D03*
X006193Y003090D03*
X006943Y003190D03*
X007093Y002790D03*
X007943Y001690D03*
X007943Y001190D03*
X006843Y004740D03*
X006343Y005090D03*
X005843Y005890D03*
X006243Y006440D03*
X006843Y007340D03*
X007043Y007040D03*
X006443Y007490D03*
X007193Y008390D03*
X007843Y008390D03*
X007293Y009340D03*
X006993Y009540D03*
X007493Y009740D03*
X007893Y009490D03*
X008293Y007140D03*
X006293Y009190D03*
X005843Y009540D03*
X005683Y008410D03*
X003493Y011740D03*
X002193Y012040D03*
X001993Y012340D03*
X003643Y004940D03*
X002443Y001840D03*
D24*
X003043Y001940D02*
X003043Y005914D01*
X003503Y006374D01*
X003642Y006235D02*
X003393Y005986D01*
X003393Y005746D01*
X003393Y005234D02*
X003643Y004984D01*
X003643Y004940D01*
X003643Y004646D01*
X003587Y004590D01*
X003843Y004790D02*
X003843Y002964D01*
X003390Y002512D01*
X003390Y002037D01*
X003587Y001840D01*
X003593Y001840D01*
X004099Y001840D02*
X004393Y001840D01*
X004443Y001790D01*
X005043Y001790D01*
X005043Y001784D01*
X005043Y002296D02*
X004793Y002546D01*
X004793Y002790D01*
X004793Y003534D01*
X004787Y003540D01*
X004793Y003534D02*
X004793Y004540D01*
X004593Y004540D01*
X004793Y004540D02*
X004793Y004890D01*
X004843Y004890D01*
X004849Y004896D01*
X005243Y004896D01*
X005243Y004840D01*
X005243Y004890D02*
X005243Y004896D01*
X005243Y004940D01*
X005548Y004940D01*
X005730Y005122D01*
X005869Y005261D02*
X005890Y005240D01*
X005893Y005240D01*
X006043Y005090D01*
X006343Y005090D01*
X006343Y005140D01*
X006543Y005340D01*
X006543Y005422D01*
X006287Y005678D01*
X006426Y005818D02*
X007643Y004601D01*
X007643Y004140D01*
X007843Y003940D01*
X007843Y003240D01*
X008043Y003040D01*
X008043Y002140D01*
X008243Y001940D01*
X008243Y001140D01*
X008743Y000640D01*
X008743Y001640D02*
X008743Y001940D01*
X008243Y002440D01*
X008243Y003140D01*
X008043Y003340D01*
X008043Y004040D01*
X007843Y004240D01*
X007843Y004679D01*
X006565Y005957D01*
X006704Y006096D02*
X008043Y004758D01*
X008043Y004340D01*
X008243Y004140D01*
X008243Y003440D01*
X008743Y002940D01*
X008743Y002640D01*
X008743Y003640D02*
X008743Y003940D01*
X008243Y004440D01*
X008243Y004840D01*
X008239Y004840D01*
X006844Y006235D01*
X006983Y006374D02*
X008717Y004640D01*
X008743Y004640D01*
X008743Y005640D02*
X007996Y005640D01*
X007122Y006514D01*
X007261Y006653D02*
X007274Y006640D01*
X008743Y006640D01*
X008293Y007140D02*
X008243Y007140D01*
X008243Y007740D01*
X008043Y007940D01*
X007296Y007940D01*
X007122Y007766D01*
X007122Y007769D01*
X006983Y007906D02*
X007217Y008140D01*
X008243Y008140D01*
X008743Y007640D01*
X008243Y007140D02*
X007899Y007140D01*
X007387Y007140D02*
X007287Y007240D01*
X007087Y007040D01*
X007043Y007040D01*
X007387Y007140D02*
X007387Y007501D01*
X007261Y007627D01*
X006843Y007340D02*
X006743Y007240D01*
X006493Y007240D01*
X005643Y006390D01*
X004354Y006390D01*
X003920Y005957D01*
X003781Y006096D02*
X004425Y006740D01*
X004643Y006740D01*
X004443Y006990D02*
X004843Y006990D01*
X005093Y006740D01*
X005643Y006740D01*
X006393Y007490D01*
X006443Y007490D01*
X006844Y008045D02*
X007189Y008390D01*
X007193Y008390D01*
X007043Y008590D02*
X006893Y008440D01*
X006893Y008372D01*
X006704Y008184D01*
X006565Y008323D02*
X006882Y008640D01*
X006893Y008640D01*
X006893Y009440D01*
X006993Y009540D01*
X006743Y009540D02*
X006643Y009640D01*
X006343Y009640D01*
X005943Y010040D01*
X004543Y010040D01*
X004143Y009640D01*
X003443Y009640D01*
X003243Y009440D01*
X003043Y009440D01*
X002743Y009140D01*
X002943Y008840D02*
X001743Y007640D01*
X002343Y007940D02*
X002343Y007240D01*
X001743Y006640D01*
X002343Y006490D02*
X001743Y005890D01*
X001743Y005640D01*
X002243Y005140D02*
X001743Y004640D01*
X002243Y005140D02*
X002243Y006140D01*
X002543Y006440D01*
X002543Y006690D01*
X002743Y006890D01*
X002743Y007840D01*
X003143Y008240D01*
X003447Y008240D01*
X003642Y008045D01*
X003638Y008045D01*
X003503Y007906D02*
X003368Y008040D01*
X003193Y008040D01*
X002943Y007790D01*
X002943Y006840D01*
X002743Y006640D01*
X002743Y006390D01*
X002443Y006090D01*
X002443Y004340D01*
X001743Y003640D01*
X001743Y002640D02*
X002443Y002640D01*
X002643Y002840D01*
X002643Y006040D01*
X002943Y006340D01*
X002943Y006590D01*
X003493Y007140D01*
X003643Y007140D01*
X003793Y006990D01*
X003993Y006990D01*
X004193Y007190D01*
X004193Y007390D01*
X003993Y007590D01*
X003743Y007590D01*
X003693Y007540D01*
X003590Y007540D01*
X003364Y007766D01*
X003224Y007627D02*
X003562Y007290D01*
X003893Y007290D01*
X003643Y006890D02*
X003743Y006790D01*
X004043Y006790D01*
X004443Y007190D01*
X004443Y007340D01*
X004543Y007440D01*
X004443Y006990D02*
X003993Y006540D01*
X003947Y006540D01*
X003642Y006235D01*
X003364Y006514D02*
X002843Y005993D01*
X002843Y002740D01*
X001743Y001640D01*
X001743Y000640D02*
X003043Y001940D01*
X004099Y001840D02*
X004199Y001740D01*
X004443Y001790D02*
X004493Y001840D01*
X005043Y002296D02*
X005287Y002296D01*
X005443Y002140D01*
X005443Y001550D01*
X005693Y001300D01*
X006243Y001940D02*
X006643Y001940D01*
X006693Y001890D01*
X006693Y001300D01*
X007193Y001300D02*
X007193Y001940D01*
X006893Y001940D01*
X006693Y002140D01*
X006293Y002140D01*
X005693Y002740D01*
X005693Y003090D01*
X005093Y003090D01*
X005393Y002790D02*
X006243Y001940D01*
X007093Y002790D02*
X007243Y002940D01*
X007243Y004130D01*
X007193Y004180D01*
X006843Y004740D02*
X005693Y004740D01*
X005693Y004180D01*
X005299Y003786D01*
X005299Y003540D01*
X005193Y003990D02*
X005093Y003990D01*
X005193Y003990D02*
X005243Y004040D01*
X005243Y004384D01*
X004843Y004890D02*
X004843Y005035D01*
X004756Y005122D01*
X004774Y005140D01*
X004616Y005261D02*
X004993Y005637D01*
X004993Y005740D01*
X004693Y005840D02*
X004693Y005616D01*
X004477Y005400D01*
X004199Y005678D02*
X004043Y005522D01*
X004043Y005040D01*
X004099Y004984D01*
X004099Y004590D01*
X004099Y004165D01*
X004296Y003968D01*
X003843Y004790D02*
X003893Y004840D01*
X003893Y005651D01*
X004060Y005818D01*
X004593Y005940D02*
X004693Y005840D01*
X005293Y007040D02*
X005143Y007190D01*
X005293Y007040D02*
X005543Y007040D01*
X005693Y007190D01*
X005693Y007340D01*
X005943Y007590D01*
X005943Y008536D01*
X006148Y008741D01*
X006008Y008880D02*
X005683Y008554D01*
X005683Y008410D01*
X005393Y008490D02*
X004873Y008490D01*
X004793Y008410D01*
X004543Y008510D02*
X004796Y008763D01*
X004796Y008840D01*
X004616Y009019D01*
X004756Y009158D02*
X005167Y009158D01*
X005243Y009234D01*
X005243Y009240D01*
X005543Y009240D01*
X005743Y009440D01*
X005843Y009440D01*
X005843Y009540D01*
X005862Y009290D02*
X006193Y009290D01*
X006293Y009190D01*
X006293Y009490D02*
X006493Y009490D01*
X006543Y009440D01*
X006543Y008858D01*
X006287Y008602D01*
X006426Y008462D02*
X006743Y008779D01*
X006743Y009540D01*
X006293Y009490D02*
X005993Y009790D01*
X005693Y009790D01*
X005593Y009690D01*
X005593Y009590D01*
X005493Y009490D01*
X003593Y009490D01*
X003243Y009140D01*
X003243Y009240D01*
X002943Y008840D02*
X003693Y008840D01*
X003693Y008829D01*
X004060Y008462D01*
X003920Y008323D02*
X003604Y008640D01*
X003043Y008640D01*
X002343Y007940D01*
X002543Y007890D02*
X002543Y006940D01*
X002343Y006740D01*
X002343Y006490D01*
X003224Y006653D02*
X003462Y006890D01*
X003643Y006890D01*
X003781Y008184D02*
X003525Y008440D01*
X003093Y008440D01*
X002543Y007890D01*
X003743Y009140D02*
X003943Y009340D01*
X004574Y009340D01*
X004756Y009158D01*
X004793Y009740D02*
X004799Y009746D01*
X005243Y009746D01*
X005243Y009740D01*
X005755Y010266D02*
X006079Y010590D01*
X007143Y010590D01*
X007243Y010690D01*
X007243Y012090D01*
X007443Y012290D01*
X007443Y012440D01*
X007443Y011989D02*
X007994Y012540D01*
X007443Y011989D02*
X007443Y010940D01*
X007699Y010684D01*
X007743Y010684D01*
X007743Y010040D01*
X008143Y009640D01*
X008743Y009640D01*
X008143Y009640D02*
X008043Y009640D01*
X007893Y009490D01*
X007493Y009740D02*
X007093Y010140D01*
X006794Y010140D01*
X006743Y010089D01*
X007293Y009340D02*
X007043Y009090D01*
X007043Y008590D01*
X005869Y009019D02*
X005393Y008543D01*
X005393Y008490D01*
X005393Y007490D01*
X004543Y007990D02*
X004543Y008510D01*
X004338Y008741D02*
X004093Y008986D01*
X004093Y009090D01*
X003743Y010089D02*
X003743Y010140D01*
X002243Y010140D01*
X001743Y010640D01*
X001743Y010796D01*
X002487Y011540D01*
X002487Y011943D01*
X002628Y012084D01*
X002628Y012340D02*
X002343Y012340D01*
X002193Y012190D01*
X002193Y012040D01*
X002043Y012040D01*
X001993Y012090D01*
X001893Y012090D01*
X001693Y012290D01*
X001693Y012684D01*
X001687Y012690D01*
X001743Y012634D01*
X001993Y012484D02*
X001993Y012340D01*
X001993Y012484D02*
X002199Y012690D01*
X002293Y012596D01*
X002628Y012596D01*
X002943Y012740D02*
X002943Y012440D01*
X003043Y012340D01*
X003262Y012340D01*
X003262Y012084D01*
X002999Y011821D01*
X002999Y011540D01*
X002487Y011540D02*
X002443Y011540D01*
X002193Y012040D02*
X002093Y012040D01*
X002193Y012040D02*
X002199Y012046D01*
X002199Y012596D02*
X002199Y012690D01*
X001393Y011890D02*
X001643Y011640D01*
X001743Y011640D01*
X001393Y011890D02*
X001393Y012940D01*
X001443Y012990D01*
X004093Y012990D01*
X004093Y011590D01*
X004669Y011014D01*
X004731Y011014D01*
X004957Y011240D01*
X006743Y011240D01*
X006743Y011191D01*
X006943Y011940D02*
X006892Y011991D01*
X006892Y012540D01*
X006143Y012440D02*
X005943Y012640D01*
X005943Y012940D01*
X005443Y012940D01*
X005243Y012740D01*
X005243Y012340D01*
X004793Y011890D01*
X004792Y011890D01*
X004792Y012197D01*
X004349Y012640D01*
X004093Y012990D02*
X004743Y012990D01*
X004743Y012640D01*
X004790Y012640D01*
X004743Y012640D02*
X004743Y012540D01*
X004349Y012140D02*
X004343Y012134D01*
X004343Y011590D01*
X004543Y011390D01*
X005093Y011390D01*
X005443Y011740D01*
X005443Y012140D01*
X005696Y012487D02*
X005696Y012640D01*
X005743Y012640D01*
X005696Y012487D02*
X005843Y012340D01*
X005843Y011941D01*
X005894Y011890D01*
X006143Y012340D02*
X006143Y012440D01*
X004757Y011040D02*
X004731Y011014D01*
X003837Y012140D02*
X003743Y012140D01*
X003593Y012290D01*
X003593Y012540D01*
X003543Y012590D01*
X003268Y012590D01*
X003262Y012596D01*
X002993Y012790D02*
X002943Y012740D01*
X002993Y012790D02*
X003643Y012790D01*
X003793Y012640D01*
X003837Y012640D01*
X003493Y011740D02*
X003493Y011441D01*
X003743Y011191D01*
X005724Y009158D02*
X005730Y009158D01*
X005862Y009290D01*
X007743Y011196D02*
X008299Y011196D01*
X008743Y011640D01*
X005843Y005890D02*
X005843Y005566D01*
X006008Y005400D01*
X006193Y004180D02*
X006193Y003640D01*
X006643Y003190D01*
X006943Y003190D01*
D25*
X004731Y010640D02*
X004343Y010640D01*
X004243Y010740D01*
D26*
X004731Y011014D02*
X005019Y011014D01*
X005193Y010840D01*
X005193Y010440D01*
X005019Y010266D01*
X004731Y010266D01*
M02*
