G75*
G70*
%OFA0B0*%
%FSLAX24Y24*%
%IPPOS*%
%LPD*%
%AMOC8*
5,1,8,0,0,1.08239X$1,22.5*
%
%ADD10C,0.0318*%
%ADD11C,0.0550*%
%ADD12C,0.0278*%
%ADD13C,0.0320*%
%ADD14C,0.0240*%
%ADD15C,0.0060*%
%ADD16C,0.0500*%
%ADD17C,0.0120*%
%ADD18C,0.0080*%
%ADD19C,0.0200*%
D10*
X004150Y013755D03*
X006335Y013755D03*
D11*
X008743Y012755D03*
X008743Y011755D03*
X008743Y010755D03*
X008743Y009755D03*
X008743Y008755D03*
X008743Y007755D03*
X008743Y006755D03*
X008743Y005755D03*
X008743Y004755D03*
X008743Y003755D03*
X008743Y002755D03*
X008743Y001755D03*
X001743Y001755D03*
X001743Y002755D03*
X001743Y003755D03*
X001743Y004755D03*
X001743Y005755D03*
X001743Y006755D03*
X001743Y007755D03*
X001743Y008755D03*
X001743Y009755D03*
X001743Y010755D03*
X001743Y011755D03*
X001743Y012755D03*
D12*
X001603Y013375D03*
X002343Y012895D03*
X002343Y012505D03*
X002343Y010785D03*
X002343Y010315D03*
X002443Y009825D03*
X002713Y010035D03*
X003492Y008445D03*
X003663Y007935D03*
X004273Y008455D03*
X004753Y008465D03*
X005143Y007945D03*
X005083Y007435D03*
X005043Y006955D03*
X005443Y006955D03*
X005943Y007075D03*
X006433Y008245D03*
X006663Y008675D03*
X006793Y008355D03*
X007093Y008155D03*
X007673Y009695D03*
X008013Y009805D03*
X008093Y011235D03*
X007803Y011635D03*
X007963Y011955D03*
X007953Y012475D03*
X007673Y013395D03*
X006853Y012865D03*
X006443Y013055D03*
X007153Y011345D03*
X006773Y011265D03*
X006593Y010745D03*
X006443Y010245D03*
X006073Y010635D03*
X006083Y008655D03*
X005563Y008345D03*
X005233Y008455D03*
X004473Y010655D03*
X004273Y010855D03*
X003903Y010835D03*
X003841Y010253D03*
X002493Y008175D03*
X005063Y004475D03*
X005973Y005415D03*
X006433Y003975D03*
X006083Y003865D03*
X006923Y003905D03*
X007083Y004585D03*
X007063Y005075D03*
X006993Y006025D03*
X008073Y004115D03*
X007793Y001605D03*
X006443Y001605D03*
X005343Y001605D03*
X004293Y001605D03*
X003043Y001605D03*
X002693Y001205D03*
X002693Y000505D03*
X002143Y000755D03*
X001743Y001155D03*
X002543Y002865D03*
X008243Y008255D03*
X003893Y012635D03*
X003693Y013305D03*
D13*
X004153Y013605D02*
X004153Y013915D01*
X004923Y012575D02*
X006563Y012575D01*
X006853Y012865D01*
X006333Y013605D02*
X006333Y013915D01*
X004923Y012575D02*
X004483Y012135D01*
X003623Y012135D01*
X003083Y012675D01*
X003083Y013035D01*
X002723Y013395D01*
X002203Y013395D01*
X001743Y012935D01*
X001743Y012755D01*
D14*
X003843Y013155D02*
X004053Y013155D01*
X003843Y013155D02*
X003820Y013157D01*
X003797Y013162D01*
X003775Y013171D01*
X003755Y013184D01*
X003737Y013199D01*
X003722Y013217D01*
X003709Y013237D01*
X003700Y013259D01*
X003695Y013282D01*
X003693Y013305D01*
X004053Y013155D02*
X004085Y013156D01*
X004117Y013161D01*
X004148Y013168D01*
X004179Y013178D01*
X004208Y013191D01*
X004236Y013207D01*
X004263Y013225D01*
X004296Y013247D01*
X004331Y013266D01*
X004367Y013281D01*
X004406Y013293D01*
X004445Y013301D01*
X004484Y013305D01*
X004524Y013306D01*
X004564Y013302D01*
X004603Y013295D01*
X005973Y013295D01*
X006019Y013293D01*
X006064Y013288D01*
X006109Y013279D01*
X006153Y013267D01*
X006195Y013251D01*
X006237Y013232D01*
X006277Y013209D01*
X006314Y013184D01*
X006350Y013156D01*
X006384Y013125D01*
X006415Y013091D01*
X006443Y013055D01*
D15*
X001353Y014145D02*
X001353Y001455D01*
X001527Y001455D01*
X001433Y001548D01*
X001378Y001682D01*
X001378Y001828D01*
X001433Y001962D01*
X001536Y002064D01*
X001670Y002120D01*
X001815Y002120D01*
X001950Y002064D01*
X002052Y001962D01*
X002108Y001828D01*
X002108Y001682D01*
X002052Y001548D01*
X001959Y001455D01*
X002869Y001455D01*
X002814Y001510D01*
X002814Y001700D01*
X002948Y001834D01*
X003138Y001834D01*
X003272Y001700D01*
X003272Y001510D01*
X003217Y001455D01*
X004119Y001455D01*
X004064Y001510D01*
X004064Y001700D01*
X004198Y001834D01*
X004388Y001834D01*
X004522Y001700D01*
X004522Y001510D01*
X004467Y001455D01*
X005169Y001455D01*
X005114Y001510D01*
X005114Y001700D01*
X005248Y001834D01*
X005438Y001834D01*
X005572Y001700D01*
X005572Y001510D01*
X005517Y001455D01*
X006269Y001455D01*
X006214Y001510D01*
X006214Y001700D01*
X006348Y001834D01*
X006538Y001834D01*
X006672Y001700D01*
X006672Y001510D01*
X006617Y001455D01*
X007619Y001455D01*
X007564Y001510D01*
X007564Y001700D01*
X007698Y001834D01*
X007888Y001834D01*
X008022Y001700D01*
X008022Y001510D01*
X007967Y001455D01*
X008527Y001455D01*
X008433Y001548D01*
X008378Y001682D01*
X008378Y001828D01*
X008433Y001962D01*
X008536Y002064D01*
X008670Y002120D01*
X008815Y002120D01*
X008950Y002064D01*
X009052Y001962D01*
X009108Y001828D01*
X009108Y001682D01*
X009052Y001548D01*
X008959Y001455D01*
X009133Y001455D01*
X009133Y012640D01*
X009132Y012637D01*
X009102Y012563D01*
X009057Y012497D01*
X009001Y012440D01*
X008935Y012396D01*
X008861Y012366D01*
X008783Y012350D01*
X008773Y012350D01*
X008773Y012725D01*
X008713Y012725D01*
X008713Y012350D01*
X008703Y012350D01*
X008625Y012366D01*
X008551Y012396D01*
X008485Y012440D01*
X008473Y012452D01*
X008473Y012001D01*
X008536Y012064D01*
X008670Y012120D01*
X008815Y012120D01*
X008950Y012064D01*
X009052Y011962D01*
X009108Y011828D01*
X009108Y011682D01*
X009052Y011548D01*
X008950Y011446D01*
X008815Y011390D01*
X008697Y011390D01*
X008822Y011265D01*
X008933Y011154D01*
X008933Y011071D01*
X008950Y011064D01*
X009052Y010962D01*
X009108Y010828D01*
X009108Y010682D01*
X009052Y010548D01*
X008950Y010446D01*
X008815Y010390D01*
X008670Y010390D01*
X008536Y010446D01*
X008433Y010548D01*
X008410Y010605D01*
X008355Y010605D01*
X007674Y009924D01*
X007768Y009924D01*
X007788Y009904D01*
X007918Y010034D01*
X008108Y010034D01*
X008242Y009900D01*
X008242Y009710D01*
X008108Y009576D01*
X007918Y009576D01*
X007898Y009596D01*
X007768Y009466D01*
X007578Y009466D01*
X007444Y009600D01*
X007444Y009694D01*
X006654Y008904D01*
X006758Y008904D01*
X006892Y008770D01*
X006892Y008580D01*
X006892Y008580D01*
X007022Y008450D01*
X007022Y008260D01*
X006888Y008126D01*
X006698Y008126D01*
X006662Y008162D01*
X006662Y008150D01*
X006528Y008016D01*
X006384Y008016D01*
X007055Y007345D01*
X007055Y007345D01*
X007143Y007257D01*
X007143Y006199D01*
X007222Y006120D01*
X007222Y005930D01*
X007088Y005796D01*
X006898Y005796D01*
X006764Y005930D01*
X006764Y006120D01*
X006843Y006199D01*
X006843Y007133D01*
X005933Y008043D01*
X005933Y008481D01*
X005854Y008560D01*
X005854Y008632D01*
X005797Y008575D01*
X005537Y008575D01*
X005536Y008574D01*
X005658Y008574D01*
X005792Y008440D01*
X005792Y008250D01*
X005658Y008116D01*
X005518Y008116D01*
X005467Y008065D01*
X005347Y008065D01*
X005372Y008040D01*
X005372Y007850D01*
X005238Y007716D01*
X005126Y007716D01*
X005074Y007664D01*
X005178Y007664D01*
X005312Y007530D01*
X005312Y007340D01*
X005178Y007206D01*
X004988Y007206D01*
X004893Y007301D01*
X004893Y006147D01*
X006906Y004134D01*
X007018Y004134D01*
X007152Y004000D01*
X007152Y003810D01*
X007018Y003676D01*
X006828Y003676D01*
X006694Y003810D01*
X006694Y003922D01*
X006662Y003954D01*
X006662Y003880D01*
X006528Y003746D01*
X006338Y003746D01*
X006204Y003880D01*
X006204Y003992D01*
X004431Y005765D01*
X004343Y005853D01*
X004343Y007933D01*
X004211Y008065D01*
X004123Y008153D01*
X004123Y008281D01*
X004044Y008360D01*
X004044Y008550D01*
X004178Y008684D01*
X004368Y008684D01*
X004502Y008550D01*
X004502Y008360D01*
X004423Y008281D01*
X004423Y008277D01*
X004643Y008057D01*
X004643Y007657D01*
X004914Y007928D01*
X004914Y008040D01*
X005019Y008145D01*
X004888Y008276D01*
X004848Y008236D01*
X004658Y008236D01*
X004524Y008370D01*
X004524Y008560D01*
X004658Y008694D01*
X004848Y008694D01*
X004878Y008664D01*
X004939Y008725D01*
X005249Y009035D01*
X005639Y009035D01*
X007363Y010759D01*
X007363Y011231D01*
X007248Y011116D01*
X007058Y011116D01*
X007002Y011172D01*
X007002Y011170D01*
X006868Y011036D01*
X006678Y011036D01*
X006544Y011170D01*
X006544Y011360D01*
X006678Y011494D01*
X006868Y011494D01*
X006924Y011438D01*
X006924Y011440D01*
X007058Y011574D01*
X007248Y011574D01*
X007363Y011459D01*
X007363Y011859D01*
X007439Y011935D01*
X007513Y012009D01*
X007589Y012085D01*
X007769Y012085D01*
X007868Y012184D01*
X008058Y012184D01*
X008093Y012149D01*
X008093Y012291D01*
X008048Y012246D01*
X007858Y012246D01*
X007724Y012380D01*
X007724Y012570D01*
X007858Y012704D01*
X007915Y012704D01*
X007483Y013136D01*
X007483Y013261D01*
X007444Y013300D01*
X007444Y013490D01*
X007578Y013624D01*
X007768Y013624D01*
X007902Y013490D01*
X007902Y013300D01*
X007879Y013277D01*
X008342Y012815D01*
X008353Y012873D01*
X008384Y012947D01*
X008428Y013013D01*
X008485Y013070D01*
X008551Y013114D01*
X008625Y013144D01*
X008703Y013160D01*
X008713Y013160D01*
X008713Y012785D01*
X008773Y012785D01*
X008773Y013160D01*
X008783Y013160D01*
X008861Y013144D01*
X008935Y013114D01*
X009001Y013070D01*
X009057Y013013D01*
X009102Y012947D01*
X009132Y012873D01*
X009133Y012870D01*
X009133Y014145D01*
X006522Y014145D01*
X006522Y014143D01*
X006538Y014123D01*
X006541Y014122D01*
X006546Y014114D01*
X006552Y014107D01*
X006551Y014103D01*
X006563Y014081D01*
X006566Y014080D01*
X006569Y014071D01*
X006573Y014062D01*
X006572Y014059D01*
X006580Y014035D01*
X006582Y014033D01*
X006583Y014024D01*
X006586Y014015D01*
X006584Y014012D01*
X006587Y013989D01*
X006588Y013987D01*
X006588Y013976D01*
X006589Y013966D01*
X006588Y013964D01*
X006588Y013546D01*
X006589Y013544D01*
X006588Y013534D01*
X006588Y013523D01*
X006587Y013521D01*
X006584Y013498D01*
X006586Y013495D01*
X006583Y013486D01*
X006582Y013477D01*
X006580Y013475D01*
X006572Y013451D01*
X006573Y013448D01*
X006569Y013439D01*
X006566Y013430D01*
X006563Y013429D01*
X006551Y013407D01*
X006552Y013403D01*
X006546Y013396D01*
X006541Y013388D01*
X006538Y013387D01*
X006522Y013367D01*
X006522Y013364D01*
X006515Y013358D01*
X006509Y013351D01*
X006505Y013350D01*
X006486Y013335D01*
X006485Y013331D01*
X006477Y013327D01*
X006476Y013326D01*
X006533Y013284D01*
X006538Y013284D01*
X006672Y013150D01*
X006672Y013038D01*
X006711Y013077D01*
X006803Y013115D01*
X006903Y013115D01*
X006994Y013077D01*
X007065Y013007D01*
X007103Y012915D01*
X007103Y012815D01*
X007065Y012723D01*
X006704Y012363D01*
X006613Y012325D01*
X005026Y012325D01*
X004624Y011923D01*
X004533Y011885D01*
X003573Y011885D01*
X003481Y011923D01*
X003411Y011993D01*
X002871Y012533D01*
X002833Y012625D01*
X002833Y012931D01*
X002619Y013145D01*
X002306Y013145D01*
X002285Y013124D01*
X002438Y013124D01*
X002572Y012990D01*
X002572Y012800D01*
X002438Y012666D01*
X002248Y012666D01*
X002114Y012800D01*
X002114Y012952D01*
X002073Y012912D01*
X002108Y012828D01*
X002108Y012682D01*
X002052Y012548D01*
X001950Y012446D01*
X001815Y012390D01*
X001670Y012390D01*
X001536Y012446D01*
X001433Y012548D01*
X001378Y012682D01*
X001378Y012828D01*
X001433Y012962D01*
X001519Y013047D01*
X001531Y013077D01*
X001600Y013146D01*
X001508Y013146D01*
X001374Y013280D01*
X001374Y013470D01*
X001508Y013604D01*
X001698Y013604D01*
X001832Y013470D01*
X001832Y013378D01*
X001991Y013537D01*
X001991Y013537D01*
X002061Y013607D01*
X002153Y013645D01*
X002773Y013645D01*
X002864Y013607D01*
X002935Y013537D01*
X003224Y013247D01*
X003295Y013177D01*
X003333Y013085D01*
X003333Y012779D01*
X003726Y012385D01*
X004379Y012385D01*
X004711Y012717D01*
X004781Y012787D01*
X004873Y012825D01*
X005727Y012825D01*
X005717Y012858D01*
X005715Y012860D01*
X005714Y012869D01*
X005711Y012878D01*
X005713Y012881D01*
X005710Y012916D01*
X005708Y012919D01*
X005709Y012928D01*
X005708Y012938D01*
X005710Y012940D01*
X005713Y012975D01*
X005712Y012978D01*
X005715Y012987D01*
X005715Y012997D01*
X005718Y012999D01*
X005728Y013032D01*
X005727Y013035D01*
X005732Y013044D01*
X005734Y013053D01*
X005737Y013054D01*
X005754Y013085D01*
X004734Y013085D01*
X004734Y013085D01*
X004750Y013054D01*
X004753Y013052D01*
X004755Y013043D01*
X004760Y013035D01*
X004759Y013032D01*
X004769Y012998D01*
X004771Y012996D01*
X004772Y012987D01*
X004775Y012977D01*
X004773Y012975D01*
X004776Y012940D01*
X004778Y012937D01*
X004777Y012928D01*
X004778Y012918D01*
X004776Y012916D01*
X004772Y012881D01*
X004773Y012878D01*
X004770Y012869D01*
X004769Y012860D01*
X004767Y012858D01*
X004756Y012825D01*
X004757Y012822D01*
X004753Y012813D01*
X004750Y012804D01*
X004747Y012803D01*
X004730Y012772D01*
X004731Y012769D01*
X004725Y012761D01*
X004720Y012753D01*
X004717Y012752D01*
X004695Y012725D01*
X004695Y012722D01*
X004687Y012716D01*
X004681Y012709D01*
X004678Y012708D01*
X004651Y012686D01*
X004650Y012683D01*
X004642Y012679D01*
X004635Y012673D01*
X004631Y012673D01*
X004601Y012656D01*
X004599Y012653D01*
X004590Y012651D01*
X004582Y012646D01*
X004579Y012647D01*
X004546Y012637D01*
X004543Y012634D01*
X004534Y012633D01*
X004525Y012630D01*
X004522Y012632D01*
X004487Y012628D01*
X004485Y012626D01*
X004475Y012626D01*
X004466Y012625D01*
X004463Y012627D01*
X004428Y012630D01*
X004425Y012629D01*
X004416Y012632D01*
X004407Y012632D01*
X004405Y012635D01*
X004371Y012645D01*
X004368Y012644D01*
X004359Y012648D01*
X004350Y012651D01*
X004349Y012654D01*
X004317Y012670D01*
X004314Y012670D01*
X004307Y012676D01*
X004298Y012680D01*
X004297Y012684D01*
X004270Y012706D01*
X004266Y012706D01*
X004261Y012714D01*
X004253Y012720D01*
X004253Y012723D01*
X004230Y012750D01*
X004227Y012751D01*
X004223Y012760D01*
X004217Y012767D01*
X004217Y012770D01*
X004201Y012802D01*
X004198Y012803D01*
X004195Y012812D01*
X004191Y012821D01*
X004192Y012824D01*
X004182Y012858D01*
X004179Y012860D01*
X004178Y012869D01*
X004176Y012878D01*
X004177Y012881D01*
X004174Y012916D01*
X004172Y012919D01*
X004173Y012928D01*
X004172Y012938D01*
X004174Y012940D01*
X004176Y012956D01*
X004144Y012945D01*
X003746Y012945D01*
X003579Y013041D01*
X003579Y013041D01*
X003579Y013041D01*
X003507Y013167D01*
X003464Y013210D01*
X003464Y013400D01*
X003598Y013534D01*
X003788Y013534D01*
X003922Y013400D01*
X003922Y013365D01*
X003966Y013365D01*
X003965Y013366D01*
X003965Y013369D01*
X003948Y013389D01*
X003945Y013390D01*
X003941Y013398D01*
X003935Y013406D01*
X003935Y013409D01*
X003923Y013432D01*
X003920Y013433D01*
X003917Y013442D01*
X003913Y013451D01*
X003914Y013454D01*
X003906Y013479D01*
X003903Y013481D01*
X003903Y013490D01*
X003900Y013499D01*
X003901Y013502D01*
X003899Y013526D01*
X003898Y013528D01*
X003898Y013539D01*
X003897Y013549D01*
X003898Y013551D01*
X003898Y013964D01*
X003897Y013966D01*
X003898Y013976D01*
X003898Y013987D01*
X003899Y013989D01*
X003901Y014012D01*
X003900Y014015D01*
X003902Y014024D01*
X003903Y014033D01*
X003906Y014035D01*
X003913Y014059D01*
X003912Y014062D01*
X003917Y014071D01*
X003919Y014080D01*
X003922Y014081D01*
X003934Y014103D01*
X003934Y014107D01*
X003940Y014114D01*
X003944Y014122D01*
X003947Y014123D01*
X003963Y014143D01*
X003964Y014145D01*
X001353Y014145D01*
X001353Y014120D02*
X003943Y014120D01*
X003913Y014061D02*
X001353Y014061D01*
X001353Y014003D02*
X003900Y014003D01*
X003898Y013944D02*
X001353Y013944D01*
X001353Y013886D02*
X003898Y013886D01*
X003898Y013827D02*
X001353Y013827D01*
X001353Y013769D02*
X003898Y013769D01*
X003898Y013710D02*
X001353Y013710D01*
X001353Y013652D02*
X003898Y013652D01*
X003898Y013593D02*
X002878Y013593D01*
X002937Y013535D02*
X003898Y013535D01*
X003907Y013476D02*
X003846Y013476D01*
X003904Y013418D02*
X003930Y013418D01*
X003637Y013008D02*
X003333Y013008D01*
X003333Y012950D02*
X003738Y012950D01*
X003798Y012864D02*
X003664Y012730D01*
X003664Y012540D01*
X003571Y012540D01*
X003513Y012599D02*
X003664Y012599D01*
X003664Y012657D02*
X003454Y012657D01*
X003396Y012716D02*
X003664Y012716D01*
X003708Y012774D02*
X003337Y012774D01*
X003333Y012833D02*
X003766Y012833D01*
X003798Y012864D02*
X003988Y012864D01*
X004122Y012730D01*
X004122Y012540D01*
X003988Y012406D01*
X003798Y012406D01*
X003664Y012540D01*
X003630Y012482D02*
X003722Y012482D01*
X003688Y012423D02*
X003781Y012423D01*
X004005Y012423D02*
X004417Y012423D01*
X004476Y012482D02*
X004063Y012482D01*
X004122Y012540D02*
X004534Y012540D01*
X004593Y012599D02*
X004122Y012599D01*
X004122Y012657D02*
X004342Y012657D01*
X004258Y012716D02*
X004122Y012716D01*
X004078Y012774D02*
X004215Y012774D01*
X004189Y012833D02*
X004019Y012833D01*
X004177Y012891D02*
X003333Y012891D01*
X003333Y013067D02*
X003565Y013067D01*
X003531Y013125D02*
X003316Y013125D01*
X003288Y013184D02*
X003490Y013184D01*
X003464Y013242D02*
X003229Y013242D01*
X003171Y013301D02*
X003464Y013301D01*
X003464Y013359D02*
X003112Y013359D01*
X003054Y013418D02*
X003481Y013418D01*
X003540Y013476D02*
X002995Y013476D01*
X002698Y013067D02*
X002495Y013067D01*
X002554Y013008D02*
X002756Y013008D01*
X002815Y012950D02*
X002572Y012950D01*
X002572Y012891D02*
X002833Y012891D01*
X002833Y012833D02*
X002572Y012833D01*
X002546Y012774D02*
X002833Y012774D01*
X002833Y012716D02*
X002487Y012716D01*
X002198Y012716D02*
X002108Y012716D01*
X002108Y012774D02*
X002140Y012774D01*
X002114Y012833D02*
X002106Y012833D01*
X002114Y012891D02*
X002082Y012891D01*
X002111Y012950D02*
X002114Y012950D01*
X002286Y013125D02*
X002639Y013125D01*
X002833Y012657D02*
X002097Y012657D01*
X002073Y012599D02*
X002844Y012599D01*
X002868Y012540D02*
X002044Y012540D01*
X001986Y012482D02*
X002923Y012482D01*
X002981Y012423D02*
X001895Y012423D01*
X001815Y012120D02*
X001670Y012120D01*
X001536Y012064D01*
X001433Y011962D01*
X001378Y011828D01*
X001378Y011682D01*
X001433Y011548D01*
X001536Y011446D01*
X001670Y011390D01*
X001815Y011390D01*
X001950Y011446D01*
X002052Y011548D01*
X002108Y011682D01*
X002108Y011828D01*
X002052Y011962D01*
X001950Y012064D01*
X001815Y012120D01*
X001931Y012072D02*
X003332Y012072D01*
X003274Y012131D02*
X001353Y012131D01*
X001353Y012189D02*
X003215Y012189D01*
X003157Y012248D02*
X001353Y012248D01*
X001353Y012306D02*
X003098Y012306D01*
X003040Y012365D02*
X001353Y012365D01*
X001353Y012423D02*
X001590Y012423D01*
X001500Y012482D02*
X001353Y012482D01*
X001353Y012540D02*
X001442Y012540D01*
X001413Y012599D02*
X001353Y012599D01*
X001353Y012657D02*
X001388Y012657D01*
X001378Y012716D02*
X001353Y012716D01*
X001353Y012774D02*
X001378Y012774D01*
X001380Y012833D02*
X001353Y012833D01*
X001353Y012891D02*
X001404Y012891D01*
X001428Y012950D02*
X001353Y012950D01*
X001353Y013008D02*
X001480Y013008D01*
X001527Y013067D02*
X001353Y013067D01*
X001353Y013125D02*
X001579Y013125D01*
X001470Y013184D02*
X001353Y013184D01*
X001353Y013242D02*
X001412Y013242D01*
X001374Y013301D02*
X001353Y013301D01*
X001353Y013359D02*
X001374Y013359D01*
X001374Y013418D02*
X001353Y013418D01*
X001353Y013476D02*
X001380Y013476D01*
X001353Y013535D02*
X001438Y013535D01*
X001497Y013593D02*
X001353Y013593D01*
X001709Y013593D02*
X002047Y013593D01*
X001989Y013535D02*
X001767Y013535D01*
X001826Y013476D02*
X001930Y013476D01*
X001872Y013418D02*
X001832Y013418D01*
X001554Y012072D02*
X001353Y012072D01*
X001353Y012014D02*
X001485Y012014D01*
X001431Y011955D02*
X001353Y011955D01*
X001353Y011897D02*
X001406Y011897D01*
X001382Y011838D02*
X001353Y011838D01*
X001353Y011780D02*
X001378Y011780D01*
X001378Y011721D02*
X001353Y011721D01*
X001353Y011663D02*
X001386Y011663D01*
X001410Y011604D02*
X001353Y011604D01*
X001353Y011546D02*
X001436Y011546D01*
X001495Y011487D02*
X001353Y011487D01*
X001353Y011429D02*
X001577Y011429D01*
X001353Y011370D02*
X006554Y011370D01*
X006544Y011312D02*
X001353Y011312D01*
X001353Y011253D02*
X006544Y011253D01*
X006544Y011195D02*
X001353Y011195D01*
X001353Y011136D02*
X006578Y011136D01*
X006636Y011078D02*
X001918Y011078D01*
X001950Y011064D02*
X001815Y011120D01*
X001670Y011120D01*
X001536Y011064D01*
X001433Y010962D01*
X001378Y010828D01*
X001378Y010682D01*
X001433Y010548D01*
X001536Y010446D01*
X001670Y010390D01*
X001815Y010390D01*
X001950Y010446D01*
X002052Y010548D01*
X002108Y010682D01*
X002108Y010828D01*
X002052Y010962D01*
X001950Y011064D01*
X001995Y011019D02*
X003763Y011019D01*
X003808Y011064D02*
X003674Y010930D01*
X003674Y010740D01*
X003808Y010606D01*
X003998Y010606D01*
X004132Y010740D01*
X004132Y010930D01*
X003998Y011064D01*
X003808Y011064D01*
X003704Y010961D02*
X002053Y010961D01*
X002077Y010902D02*
X003674Y010902D01*
X003674Y010844D02*
X002101Y010844D01*
X002108Y010785D02*
X003674Y010785D01*
X003687Y010727D02*
X002108Y010727D01*
X002102Y010668D02*
X003746Y010668D01*
X003804Y010610D02*
X002078Y010610D01*
X002053Y010551D02*
X005844Y010551D01*
X005844Y010540D02*
X005978Y010406D01*
X006168Y010406D01*
X006302Y010540D01*
X006302Y010730D01*
X006168Y010864D01*
X005978Y010864D01*
X005844Y010730D01*
X005844Y010540D01*
X005891Y010493D02*
X002489Y010493D01*
X002438Y010544D02*
X002572Y010410D01*
X002572Y010220D01*
X002438Y010086D01*
X002333Y010086D01*
X002333Y010039D01*
X002348Y010054D01*
X002538Y010054D01*
X002672Y009920D01*
X002672Y009730D01*
X002573Y009631D01*
X002573Y009548D01*
X003446Y008674D01*
X003587Y008674D01*
X003721Y008540D01*
X003721Y008350D01*
X003587Y008216D01*
X003397Y008216D01*
X003263Y008350D01*
X003263Y008490D01*
X002389Y009364D01*
X002333Y009420D01*
X002333Y009218D01*
X003477Y008073D01*
X003568Y008164D01*
X003758Y008164D01*
X003892Y008030D01*
X003892Y007840D01*
X003758Y007706D01*
X003568Y007706D01*
X003469Y007805D01*
X003378Y007805D01*
X003302Y007881D01*
X002149Y009034D01*
X002073Y009110D01*
X002073Y009598D01*
X002052Y009548D01*
X001950Y009446D01*
X001815Y009390D01*
X001670Y009390D01*
X001536Y009446D01*
X001433Y009548D01*
X001378Y009682D01*
X001378Y009828D01*
X001433Y009962D01*
X001536Y010064D01*
X001670Y010120D01*
X001815Y010120D01*
X001950Y010064D01*
X002052Y009962D01*
X002073Y009912D01*
X002073Y010229D01*
X002114Y010270D01*
X002114Y010410D01*
X002248Y010544D01*
X002438Y010544D01*
X002548Y010434D02*
X003699Y010434D01*
X003746Y010482D02*
X003612Y010348D01*
X003612Y010158D01*
X003746Y010024D01*
X003936Y010024D01*
X004070Y010158D01*
X004070Y010348D01*
X003936Y010482D01*
X003746Y010482D01*
X003640Y010376D02*
X002572Y010376D01*
X002572Y010317D02*
X003612Y010317D01*
X003612Y010259D02*
X002572Y010259D01*
X002552Y010200D02*
X003612Y010200D01*
X003628Y010142D02*
X002493Y010142D01*
X002567Y010025D02*
X003745Y010025D01*
X003687Y010083D02*
X002333Y010083D01*
X002102Y010259D02*
X001353Y010259D01*
X001353Y010317D02*
X002114Y010317D01*
X002114Y010376D02*
X001353Y010376D01*
X001353Y010434D02*
X001564Y010434D01*
X001489Y010493D02*
X001353Y010493D01*
X001353Y010551D02*
X001432Y010551D01*
X001408Y010610D02*
X001353Y010610D01*
X001353Y010668D02*
X001384Y010668D01*
X001378Y010727D02*
X001353Y010727D01*
X001353Y010785D02*
X001378Y010785D01*
X001384Y010844D02*
X001353Y010844D01*
X001353Y010902D02*
X001409Y010902D01*
X001433Y010961D02*
X001353Y010961D01*
X001353Y011019D02*
X001491Y011019D01*
X001568Y011078D02*
X001353Y011078D01*
X001908Y011429D02*
X006612Y011429D01*
X006671Y011487D02*
X001991Y011487D01*
X002050Y011546D02*
X007029Y011546D01*
X006971Y011487D02*
X006875Y011487D01*
X006968Y011136D02*
X007038Y011136D01*
X006909Y011078D02*
X007363Y011078D01*
X007363Y011136D02*
X007268Y011136D01*
X007326Y011195D02*
X007363Y011195D01*
X007363Y011487D02*
X007335Y011487D01*
X007363Y011546D02*
X007276Y011546D01*
X007363Y011604D02*
X002075Y011604D01*
X002100Y011663D02*
X007363Y011663D01*
X007363Y011721D02*
X002108Y011721D01*
X002108Y011780D02*
X007363Y011780D01*
X007363Y011838D02*
X002103Y011838D01*
X002079Y011897D02*
X003545Y011897D01*
X003449Y011955D02*
X002055Y011955D01*
X002000Y012014D02*
X003391Y012014D01*
X004043Y011019D02*
X007363Y011019D01*
X007363Y010961D02*
X006701Y010961D01*
X006688Y010974D02*
X006822Y010840D01*
X006822Y010650D01*
X006688Y010516D01*
X006498Y010516D01*
X006364Y010650D01*
X006364Y010840D01*
X006498Y010974D01*
X006688Y010974D01*
X006760Y010902D02*
X007363Y010902D01*
X007363Y010844D02*
X006818Y010844D01*
X006822Y010785D02*
X007363Y010785D01*
X007331Y010727D02*
X006822Y010727D01*
X006822Y010668D02*
X007272Y010668D01*
X007214Y010610D02*
X006781Y010610D01*
X006723Y010551D02*
X007155Y010551D01*
X007096Y010493D02*
X006254Y010493D01*
X006302Y010551D02*
X006463Y010551D01*
X006404Y010610D02*
X006302Y010610D01*
X006302Y010668D02*
X006364Y010668D01*
X006364Y010727D02*
X006302Y010727D01*
X006247Y010785D02*
X006364Y010785D01*
X006367Y010844D02*
X006188Y010844D01*
X005957Y010844D02*
X004132Y010844D01*
X004132Y010902D02*
X006426Y010902D01*
X006484Y010961D02*
X004101Y010961D01*
X004132Y010785D02*
X005899Y010785D01*
X005844Y010727D02*
X004118Y010727D01*
X004060Y010668D02*
X005844Y010668D01*
X005844Y010610D02*
X004001Y010610D01*
X003984Y010434D02*
X005950Y010434D01*
X006196Y010434D02*
X006308Y010434D01*
X006348Y010474D02*
X006214Y010340D01*
X006214Y010150D01*
X006348Y010016D01*
X006538Y010016D01*
X006672Y010150D01*
X006672Y010340D01*
X006538Y010474D01*
X006348Y010474D01*
X006249Y010376D02*
X004042Y010376D01*
X004070Y010317D02*
X006214Y010317D01*
X006214Y010259D02*
X004070Y010259D01*
X004070Y010200D02*
X006214Y010200D01*
X006222Y010142D02*
X004054Y010142D01*
X003996Y010083D02*
X006281Y010083D01*
X006339Y010025D02*
X003937Y010025D01*
X003207Y008913D02*
X005127Y008913D01*
X005068Y008855D02*
X003266Y008855D01*
X003324Y008796D02*
X005010Y008796D01*
X004951Y008738D02*
X003383Y008738D01*
X003441Y008679D02*
X004173Y008679D01*
X004114Y008621D02*
X003640Y008621D01*
X003699Y008562D02*
X004056Y008562D01*
X004044Y008504D02*
X003721Y008504D01*
X003721Y008445D02*
X004044Y008445D01*
X004044Y008387D02*
X003721Y008387D01*
X003699Y008328D02*
X004076Y008328D01*
X004123Y008270D02*
X003640Y008270D01*
X003556Y008153D02*
X003398Y008153D01*
X003339Y008211D02*
X004123Y008211D01*
X004123Y008153D02*
X003769Y008153D01*
X003828Y008094D02*
X004182Y008094D01*
X004240Y008036D02*
X003886Y008036D01*
X003892Y007977D02*
X004299Y007977D01*
X004343Y007919D02*
X003892Y007919D01*
X003892Y007860D02*
X004343Y007860D01*
X004343Y007802D02*
X003853Y007802D01*
X003795Y007743D02*
X004343Y007743D01*
X004343Y007685D02*
X002108Y007685D01*
X002108Y007682D02*
X002052Y007548D01*
X001950Y007446D01*
X001815Y007390D01*
X001670Y007390D01*
X001536Y007446D01*
X001433Y007548D01*
X001378Y007682D01*
X001378Y007828D01*
X001433Y007962D01*
X001536Y008064D01*
X001670Y008120D01*
X001815Y008120D01*
X001950Y008064D01*
X002052Y007962D01*
X002108Y007828D01*
X002108Y007682D01*
X002084Y007626D02*
X004343Y007626D01*
X004343Y007568D02*
X002060Y007568D01*
X002013Y007509D02*
X004343Y007509D01*
X004343Y007451D02*
X001955Y007451D01*
X001820Y007392D02*
X004343Y007392D01*
X004343Y007334D02*
X001353Y007334D01*
X001353Y007392D02*
X001665Y007392D01*
X001531Y007451D02*
X001353Y007451D01*
X001353Y007509D02*
X001473Y007509D01*
X001425Y007568D02*
X001353Y007568D01*
X001353Y007626D02*
X001401Y007626D01*
X001378Y007685D02*
X001353Y007685D01*
X001353Y007743D02*
X001378Y007743D01*
X001378Y007802D02*
X001353Y007802D01*
X001353Y007860D02*
X001391Y007860D01*
X001415Y007919D02*
X001353Y007919D01*
X001353Y007977D02*
X001449Y007977D01*
X001507Y008036D02*
X001353Y008036D01*
X001353Y008094D02*
X001608Y008094D01*
X001878Y008094D02*
X003089Y008094D01*
X003147Y008036D02*
X001978Y008036D01*
X002037Y007977D02*
X003206Y007977D01*
X003264Y007919D02*
X002070Y007919D01*
X002094Y007860D02*
X003323Y007860D01*
X003472Y007802D02*
X002108Y007802D01*
X002108Y007743D02*
X003531Y007743D01*
X003498Y008094D02*
X003456Y008094D01*
X003343Y008270D02*
X003281Y008270D01*
X003285Y008328D02*
X003222Y008328D01*
X003263Y008387D02*
X003164Y008387D01*
X003105Y008445D02*
X003263Y008445D01*
X003249Y008504D02*
X003047Y008504D01*
X002988Y008562D02*
X003191Y008562D01*
X003132Y008621D02*
X002930Y008621D01*
X002871Y008679D02*
X003074Y008679D01*
X003015Y008738D02*
X002813Y008738D01*
X002754Y008796D02*
X002957Y008796D01*
X002898Y008855D02*
X002696Y008855D01*
X002637Y008913D02*
X002840Y008913D01*
X002781Y008972D02*
X002579Y008972D01*
X002520Y009030D02*
X002723Y009030D01*
X002664Y009089D02*
X002462Y009089D01*
X002403Y009147D02*
X002606Y009147D01*
X002547Y009206D02*
X002345Y009206D01*
X002333Y009264D02*
X002489Y009264D01*
X002430Y009323D02*
X002333Y009323D01*
X002333Y009381D02*
X002372Y009381D01*
X002573Y009557D02*
X006160Y009557D01*
X006102Y009498D02*
X002622Y009498D01*
X002681Y009440D02*
X006043Y009440D01*
X005985Y009381D02*
X002739Y009381D01*
X002798Y009323D02*
X005926Y009323D01*
X005868Y009264D02*
X002856Y009264D01*
X002915Y009206D02*
X005809Y009206D01*
X005751Y009147D02*
X002973Y009147D01*
X003032Y009089D02*
X005692Y009089D01*
X005842Y008621D02*
X005854Y008621D01*
X005854Y008562D02*
X005670Y008562D01*
X005728Y008504D02*
X005910Y008504D01*
X005933Y008445D02*
X005787Y008445D01*
X005792Y008387D02*
X005933Y008387D01*
X005933Y008328D02*
X005792Y008328D01*
X005792Y008270D02*
X005933Y008270D01*
X005933Y008211D02*
X005753Y008211D01*
X005694Y008153D02*
X005933Y008153D01*
X005933Y008094D02*
X005496Y008094D01*
X005372Y008036D02*
X005940Y008036D01*
X005999Y007977D02*
X005372Y007977D01*
X005372Y007919D02*
X006057Y007919D01*
X006116Y007860D02*
X005372Y007860D01*
X005323Y007802D02*
X006174Y007802D01*
X006233Y007743D02*
X005265Y007743D01*
X005216Y007626D02*
X006350Y007626D01*
X006408Y007568D02*
X005274Y007568D01*
X005312Y007509D02*
X006467Y007509D01*
X006525Y007451D02*
X005312Y007451D01*
X005312Y007392D02*
X006584Y007392D01*
X006642Y007334D02*
X005305Y007334D01*
X005247Y007275D02*
X005819Y007275D01*
X005848Y007304D02*
X005714Y007170D01*
X005714Y006980D01*
X005848Y006846D01*
X006038Y006846D01*
X006172Y006980D01*
X006172Y007170D01*
X006038Y007304D01*
X005848Y007304D01*
X005760Y007217D02*
X005188Y007217D01*
X005263Y007100D02*
X004893Y007100D01*
X004893Y007158D02*
X005322Y007158D01*
X005348Y007184D02*
X005214Y007050D01*
X005214Y006860D01*
X005348Y006726D01*
X005538Y006726D01*
X005672Y006860D01*
X005672Y007050D01*
X005538Y007184D01*
X005348Y007184D01*
X005214Y007041D02*
X004893Y007041D01*
X004893Y006983D02*
X005214Y006983D01*
X005214Y006924D02*
X004893Y006924D01*
X004893Y006866D02*
X005214Y006866D01*
X005267Y006807D02*
X004893Y006807D01*
X004893Y006749D02*
X005325Y006749D01*
X005560Y006749D02*
X006843Y006749D01*
X006843Y006807D02*
X005619Y006807D01*
X005672Y006866D02*
X005828Y006866D01*
X005770Y006924D02*
X005672Y006924D01*
X005672Y006983D02*
X005714Y006983D01*
X005714Y007041D02*
X005672Y007041D01*
X005714Y007100D02*
X005622Y007100D01*
X005564Y007158D02*
X005714Y007158D01*
X006067Y007275D02*
X006701Y007275D01*
X006759Y007217D02*
X006125Y007217D01*
X006172Y007158D02*
X006818Y007158D01*
X006843Y007100D02*
X006172Y007100D01*
X006172Y007041D02*
X006843Y007041D01*
X006843Y006983D02*
X006172Y006983D01*
X006116Y006924D02*
X006843Y006924D01*
X006843Y006866D02*
X006057Y006866D01*
X006291Y007685D02*
X005094Y007685D01*
X004914Y007977D02*
X004643Y007977D01*
X004643Y007919D02*
X004904Y007919D01*
X004846Y007860D02*
X004643Y007860D01*
X004643Y007802D02*
X004787Y007802D01*
X004729Y007743D02*
X004643Y007743D01*
X004643Y007685D02*
X004670Y007685D01*
X004643Y008036D02*
X004914Y008036D01*
X004968Y008094D02*
X004606Y008094D01*
X004547Y008153D02*
X005011Y008153D01*
X004953Y008211D02*
X004489Y008211D01*
X004430Y008270D02*
X004624Y008270D01*
X004566Y008328D02*
X004470Y008328D01*
X004502Y008387D02*
X004524Y008387D01*
X004524Y008445D02*
X004502Y008445D01*
X004502Y008504D02*
X004524Y008504D01*
X004526Y008562D02*
X004490Y008562D01*
X004431Y008621D02*
X004584Y008621D01*
X004643Y008679D02*
X004373Y008679D01*
X004863Y008679D02*
X004893Y008679D01*
X004881Y008270D02*
X004894Y008270D01*
X005185Y008972D02*
X003149Y008972D01*
X003090Y009030D02*
X005244Y009030D01*
X006219Y009615D02*
X002573Y009615D01*
X002615Y009674D02*
X006277Y009674D01*
X006336Y009732D02*
X002672Y009732D01*
X002672Y009791D02*
X006394Y009791D01*
X006453Y009849D02*
X002672Y009849D01*
X002672Y009908D02*
X006511Y009908D01*
X006570Y009966D02*
X002626Y009966D01*
X002196Y010493D02*
X001997Y010493D01*
X001922Y010434D02*
X002138Y010434D01*
X002073Y010200D02*
X001353Y010200D01*
X001353Y010142D02*
X002073Y010142D01*
X002073Y010083D02*
X001905Y010083D01*
X001989Y010025D02*
X002073Y010025D01*
X002073Y009966D02*
X002048Y009966D01*
X002056Y009557D02*
X002073Y009557D01*
X002073Y009498D02*
X002002Y009498D01*
X001935Y009440D02*
X002073Y009440D01*
X002073Y009381D02*
X001353Y009381D01*
X001353Y009323D02*
X002073Y009323D01*
X002073Y009264D02*
X001353Y009264D01*
X001353Y009206D02*
X002073Y009206D01*
X002073Y009147D02*
X001353Y009147D01*
X001353Y009089D02*
X001594Y009089D01*
X001536Y009064D02*
X001433Y008962D01*
X001378Y008828D01*
X001378Y008682D01*
X001433Y008548D01*
X001536Y008446D01*
X001670Y008390D01*
X001815Y008390D01*
X001950Y008446D01*
X002052Y008548D01*
X002108Y008682D01*
X002108Y008828D01*
X002052Y008962D01*
X001950Y009064D01*
X001815Y009120D01*
X001670Y009120D01*
X001536Y009064D01*
X001502Y009030D02*
X001353Y009030D01*
X001353Y008972D02*
X001443Y008972D01*
X001413Y008913D02*
X001353Y008913D01*
X001353Y008855D02*
X001389Y008855D01*
X001378Y008796D02*
X001353Y008796D01*
X001353Y008738D02*
X001378Y008738D01*
X001379Y008679D02*
X001353Y008679D01*
X001353Y008621D02*
X001403Y008621D01*
X001428Y008562D02*
X001353Y008562D01*
X001353Y008504D02*
X001478Y008504D01*
X001537Y008445D02*
X001353Y008445D01*
X001353Y008387D02*
X002796Y008387D01*
X002738Y008445D02*
X001948Y008445D01*
X002008Y008504D02*
X002679Y008504D01*
X002621Y008562D02*
X002058Y008562D01*
X002082Y008621D02*
X002562Y008621D01*
X002504Y008679D02*
X002106Y008679D01*
X002108Y008738D02*
X002445Y008738D01*
X002387Y008796D02*
X002108Y008796D01*
X002097Y008855D02*
X002328Y008855D01*
X002270Y008913D02*
X002072Y008913D01*
X002042Y008972D02*
X002211Y008972D01*
X002153Y009030D02*
X001984Y009030D01*
X001891Y009089D02*
X002094Y009089D01*
X001551Y009440D02*
X001353Y009440D01*
X001353Y009498D02*
X001484Y009498D01*
X001430Y009557D02*
X001353Y009557D01*
X001353Y009615D02*
X001406Y009615D01*
X001381Y009674D02*
X001353Y009674D01*
X001353Y009732D02*
X001378Y009732D01*
X001378Y009791D02*
X001353Y009791D01*
X001353Y009849D02*
X001387Y009849D01*
X001411Y009908D02*
X001353Y009908D01*
X001353Y009966D02*
X001438Y009966D01*
X001496Y010025D02*
X001353Y010025D01*
X001353Y010083D02*
X001581Y010083D01*
X001353Y008328D02*
X002855Y008328D01*
X002913Y008270D02*
X001353Y008270D01*
X001353Y008211D02*
X002972Y008211D01*
X003030Y008153D02*
X001353Y008153D01*
X001353Y007275D02*
X004343Y007275D01*
X004343Y007217D02*
X001353Y007217D01*
X001353Y007158D02*
X004343Y007158D01*
X004343Y007100D02*
X001865Y007100D01*
X001815Y007120D02*
X001670Y007120D01*
X001536Y007064D01*
X001433Y006962D01*
X001378Y006828D01*
X001378Y006682D01*
X001433Y006548D01*
X001536Y006446D01*
X001670Y006390D01*
X001815Y006390D01*
X001950Y006446D01*
X002052Y006548D01*
X002108Y006682D01*
X002108Y006828D01*
X002052Y006962D01*
X001950Y007064D01*
X001815Y007120D01*
X001973Y007041D02*
X004343Y007041D01*
X004343Y006983D02*
X002031Y006983D01*
X002068Y006924D02*
X004343Y006924D01*
X004343Y006866D02*
X002092Y006866D01*
X002108Y006807D02*
X004343Y006807D01*
X004343Y006749D02*
X002108Y006749D01*
X002108Y006690D02*
X004343Y006690D01*
X004343Y006632D02*
X002087Y006632D01*
X002063Y006573D02*
X004343Y006573D01*
X004343Y006515D02*
X002019Y006515D01*
X001960Y006456D02*
X004343Y006456D01*
X004343Y006398D02*
X001834Y006398D01*
X001652Y006398D02*
X001353Y006398D01*
X001353Y006456D02*
X001526Y006456D01*
X001467Y006515D02*
X001353Y006515D01*
X001353Y006573D02*
X001423Y006573D01*
X001399Y006632D02*
X001353Y006632D01*
X001353Y006690D02*
X001378Y006690D01*
X001378Y006749D02*
X001353Y006749D01*
X001353Y006807D02*
X001378Y006807D01*
X001394Y006866D02*
X001353Y006866D01*
X001353Y006924D02*
X001418Y006924D01*
X001454Y006983D02*
X001353Y006983D01*
X001353Y007041D02*
X001513Y007041D01*
X001621Y007100D02*
X001353Y007100D01*
X001353Y006339D02*
X004343Y006339D01*
X004343Y006281D02*
X001353Y006281D01*
X001353Y006222D02*
X004343Y006222D01*
X004343Y006164D02*
X001353Y006164D01*
X001353Y006105D02*
X001634Y006105D01*
X001670Y006120D02*
X001536Y006064D01*
X001433Y005962D01*
X001378Y005828D01*
X001378Y005682D01*
X001433Y005548D01*
X001536Y005446D01*
X001670Y005390D01*
X001815Y005390D01*
X001950Y005446D01*
X002052Y005548D01*
X002108Y005682D01*
X002108Y005828D01*
X002052Y005962D01*
X001950Y006064D01*
X001815Y006120D01*
X001670Y006120D01*
X001518Y006047D02*
X001353Y006047D01*
X001353Y005988D02*
X001460Y005988D01*
X001420Y005930D02*
X001353Y005930D01*
X001353Y005871D02*
X001396Y005871D01*
X001378Y005813D02*
X001353Y005813D01*
X001353Y005754D02*
X001378Y005754D01*
X001378Y005696D02*
X001353Y005696D01*
X001353Y005637D02*
X001397Y005637D01*
X001421Y005579D02*
X001353Y005579D01*
X001353Y005520D02*
X001462Y005520D01*
X001520Y005462D02*
X001353Y005462D01*
X001353Y005403D02*
X001639Y005403D01*
X001847Y005403D02*
X004793Y005403D01*
X004851Y005345D02*
X001353Y005345D01*
X001353Y005286D02*
X004910Y005286D01*
X004968Y005228D02*
X001353Y005228D01*
X001353Y005169D02*
X005027Y005169D01*
X005085Y005111D02*
X001838Y005111D01*
X001815Y005120D02*
X001670Y005120D01*
X001536Y005064D01*
X001433Y004962D01*
X001378Y004828D01*
X001378Y004682D01*
X001433Y004548D01*
X001536Y004446D01*
X001670Y004390D01*
X001815Y004390D01*
X001950Y004446D01*
X002052Y004548D01*
X002108Y004682D01*
X002108Y004828D01*
X002052Y004962D01*
X001950Y005064D01*
X001815Y005120D01*
X001962Y005052D02*
X005144Y005052D01*
X005202Y004994D02*
X002020Y004994D01*
X002063Y004935D02*
X005261Y004935D01*
X005319Y004877D02*
X002088Y004877D01*
X002108Y004818D02*
X005378Y004818D01*
X005436Y004760D02*
X002108Y004760D01*
X002108Y004701D02*
X004965Y004701D01*
X004968Y004704D02*
X004834Y004570D01*
X004834Y004380D01*
X004968Y004246D01*
X005158Y004246D01*
X005292Y004380D01*
X005292Y004570D01*
X005158Y004704D01*
X004968Y004704D01*
X004906Y004643D02*
X002091Y004643D01*
X002067Y004584D02*
X004848Y004584D01*
X004834Y004526D02*
X002030Y004526D01*
X001971Y004467D02*
X004834Y004467D01*
X004834Y004409D02*
X001860Y004409D01*
X001625Y004409D02*
X001353Y004409D01*
X001353Y004467D02*
X001515Y004467D01*
X001456Y004526D02*
X001353Y004526D01*
X001353Y004584D02*
X001419Y004584D01*
X001394Y004643D02*
X001353Y004643D01*
X001353Y004701D02*
X001378Y004701D01*
X001378Y004760D02*
X001353Y004760D01*
X001353Y004818D02*
X001378Y004818D01*
X001398Y004877D02*
X001353Y004877D01*
X001353Y004935D02*
X001422Y004935D01*
X001465Y004994D02*
X001353Y004994D01*
X001353Y005052D02*
X001524Y005052D01*
X001647Y005111D02*
X001353Y005111D01*
X001353Y004350D02*
X004864Y004350D01*
X004922Y004292D02*
X001353Y004292D01*
X001353Y004233D02*
X005963Y004233D01*
X006021Y004175D02*
X001353Y004175D01*
X001353Y004116D02*
X001661Y004116D01*
X001670Y004120D02*
X001536Y004064D01*
X001433Y003962D01*
X001378Y003828D01*
X001378Y003682D01*
X001433Y003548D01*
X001536Y003446D01*
X001670Y003390D01*
X001815Y003390D01*
X001950Y003446D01*
X002052Y003548D01*
X002108Y003682D01*
X002108Y003828D01*
X002052Y003962D01*
X001950Y004064D01*
X001815Y004120D01*
X001670Y004120D01*
X001529Y004058D02*
X001353Y004058D01*
X001353Y003999D02*
X001471Y003999D01*
X001425Y003941D02*
X001353Y003941D01*
X001353Y003882D02*
X001400Y003882D01*
X001378Y003824D02*
X001353Y003824D01*
X001353Y003765D02*
X001378Y003765D01*
X001378Y003707D02*
X001353Y003707D01*
X001353Y003648D02*
X001392Y003648D01*
X001416Y003590D02*
X001353Y003590D01*
X001353Y003531D02*
X001451Y003531D01*
X001509Y003473D02*
X001353Y003473D01*
X001353Y003414D02*
X001612Y003414D01*
X001873Y003414D02*
X008612Y003414D01*
X008670Y003390D02*
X008815Y003390D01*
X008950Y003446D01*
X009052Y003548D01*
X009108Y003682D01*
X009108Y003828D01*
X009052Y003962D01*
X008950Y004064D01*
X008815Y004120D01*
X008670Y004120D01*
X008536Y004064D01*
X008433Y003962D01*
X008378Y003828D01*
X008378Y003682D01*
X008433Y003548D01*
X008536Y003446D01*
X008670Y003390D01*
X008509Y003473D02*
X001977Y003473D01*
X002035Y003531D02*
X008451Y003531D01*
X008416Y003590D02*
X002069Y003590D01*
X002094Y003648D02*
X008392Y003648D01*
X008378Y003707D02*
X007048Y003707D01*
X007107Y003765D02*
X008378Y003765D01*
X008378Y003824D02*
X007152Y003824D01*
X007152Y003882D02*
X008400Y003882D01*
X008425Y003941D02*
X008222Y003941D01*
X008168Y003886D02*
X008302Y004020D01*
X008302Y004210D01*
X008168Y004344D01*
X007978Y004344D01*
X007844Y004210D01*
X007844Y004020D01*
X007978Y003886D01*
X008168Y003886D01*
X008281Y003999D02*
X008471Y003999D01*
X008529Y004058D02*
X008302Y004058D01*
X008302Y004116D02*
X008661Y004116D01*
X008825Y004116D02*
X009133Y004116D01*
X009133Y004058D02*
X008956Y004058D01*
X009015Y003999D02*
X009133Y003999D01*
X009133Y003941D02*
X009061Y003941D01*
X009085Y003882D02*
X009133Y003882D01*
X009133Y003824D02*
X009108Y003824D01*
X009108Y003765D02*
X009133Y003765D01*
X009133Y003707D02*
X009108Y003707D01*
X009094Y003648D02*
X009133Y003648D01*
X009133Y003590D02*
X009069Y003590D01*
X009035Y003531D02*
X009133Y003531D01*
X009133Y003473D02*
X008977Y003473D01*
X008873Y003414D02*
X009133Y003414D01*
X009133Y003356D02*
X001353Y003356D01*
X001353Y003297D02*
X009133Y003297D01*
X009133Y003239D02*
X001353Y003239D01*
X001353Y003180D02*
X009133Y003180D01*
X009133Y003122D02*
X001353Y003122D01*
X001353Y003063D02*
X001535Y003063D01*
X001536Y003064D02*
X001433Y002962D01*
X001378Y002828D01*
X001378Y002682D01*
X001433Y002548D01*
X001536Y002446D01*
X001670Y002390D01*
X001815Y002390D01*
X001950Y002446D01*
X002052Y002548D01*
X002108Y002682D01*
X002108Y002828D01*
X002052Y002962D01*
X001950Y003064D01*
X001815Y003120D01*
X001670Y003120D01*
X001536Y003064D01*
X001476Y003005D02*
X001353Y003005D01*
X001353Y002946D02*
X001427Y002946D01*
X001403Y002888D02*
X001353Y002888D01*
X001353Y002829D02*
X001378Y002829D01*
X001378Y002771D02*
X001353Y002771D01*
X001353Y002712D02*
X001378Y002712D01*
X001390Y002654D02*
X001353Y002654D01*
X001353Y002595D02*
X001414Y002595D01*
X001445Y002537D02*
X001353Y002537D01*
X001353Y002478D02*
X001504Y002478D01*
X001599Y002420D02*
X001353Y002420D01*
X001353Y002361D02*
X009133Y002361D01*
X009133Y002303D02*
X001353Y002303D01*
X001353Y002244D02*
X009133Y002244D01*
X009133Y002186D02*
X001353Y002186D01*
X001353Y002127D02*
X009133Y002127D01*
X009133Y002069D02*
X008940Y002069D01*
X009004Y002010D02*
X009133Y002010D01*
X009133Y001952D02*
X009056Y001952D01*
X009081Y001893D02*
X009133Y001893D01*
X009133Y001835D02*
X009105Y001835D01*
X009108Y001776D02*
X009133Y001776D01*
X009133Y001718D02*
X009108Y001718D01*
X009098Y001659D02*
X009133Y001659D01*
X009133Y001601D02*
X009074Y001601D01*
X009046Y001542D02*
X009133Y001542D01*
X009133Y001484D02*
X008987Y001484D01*
X008498Y001484D02*
X007995Y001484D01*
X008022Y001542D02*
X008440Y001542D01*
X008412Y001601D02*
X008022Y001601D01*
X008022Y001659D02*
X008387Y001659D01*
X008378Y001718D02*
X008004Y001718D01*
X007946Y001776D02*
X008378Y001776D01*
X008381Y001835D02*
X002105Y001835D01*
X002108Y001776D02*
X002890Y001776D01*
X002831Y001718D02*
X002108Y001718D01*
X002098Y001659D02*
X002814Y001659D01*
X002814Y001601D02*
X002074Y001601D01*
X002046Y001542D02*
X002814Y001542D01*
X002840Y001484D02*
X001987Y001484D01*
X002081Y001893D02*
X008405Y001893D01*
X008429Y001952D02*
X002056Y001952D01*
X002004Y002010D02*
X008482Y002010D01*
X008546Y002069D02*
X001940Y002069D01*
X001887Y002420D02*
X008599Y002420D01*
X008536Y002446D02*
X008670Y002390D01*
X008815Y002390D01*
X008950Y002446D01*
X009052Y002548D01*
X009108Y002682D01*
X009108Y002828D01*
X009052Y002962D01*
X008950Y003064D01*
X008815Y003120D01*
X008670Y003120D01*
X008536Y003064D01*
X008433Y002962D01*
X008378Y002828D01*
X008378Y002682D01*
X008433Y002548D01*
X008536Y002446D01*
X008504Y002478D02*
X001982Y002478D01*
X002041Y002537D02*
X008445Y002537D01*
X008414Y002595D02*
X002072Y002595D01*
X002096Y002654D02*
X002430Y002654D01*
X002448Y002636D02*
X002638Y002636D01*
X002772Y002770D01*
X002772Y002960D01*
X002638Y003094D01*
X002448Y003094D01*
X002314Y002960D01*
X002314Y002770D01*
X002448Y002636D01*
X002372Y002712D02*
X002108Y002712D01*
X002108Y002771D02*
X002314Y002771D01*
X002314Y002829D02*
X002107Y002829D01*
X002083Y002888D02*
X002314Y002888D01*
X002314Y002946D02*
X002059Y002946D01*
X002009Y003005D02*
X002358Y003005D01*
X002417Y003063D02*
X001951Y003063D01*
X002108Y003707D02*
X006797Y003707D01*
X006739Y003765D02*
X006547Y003765D01*
X006605Y003824D02*
X006694Y003824D01*
X006694Y003882D02*
X006662Y003882D01*
X006662Y003941D02*
X006675Y003941D01*
X006865Y004175D02*
X007844Y004175D01*
X007844Y004116D02*
X007036Y004116D01*
X007094Y004058D02*
X007844Y004058D01*
X007865Y003999D02*
X007152Y003999D01*
X007152Y003941D02*
X007923Y003941D01*
X007867Y004233D02*
X006807Y004233D01*
X006748Y004292D02*
X007925Y004292D01*
X008220Y004292D02*
X009133Y004292D01*
X009133Y004350D02*
X006690Y004350D01*
X006631Y004409D02*
X006935Y004409D01*
X006988Y004356D02*
X006854Y004490D01*
X006854Y004680D01*
X006988Y004814D01*
X007178Y004814D01*
X007312Y004680D01*
X007312Y004490D01*
X007178Y004356D01*
X006988Y004356D01*
X006877Y004467D02*
X006573Y004467D01*
X006514Y004526D02*
X006854Y004526D01*
X006854Y004584D02*
X006456Y004584D01*
X006397Y004643D02*
X006854Y004643D01*
X006875Y004701D02*
X006339Y004701D01*
X006280Y004760D02*
X006933Y004760D01*
X007232Y004760D02*
X008378Y004760D01*
X008378Y004818D02*
X006222Y004818D01*
X006163Y004877D02*
X008398Y004877D01*
X008378Y004828D02*
X008378Y004682D01*
X008433Y004548D01*
X008536Y004446D01*
X008670Y004390D01*
X008815Y004390D01*
X008950Y004446D01*
X009052Y004548D01*
X009108Y004682D01*
X009108Y004828D01*
X009052Y004962D01*
X008950Y005064D01*
X008815Y005120D01*
X008670Y005120D01*
X008536Y005064D01*
X008433Y004962D01*
X008378Y004828D01*
X008422Y004935D02*
X006105Y004935D01*
X006046Y004994D02*
X008465Y004994D01*
X008524Y005052D02*
X005988Y005052D01*
X005929Y005111D02*
X008647Y005111D01*
X008838Y005111D02*
X009133Y005111D01*
X009133Y005169D02*
X005871Y005169D01*
X005878Y005186D02*
X006068Y005186D01*
X006202Y005320D01*
X006202Y005510D01*
X006068Y005644D01*
X005878Y005644D01*
X005744Y005510D01*
X005744Y005320D01*
X005878Y005186D01*
X005836Y005228D02*
X005812Y005228D01*
X005778Y005286D02*
X005754Y005286D01*
X005744Y005345D02*
X005695Y005345D01*
X005744Y005403D02*
X005637Y005403D01*
X005578Y005462D02*
X005744Y005462D01*
X005754Y005520D02*
X005520Y005520D01*
X005461Y005579D02*
X005812Y005579D01*
X005871Y005637D02*
X005403Y005637D01*
X005344Y005696D02*
X008378Y005696D01*
X008378Y005682D02*
X008433Y005548D01*
X008536Y005446D01*
X008670Y005390D01*
X008815Y005390D01*
X008950Y005446D01*
X009052Y005548D01*
X009108Y005682D01*
X009108Y005828D01*
X009052Y005962D01*
X008950Y006064D01*
X008815Y006120D01*
X008670Y006120D01*
X008536Y006064D01*
X008433Y005962D01*
X008378Y005828D01*
X008378Y005682D01*
X008397Y005637D02*
X006075Y005637D01*
X006133Y005579D02*
X008421Y005579D01*
X008462Y005520D02*
X006192Y005520D01*
X006202Y005462D02*
X008520Y005462D01*
X008639Y005403D02*
X006202Y005403D01*
X006202Y005345D02*
X009133Y005345D01*
X009133Y005403D02*
X008847Y005403D01*
X008966Y005462D02*
X009133Y005462D01*
X009133Y005520D02*
X009024Y005520D01*
X009065Y005579D02*
X009133Y005579D01*
X009133Y005637D02*
X009089Y005637D01*
X009108Y005696D02*
X009133Y005696D01*
X009133Y005754D02*
X009108Y005754D01*
X009108Y005813D02*
X009133Y005813D01*
X009133Y005871D02*
X009090Y005871D01*
X009066Y005930D02*
X009133Y005930D01*
X009133Y005988D02*
X009026Y005988D01*
X008967Y006047D02*
X009133Y006047D01*
X009133Y006105D02*
X008852Y006105D01*
X008634Y006105D02*
X007222Y006105D01*
X007222Y006047D02*
X008518Y006047D01*
X008460Y005988D02*
X007222Y005988D01*
X007221Y005930D02*
X008420Y005930D01*
X008396Y005871D02*
X007163Y005871D01*
X007104Y005813D02*
X008378Y005813D01*
X008378Y005754D02*
X005286Y005754D01*
X005227Y005813D02*
X006881Y005813D01*
X006823Y005871D02*
X005169Y005871D01*
X005110Y005930D02*
X006764Y005930D01*
X006764Y005988D02*
X005052Y005988D01*
X004993Y006047D02*
X006764Y006047D01*
X006764Y006105D02*
X004935Y006105D01*
X004893Y006164D02*
X006807Y006164D01*
X006843Y006222D02*
X004893Y006222D01*
X004893Y006281D02*
X006843Y006281D01*
X006843Y006339D02*
X004893Y006339D01*
X004893Y006398D02*
X006843Y006398D01*
X006843Y006456D02*
X004893Y006456D01*
X004893Y006515D02*
X006843Y006515D01*
X006843Y006573D02*
X004893Y006573D01*
X004893Y006632D02*
X006843Y006632D01*
X006843Y006690D02*
X004893Y006690D01*
X004893Y007217D02*
X004977Y007217D01*
X004919Y007275D02*
X004893Y007275D01*
X004343Y006105D02*
X001852Y006105D01*
X001967Y006047D02*
X004343Y006047D01*
X004343Y005988D02*
X002026Y005988D01*
X002066Y005930D02*
X004343Y005930D01*
X004343Y005871D02*
X002090Y005871D01*
X002108Y005813D02*
X004383Y005813D01*
X004442Y005754D02*
X002108Y005754D01*
X002108Y005696D02*
X004500Y005696D01*
X004559Y005637D02*
X002089Y005637D01*
X002065Y005579D02*
X004617Y005579D01*
X004676Y005520D02*
X002024Y005520D01*
X001966Y005462D02*
X004734Y005462D01*
X005161Y004701D02*
X005495Y004701D01*
X005553Y004643D02*
X005219Y004643D01*
X005278Y004584D02*
X005612Y004584D01*
X005670Y004526D02*
X005292Y004526D01*
X005292Y004467D02*
X005729Y004467D01*
X005787Y004409D02*
X005292Y004409D01*
X005262Y004350D02*
X005846Y004350D01*
X005904Y004292D02*
X005203Y004292D01*
X006080Y004116D02*
X001825Y004116D01*
X001956Y004058D02*
X006138Y004058D01*
X006197Y003999D02*
X002015Y003999D01*
X002061Y003941D02*
X006204Y003941D01*
X006204Y003882D02*
X002085Y003882D01*
X002108Y003824D02*
X006260Y003824D01*
X006319Y003765D02*
X002108Y003765D01*
X002669Y003063D02*
X008535Y003063D01*
X008476Y003005D02*
X002727Y003005D01*
X002772Y002946D02*
X008427Y002946D01*
X008403Y002888D02*
X002772Y002888D01*
X002772Y002829D02*
X008378Y002829D01*
X008378Y002771D02*
X002772Y002771D01*
X002714Y002712D02*
X008378Y002712D01*
X008390Y002654D02*
X002655Y002654D01*
X003196Y001776D02*
X004140Y001776D01*
X004081Y001718D02*
X003254Y001718D01*
X003272Y001659D02*
X004064Y001659D01*
X004064Y001601D02*
X003272Y001601D01*
X003272Y001542D02*
X004064Y001542D01*
X004090Y001484D02*
X003245Y001484D01*
X004446Y001776D02*
X005190Y001776D01*
X005131Y001718D02*
X004504Y001718D01*
X004522Y001659D02*
X005114Y001659D01*
X005114Y001601D02*
X004522Y001601D01*
X004522Y001542D02*
X005114Y001542D01*
X005140Y001484D02*
X004495Y001484D01*
X005496Y001776D02*
X006290Y001776D01*
X006231Y001718D02*
X005554Y001718D01*
X005572Y001659D02*
X006214Y001659D01*
X006214Y001601D02*
X005572Y001601D01*
X005572Y001542D02*
X006214Y001542D01*
X006240Y001484D02*
X005545Y001484D01*
X006596Y001776D02*
X007640Y001776D01*
X007581Y001718D02*
X006654Y001718D01*
X006672Y001659D02*
X007564Y001659D01*
X007564Y001601D02*
X006672Y001601D01*
X006672Y001542D02*
X007564Y001542D01*
X007590Y001484D02*
X006645Y001484D01*
X008302Y004175D02*
X009133Y004175D01*
X009133Y004233D02*
X008279Y004233D01*
X008456Y004526D02*
X007312Y004526D01*
X007312Y004584D02*
X008419Y004584D01*
X008394Y004643D02*
X007312Y004643D01*
X007291Y004701D02*
X008378Y004701D01*
X008515Y004467D02*
X007289Y004467D01*
X007230Y004409D02*
X008625Y004409D01*
X008860Y004409D02*
X009133Y004409D01*
X009133Y004467D02*
X008971Y004467D01*
X009030Y004526D02*
X009133Y004526D01*
X009133Y004584D02*
X009067Y004584D01*
X009091Y004643D02*
X009133Y004643D01*
X009133Y004701D02*
X009108Y004701D01*
X009108Y004760D02*
X009133Y004760D01*
X009133Y004818D02*
X009108Y004818D01*
X009088Y004877D02*
X009133Y004877D01*
X009133Y004935D02*
X009063Y004935D01*
X009020Y004994D02*
X009133Y004994D01*
X009133Y005052D02*
X008962Y005052D01*
X009133Y005228D02*
X006109Y005228D01*
X006168Y005286D02*
X009133Y005286D01*
X009133Y006164D02*
X007178Y006164D01*
X007143Y006222D02*
X009133Y006222D01*
X009133Y006281D02*
X007143Y006281D01*
X007143Y006339D02*
X009133Y006339D01*
X009133Y006398D02*
X008834Y006398D01*
X008815Y006390D02*
X008950Y006446D01*
X009052Y006548D01*
X009108Y006682D01*
X009108Y006828D01*
X009052Y006962D01*
X008950Y007064D01*
X008815Y007120D01*
X008670Y007120D01*
X008536Y007064D01*
X008433Y006962D01*
X008378Y006828D01*
X008378Y006682D01*
X008433Y006548D01*
X008536Y006446D01*
X008670Y006390D01*
X008815Y006390D01*
X008960Y006456D02*
X009133Y006456D01*
X009133Y006515D02*
X009019Y006515D01*
X009063Y006573D02*
X009133Y006573D01*
X009133Y006632D02*
X009087Y006632D01*
X009108Y006690D02*
X009133Y006690D01*
X009133Y006749D02*
X009108Y006749D01*
X009108Y006807D02*
X009133Y006807D01*
X009133Y006866D02*
X009092Y006866D01*
X009068Y006924D02*
X009133Y006924D01*
X009133Y006983D02*
X009031Y006983D01*
X008973Y007041D02*
X009133Y007041D01*
X009133Y007100D02*
X008865Y007100D01*
X008621Y007100D02*
X007143Y007100D01*
X007143Y007158D02*
X009133Y007158D01*
X009133Y007217D02*
X007143Y007217D01*
X007125Y007275D02*
X009133Y007275D01*
X009133Y007334D02*
X007066Y007334D01*
X007008Y007392D02*
X008665Y007392D01*
X008670Y007390D02*
X008815Y007390D01*
X008950Y007446D01*
X009052Y007548D01*
X009108Y007682D01*
X009108Y007828D01*
X009052Y007962D01*
X008950Y008064D01*
X008815Y008120D01*
X008670Y008120D01*
X008536Y008064D01*
X008433Y007962D01*
X008378Y007828D01*
X008378Y007682D01*
X008433Y007548D01*
X008536Y007446D01*
X008670Y007390D01*
X008531Y007451D02*
X006949Y007451D01*
X006891Y007509D02*
X008473Y007509D01*
X008425Y007568D02*
X006832Y007568D01*
X006774Y007626D02*
X008401Y007626D01*
X008378Y007685D02*
X006715Y007685D01*
X006657Y007743D02*
X008378Y007743D01*
X008378Y007802D02*
X006598Y007802D01*
X006540Y007860D02*
X008391Y007860D01*
X008415Y007919D02*
X006481Y007919D01*
X006423Y007977D02*
X008449Y007977D01*
X008507Y008036D02*
X008347Y008036D01*
X008338Y008026D02*
X008472Y008160D01*
X008472Y008350D01*
X008338Y008484D01*
X008148Y008484D01*
X008014Y008350D01*
X008014Y008160D01*
X008148Y008026D01*
X008338Y008026D01*
X008406Y008094D02*
X008608Y008094D01*
X008464Y008153D02*
X009133Y008153D01*
X009133Y008211D02*
X008472Y008211D01*
X008472Y008270D02*
X009133Y008270D01*
X009133Y008328D02*
X008472Y008328D01*
X008435Y008387D02*
X009133Y008387D01*
X009133Y008445D02*
X008948Y008445D01*
X008950Y008446D02*
X009052Y008548D01*
X009108Y008682D01*
X009108Y008828D01*
X009052Y008962D01*
X008950Y009064D01*
X008815Y009120D01*
X008670Y009120D01*
X008536Y009064D01*
X008433Y008962D01*
X008378Y008828D01*
X008378Y008682D01*
X008433Y008548D01*
X008536Y008446D01*
X008670Y008390D01*
X008815Y008390D01*
X008950Y008446D01*
X009008Y008504D02*
X009133Y008504D01*
X009133Y008562D02*
X009058Y008562D01*
X009082Y008621D02*
X009133Y008621D01*
X009133Y008679D02*
X009106Y008679D01*
X009108Y008738D02*
X009133Y008738D01*
X009133Y008796D02*
X009108Y008796D01*
X009097Y008855D02*
X009133Y008855D01*
X009133Y008913D02*
X009072Y008913D01*
X009042Y008972D02*
X009133Y008972D01*
X009133Y009030D02*
X008984Y009030D01*
X008891Y009089D02*
X009133Y009089D01*
X009133Y009147D02*
X006897Y009147D01*
X006838Y009089D02*
X008594Y009089D01*
X008502Y009030D02*
X006780Y009030D01*
X006721Y008972D02*
X008443Y008972D01*
X008413Y008913D02*
X006663Y008913D01*
X006807Y008855D02*
X008389Y008855D01*
X008378Y008796D02*
X006866Y008796D01*
X006892Y008738D02*
X008378Y008738D01*
X008379Y008679D02*
X006892Y008679D01*
X006892Y008621D02*
X008403Y008621D01*
X008428Y008562D02*
X006910Y008562D01*
X006968Y008504D02*
X008478Y008504D01*
X008537Y008445D02*
X008377Y008445D01*
X008109Y008445D02*
X007022Y008445D01*
X007022Y008387D02*
X008050Y008387D01*
X008014Y008328D02*
X007022Y008328D01*
X007022Y008270D02*
X008014Y008270D01*
X008014Y008211D02*
X006973Y008211D01*
X006914Y008153D02*
X008021Y008153D01*
X008080Y008094D02*
X006606Y008094D01*
X006662Y008153D02*
X006671Y008153D01*
X006547Y008036D02*
X008138Y008036D01*
X008820Y007392D02*
X009133Y007392D01*
X009133Y007451D02*
X008955Y007451D01*
X009013Y007509D02*
X009133Y007509D01*
X009133Y007568D02*
X009060Y007568D01*
X009084Y007626D02*
X009133Y007626D01*
X009133Y007685D02*
X009108Y007685D01*
X009108Y007743D02*
X009133Y007743D01*
X009133Y007802D02*
X009108Y007802D01*
X009094Y007860D02*
X009133Y007860D01*
X009133Y007919D02*
X009070Y007919D01*
X009037Y007977D02*
X009133Y007977D01*
X009133Y008036D02*
X008978Y008036D01*
X008878Y008094D02*
X009133Y008094D01*
X008513Y007041D02*
X007143Y007041D01*
X007143Y006983D02*
X008454Y006983D01*
X008418Y006924D02*
X007143Y006924D01*
X007143Y006866D02*
X008394Y006866D01*
X008378Y006807D02*
X007143Y006807D01*
X007143Y006749D02*
X008378Y006749D01*
X008378Y006690D02*
X007143Y006690D01*
X007143Y006632D02*
X008399Y006632D01*
X008423Y006573D02*
X007143Y006573D01*
X007143Y006515D02*
X008467Y006515D01*
X008526Y006456D02*
X007143Y006456D01*
X007143Y006398D02*
X008652Y006398D01*
X009133Y009206D02*
X006955Y009206D01*
X007014Y009264D02*
X009133Y009264D01*
X009133Y009323D02*
X007072Y009323D01*
X007131Y009381D02*
X009133Y009381D01*
X009133Y009440D02*
X008935Y009440D01*
X008950Y009446D02*
X009052Y009548D01*
X009108Y009682D01*
X009108Y009828D01*
X009052Y009962D01*
X008950Y010064D01*
X008815Y010120D01*
X008670Y010120D01*
X008536Y010064D01*
X008433Y009962D01*
X008378Y009828D01*
X008378Y009682D01*
X008433Y009548D01*
X008536Y009446D01*
X008670Y009390D01*
X008815Y009390D01*
X008950Y009446D01*
X009002Y009498D02*
X009133Y009498D01*
X009133Y009557D02*
X009056Y009557D01*
X009080Y009615D02*
X009133Y009615D01*
X009133Y009674D02*
X009104Y009674D01*
X009108Y009732D02*
X009133Y009732D01*
X009133Y009791D02*
X009108Y009791D01*
X009099Y009849D02*
X009133Y009849D01*
X009133Y009908D02*
X009075Y009908D01*
X009048Y009966D02*
X009133Y009966D01*
X009133Y010025D02*
X008989Y010025D01*
X008905Y010083D02*
X009133Y010083D01*
X009133Y010142D02*
X007891Y010142D01*
X007833Y010083D02*
X008581Y010083D01*
X008496Y010025D02*
X008117Y010025D01*
X008176Y009966D02*
X008438Y009966D01*
X008411Y009908D02*
X008234Y009908D01*
X008242Y009849D02*
X008387Y009849D01*
X008378Y009791D02*
X008242Y009791D01*
X008242Y009732D02*
X008378Y009732D01*
X008381Y009674D02*
X008205Y009674D01*
X008147Y009615D02*
X008406Y009615D01*
X008430Y009557D02*
X007858Y009557D01*
X007800Y009498D02*
X008484Y009498D01*
X008551Y009440D02*
X007189Y009440D01*
X007248Y009498D02*
X007546Y009498D01*
X007487Y009557D02*
X007306Y009557D01*
X007365Y009615D02*
X007444Y009615D01*
X007444Y009674D02*
X007423Y009674D01*
X007716Y009966D02*
X007850Y009966D01*
X007908Y010025D02*
X007774Y010025D01*
X007784Y009908D02*
X007791Y009908D01*
X007950Y010200D02*
X009133Y010200D01*
X009133Y010259D02*
X008008Y010259D01*
X008067Y010317D02*
X009133Y010317D01*
X009133Y010376D02*
X008125Y010376D01*
X008184Y010434D02*
X008564Y010434D01*
X008489Y010493D02*
X008242Y010493D01*
X008301Y010551D02*
X008432Y010551D01*
X008922Y010434D02*
X009133Y010434D01*
X009133Y010493D02*
X008997Y010493D01*
X009053Y010551D02*
X009133Y010551D01*
X009133Y010610D02*
X009078Y010610D01*
X009102Y010668D02*
X009133Y010668D01*
X009133Y010727D02*
X009108Y010727D01*
X009108Y010785D02*
X009133Y010785D01*
X009133Y010844D02*
X009101Y010844D01*
X009077Y010902D02*
X009133Y010902D01*
X009133Y010961D02*
X009053Y010961D01*
X008995Y011019D02*
X009133Y011019D01*
X009133Y011078D02*
X008933Y011078D01*
X008933Y011136D02*
X009133Y011136D01*
X009133Y011195D02*
X008892Y011195D01*
X008833Y011253D02*
X009133Y011253D01*
X009133Y011312D02*
X008775Y011312D01*
X008716Y011370D02*
X009133Y011370D01*
X009133Y011429D02*
X008908Y011429D01*
X008991Y011487D02*
X009133Y011487D01*
X009133Y011546D02*
X009050Y011546D01*
X009075Y011604D02*
X009133Y011604D01*
X009133Y011663D02*
X009100Y011663D01*
X009108Y011721D02*
X009133Y011721D01*
X009133Y011780D02*
X009108Y011780D01*
X009103Y011838D02*
X009133Y011838D01*
X009133Y011897D02*
X009079Y011897D01*
X009055Y011955D02*
X009133Y011955D01*
X009133Y012014D02*
X009000Y012014D01*
X008931Y012072D02*
X009133Y012072D01*
X009133Y012131D02*
X008473Y012131D01*
X008473Y012189D02*
X009133Y012189D01*
X009133Y012248D02*
X008473Y012248D01*
X008473Y012306D02*
X009133Y012306D01*
X009133Y012365D02*
X008856Y012365D01*
X008773Y012365D02*
X008713Y012365D01*
X008713Y012423D02*
X008773Y012423D01*
X008773Y012482D02*
X008713Y012482D01*
X008713Y012540D02*
X008773Y012540D01*
X008773Y012599D02*
X008713Y012599D01*
X008713Y012657D02*
X008773Y012657D01*
X008773Y012716D02*
X008713Y012716D01*
X008713Y012833D02*
X008773Y012833D01*
X008773Y012891D02*
X008713Y012891D01*
X008713Y012950D02*
X008773Y012950D01*
X008773Y013008D02*
X008713Y013008D01*
X008713Y013067D02*
X008773Y013067D01*
X008773Y013125D02*
X008713Y013125D01*
X008578Y013125D02*
X008031Y013125D01*
X007973Y013184D02*
X009133Y013184D01*
X009133Y013242D02*
X007914Y013242D01*
X007902Y013301D02*
X009133Y013301D01*
X009133Y013359D02*
X007902Y013359D01*
X007902Y013418D02*
X009133Y013418D01*
X009133Y013476D02*
X007902Y013476D01*
X007857Y013535D02*
X009133Y013535D01*
X009133Y013593D02*
X007799Y013593D01*
X007547Y013593D02*
X006588Y013593D01*
X006588Y013535D02*
X007488Y013535D01*
X007444Y013476D02*
X006581Y013476D01*
X006557Y013418D02*
X007444Y013418D01*
X007444Y013359D02*
X006516Y013359D01*
X006511Y013301D02*
X007444Y013301D01*
X007483Y013242D02*
X006580Y013242D01*
X006638Y013184D02*
X007483Y013184D01*
X007494Y013125D02*
X006672Y013125D01*
X006672Y013067D02*
X006701Y013067D01*
X007005Y013067D02*
X007553Y013067D01*
X007611Y013008D02*
X007063Y013008D01*
X007088Y012950D02*
X007670Y012950D01*
X007728Y012891D02*
X007103Y012891D01*
X007103Y012833D02*
X007787Y012833D01*
X007845Y012774D02*
X007086Y012774D01*
X007057Y012716D02*
X007904Y012716D01*
X007811Y012657D02*
X006998Y012657D01*
X006940Y012599D02*
X007752Y012599D01*
X007724Y012540D02*
X006881Y012540D01*
X006823Y012482D02*
X007724Y012482D01*
X007724Y012423D02*
X006764Y012423D01*
X006706Y012365D02*
X007739Y012365D01*
X007798Y012306D02*
X005007Y012306D01*
X004949Y012248D02*
X007856Y012248D01*
X007814Y012131D02*
X004832Y012131D01*
X004890Y012189D02*
X008093Y012189D01*
X008093Y012248D02*
X008049Y012248D01*
X008473Y012365D02*
X008630Y012365D01*
X008511Y012423D02*
X008473Y012423D01*
X008345Y012833D02*
X008324Y012833D01*
X008361Y012891D02*
X008265Y012891D01*
X008207Y012950D02*
X008386Y012950D01*
X008425Y013008D02*
X008148Y013008D01*
X008090Y013067D02*
X008482Y013067D01*
X008908Y013125D02*
X009133Y013125D01*
X009133Y013067D02*
X009004Y013067D01*
X009061Y013008D02*
X009133Y013008D01*
X009133Y012950D02*
X009100Y012950D01*
X009125Y012891D02*
X009133Y012891D01*
X009116Y012599D02*
X009133Y012599D01*
X009133Y012540D02*
X009086Y012540D01*
X009042Y012482D02*
X009133Y012482D01*
X009133Y012423D02*
X008975Y012423D01*
X008554Y012072D02*
X008473Y012072D01*
X008473Y012014D02*
X008485Y012014D01*
X007576Y012072D02*
X004773Y012072D01*
X004715Y012014D02*
X007518Y012014D01*
X007459Y011955D02*
X004656Y011955D01*
X004560Y011897D02*
X007401Y011897D01*
X007038Y010434D02*
X006578Y010434D01*
X006636Y010376D02*
X006979Y010376D01*
X006921Y010317D02*
X006672Y010317D01*
X006672Y010259D02*
X006862Y010259D01*
X006804Y010200D02*
X006672Y010200D01*
X006663Y010142D02*
X006745Y010142D01*
X006687Y010083D02*
X006605Y010083D01*
X006628Y010025D02*
X006546Y010025D01*
X005725Y012833D02*
X004759Y012833D01*
X004773Y012891D02*
X005712Y012891D01*
X005711Y012950D02*
X004775Y012950D01*
X004766Y013008D02*
X005721Y013008D01*
X005744Y013067D02*
X004743Y013067D01*
X004732Y012774D02*
X004768Y012774D01*
X004710Y012716D02*
X004687Y012716D01*
X004651Y012657D02*
X004602Y012657D01*
X004175Y012950D02*
X004157Y012950D01*
X006588Y013652D02*
X009133Y013652D01*
X009133Y013710D02*
X006588Y013710D01*
X006588Y013769D02*
X009133Y013769D01*
X009133Y013827D02*
X006588Y013827D01*
X006588Y013886D02*
X009133Y013886D01*
X009133Y013944D02*
X006588Y013944D01*
X006585Y014003D02*
X009133Y014003D01*
X009133Y014061D02*
X006573Y014061D01*
X006543Y014120D02*
X009133Y014120D01*
X009133Y003063D02*
X008951Y003063D01*
X009009Y003005D02*
X009133Y003005D01*
X009133Y002946D02*
X009059Y002946D01*
X009083Y002888D02*
X009133Y002888D01*
X009133Y002829D02*
X009107Y002829D01*
X009108Y002771D02*
X009133Y002771D01*
X009133Y002712D02*
X009108Y002712D01*
X009096Y002654D02*
X009133Y002654D01*
X009133Y002595D02*
X009072Y002595D01*
X009041Y002537D02*
X009133Y002537D01*
X009133Y002478D02*
X008982Y002478D01*
X008887Y002420D02*
X009133Y002420D01*
X001546Y002069D02*
X001353Y002069D01*
X001353Y002010D02*
X001482Y002010D01*
X001429Y001952D02*
X001353Y001952D01*
X001353Y001893D02*
X001405Y001893D01*
X001381Y001835D02*
X001353Y001835D01*
X001353Y001776D02*
X001378Y001776D01*
X001378Y001718D02*
X001353Y001718D01*
X001353Y001659D02*
X001387Y001659D01*
X001412Y001601D02*
X001353Y001601D01*
X001353Y001542D02*
X001440Y001542D01*
X001498Y001484D02*
X001353Y001484D01*
D16*
X008743Y012755D02*
X008743Y013175D01*
D17*
X008743Y010755D02*
X008293Y010755D01*
X006393Y008855D01*
X006393Y008285D01*
X006433Y008245D01*
X006083Y008105D02*
X006993Y007195D01*
X006993Y006025D01*
X006083Y008105D02*
X006083Y008655D01*
X005143Y007945D02*
X004743Y007545D01*
X004743Y006085D01*
X006923Y003905D01*
X006433Y003975D02*
X004493Y005915D01*
X004493Y007995D01*
X004273Y008215D01*
X004273Y008455D01*
D18*
X004993Y008355D02*
X005153Y008195D01*
X005413Y008195D01*
X005563Y008345D01*
X005233Y008455D02*
X005483Y008705D01*
X005593Y008705D01*
X005743Y008705D01*
X007693Y010655D01*
X007693Y011525D01*
X007803Y011635D01*
X007493Y011805D02*
X007643Y011955D01*
X007963Y011955D01*
X007493Y011805D02*
X007493Y010705D01*
X005693Y008905D01*
X005303Y008905D01*
X004993Y008595D01*
X004993Y008355D01*
X003663Y007935D02*
X003432Y007935D01*
X002203Y009164D01*
X002203Y010175D01*
X002343Y010315D01*
X002443Y009825D02*
X002443Y009494D01*
X003492Y008445D01*
D19*
X007673Y013215D02*
X008283Y012605D01*
X008283Y011535D01*
X008743Y011075D01*
X008743Y010755D01*
X007673Y013215D02*
X007673Y013395D01*
M02*
