G75*
G70*
%OFA0B0*%
%FSLAX24Y24*%
%IPPOS*%
%LPD*%
%AMOC8*
5,1,8,0,0,1.08239X$1,22.5*
%
%ADD10C,0.0080*%
%ADD11R,0.0433X0.0394*%
%ADD12R,0.0315X0.0315*%
%ADD13C,0.0740*%
%ADD14R,0.0394X0.0433*%
%ADD15R,0.0138X0.0551*%
%ADD16R,0.0709X0.0748*%
%ADD17R,0.0748X0.0748*%
%ADD18R,0.0472X0.0472*%
%ADD19R,0.0472X0.0276*%
%ADD20R,0.0276X0.0472*%
%ADD21R,0.0945X0.0748*%
%ADD22R,0.0400X0.1000*%
%ADD23R,0.0394X0.0394*%
%ADD24C,0.0278*%
%ADD25C,0.0100*%
%ADD26C,0.0160*%
D10*
X001243Y000150D02*
X009243Y000150D01*
X009243Y013150D01*
X001243Y013150D01*
X001243Y000150D01*
X002443Y001850D02*
X002506Y001850D01*
X002940Y002284D01*
X002924Y002300D01*
X002693Y002300D01*
X002543Y002450D01*
X002543Y004250D01*
X002793Y004500D01*
X003010Y004500D01*
X002940Y004430D01*
X002940Y003957D02*
X003450Y003957D01*
X003293Y003800D01*
X003293Y001835D01*
X003108Y001650D01*
X003589Y002284D02*
X004062Y002284D01*
X004443Y002193D02*
X004443Y002000D01*
X004643Y001800D01*
X004493Y001650D01*
X003777Y001650D01*
X004443Y002193D02*
X004534Y002284D01*
X004534Y002459D01*
X004534Y002284D02*
X005007Y002284D01*
X005479Y002284D01*
X005951Y002284D01*
X006143Y002750D02*
X005693Y002750D01*
X005593Y002650D01*
X005393Y002650D01*
X005243Y002800D01*
X005243Y003250D01*
X005343Y003350D01*
X005343Y007000D01*
X005243Y007100D01*
X005043Y006900D02*
X005043Y006200D01*
X004793Y005950D01*
X004593Y005950D01*
X004893Y005650D02*
X003493Y005650D01*
X003217Y005374D01*
X002940Y005374D01*
X002718Y005374D01*
X002543Y005550D01*
X002543Y007150D01*
X002243Y007450D01*
X002243Y008900D01*
X002493Y009150D01*
X002943Y009150D01*
X003258Y008835D01*
X003258Y008650D01*
X003589Y008196D02*
X003589Y007993D01*
X003589Y008146D01*
X003589Y008196D02*
X003927Y008535D01*
X003927Y008650D01*
X003927Y008935D01*
X004243Y009250D01*
X005043Y009250D01*
X005243Y009700D02*
X004743Y010200D01*
X004743Y010700D01*
X005243Y011200D01*
X005243Y011607D01*
X005243Y012100D01*
X005499Y011607D02*
X005499Y010709D01*
X005658Y010550D01*
X005343Y010050D02*
X006543Y010050D01*
X006993Y009600D01*
X006993Y009550D01*
X007293Y009600D02*
X006943Y009950D01*
X006893Y009950D01*
X006327Y010515D01*
X006327Y010550D01*
X006343Y010550D01*
X006908Y010615D02*
X006908Y011050D01*
X006908Y010615D02*
X006987Y010536D01*
X006987Y010250D01*
X006993Y010250D01*
X007493Y009750D01*
X007293Y009600D02*
X007293Y009350D01*
X007143Y009150D02*
X007243Y009050D01*
X007243Y008450D01*
X007193Y008400D01*
X006896Y007993D02*
X007546Y007993D01*
X007543Y007996D01*
X007543Y008100D01*
X007843Y008400D01*
X008093Y007900D02*
X008093Y009300D01*
X007893Y009500D01*
X008243Y009792D02*
X008243Y007850D01*
X007903Y007510D01*
X007003Y007510D01*
X006843Y007350D01*
X006793Y007350D01*
X006593Y007050D02*
X007143Y006500D01*
X007143Y003400D01*
X006943Y003200D01*
X007305Y003012D02*
X007093Y002800D01*
X006896Y002604D01*
X006896Y002284D01*
X006896Y001831D01*
X007077Y001650D01*
X007593Y001650D01*
X007546Y002284D02*
X007546Y002347D01*
X007093Y002800D01*
X007305Y003012D02*
X007546Y003012D01*
X006408Y001650D02*
X006408Y001639D01*
X006411Y001629D01*
X006417Y001620D01*
X006424Y001613D01*
X006433Y001608D01*
X006443Y001605D01*
X006193Y003100D02*
X006193Y003617D01*
X006089Y003721D01*
X005493Y002900D02*
X005493Y007400D01*
X005393Y007500D01*
X005479Y007936D02*
X004943Y007400D01*
X004843Y007300D01*
X004843Y007100D01*
X005043Y006900D01*
X004643Y006750D02*
X004448Y006556D01*
X004396Y006556D01*
X004160Y006319D01*
X002940Y006319D01*
X002940Y006792D01*
X002925Y007250D02*
X002643Y007250D01*
X002543Y007150D01*
X002483Y007510D02*
X003352Y007510D01*
X003562Y007300D01*
X003843Y007400D02*
X003593Y007650D01*
X002643Y007650D01*
X002543Y007750D01*
X002543Y008300D01*
X002743Y008500D01*
X002743Y008900D01*
X002493Y008650D02*
X002393Y008550D01*
X002393Y007600D01*
X002483Y007510D01*
X002925Y007250D02*
X002940Y007264D01*
X002940Y007993D02*
X003589Y007993D01*
X003589Y007904D01*
X003943Y007550D01*
X004243Y007550D01*
X004493Y007800D01*
X004493Y007951D01*
X004534Y007993D01*
X004393Y008400D02*
X004793Y008400D01*
X004813Y008420D01*
X005007Y008214D02*
X005143Y008350D01*
X005843Y008350D01*
X005943Y008250D01*
X005943Y008001D01*
X005951Y007993D01*
X005943Y007984D01*
X005943Y007300D01*
X005743Y007500D01*
X005943Y007300D02*
X005943Y007250D01*
X006143Y007050D01*
X006593Y007050D01*
X006443Y007500D02*
X006593Y007650D01*
X007843Y007650D01*
X008093Y007900D01*
X007546Y007264D02*
X007546Y006792D01*
X007738Y006600D01*
X008093Y006600D01*
X007846Y005847D02*
X007943Y005750D01*
X007943Y005050D01*
X007843Y004950D01*
X007594Y004950D01*
X007546Y004902D01*
X007546Y005847D02*
X007846Y005847D01*
X006424Y007993D02*
X006327Y008089D01*
X006327Y008750D01*
X006327Y009165D01*
X006293Y009200D01*
X006327Y009515D02*
X006327Y009700D01*
X006327Y009515D02*
X006693Y009150D01*
X007143Y009150D01*
X008243Y009792D02*
X007558Y010477D01*
X007558Y011030D01*
X007577Y011050D01*
X007577Y011531D01*
X007543Y011565D01*
X007543Y012235D02*
X007543Y012650D01*
X007443Y012750D01*
X006818Y012075D02*
X006943Y011950D01*
X006818Y012075D02*
X006818Y012650D01*
X006343Y011900D02*
X006049Y011607D01*
X005755Y011607D01*
X005058Y010477D02*
X005058Y010335D01*
X005343Y010050D01*
X005243Y009700D02*
X005658Y009700D01*
X005393Y009200D02*
X005393Y009015D01*
X005658Y008750D01*
X005479Y007993D02*
X005479Y007936D01*
X005007Y007993D02*
X005007Y008214D01*
X004543Y007450D02*
X004493Y007400D01*
X003843Y007400D01*
X004062Y007993D02*
X004093Y008024D01*
X004093Y008100D01*
X004393Y008400D01*
X004062Y008169D02*
X004062Y007993D01*
X003593Y007996D02*
X003589Y007993D01*
X003843Y009250D02*
X003743Y009350D01*
X003743Y009815D01*
X003243Y009450D02*
X003393Y009300D01*
X003243Y009450D02*
X003243Y009815D01*
X003243Y010485D02*
X003243Y010905D01*
X003243Y011495D02*
X003743Y011495D01*
X003948Y011495D01*
X004293Y011150D01*
X004293Y010900D01*
X004428Y010765D01*
X004428Y010477D01*
X004516Y010477D01*
X004293Y011150D02*
X004293Y011169D01*
X004731Y011607D01*
X003688Y012650D01*
X002977Y012800D02*
X002977Y012300D01*
X002527Y011850D01*
X002393Y011850D01*
X002243Y011700D01*
X002243Y009500D01*
X002343Y009400D01*
X002743Y009400D02*
X002743Y009815D01*
X002743Y010485D02*
X002743Y010905D01*
X002743Y011495D02*
X003243Y011495D01*
X003743Y010905D02*
X003743Y010485D01*
X002308Y012300D02*
X002208Y012400D01*
X001843Y012400D01*
X001643Y012750D02*
X002258Y012750D01*
X002308Y012800D01*
X005993Y006652D02*
X006089Y006556D01*
X005743Y006209D01*
X005743Y005950D01*
X006089Y005604D01*
X006089Y005138D01*
X006127Y005100D01*
X005193Y004650D02*
X005193Y005700D01*
X005043Y005850D01*
X004893Y005650D02*
X004993Y005550D01*
X004993Y004700D01*
X004843Y004550D01*
X004593Y004550D01*
X004743Y004200D02*
X005193Y004650D01*
X004743Y004200D02*
X003693Y004200D01*
X003450Y003957D01*
X002947Y003950D02*
X002940Y003957D01*
X002940Y003485D02*
X002940Y003012D01*
X003793Y005050D02*
X004208Y005050D01*
X004258Y005000D01*
X004396Y005138D01*
X005103Y003890D02*
X004934Y003721D01*
X004396Y003721D01*
X002940Y005847D02*
X002940Y006319D01*
X006928Y010477D02*
X006987Y010536D01*
X007558Y010477D02*
X008170Y010477D01*
X008343Y010650D01*
X008743Y010650D01*
X009103Y012200D02*
X008293Y012200D01*
X008293Y013010D01*
X009103Y013010D01*
X009103Y012200D01*
X009103Y012239D02*
X008293Y012239D01*
X008293Y012318D02*
X009103Y012318D01*
X009103Y012396D02*
X008293Y012396D01*
X008293Y012475D02*
X009103Y012475D01*
X009103Y012553D02*
X008293Y012553D01*
X008293Y012632D02*
X009103Y012632D01*
X009103Y012710D02*
X008293Y012710D01*
X008293Y012789D02*
X009103Y012789D01*
X009103Y012867D02*
X008293Y012867D01*
X008293Y012946D02*
X009103Y012946D01*
D11*
X007543Y012235D03*
X007543Y011565D03*
X007577Y011050D03*
X006908Y011050D03*
X003927Y008650D03*
X003258Y008650D03*
X003243Y009815D03*
X003243Y010485D03*
X003743Y010485D03*
X003743Y009815D03*
X002743Y009815D03*
X002743Y010485D03*
X006408Y001650D03*
X007077Y001650D03*
D12*
X003743Y010905D03*
X003743Y011495D03*
X003243Y011495D03*
X003243Y010905D03*
X002743Y010905D03*
X002743Y011495D03*
D13*
X001743Y011650D03*
X001743Y010650D03*
X001743Y009650D03*
X001743Y008650D03*
X001743Y007650D03*
X001743Y006650D03*
X001743Y005650D03*
X001743Y004650D03*
X001743Y003650D03*
X001743Y002650D03*
X001743Y001650D03*
X001743Y000650D03*
X008743Y000650D03*
X008743Y001650D03*
X008743Y002650D03*
X008743Y003650D03*
X008743Y004650D03*
X008743Y005650D03*
X008743Y006650D03*
X008743Y007650D03*
X008743Y008650D03*
X008743Y009650D03*
X008743Y010650D03*
X008743Y011650D03*
D14*
X006327Y010550D03*
X006327Y009700D03*
X005658Y009700D03*
X005658Y010550D03*
X005658Y008750D03*
X006327Y008750D03*
X002977Y012300D03*
X002977Y012800D03*
X002308Y012800D03*
X002308Y012300D03*
X003108Y001650D03*
X003777Y001650D03*
X006443Y001135D03*
X006443Y000465D03*
D15*
X005755Y011607D03*
X005499Y011607D03*
X005243Y011607D03*
X004987Y011607D03*
X004731Y011607D03*
D16*
X003668Y012650D03*
X006818Y012650D03*
D17*
X005743Y012650D03*
X004743Y012650D03*
D18*
X002940Y007993D03*
X002940Y002284D03*
X007546Y002284D03*
X007546Y007993D03*
D19*
X007546Y007264D03*
X007546Y006792D03*
X007546Y006319D03*
X007546Y005847D03*
X007546Y005374D03*
X007546Y004902D03*
X007546Y004430D03*
X007546Y003957D03*
X007546Y003485D03*
X007546Y003012D03*
X002940Y003012D03*
X002940Y003485D03*
X002940Y003957D03*
X002940Y004430D03*
X002940Y004902D03*
X002940Y005374D03*
X002940Y005847D03*
X002940Y006319D03*
X002940Y006792D03*
X002940Y007264D03*
D20*
X003589Y007993D03*
X004062Y007993D03*
X004534Y007993D03*
X005007Y007993D03*
X005479Y007993D03*
X005951Y007993D03*
X006424Y007993D03*
X006896Y007993D03*
X006896Y002284D03*
X006424Y002284D03*
X005951Y002284D03*
X005479Y002284D03*
X005007Y002284D03*
X004534Y002284D03*
X004062Y002284D03*
X003589Y002284D03*
D21*
X004396Y003721D03*
X004396Y005138D03*
X004396Y006556D03*
X006089Y006556D03*
X006089Y005138D03*
X006089Y003721D03*
D22*
X005543Y000750D03*
X002943Y000750D03*
D23*
X004428Y008823D03*
X005058Y008823D03*
X005058Y010477D03*
X004428Y010477D03*
X006928Y010477D03*
X007558Y010477D03*
X007558Y008823D03*
X006928Y008823D03*
D24*
X007193Y008400D03*
X007293Y009350D03*
X006993Y009550D03*
X007493Y009750D03*
X007893Y009500D03*
X007843Y008400D03*
X006993Y007050D03*
X006793Y007350D03*
X006443Y007500D03*
X005743Y007500D03*
X005393Y007500D03*
X005243Y007100D03*
X004943Y007400D03*
X004543Y007450D03*
X004643Y006750D03*
X004593Y005950D03*
X005043Y005850D03*
X005743Y005950D03*
X006843Y004950D03*
X006943Y003200D03*
X007093Y002800D03*
X007593Y001650D03*
X007993Y001700D03*
X006193Y003100D03*
X006143Y002750D03*
X005493Y002900D03*
X005103Y003890D03*
X004593Y004550D03*
X003793Y005050D03*
X004593Y003100D03*
X004643Y001800D03*
X002443Y001850D03*
X003562Y007300D03*
X002493Y008650D03*
X002743Y008900D03*
X002743Y009400D03*
X002343Y009400D03*
X003393Y009300D03*
X003843Y009250D03*
X004813Y008420D03*
X005043Y009250D03*
X005393Y009200D03*
X006293Y009200D03*
X006243Y011100D03*
X006343Y011900D03*
X006943Y011950D03*
X007443Y012750D03*
X005243Y012100D03*
X004293Y010900D03*
X001843Y012400D03*
X001643Y012750D03*
X008093Y006600D03*
D25*
X003688Y012650D02*
X003668Y012650D01*
D26*
X006424Y002284D02*
X006408Y002268D01*
X006408Y001650D01*
X006443Y001615D01*
X006443Y001135D01*
X006443Y000465D02*
X005577Y000465D01*
X005543Y000500D01*
X005543Y000750D01*
M02*
