G75*
G70*
%OFA0B0*%
%FSLAX24Y24*%
%IPPOS*%
%LPD*%
%AMOC8*
5,1,8,0,0,1.08239X$1,22.5*
%
%ADD10C,0.0397*%
%ADD11C,0.0550*%
%ADD12C,0.0278*%
%ADD13C,0.0320*%
%ADD14C,0.0080*%
%ADD15C,0.0120*%
D10*
X004150Y013640D03*
X006335Y013640D03*
D11*
X008743Y012640D03*
X008743Y011640D03*
X008743Y010640D03*
X008743Y009640D03*
X008743Y008640D03*
X008743Y007640D03*
X008743Y006640D03*
X008743Y005640D03*
X008743Y004640D03*
X008743Y003640D03*
X008743Y002640D03*
X008743Y001640D03*
X001743Y001640D03*
X001743Y002640D03*
X001743Y003640D03*
X001743Y004640D03*
X001743Y005640D03*
X001743Y006640D03*
X001743Y007640D03*
X001743Y008640D03*
X001743Y009640D03*
X001743Y010640D03*
X001743Y011640D03*
X001743Y012640D03*
D12*
X001543Y013340D03*
X002343Y012390D03*
X002393Y012780D03*
X003693Y013190D03*
X003893Y012520D03*
X003903Y010720D03*
X003841Y010138D03*
X004423Y010730D03*
X005233Y008410D03*
X005563Y008230D03*
X005143Y007830D03*
X005083Y007320D03*
X005043Y006840D03*
X005443Y006840D03*
X005963Y006910D03*
X006433Y008130D03*
X006693Y008570D03*
X006793Y008240D03*
X007093Y008040D03*
X007973Y009570D03*
X007703Y009830D03*
X007453Y011190D03*
X007093Y011190D03*
X006493Y010690D03*
X006073Y010520D03*
X006443Y010130D03*
X006083Y008540D03*
X004623Y008170D03*
X003693Y007840D03*
X003502Y008350D03*
X002493Y008060D03*
X002553Y009900D03*
X002343Y010200D03*
X002383Y010620D03*
X005943Y005260D03*
X006043Y003840D03*
X006403Y003890D03*
X006923Y003790D03*
X007063Y004960D03*
X006993Y005910D03*
X008073Y004000D03*
X007143Y001940D03*
X007743Y001440D03*
X005643Y001440D03*
X005643Y001840D03*
X004993Y001440D03*
X004243Y001440D03*
X003243Y001440D03*
X002543Y002750D03*
X008243Y008140D03*
X008253Y011280D03*
X008293Y012140D03*
X008203Y013120D03*
X006693Y012490D03*
X006443Y012940D03*
D13*
X006193Y013190D01*
X003693Y013190D01*
X002293Y011890D02*
X001793Y012390D01*
X001793Y012590D01*
X001743Y012640D01*
X002293Y011890D02*
X006093Y011890D01*
X006693Y012490D01*
X007833Y012750D02*
X007833Y011060D01*
X007988Y010905D01*
X008253Y010640D01*
X008743Y010640D01*
X007833Y012750D02*
X008203Y013120D01*
D14*
X001403Y002429D02*
X001403Y001851D01*
X001408Y001864D01*
X001519Y001975D01*
X001664Y002035D01*
X001821Y002035D01*
X001967Y001975D01*
X002078Y001864D01*
X002138Y001719D01*
X002138Y001561D01*
X002088Y001440D01*
X002984Y001440D01*
X002984Y001492D01*
X003023Y001587D01*
X003096Y001660D01*
X003191Y001699D01*
X003294Y001699D01*
X003390Y001660D01*
X003462Y001587D01*
X003502Y001492D01*
X003502Y001440D01*
X003984Y001440D01*
X003984Y001492D01*
X004023Y001587D01*
X004096Y001660D01*
X004191Y001699D01*
X004294Y001699D01*
X004390Y001660D01*
X004462Y001587D01*
X004502Y001492D01*
X004502Y001440D01*
X004734Y001440D01*
X004734Y001492D01*
X004773Y001587D01*
X004846Y001660D01*
X004941Y001699D01*
X005044Y001699D01*
X005140Y001660D01*
X005212Y001587D01*
X005252Y001492D01*
X005252Y001440D01*
X005384Y001440D01*
X005384Y001492D01*
X005423Y001587D01*
X005476Y001640D01*
X005423Y001693D01*
X005384Y001788D01*
X005384Y001892D01*
X005423Y001987D01*
X005496Y002060D01*
X005591Y002099D01*
X005694Y002099D01*
X005790Y002060D01*
X005862Y001987D01*
X005902Y001892D01*
X005902Y001788D01*
X005862Y001693D01*
X005809Y001640D01*
X005862Y001587D01*
X005902Y001492D01*
X005902Y001440D01*
X007484Y001440D01*
X007484Y001492D01*
X007523Y001587D01*
X007596Y001660D01*
X007691Y001699D01*
X007794Y001699D01*
X007890Y001660D01*
X007962Y001587D01*
X008002Y001492D01*
X008002Y001440D01*
X008398Y001440D01*
X008348Y001561D01*
X008348Y001719D01*
X008408Y001864D01*
X008519Y001975D01*
X008664Y002035D01*
X008821Y002035D01*
X008967Y001975D01*
X009078Y001864D01*
X009083Y001851D01*
X009083Y002429D01*
X009078Y002416D01*
X008967Y002305D01*
X008821Y002245D01*
X008664Y002245D01*
X008519Y002305D01*
X008408Y002416D01*
X008348Y002561D01*
X008348Y002719D01*
X008408Y002864D01*
X008519Y002975D01*
X008664Y003035D01*
X008821Y003035D01*
X008967Y002975D01*
X009078Y002864D01*
X009083Y002851D01*
X009083Y003429D01*
X009078Y003416D01*
X008967Y003305D01*
X008821Y003245D01*
X008664Y003245D01*
X008519Y003305D01*
X008408Y003416D01*
X008348Y003561D01*
X008348Y003719D01*
X008408Y003864D01*
X008519Y003975D01*
X008664Y004035D01*
X008821Y004035D01*
X008967Y003975D01*
X009078Y003864D01*
X009083Y003851D01*
X009083Y004429D01*
X009078Y004416D01*
X008967Y004305D01*
X008821Y004245D01*
X008664Y004245D01*
X008519Y004305D01*
X008408Y004416D01*
X008348Y004561D01*
X008348Y004719D01*
X008408Y004864D01*
X008519Y004975D01*
X008664Y005035D01*
X008821Y005035D01*
X008967Y004975D01*
X009078Y004864D01*
X009083Y004851D01*
X009083Y005429D01*
X009078Y005416D01*
X008967Y005305D01*
X008821Y005245D01*
X008664Y005245D01*
X008519Y005305D01*
X008408Y005416D01*
X008348Y005561D01*
X008348Y005719D01*
X008408Y005864D01*
X008519Y005975D01*
X008664Y006035D01*
X008821Y006035D01*
X008967Y005975D01*
X009078Y005864D01*
X009083Y005851D01*
X009083Y006429D01*
X009078Y006416D01*
X008967Y006305D01*
X008821Y006245D01*
X008664Y006245D01*
X008519Y006305D01*
X008408Y006416D01*
X008348Y006561D01*
X008348Y006719D01*
X008408Y006864D01*
X008519Y006975D01*
X008664Y007035D01*
X008821Y007035D01*
X008967Y006975D01*
X009078Y006864D01*
X009083Y006851D01*
X009083Y007429D01*
X009078Y007416D01*
X008967Y007305D01*
X008821Y007245D01*
X008664Y007245D01*
X008519Y007305D01*
X008408Y007416D01*
X008348Y007561D01*
X008348Y007719D01*
X008408Y007864D01*
X008519Y007975D01*
X008664Y008035D01*
X008821Y008035D01*
X008967Y007975D01*
X009078Y007864D01*
X009083Y007851D01*
X009083Y008429D01*
X009078Y008416D01*
X008967Y008305D01*
X008821Y008245D01*
X008664Y008245D01*
X008519Y008305D01*
X008408Y008416D01*
X008348Y008561D01*
X008348Y008719D01*
X008408Y008864D01*
X008519Y008975D01*
X008664Y009035D01*
X008821Y009035D01*
X008967Y008975D01*
X009078Y008864D01*
X009083Y008851D01*
X009083Y009429D01*
X009078Y009416D01*
X008967Y009305D01*
X008821Y009245D01*
X008664Y009245D01*
X008519Y009305D01*
X008408Y009416D01*
X008348Y009561D01*
X008348Y009719D01*
X008408Y009864D01*
X008519Y009975D01*
X008664Y010035D01*
X008821Y010035D01*
X008967Y009975D01*
X009078Y009864D01*
X009083Y009851D01*
X009083Y010429D01*
X009078Y010416D01*
X008967Y010305D01*
X008821Y010245D01*
X008664Y010245D01*
X008519Y010305D01*
X008464Y010360D01*
X008197Y010360D01*
X008094Y010403D01*
X007917Y010580D01*
X007573Y010235D01*
X007573Y010057D01*
X007651Y010089D01*
X007754Y010089D01*
X007850Y010050D01*
X007922Y009977D01*
X007962Y009882D01*
X007962Y009829D01*
X008024Y009829D01*
X008120Y009790D01*
X008192Y009717D01*
X008348Y009717D01*
X008348Y009639D02*
X008225Y009639D01*
X008232Y009622D02*
X008192Y009717D01*
X008232Y009622D02*
X008232Y009518D01*
X008192Y009423D01*
X008120Y009350D01*
X008024Y009311D01*
X007921Y009311D01*
X007826Y009350D01*
X007753Y009423D01*
X007714Y009518D01*
X007714Y009571D01*
X007651Y009571D01*
X007556Y009610D01*
X007537Y009630D01*
X006736Y008829D01*
X006744Y008829D01*
X006840Y008790D01*
X006912Y008717D01*
X006952Y008622D01*
X006952Y008518D01*
X006929Y008464D01*
X006940Y008460D01*
X007012Y008387D01*
X007052Y008292D01*
X007052Y008188D01*
X007012Y008093D01*
X006940Y008020D01*
X006844Y007981D01*
X006741Y007981D01*
X006665Y008013D01*
X006652Y007983D01*
X006580Y007910D01*
X006484Y007871D01*
X006456Y007871D01*
X007067Y007260D01*
X007173Y007155D01*
X007173Y006096D01*
X007212Y006057D01*
X007252Y005962D01*
X007252Y005858D01*
X007212Y005763D01*
X007140Y005690D01*
X007044Y005651D01*
X006941Y005651D01*
X006846Y005690D01*
X006773Y005763D01*
X006734Y005858D01*
X006734Y005962D01*
X006773Y006057D01*
X006813Y006096D01*
X006813Y007005D01*
X005903Y007915D01*
X005903Y008354D01*
X005863Y008393D01*
X005824Y008488D01*
X005824Y008592D01*
X005863Y008687D01*
X005936Y008760D01*
X006031Y008799D01*
X006134Y008799D01*
X006213Y008767D01*
X006213Y008815D01*
X006318Y008920D01*
X007213Y009815D01*
X007213Y010385D01*
X007663Y010834D01*
X007595Y010901D01*
X007572Y010959D01*
X007504Y010931D01*
X007401Y010931D01*
X007306Y010970D01*
X007273Y011004D01*
X007240Y010970D01*
X007144Y010931D01*
X007041Y010931D01*
X006946Y010970D01*
X006873Y011043D01*
X006834Y011138D01*
X006834Y011242D01*
X006873Y011337D01*
X006946Y011410D01*
X007041Y011449D01*
X007144Y011449D01*
X007240Y011410D01*
X007273Y011376D01*
X007306Y011410D01*
X007401Y011449D01*
X007504Y011449D01*
X007553Y011429D01*
X007553Y012806D01*
X007595Y012909D01*
X007674Y012987D01*
X007674Y012987D01*
X008044Y013357D01*
X008147Y013400D01*
X008258Y013400D01*
X008361Y013357D01*
X008440Y013279D01*
X008483Y013176D01*
X008483Y013064D01*
X008440Y012961D01*
X008113Y012634D01*
X008113Y012326D01*
X008146Y012360D01*
X008241Y012399D01*
X008344Y012399D01*
X008434Y012362D01*
X008426Y012370D01*
X008388Y012422D01*
X008358Y012481D01*
X008338Y012543D01*
X008113Y012543D01*
X008113Y012465D02*
X008366Y012465D01*
X008376Y012386D02*
X008414Y012386D01*
X008484Y012315D02*
X008525Y012285D01*
X008583Y012255D01*
X008646Y012235D01*
X008703Y012226D01*
X008703Y012600D01*
X008783Y012600D01*
X008783Y012226D01*
X008840Y012235D01*
X008902Y012255D01*
X008960Y012285D01*
X009013Y012323D01*
X009059Y012370D01*
X009083Y012402D01*
X009083Y011851D01*
X009078Y011864D01*
X008967Y011975D01*
X008821Y012035D01*
X008664Y012035D01*
X008519Y011975D01*
X008408Y011864D01*
X008348Y011719D01*
X008348Y011561D01*
X008368Y011513D01*
X008304Y011539D01*
X008201Y011539D01*
X008113Y011502D01*
X008113Y011954D01*
X008146Y011920D01*
X008241Y011881D01*
X008344Y011881D01*
X008440Y011920D01*
X008512Y011993D01*
X008552Y012088D01*
X008552Y012192D01*
X008512Y012287D01*
X008484Y012315D01*
X008492Y012308D02*
X008494Y012308D01*
X008536Y012229D02*
X008685Y012229D01*
X008703Y012229D02*
X008783Y012229D01*
X008801Y012229D02*
X009083Y012229D01*
X009083Y012151D02*
X008552Y012151D01*
X008545Y012072D02*
X009083Y012072D01*
X009083Y011994D02*
X008921Y011994D01*
X009026Y011915D02*
X009083Y011915D01*
X009083Y012308D02*
X008991Y012308D01*
X009071Y012386D02*
X009083Y012386D01*
X008783Y012386D02*
X008703Y012386D01*
X008703Y012308D02*
X008783Y012308D01*
X008783Y012465D02*
X008703Y012465D01*
X008703Y012543D02*
X008783Y012543D01*
X008703Y012600D02*
X008703Y012680D01*
X008703Y013054D01*
X008646Y013045D01*
X008583Y013025D01*
X008525Y012995D01*
X008472Y012957D01*
X008426Y012910D01*
X008388Y012858D01*
X008358Y012799D01*
X008338Y012737D01*
X008329Y012680D01*
X008703Y012680D01*
X008783Y012680D01*
X008783Y013054D01*
X008840Y013045D01*
X008902Y013025D01*
X008960Y012995D01*
X009013Y012957D01*
X009059Y012910D01*
X009083Y012878D01*
X009083Y013980D01*
X001403Y013980D01*
X001403Y013562D01*
X001491Y013599D01*
X001594Y013599D01*
X001690Y013560D01*
X001762Y013487D01*
X001802Y013392D01*
X001802Y013288D01*
X001762Y013193D01*
X001690Y013120D01*
X001594Y013081D01*
X001491Y013081D01*
X001403Y013118D01*
X001403Y012851D01*
X001408Y012864D01*
X001519Y012975D01*
X001664Y013035D01*
X001821Y013035D01*
X001967Y012975D01*
X002078Y012864D01*
X002138Y012719D01*
X002138Y012561D01*
X002103Y012476D01*
X002409Y012170D01*
X005977Y012170D01*
X006467Y012660D01*
X006387Y012660D01*
X006284Y012703D01*
X006249Y012738D01*
X006249Y012715D01*
X006109Y012575D01*
X005912Y012575D01*
X005772Y012715D01*
X005772Y012910D01*
X004713Y012910D01*
X004713Y012715D01*
X004574Y012575D01*
X004376Y012575D01*
X004237Y012715D01*
X004237Y012910D01*
X003637Y012910D01*
X003534Y012953D01*
X003455Y013031D01*
X003413Y013134D01*
X003413Y013246D01*
X003455Y013349D01*
X003534Y013427D01*
X003637Y013470D01*
X003876Y013470D01*
X003832Y013577D01*
X003832Y013703D01*
X003880Y013820D01*
X003970Y013910D01*
X004087Y013958D01*
X004214Y013958D01*
X004331Y013910D01*
X004420Y013820D01*
X004469Y013703D01*
X004469Y013577D01*
X004425Y013470D01*
X006061Y013470D01*
X006017Y013577D01*
X006017Y013703D01*
X006065Y013820D01*
X006155Y013910D01*
X006272Y013958D01*
X006399Y013958D01*
X006516Y013910D01*
X006605Y013820D01*
X006654Y013703D01*
X006654Y013577D01*
X006605Y013460D01*
X006516Y013370D01*
X006440Y013339D01*
X006680Y013099D01*
X006723Y012996D01*
X006723Y012884D01*
X006680Y012781D01*
X006669Y012770D01*
X006748Y012770D01*
X006851Y012727D01*
X006930Y012649D01*
X006973Y012546D01*
X006973Y012434D01*
X006930Y012331D01*
X006330Y011731D01*
X006251Y011653D01*
X006148Y011610D01*
X002237Y011610D01*
X002138Y011651D01*
X002138Y011561D01*
X002078Y011416D01*
X001967Y011305D01*
X001821Y011245D01*
X001664Y011245D01*
X001519Y011305D01*
X001408Y011416D01*
X001403Y011429D01*
X001403Y010851D01*
X001408Y010864D01*
X001519Y010975D01*
X001664Y011035D01*
X001821Y011035D01*
X001967Y010975D01*
X002078Y010864D01*
X002138Y010719D01*
X002138Y010561D01*
X002078Y010416D01*
X001967Y010305D01*
X001821Y010245D01*
X001664Y010245D01*
X001519Y010305D01*
X001408Y010416D01*
X001403Y010429D01*
X001403Y009851D01*
X001408Y009864D01*
X001519Y009975D01*
X001664Y010035D01*
X001821Y010035D01*
X001967Y009975D01*
X002078Y009864D01*
X002138Y009719D01*
X002138Y009561D01*
X002078Y009416D01*
X001967Y009305D01*
X001821Y009245D01*
X001664Y009245D01*
X001519Y009305D01*
X001408Y009416D01*
X001403Y009429D01*
X001403Y008851D01*
X001408Y008864D01*
X001519Y008975D01*
X001664Y009035D01*
X001821Y009035D01*
X001967Y008975D01*
X002078Y008864D01*
X002138Y008719D01*
X002138Y008561D01*
X002078Y008416D01*
X001967Y008305D01*
X001821Y008245D01*
X001664Y008245D01*
X001519Y008305D01*
X001408Y008416D01*
X001403Y008429D01*
X001403Y007851D01*
X001408Y007864D01*
X001519Y007975D01*
X001664Y008035D01*
X001821Y008035D01*
X001967Y007975D01*
X002078Y007864D01*
X002138Y007719D01*
X002138Y007561D01*
X002078Y007416D01*
X001967Y007305D01*
X001821Y007245D01*
X001664Y007245D01*
X001519Y007305D01*
X001408Y007416D01*
X001403Y007429D01*
X001403Y006851D01*
X001408Y006864D01*
X001519Y006975D01*
X001664Y007035D01*
X001821Y007035D01*
X001967Y006975D01*
X002078Y006864D01*
X002138Y006719D01*
X002138Y006561D01*
X002078Y006416D01*
X001967Y006305D01*
X001821Y006245D01*
X001664Y006245D01*
X001519Y006305D01*
X001408Y006416D01*
X001403Y006429D01*
X001403Y005851D01*
X001408Y005864D01*
X001519Y005975D01*
X001664Y006035D01*
X001821Y006035D01*
X001967Y005975D01*
X002078Y005864D01*
X002138Y005719D01*
X002138Y005561D01*
X002078Y005416D01*
X001967Y005305D01*
X001821Y005245D01*
X001664Y005245D01*
X001519Y005305D01*
X001408Y005416D01*
X001403Y005429D01*
X001403Y004851D01*
X001408Y004864D01*
X001519Y004975D01*
X001664Y005035D01*
X001821Y005035D01*
X001967Y004975D01*
X002078Y004864D01*
X002138Y004719D01*
X002138Y004561D01*
X002078Y004416D01*
X001967Y004305D01*
X001821Y004245D01*
X001664Y004245D01*
X001519Y004305D01*
X001408Y004416D01*
X001403Y004429D01*
X001403Y003851D01*
X001408Y003864D01*
X001519Y003975D01*
X001664Y004035D01*
X001821Y004035D01*
X001967Y003975D01*
X002078Y003864D01*
X002138Y003719D01*
X002138Y003561D01*
X002078Y003416D01*
X001967Y003305D01*
X001821Y003245D01*
X001664Y003245D01*
X001519Y003305D01*
X001408Y003416D01*
X001403Y003429D01*
X001403Y002851D01*
X001408Y002864D01*
X001519Y002975D01*
X001664Y003035D01*
X001821Y003035D01*
X001967Y002975D01*
X002078Y002864D01*
X002138Y002719D01*
X002138Y002561D01*
X002078Y002416D01*
X001967Y002305D01*
X001821Y002245D01*
X001664Y002245D01*
X001519Y002305D01*
X001408Y002416D01*
X001403Y002429D01*
X001403Y002417D02*
X001408Y002417D01*
X001403Y002338D02*
X001486Y002338D01*
X001403Y002260D02*
X001629Y002260D01*
X001638Y002024D02*
X001403Y002024D01*
X001403Y001946D02*
X001490Y001946D01*
X001411Y001867D02*
X001403Y001867D01*
X001403Y002103D02*
X006939Y002103D01*
X006923Y002087D02*
X006884Y001992D01*
X006884Y001888D01*
X006923Y001793D01*
X006996Y001720D01*
X007091Y001681D01*
X007194Y001681D01*
X007290Y001720D01*
X007362Y001793D01*
X007402Y001888D01*
X007402Y001992D01*
X007362Y002087D01*
X007290Y002160D01*
X007194Y002199D01*
X007091Y002199D01*
X006996Y002160D01*
X006923Y002087D01*
X006897Y002024D02*
X005825Y002024D01*
X005880Y001946D02*
X006884Y001946D01*
X006893Y001867D02*
X005902Y001867D01*
X005902Y001789D02*
X006928Y001789D01*
X007021Y001710D02*
X005869Y001710D01*
X005818Y001632D02*
X007568Y001632D01*
X007509Y001553D02*
X005876Y001553D01*
X005902Y001475D02*
X007484Y001475D01*
X007264Y001710D02*
X008348Y001710D01*
X008348Y001632D02*
X007918Y001632D01*
X007976Y001553D02*
X008351Y001553D01*
X008384Y001475D02*
X008002Y001475D01*
X008377Y001789D02*
X007358Y001789D01*
X007393Y001867D02*
X008411Y001867D01*
X008490Y001946D02*
X007402Y001946D01*
X007388Y002024D02*
X008638Y002024D01*
X008629Y002260D02*
X001856Y002260D01*
X001848Y002024D02*
X005460Y002024D01*
X005406Y001946D02*
X001996Y001946D01*
X002074Y001867D02*
X005384Y001867D01*
X005384Y001789D02*
X002109Y001789D01*
X002138Y001710D02*
X005416Y001710D01*
X005468Y001632D02*
X005168Y001632D01*
X005226Y001553D02*
X005409Y001553D01*
X005384Y001475D02*
X005252Y001475D01*
X004818Y001632D02*
X004418Y001632D01*
X004476Y001553D02*
X004759Y001553D01*
X004734Y001475D02*
X004502Y001475D01*
X004068Y001632D02*
X003418Y001632D01*
X003476Y001553D02*
X004009Y001553D01*
X003984Y001475D02*
X003502Y001475D01*
X003068Y001632D02*
X002138Y001632D01*
X002134Y001553D02*
X003009Y001553D01*
X002984Y001475D02*
X002102Y001475D01*
X001999Y002338D02*
X008486Y002338D01*
X008408Y002417D02*
X002078Y002417D01*
X002110Y002495D02*
X002481Y002495D01*
X002491Y002491D02*
X002594Y002491D01*
X002690Y002530D01*
X002762Y002603D01*
X002802Y002698D01*
X002802Y002802D01*
X002762Y002897D01*
X002690Y002970D01*
X002594Y003009D01*
X002491Y003009D01*
X002396Y002970D01*
X002323Y002897D01*
X002284Y002802D01*
X002284Y002698D01*
X002323Y002603D01*
X002396Y002530D01*
X002491Y002491D01*
X002604Y002495D02*
X008375Y002495D01*
X008348Y002574D02*
X002733Y002574D01*
X002783Y002652D02*
X008348Y002652D01*
X008353Y002731D02*
X002802Y002731D01*
X002799Y002809D02*
X008385Y002809D01*
X008432Y002888D02*
X002766Y002888D01*
X002693Y002966D02*
X008510Y002966D01*
X008580Y003280D02*
X001906Y003280D01*
X002020Y003359D02*
X008466Y003359D01*
X008399Y003437D02*
X002086Y003437D01*
X002119Y003516D02*
X008367Y003516D01*
X008348Y003594D02*
X007093Y003594D01*
X007070Y003570D02*
X007142Y003643D01*
X007182Y003738D01*
X007182Y003842D01*
X007142Y003937D01*
X007070Y004010D01*
X006974Y004049D01*
X006918Y004049D01*
X005966Y005001D01*
X005994Y005001D01*
X006090Y005040D01*
X006162Y005113D01*
X006202Y005208D01*
X006202Y005312D01*
X006162Y005407D01*
X006090Y005480D01*
X005994Y005519D01*
X005891Y005519D01*
X005796Y005480D01*
X005723Y005407D01*
X005684Y005312D01*
X005684Y005284D01*
X004923Y006045D01*
X004923Y007114D01*
X004936Y007100D01*
X005031Y007061D01*
X005134Y007061D01*
X005230Y007100D01*
X005302Y007173D01*
X005342Y007268D01*
X005342Y007372D01*
X005302Y007467D01*
X005230Y007540D01*
X005154Y007571D01*
X005194Y007571D01*
X005290Y007610D01*
X005362Y007683D01*
X005402Y007778D01*
X005402Y007882D01*
X005362Y007977D01*
X005290Y008050D01*
X005194Y008089D01*
X005091Y008089D01*
X004996Y008050D01*
X004923Y007977D01*
X004884Y007882D01*
X004884Y007826D01*
X004673Y007615D01*
X004673Y007911D01*
X004674Y007911D01*
X004770Y007950D01*
X004842Y008023D01*
X004882Y008118D01*
X004882Y008222D01*
X004842Y008317D01*
X004770Y008390D01*
X004674Y008429D01*
X004571Y008429D01*
X004476Y008390D01*
X004403Y008317D01*
X004364Y008222D01*
X004364Y008166D01*
X004313Y008115D01*
X004313Y005725D01*
X004418Y005620D01*
X006144Y003894D01*
X006144Y003838D01*
X006183Y003743D01*
X006256Y003670D01*
X006351Y003631D01*
X006454Y003631D01*
X006550Y003670D01*
X006622Y003743D01*
X006650Y003809D01*
X006664Y003794D01*
X006664Y003738D01*
X006703Y003643D01*
X006776Y003570D01*
X006871Y003531D01*
X006974Y003531D01*
X007070Y003570D01*
X007155Y003673D02*
X008348Y003673D01*
X008361Y003751D02*
X008149Y003751D01*
X008124Y003741D02*
X008220Y003780D01*
X008292Y003853D01*
X008332Y003948D01*
X008332Y004052D01*
X008292Y004147D01*
X008220Y004220D01*
X008124Y004259D01*
X008021Y004259D01*
X007926Y004220D01*
X007853Y004147D01*
X007814Y004052D01*
X007814Y003948D01*
X007853Y003853D01*
X007926Y003780D01*
X008021Y003741D01*
X008124Y003741D01*
X008269Y003830D02*
X008394Y003830D01*
X008452Y003908D02*
X008315Y003908D01*
X008332Y003987D02*
X008547Y003987D01*
X008326Y004065D02*
X009083Y004065D01*
X009083Y003987D02*
X008938Y003987D01*
X009033Y003908D02*
X009083Y003908D01*
X009083Y004144D02*
X008294Y004144D01*
X008214Y004222D02*
X009083Y004222D01*
X009083Y004301D02*
X008955Y004301D01*
X009040Y004379D02*
X009083Y004379D01*
X009083Y004929D02*
X009013Y004929D01*
X009083Y005007D02*
X008889Y005007D01*
X009083Y005086D02*
X006135Y005086D01*
X006183Y005164D02*
X009083Y005164D01*
X009083Y005243D02*
X006202Y005243D01*
X006198Y005321D02*
X008503Y005321D01*
X008425Y005400D02*
X006165Y005400D01*
X006091Y005478D02*
X008382Y005478D01*
X008350Y005557D02*
X005411Y005557D01*
X005332Y005635D02*
X008348Y005635D01*
X008348Y005714D02*
X007163Y005714D01*
X007224Y005792D02*
X008378Y005792D01*
X008415Y005871D02*
X007252Y005871D01*
X007252Y005949D02*
X008493Y005949D01*
X008646Y006028D02*
X007225Y006028D01*
X007173Y006106D02*
X009083Y006106D01*
X009083Y006028D02*
X008839Y006028D01*
X008992Y005949D02*
X009083Y005949D01*
X009071Y005871D02*
X009083Y005871D01*
X009083Y006185D02*
X007173Y006185D01*
X007173Y006263D02*
X008621Y006263D01*
X008483Y006342D02*
X007173Y006342D01*
X007173Y006420D02*
X008406Y006420D01*
X008374Y006499D02*
X007173Y006499D01*
X007173Y006577D02*
X008348Y006577D01*
X008348Y006656D02*
X007173Y006656D01*
X007173Y006734D02*
X008354Y006734D01*
X008387Y006813D02*
X007173Y006813D01*
X007173Y006891D02*
X008435Y006891D01*
X008514Y006970D02*
X007173Y006970D01*
X007173Y007048D02*
X009083Y007048D01*
X009083Y006970D02*
X008972Y006970D01*
X009050Y006891D02*
X009083Y006891D01*
X009083Y007127D02*
X007173Y007127D01*
X007122Y007205D02*
X009083Y007205D01*
X009083Y007284D02*
X008914Y007284D01*
X009023Y007362D02*
X009083Y007362D01*
X009083Y007912D02*
X009030Y007912D01*
X009083Y007990D02*
X008930Y007990D01*
X009083Y008069D02*
X008494Y008069D01*
X008502Y008088D02*
X008462Y007993D01*
X008390Y007920D01*
X008294Y007881D01*
X008191Y007881D01*
X008096Y007920D01*
X008023Y007993D01*
X007984Y008088D01*
X007984Y008192D01*
X008023Y008287D01*
X008096Y008360D01*
X008191Y008399D01*
X008294Y008399D01*
X008390Y008360D01*
X008462Y008287D01*
X008502Y008192D01*
X008502Y008088D01*
X008502Y008147D02*
X009083Y008147D01*
X009083Y008226D02*
X008488Y008226D01*
X008522Y008304D02*
X008445Y008304D01*
X008442Y008383D02*
X008334Y008383D01*
X008389Y008461D02*
X006936Y008461D01*
X006952Y008540D02*
X008357Y008540D01*
X008348Y008618D02*
X006952Y008618D01*
X006921Y008697D02*
X008348Y008697D01*
X008371Y008775D02*
X006854Y008775D01*
X006761Y008854D02*
X008404Y008854D01*
X008476Y008932D02*
X006839Y008932D01*
X006918Y009011D02*
X008605Y009011D01*
X008662Y009246D02*
X007153Y009246D01*
X007075Y009168D02*
X009083Y009168D01*
X009083Y009246D02*
X008824Y009246D01*
X008880Y009011D02*
X009083Y009011D01*
X009083Y009089D02*
X006996Y009089D01*
X007232Y009325D02*
X007888Y009325D01*
X007773Y009403D02*
X007310Y009403D01*
X007389Y009482D02*
X007729Y009482D01*
X007714Y009560D02*
X007467Y009560D01*
X007194Y009796D02*
X003043Y009796D01*
X003043Y009874D02*
X006384Y009874D01*
X006391Y009871D02*
X006494Y009871D01*
X006590Y009910D01*
X006662Y009983D01*
X006702Y010078D01*
X006702Y010182D01*
X006662Y010277D01*
X006590Y010350D01*
X006494Y010389D01*
X006391Y010389D01*
X006296Y010350D01*
X006223Y010277D01*
X006184Y010182D01*
X006184Y010078D01*
X006223Y009983D01*
X006296Y009910D01*
X006391Y009871D01*
X006502Y009874D02*
X007213Y009874D01*
X007213Y009953D02*
X006632Y009953D01*
X006682Y010031D02*
X007213Y010031D01*
X007213Y010110D02*
X006702Y010110D01*
X006699Y010188D02*
X007213Y010188D01*
X007213Y010267D02*
X006667Y010267D01*
X006594Y010345D02*
X007213Y010345D01*
X007252Y010424D02*
X002480Y010424D01*
X002490Y010420D02*
X002529Y010380D01*
X002767Y010380D01*
X002937Y010210D01*
X003043Y010105D01*
X003043Y009515D01*
X003867Y008690D01*
X003973Y008585D01*
X003973Y007965D01*
X003936Y007929D01*
X003952Y007892D01*
X003952Y007788D01*
X003912Y007693D01*
X003840Y007620D01*
X003744Y007581D01*
X003641Y007581D01*
X003546Y007620D01*
X003473Y007693D01*
X003434Y007788D01*
X003434Y007892D01*
X003473Y007987D01*
X003546Y008060D01*
X003566Y008068D01*
X003613Y008115D01*
X003613Y008116D01*
X003553Y008091D01*
X003450Y008091D01*
X003355Y008130D01*
X003282Y008203D01*
X003243Y008298D01*
X003243Y008354D01*
X002373Y009224D01*
X002373Y009714D01*
X002333Y009753D01*
X002294Y009848D01*
X002294Y009941D01*
X002291Y009941D01*
X002196Y009980D01*
X002123Y010053D01*
X002084Y010148D01*
X002084Y010252D01*
X002123Y010347D01*
X002196Y010420D01*
X002291Y010459D01*
X002394Y010459D01*
X002490Y010420D01*
X002206Y010424D02*
X002081Y010424D01*
X002113Y010502D02*
X003754Y010502D01*
X003756Y010500D02*
X003851Y010461D01*
X003954Y010461D01*
X004050Y010500D01*
X004122Y010573D01*
X004162Y010668D01*
X004162Y010772D01*
X004122Y010867D01*
X004050Y010940D01*
X003954Y010979D01*
X003851Y010979D01*
X003756Y010940D01*
X003683Y010867D01*
X003644Y010772D01*
X003644Y010668D01*
X003683Y010573D01*
X003756Y010500D01*
X003790Y010397D02*
X003694Y010357D01*
X003622Y010284D01*
X003582Y010189D01*
X003582Y010086D01*
X003622Y009991D01*
X003694Y009918D01*
X003790Y009879D01*
X003893Y009879D01*
X003988Y009918D01*
X004061Y009991D01*
X004100Y010086D01*
X004100Y010189D01*
X004061Y010284D01*
X003988Y010357D01*
X003893Y010397D01*
X003790Y010397D01*
X003682Y010345D02*
X002802Y010345D01*
X002881Y010267D02*
X003614Y010267D01*
X003582Y010188D02*
X002959Y010188D01*
X003038Y010110D02*
X003582Y010110D01*
X003605Y010031D02*
X003043Y010031D01*
X003043Y009953D02*
X003660Y009953D01*
X004022Y009953D02*
X006254Y009953D01*
X006203Y010031D02*
X004077Y010031D01*
X004100Y010110D02*
X006184Y010110D01*
X006186Y010188D02*
X004100Y010188D01*
X004068Y010267D02*
X006219Y010267D01*
X006291Y010345D02*
X004000Y010345D01*
X004051Y010502D02*
X006314Y010502D01*
X006346Y010470D02*
X006273Y010543D01*
X006234Y010638D01*
X006234Y010742D01*
X006273Y010837D01*
X006346Y010910D01*
X006441Y010949D01*
X006544Y010949D01*
X006640Y010910D01*
X006712Y010837D01*
X006752Y010742D01*
X006752Y010638D01*
X006712Y010543D01*
X006640Y010470D01*
X006544Y010431D01*
X006441Y010431D01*
X006346Y010470D01*
X006258Y010581D02*
X004125Y010581D01*
X004158Y010659D02*
X006234Y010659D01*
X006234Y010738D02*
X004162Y010738D01*
X004143Y010816D02*
X006265Y010816D01*
X006331Y010895D02*
X004095Y010895D01*
X003969Y010973D02*
X006943Y010973D01*
X006870Y011052D02*
X001403Y011052D01*
X001403Y011130D02*
X006837Y011130D01*
X006834Y011209D02*
X001403Y011209D01*
X001403Y011287D02*
X001563Y011287D01*
X001459Y011366D02*
X001403Y011366D01*
X001403Y010973D02*
X001517Y010973D01*
X001439Y010895D02*
X001403Y010895D01*
X001403Y010424D02*
X001405Y010424D01*
X001403Y010345D02*
X001479Y010345D01*
X001403Y010267D02*
X001612Y010267D01*
X001655Y010031D02*
X001403Y010031D01*
X001403Y009953D02*
X001497Y009953D01*
X001418Y009874D02*
X001403Y009874D01*
X001403Y010110D02*
X002100Y010110D01*
X002084Y010188D02*
X001403Y010188D01*
X001831Y010031D02*
X002145Y010031D01*
X002263Y009953D02*
X001989Y009953D01*
X002067Y009874D02*
X002294Y009874D01*
X002316Y009796D02*
X002106Y009796D01*
X002138Y009717D02*
X002369Y009717D01*
X002373Y009639D02*
X002138Y009639D01*
X002137Y009560D02*
X002373Y009560D01*
X002373Y009482D02*
X002105Y009482D01*
X002064Y009403D02*
X002373Y009403D01*
X002373Y009325D02*
X001986Y009325D01*
X001824Y009246D02*
X002373Y009246D01*
X002430Y009168D02*
X001403Y009168D01*
X001403Y009246D02*
X001662Y009246D01*
X001605Y009011D02*
X001403Y009011D01*
X001403Y009089D02*
X002508Y009089D01*
X002587Y009011D02*
X001880Y009011D01*
X002009Y008932D02*
X002665Y008932D01*
X002744Y008854D02*
X002082Y008854D01*
X002114Y008775D02*
X002822Y008775D01*
X002901Y008697D02*
X002138Y008697D01*
X002138Y008618D02*
X002979Y008618D01*
X003058Y008540D02*
X002129Y008540D01*
X002096Y008461D02*
X003136Y008461D01*
X003215Y008383D02*
X002044Y008383D01*
X001964Y008304D02*
X003243Y008304D01*
X003273Y008226D02*
X001403Y008226D01*
X001403Y008304D02*
X001522Y008304D01*
X001442Y008383D02*
X001403Y008383D01*
X001403Y008147D02*
X003338Y008147D01*
X003476Y007990D02*
X001930Y007990D01*
X002030Y007912D02*
X003442Y007912D01*
X003434Y007833D02*
X002090Y007833D01*
X002123Y007755D02*
X003448Y007755D01*
X003490Y007676D02*
X002138Y007676D01*
X002138Y007598D02*
X003601Y007598D01*
X003784Y007598D02*
X004313Y007598D01*
X004313Y007676D02*
X003895Y007676D01*
X003938Y007755D02*
X004313Y007755D01*
X004313Y007833D02*
X003952Y007833D01*
X003944Y007912D02*
X004313Y007912D01*
X004313Y007990D02*
X003973Y007990D01*
X003973Y008069D02*
X004313Y008069D01*
X004345Y008147D02*
X003973Y008147D01*
X003973Y008226D02*
X004365Y008226D01*
X004398Y008304D02*
X003973Y008304D01*
X003973Y008383D02*
X004469Y008383D01*
X004777Y008383D02*
X004974Y008383D01*
X004974Y008358D02*
X004974Y008462D01*
X005013Y008557D01*
X005086Y008630D01*
X005181Y008669D01*
X005284Y008669D01*
X005380Y008630D01*
X005452Y008557D01*
X005485Y008478D01*
X005511Y008489D01*
X005614Y008489D01*
X005710Y008450D01*
X005782Y008377D01*
X005822Y008282D01*
X005822Y008178D01*
X005782Y008083D01*
X005710Y008010D01*
X005614Y007971D01*
X005511Y007971D01*
X005416Y008010D01*
X005343Y008083D01*
X005311Y008162D01*
X005284Y008151D01*
X005181Y008151D01*
X005086Y008190D01*
X005013Y008263D01*
X004974Y008358D01*
X004996Y008304D02*
X004848Y008304D01*
X004880Y008226D02*
X005051Y008226D01*
X005042Y008069D02*
X004861Y008069D01*
X004882Y008147D02*
X005317Y008147D01*
X005358Y008069D02*
X005244Y008069D01*
X005349Y007990D02*
X005465Y007990D01*
X005389Y007912D02*
X005907Y007912D01*
X005903Y007990D02*
X005660Y007990D01*
X005768Y008069D02*
X005903Y008069D01*
X005903Y008147D02*
X005809Y008147D01*
X005822Y008226D02*
X005903Y008226D01*
X005903Y008304D02*
X005813Y008304D01*
X005777Y008383D02*
X005874Y008383D01*
X005835Y008461D02*
X005682Y008461D01*
X005824Y008540D02*
X005460Y008540D01*
X005391Y008618D02*
X005835Y008618D01*
X005873Y008697D02*
X003861Y008697D01*
X003782Y008775D02*
X005973Y008775D01*
X006192Y008775D02*
X006213Y008775D01*
X006252Y008854D02*
X003704Y008854D01*
X003625Y008932D02*
X006330Y008932D01*
X006409Y009011D02*
X003547Y009011D01*
X003468Y009089D02*
X006487Y009089D01*
X006566Y009168D02*
X003390Y009168D01*
X003311Y009246D02*
X006644Y009246D01*
X006723Y009325D02*
X003233Y009325D01*
X003154Y009403D02*
X006801Y009403D01*
X006880Y009482D02*
X003076Y009482D01*
X003043Y009560D02*
X006958Y009560D01*
X007037Y009639D02*
X003043Y009639D01*
X003043Y009717D02*
X007115Y009717D01*
X007573Y010110D02*
X009083Y010110D01*
X009083Y010188D02*
X007573Y010188D01*
X007604Y010267D02*
X008612Y010267D01*
X008479Y010345D02*
X007682Y010345D01*
X007761Y010424D02*
X008073Y010424D01*
X007995Y010502D02*
X007839Y010502D01*
X007644Y010816D02*
X006721Y010816D01*
X006752Y010738D02*
X007566Y010738D01*
X007487Y010659D02*
X006752Y010659D01*
X006728Y010581D02*
X007409Y010581D01*
X007330Y010502D02*
X006671Y010502D01*
X006655Y010895D02*
X007602Y010895D01*
X007303Y010973D02*
X007242Y010973D01*
X007156Y011444D02*
X007389Y011444D01*
X007516Y011444D02*
X007553Y011444D01*
X007553Y011523D02*
X002122Y011523D01*
X002138Y011601D02*
X007553Y011601D01*
X007553Y011680D02*
X006278Y011680D01*
X006357Y011758D02*
X007553Y011758D01*
X007553Y011837D02*
X006435Y011837D01*
X006514Y011915D02*
X007553Y011915D01*
X007553Y011994D02*
X006592Y011994D01*
X006671Y012072D02*
X007553Y012072D01*
X007553Y012151D02*
X006749Y012151D01*
X006828Y012229D02*
X007553Y012229D01*
X007553Y012308D02*
X006906Y012308D01*
X006953Y012386D02*
X007553Y012386D01*
X007553Y012465D02*
X006973Y012465D01*
X006973Y012543D02*
X007553Y012543D01*
X007553Y012622D02*
X006941Y012622D01*
X006879Y012700D02*
X007553Y012700D01*
X007553Y012779D02*
X006677Y012779D01*
X006712Y012857D02*
X007574Y012857D01*
X007622Y012936D02*
X006723Y012936D01*
X006715Y013014D02*
X007701Y013014D01*
X007779Y013093D02*
X006683Y013093D01*
X006608Y013171D02*
X007858Y013171D01*
X007936Y013250D02*
X006529Y013250D01*
X006451Y013328D02*
X008015Y013328D01*
X008257Y012779D02*
X008351Y012779D01*
X008336Y012857D02*
X008388Y012857D01*
X008414Y012936D02*
X008451Y012936D01*
X008462Y013014D02*
X008563Y013014D01*
X008483Y013093D02*
X009083Y013093D01*
X009083Y013171D02*
X008483Y013171D01*
X008452Y013250D02*
X009083Y013250D01*
X009083Y013328D02*
X008391Y013328D01*
X008703Y013014D02*
X008783Y013014D01*
X008783Y012936D02*
X008703Y012936D01*
X008703Y012857D02*
X008783Y012857D01*
X008783Y012779D02*
X008703Y012779D01*
X008703Y012700D02*
X008783Y012700D01*
X008703Y012622D02*
X008113Y012622D01*
X008179Y012700D02*
X008332Y012700D01*
X008329Y012600D02*
X008338Y012543D01*
X008329Y012600D02*
X008703Y012600D01*
X008923Y013014D02*
X009083Y013014D01*
X009083Y012936D02*
X009034Y012936D01*
X009083Y013407D02*
X006552Y013407D01*
X006616Y013485D02*
X009083Y013485D01*
X009083Y013564D02*
X006648Y013564D01*
X006654Y013642D02*
X009083Y013642D01*
X009083Y013721D02*
X006647Y013721D01*
X006614Y013799D02*
X009083Y013799D01*
X009083Y013878D02*
X006548Y013878D01*
X006404Y013956D02*
X009083Y013956D01*
X008210Y012386D02*
X008113Y012386D01*
X008113Y011915D02*
X008159Y011915D01*
X008113Y011837D02*
X008397Y011837D01*
X008427Y011915D02*
X008459Y011915D01*
X008513Y011994D02*
X008564Y011994D01*
X008364Y011758D02*
X008113Y011758D01*
X008113Y011680D02*
X008348Y011680D01*
X008348Y011601D02*
X008113Y011601D01*
X008113Y011523D02*
X008161Y011523D01*
X008344Y011523D02*
X008364Y011523D01*
X009006Y010345D02*
X009083Y010345D01*
X009083Y010267D02*
X008873Y010267D01*
X008831Y010031D02*
X009083Y010031D01*
X009083Y009953D02*
X008989Y009953D01*
X009067Y009874D02*
X009083Y009874D01*
X009064Y009403D02*
X009083Y009403D01*
X009083Y009325D02*
X008986Y009325D01*
X009009Y008932D02*
X009083Y008932D01*
X009082Y008854D02*
X009083Y008854D01*
X009083Y008383D02*
X009044Y008383D01*
X009083Y008304D02*
X008964Y008304D01*
X008556Y007990D02*
X008459Y007990D01*
X008456Y007912D02*
X008368Y007912D01*
X008395Y007833D02*
X006494Y007833D01*
X006573Y007755D02*
X008363Y007755D01*
X008348Y007676D02*
X006651Y007676D01*
X006730Y007598D02*
X008348Y007598D01*
X008365Y007519D02*
X006808Y007519D01*
X006887Y007441D02*
X008398Y007441D01*
X008462Y007362D02*
X006965Y007362D01*
X007044Y007284D02*
X008571Y007284D01*
X008117Y007912D02*
X006581Y007912D01*
X006655Y007990D02*
X006719Y007990D01*
X006866Y007990D02*
X008026Y007990D01*
X007992Y008069D02*
X006988Y008069D01*
X007035Y008147D02*
X007984Y008147D01*
X007998Y008226D02*
X007052Y008226D01*
X007047Y008304D02*
X008040Y008304D01*
X008151Y008383D02*
X007014Y008383D01*
X006378Y007441D02*
X005313Y007441D01*
X005342Y007362D02*
X006456Y007362D01*
X006535Y007284D02*
X005342Y007284D01*
X005316Y007205D02*
X006613Y007205D01*
X006692Y007127D02*
X006113Y007127D01*
X006110Y007130D02*
X006014Y007169D01*
X005911Y007169D01*
X005816Y007130D01*
X005743Y007057D01*
X005704Y006962D01*
X005704Y006858D01*
X005743Y006763D01*
X005816Y006690D01*
X005911Y006651D01*
X006014Y006651D01*
X006110Y006690D01*
X006182Y006763D01*
X006222Y006858D01*
X006222Y006962D01*
X006182Y007057D01*
X006110Y007130D01*
X006186Y007048D02*
X006770Y007048D01*
X006813Y006970D02*
X006219Y006970D01*
X006222Y006891D02*
X006813Y006891D01*
X006813Y006813D02*
X006203Y006813D01*
X006153Y006734D02*
X006813Y006734D01*
X006813Y006656D02*
X006025Y006656D01*
X005900Y006656D02*
X005625Y006656D01*
X005590Y006620D02*
X005662Y006693D01*
X005702Y006788D01*
X005702Y006892D01*
X005662Y006987D01*
X005590Y007060D01*
X005494Y007099D01*
X005391Y007099D01*
X005296Y007060D01*
X005223Y006987D01*
X005184Y006892D01*
X005184Y006788D01*
X005223Y006693D01*
X005296Y006620D01*
X005391Y006581D01*
X005494Y006581D01*
X005590Y006620D01*
X005679Y006734D02*
X005772Y006734D01*
X005723Y006813D02*
X005702Y006813D01*
X005702Y006891D02*
X005704Y006891D01*
X005707Y006970D02*
X005670Y006970D01*
X005601Y007048D02*
X005740Y007048D01*
X005813Y007127D02*
X005256Y007127D01*
X005284Y007048D02*
X004923Y007048D01*
X004923Y006970D02*
X005216Y006970D01*
X005184Y006891D02*
X004923Y006891D01*
X004923Y006813D02*
X005184Y006813D01*
X005206Y006734D02*
X004923Y006734D01*
X004923Y006656D02*
X005261Y006656D01*
X004923Y006577D02*
X006813Y006577D01*
X006813Y006499D02*
X004923Y006499D01*
X004923Y006420D02*
X006813Y006420D01*
X006813Y006342D02*
X004923Y006342D01*
X004923Y006263D02*
X006813Y006263D01*
X006813Y006185D02*
X004923Y006185D01*
X004923Y006106D02*
X006813Y006106D01*
X006761Y006028D02*
X004940Y006028D01*
X005018Y005949D02*
X006734Y005949D01*
X006734Y005871D02*
X005097Y005871D01*
X005175Y005792D02*
X006761Y005792D01*
X006823Y005714D02*
X005254Y005714D01*
X005489Y005478D02*
X005794Y005478D01*
X005720Y005400D02*
X005568Y005400D01*
X005646Y005321D02*
X005688Y005321D01*
X006009Y005007D02*
X008597Y005007D01*
X008473Y004929D02*
X006039Y004929D01*
X006117Y004850D02*
X008402Y004850D01*
X008370Y004772D02*
X006196Y004772D01*
X006274Y004693D02*
X008348Y004693D01*
X008348Y004615D02*
X006353Y004615D01*
X006431Y004536D02*
X008358Y004536D01*
X008391Y004458D02*
X006510Y004458D01*
X006588Y004379D02*
X008445Y004379D01*
X008530Y004301D02*
X006667Y004301D01*
X006745Y004222D02*
X007932Y004222D01*
X007852Y004144D02*
X006824Y004144D01*
X006902Y004065D02*
X007819Y004065D01*
X007814Y003987D02*
X007093Y003987D01*
X007154Y003908D02*
X007831Y003908D01*
X007877Y003830D02*
X007182Y003830D01*
X007182Y003751D02*
X007997Y003751D01*
X008906Y003280D02*
X009083Y003280D01*
X009083Y003202D02*
X001403Y003202D01*
X001403Y003280D02*
X001580Y003280D01*
X001466Y003359D02*
X001403Y003359D01*
X001403Y003123D02*
X009083Y003123D01*
X009083Y003045D02*
X001403Y003045D01*
X001403Y002966D02*
X001510Y002966D01*
X001432Y002888D02*
X001403Y002888D01*
X001403Y002181D02*
X007048Y002181D01*
X007238Y002181D02*
X009083Y002181D01*
X009083Y002103D02*
X007347Y002103D01*
X006752Y003594D02*
X002138Y003594D01*
X002138Y003673D02*
X006254Y003673D01*
X006180Y003751D02*
X002124Y003751D01*
X002092Y003830D02*
X006147Y003830D01*
X006130Y003908D02*
X002033Y003908D01*
X001938Y003987D02*
X006052Y003987D01*
X005973Y004065D02*
X001403Y004065D01*
X001403Y003987D02*
X001547Y003987D01*
X001452Y003908D02*
X001403Y003908D01*
X001403Y004144D02*
X005895Y004144D01*
X005816Y004222D02*
X001403Y004222D01*
X001403Y004301D02*
X001530Y004301D01*
X001445Y004379D02*
X001403Y004379D01*
X001403Y004929D02*
X001473Y004929D01*
X001403Y005007D02*
X001597Y005007D01*
X001403Y005086D02*
X004953Y005086D01*
X004874Y005164D02*
X001403Y005164D01*
X001403Y005243D02*
X004796Y005243D01*
X004717Y005321D02*
X001982Y005321D01*
X002061Y005400D02*
X004639Y005400D01*
X004560Y005478D02*
X002103Y005478D01*
X002136Y005557D02*
X004482Y005557D01*
X004403Y005635D02*
X002138Y005635D01*
X002138Y005714D02*
X004325Y005714D01*
X004313Y005792D02*
X002107Y005792D01*
X002071Y005871D02*
X004313Y005871D01*
X004313Y005949D02*
X001992Y005949D01*
X001839Y006028D02*
X004313Y006028D01*
X004313Y006106D02*
X001403Y006106D01*
X001403Y006028D02*
X001646Y006028D01*
X001493Y005949D02*
X001403Y005949D01*
X001403Y005871D02*
X001415Y005871D01*
X001403Y006185D02*
X004313Y006185D01*
X004313Y006263D02*
X001865Y006263D01*
X002003Y006342D02*
X004313Y006342D01*
X004313Y006420D02*
X002079Y006420D01*
X002112Y006499D02*
X004313Y006499D01*
X004313Y006577D02*
X002138Y006577D01*
X002138Y006656D02*
X004313Y006656D01*
X004313Y006734D02*
X002131Y006734D01*
X002099Y006813D02*
X004313Y006813D01*
X004313Y006891D02*
X002050Y006891D01*
X001972Y006970D02*
X004313Y006970D01*
X004313Y007048D02*
X001403Y007048D01*
X001403Y006970D02*
X001514Y006970D01*
X001435Y006891D02*
X001403Y006891D01*
X001403Y007127D02*
X004313Y007127D01*
X004313Y007205D02*
X001403Y007205D01*
X001403Y007284D02*
X001571Y007284D01*
X001462Y007362D02*
X001403Y007362D01*
X001403Y007912D02*
X001456Y007912D01*
X001403Y007990D02*
X001556Y007990D01*
X001403Y008069D02*
X003567Y008069D01*
X003939Y008618D02*
X005074Y008618D01*
X005006Y008540D02*
X003973Y008540D01*
X003973Y008461D02*
X004974Y008461D01*
X004936Y007990D02*
X004809Y007990D01*
X004896Y007912D02*
X004676Y007912D01*
X004673Y007833D02*
X004884Y007833D01*
X004813Y007755D02*
X004673Y007755D01*
X004673Y007676D02*
X004734Y007676D01*
X004313Y007519D02*
X002120Y007519D01*
X002088Y007441D02*
X004313Y007441D01*
X004313Y007362D02*
X002023Y007362D01*
X001914Y007284D02*
X004313Y007284D01*
X005250Y007519D02*
X006299Y007519D01*
X006221Y007598D02*
X005258Y007598D01*
X005355Y007676D02*
X006142Y007676D01*
X006064Y007755D02*
X005392Y007755D01*
X005402Y007833D02*
X005985Y007833D01*
X005031Y005007D02*
X001889Y005007D01*
X002013Y004929D02*
X005110Y004929D01*
X005188Y004850D02*
X002083Y004850D01*
X002116Y004772D02*
X005267Y004772D01*
X005345Y004693D02*
X002138Y004693D01*
X002138Y004615D02*
X005424Y004615D01*
X005502Y004536D02*
X002127Y004536D01*
X002095Y004458D02*
X005581Y004458D01*
X005659Y004379D02*
X002040Y004379D01*
X001955Y004301D02*
X005738Y004301D01*
X006552Y003673D02*
X006691Y003673D01*
X006664Y003751D02*
X006626Y003751D01*
X008856Y002260D02*
X009083Y002260D01*
X009083Y002338D02*
X008999Y002338D01*
X009078Y002417D02*
X009083Y002417D01*
X009083Y002024D02*
X008848Y002024D01*
X008996Y001946D02*
X009083Y001946D01*
X009074Y001867D02*
X009083Y001867D01*
X009054Y002888D02*
X009083Y002888D01*
X009083Y002966D02*
X008975Y002966D01*
X009020Y003359D02*
X009083Y003359D01*
X009083Y005321D02*
X008982Y005321D01*
X009061Y005400D02*
X009083Y005400D01*
X009083Y006263D02*
X008865Y006263D01*
X009003Y006342D02*
X009083Y006342D01*
X009079Y006420D02*
X009083Y006420D01*
X008500Y009325D02*
X008057Y009325D01*
X008172Y009403D02*
X008421Y009403D01*
X008381Y009482D02*
X008217Y009482D01*
X008232Y009560D02*
X008348Y009560D01*
X008380Y009796D02*
X008105Y009796D01*
X007962Y009874D02*
X008418Y009874D01*
X008497Y009953D02*
X007932Y009953D01*
X007868Y010031D02*
X008655Y010031D01*
X009081Y010424D02*
X009083Y010424D01*
X007029Y011444D02*
X002089Y011444D01*
X002027Y011366D02*
X006902Y011366D01*
X006853Y011287D02*
X001923Y011287D01*
X001968Y010973D02*
X003837Y010973D01*
X003711Y010895D02*
X002047Y010895D01*
X002097Y010816D02*
X003662Y010816D01*
X003644Y010738D02*
X002130Y010738D01*
X002138Y010659D02*
X003648Y010659D01*
X003680Y010581D02*
X002138Y010581D01*
X002122Y010345D02*
X002006Y010345D01*
X002090Y010267D02*
X001873Y010267D01*
X001421Y009403D02*
X001403Y009403D01*
X001403Y009325D02*
X001500Y009325D01*
X001476Y008932D02*
X001403Y008932D01*
X001403Y008854D02*
X001404Y008854D01*
X001403Y006420D02*
X001406Y006420D01*
X001403Y006342D02*
X001483Y006342D01*
X001403Y006263D02*
X001621Y006263D01*
X001425Y005400D02*
X001403Y005400D01*
X001403Y005321D02*
X001503Y005321D01*
X001975Y002966D02*
X002392Y002966D01*
X002319Y002888D02*
X002054Y002888D01*
X002100Y002809D02*
X002287Y002809D01*
X002284Y002731D02*
X002133Y002731D01*
X002138Y002652D02*
X002303Y002652D01*
X002353Y002574D02*
X002138Y002574D01*
X002350Y012229D02*
X006036Y012229D01*
X006114Y012308D02*
X004047Y012308D01*
X004040Y012300D02*
X004112Y012373D01*
X004152Y012468D01*
X004152Y012572D01*
X004112Y012667D01*
X004040Y012740D01*
X003944Y012779D01*
X003841Y012779D01*
X003746Y012740D01*
X003673Y012667D01*
X003634Y012572D01*
X003634Y012468D01*
X003673Y012373D01*
X003746Y012300D01*
X003841Y012261D01*
X003944Y012261D01*
X004040Y012300D01*
X004118Y012386D02*
X006193Y012386D01*
X006271Y012465D02*
X004150Y012465D01*
X004152Y012543D02*
X006350Y012543D01*
X006428Y012622D02*
X006156Y012622D01*
X006234Y012700D02*
X006290Y012700D01*
X005865Y012622D02*
X004620Y012622D01*
X004699Y012700D02*
X005787Y012700D01*
X005772Y012779D02*
X004713Y012779D01*
X004713Y012857D02*
X005772Y012857D01*
X006055Y013485D02*
X004431Y013485D01*
X004463Y013564D02*
X006022Y013564D01*
X006017Y013642D02*
X004469Y013642D01*
X004462Y013721D02*
X006024Y013721D01*
X006057Y013799D02*
X004429Y013799D01*
X004363Y013878D02*
X006123Y013878D01*
X006266Y013956D02*
X004219Y013956D01*
X004081Y013956D02*
X001403Y013956D01*
X001403Y013878D02*
X003938Y013878D01*
X003872Y013799D02*
X001403Y013799D01*
X001403Y013721D02*
X003839Y013721D01*
X003832Y013642D02*
X001403Y013642D01*
X001403Y013564D02*
X001406Y013564D01*
X001680Y013564D02*
X003837Y013564D01*
X003870Y013485D02*
X001763Y013485D01*
X001796Y013407D02*
X003513Y013407D01*
X003447Y013328D02*
X001802Y013328D01*
X001786Y013250D02*
X003414Y013250D01*
X003413Y013171D02*
X001740Y013171D01*
X001622Y013093D02*
X003430Y013093D01*
X003473Y013014D02*
X002505Y013014D01*
X002540Y013000D02*
X002444Y013039D01*
X002341Y013039D01*
X002246Y013000D01*
X002173Y012927D01*
X002134Y012832D01*
X002134Y012728D01*
X002173Y012633D01*
X002246Y012560D01*
X002341Y012521D01*
X002444Y012521D01*
X002540Y012560D01*
X002612Y012633D01*
X002652Y012728D01*
X002652Y012832D01*
X002612Y012927D01*
X002540Y013000D01*
X002604Y012936D02*
X003575Y012936D01*
X003706Y012700D02*
X002640Y012700D01*
X002652Y012779D02*
X003840Y012779D01*
X003946Y012779D02*
X004237Y012779D01*
X004237Y012857D02*
X002641Y012857D01*
X002601Y012622D02*
X003654Y012622D01*
X003634Y012543D02*
X002498Y012543D01*
X002288Y012543D02*
X002130Y012543D01*
X002138Y012622D02*
X002185Y012622D01*
X002146Y012700D02*
X002138Y012700D01*
X002134Y012779D02*
X002113Y012779D01*
X002144Y012857D02*
X002080Y012857D01*
X002006Y012936D02*
X002182Y012936D01*
X002281Y013014D02*
X001872Y013014D01*
X001614Y013014D02*
X001403Y013014D01*
X001403Y012936D02*
X001480Y012936D01*
X001405Y012857D02*
X001403Y012857D01*
X001403Y013093D02*
X001463Y013093D01*
X002114Y012465D02*
X003635Y012465D01*
X003668Y012386D02*
X002193Y012386D01*
X002271Y012308D02*
X003739Y012308D01*
X004131Y012622D02*
X004330Y012622D01*
X004252Y012700D02*
X004079Y012700D01*
D15*
X002693Y010200D02*
X002863Y010030D01*
X002863Y009440D01*
X003793Y008510D01*
X003793Y008040D01*
X003693Y007940D01*
X003693Y007840D01*
X003502Y008350D02*
X002553Y009299D01*
X002553Y009900D01*
X002693Y010200D02*
X002343Y010200D01*
X004493Y008040D02*
X004623Y008170D01*
X004493Y008040D02*
X004493Y005800D01*
X006403Y003890D01*
X006923Y003790D02*
X004743Y005970D01*
X004743Y007430D01*
X005143Y007830D01*
X006083Y007990D02*
X006993Y007080D01*
X006993Y005910D01*
X006083Y007990D02*
X006083Y008540D01*
X006393Y008390D02*
X006433Y008350D01*
X006433Y008130D01*
X006393Y008390D02*
X006393Y008740D01*
X007393Y009740D01*
X007393Y010310D01*
X007988Y010905D01*
M02*
