G75*
G70*
%OFA0B0*%
%FSLAX24Y24*%
%IPPOS*%
%LPD*%
%AMOC8*
5,1,8,0,0,1.08239X$1,22.5*
%
%ADD10R,0.0433X0.0748*%
%ADD11R,0.0394X0.0433*%
%ADD12C,0.0437*%
%ADD13R,0.0079X0.0394*%
%ADD14R,0.0394X0.0079*%
%ADD15R,0.0433X0.0394*%
%ADD16R,0.0220X0.0590*%
%ADD17R,0.0118X0.0390*%
%ADD18R,0.0748X0.0433*%
%ADD19R,0.0500X0.0750*%
%ADD20R,0.1500X0.0750*%
%ADD21R,0.0236X0.0315*%
%ADD22R,0.0197X0.0315*%
%ADD23R,0.0551X0.0630*%
%ADD24C,0.0690*%
%ADD25R,0.0177X0.0118*%
%ADD26C,0.0080*%
%ADD27C,0.0278*%
%ADD28C,0.0120*%
%ADD29C,0.0200*%
%ADD30C,0.0500*%
%ADD31C,0.0320*%
%ADD32C,0.0240*%
%ADD33C,0.0060*%
%ADD34C,0.0280*%
%ADD35C,0.0160*%
%ADD36C,0.0300*%
D10*
X003040Y003827D03*
X003946Y003827D03*
X003946Y005283D03*
X003040Y005283D03*
D11*
X003243Y006070D03*
X003243Y006740D03*
X003427Y010405D03*
X003427Y011055D03*
X002758Y011055D03*
X002758Y010405D03*
X002858Y013755D03*
X002227Y013755D03*
X001558Y013755D03*
X003527Y013755D03*
X007793Y008540D03*
X007793Y007870D03*
X005643Y003040D03*
X005643Y002370D03*
X004993Y002370D03*
X004993Y003040D03*
X004343Y003040D03*
X004343Y002370D03*
X003693Y002370D03*
X003693Y003040D03*
X003043Y003040D03*
X003043Y002370D03*
D12*
X004150Y013487D02*
X004150Y013923D01*
X006335Y013923D02*
X006335Y013487D01*
D13*
G36*
X005841Y010389D02*
X005896Y010334D01*
X005619Y010057D01*
X005564Y010112D01*
X005841Y010389D01*
G37*
G36*
X005980Y010250D02*
X006035Y010195D01*
X005758Y009918D01*
X005703Y009973D01*
X005980Y010250D01*
G37*
G36*
X006119Y010111D02*
X006174Y010056D01*
X005897Y009779D01*
X005842Y009834D01*
X006119Y010111D01*
G37*
G36*
X006259Y009972D02*
X006314Y009917D01*
X006037Y009640D01*
X005982Y009695D01*
X006259Y009972D01*
G37*
G36*
X006398Y009833D02*
X006453Y009778D01*
X006176Y009501D01*
X006121Y009556D01*
X006398Y009833D01*
G37*
G36*
X006537Y009693D02*
X006592Y009638D01*
X006315Y009361D01*
X006260Y009416D01*
X006537Y009693D01*
G37*
G36*
X006676Y009554D02*
X006731Y009499D01*
X006454Y009222D01*
X006399Y009277D01*
X006676Y009554D01*
G37*
G36*
X006815Y009415D02*
X006870Y009360D01*
X006593Y009083D01*
X006538Y009138D01*
X006815Y009415D01*
G37*
G36*
X006955Y009276D02*
X007010Y009221D01*
X006733Y008944D01*
X006678Y008999D01*
X006955Y009276D01*
G37*
G36*
X007094Y009137D02*
X007149Y009082D01*
X006872Y008805D01*
X006817Y008860D01*
X007094Y009137D01*
G37*
G36*
X007233Y008997D02*
X007288Y008942D01*
X007011Y008665D01*
X006956Y008720D01*
X007233Y008997D01*
G37*
G36*
X007372Y008858D02*
X007427Y008803D01*
X007150Y008526D01*
X007095Y008581D01*
X007372Y008858D01*
G37*
G36*
X004867Y006353D02*
X004922Y006298D01*
X004645Y006021D01*
X004590Y006076D01*
X004867Y006353D01*
G37*
G36*
X004727Y006492D02*
X004782Y006437D01*
X004505Y006160D01*
X004450Y006215D01*
X004727Y006492D01*
G37*
G36*
X004588Y006631D02*
X004643Y006576D01*
X004366Y006299D01*
X004311Y006354D01*
X004588Y006631D01*
G37*
G36*
X004449Y006770D02*
X004504Y006715D01*
X004227Y006438D01*
X004172Y006493D01*
X004449Y006770D01*
G37*
G36*
X004310Y006909D02*
X004365Y006854D01*
X004088Y006577D01*
X004033Y006632D01*
X004310Y006909D01*
G37*
G36*
X004171Y007049D02*
X004226Y006994D01*
X003949Y006717D01*
X003894Y006772D01*
X004171Y007049D01*
G37*
G36*
X004031Y007188D02*
X004086Y007133D01*
X003809Y006856D01*
X003754Y006911D01*
X004031Y007188D01*
G37*
G36*
X003892Y007327D02*
X003947Y007272D01*
X003670Y006995D01*
X003615Y007050D01*
X003892Y007327D01*
G37*
G36*
X003753Y007466D02*
X003808Y007411D01*
X003531Y007134D01*
X003476Y007189D01*
X003753Y007466D01*
G37*
G36*
X003614Y007605D02*
X003669Y007550D01*
X003392Y007273D01*
X003337Y007328D01*
X003614Y007605D01*
G37*
G36*
X003475Y007745D02*
X003530Y007690D01*
X003253Y007413D01*
X003198Y007468D01*
X003475Y007745D01*
G37*
G36*
X003335Y007884D02*
X003390Y007829D01*
X003113Y007552D01*
X003058Y007607D01*
X003335Y007884D01*
G37*
D14*
G36*
X003113Y008858D02*
X003390Y008581D01*
X003335Y008526D01*
X003058Y008803D01*
X003113Y008858D01*
G37*
G36*
X003253Y008997D02*
X003530Y008720D01*
X003475Y008665D01*
X003198Y008942D01*
X003253Y008997D01*
G37*
G36*
X003392Y009137D02*
X003669Y008860D01*
X003614Y008805D01*
X003337Y009082D01*
X003392Y009137D01*
G37*
G36*
X003531Y009276D02*
X003808Y008999D01*
X003753Y008944D01*
X003476Y009221D01*
X003531Y009276D01*
G37*
G36*
X003670Y009415D02*
X003947Y009138D01*
X003892Y009083D01*
X003615Y009360D01*
X003670Y009415D01*
G37*
G36*
X003809Y009554D02*
X004086Y009277D01*
X004031Y009222D01*
X003754Y009499D01*
X003809Y009554D01*
G37*
G36*
X003949Y009693D02*
X004226Y009416D01*
X004171Y009361D01*
X003894Y009638D01*
X003949Y009693D01*
G37*
G36*
X004088Y009833D02*
X004365Y009556D01*
X004310Y009501D01*
X004033Y009778D01*
X004088Y009833D01*
G37*
G36*
X004227Y009972D02*
X004504Y009695D01*
X004449Y009640D01*
X004172Y009917D01*
X004227Y009972D01*
G37*
G36*
X004366Y010111D02*
X004643Y009834D01*
X004588Y009779D01*
X004311Y010056D01*
X004366Y010111D01*
G37*
G36*
X004505Y010250D02*
X004782Y009973D01*
X004727Y009918D01*
X004450Y010195D01*
X004505Y010250D01*
G37*
G36*
X004645Y010389D02*
X004922Y010112D01*
X004867Y010057D01*
X004590Y010334D01*
X004645Y010389D01*
G37*
G36*
X006593Y007327D02*
X006870Y007050D01*
X006815Y006995D01*
X006538Y007272D01*
X006593Y007327D01*
G37*
G36*
X006454Y007188D02*
X006731Y006911D01*
X006676Y006856D01*
X006399Y007133D01*
X006454Y007188D01*
G37*
G36*
X006315Y007049D02*
X006592Y006772D01*
X006537Y006717D01*
X006260Y006994D01*
X006315Y007049D01*
G37*
G36*
X006176Y006909D02*
X006453Y006632D01*
X006398Y006577D01*
X006121Y006854D01*
X006176Y006909D01*
G37*
G36*
X006037Y006770D02*
X006314Y006493D01*
X006259Y006438D01*
X005982Y006715D01*
X006037Y006770D01*
G37*
G36*
X005897Y006631D02*
X006174Y006354D01*
X006119Y006299D01*
X005842Y006576D01*
X005897Y006631D01*
G37*
G36*
X005758Y006492D02*
X006035Y006215D01*
X005980Y006160D01*
X005703Y006437D01*
X005758Y006492D01*
G37*
G36*
X005619Y006353D02*
X005896Y006076D01*
X005841Y006021D01*
X005564Y006298D01*
X005619Y006353D01*
G37*
G36*
X006733Y007466D02*
X007010Y007189D01*
X006955Y007134D01*
X006678Y007411D01*
X006733Y007466D01*
G37*
G36*
X006872Y007605D02*
X007149Y007328D01*
X007094Y007273D01*
X006817Y007550D01*
X006872Y007605D01*
G37*
G36*
X007011Y007745D02*
X007288Y007468D01*
X007233Y007413D01*
X006956Y007690D01*
X007011Y007745D01*
G37*
G36*
X007150Y007884D02*
X007427Y007607D01*
X007372Y007552D01*
X007095Y007829D01*
X007150Y007884D01*
G37*
D15*
X005577Y005655D03*
X004908Y005655D03*
X005643Y004540D03*
X005643Y003870D03*
X005577Y010685D03*
X004908Y010685D03*
X003427Y011755D03*
X002758Y011755D03*
X006858Y012375D03*
X007308Y012905D03*
X007527Y012375D03*
X007977Y012905D03*
D16*
X007793Y005495D03*
X007293Y005495D03*
X006793Y005495D03*
X006293Y005495D03*
X006293Y002615D03*
X006793Y002615D03*
X007293Y002615D03*
X007793Y002615D03*
D17*
X003349Y012440D03*
X003093Y012440D03*
X002837Y012440D03*
X002837Y013074D03*
X003093Y013074D03*
X003349Y013074D03*
D18*
X004793Y004897D03*
X004793Y003913D03*
D19*
X005243Y011385D03*
X006153Y011385D03*
X004333Y011385D03*
D20*
X005243Y013825D03*
D21*
X006991Y010730D03*
X006991Y010140D03*
X007995Y010140D03*
X007995Y010730D03*
D22*
X007650Y010730D03*
X007335Y010730D03*
X007335Y010140D03*
X007650Y010140D03*
D23*
X007142Y013705D03*
X008244Y013705D03*
D24*
X001743Y001705D03*
X001743Y002705D03*
X001743Y003705D03*
X001743Y004705D03*
X001743Y005705D03*
X001743Y006705D03*
X001743Y007705D03*
X001743Y008705D03*
X001743Y009705D03*
X001743Y010705D03*
X001743Y011705D03*
X001743Y012705D03*
X008743Y012705D03*
X008743Y011705D03*
X008743Y010705D03*
X008743Y009705D03*
X008743Y008705D03*
X008743Y007705D03*
X008743Y006705D03*
X008743Y005705D03*
X008743Y004705D03*
X008743Y003705D03*
X008743Y002705D03*
X008743Y001705D03*
D25*
X007413Y011508D03*
X007413Y011705D03*
X007413Y011902D03*
X006881Y011902D03*
X006881Y011508D03*
D26*
X006606Y011508D01*
X006523Y011425D01*
X006523Y010985D01*
X006323Y010785D01*
X006323Y010465D01*
X006183Y010325D01*
X006183Y010119D01*
X006008Y009945D01*
X005793Y009729D01*
X005793Y009385D01*
X006083Y009095D01*
X006083Y008605D01*
X006353Y008505D02*
X006353Y009095D01*
X005963Y009485D01*
X005963Y009621D01*
X006148Y009806D01*
X006287Y009669D02*
X006603Y009985D01*
X006836Y009985D01*
X006991Y010140D01*
X007203Y009805D02*
X007335Y009938D01*
X007335Y010140D01*
X007283Y010087D01*
X007203Y009805D02*
X006703Y009805D01*
X006694Y009796D01*
X006694Y009795D01*
X006426Y009527D01*
X006565Y009388D02*
X006822Y009645D01*
X007303Y009645D01*
X007650Y009992D01*
X007650Y010140D01*
X007995Y010140D02*
X008168Y010140D01*
X008273Y010035D01*
X008273Y009055D01*
X008283Y009045D01*
X008403Y009045D01*
X008743Y008705D01*
X008223Y008825D02*
X008223Y008225D01*
X008243Y008205D01*
X008243Y007955D01*
X008158Y007870D01*
X007793Y007870D01*
X007261Y007718D02*
X007774Y007205D01*
X008243Y007205D01*
X008743Y007705D01*
X008743Y006705D02*
X007996Y006705D01*
X007122Y007579D01*
X006983Y007439D02*
X008717Y005705D01*
X008743Y005705D01*
X008243Y005505D02*
X008743Y005005D01*
X008743Y004705D01*
X008243Y004505D02*
X008743Y004005D01*
X008743Y003705D01*
X008743Y002965D02*
X008743Y002705D01*
X008743Y002965D02*
X007543Y004165D01*
X007543Y006044D01*
X006565Y007022D01*
X006426Y006883D02*
X006593Y006716D01*
X006593Y006005D01*
X006543Y005955D01*
X006543Y004855D01*
X006793Y004605D01*
X006793Y004355D01*
X008243Y002905D01*
X008243Y002475D01*
X008743Y001975D01*
X008743Y001705D01*
X008243Y004505D02*
X008243Y005205D01*
X008043Y005405D01*
X008043Y005823D01*
X006704Y007161D01*
X006844Y007300D02*
X008239Y005905D01*
X008243Y005905D01*
X008243Y005505D01*
X006203Y007425D02*
X006793Y008015D01*
X006793Y008305D01*
X006793Y008145D01*
X007093Y008105D02*
X007093Y008524D01*
X007261Y008692D01*
X007640Y008692D01*
X007793Y008540D01*
X007703Y008885D02*
X007583Y009005D01*
X007296Y009005D01*
X007122Y008831D01*
X007122Y008834D01*
X006983Y008971D02*
X007177Y009165D01*
X007663Y009165D01*
X007783Y009045D01*
X008283Y009045D01*
X008163Y008885D02*
X007703Y008885D01*
X007843Y009325D02*
X008013Y009495D01*
X008013Y009755D01*
X007843Y009325D02*
X007059Y009325D01*
X006844Y009110D01*
X006704Y009249D02*
X006940Y009485D01*
X007513Y009485D01*
X007673Y009645D01*
X008163Y008885D02*
X008223Y008825D01*
X008743Y009705D02*
X008743Y009905D01*
X008263Y010385D01*
X008263Y010965D01*
X008363Y011065D01*
X008363Y011305D01*
X008243Y011425D01*
X007983Y011425D01*
X007863Y011305D01*
X007616Y011305D01*
X007413Y011508D01*
X007413Y011705D02*
X007683Y011705D01*
X007803Y011585D01*
X007963Y011885D02*
X007946Y011902D01*
X007413Y011902D01*
X007416Y011905D01*
X007123Y012065D02*
X007783Y012065D01*
X007883Y012165D01*
X008403Y012165D01*
X008743Y012505D01*
X008743Y012705D01*
X008093Y011185D02*
X007995Y011087D01*
X007995Y010730D01*
X007650Y010730D02*
X007643Y010738D01*
X007643Y010945D01*
X007293Y011295D01*
X007153Y011295D01*
X007243Y011045D02*
X007343Y010945D01*
X007343Y010738D01*
X007335Y010730D01*
X007243Y011045D02*
X006943Y011045D01*
X006773Y011215D01*
X006783Y011205D01*
X006628Y010730D02*
X006593Y010695D01*
X006628Y010730D02*
X006991Y010730D01*
X006960Y011902D02*
X006881Y011902D01*
X006960Y011902D02*
X007123Y012065D01*
X005869Y010084D02*
X005623Y009838D01*
X005623Y009315D01*
X005823Y009115D01*
X005823Y008175D01*
X005703Y008055D01*
X005373Y008055D01*
X005283Y008145D01*
X004533Y008145D01*
X004273Y008405D01*
X004753Y008415D02*
X004823Y008485D01*
X004823Y009605D01*
X004683Y009745D01*
X004677Y009745D01*
X004477Y009945D01*
X004616Y010084D02*
X003916Y010785D01*
X003903Y010785D01*
X003973Y010465D02*
X003487Y010465D01*
X003427Y010405D01*
X003427Y011055D01*
X003973Y010465D02*
X004103Y010335D01*
X004103Y010041D01*
X004338Y009806D01*
X004199Y009667D02*
X003841Y010024D01*
X003841Y010203D01*
X003712Y009875D02*
X002943Y009875D01*
X001773Y008705D01*
X001743Y008705D01*
X002243Y008475D02*
X001743Y007975D01*
X001743Y007705D01*
X002243Y007475D02*
X001743Y006975D01*
X001743Y006705D01*
X002243Y006205D02*
X001743Y005705D01*
X002233Y005465D02*
X001743Y004975D01*
X001743Y004705D01*
X002393Y004625D02*
X001743Y003975D01*
X001743Y003705D01*
X002233Y003465D02*
X001743Y002975D01*
X001743Y002705D01*
X002233Y002465D02*
X001743Y001975D01*
X001743Y001705D01*
X002233Y002465D02*
X002233Y003025D01*
X002513Y003305D01*
X002513Y004095D01*
X002713Y004295D01*
X002713Y005755D01*
X002883Y005925D01*
X002883Y007005D01*
X003093Y007215D01*
X003278Y007215D01*
X003503Y007439D01*
X003642Y007300D02*
X003967Y007625D01*
X006103Y007625D01*
X006443Y007965D01*
X006443Y008185D01*
X006433Y008195D01*
X006353Y008505D02*
X005743Y007895D01*
X005143Y007895D01*
X005083Y007385D02*
X004005Y007385D01*
X003781Y007161D01*
X003563Y006943D01*
X003563Y006415D01*
X003243Y006095D01*
X003243Y006070D01*
X003503Y005665D02*
X003723Y005885D01*
X003723Y006546D01*
X004060Y006883D01*
X004199Y006743D02*
X003893Y006437D01*
X003893Y005336D01*
X003946Y005283D01*
X003946Y004768D01*
X003503Y004325D01*
X003503Y003495D01*
X003693Y003305D01*
X003693Y003040D01*
X004293Y003090D02*
X004293Y003913D01*
X004793Y003913D01*
X005303Y003665D02*
X004993Y003355D01*
X004993Y003040D01*
X005303Y003665D02*
X005303Y004815D01*
X005221Y004897D01*
X004793Y004897D01*
X004695Y004995D01*
X004563Y004995D01*
X004523Y005035D01*
X004523Y005765D01*
X004223Y006065D01*
X004223Y006211D01*
X004477Y006465D01*
X004338Y006604D02*
X004053Y006319D01*
X004053Y005995D01*
X004293Y005755D01*
X004293Y003913D01*
X004293Y003090D02*
X004343Y003040D01*
X003040Y004312D02*
X003503Y004775D01*
X003503Y005665D01*
X003243Y006740D02*
X003373Y006870D01*
X003373Y007031D01*
X003642Y007300D01*
X003920Y007022D02*
X004104Y007205D01*
X004193Y007205D01*
X004253Y007145D01*
X005263Y007145D01*
X005543Y007425D01*
X006203Y007425D01*
X006005Y007025D02*
X005943Y007025D01*
X006005Y007025D02*
X006287Y006743D01*
X006148Y006604D02*
X006017Y006735D01*
X005613Y006735D01*
X005443Y006905D01*
X005423Y006495D02*
X005243Y006495D01*
X005243Y005990D01*
X004908Y005655D01*
X004756Y006187D02*
X005064Y006495D01*
X005043Y006516D01*
X005043Y006905D01*
X005064Y006495D02*
X005243Y006495D01*
X005423Y006495D02*
X005730Y006188D01*
X005730Y006187D01*
X005869Y006326D02*
X006063Y006132D01*
X006063Y005655D01*
X005577Y005655D01*
X005973Y005365D02*
X006063Y005455D01*
X006063Y005655D01*
X006293Y005495D02*
X006293Y006181D01*
X006008Y006465D01*
X005563Y008295D02*
X005563Y009135D01*
X005453Y009245D01*
X005453Y009946D01*
X005730Y010223D01*
X006287Y009669D02*
X006287Y009667D01*
X004908Y010376D02*
X004908Y010685D01*
X004908Y010376D02*
X004756Y010223D01*
X004060Y009527D02*
X003712Y009875D01*
X003614Y009695D02*
X003033Y009695D01*
X002243Y008905D01*
X002243Y008475D01*
X002403Y008405D02*
X002243Y008245D01*
X002243Y007475D01*
X002403Y007415D02*
X002243Y007255D01*
X002243Y006205D01*
X002403Y006135D02*
X002233Y005965D01*
X002233Y005465D01*
X002393Y005895D02*
X002393Y004625D01*
X002553Y004395D02*
X002553Y005825D01*
X002723Y005995D01*
X002723Y007075D01*
X003023Y007375D01*
X003160Y007375D01*
X003364Y007579D01*
X003224Y007718D02*
X003412Y007905D01*
X003643Y007905D01*
X003663Y007885D01*
X003523Y008085D02*
X003333Y008085D01*
X002723Y007475D01*
X002723Y007295D01*
X002563Y007135D01*
X002563Y006065D01*
X002393Y005895D01*
X002403Y006135D02*
X002403Y007195D01*
X002563Y007355D01*
X002563Y007565D01*
X002943Y007945D01*
X002943Y008855D01*
X003193Y009105D01*
X003368Y009105D01*
X003503Y008971D01*
X003638Y009110D02*
X003642Y009110D01*
X003447Y009305D01*
X003143Y009305D01*
X002773Y008935D01*
X002773Y008025D01*
X002403Y007655D01*
X002403Y007415D01*
X002403Y008405D02*
X002403Y008815D01*
X003093Y009505D01*
X003525Y009505D01*
X003781Y009249D01*
X003920Y009388D02*
X003614Y009695D01*
X003366Y008831D02*
X003364Y008831D01*
X003366Y008831D02*
X003543Y008655D01*
X003633Y008655D01*
X003743Y008545D01*
X003743Y008305D01*
X003523Y008085D01*
X003492Y008395D02*
X003492Y008425D01*
X003224Y008692D01*
X002553Y004395D02*
X002233Y004075D01*
X002233Y003465D01*
X003040Y003827D02*
X003040Y003042D01*
X003043Y003040D01*
X003040Y003827D02*
X003040Y004312D01*
X003043Y003829D02*
X003040Y003827D01*
D27*
X002543Y002815D03*
X003243Y001605D03*
X004243Y001605D03*
X004243Y001955D03*
X004993Y001955D03*
X004993Y001605D03*
X005643Y001605D03*
X005643Y001955D03*
X006083Y003815D03*
X006433Y003925D03*
X006923Y003855D03*
X007083Y004535D03*
X007063Y005025D03*
X006993Y005975D03*
X005973Y005365D03*
X005063Y004425D03*
X005043Y006905D03*
X005083Y007385D03*
X005143Y007895D03*
X005233Y008405D03*
X005563Y008295D03*
X006083Y008605D03*
X006433Y008195D03*
X006663Y008625D03*
X006793Y008305D03*
X007093Y008105D03*
X007673Y009645D03*
X008013Y009755D03*
X008093Y011185D03*
X007803Y011585D03*
X007963Y011885D03*
X007953Y012425D03*
X007673Y013345D03*
X006853Y012815D03*
X006443Y013005D03*
X006773Y011215D03*
X006593Y010695D03*
X006443Y010195D03*
X006073Y010585D03*
X007153Y011295D03*
X008243Y008205D03*
X005943Y007025D03*
X005443Y006905D03*
X004753Y008415D03*
X004273Y008405D03*
X003663Y007885D03*
X003492Y008395D03*
X002493Y008125D03*
X002443Y009775D03*
X002713Y009985D03*
X002343Y010265D03*
X002343Y010735D03*
X002343Y012455D03*
X002343Y012845D03*
X001603Y013325D03*
X003693Y013255D03*
X003893Y012585D03*
X003903Y010785D03*
X004273Y010805D03*
X004473Y010605D03*
X003841Y010203D03*
X008073Y004065D03*
X007143Y002005D03*
X007143Y001105D03*
X007143Y000505D03*
X008093Y000505D03*
X008593Y000955D03*
D28*
X007793Y002615D02*
X007793Y002985D01*
X006923Y003855D01*
X006433Y003925D02*
X007293Y003065D01*
X007293Y002615D01*
X006097Y004540D02*
X006293Y004735D01*
X006293Y005495D01*
X006793Y005495D02*
X006793Y005775D01*
X006993Y005975D01*
X006097Y004540D02*
X005643Y004540D01*
X006083Y008605D02*
X006093Y008605D01*
X003903Y010785D02*
X003903Y011255D01*
X003743Y011415D01*
X003098Y011415D01*
X002758Y011755D01*
X003023Y012095D02*
X002483Y012095D01*
X002393Y012005D01*
X002393Y011155D01*
X002493Y011055D01*
X002758Y011055D01*
X002343Y010265D02*
X001903Y010705D01*
X001743Y010705D01*
X001743Y009705D02*
X002373Y009705D01*
X002443Y009775D01*
X003023Y012095D02*
X003093Y012165D01*
X003093Y012440D01*
X002837Y012440D02*
X002358Y012440D01*
X002352Y012441D01*
X002347Y012444D01*
X002344Y012449D01*
X002343Y012455D01*
X002343Y012845D02*
X002543Y013045D01*
X002808Y013045D01*
X002837Y013074D01*
X003093Y013074D02*
X003093Y013405D01*
X002858Y013640D01*
X002858Y013755D01*
X003093Y013074D02*
X003349Y013074D01*
X003349Y012440D02*
X003748Y012440D01*
X003893Y012585D01*
X005243Y013825D02*
X005243Y013855D01*
D29*
X002758Y010405D02*
X002673Y010405D01*
X002343Y010735D01*
X005643Y003870D02*
X005698Y003815D01*
X006083Y003815D01*
X006293Y003605D01*
X006293Y002615D01*
X006793Y002615D01*
X008073Y004065D02*
X007793Y004345D01*
X007793Y005495D01*
X007293Y005495D02*
X007293Y005255D01*
X007063Y005025D01*
X005643Y003870D02*
X005643Y003040D01*
D30*
X005243Y011385D02*
X005243Y013825D01*
X006335Y013705D02*
X004143Y013705D01*
X006335Y013705D02*
X007142Y013705D01*
D31*
X006853Y012815D02*
X006858Y012810D01*
X006858Y012375D01*
X006353Y012375D01*
X006153Y012175D01*
X006153Y011385D01*
X004908Y010685D02*
X004423Y010685D01*
X004423Y011405D01*
X004273Y011555D01*
X004273Y010805D01*
X004473Y010605D01*
X004273Y010805D02*
X004333Y010865D01*
X004333Y011385D01*
X004333Y011465D01*
X004043Y011755D01*
X003427Y011755D01*
X005243Y013825D02*
X005243Y013905D01*
X007977Y012905D02*
X008543Y012905D01*
X008743Y012705D01*
X008224Y013685D02*
X008244Y013705D01*
D32*
X008224Y013685D02*
X008013Y013685D01*
X007673Y013345D01*
X007308Y012980D01*
X007308Y012905D01*
X007577Y012425D02*
X007527Y012375D01*
X007577Y012425D02*
X007953Y012425D01*
X003693Y013255D02*
X003693Y013455D01*
X003527Y013620D01*
X003527Y013755D01*
X002543Y002815D02*
X002543Y002525D01*
X002697Y002370D01*
X003043Y002370D01*
X003693Y002370D01*
X004343Y002370D01*
X004993Y002370D01*
X005643Y002370D01*
D33*
X005813Y011005D02*
X004673Y011005D01*
X004673Y011797D01*
X004620Y011850D01*
X004301Y011850D01*
X004255Y011897D01*
X004184Y011967D01*
X004093Y012005D01*
X003718Y012005D01*
X003681Y012042D01*
X003243Y012042D01*
X003243Y012799D01*
X003252Y012789D01*
X003445Y012789D01*
X003498Y012842D01*
X003498Y013011D01*
X003499Y013012D01*
X003499Y013125D01*
X003598Y013026D01*
X003788Y013026D01*
X003922Y013160D01*
X003922Y013350D01*
X003903Y013369D01*
X003903Y013542D01*
X003814Y013630D01*
X003814Y014009D01*
X003762Y014062D01*
X003293Y014062D01*
X003243Y014011D01*
X003243Y014011D01*
X003243Y014095D01*
X007243Y014095D01*
X007243Y013212D01*
X007223Y013192D01*
X006580Y013192D01*
X006538Y013234D02*
X006348Y013234D01*
X006214Y013100D01*
X006214Y012910D01*
X006348Y012776D01*
X006538Y012776D01*
X006603Y012841D01*
X006603Y012841D01*
X006603Y012765D01*
X006608Y012752D01*
X006608Y012662D01*
X006604Y012662D01*
X006567Y012625D01*
X006303Y012625D01*
X006211Y012587D01*
X006141Y012517D01*
X005941Y012317D01*
X005903Y012225D01*
X005903Y012125D01*
X005903Y011850D01*
X005866Y011850D01*
X005813Y011797D01*
X005813Y011005D01*
X005813Y011028D02*
X004673Y011028D01*
X004673Y011086D02*
X005813Y011086D01*
X005813Y011145D02*
X004673Y011145D01*
X004673Y011203D02*
X005813Y011203D01*
X005813Y011262D02*
X004673Y011262D01*
X004673Y011320D02*
X005813Y011320D01*
X005813Y011379D02*
X004673Y011379D01*
X004673Y011437D02*
X005813Y011437D01*
X005813Y011496D02*
X004673Y011496D01*
X004673Y011554D02*
X005813Y011554D01*
X005813Y011613D02*
X004673Y011613D01*
X004673Y011671D02*
X005813Y011671D01*
X005813Y011730D02*
X004673Y011730D01*
X004673Y011788D02*
X005813Y011788D01*
X005862Y011847D02*
X004624Y011847D01*
X004246Y011905D02*
X005903Y011905D01*
X005903Y011964D02*
X004188Y011964D01*
X003939Y011505D02*
X003993Y011451D01*
X003993Y011005D01*
X003714Y011005D01*
X003714Y011309D01*
X003662Y011362D01*
X003243Y011362D01*
X003243Y011468D01*
X003681Y011468D01*
X003718Y011505D01*
X003939Y011505D01*
X003949Y011496D02*
X003709Y011496D01*
X003703Y011320D02*
X003993Y011320D01*
X003993Y011262D02*
X003714Y011262D01*
X003714Y011203D02*
X003993Y011203D01*
X003993Y011145D02*
X003714Y011145D01*
X003714Y011086D02*
X003993Y011086D01*
X003993Y011028D02*
X003714Y011028D01*
X003993Y011379D02*
X003243Y011379D01*
X003243Y011437D02*
X003993Y011437D01*
X003701Y012022D02*
X005903Y012022D01*
X005903Y012081D02*
X003243Y012081D01*
X003243Y012139D02*
X005903Y012139D01*
X005903Y012198D02*
X003243Y012198D01*
X003243Y012256D02*
X005916Y012256D01*
X005940Y012315D02*
X003243Y012315D01*
X003243Y012373D02*
X005997Y012373D01*
X006056Y012432D02*
X003243Y012432D01*
X003243Y012490D02*
X006114Y012490D01*
X006173Y012549D02*
X003243Y012549D01*
X003243Y012607D02*
X006260Y012607D01*
X006088Y012690D02*
X006199Y012800D01*
X006199Y012956D01*
X006088Y013066D01*
X005933Y013066D01*
X005822Y012956D01*
X005822Y012800D01*
X005933Y012690D01*
X006088Y012690D01*
X006122Y012724D02*
X006608Y012724D01*
X006608Y012666D02*
X003243Y012666D01*
X003243Y012724D02*
X004363Y012724D01*
X004397Y012690D02*
X004553Y012690D01*
X004663Y012800D01*
X004663Y012956D01*
X004553Y013066D01*
X004397Y013066D01*
X004287Y012956D01*
X004287Y012800D01*
X004397Y012690D01*
X004305Y012783D02*
X003243Y012783D01*
X003497Y012841D02*
X004287Y012841D01*
X004287Y012900D02*
X003498Y012900D01*
X003498Y012958D02*
X004289Y012958D01*
X004347Y013017D02*
X003499Y013017D01*
X003499Y013075D02*
X003549Y013075D01*
X003837Y013075D02*
X006214Y013075D01*
X006214Y013017D02*
X006138Y013017D01*
X006197Y012958D02*
X006214Y012958D01*
X006224Y012900D02*
X006199Y012900D01*
X006199Y012841D02*
X006283Y012841D01*
X006341Y012783D02*
X006181Y012783D01*
X006247Y013134D02*
X003895Y013134D01*
X003922Y013192D02*
X006306Y013192D01*
X006538Y013234D02*
X006672Y013100D01*
X006672Y012988D01*
X006711Y013027D01*
X006803Y013065D01*
X006903Y013065D01*
X006994Y013027D01*
X007000Y013022D01*
X007002Y013020D01*
X007002Y013139D01*
X007054Y013192D01*
X007223Y013192D01*
X007243Y013251D02*
X003922Y013251D01*
X003922Y013309D02*
X007243Y013309D01*
X007243Y013368D02*
X003904Y013368D01*
X003903Y013426D02*
X007243Y013426D01*
X007243Y013485D02*
X003903Y013485D01*
X003902Y013543D02*
X007243Y013543D01*
X007243Y013602D02*
X003843Y013602D01*
X003814Y013660D02*
X007243Y013660D01*
X007243Y013719D02*
X003814Y013719D01*
X003814Y013777D02*
X007243Y013777D01*
X007243Y013836D02*
X003814Y013836D01*
X003814Y013894D02*
X007243Y013894D01*
X007243Y013953D02*
X003814Y013953D01*
X003812Y014011D02*
X007243Y014011D01*
X007243Y014070D02*
X003243Y014070D01*
X004603Y013017D02*
X005883Y013017D01*
X005824Y012958D02*
X004661Y012958D01*
X004663Y012900D02*
X005822Y012900D01*
X005822Y012841D02*
X004663Y012841D01*
X004645Y012783D02*
X005840Y012783D01*
X005899Y012724D02*
X004587Y012724D01*
X006544Y012783D02*
X006603Y012783D01*
X006672Y013017D02*
X006701Y013017D01*
X006672Y013075D02*
X007002Y013075D01*
X007002Y013134D02*
X006638Y013134D01*
D34*
X001603Y013325D02*
X001603Y013710D01*
X001558Y013755D01*
D35*
X002227Y013755D02*
X002858Y013755D01*
X005577Y010685D02*
X005973Y010685D01*
X006073Y010585D01*
D36*
X008253Y013696D02*
X008244Y013705D01*
M02*
