G75*
G70*
%OFA0B0*%
%FSLAX24Y24*%
%IPPOS*%
%LPD*%
%AMOC8*
5,1,8,0,0,1.08239X$1,22.5*
%
%ADD10C,0.0600*%
%ADD11C,0.0278*%
%ADD12C,0.0320*%
%ADD13C,0.0080*%
%ADD14C,0.0120*%
D10*
X001743Y001833D03*
X001743Y002833D03*
X001743Y003833D03*
X001743Y004833D03*
X001743Y005833D03*
X001743Y006833D03*
X001743Y007833D03*
X001743Y008833D03*
X001743Y009833D03*
X001743Y010833D03*
X001743Y011833D03*
X001743Y012833D03*
X008743Y012833D03*
X008743Y011833D03*
X008743Y010833D03*
X008743Y009833D03*
X008743Y008833D03*
X008743Y007833D03*
X008743Y006833D03*
X008743Y005833D03*
X008743Y004833D03*
X008743Y003833D03*
X008743Y002833D03*
X008743Y001833D03*
D11*
X006823Y004083D03*
X006453Y004033D03*
X006073Y003953D03*
X007063Y004603D03*
X006793Y005103D03*
X005943Y005503D03*
X006783Y006273D03*
X005743Y007133D03*
X005313Y007873D03*
X005563Y008413D03*
X005233Y008603D03*
X004623Y008713D03*
X004583Y008343D03*
X004643Y007933D03*
X004133Y008363D03*
X003602Y008443D03*
X002493Y008253D03*
X002553Y010093D03*
X002343Y010393D03*
X002383Y010813D03*
X003903Y010913D03*
X003841Y010331D03*
X004423Y010923D03*
X003893Y012713D03*
X004643Y014033D03*
X004943Y014033D03*
X005243Y014033D03*
X005543Y014033D03*
X005843Y014033D03*
X006393Y013183D03*
X006693Y012683D03*
X007093Y011383D03*
X007453Y011383D03*
X008203Y011473D03*
X008293Y012333D03*
X008253Y013263D03*
X006493Y010883D03*
X006073Y010713D03*
X006443Y010323D03*
X007703Y010023D03*
X007973Y009563D03*
X008243Y008333D03*
X007043Y008333D03*
X006633Y008323D03*
X006643Y008713D03*
X006083Y008563D03*
X004853Y007093D03*
X008073Y004193D03*
X005743Y001833D03*
X004793Y001833D03*
X003843Y001833D03*
X002643Y001833D03*
X002643Y002943D03*
X002343Y012783D03*
X002393Y013333D03*
X002793Y013833D03*
X001943Y013433D03*
D12*
X001743Y012833D02*
X002243Y012333D01*
X006343Y012333D01*
X006693Y012683D01*
X006393Y013183D02*
X006093Y013483D01*
X003143Y013483D01*
X002793Y013833D01*
X007833Y012843D02*
X007833Y011253D01*
X007988Y011098D01*
X008253Y010833D01*
X008743Y010833D01*
X008743Y012833D02*
X008743Y013733D01*
X008253Y013263D02*
X007833Y012843D01*
D13*
X001403Y002579D02*
X001403Y002087D01*
X001505Y002189D01*
X001659Y002253D01*
X001826Y002253D01*
X001981Y002189D01*
X002099Y002071D01*
X002163Y001917D01*
X002163Y001750D01*
X002115Y001633D01*
X002476Y001633D01*
X002423Y001686D01*
X002384Y001782D01*
X002384Y001885D01*
X002423Y001980D01*
X002496Y002053D01*
X002591Y002092D01*
X002694Y002092D01*
X002790Y002053D01*
X002862Y001980D01*
X002902Y001885D01*
X002902Y001782D01*
X002862Y001686D01*
X002809Y001633D01*
X003676Y001633D01*
X003623Y001686D01*
X003584Y001782D01*
X003584Y001885D01*
X003623Y001980D01*
X003696Y002053D01*
X003791Y002092D01*
X003894Y002092D01*
X003990Y002053D01*
X004062Y001980D01*
X004102Y001885D01*
X004102Y001782D01*
X004062Y001686D01*
X004009Y001633D01*
X004626Y001633D01*
X004573Y001686D01*
X004534Y001782D01*
X004534Y001885D01*
X004573Y001980D01*
X004646Y002053D01*
X004741Y002092D01*
X004844Y002092D01*
X004940Y002053D01*
X005012Y001980D01*
X005052Y001885D01*
X005052Y001782D01*
X005012Y001686D01*
X004959Y001633D01*
X005576Y001633D01*
X005523Y001686D01*
X005484Y001782D01*
X005484Y001885D01*
X005523Y001980D01*
X005596Y002053D01*
X005691Y002092D01*
X005794Y002092D01*
X005890Y002053D01*
X005962Y001980D01*
X006002Y001885D01*
X006002Y001782D01*
X005962Y001686D01*
X005909Y001633D01*
X008371Y001633D01*
X008323Y001750D01*
X008323Y001917D01*
X008387Y002071D01*
X008505Y002189D01*
X008659Y002253D01*
X008826Y002253D01*
X008981Y002189D01*
X009083Y002087D01*
X009083Y002579D01*
X008981Y002477D01*
X008826Y002413D01*
X008659Y002413D01*
X008505Y002477D01*
X008387Y002595D01*
X008323Y002750D01*
X008323Y002917D01*
X008387Y003071D01*
X008505Y003189D01*
X008659Y003253D01*
X008826Y003253D01*
X008981Y003189D01*
X009083Y003087D01*
X009083Y003579D01*
X008981Y003477D01*
X008826Y003413D01*
X008659Y003413D01*
X008505Y003477D01*
X008387Y003595D01*
X008323Y003750D01*
X008323Y003917D01*
X008387Y004071D01*
X008505Y004189D01*
X008659Y004253D01*
X008826Y004253D01*
X008981Y004189D01*
X009083Y004087D01*
X009083Y004579D01*
X008981Y004477D01*
X008826Y004413D01*
X008659Y004413D01*
X008505Y004477D01*
X008387Y004595D01*
X008323Y004750D01*
X008323Y004917D01*
X008387Y005071D01*
X008505Y005189D01*
X008659Y005253D01*
X008826Y005253D01*
X008981Y005189D01*
X009083Y005087D01*
X009083Y005579D01*
X008981Y005477D01*
X008826Y005413D01*
X008659Y005413D01*
X008505Y005477D01*
X008387Y005595D01*
X008323Y005750D01*
X008323Y005917D01*
X008387Y006071D01*
X008505Y006189D01*
X008659Y006253D01*
X008826Y006253D01*
X008981Y006189D01*
X009083Y006087D01*
X009083Y006579D01*
X008981Y006477D01*
X008826Y006413D01*
X008659Y006413D01*
X008505Y006477D01*
X008387Y006595D01*
X008323Y006750D01*
X006653Y006750D01*
X006653Y006828D02*
X008323Y006828D01*
X008323Y006750D02*
X008323Y006917D01*
X008387Y007071D01*
X008505Y007189D01*
X008659Y007253D01*
X008826Y007253D01*
X008981Y007189D01*
X009083Y007087D01*
X009083Y007579D01*
X008981Y007477D01*
X008826Y007413D01*
X008659Y007413D01*
X008505Y007477D01*
X008387Y007595D01*
X008323Y007750D01*
X008323Y007917D01*
X008387Y008071D01*
X008505Y008189D01*
X008659Y008253D01*
X008826Y008253D01*
X008981Y008189D01*
X009083Y008087D01*
X009083Y008579D01*
X008981Y008477D01*
X008826Y008413D01*
X008659Y008413D01*
X008505Y008477D01*
X008387Y008595D01*
X008323Y008750D01*
X008323Y008917D01*
X008387Y009071D01*
X008505Y009189D01*
X008659Y009253D01*
X008826Y009253D01*
X008981Y009189D01*
X009083Y009087D01*
X009083Y009579D01*
X008981Y009477D01*
X008826Y009413D01*
X008659Y009413D01*
X008505Y009477D01*
X008387Y009595D01*
X008323Y009750D01*
X008323Y009917D01*
X008387Y010071D01*
X008505Y010189D01*
X008659Y010253D01*
X008826Y010253D01*
X008981Y010189D01*
X009083Y010087D01*
X009083Y010579D01*
X008981Y010477D01*
X008826Y010413D01*
X008659Y010413D01*
X008505Y010477D01*
X008429Y010553D01*
X008197Y010553D01*
X008094Y010596D01*
X007740Y010596D01*
X007662Y010518D02*
X008464Y010518D01*
X008596Y010439D02*
X007583Y010439D01*
X007573Y010429D02*
X007917Y010773D01*
X008094Y010596D01*
X008015Y010675D02*
X007819Y010675D01*
X007897Y010753D02*
X007937Y010753D01*
X007663Y011027D02*
X007213Y010578D01*
X007213Y009278D01*
X007138Y009203D01*
X004428Y009203D01*
X004323Y009098D01*
X004143Y008918D01*
X004143Y008622D01*
X004128Y008622D01*
X003043Y009708D01*
X003043Y010298D01*
X002937Y010403D01*
X002767Y010573D01*
X002529Y010573D01*
X002490Y010613D01*
X002394Y010652D01*
X002291Y010652D01*
X002196Y010613D01*
X002123Y010540D01*
X002084Y010445D01*
X002084Y010342D01*
X002123Y010246D01*
X002196Y010173D01*
X002291Y010134D01*
X002294Y010134D01*
X002294Y010042D01*
X002333Y009946D01*
X002373Y009907D01*
X002373Y009417D01*
X003343Y008448D01*
X003343Y008392D01*
X003382Y008296D01*
X003455Y008223D01*
X003550Y008184D01*
X003653Y008184D01*
X003748Y008223D01*
X003821Y008296D01*
X003858Y008384D01*
X003874Y008368D01*
X003874Y008312D01*
X003913Y008216D01*
X003986Y008143D01*
X004081Y008104D01*
X004184Y008104D01*
X004280Y008143D01*
X004352Y008216D01*
X004354Y008219D01*
X004363Y008196D01*
X004436Y008123D01*
X004458Y008114D01*
X004423Y008080D01*
X004384Y007985D01*
X004384Y007882D01*
X004423Y007786D01*
X004496Y007713D01*
X004591Y007674D01*
X004694Y007674D01*
X004790Y007713D01*
X004823Y007747D01*
X004823Y007539D01*
X004928Y007433D01*
X005013Y007349D01*
X005013Y007299D01*
X005000Y007313D01*
X004904Y007352D01*
X004801Y007352D01*
X004706Y007313D01*
X004633Y007240D01*
X004594Y007145D01*
X004594Y007042D01*
X004633Y006946D01*
X004706Y006873D01*
X004801Y006834D01*
X004904Y006834D01*
X005000Y006873D01*
X005013Y006887D01*
X005013Y005219D01*
X006194Y004038D01*
X006194Y003982D01*
X006233Y003886D01*
X006306Y003813D01*
X006401Y003774D01*
X006504Y003774D01*
X006600Y003813D01*
X006663Y003877D01*
X006676Y003863D01*
X006771Y003824D01*
X006874Y003824D01*
X006970Y003863D01*
X007042Y003936D01*
X007082Y004032D01*
X007082Y004135D01*
X007042Y004230D01*
X006970Y004303D01*
X006874Y004342D01*
X006818Y004342D01*
X005916Y005244D01*
X005994Y005244D01*
X006090Y005283D01*
X006162Y005356D01*
X006202Y005452D01*
X006202Y005555D01*
X006162Y005650D01*
X006090Y005723D01*
X005994Y005762D01*
X005891Y005762D01*
X005796Y005723D01*
X005723Y005650D01*
X005684Y005555D01*
X005684Y005477D01*
X005613Y005548D01*
X005613Y007828D01*
X005572Y007869D01*
X005572Y007925D01*
X005532Y008020D01*
X005460Y008093D01*
X005364Y008132D01*
X005261Y008132D01*
X005183Y008100D01*
X005183Y008344D01*
X005284Y008344D01*
X005307Y008353D01*
X005343Y008266D01*
X005416Y008193D01*
X005511Y008154D01*
X005614Y008154D01*
X005710Y008193D01*
X005782Y008266D01*
X005822Y008362D01*
X005822Y008465D01*
X005782Y008560D01*
X005710Y008633D01*
X005614Y008672D01*
X005511Y008672D01*
X005489Y008663D01*
X005452Y008750D01*
X005380Y008823D01*
X005330Y008843D01*
X006416Y008843D01*
X006384Y008765D01*
X006384Y008662D01*
X006423Y008566D01*
X006466Y008523D01*
X006413Y008470D01*
X006374Y008375D01*
X006374Y008272D01*
X006413Y008176D01*
X006486Y008103D01*
X006581Y008064D01*
X006684Y008064D01*
X006780Y008103D01*
X006852Y008176D01*
X006892Y008272D01*
X006892Y008375D01*
X006852Y008470D01*
X006809Y008513D01*
X006862Y008566D01*
X006902Y008662D01*
X006902Y008765D01*
X006869Y008843D01*
X007287Y008843D01*
X007573Y009129D01*
X007573Y009797D01*
X007651Y009764D01*
X007754Y009764D01*
X007850Y009803D01*
X007922Y009876D01*
X007962Y009972D01*
X007962Y010075D01*
X007922Y010170D01*
X007850Y010243D01*
X007754Y010282D01*
X007651Y010282D01*
X007573Y010282D01*
X007573Y010250D02*
X007573Y010429D01*
X007573Y010361D02*
X009083Y010361D01*
X009083Y010439D02*
X008889Y010439D01*
X008946Y010204D02*
X009083Y010204D01*
X009083Y010282D02*
X007754Y010282D01*
X007651Y010282D02*
X007573Y010250D01*
X007889Y010204D02*
X008540Y010204D01*
X008441Y010125D02*
X007941Y010125D01*
X007962Y010047D02*
X008377Y010047D01*
X008344Y009968D02*
X007960Y009968D01*
X007928Y009890D02*
X008323Y009890D01*
X008323Y009811D02*
X008051Y009811D01*
X008024Y009822D02*
X008120Y009783D01*
X008192Y009710D01*
X008232Y009615D01*
X008232Y009512D01*
X008192Y009416D01*
X008120Y009343D01*
X008024Y009304D01*
X007921Y009304D01*
X007826Y009343D01*
X007753Y009416D01*
X007714Y009512D01*
X007714Y009615D01*
X007753Y009710D01*
X007826Y009783D01*
X007921Y009822D01*
X008024Y009822D01*
X007895Y009811D02*
X007857Y009811D01*
X007776Y009733D02*
X007573Y009733D01*
X007573Y009654D02*
X007730Y009654D01*
X007714Y009576D02*
X007573Y009576D01*
X007573Y009497D02*
X007720Y009497D01*
X007752Y009419D02*
X007573Y009419D01*
X007573Y009340D02*
X007834Y009340D01*
X007573Y009262D02*
X009083Y009262D01*
X009083Y009340D02*
X008111Y009340D01*
X008193Y009419D02*
X008646Y009419D01*
X008485Y009497D02*
X008226Y009497D01*
X008232Y009576D02*
X008406Y009576D01*
X008362Y009654D02*
X008215Y009654D01*
X008170Y009733D02*
X008330Y009733D01*
X008499Y009183D02*
X007573Y009183D01*
X007549Y009105D02*
X008420Y009105D01*
X008368Y009026D02*
X007470Y009026D01*
X007392Y008948D02*
X008336Y008948D01*
X008323Y008869D02*
X007313Y008869D01*
X007197Y009262D02*
X003489Y009262D01*
X003410Y009340D02*
X007213Y009340D01*
X007213Y009419D02*
X003332Y009419D01*
X003253Y009497D02*
X007213Y009497D01*
X007213Y009576D02*
X003175Y009576D01*
X003096Y009654D02*
X007213Y009654D01*
X007213Y009733D02*
X003043Y009733D01*
X003043Y009811D02*
X007213Y009811D01*
X007213Y009890D02*
X003043Y009890D01*
X003043Y009968D02*
X007213Y009968D01*
X007213Y010047D02*
X003043Y010047D01*
X003043Y010125D02*
X003680Y010125D01*
X003694Y010111D02*
X003790Y010072D01*
X003893Y010072D01*
X003988Y010111D01*
X004061Y010184D01*
X004100Y010279D01*
X004100Y010382D01*
X004061Y010477D01*
X003988Y010550D01*
X003893Y010590D01*
X003790Y010590D01*
X003694Y010550D01*
X003622Y010477D01*
X003582Y010382D01*
X003582Y010279D01*
X003622Y010184D01*
X003694Y010111D01*
X003613Y010204D02*
X003043Y010204D01*
X003043Y010282D02*
X003582Y010282D01*
X003582Y010361D02*
X002980Y010361D01*
X002901Y010439D02*
X003606Y010439D01*
X003662Y010518D02*
X002823Y010518D01*
X002506Y010596D02*
X007231Y010596D01*
X007213Y010518D02*
X006615Y010518D01*
X006590Y010543D02*
X006494Y010582D01*
X006391Y010582D01*
X006296Y010543D01*
X006223Y010470D01*
X006184Y010375D01*
X006184Y010272D01*
X006223Y010176D01*
X006296Y010103D01*
X006391Y010064D01*
X006494Y010064D01*
X006590Y010103D01*
X006662Y010176D01*
X006702Y010272D01*
X006702Y010375D01*
X006662Y010470D01*
X006590Y010543D01*
X006544Y010624D02*
X006640Y010663D01*
X006712Y010736D01*
X006752Y010832D01*
X007467Y010832D01*
X007545Y010910D02*
X006752Y010910D01*
X006752Y010935D02*
X006712Y011030D01*
X006640Y011103D01*
X006544Y011142D01*
X006441Y011142D01*
X006346Y011103D01*
X006273Y011030D01*
X006234Y010935D01*
X006234Y010832D01*
X004149Y010832D01*
X004162Y010862D02*
X004122Y010766D01*
X004050Y010693D01*
X003954Y010654D01*
X003851Y010654D01*
X003756Y010693D01*
X003683Y010766D01*
X003644Y010862D01*
X003644Y010965D01*
X003683Y011060D01*
X003756Y011133D01*
X003851Y011172D01*
X003954Y011172D01*
X004050Y011133D01*
X004122Y011060D01*
X004162Y010965D01*
X004162Y010862D01*
X004162Y010910D02*
X006234Y010910D01*
X006234Y010832D02*
X006273Y010736D01*
X006346Y010663D01*
X006441Y010624D01*
X006544Y010624D01*
X006651Y010675D02*
X007310Y010675D01*
X007388Y010753D02*
X006719Y010753D01*
X006752Y010832D02*
X006752Y010935D01*
X006729Y010989D02*
X007624Y010989D01*
X007663Y011027D02*
X007595Y011094D01*
X007572Y011152D01*
X007504Y011124D01*
X007401Y011124D01*
X007306Y011163D01*
X007273Y011197D01*
X007240Y011163D01*
X007144Y011124D01*
X007041Y011124D01*
X006946Y011163D01*
X006873Y011236D01*
X006834Y011332D01*
X006834Y011435D01*
X006873Y011530D01*
X006946Y011603D01*
X007041Y011642D01*
X007144Y011642D01*
X007240Y011603D01*
X007273Y011569D01*
X007306Y011603D01*
X007401Y011642D01*
X007504Y011642D01*
X007553Y011622D01*
X007553Y012899D01*
X007595Y013002D01*
X008094Y013500D01*
X008197Y013543D01*
X008308Y013543D01*
X008411Y013500D01*
X008490Y013422D01*
X009083Y013422D01*
X009083Y013344D02*
X008523Y013344D01*
X008533Y013319D02*
X008490Y013422D01*
X008411Y013501D02*
X009083Y013501D01*
X009083Y013579D02*
X006393Y013579D01*
X006471Y013501D02*
X008095Y013501D01*
X008016Y013422D02*
X006550Y013422D01*
X006628Y013344D02*
X007937Y013344D01*
X007859Y013265D02*
X006662Y013265D01*
X006673Y013239D02*
X006630Y013342D01*
X006251Y013720D01*
X006148Y013763D01*
X003259Y013763D01*
X002951Y014070D01*
X002848Y014113D01*
X002737Y014113D01*
X002634Y014070D01*
X002555Y013992D01*
X002513Y013889D01*
X002513Y013777D01*
X002555Y013674D01*
X002905Y013324D01*
X002984Y013246D01*
X003087Y013203D01*
X004320Y013203D01*
X004318Y013202D01*
X004240Y013124D01*
X004198Y013022D01*
X004198Y012912D01*
X004240Y012810D01*
X004318Y012732D01*
X004420Y012689D01*
X004530Y012689D01*
X004632Y012732D01*
X004710Y012810D01*
X004753Y012912D01*
X004753Y013022D01*
X004710Y013124D01*
X004632Y013202D01*
X004630Y013203D01*
X005856Y013203D01*
X005853Y013202D01*
X005775Y013124D01*
X005733Y013022D01*
X005733Y012912D01*
X005775Y012810D01*
X005853Y012732D01*
X005955Y012689D01*
X006066Y012689D01*
X006168Y012732D01*
X006246Y012810D01*
X006288Y012912D01*
X006288Y012923D01*
X006337Y012903D01*
X006448Y012903D01*
X006551Y012946D01*
X006630Y013024D01*
X006673Y013127D01*
X006673Y013239D01*
X006673Y013187D02*
X007780Y013187D01*
X007702Y013108D02*
X006665Y013108D01*
X006632Y013030D02*
X007623Y013030D01*
X007574Y012951D02*
X006777Y012951D01*
X006748Y012963D02*
X006637Y012963D01*
X006534Y012920D01*
X006227Y012613D01*
X004132Y012613D01*
X004152Y012662D01*
X004152Y012765D01*
X004112Y012860D01*
X004040Y012933D01*
X003944Y012972D01*
X003841Y012972D01*
X003746Y012933D01*
X003673Y012860D01*
X003634Y012765D01*
X003634Y012662D01*
X003654Y012613D01*
X002359Y012613D01*
X002163Y012809D01*
X002163Y012917D01*
X002099Y013071D01*
X001995Y013174D01*
X002090Y013213D01*
X002141Y013265D01*
X002173Y013186D01*
X002246Y013113D01*
X002341Y013074D01*
X002444Y013074D01*
X002540Y013113D01*
X002612Y013186D01*
X002652Y013282D01*
X002652Y013385D01*
X002612Y013480D01*
X002540Y013553D01*
X002444Y013592D01*
X002341Y013592D01*
X002246Y013553D01*
X002195Y013501D01*
X002162Y013580D01*
X002090Y013653D01*
X001994Y013692D01*
X001891Y013692D01*
X001796Y013653D01*
X001723Y013580D01*
X001684Y013485D01*
X001684Y013382D01*
X001723Y013286D01*
X001756Y013253D01*
X001659Y013253D01*
X001505Y013189D01*
X001403Y013087D01*
X001403Y014173D01*
X004420Y014173D01*
X004384Y014085D01*
X004384Y013982D01*
X004423Y013886D01*
X004496Y013813D01*
X004591Y013774D01*
X004694Y013774D01*
X004790Y013813D01*
X004793Y013817D01*
X004796Y013813D01*
X004891Y013774D01*
X004994Y013774D01*
X005090Y013813D01*
X005093Y013817D01*
X005096Y013813D01*
X005191Y013774D01*
X005294Y013774D01*
X005390Y013813D01*
X005393Y013817D01*
X005396Y013813D01*
X005491Y013774D01*
X005594Y013774D01*
X005690Y013813D01*
X005693Y013817D01*
X005696Y013813D01*
X005791Y013774D01*
X005894Y013774D01*
X005990Y013813D01*
X006062Y013886D01*
X006102Y013982D01*
X006102Y014085D01*
X006065Y014173D01*
X009083Y014173D01*
X009083Y013114D01*
X009078Y013120D01*
X009029Y013169D01*
X008973Y013209D01*
X008912Y013241D01*
X008846Y013262D01*
X008783Y013272D01*
X008783Y012873D01*
X008703Y012873D01*
X008703Y013272D01*
X008640Y013262D01*
X008574Y013241D01*
X008533Y013220D01*
X008533Y013319D01*
X008533Y013265D02*
X008658Y013265D01*
X008703Y013265D02*
X008783Y013265D01*
X008828Y013265D02*
X009083Y013265D01*
X009083Y013187D02*
X009005Y013187D01*
X008783Y013187D02*
X008703Y013187D01*
X008703Y013108D02*
X008783Y013108D01*
X008783Y013030D02*
X008703Y013030D01*
X008703Y012951D02*
X008783Y012951D01*
X008703Y012873D02*
X008703Y012793D01*
X008783Y012793D01*
X008783Y012394D01*
X008846Y012404D01*
X008912Y012425D01*
X008973Y012457D01*
X009029Y012497D01*
X009078Y012546D01*
X009083Y012552D01*
X009083Y012087D01*
X008981Y012189D01*
X008826Y012253D01*
X008659Y012253D01*
X008515Y012193D01*
X008552Y012282D01*
X008552Y012385D01*
X008525Y012450D01*
X008574Y012425D01*
X008640Y012404D01*
X008703Y012394D01*
X008703Y012793D01*
X008304Y012793D01*
X008314Y012730D01*
X008335Y012664D01*
X008366Y012602D01*
X008387Y012575D01*
X008344Y012592D01*
X008241Y012592D01*
X008146Y012553D01*
X008113Y012519D01*
X008113Y012727D01*
X008312Y012926D01*
X008304Y012873D01*
X008703Y012873D01*
X008258Y012873D01*
X008180Y012794D02*
X008703Y012794D01*
X008703Y012716D02*
X008783Y012716D01*
X008783Y012637D02*
X008703Y012637D01*
X008703Y012559D02*
X008783Y012559D01*
X008783Y012480D02*
X008703Y012480D01*
X008703Y012402D02*
X008783Y012402D01*
X008831Y012402D02*
X009083Y012402D01*
X009083Y012480D02*
X009006Y012480D01*
X009083Y012323D02*
X008552Y012323D01*
X008545Y012402D02*
X008654Y012402D01*
X008639Y012245D02*
X008537Y012245D01*
X008847Y012245D02*
X009083Y012245D01*
X009083Y012166D02*
X009004Y012166D01*
X009082Y012088D02*
X009083Y012088D01*
X008349Y012637D02*
X008113Y012637D01*
X008113Y012559D02*
X008160Y012559D01*
X008113Y012716D02*
X008318Y012716D01*
X007553Y012716D02*
X006973Y012716D01*
X006973Y012739D02*
X006930Y012842D01*
X006851Y012920D01*
X006748Y012963D01*
X006608Y012951D02*
X006557Y012951D01*
X006486Y012873D02*
X006272Y012873D01*
X006230Y012794D02*
X006408Y012794D01*
X006329Y012716D02*
X006129Y012716D01*
X006251Y012637D02*
X004142Y012637D01*
X004152Y012716D02*
X004357Y012716D01*
X004255Y012794D02*
X004140Y012794D01*
X004100Y012873D02*
X004214Y012873D01*
X004198Y012951D02*
X003995Y012951D01*
X004201Y013030D02*
X002116Y013030D01*
X002149Y012951D02*
X003791Y012951D01*
X003686Y012873D02*
X002163Y012873D01*
X002178Y012794D02*
X003646Y012794D01*
X003634Y012716D02*
X002256Y012716D01*
X002335Y012637D02*
X003644Y012637D01*
X004233Y013108D02*
X002527Y013108D01*
X002613Y013187D02*
X004302Y013187D01*
X004648Y013187D02*
X005838Y013187D01*
X005769Y013108D02*
X004717Y013108D01*
X004749Y013030D02*
X005736Y013030D01*
X005733Y012951D02*
X004753Y012951D01*
X004736Y012873D02*
X005749Y012873D01*
X005791Y012794D02*
X004695Y012794D01*
X004593Y012716D02*
X005892Y012716D01*
X006398Y012053D02*
X006501Y012096D01*
X006930Y012524D01*
X006973Y012627D01*
X006973Y012739D01*
X006950Y012794D02*
X007553Y012794D01*
X007553Y012873D02*
X006899Y012873D01*
X006973Y012637D02*
X007553Y012637D01*
X007553Y012559D02*
X006944Y012559D01*
X006886Y012480D02*
X007553Y012480D01*
X007553Y012402D02*
X006807Y012402D01*
X006729Y012323D02*
X007553Y012323D01*
X007553Y012245D02*
X006650Y012245D01*
X006572Y012166D02*
X007553Y012166D01*
X007553Y012088D02*
X006482Y012088D01*
X006398Y012053D02*
X002187Y012053D01*
X002084Y012096D01*
X002005Y012174D01*
X001767Y012413D01*
X001659Y012413D01*
X001505Y012477D01*
X001403Y012579D01*
X001403Y012087D01*
X001505Y012189D01*
X001659Y012253D01*
X001826Y012253D01*
X001981Y012189D01*
X002099Y012071D01*
X002163Y011917D01*
X002163Y011750D01*
X002099Y011595D01*
X001981Y011477D01*
X001826Y011413D01*
X001659Y011413D01*
X001505Y011477D01*
X001403Y011579D01*
X001403Y011087D01*
X001505Y011189D01*
X001659Y011253D01*
X001826Y011253D01*
X001981Y011189D01*
X002099Y011071D01*
X002163Y010917D01*
X002163Y010750D01*
X002099Y010595D01*
X001981Y010477D01*
X001826Y010413D01*
X001659Y010413D01*
X001505Y010477D01*
X001403Y010579D01*
X001403Y010087D01*
X001505Y010189D01*
X001659Y010253D01*
X001826Y010253D01*
X001981Y010189D01*
X002099Y010071D01*
X002163Y009917D01*
X002163Y009750D01*
X002099Y009595D01*
X001981Y009477D01*
X001826Y009413D01*
X001659Y009413D01*
X001505Y009477D01*
X001403Y009579D01*
X001403Y009087D01*
X001505Y009189D01*
X001659Y009253D01*
X001826Y009253D01*
X001981Y009189D01*
X002099Y009071D01*
X002163Y008917D01*
X002163Y008750D01*
X002099Y008595D01*
X001981Y008477D01*
X001826Y008413D01*
X001659Y008413D01*
X001505Y008477D01*
X001403Y008579D01*
X001403Y008087D01*
X001505Y008189D01*
X001659Y008253D01*
X001826Y008253D01*
X001981Y008189D01*
X002099Y008071D01*
X002163Y007917D01*
X002163Y007750D01*
X002099Y007595D01*
X001981Y007477D01*
X001826Y007413D01*
X001659Y007413D01*
X001505Y007477D01*
X001403Y007579D01*
X001403Y007087D01*
X001505Y007189D01*
X001659Y007253D01*
X001826Y007253D01*
X001981Y007189D01*
X002099Y007071D01*
X002163Y006917D01*
X002163Y006750D01*
X005013Y006750D01*
X005013Y006828D02*
X002163Y006828D01*
X002163Y006750D02*
X002099Y006595D01*
X001981Y006477D01*
X001826Y006413D01*
X001659Y006413D01*
X001505Y006477D01*
X001403Y006579D01*
X001403Y006087D01*
X001505Y006189D01*
X001659Y006253D01*
X001826Y006253D01*
X001981Y006189D01*
X002099Y006071D01*
X002163Y005917D01*
X002163Y005750D01*
X002099Y005595D01*
X001981Y005477D01*
X001826Y005413D01*
X001659Y005413D01*
X001505Y005477D01*
X001403Y005579D01*
X001403Y005087D01*
X001505Y005189D01*
X001659Y005253D01*
X001826Y005253D01*
X001981Y005189D01*
X002099Y005071D01*
X002163Y004917D01*
X002163Y004750D01*
X002099Y004595D01*
X001981Y004477D01*
X001826Y004413D01*
X001659Y004413D01*
X001505Y004477D01*
X001403Y004579D01*
X001403Y004087D01*
X001505Y004189D01*
X001659Y004253D01*
X001826Y004253D01*
X001981Y004189D01*
X002099Y004071D01*
X002163Y003917D01*
X002163Y003750D01*
X002099Y003595D01*
X001981Y003477D01*
X001826Y003413D01*
X001659Y003413D01*
X001505Y003477D01*
X001403Y003579D01*
X001403Y003087D01*
X001505Y003189D01*
X001659Y003253D01*
X001826Y003253D01*
X001981Y003189D01*
X002099Y003071D01*
X002163Y002917D01*
X002163Y002750D01*
X002099Y002595D01*
X001981Y002477D01*
X001826Y002413D01*
X001659Y002413D01*
X001505Y002477D01*
X001403Y002579D01*
X001403Y002511D02*
X001471Y002511D01*
X001403Y002432D02*
X001613Y002432D01*
X001523Y002197D02*
X001403Y002197D01*
X001403Y002275D02*
X009083Y002275D01*
X009083Y002197D02*
X008963Y002197D01*
X009052Y002118D02*
X009083Y002118D01*
X009083Y002354D02*
X001403Y002354D01*
X001403Y002118D02*
X001434Y002118D01*
X001963Y002197D02*
X008523Y002197D01*
X008434Y002118D02*
X002052Y002118D01*
X002112Y002040D02*
X002483Y002040D01*
X002415Y001961D02*
X002144Y001961D01*
X002163Y001883D02*
X002384Y001883D01*
X002384Y001804D02*
X002163Y001804D01*
X002153Y001726D02*
X002407Y001726D01*
X002462Y001647D02*
X002120Y001647D01*
X002823Y001647D02*
X003662Y001647D01*
X003607Y001726D02*
X002879Y001726D01*
X002902Y001804D02*
X003584Y001804D01*
X003584Y001883D02*
X002902Y001883D01*
X002870Y001961D02*
X003615Y001961D01*
X003683Y002040D02*
X002803Y002040D01*
X002694Y002684D02*
X002591Y002684D01*
X002496Y002723D01*
X002423Y002796D01*
X002384Y002892D01*
X002384Y002995D01*
X002423Y003090D01*
X002496Y003163D01*
X002591Y003202D01*
X002694Y003202D01*
X002790Y003163D01*
X002862Y003090D01*
X002902Y002995D01*
X002902Y002892D01*
X002862Y002796D01*
X002790Y002723D01*
X002694Y002684D01*
X002812Y002746D02*
X008324Y002746D01*
X008323Y002825D02*
X002874Y002825D01*
X002902Y002903D02*
X008323Y002903D01*
X008350Y002982D02*
X002902Y002982D01*
X002875Y003060D02*
X008382Y003060D01*
X008454Y003139D02*
X002814Y003139D01*
X002472Y003139D02*
X002031Y003139D01*
X002103Y003060D02*
X002411Y003060D01*
X002384Y002982D02*
X002136Y002982D01*
X002163Y002903D02*
X002384Y002903D01*
X002411Y002825D02*
X002163Y002825D01*
X002161Y002746D02*
X002473Y002746D01*
X002129Y002668D02*
X008357Y002668D01*
X008393Y002589D02*
X002093Y002589D01*
X002014Y002511D02*
X008471Y002511D01*
X008613Y002432D02*
X001872Y002432D01*
X001913Y003217D02*
X008572Y003217D01*
X008564Y003453D02*
X001922Y003453D01*
X002035Y003531D02*
X008451Y003531D01*
X008381Y003610D02*
X002105Y003610D01*
X002137Y003688D02*
X008348Y003688D01*
X008323Y003767D02*
X002163Y003767D01*
X002163Y003845D02*
X006274Y003845D01*
X006218Y003924D02*
X002160Y003924D01*
X002127Y004002D02*
X006194Y004002D01*
X006151Y004081D02*
X002089Y004081D01*
X002011Y004159D02*
X006072Y004159D01*
X005994Y004238D02*
X001864Y004238D01*
X001622Y004238D02*
X001403Y004238D01*
X001403Y004316D02*
X005915Y004316D01*
X005837Y004395D02*
X001403Y004395D01*
X001403Y004473D02*
X001514Y004473D01*
X001430Y004552D02*
X001403Y004552D01*
X001403Y004159D02*
X001475Y004159D01*
X001971Y004473D02*
X005758Y004473D01*
X005680Y004552D02*
X002055Y004552D01*
X002113Y004630D02*
X005601Y004630D01*
X005523Y004709D02*
X002146Y004709D01*
X002163Y004787D02*
X005444Y004787D01*
X005366Y004866D02*
X002163Y004866D01*
X002151Y004944D02*
X005287Y004944D01*
X005209Y005023D02*
X002119Y005023D01*
X002069Y005101D02*
X005130Y005101D01*
X005052Y005180D02*
X001990Y005180D01*
X001831Y005415D02*
X005013Y005415D01*
X005013Y005337D02*
X001403Y005337D01*
X001403Y005415D02*
X001654Y005415D01*
X001488Y005494D02*
X001403Y005494D01*
X001403Y005572D02*
X001410Y005572D01*
X001403Y005258D02*
X005013Y005258D01*
X005013Y005494D02*
X001997Y005494D01*
X002076Y005572D02*
X005013Y005572D01*
X005013Y005651D02*
X002122Y005651D01*
X002154Y005729D02*
X005013Y005729D01*
X005013Y005808D02*
X002163Y005808D01*
X002163Y005886D02*
X005013Y005886D01*
X005013Y005965D02*
X002143Y005965D01*
X002110Y006043D02*
X005013Y006043D01*
X005013Y006122D02*
X002048Y006122D01*
X001954Y006200D02*
X005013Y006200D01*
X005013Y006279D02*
X001403Y006279D01*
X001403Y006357D02*
X005013Y006357D01*
X005013Y006436D02*
X001881Y006436D01*
X002018Y006514D02*
X005013Y006514D01*
X005013Y006593D02*
X002096Y006593D01*
X002130Y006671D02*
X005013Y006671D01*
X004673Y006907D02*
X002163Y006907D01*
X002134Y006985D02*
X004617Y006985D01*
X004594Y007064D02*
X002102Y007064D01*
X002028Y007142D02*
X004594Y007142D01*
X004625Y007221D02*
X001905Y007221D01*
X001930Y007456D02*
X004905Y007456D01*
X004827Y007535D02*
X002038Y007535D01*
X002106Y007613D02*
X004823Y007613D01*
X004823Y007692D02*
X004737Y007692D01*
X004549Y007692D02*
X002139Y007692D01*
X002163Y007770D02*
X004439Y007770D01*
X004397Y007849D02*
X002163Y007849D01*
X002158Y007927D02*
X004384Y007927D01*
X004392Y008006D02*
X002126Y008006D01*
X002086Y008084D02*
X004427Y008084D01*
X004397Y008163D02*
X004299Y008163D01*
X003967Y008163D02*
X002007Y008163D01*
X001855Y008241D02*
X003437Y008241D01*
X003372Y008320D02*
X001403Y008320D01*
X001403Y008398D02*
X003343Y008398D01*
X003314Y008477D02*
X001980Y008477D01*
X002059Y008555D02*
X003235Y008555D01*
X003157Y008634D02*
X002115Y008634D01*
X002147Y008712D02*
X003078Y008712D01*
X003000Y008791D02*
X002163Y008791D01*
X002163Y008869D02*
X002921Y008869D01*
X002843Y008948D02*
X002150Y008948D01*
X002117Y009026D02*
X002764Y009026D01*
X002686Y009105D02*
X002065Y009105D01*
X001987Y009183D02*
X002607Y009183D01*
X002529Y009262D02*
X001403Y009262D01*
X001403Y009340D02*
X002450Y009340D01*
X002373Y009419D02*
X001840Y009419D01*
X001646Y009419D02*
X001403Y009419D01*
X001403Y009497D02*
X001485Y009497D01*
X001406Y009576D02*
X001403Y009576D01*
X001403Y009183D02*
X001499Y009183D01*
X001420Y009105D02*
X001403Y009105D01*
X001403Y008555D02*
X001427Y008555D01*
X001403Y008477D02*
X001506Y008477D01*
X001403Y008241D02*
X001630Y008241D01*
X001478Y008163D02*
X001403Y008163D01*
X001403Y007535D02*
X001447Y007535D01*
X001403Y007456D02*
X001555Y007456D01*
X001403Y007378D02*
X004984Y007378D01*
X004692Y007299D02*
X001403Y007299D01*
X001403Y007221D02*
X001581Y007221D01*
X001458Y007142D02*
X001403Y007142D01*
X001403Y006514D02*
X001468Y006514D01*
X001403Y006436D02*
X001605Y006436D01*
X001531Y006200D02*
X001403Y006200D01*
X001403Y006122D02*
X001437Y006122D01*
X001403Y005180D02*
X001495Y005180D01*
X001417Y005101D02*
X001403Y005101D01*
X001403Y003531D02*
X001451Y003531D01*
X001403Y003453D02*
X001564Y003453D01*
X001403Y003374D02*
X009083Y003374D01*
X009083Y003296D02*
X001403Y003296D01*
X001403Y003217D02*
X001572Y003217D01*
X001454Y003139D02*
X001403Y003139D01*
X004003Y002040D02*
X004633Y002040D01*
X004565Y001961D02*
X004070Y001961D01*
X004102Y001883D02*
X004534Y001883D01*
X004534Y001804D02*
X004102Y001804D01*
X004079Y001726D02*
X004557Y001726D01*
X004612Y001647D02*
X004023Y001647D01*
X004973Y001647D02*
X005562Y001647D01*
X005507Y001726D02*
X005029Y001726D01*
X005052Y001804D02*
X005484Y001804D01*
X005484Y001883D02*
X005052Y001883D01*
X005020Y001961D02*
X005515Y001961D01*
X005583Y002040D02*
X004953Y002040D01*
X005903Y002040D02*
X008374Y002040D01*
X008341Y001961D02*
X005970Y001961D01*
X006002Y001883D02*
X008323Y001883D01*
X008323Y001804D02*
X006002Y001804D01*
X005979Y001726D02*
X008333Y001726D01*
X008365Y001647D02*
X005923Y001647D01*
X006631Y003845D02*
X006720Y003845D01*
X006925Y003845D02*
X008323Y003845D01*
X008326Y003924D02*
X007030Y003924D01*
X007070Y004002D02*
X007897Y004002D01*
X007926Y003973D02*
X007853Y004046D01*
X007814Y004142D01*
X007814Y004245D01*
X007853Y004340D01*
X007926Y004413D01*
X008021Y004452D01*
X008124Y004452D01*
X008220Y004413D01*
X008292Y004340D01*
X008332Y004245D01*
X008332Y004142D01*
X008292Y004046D01*
X008220Y003973D01*
X008124Y003934D01*
X008021Y003934D01*
X007926Y003973D01*
X007839Y004081D02*
X007082Y004081D01*
X007072Y004159D02*
X007814Y004159D01*
X007814Y004238D02*
X007035Y004238D01*
X006937Y004316D02*
X007843Y004316D01*
X007908Y004395D02*
X006766Y004395D01*
X006687Y004473D02*
X008514Y004473D01*
X008430Y004552D02*
X006609Y004552D01*
X006530Y004630D02*
X008372Y004630D01*
X008340Y004709D02*
X006452Y004709D01*
X006373Y004787D02*
X008323Y004787D01*
X008323Y004866D02*
X006896Y004866D01*
X006940Y004883D02*
X006844Y004844D01*
X006741Y004844D01*
X006646Y004883D01*
X006573Y004956D01*
X006534Y005052D01*
X006534Y005108D01*
X006398Y005243D01*
X006398Y005243D01*
X006293Y005349D01*
X006293Y007719D01*
X005903Y008109D01*
X005903Y008377D01*
X005863Y008416D01*
X005824Y008512D01*
X005824Y008615D01*
X005863Y008710D01*
X005936Y008783D01*
X006031Y008822D01*
X006134Y008822D01*
X006230Y008783D01*
X006302Y008710D01*
X006342Y008615D01*
X006342Y008512D01*
X006302Y008416D01*
X006263Y008377D01*
X006263Y008258D01*
X006547Y007973D01*
X006653Y007868D01*
X006653Y006500D01*
X006731Y006532D01*
X006834Y006532D01*
X006930Y006493D01*
X007002Y006420D01*
X007042Y006325D01*
X007042Y006222D01*
X007002Y006126D01*
X006930Y006053D01*
X006834Y006014D01*
X006731Y006014D01*
X006653Y006047D01*
X006653Y005498D01*
X006788Y005362D01*
X006844Y005362D01*
X006940Y005323D01*
X007012Y005250D01*
X007052Y005155D01*
X007052Y005052D01*
X007012Y004956D01*
X006940Y004883D01*
X007000Y004944D02*
X008334Y004944D01*
X008367Y005023D02*
X007040Y005023D01*
X007052Y005101D02*
X008417Y005101D01*
X008495Y005180D02*
X007042Y005180D01*
X007004Y005258D02*
X009083Y005258D01*
X009083Y005180D02*
X008990Y005180D01*
X009069Y005101D02*
X009083Y005101D01*
X009083Y005337D02*
X006906Y005337D01*
X006735Y005415D02*
X008654Y005415D01*
X008831Y005415D02*
X009083Y005415D01*
X009083Y005494D02*
X008997Y005494D01*
X009076Y005572D02*
X009083Y005572D01*
X009083Y006122D02*
X009048Y006122D01*
X009083Y006200D02*
X008954Y006200D01*
X009083Y006279D02*
X007042Y006279D01*
X007028Y006357D02*
X009083Y006357D01*
X009083Y006436D02*
X008881Y006436D01*
X009018Y006514D02*
X009083Y006514D01*
X008605Y006436D02*
X006987Y006436D01*
X006878Y006514D02*
X008468Y006514D01*
X008389Y006593D02*
X006653Y006593D01*
X006653Y006671D02*
X008355Y006671D01*
X008323Y006907D02*
X006653Y006907D01*
X006653Y006985D02*
X008351Y006985D01*
X008384Y007064D02*
X006653Y007064D01*
X006653Y007142D02*
X008458Y007142D01*
X008581Y007221D02*
X006653Y007221D01*
X006653Y007299D02*
X009083Y007299D01*
X009083Y007221D02*
X008905Y007221D01*
X009028Y007142D02*
X009083Y007142D01*
X009083Y007378D02*
X006653Y007378D01*
X006653Y007456D02*
X008555Y007456D01*
X008447Y007535D02*
X006653Y007535D01*
X006653Y007613D02*
X008379Y007613D01*
X008347Y007692D02*
X006653Y007692D01*
X006653Y007770D02*
X008323Y007770D01*
X008323Y007849D02*
X006653Y007849D01*
X006593Y007927D02*
X008327Y007927D01*
X008360Y008006D02*
X006515Y008006D01*
X006533Y008084D02*
X006436Y008084D01*
X006427Y008163D02*
X006358Y008163D01*
X006386Y008241D02*
X006279Y008241D01*
X006263Y008320D02*
X006374Y008320D01*
X006383Y008398D02*
X006284Y008398D01*
X006327Y008477D02*
X006420Y008477D01*
X006434Y008555D02*
X006342Y008555D01*
X006334Y008634D02*
X006395Y008634D01*
X006384Y008712D02*
X006300Y008712D01*
X006210Y008791D02*
X006395Y008791D01*
X005955Y008791D02*
X005412Y008791D01*
X005468Y008712D02*
X005865Y008712D01*
X005832Y008634D02*
X005707Y008634D01*
X005784Y008555D02*
X005824Y008555D01*
X005817Y008477D02*
X005838Y008477D01*
X005822Y008398D02*
X005881Y008398D01*
X005903Y008320D02*
X005804Y008320D01*
X005757Y008241D02*
X005903Y008241D01*
X005903Y008163D02*
X005635Y008163D01*
X005491Y008163D02*
X005183Y008163D01*
X005183Y008241D02*
X005368Y008241D01*
X005321Y008320D02*
X005183Y008320D01*
X005468Y008084D02*
X005927Y008084D01*
X006006Y008006D02*
X005538Y008006D01*
X005571Y007927D02*
X006084Y007927D01*
X006163Y007849D02*
X005592Y007849D01*
X005613Y007770D02*
X006241Y007770D01*
X006293Y007692D02*
X005613Y007692D01*
X005613Y007613D02*
X006293Y007613D01*
X006293Y007535D02*
X005613Y007535D01*
X005613Y007456D02*
X006293Y007456D01*
X006293Y007378D02*
X005613Y007378D01*
X005613Y007299D02*
X006293Y007299D01*
X006293Y007221D02*
X005613Y007221D01*
X005613Y007142D02*
X006293Y007142D01*
X006293Y007064D02*
X005613Y007064D01*
X005613Y006985D02*
X006293Y006985D01*
X006293Y006907D02*
X005613Y006907D01*
X005613Y006828D02*
X006293Y006828D01*
X006293Y006750D02*
X005613Y006750D01*
X005613Y006671D02*
X006293Y006671D01*
X006293Y006593D02*
X005613Y006593D01*
X005613Y006514D02*
X006293Y006514D01*
X006293Y006436D02*
X005613Y006436D01*
X005613Y006357D02*
X006293Y006357D01*
X006293Y006279D02*
X005613Y006279D01*
X005613Y006200D02*
X006293Y006200D01*
X006293Y006122D02*
X005613Y006122D01*
X005613Y006043D02*
X006293Y006043D01*
X006293Y005965D02*
X005613Y005965D01*
X005613Y005886D02*
X006293Y005886D01*
X006293Y005808D02*
X005613Y005808D01*
X005613Y005729D02*
X005812Y005729D01*
X005724Y005651D02*
X005613Y005651D01*
X005613Y005572D02*
X005691Y005572D01*
X005684Y005494D02*
X005667Y005494D01*
X006028Y005258D02*
X006383Y005258D01*
X006305Y005337D02*
X006143Y005337D01*
X006187Y005415D02*
X006293Y005415D01*
X006293Y005494D02*
X006202Y005494D01*
X006195Y005572D02*
X006293Y005572D01*
X006293Y005651D02*
X006162Y005651D01*
X006074Y005729D02*
X006293Y005729D01*
X006653Y005729D02*
X008331Y005729D01*
X008323Y005808D02*
X006653Y005808D01*
X006653Y005886D02*
X008323Y005886D01*
X008343Y005965D02*
X006653Y005965D01*
X006653Y006043D02*
X006661Y006043D01*
X006905Y006043D02*
X008375Y006043D01*
X008437Y006122D02*
X006998Y006122D01*
X007033Y006200D02*
X008531Y006200D01*
X008364Y005651D02*
X006653Y005651D01*
X006653Y005572D02*
X008410Y005572D01*
X008488Y005494D02*
X006657Y005494D01*
X006462Y005180D02*
X005981Y005180D01*
X006059Y005101D02*
X006534Y005101D01*
X006546Y005023D02*
X006138Y005023D01*
X006216Y004944D02*
X006585Y004944D01*
X006689Y004866D02*
X006295Y004866D01*
X006653Y006514D02*
X006688Y006514D01*
X006733Y008084D02*
X008167Y008084D01*
X008191Y008074D02*
X008294Y008074D01*
X008390Y008113D01*
X008462Y008186D01*
X008502Y008282D01*
X008502Y008385D01*
X008462Y008480D01*
X008390Y008553D01*
X008294Y008592D01*
X008191Y008592D01*
X008096Y008553D01*
X008023Y008480D01*
X007984Y008385D01*
X007984Y008282D01*
X008023Y008186D01*
X008096Y008113D01*
X008191Y008074D01*
X008319Y008084D02*
X008400Y008084D01*
X008439Y008163D02*
X008478Y008163D01*
X008485Y008241D02*
X008630Y008241D01*
X008502Y008320D02*
X009083Y008320D01*
X009083Y008398D02*
X008496Y008398D01*
X008506Y008477D02*
X008464Y008477D01*
X008427Y008555D02*
X008384Y008555D01*
X008371Y008634D02*
X006890Y008634D01*
X006902Y008712D02*
X008338Y008712D01*
X008323Y008791D02*
X006891Y008791D01*
X006851Y008555D02*
X008102Y008555D01*
X008022Y008477D02*
X006846Y008477D01*
X006882Y008398D02*
X007989Y008398D01*
X007984Y008320D02*
X006892Y008320D01*
X006879Y008241D02*
X008001Y008241D01*
X008047Y008163D02*
X006839Y008163D01*
X006611Y010125D02*
X007213Y010125D01*
X007213Y010204D02*
X006674Y010204D01*
X006702Y010282D02*
X007213Y010282D01*
X007213Y010361D02*
X006702Y010361D01*
X006675Y010439D02*
X007213Y010439D01*
X007623Y011067D02*
X006675Y011067D01*
X006885Y011224D02*
X001896Y011224D01*
X002024Y011146D02*
X003787Y011146D01*
X003690Y011067D02*
X002100Y011067D01*
X002133Y010989D02*
X003654Y010989D01*
X003644Y010910D02*
X002163Y010910D01*
X002163Y010832D02*
X003656Y010832D01*
X003696Y010753D02*
X002163Y010753D01*
X002132Y010675D02*
X003802Y010675D01*
X004004Y010675D02*
X006335Y010675D01*
X006266Y010753D02*
X004109Y010753D01*
X004021Y010518D02*
X006271Y010518D01*
X006210Y010439D02*
X004077Y010439D01*
X004100Y010361D02*
X006184Y010361D01*
X006184Y010282D02*
X004100Y010282D01*
X004069Y010204D02*
X006212Y010204D01*
X006274Y010125D02*
X004002Y010125D01*
X004152Y010989D02*
X006256Y010989D01*
X006310Y011067D02*
X004115Y011067D01*
X004018Y011146D02*
X006989Y011146D01*
X006846Y011303D02*
X001403Y011303D01*
X001403Y011381D02*
X006834Y011381D01*
X006844Y011460D02*
X001939Y011460D01*
X002042Y011538D02*
X006881Y011538D01*
X006980Y011617D02*
X002108Y011617D01*
X002140Y011695D02*
X007553Y011695D01*
X007553Y011774D02*
X002163Y011774D01*
X002163Y011852D02*
X007553Y011852D01*
X007553Y011931D02*
X002157Y011931D01*
X002124Y012009D02*
X007553Y012009D01*
X007340Y011617D02*
X007206Y011617D01*
X007196Y011146D02*
X007349Y011146D01*
X007556Y011146D02*
X007574Y011146D01*
X008840Y009419D02*
X009083Y009419D01*
X009083Y009497D02*
X009001Y009497D01*
X009079Y009576D02*
X009083Y009576D01*
X009083Y009183D02*
X008987Y009183D01*
X009065Y009105D02*
X009083Y009105D01*
X009059Y008555D02*
X009083Y008555D01*
X009083Y008477D02*
X008980Y008477D01*
X009083Y008241D02*
X008855Y008241D01*
X009007Y008163D02*
X009083Y008163D01*
X009083Y007535D02*
X009038Y007535D01*
X009083Y007456D02*
X008930Y007456D01*
X009045Y010125D02*
X009083Y010125D01*
X009083Y010518D02*
X009021Y010518D01*
X009083Y013658D02*
X006314Y013658D01*
X006214Y013736D02*
X009083Y013736D01*
X009083Y013815D02*
X005991Y013815D01*
X006065Y013893D02*
X009083Y013893D01*
X009083Y013972D02*
X006098Y013972D01*
X006102Y014050D02*
X009083Y014050D01*
X009083Y014129D02*
X006084Y014129D01*
X005695Y013815D02*
X005691Y013815D01*
X005395Y013815D02*
X005391Y013815D01*
X005095Y013815D02*
X005091Y013815D01*
X004795Y013815D02*
X004791Y013815D01*
X004495Y013815D02*
X003207Y013815D01*
X003129Y013893D02*
X004420Y013893D01*
X004388Y013972D02*
X003050Y013972D01*
X002972Y014050D02*
X004384Y014050D01*
X004402Y014129D02*
X001403Y014129D01*
X001403Y014050D02*
X002614Y014050D01*
X002547Y013972D02*
X001403Y013972D01*
X001403Y013893D02*
X002515Y013893D01*
X002513Y013815D02*
X001403Y013815D01*
X001403Y013736D02*
X002530Y013736D01*
X002572Y013658D02*
X002078Y013658D01*
X002163Y013579D02*
X002310Y013579D01*
X002476Y013579D02*
X002651Y013579D01*
X002592Y013501D02*
X002729Y013501D01*
X002808Y013422D02*
X002636Y013422D01*
X002652Y013344D02*
X002886Y013344D01*
X002965Y013265D02*
X002645Y013265D01*
X002259Y013108D02*
X002062Y013108D01*
X002025Y013187D02*
X002173Y013187D01*
X001744Y013265D02*
X001403Y013265D01*
X001403Y013187D02*
X001502Y013187D01*
X001424Y013108D02*
X001403Y013108D01*
X001403Y013344D02*
X001699Y013344D01*
X001684Y013422D02*
X001403Y013422D01*
X001403Y013501D02*
X001690Y013501D01*
X001723Y013579D02*
X001403Y013579D01*
X001403Y013658D02*
X001808Y013658D01*
X001423Y012559D02*
X001403Y012559D01*
X001403Y012480D02*
X001502Y012480D01*
X001403Y012402D02*
X001778Y012402D01*
X001857Y012323D02*
X001403Y012323D01*
X001403Y012245D02*
X001639Y012245D01*
X001847Y012245D02*
X001935Y012245D01*
X002004Y012166D02*
X002014Y012166D01*
X002082Y012088D02*
X002104Y012088D01*
X001547Y011460D02*
X001403Y011460D01*
X001403Y011538D02*
X001444Y011538D01*
X001403Y011224D02*
X001589Y011224D01*
X001461Y011146D02*
X001403Y011146D01*
X001403Y010518D02*
X001464Y010518D01*
X001403Y010439D02*
X001596Y010439D01*
X001403Y010361D02*
X002084Y010361D01*
X002084Y010439D02*
X001889Y010439D01*
X002021Y010518D02*
X002114Y010518D01*
X002099Y010596D02*
X002179Y010596D01*
X002108Y010282D02*
X001403Y010282D01*
X001403Y010204D02*
X001540Y010204D01*
X001441Y010125D02*
X001403Y010125D01*
X001946Y010204D02*
X002166Y010204D01*
X002045Y010125D02*
X002294Y010125D01*
X002294Y010047D02*
X002109Y010047D01*
X002141Y009968D02*
X002324Y009968D01*
X002373Y009890D02*
X002163Y009890D01*
X002163Y009811D02*
X002373Y009811D01*
X002373Y009733D02*
X002156Y009733D01*
X002123Y009654D02*
X002373Y009654D01*
X002373Y009576D02*
X002079Y009576D01*
X002001Y009497D02*
X002373Y009497D01*
X003567Y009183D02*
X004408Y009183D01*
X004330Y009105D02*
X003646Y009105D01*
X003724Y009026D02*
X004251Y009026D01*
X004173Y008948D02*
X003803Y008948D01*
X003881Y008869D02*
X004143Y008869D01*
X004143Y008791D02*
X003960Y008791D01*
X004038Y008712D02*
X004143Y008712D01*
X004143Y008634D02*
X004117Y008634D01*
X003874Y008320D02*
X003831Y008320D01*
X003766Y008241D02*
X003903Y008241D01*
X001403Y012088D02*
X001403Y012088D01*
X001403Y012166D02*
X001482Y012166D01*
X008238Y004395D02*
X009083Y004395D01*
X009083Y004473D02*
X008971Y004473D01*
X009055Y004552D02*
X009083Y004552D01*
X009083Y004316D02*
X008302Y004316D01*
X008332Y004238D02*
X008622Y004238D01*
X008475Y004159D02*
X008332Y004159D01*
X008307Y004081D02*
X008396Y004081D01*
X008358Y004002D02*
X008248Y004002D01*
X008864Y004238D02*
X009083Y004238D01*
X009083Y004159D02*
X009011Y004159D01*
X009035Y003531D02*
X009083Y003531D01*
X009083Y003453D02*
X008922Y003453D01*
X008913Y003217D02*
X009083Y003217D01*
X009083Y003139D02*
X009031Y003139D01*
X009014Y002511D02*
X009083Y002511D01*
X009083Y002432D02*
X008872Y002432D01*
D14*
X006823Y004083D02*
X005433Y005473D01*
X005433Y007753D01*
X005313Y007873D01*
X005003Y007613D02*
X005003Y008333D01*
X004623Y008713D01*
X004323Y008603D02*
X004583Y008343D01*
X004323Y008603D02*
X004323Y008843D01*
X004503Y009023D01*
X007213Y009023D01*
X007393Y009203D01*
X007393Y010503D01*
X007988Y011098D01*
X006083Y008563D02*
X006083Y008183D01*
X006473Y007793D01*
X006473Y005423D01*
X006793Y005103D01*
X006453Y004033D02*
X005193Y005293D01*
X005193Y007423D01*
X005003Y007613D01*
X004133Y008363D02*
X002863Y009633D01*
X002863Y010223D01*
X002693Y010393D01*
X002343Y010393D01*
X002553Y010093D02*
X002553Y009492D01*
X003602Y008443D01*
M02*
