G75*
G70*
%OFA0B0*%
%FSLAX24Y24*%
%IPPOS*%
%LPD*%
%AMOC8*
5,1,8,0,0,1.08239X$1,22.5*
%
%ADD10R,0.0710X0.0631*%
%ADD11R,0.0552X0.0297*%
%ADD12C,0.0820*%
%ADD13R,0.0513X0.0828*%
%ADD14R,0.0356X0.0434*%
%ADD15R,0.0474X0.0789*%
%ADD16R,0.0328X0.0407*%
%ADD17R,0.0159X0.0474*%
%ADD18R,0.0474X0.0159*%
%ADD19R,0.0434X0.0356*%
%ADD20R,0.0300X0.0670*%
%ADD21R,0.0470X0.0198*%
D10*
X003743Y010089D03*
X003743Y011191D03*
X006743Y011191D03*
X006743Y010089D03*
D11*
X005755Y010266D03*
X005755Y011014D03*
X004731Y011014D03*
X004731Y010640D03*
X004731Y010266D03*
D12*
X001743Y000640D03*
X001743Y001640D03*
X001743Y002640D03*
X001743Y003640D03*
X001743Y004640D03*
X001743Y005640D03*
X001743Y006640D03*
X001743Y007640D03*
X001743Y008640D03*
X001743Y009640D03*
X001743Y010640D03*
X001743Y011640D03*
X008743Y011640D03*
X008743Y010640D03*
X008743Y009640D03*
X008743Y008640D03*
X008743Y007640D03*
X008743Y006640D03*
X008743Y005640D03*
X008743Y004640D03*
X008743Y003640D03*
X008743Y002640D03*
X008743Y001640D03*
X008743Y000640D03*
D13*
X004296Y002512D03*
X003390Y002512D03*
X003390Y003968D03*
X004296Y003968D03*
D14*
X004099Y004640D03*
X003587Y004640D03*
X004787Y003540D03*
X005299Y003540D03*
X004099Y001840D03*
X003587Y001840D03*
X007387Y007140D03*
X007899Y007140D03*
X007499Y012240D03*
X007499Y012740D03*
X006987Y012740D03*
X006987Y012240D03*
X004349Y012140D03*
X004349Y012640D03*
X003837Y012640D03*
X003837Y012140D03*
X002999Y011540D03*
X002487Y011540D03*
X002199Y012440D03*
X001687Y012440D03*
D15*
X004792Y011890D03*
X005894Y011890D03*
D16*
X005696Y012640D03*
X004790Y012640D03*
D17*
G36*
X005841Y009381D02*
X005953Y009269D01*
X005619Y008935D01*
X005507Y009047D01*
X005841Y009381D01*
G37*
G36*
X005980Y009242D02*
X006092Y009130D01*
X005758Y008796D01*
X005646Y008908D01*
X005980Y009242D01*
G37*
G36*
X006119Y009103D02*
X006231Y008991D01*
X005897Y008657D01*
X005785Y008769D01*
X006119Y009103D01*
G37*
G36*
X006259Y008964D02*
X006371Y008852D01*
X006037Y008518D01*
X005925Y008630D01*
X006259Y008964D01*
G37*
G36*
X006398Y008825D02*
X006510Y008713D01*
X006176Y008379D01*
X006064Y008491D01*
X006398Y008825D01*
G37*
G36*
X006537Y008685D02*
X006649Y008573D01*
X006315Y008239D01*
X006203Y008351D01*
X006537Y008685D01*
G37*
G36*
X006676Y008546D02*
X006788Y008434D01*
X006454Y008100D01*
X006342Y008212D01*
X006676Y008546D01*
G37*
G36*
X006815Y008407D02*
X006927Y008295D01*
X006593Y007961D01*
X006481Y008073D01*
X006815Y008407D01*
G37*
G36*
X006955Y008268D02*
X007067Y008156D01*
X006733Y007822D01*
X006621Y007934D01*
X006955Y008268D01*
G37*
G36*
X007094Y008129D02*
X007206Y008017D01*
X006872Y007683D01*
X006760Y007795D01*
X007094Y008129D01*
G37*
G36*
X007233Y007989D02*
X007345Y007877D01*
X007011Y007543D01*
X006899Y007655D01*
X007233Y007989D01*
G37*
G36*
X007372Y007850D02*
X007484Y007738D01*
X007150Y007404D01*
X007038Y007516D01*
X007372Y007850D01*
G37*
G36*
X004867Y005345D02*
X004979Y005233D01*
X004645Y004899D01*
X004533Y005011D01*
X004867Y005345D01*
G37*
G36*
X004727Y005484D02*
X004839Y005372D01*
X004505Y005038D01*
X004393Y005150D01*
X004727Y005484D01*
G37*
G36*
X004588Y005623D02*
X004700Y005511D01*
X004366Y005177D01*
X004254Y005289D01*
X004588Y005623D01*
G37*
G36*
X004449Y005762D02*
X004561Y005650D01*
X004227Y005316D01*
X004115Y005428D01*
X004449Y005762D01*
G37*
G36*
X004310Y005901D02*
X004422Y005789D01*
X004088Y005455D01*
X003976Y005567D01*
X004310Y005901D01*
G37*
G36*
X004171Y006041D02*
X004283Y005929D01*
X003949Y005595D01*
X003837Y005707D01*
X004171Y006041D01*
G37*
G36*
X004031Y006180D02*
X004143Y006068D01*
X003809Y005734D01*
X003697Y005846D01*
X004031Y006180D01*
G37*
G36*
X003892Y006319D02*
X004004Y006207D01*
X003670Y005873D01*
X003558Y005985D01*
X003892Y006319D01*
G37*
G36*
X003753Y006458D02*
X003865Y006346D01*
X003531Y006012D01*
X003419Y006124D01*
X003753Y006458D01*
G37*
G36*
X003614Y006597D02*
X003726Y006485D01*
X003392Y006151D01*
X003280Y006263D01*
X003614Y006597D01*
G37*
G36*
X003475Y006737D02*
X003587Y006625D01*
X003253Y006291D01*
X003141Y006403D01*
X003475Y006737D01*
G37*
G36*
X003335Y006876D02*
X003447Y006764D01*
X003113Y006430D01*
X003001Y006542D01*
X003335Y006876D01*
G37*
D18*
G36*
X003113Y007850D02*
X003447Y007516D01*
X003335Y007404D01*
X003001Y007738D01*
X003113Y007850D01*
G37*
G36*
X003253Y007989D02*
X003587Y007655D01*
X003475Y007543D01*
X003141Y007877D01*
X003253Y007989D01*
G37*
G36*
X003392Y008129D02*
X003726Y007795D01*
X003614Y007683D01*
X003280Y008017D01*
X003392Y008129D01*
G37*
G36*
X003531Y008268D02*
X003865Y007934D01*
X003753Y007822D01*
X003419Y008156D01*
X003531Y008268D01*
G37*
G36*
X003670Y008407D02*
X004004Y008073D01*
X003892Y007961D01*
X003558Y008295D01*
X003670Y008407D01*
G37*
G36*
X003809Y008546D02*
X004143Y008212D01*
X004031Y008100D01*
X003697Y008434D01*
X003809Y008546D01*
G37*
G36*
X003949Y008685D02*
X004283Y008351D01*
X004171Y008239D01*
X003837Y008573D01*
X003949Y008685D01*
G37*
G36*
X004088Y008825D02*
X004422Y008491D01*
X004310Y008379D01*
X003976Y008713D01*
X004088Y008825D01*
G37*
G36*
X004227Y008964D02*
X004561Y008630D01*
X004449Y008518D01*
X004115Y008852D01*
X004227Y008964D01*
G37*
G36*
X004366Y009103D02*
X004700Y008769D01*
X004588Y008657D01*
X004254Y008991D01*
X004366Y009103D01*
G37*
G36*
X004505Y009242D02*
X004839Y008908D01*
X004727Y008796D01*
X004393Y009130D01*
X004505Y009242D01*
G37*
G36*
X004645Y009381D02*
X004979Y009047D01*
X004867Y008935D01*
X004533Y009269D01*
X004645Y009381D01*
G37*
G36*
X006593Y006319D02*
X006927Y005985D01*
X006815Y005873D01*
X006481Y006207D01*
X006593Y006319D01*
G37*
G36*
X006733Y006458D02*
X007067Y006124D01*
X006955Y006012D01*
X006621Y006346D01*
X006733Y006458D01*
G37*
G36*
X006872Y006597D02*
X007206Y006263D01*
X007094Y006151D01*
X006760Y006485D01*
X006872Y006597D01*
G37*
G36*
X007011Y006737D02*
X007345Y006403D01*
X007233Y006291D01*
X006899Y006625D01*
X007011Y006737D01*
G37*
G36*
X007150Y006876D02*
X007484Y006542D01*
X007372Y006430D01*
X007038Y006764D01*
X007150Y006876D01*
G37*
G36*
X006454Y006180D02*
X006788Y005846D01*
X006676Y005734D01*
X006342Y006068D01*
X006454Y006180D01*
G37*
G36*
X006315Y006041D02*
X006649Y005707D01*
X006537Y005595D01*
X006203Y005929D01*
X006315Y006041D01*
G37*
G36*
X006176Y005901D02*
X006510Y005567D01*
X006398Y005455D01*
X006064Y005789D01*
X006176Y005901D01*
G37*
G36*
X006037Y005762D02*
X006371Y005428D01*
X006259Y005316D01*
X005925Y005650D01*
X006037Y005762D01*
G37*
G36*
X005897Y005623D02*
X006231Y005289D01*
X006119Y005177D01*
X005785Y005511D01*
X005897Y005623D01*
G37*
G36*
X005758Y005484D02*
X006092Y005150D01*
X005980Y005038D01*
X005646Y005372D01*
X005758Y005484D01*
G37*
G36*
X005619Y005345D02*
X005953Y005011D01*
X005841Y004899D01*
X005507Y005233D01*
X005619Y005345D01*
G37*
D19*
X005243Y004896D03*
X005243Y004384D03*
X005043Y002296D03*
X005043Y001784D03*
X005243Y009234D03*
X005243Y009746D03*
D20*
X005693Y004180D03*
X006193Y004180D03*
X006693Y004180D03*
X007193Y004180D03*
X007193Y001300D03*
X006693Y001300D03*
X006193Y001300D03*
X005693Y001300D03*
D21*
X003262Y012084D03*
X003262Y012340D03*
X003262Y012596D03*
X002628Y012596D03*
X002628Y012340D03*
X002628Y012084D03*
M02*
