G75*
G70*
%OFA0B0*%
%FSLAX24Y24*%
%IPPOS*%
%LPD*%
%AMOC8*
5,1,8,0,0,1.08239X$1,22.5*
%
%ADD10C,0.0080*%
%ADD11C,0.0000*%
D10*
X001243Y001205D02*
X002243Y000205D01*
X008243Y000205D01*
X009243Y001205D01*
X009243Y014205D01*
X001243Y014205D01*
X001243Y001205D01*
D11*
X004357Y012878D02*
X004359Y012899D01*
X004365Y012919D01*
X004374Y012939D01*
X004386Y012956D01*
X004401Y012970D01*
X004419Y012982D01*
X004439Y012990D01*
X004459Y012995D01*
X004480Y012996D01*
X004501Y012993D01*
X004521Y012987D01*
X004540Y012976D01*
X004557Y012963D01*
X004570Y012947D01*
X004581Y012929D01*
X004589Y012909D01*
X004593Y012889D01*
X004593Y012867D01*
X004589Y012847D01*
X004581Y012827D01*
X004570Y012809D01*
X004557Y012793D01*
X004540Y012780D01*
X004521Y012769D01*
X004501Y012763D01*
X004480Y012760D01*
X004459Y012761D01*
X004439Y012766D01*
X004419Y012774D01*
X004401Y012786D01*
X004386Y012800D01*
X004374Y012817D01*
X004365Y012837D01*
X004359Y012857D01*
X004357Y012878D01*
X004257Y013567D02*
X004257Y013843D01*
X004256Y013843D02*
X004255Y013860D01*
X004250Y013877D01*
X004243Y013892D01*
X004233Y013906D01*
X004221Y013918D01*
X004207Y013928D01*
X004192Y013935D01*
X004175Y013940D01*
X004158Y013941D01*
X004140Y013939D01*
X004123Y013935D01*
X004107Y013927D01*
X004092Y013917D01*
X004080Y013905D01*
X004070Y013890D01*
X004062Y013874D01*
X004058Y013857D01*
X004056Y013839D01*
X004056Y013571D01*
X004058Y013553D01*
X004062Y013536D01*
X004070Y013520D01*
X004080Y013505D01*
X004092Y013493D01*
X004107Y013483D01*
X004123Y013475D01*
X004140Y013471D01*
X004158Y013469D01*
X004175Y013470D01*
X004192Y013475D01*
X004207Y013482D01*
X004221Y013492D01*
X004233Y013504D01*
X004243Y013518D01*
X004250Y013533D01*
X004255Y013550D01*
X004256Y013567D01*
X005893Y012878D02*
X005895Y012899D01*
X005901Y012919D01*
X005910Y012939D01*
X005922Y012956D01*
X005937Y012970D01*
X005955Y012982D01*
X005975Y012990D01*
X005995Y012995D01*
X006016Y012996D01*
X006037Y012993D01*
X006057Y012987D01*
X006076Y012976D01*
X006093Y012963D01*
X006106Y012947D01*
X006117Y012929D01*
X006125Y012909D01*
X006129Y012889D01*
X006129Y012867D01*
X006125Y012847D01*
X006117Y012827D01*
X006106Y012809D01*
X006093Y012793D01*
X006076Y012780D01*
X006057Y012769D01*
X006037Y012763D01*
X006016Y012760D01*
X005995Y012761D01*
X005975Y012766D01*
X005955Y012774D01*
X005937Y012786D01*
X005922Y012800D01*
X005910Y012817D01*
X005901Y012837D01*
X005895Y012857D01*
X005893Y012878D01*
X006235Y013571D02*
X006235Y013839D01*
X006237Y013857D01*
X006241Y013874D01*
X006249Y013890D01*
X006259Y013905D01*
X006271Y013917D01*
X006286Y013927D01*
X006302Y013935D01*
X006319Y013939D01*
X006337Y013941D01*
X006354Y013940D01*
X006371Y013935D01*
X006386Y013928D01*
X006400Y013918D01*
X006412Y013906D01*
X006422Y013892D01*
X006429Y013877D01*
X006434Y013860D01*
X006435Y013843D01*
X006436Y013843D02*
X006436Y013567D01*
X006435Y013567D02*
X006434Y013550D01*
X006429Y013533D01*
X006422Y013518D01*
X006412Y013504D01*
X006400Y013492D01*
X006386Y013482D01*
X006371Y013475D01*
X006354Y013470D01*
X006337Y013469D01*
X006319Y013471D01*
X006302Y013475D01*
X006286Y013483D01*
X006271Y013493D01*
X006259Y013505D01*
X006249Y013520D01*
X006241Y013536D01*
X006237Y013553D01*
X006235Y013571D01*
M02*
