G75*
G70*
%OFA0B0*%
%FSLAX24Y24*%
%IPPOS*%
%LPD*%
%AMOC8*
5,1,8,0,0,1.08239X$1,22.5*
%
%ADD10C,0.0050*%
%ADD11C,0.0040*%
%ADD12C,0.0080*%
%ADD13C,0.0020*%
%ADD14C,0.0079*%
%ADD15R,0.0157X0.0157*%
%ADD16R,0.0157X0.0394*%
D10*
X002065Y001003D02*
X002065Y001130D01*
X002193Y001130D01*
X002320Y001003D01*
X002369Y001116D02*
X002369Y001370D01*
X002497Y001243D01*
X002497Y001179D01*
X002433Y001116D01*
X002369Y001116D01*
X002242Y001243D01*
X002242Y001307D01*
X002306Y001370D01*
X002369Y001370D01*
X002225Y001098D02*
X002097Y000971D01*
X002065Y001003D02*
X002193Y000875D01*
X002338Y002465D02*
X002248Y002555D01*
X002338Y002645D01*
X002518Y002645D01*
X002518Y002760D02*
X002518Y002940D01*
X002518Y002850D02*
X002248Y002850D01*
X002338Y002760D01*
X002383Y002645D02*
X002383Y002465D01*
X002338Y002465D02*
X002518Y002465D01*
X002518Y003465D02*
X002338Y003465D01*
X002248Y003555D01*
X002338Y003645D01*
X002518Y003645D01*
X002518Y003760D02*
X002338Y003940D01*
X002293Y003940D01*
X002248Y003895D01*
X002248Y003805D01*
X002293Y003760D01*
X002383Y003645D02*
X002383Y003465D01*
X002518Y003760D02*
X002518Y003940D01*
X002518Y004465D02*
X002338Y004465D01*
X002248Y004555D01*
X002338Y004645D01*
X002518Y004645D01*
X002473Y004760D02*
X002518Y004805D01*
X002518Y004895D01*
X002473Y004940D01*
X002428Y004940D01*
X002383Y004895D01*
X002383Y004850D01*
X002383Y004895D02*
X002338Y004940D01*
X002293Y004940D01*
X002248Y004895D01*
X002248Y004805D01*
X002293Y004760D01*
X002383Y004645D02*
X002383Y004465D01*
X002383Y005465D02*
X002383Y005645D01*
X002338Y005645D02*
X002518Y005645D01*
X002383Y005760D02*
X002383Y005940D01*
X002518Y005895D02*
X002248Y005895D01*
X002383Y005760D01*
X002338Y005645D02*
X002248Y005555D01*
X002338Y005465D01*
X002518Y005465D01*
X002518Y006465D02*
X002338Y006465D01*
X002248Y006555D01*
X002338Y006645D01*
X002518Y006645D01*
X002473Y006760D02*
X002518Y006805D01*
X002518Y006895D01*
X002473Y006940D01*
X002383Y006940D01*
X002338Y006895D01*
X002338Y006850D01*
X002383Y006760D01*
X002248Y006760D01*
X002248Y006940D01*
X002383Y006645D02*
X002383Y006465D01*
X002383Y007465D02*
X002383Y007645D01*
X002338Y007645D02*
X002518Y007645D01*
X002473Y007760D02*
X002383Y007760D01*
X002383Y007895D01*
X002428Y007940D01*
X002473Y007940D01*
X002518Y007895D01*
X002518Y007805D01*
X002473Y007760D01*
X002383Y007760D02*
X002293Y007850D01*
X002248Y007940D01*
X002338Y007645D02*
X002248Y007555D01*
X002338Y007465D01*
X002518Y007465D01*
X002518Y008465D02*
X002338Y008465D01*
X002248Y008555D01*
X002338Y008645D01*
X002518Y008645D01*
X002518Y008760D02*
X002473Y008760D01*
X002293Y008940D01*
X002248Y008940D01*
X002248Y008760D01*
X002383Y008645D02*
X002383Y008465D01*
X002428Y009465D02*
X002428Y009600D01*
X002383Y009645D01*
X002293Y009645D01*
X002248Y009600D01*
X002248Y009465D01*
X002518Y009465D01*
X002428Y009555D02*
X002518Y009645D01*
X002518Y009760D02*
X002248Y009940D01*
X002248Y009760D02*
X002518Y009940D01*
X002248Y010365D02*
X002248Y010545D01*
X002248Y010455D02*
X002518Y010455D01*
X002518Y010660D02*
X002248Y010840D01*
X002248Y010660D02*
X002518Y010840D01*
X002473Y011265D02*
X002293Y011265D01*
X002248Y011310D01*
X002248Y011400D01*
X002293Y011445D01*
X002383Y011445D02*
X002383Y011355D01*
X002383Y011445D02*
X002473Y011445D01*
X002518Y011400D01*
X002518Y011310D01*
X002473Y011265D01*
X002518Y011560D02*
X002248Y011560D01*
X002518Y011740D01*
X002248Y011740D01*
X002248Y011854D02*
X002248Y011989D01*
X002293Y012034D01*
X002473Y012034D01*
X002518Y011989D01*
X002518Y011854D01*
X002248Y011854D01*
X002248Y012265D02*
X002248Y012400D01*
X002293Y012445D01*
X002383Y012445D01*
X002428Y012400D01*
X002428Y012265D01*
X002518Y012265D02*
X002248Y012265D01*
X002428Y012355D02*
X002518Y012445D01*
X002518Y012560D02*
X002338Y012560D01*
X002248Y012650D01*
X002338Y012740D01*
X002518Y012740D01*
X002518Y012854D02*
X002428Y012944D01*
X002518Y013034D01*
X002248Y013034D01*
X002248Y012854D02*
X002518Y012854D01*
X002383Y012740D02*
X002383Y012560D01*
X002868Y010235D02*
X003003Y010235D01*
X003048Y010190D01*
X003048Y010145D01*
X003003Y010100D01*
X002868Y010100D01*
X003003Y010100D02*
X003048Y010055D01*
X003048Y010010D01*
X003003Y009965D01*
X002868Y009965D01*
X002868Y010235D01*
X003162Y010235D02*
X003343Y010235D01*
X003253Y010235D02*
X003253Y009965D01*
X003457Y009965D02*
X003457Y010235D01*
X003637Y009965D01*
X003637Y010235D01*
X004414Y010234D02*
X004594Y010234D01*
X004504Y010234D02*
X004504Y010504D01*
X004414Y010414D01*
X006868Y010235D02*
X006868Y009965D01*
X006868Y010055D02*
X007003Y010055D01*
X007048Y010100D01*
X007048Y010190D01*
X007003Y010235D01*
X006868Y010235D01*
X006958Y010055D02*
X007048Y009965D01*
X007162Y010010D02*
X007207Y009965D01*
X007298Y009965D01*
X007343Y010010D01*
X007343Y010055D01*
X007298Y010100D01*
X007207Y010100D01*
X007162Y010145D01*
X007162Y010190D01*
X007207Y010235D01*
X007298Y010235D01*
X007343Y010190D01*
X007457Y010235D02*
X007637Y010235D01*
X007547Y010235D02*
X007547Y009965D01*
X007968Y009970D02*
X007968Y009880D01*
X008013Y009835D01*
X008103Y009835D01*
X008103Y009925D01*
X008193Y010015D02*
X008013Y010015D01*
X007968Y009970D01*
X007968Y009720D02*
X008238Y009720D01*
X007968Y009540D01*
X008238Y009540D01*
X008238Y009426D02*
X008238Y009291D01*
X008193Y009246D01*
X008013Y009246D01*
X007968Y009291D01*
X007968Y009426D01*
X008238Y009426D01*
X008193Y009835D02*
X008238Y009880D01*
X008238Y009970D01*
X008193Y010015D01*
X008238Y008915D02*
X007968Y008915D01*
X007968Y008780D01*
X008013Y008735D01*
X008193Y008735D01*
X008238Y008780D01*
X008238Y008915D01*
X008238Y008620D02*
X008238Y008440D01*
X008193Y008440D01*
X008013Y008620D01*
X007968Y008620D01*
X007968Y007915D02*
X007968Y007780D01*
X008013Y007735D01*
X008193Y007735D01*
X008238Y007780D01*
X008238Y007915D01*
X007968Y007915D01*
X008013Y007620D02*
X007968Y007575D01*
X007968Y007485D01*
X008013Y007440D01*
X008058Y007440D01*
X008103Y007485D01*
X008103Y007620D01*
X008013Y007620D01*
X008103Y007620D02*
X008193Y007530D01*
X008238Y007440D01*
X008238Y006915D02*
X007968Y006915D01*
X007968Y006780D01*
X008013Y006735D01*
X008193Y006735D01*
X008238Y006780D01*
X008238Y006915D01*
X008238Y006620D02*
X008103Y006620D01*
X008148Y006530D01*
X008148Y006485D01*
X008103Y006440D01*
X008013Y006440D01*
X007968Y006485D01*
X007968Y006575D01*
X008013Y006620D01*
X008238Y006620D02*
X008238Y006440D01*
X008238Y005915D02*
X007968Y005915D01*
X007968Y005780D01*
X008013Y005735D01*
X008193Y005735D01*
X008238Y005780D01*
X008238Y005915D01*
X008103Y005620D02*
X008103Y005440D01*
X008238Y005485D02*
X008103Y005620D01*
X007968Y005485D02*
X008238Y005485D01*
X008238Y004915D02*
X007968Y004915D01*
X007968Y004780D01*
X008013Y004735D01*
X008193Y004735D01*
X008238Y004780D01*
X008238Y004915D01*
X008193Y004620D02*
X008238Y004575D01*
X008238Y004485D01*
X008193Y004440D01*
X008148Y004440D01*
X008103Y004485D01*
X008058Y004440D01*
X008013Y004440D01*
X007968Y004485D01*
X007968Y004575D01*
X008013Y004620D01*
X008103Y004530D02*
X008103Y004485D01*
X008238Y003915D02*
X007968Y003915D01*
X007968Y003780D01*
X008013Y003735D01*
X008193Y003735D01*
X008238Y003780D01*
X008238Y003915D01*
X008193Y003620D02*
X008238Y003575D01*
X008238Y003485D01*
X008193Y003440D01*
X008148Y003440D01*
X007968Y003620D01*
X007968Y003440D01*
X007968Y002815D02*
X007968Y002680D01*
X008013Y002635D01*
X008193Y002635D01*
X008238Y002680D01*
X008238Y002815D01*
X007968Y002815D01*
X007968Y002520D02*
X007968Y002340D01*
X007968Y002430D02*
X008238Y002430D01*
X008148Y002520D01*
X008238Y001915D02*
X007968Y001915D01*
X007968Y001780D01*
X008013Y001735D01*
X008193Y001735D01*
X008238Y001780D01*
X008238Y001915D01*
X008193Y001620D02*
X008013Y001620D01*
X008193Y001440D01*
X008013Y001440D01*
X007968Y001485D01*
X007968Y001575D01*
X008013Y001620D01*
X008193Y001620D02*
X008238Y001575D01*
X008238Y001485D01*
X008193Y001440D01*
X008238Y011246D02*
X008238Y011426D01*
X008238Y011336D02*
X007968Y011336D01*
X008013Y011540D02*
X007968Y011585D01*
X007968Y011675D01*
X008013Y011720D01*
X008103Y011675D02*
X008103Y011585D01*
X008058Y011540D01*
X008013Y011540D01*
X008103Y011675D02*
X008148Y011720D01*
X008193Y011720D01*
X008238Y011675D01*
X008238Y011585D01*
X008193Y011540D01*
X008193Y011835D02*
X008103Y011835D01*
X008058Y011880D01*
X008058Y012015D01*
X008058Y011925D02*
X007968Y011835D01*
X007968Y012015D02*
X008238Y012015D01*
X008238Y011880D01*
X008193Y011835D01*
X008193Y012246D02*
X008238Y012291D01*
X008238Y012381D01*
X008193Y012426D01*
X008013Y012426D01*
X007968Y012381D01*
X007968Y012291D01*
X008013Y012246D01*
X008013Y012540D02*
X007968Y012585D01*
X007968Y012675D01*
X008013Y012720D01*
X008193Y012720D01*
X008238Y012675D01*
X008238Y012585D01*
X008193Y012540D01*
X008238Y012835D02*
X008058Y012835D01*
X007968Y012925D01*
X008058Y013015D01*
X008238Y013015D01*
D11*
X008163Y011020D02*
X008030Y011020D01*
X007963Y010953D01*
X008030Y010887D01*
X008163Y010887D01*
X008163Y010799D02*
X008163Y010699D01*
X008130Y010666D01*
X007996Y010666D01*
X007963Y010699D01*
X007963Y010799D01*
X008163Y010799D01*
X008163Y010578D02*
X008163Y010478D01*
X008130Y010445D01*
X007996Y010445D01*
X007963Y010478D01*
X007963Y010578D01*
X008163Y010578D01*
X008096Y010357D02*
X008163Y010290D01*
X008096Y010224D01*
X007963Y010224D01*
X008063Y010224D02*
X008063Y010357D01*
X008096Y010357D02*
X007963Y010357D01*
X003174Y001840D02*
X003176Y001856D01*
X003181Y001871D01*
X003190Y001884D01*
X003202Y001895D01*
X003216Y001903D01*
X003231Y001908D01*
X003247Y001909D01*
X003263Y001906D01*
X003277Y001900D01*
X003290Y001890D01*
X003301Y001878D01*
X003308Y001864D01*
X003312Y001848D01*
X003312Y001832D01*
X003308Y001816D01*
X003301Y001802D01*
X003290Y001790D01*
X003278Y001780D01*
X003263Y001774D01*
X003247Y001771D01*
X003231Y001772D01*
X003216Y001777D01*
X003202Y001785D01*
X003190Y001796D01*
X003181Y001809D01*
X003176Y001824D01*
X003174Y001840D01*
X002967Y001840D02*
X002969Y001873D01*
X002975Y001905D01*
X002984Y001936D01*
X002997Y001966D01*
X003014Y001994D01*
X003034Y002020D01*
X003057Y002044D01*
X003082Y002064D01*
X003110Y002082D01*
X003139Y002096D01*
X003170Y002106D01*
X003202Y002113D01*
X003235Y002116D01*
X003268Y002115D01*
X003300Y002110D01*
X003331Y002101D01*
X003362Y002089D01*
X003390Y002073D01*
X003417Y002054D01*
X003441Y002032D01*
X003462Y002007D01*
X003481Y001980D01*
X003496Y001951D01*
X003507Y001921D01*
X003515Y001889D01*
X003519Y001856D01*
X003519Y001824D01*
X003515Y001791D01*
X003507Y001759D01*
X003496Y001729D01*
X003481Y001700D01*
X003462Y001673D01*
X003441Y001648D01*
X003417Y001626D01*
X003390Y001607D01*
X003362Y001591D01*
X003331Y001579D01*
X003300Y001570D01*
X003268Y001565D01*
X003235Y001564D01*
X003202Y001567D01*
X003170Y001574D01*
X003139Y001584D01*
X003110Y001598D01*
X003082Y001616D01*
X003057Y001636D01*
X003034Y001660D01*
X003014Y001686D01*
X002997Y001714D01*
X002984Y001744D01*
X002975Y001775D01*
X002969Y001807D01*
X002967Y001840D01*
D12*
X001243Y001890D02*
X001243Y001390D01*
X001493Y001140D01*
X001993Y001140D01*
X002243Y001390D01*
X002243Y001890D01*
X001993Y002140D01*
X002243Y002390D01*
X002243Y002890D01*
X001993Y003140D01*
X002243Y003390D01*
X002243Y003890D01*
X001993Y004140D01*
X002243Y004390D01*
X002243Y004890D01*
X001993Y005140D01*
X002243Y005390D01*
X002243Y005890D01*
X001993Y006140D01*
X002243Y006390D01*
X002243Y006890D01*
X001993Y007140D01*
X002243Y007390D01*
X002243Y007890D01*
X001993Y008140D01*
X002243Y008390D01*
X002243Y008890D01*
X001993Y009140D01*
X002243Y009390D01*
X002243Y009890D01*
X001993Y010140D01*
X002243Y010390D01*
X002243Y010890D01*
X001993Y011140D01*
X002243Y011390D01*
X002243Y011890D01*
X001993Y012140D01*
X002243Y012390D01*
X002243Y012890D01*
X001993Y013140D01*
X001493Y013140D01*
X001243Y012890D01*
X001243Y012390D01*
X001493Y012140D01*
X001243Y011890D01*
X001243Y011390D01*
X001493Y011140D01*
X001243Y010890D01*
X001243Y010390D01*
X001493Y010140D01*
X001243Y009890D01*
X001243Y009390D01*
X001493Y009140D01*
X001243Y008890D01*
X001243Y008390D01*
X001493Y008140D01*
X001243Y007890D01*
X001243Y007390D01*
X001493Y007140D01*
X001243Y006890D01*
X001243Y006390D01*
X001493Y006140D01*
X001243Y005890D01*
X001243Y005390D01*
X001493Y005140D01*
X001243Y004890D01*
X001243Y004390D01*
X001493Y004140D01*
X001243Y003890D01*
X001243Y003390D01*
X001493Y003140D01*
X001243Y002890D01*
X001243Y002390D01*
X001493Y002140D01*
X001243Y001890D01*
X003046Y001368D02*
X003440Y001368D01*
X003762Y000737D02*
X006124Y000737D01*
X006124Y000343D02*
X003762Y000343D01*
X006063Y002260D02*
X006143Y002260D01*
X006303Y002080D02*
X006303Y002000D01*
X006583Y002000D02*
X006583Y002080D01*
X006143Y002540D02*
X006063Y002540D01*
X006903Y001400D02*
X006903Y001320D01*
X007183Y001320D02*
X007183Y001400D01*
X007503Y002000D02*
X007503Y002080D01*
X007783Y002080D02*
X007783Y002000D01*
X008243Y001890D02*
X008243Y001390D01*
X008493Y001140D01*
X008993Y001140D01*
X009243Y001390D01*
X009243Y001890D01*
X008993Y002140D01*
X009243Y002390D01*
X009243Y002890D01*
X008993Y003140D01*
X009243Y003390D01*
X009243Y003890D01*
X008993Y004140D01*
X009243Y004390D01*
X009243Y004890D01*
X008993Y005140D01*
X009243Y005390D01*
X009243Y005890D01*
X008993Y006140D01*
X009243Y006390D01*
X009243Y006890D01*
X008993Y007140D01*
X009243Y007390D01*
X009243Y007890D01*
X008993Y008140D01*
X009243Y008390D01*
X009243Y008890D01*
X008993Y009140D01*
X009243Y009390D01*
X009243Y009890D01*
X008993Y010140D01*
X009243Y010390D01*
X009243Y010890D01*
X008993Y011140D01*
X009243Y011390D01*
X009243Y011890D01*
X008993Y012140D01*
X009243Y012390D01*
X009243Y012890D01*
X008993Y013140D01*
X008493Y013140D01*
X008243Y012890D01*
X008243Y012390D01*
X008493Y012140D01*
X008243Y011890D01*
X008243Y011390D01*
X008493Y011140D01*
X008243Y010890D01*
X008243Y010390D01*
X008493Y010140D01*
X008243Y009890D01*
X008243Y009390D01*
X008493Y009140D01*
X008243Y008890D01*
X008243Y008390D01*
X008493Y008140D01*
X008243Y007890D01*
X008243Y007390D01*
X008493Y007140D01*
X008243Y006890D01*
X008243Y006390D01*
X008493Y006140D01*
X008243Y005890D01*
X008243Y005390D01*
X008493Y005140D01*
X008243Y004890D01*
X008243Y004390D01*
X008493Y004140D01*
X008243Y003890D01*
X008243Y003390D01*
X008493Y003140D01*
X008243Y002890D01*
X008243Y002390D01*
X008493Y002140D01*
X008243Y001890D01*
X007021Y004010D02*
X007023Y004029D01*
X007028Y004046D01*
X007037Y004063D01*
X007050Y004077D01*
X007064Y004088D01*
X007081Y004096D01*
X007099Y004101D01*
X007118Y004102D01*
X007136Y004099D01*
X007154Y004093D01*
X007169Y004083D01*
X007183Y004070D01*
X007193Y004055D01*
X007201Y004038D01*
X007205Y004019D01*
X007205Y004001D01*
X007201Y003982D01*
X007193Y003965D01*
X007183Y003950D01*
X007169Y003937D01*
X007154Y003927D01*
X007136Y003921D01*
X007118Y003918D01*
X007099Y003919D01*
X007081Y003924D01*
X007064Y003932D01*
X007050Y003943D01*
X007037Y003957D01*
X007028Y003974D01*
X007023Y003991D01*
X007021Y004010D01*
X006933Y009550D02*
X006853Y009550D01*
X006853Y009830D02*
X006933Y009830D01*
X006435Y011680D02*
X006435Y011800D01*
X006151Y011800D02*
X006151Y011680D01*
X006109Y012557D02*
X006109Y013109D01*
X004377Y013109D01*
X004377Y012557D01*
X003904Y012557D01*
X003904Y013187D01*
X003904Y014250D02*
X006581Y014250D01*
X006581Y013187D02*
X006581Y012557D01*
X006109Y012557D01*
X007512Y013357D02*
X007693Y013357D01*
X007785Y013235D01*
X007874Y013357D02*
X007693Y013357D01*
X007683Y013351D02*
X007607Y013235D01*
X005303Y009832D02*
X005183Y009832D01*
X005183Y009548D02*
X005303Y009548D01*
X004335Y011680D02*
X004335Y011800D01*
X004051Y011800D02*
X004051Y011680D01*
X003153Y012668D02*
X003033Y012668D01*
X003033Y012952D02*
X003153Y012952D01*
X002347Y013434D02*
X001796Y013434D01*
X001796Y013946D01*
X002347Y013946D01*
X001796Y013946D02*
X001638Y013946D01*
X001638Y013434D02*
X001796Y013434D01*
X003553Y009830D02*
X003633Y009830D01*
X003633Y009550D02*
X003553Y009550D01*
D13*
X002585Y009337D02*
X002585Y002920D01*
X007900Y002920D01*
X007900Y009337D01*
X002585Y009337D01*
D14*
X003164Y010581D02*
X003322Y010581D01*
X003833Y010896D02*
X003833Y011684D01*
X003322Y011999D02*
X003164Y011999D01*
X002899Y011290D02*
X002901Y011327D01*
X002907Y011363D01*
X002916Y011398D01*
X002930Y011432D01*
X002947Y011465D01*
X002967Y011495D01*
X002990Y011523D01*
X003016Y011549D01*
X003045Y011571D01*
X003076Y011591D01*
X003109Y011607D01*
X003144Y011619D01*
X003179Y011628D01*
X003216Y011633D01*
X003252Y011634D01*
X003289Y011631D01*
X003325Y011624D01*
X003360Y011614D01*
X003393Y011599D01*
X003425Y011582D01*
X003455Y011561D01*
X003483Y011536D01*
X003508Y011510D01*
X003530Y011480D01*
X003548Y011449D01*
X003563Y011415D01*
X003575Y011381D01*
X003583Y011345D01*
X003587Y011308D01*
X003587Y011272D01*
X003583Y011235D01*
X003575Y011199D01*
X003563Y011165D01*
X003548Y011131D01*
X003530Y011100D01*
X003508Y011070D01*
X003483Y011044D01*
X003455Y011019D01*
X003425Y010998D01*
X003393Y010981D01*
X003360Y010966D01*
X003325Y010956D01*
X003289Y010949D01*
X003252Y010946D01*
X003216Y010947D01*
X003179Y010952D01*
X003144Y010961D01*
X003109Y010973D01*
X003076Y010989D01*
X003045Y011009D01*
X003016Y011031D01*
X002990Y011057D01*
X002967Y011085D01*
X002947Y011115D01*
X002930Y011148D01*
X002916Y011182D01*
X002907Y011217D01*
X002901Y011253D01*
X002899Y011290D01*
X002652Y011644D02*
X002652Y010896D01*
X006652Y010896D02*
X006652Y011644D01*
X007164Y011999D02*
X007322Y011999D01*
X006899Y011290D02*
X006901Y011327D01*
X006907Y011363D01*
X006916Y011398D01*
X006930Y011432D01*
X006947Y011465D01*
X006967Y011495D01*
X006990Y011523D01*
X007016Y011549D01*
X007045Y011571D01*
X007076Y011591D01*
X007109Y011607D01*
X007144Y011619D01*
X007179Y011628D01*
X007216Y011633D01*
X007252Y011634D01*
X007289Y011631D01*
X007325Y011624D01*
X007360Y011614D01*
X007393Y011599D01*
X007425Y011582D01*
X007455Y011561D01*
X007483Y011536D01*
X007508Y011510D01*
X007530Y011480D01*
X007548Y011449D01*
X007563Y011415D01*
X007575Y011381D01*
X007583Y011345D01*
X007587Y011308D01*
X007587Y011272D01*
X007583Y011235D01*
X007575Y011199D01*
X007563Y011165D01*
X007548Y011131D01*
X007530Y011100D01*
X007508Y011070D01*
X007483Y011044D01*
X007455Y011019D01*
X007425Y010998D01*
X007393Y010981D01*
X007360Y010966D01*
X007325Y010956D01*
X007289Y010949D01*
X007252Y010946D01*
X007216Y010947D01*
X007179Y010952D01*
X007144Y010961D01*
X007109Y010973D01*
X007076Y010989D01*
X007045Y011009D01*
X007016Y011031D01*
X006990Y011057D01*
X006967Y011085D01*
X006947Y011115D01*
X006930Y011148D01*
X006916Y011182D01*
X006907Y011217D01*
X006901Y011253D01*
X006899Y011290D01*
X007164Y010581D02*
X007322Y010581D01*
X007833Y010896D02*
X007833Y011684D01*
D15*
X005361Y011058D03*
X005361Y010822D03*
X005125Y010822D03*
D16*
X005927Y000540D03*
M02*
