G75*
G70*
%OFA0B0*%
%FSLAX24Y24*%
%IPPOS*%
%LPD*%
%AMOC8*
5,1,8,0,0,1.08239X$1,22.5*
%
%ADD10C,0.0080*%
%ADD11C,0.0050*%
%ADD12C,0.0100*%
%ADD13C,0.0060*%
%ADD14C,0.0030*%
D10*
X001243Y000400D02*
X001493Y000150D01*
X001993Y000150D01*
X002243Y000400D01*
X002243Y000900D01*
X001993Y001150D01*
X002243Y001400D01*
X002243Y001900D01*
X001993Y002150D01*
X002243Y002400D01*
X002243Y002900D01*
X001993Y003150D01*
X002243Y003400D01*
X002243Y003900D01*
X001993Y004150D01*
X002243Y004400D01*
X002243Y004900D01*
X001993Y005150D01*
X002243Y005400D01*
X002243Y005900D01*
X001993Y006150D01*
X002243Y006400D01*
X002243Y006900D01*
X001993Y007150D01*
X002243Y007400D01*
X002243Y007900D01*
X001993Y008150D01*
X002243Y008400D01*
X002243Y008900D01*
X001993Y009150D01*
X002243Y009400D01*
X002243Y009900D01*
X001993Y010150D01*
X002243Y010400D01*
X002243Y010900D01*
X001993Y011150D01*
X002243Y011400D01*
X002243Y011900D01*
X001993Y012150D01*
X001493Y012150D01*
X001243Y011900D01*
X001243Y011400D01*
X001493Y011150D01*
X001243Y010900D01*
X001243Y010400D01*
X001493Y010150D01*
X001243Y009900D01*
X001243Y009400D01*
X001493Y009150D01*
X001243Y008900D01*
X001243Y008400D01*
X001493Y008150D01*
X001243Y007900D01*
X001243Y007400D01*
X001493Y007150D01*
X001243Y006900D01*
X001243Y006400D01*
X001493Y006150D01*
X001243Y005900D01*
X001243Y005400D01*
X001493Y005150D01*
X001243Y004900D01*
X001243Y004400D01*
X001493Y004150D01*
X001243Y003900D01*
X001243Y003400D01*
X001493Y003150D01*
X001243Y002900D01*
X001243Y002400D01*
X001493Y002150D01*
X001243Y001900D01*
X001243Y001400D01*
X001493Y001150D01*
X001243Y000900D01*
X001243Y000400D01*
X003213Y002864D02*
X003213Y003336D01*
X003725Y004084D02*
X003961Y004084D01*
X004473Y003336D02*
X004473Y002864D01*
X003961Y002116D02*
X003725Y002116D01*
X008243Y001900D02*
X008243Y001400D01*
X008493Y001150D01*
X008243Y000900D01*
X008243Y000400D01*
X008493Y000150D01*
X008993Y000150D01*
X009243Y000400D01*
X009243Y000900D01*
X008993Y001150D01*
X009243Y001400D01*
X009243Y001900D01*
X008993Y002150D01*
X009243Y002400D01*
X009243Y002900D01*
X008993Y003150D01*
X009243Y003400D01*
X009243Y003900D01*
X008993Y004150D01*
X009243Y004400D01*
X009243Y004900D01*
X008993Y005150D01*
X009243Y005400D01*
X009243Y005900D01*
X008993Y006150D01*
X009243Y006400D01*
X009243Y006900D01*
X008993Y007150D01*
X009243Y007400D01*
X009243Y007900D01*
X008993Y008150D01*
X009243Y008400D01*
X009243Y008900D01*
X008993Y009150D01*
X009243Y009400D01*
X009243Y009900D01*
X008993Y010150D01*
X009243Y010400D01*
X009243Y010900D01*
X008993Y011150D01*
X009243Y011400D01*
X009243Y011900D01*
X008993Y012150D01*
X008493Y012150D01*
X008243Y011900D01*
X008243Y011400D01*
X008493Y011150D01*
X008243Y010900D01*
X008243Y010400D01*
X008493Y010150D01*
X008243Y009900D01*
X008243Y009400D01*
X008493Y009150D01*
X008243Y008900D01*
X008243Y008400D01*
X008493Y008150D01*
X008243Y007900D01*
X008243Y007400D01*
X008493Y007150D01*
X008243Y006900D01*
X008243Y006400D01*
X008493Y006150D01*
X008243Y005900D01*
X008243Y005400D01*
X008493Y005150D01*
X008243Y004900D01*
X008243Y004400D01*
X008493Y004150D01*
X008243Y003900D01*
X008243Y003400D01*
X008493Y003150D01*
X008243Y002900D01*
X008243Y002400D01*
X008493Y002150D01*
X008243Y001900D01*
X007215Y009666D02*
X006270Y009666D01*
X006270Y010256D01*
X006270Y011044D02*
X006270Y011477D01*
X006428Y011634D01*
X007058Y011634D01*
X007215Y011477D01*
X007215Y011044D01*
X007215Y010256D02*
X007215Y009666D01*
X005562Y010544D02*
X005562Y010756D01*
X005412Y011210D02*
X005074Y011210D01*
X005093Y011600D02*
X005593Y011600D01*
X005593Y012200D02*
X005093Y012200D01*
X005046Y012444D02*
X004888Y012444D01*
X005046Y012444D02*
X005046Y012956D01*
X005597Y012956D01*
X005597Y012444D02*
X005046Y012444D01*
X005046Y012956D02*
X004888Y012956D01*
X004058Y011634D02*
X004215Y011477D01*
X004215Y011044D01*
X004058Y011634D02*
X003428Y011634D01*
X003270Y011477D01*
X003270Y011044D01*
X003270Y010256D02*
X003270Y009666D01*
X004215Y009666D01*
X004215Y010256D01*
X005074Y010090D02*
X005412Y010090D01*
X006459Y012078D02*
X007049Y012078D01*
X006459Y012078D02*
X006459Y013022D01*
X007049Y013022D01*
X007837Y013022D02*
X008270Y013022D01*
X008427Y012865D01*
X008427Y012235D01*
X008270Y012078D01*
X007837Y012078D01*
X003008Y011928D02*
X002378Y011928D01*
X002361Y011770D02*
X002363Y011784D01*
X002369Y011798D01*
X002377Y011810D01*
X002389Y011818D01*
X002403Y011824D01*
X002417Y011826D01*
X002431Y011824D01*
X002445Y011818D01*
X002457Y011810D01*
X002465Y011798D01*
X002471Y011784D01*
X002473Y011770D01*
X002471Y011756D01*
X002465Y011742D01*
X002457Y011730D01*
X002445Y011722D01*
X002431Y011716D01*
X002417Y011714D01*
X002403Y011716D01*
X002389Y011722D01*
X002377Y011730D01*
X002369Y011742D01*
X002363Y011756D01*
X002361Y011770D01*
X002378Y012872D02*
X003008Y012872D01*
D11*
X002417Y011809D02*
X002378Y011809D01*
X002417Y011809D02*
X002417Y011770D01*
X003343Y010800D02*
X004143Y010800D01*
X006343Y010800D02*
X007143Y010800D01*
X007593Y012150D02*
X007593Y012950D01*
D12*
X005319Y008953D02*
X005166Y008953D01*
X003440Y007227D01*
X003440Y007073D01*
X005166Y005347D01*
X005319Y005347D01*
X007045Y007073D01*
X007045Y007227D01*
X005319Y008953D01*
X005007Y006036D02*
X005009Y006066D01*
X005015Y006096D01*
X005024Y006125D01*
X005037Y006152D01*
X005054Y006177D01*
X005073Y006200D01*
X005096Y006221D01*
X005121Y006238D01*
X005147Y006252D01*
X005176Y006262D01*
X005205Y006269D01*
X005235Y006272D01*
X005266Y006271D01*
X005296Y006266D01*
X005325Y006257D01*
X005352Y006245D01*
X005378Y006230D01*
X005402Y006211D01*
X005423Y006189D01*
X005441Y006165D01*
X005456Y006138D01*
X005467Y006110D01*
X005475Y006081D01*
X005479Y006051D01*
X005479Y006021D01*
X005475Y005991D01*
X005467Y005962D01*
X005456Y005934D01*
X005441Y005907D01*
X005423Y005883D01*
X005402Y005861D01*
X005378Y005842D01*
X005352Y005827D01*
X005325Y005815D01*
X005296Y005806D01*
X005266Y005801D01*
X005235Y005800D01*
X005205Y005803D01*
X005176Y005810D01*
X005147Y005820D01*
X005121Y005834D01*
X005096Y005851D01*
X005073Y005872D01*
X005054Y005895D01*
X005037Y005920D01*
X005024Y005947D01*
X005015Y005976D01*
X005009Y006006D01*
X005007Y006036D01*
D13*
X005383Y003810D02*
X005483Y003810D01*
X005383Y003810D02*
X005383Y002870D01*
X005383Y002630D01*
X005383Y001690D01*
X005483Y001690D01*
X005903Y001690D02*
X005983Y001690D01*
X006403Y001690D02*
X006483Y001690D01*
X006903Y001690D02*
X006983Y001690D01*
X007403Y001690D02*
X007503Y001690D01*
X007503Y003810D01*
X007403Y003810D01*
X006983Y003810D02*
X006903Y003810D01*
X006483Y003810D02*
X006403Y003810D01*
X005983Y003810D02*
X005903Y003810D01*
X005383Y002870D02*
X005404Y002868D01*
X005424Y002863D01*
X005443Y002854D01*
X005460Y002842D01*
X005475Y002827D01*
X005487Y002810D01*
X005496Y002791D01*
X005501Y002771D01*
X005503Y002750D01*
X005501Y002729D01*
X005496Y002709D01*
X005487Y002690D01*
X005475Y002673D01*
X005460Y002658D01*
X005443Y002646D01*
X005424Y002637D01*
X005404Y002632D01*
X005383Y002630D01*
D14*
X005429Y004181D02*
X005116Y004495D01*
X005116Y004338D02*
X005429Y004338D01*
X005429Y004495D02*
X005116Y004181D01*
X005273Y004181D02*
X005273Y004495D01*
M02*
