%
M48
M72
T01C0.0118
T02C0.0400
%
T01
X2443Y1840
X4443Y1790
X4793Y2790
X5093Y3090
X5393Y2790
X5093Y3990
X4593Y4540
X4993Y5740
X4593Y5940
X4643Y6740
X5143Y7190
X5393Y7490
X5683Y8410
X6293Y9190
X5843Y9540
X4793Y9740
X4243Y10740
X3493Y11740
X2193Y12040
X1993Y12340
X2743Y9140
X3243Y9140
X3743Y9140
X4093Y9090
X4543Y7990
X4793Y8410
X4543Y7440
X3893Y7290
X3643Y4940
X5843Y5890
X6243Y6440
X6843Y7340
X7043Y7040
X6443Y7490
X7193Y8390
X7843Y8390
X7293Y9340
X6993Y9540
X7493Y9740
X7893Y9490
X7993Y11790
X7443Y12440
X6943Y11940
X6143Y12440
X5443Y12140
X8293Y7140
X6843Y4740
X6343Y5090
X6943Y3190
X7093Y2790
X6193Y3090
X7943Y1690
X7943Y1190
T02
X1743Y640
X1743Y1640
X1743Y2640
X1743Y3640
X1743Y4640
X1743Y5640
X1743Y6640
X1743Y7640
X1743Y8640
X1743Y9640
X1743Y10640
X1743Y11640
X8743Y11640
X8743Y10640
X8743Y9640
X8743Y8640
X8743Y7640
X8743Y6640
X8743Y5640
X8743Y4640
X8743Y3640
X8743Y2640
X8743Y1640
X8743Y640
M30
