%
M48
M72
T01C0.0118
T02C0.0197
T03C0.0236
T04C0.0350
%
T01
X2543Y2815
X3243Y1605
X4243Y1605
X4243Y1955
X4993Y1955
X4993Y1605
X5643Y1605
X5643Y1955
X6083Y3815
X6433Y3925
X6923Y3855
X7083Y4535
X7063Y5025
X6993Y5975
X5973Y5365
X5063Y4425
X5043Y6905
X5083Y7385
X5143Y7895
X5233Y8405
X5563Y8295
X6083Y8605
X6433Y8195
X6663Y8625
X6793Y8305
X7093Y8105
X7673Y9645
X8013Y9755
X8093Y11185
X7803Y11585
X7963Y11885
X7953Y12425
X7673Y13345
X6853Y12815
X6443Y13005
X6773Y11215
X6593Y10695
X6443Y10195
X6073Y10585
X7153Y11295
X8243Y8205
X5943Y7025
X5443Y6905
X4753Y8415
X4273Y8405
X3663Y7885
X3492Y8395
X2493Y8125
X2443Y9775
X2713Y9985
X2343Y10265
X2343Y10735
X2343Y12455
X2343Y12845
X1603Y13325
X3693Y13255
X3893Y12585
X3903Y10785
X4273Y10805
X4473Y10605
X3841Y10203
X8073Y4065
X7143Y2005
X7143Y1105
X7143Y505
X8093Y505
X8593Y955
T02
X6335Y13705
X4150Y13705
T03
X4475Y12878
X6011Y12878
T04
X1743Y1705
X1743Y2705
X1743Y3705
X1743Y4705
X1743Y5705
X1743Y6705
X1743Y7705
X1743Y8705
X1743Y9705
X1743Y10705
X1743Y11705
X1743Y12705
X8743Y12705
X8743Y11705
X8743Y10705
X8743Y9705
X8743Y8705
X8743Y7705
X8743Y6705
X8743Y5705
X8743Y4705
X8743Y3705
X8743Y2705
X8743Y1705
M30
