G75*
G70*
%OFA0B0*%
%FSLAX24Y24*%
%IPPOS*%
%LPD*%
%AMOC8*
5,1,8,0,0,1.08239X$1,22.5*
%
%ADD10C,0.0397*%
%ADD11C,0.0550*%
%ADD12C,0.0278*%
%ADD13C,0.0320*%
%ADD14C,0.0060*%
%ADD15C,0.0500*%
%ADD16C,0.0120*%
%ADD17C,0.0080*%
%ADD18C,0.0200*%
D10*
X004150Y013705D03*
X006335Y013705D03*
D11*
X008743Y012705D03*
X008743Y011705D03*
X008743Y010705D03*
X008743Y009705D03*
X008743Y008705D03*
X008743Y007705D03*
X008743Y006705D03*
X008743Y005705D03*
X008743Y004705D03*
X008743Y003705D03*
X008743Y002705D03*
X008743Y001705D03*
X001743Y001705D03*
X001743Y002705D03*
X001743Y003705D03*
X001743Y004705D03*
X001743Y005705D03*
X001743Y006705D03*
X001743Y007705D03*
X001743Y008705D03*
X001743Y009705D03*
X001743Y010705D03*
X001743Y011705D03*
X001743Y012705D03*
D12*
X001603Y013325D03*
X002343Y012845D03*
X002343Y012455D03*
X002343Y010735D03*
X002343Y010265D03*
X002713Y009985D03*
X002443Y009775D03*
X002493Y008125D03*
X003492Y008395D03*
X003663Y007885D03*
X004273Y008405D03*
X004753Y008415D03*
X005143Y007895D03*
X005083Y007385D03*
X005043Y006905D03*
X005443Y006905D03*
X005943Y007025D03*
X006433Y008195D03*
X006663Y008625D03*
X006793Y008305D03*
X007093Y008105D03*
X007673Y009645D03*
X008013Y009755D03*
X008093Y011185D03*
X007803Y011585D03*
X007963Y011885D03*
X007953Y012425D03*
X007673Y013345D03*
X006853Y012815D03*
X006443Y013005D03*
X006773Y011215D03*
X006593Y010695D03*
X006443Y010195D03*
X006073Y010585D03*
X007153Y011295D03*
X006083Y008605D03*
X005563Y008295D03*
X005233Y008405D03*
X004473Y010605D03*
X004273Y010805D03*
X003903Y010785D03*
X003841Y010203D03*
X003893Y012585D03*
X003693Y013255D03*
X006993Y005975D03*
X007063Y005025D03*
X007083Y004535D03*
X006923Y003855D03*
X006433Y003925D03*
X006083Y003815D03*
X005063Y004425D03*
X005973Y005365D03*
X008073Y004065D03*
X007143Y002005D03*
X007143Y001105D03*
X007143Y000505D03*
X008093Y000505D03*
X008593Y000955D03*
X005643Y001605D03*
X005643Y001955D03*
X004993Y001955D03*
X004993Y001605D03*
X004243Y001605D03*
X004243Y001955D03*
X003243Y001605D03*
X002543Y002815D03*
X008243Y008205D03*
D13*
X006563Y012525D02*
X006853Y012815D01*
X006563Y012525D02*
X004923Y012525D01*
X004483Y012085D01*
X003623Y012085D01*
X003083Y012625D01*
X003083Y012985D01*
X002723Y013345D01*
X002203Y013345D01*
X001743Y012885D01*
X001743Y012705D01*
X003693Y013255D02*
X006193Y013255D01*
X006443Y013005D01*
D14*
X001353Y014095D02*
X001353Y001505D01*
X001431Y001505D01*
X001378Y001632D01*
X001378Y001778D01*
X001433Y001912D01*
X001536Y002014D01*
X001670Y002070D01*
X001815Y002070D01*
X001950Y002014D01*
X002052Y001912D01*
X002108Y001778D01*
X002108Y001632D01*
X002055Y001505D01*
X003019Y001505D01*
X003014Y001510D01*
X003014Y001700D01*
X003148Y001834D01*
X003338Y001834D01*
X003472Y001700D01*
X003472Y001510D01*
X003467Y001505D01*
X004019Y001505D01*
X004014Y001510D01*
X004014Y001700D01*
X004094Y001780D01*
X004014Y001860D01*
X004014Y002050D01*
X004148Y002184D01*
X004338Y002184D01*
X004472Y002050D01*
X004472Y001860D01*
X004392Y001780D01*
X004472Y001700D01*
X004472Y001510D01*
X004467Y001505D01*
X004769Y001505D01*
X004764Y001510D01*
X004764Y001700D01*
X004844Y001780D01*
X004764Y001860D01*
X004764Y002050D01*
X004898Y002184D01*
X005088Y002184D01*
X005222Y002050D01*
X005222Y001860D01*
X005142Y001780D01*
X005222Y001700D01*
X005222Y001510D01*
X005217Y001505D01*
X005419Y001505D01*
X005414Y001510D01*
X005414Y001700D01*
X005494Y001780D01*
X005414Y001860D01*
X005414Y002050D01*
X005548Y002184D01*
X005738Y002184D01*
X005872Y002050D01*
X005872Y001860D01*
X005792Y001780D01*
X005872Y001700D01*
X005872Y001510D01*
X005867Y001505D01*
X008431Y001505D01*
X008378Y001632D01*
X008378Y001778D01*
X008433Y001912D01*
X008536Y002014D01*
X008670Y002070D01*
X008815Y002070D01*
X008950Y002014D01*
X009052Y001912D01*
X009108Y001778D01*
X009108Y001632D01*
X009055Y001505D01*
X009133Y001505D01*
X009133Y012590D01*
X009132Y012587D01*
X009102Y012513D01*
X009057Y012447D01*
X009001Y012390D01*
X008935Y012346D01*
X008861Y012316D01*
X008783Y012300D01*
X008773Y012300D01*
X008773Y012675D01*
X008713Y012675D01*
X008713Y012300D01*
X008703Y012300D01*
X008625Y012316D01*
X008551Y012346D01*
X008485Y012390D01*
X008473Y012402D01*
X008473Y011951D01*
X008536Y012014D01*
X008670Y012070D01*
X008815Y012070D01*
X008950Y012014D01*
X009052Y011912D01*
X009108Y011778D01*
X009108Y011632D01*
X009052Y011498D01*
X008950Y011396D01*
X008815Y011340D01*
X008697Y011340D01*
X008822Y011215D01*
X008933Y011104D01*
X008933Y011021D01*
X008950Y011014D01*
X009052Y010912D01*
X009108Y010778D01*
X009108Y010632D01*
X009052Y010498D01*
X008950Y010396D01*
X008815Y010340D01*
X008670Y010340D01*
X008536Y010396D01*
X008433Y010498D01*
X008410Y010555D01*
X008355Y010555D01*
X007674Y009874D01*
X007768Y009874D01*
X007788Y009854D01*
X007918Y009984D01*
X008108Y009984D01*
X008242Y009850D01*
X008242Y009660D01*
X008108Y009526D01*
X007918Y009526D01*
X007898Y009546D01*
X007768Y009416D01*
X007578Y009416D01*
X007444Y009550D01*
X007444Y009644D01*
X006654Y008854D01*
X006758Y008854D01*
X006892Y008720D01*
X006892Y008530D01*
X006892Y008530D01*
X007022Y008400D01*
X007022Y008210D01*
X006888Y008076D01*
X006698Y008076D01*
X006662Y008112D01*
X006662Y008100D01*
X006528Y007966D01*
X006384Y007966D01*
X007055Y007295D01*
X007143Y007207D01*
X007143Y006149D01*
X007222Y006070D01*
X007222Y005880D01*
X007088Y005746D01*
X006898Y005746D01*
X006764Y005880D01*
X006764Y006070D01*
X006843Y006149D01*
X006843Y007083D01*
X005933Y007993D01*
X005933Y008431D01*
X005854Y008510D01*
X005854Y008582D01*
X005797Y008525D01*
X005647Y008525D01*
X005646Y008524D01*
X005658Y008524D01*
X005792Y008390D01*
X005792Y008200D01*
X005658Y008066D01*
X005518Y008066D01*
X005467Y008015D01*
X005347Y008015D01*
X005372Y007990D01*
X005372Y007800D01*
X005238Y007666D01*
X005126Y007666D01*
X005074Y007614D01*
X005178Y007614D01*
X005312Y007480D01*
X005312Y007290D01*
X005178Y007156D01*
X004988Y007156D01*
X004893Y007251D01*
X004893Y006097D01*
X006906Y004084D01*
X007018Y004084D01*
X007152Y003950D01*
X007152Y003760D01*
X007018Y003626D01*
X006828Y003626D01*
X006694Y003760D01*
X006694Y003872D01*
X006662Y003904D01*
X006662Y003830D01*
X006528Y003696D01*
X006338Y003696D01*
X006204Y003830D01*
X006204Y003942D01*
X004431Y005715D01*
X004343Y005803D01*
X004343Y007883D01*
X004211Y008015D01*
X004123Y008103D01*
X004123Y008231D01*
X004044Y008310D01*
X004044Y008500D01*
X004178Y008634D01*
X004368Y008634D01*
X004502Y008500D01*
X004502Y008310D01*
X004423Y008231D01*
X004423Y008227D01*
X004643Y008007D01*
X004643Y007607D01*
X004914Y007878D01*
X004914Y007990D01*
X005014Y008090D01*
X005013Y008091D01*
X004883Y008221D01*
X004848Y008186D01*
X004658Y008186D01*
X004524Y008320D01*
X004524Y008510D01*
X004658Y008644D01*
X004848Y008644D01*
X004873Y008619D01*
X004939Y008685D01*
X005239Y008985D01*
X005639Y008985D01*
X007363Y010709D01*
X007363Y011181D01*
X007248Y011066D01*
X007058Y011066D01*
X007002Y011122D01*
X007002Y011120D01*
X006868Y010986D01*
X006678Y010986D01*
X006544Y011120D01*
X006544Y011310D01*
X006678Y011444D01*
X006868Y011444D01*
X006924Y011388D01*
X006924Y011390D01*
X007058Y011524D01*
X007248Y011524D01*
X007363Y011409D01*
X007363Y011809D01*
X007439Y011885D01*
X007589Y012035D01*
X007789Y012035D01*
X007868Y012114D01*
X008058Y012114D01*
X008093Y012079D01*
X008093Y012241D01*
X008048Y012196D01*
X007858Y012196D01*
X007724Y012330D01*
X007724Y012520D01*
X007858Y012654D01*
X007915Y012654D01*
X007483Y013086D01*
X007483Y013211D01*
X007444Y013250D01*
X007444Y013440D01*
X007578Y013574D01*
X007768Y013574D01*
X007902Y013440D01*
X007902Y013250D01*
X007879Y013227D01*
X008342Y012765D01*
X008353Y012823D01*
X008384Y012897D01*
X008428Y012963D01*
X008485Y013020D01*
X008551Y013064D01*
X008625Y013094D01*
X008703Y013110D01*
X008713Y013110D01*
X008713Y012735D01*
X008773Y012735D01*
X008773Y013110D01*
X008783Y013110D01*
X008861Y013094D01*
X008935Y013064D01*
X009001Y013020D01*
X009057Y012963D01*
X009102Y012897D01*
X009132Y012823D01*
X009133Y012820D01*
X009133Y014095D01*
X001353Y014095D01*
X001353Y014070D02*
X009133Y014070D01*
X009133Y014011D02*
X001353Y014011D01*
X001353Y013953D02*
X003994Y013953D01*
X003987Y013950D02*
X003906Y013868D01*
X003862Y013762D01*
X003862Y013648D01*
X003906Y013542D01*
X003942Y013505D01*
X003643Y013505D01*
X003551Y013467D01*
X003481Y013397D01*
X003443Y013305D01*
X003443Y013205D01*
X003481Y013113D01*
X003551Y013043D01*
X003643Y013005D01*
X004336Y013005D01*
X004287Y012956D01*
X004287Y012800D01*
X004397Y012690D01*
X004553Y012690D01*
X004663Y012800D01*
X004663Y012956D01*
X004614Y013005D01*
X005871Y013005D01*
X005822Y012956D01*
X005822Y012800D01*
X005848Y012775D01*
X004873Y012775D01*
X004781Y012737D01*
X004711Y012667D01*
X004379Y012335D01*
X003726Y012335D01*
X003333Y012729D01*
X003333Y013035D01*
X003295Y013127D01*
X003224Y013197D01*
X002864Y013557D01*
X002773Y013595D01*
X002153Y013595D01*
X002061Y013557D01*
X001832Y013328D01*
X001832Y013420D01*
X001698Y013554D01*
X001508Y013554D01*
X001374Y013420D01*
X001374Y013230D01*
X001508Y013096D01*
X001600Y013096D01*
X001531Y013027D01*
X001519Y012997D01*
X001433Y012912D01*
X001378Y012778D01*
X001378Y012632D01*
X001433Y012498D01*
X001536Y012396D01*
X001670Y012340D01*
X001815Y012340D01*
X001950Y012396D01*
X002052Y012498D01*
X002108Y012632D01*
X002108Y012778D01*
X002073Y012862D01*
X002114Y012902D01*
X002114Y012750D01*
X002248Y012616D01*
X002438Y012616D01*
X002572Y012750D01*
X002572Y012940D01*
X002438Y013074D01*
X002285Y013074D01*
X002306Y013095D01*
X002619Y013095D01*
X002833Y012881D01*
X002833Y012575D01*
X002871Y012483D01*
X003411Y011943D01*
X003481Y011873D01*
X003573Y011835D01*
X004533Y011835D01*
X004624Y011873D01*
X005026Y012275D01*
X006613Y012275D01*
X006704Y012313D01*
X007065Y012673D01*
X007103Y012765D01*
X007103Y012865D01*
X007065Y012957D01*
X006994Y013027D01*
X006903Y013065D01*
X006803Y013065D01*
X006711Y013027D01*
X006693Y013009D01*
X006693Y013055D01*
X006655Y013147D01*
X006385Y013417D01*
X006393Y013417D01*
X006499Y013460D01*
X006580Y013542D01*
X006624Y013648D01*
X006624Y013762D01*
X006580Y013868D01*
X006499Y013950D01*
X006393Y013993D01*
X006278Y013993D01*
X006172Y013950D01*
X006091Y013868D01*
X006047Y013762D01*
X006047Y013648D01*
X006091Y013542D01*
X006127Y013505D01*
X004358Y013505D01*
X004395Y013542D01*
X004439Y013648D01*
X004439Y013762D01*
X004395Y013868D01*
X004314Y013950D01*
X004208Y013993D01*
X004093Y013993D01*
X003987Y013950D01*
X003931Y013894D02*
X001353Y013894D01*
X001353Y013836D02*
X003892Y013836D01*
X003868Y013777D02*
X001353Y013777D01*
X001353Y013719D02*
X003862Y013719D01*
X003862Y013660D02*
X001353Y013660D01*
X001353Y013602D02*
X003881Y013602D01*
X003905Y013543D02*
X002878Y013543D01*
X002937Y013485D02*
X003594Y013485D01*
X003510Y013426D02*
X002995Y013426D01*
X003054Y013368D02*
X003469Y013368D01*
X003445Y013309D02*
X003112Y013309D01*
X003171Y013251D02*
X003443Y013251D01*
X003448Y013192D02*
X003229Y013192D01*
X003288Y013134D02*
X003473Y013134D01*
X003519Y013075D02*
X003316Y013075D01*
X003333Y013017D02*
X003615Y013017D01*
X003798Y012814D02*
X003664Y012680D01*
X003664Y012490D01*
X003571Y012490D01*
X003513Y012549D02*
X003664Y012549D01*
X003664Y012607D02*
X003454Y012607D01*
X003396Y012666D02*
X003664Y012666D01*
X003708Y012724D02*
X003337Y012724D01*
X003333Y012783D02*
X003766Y012783D01*
X003798Y012814D02*
X003988Y012814D01*
X004122Y012680D01*
X004122Y012490D01*
X003988Y012356D01*
X003798Y012356D01*
X003664Y012490D01*
X003630Y012432D02*
X003722Y012432D01*
X003688Y012373D02*
X003781Y012373D01*
X004005Y012373D02*
X004417Y012373D01*
X004476Y012432D02*
X004063Y012432D01*
X004122Y012490D02*
X004534Y012490D01*
X004593Y012549D02*
X004122Y012549D01*
X004122Y012607D02*
X004651Y012607D01*
X004710Y012666D02*
X004122Y012666D01*
X004078Y012724D02*
X004363Y012724D01*
X004305Y012783D02*
X004019Y012783D01*
X004287Y012841D02*
X003333Y012841D01*
X003333Y012900D02*
X004287Y012900D01*
X004289Y012958D02*
X003333Y012958D01*
X002981Y012373D02*
X001895Y012373D01*
X001986Y012432D02*
X002923Y012432D01*
X002868Y012490D02*
X002044Y012490D01*
X002073Y012549D02*
X002844Y012549D01*
X002833Y012607D02*
X002097Y012607D01*
X002108Y012666D02*
X002198Y012666D01*
X002140Y012724D02*
X002108Y012724D01*
X002106Y012783D02*
X002114Y012783D01*
X002114Y012841D02*
X002082Y012841D01*
X002111Y012900D02*
X002114Y012900D01*
X002286Y013075D02*
X002639Y013075D01*
X002698Y013017D02*
X002495Y013017D01*
X002554Y012958D02*
X002756Y012958D01*
X002815Y012900D02*
X002572Y012900D01*
X002572Y012841D02*
X002833Y012841D01*
X002833Y012783D02*
X002572Y012783D01*
X002546Y012724D02*
X002833Y012724D01*
X002833Y012666D02*
X002487Y012666D01*
X001950Y012014D02*
X002052Y011912D01*
X002108Y011778D01*
X002108Y011632D01*
X002052Y011498D01*
X001950Y011396D01*
X001815Y011340D01*
X001670Y011340D01*
X001536Y011396D01*
X001433Y011498D01*
X001378Y011632D01*
X001378Y011778D01*
X001433Y011912D01*
X001536Y012014D01*
X001670Y012070D01*
X001815Y012070D01*
X001950Y012014D01*
X001931Y012022D02*
X003332Y012022D01*
X003274Y012081D02*
X001353Y012081D01*
X001353Y012139D02*
X003215Y012139D01*
X003157Y012198D02*
X001353Y012198D01*
X001353Y012256D02*
X003098Y012256D01*
X003040Y012315D02*
X001353Y012315D01*
X001353Y012373D02*
X001590Y012373D01*
X001500Y012432D02*
X001353Y012432D01*
X001353Y012490D02*
X001442Y012490D01*
X001413Y012549D02*
X001353Y012549D01*
X001353Y012607D02*
X001388Y012607D01*
X001378Y012666D02*
X001353Y012666D01*
X001353Y012724D02*
X001378Y012724D01*
X001380Y012783D02*
X001353Y012783D01*
X001353Y012841D02*
X001404Y012841D01*
X001428Y012900D02*
X001353Y012900D01*
X001353Y012958D02*
X001480Y012958D01*
X001527Y013017D02*
X001353Y013017D01*
X001353Y013075D02*
X001579Y013075D01*
X001470Y013134D02*
X001353Y013134D01*
X001353Y013192D02*
X001412Y013192D01*
X001374Y013251D02*
X001353Y013251D01*
X001353Y013309D02*
X001374Y013309D01*
X001374Y013368D02*
X001353Y013368D01*
X001353Y013426D02*
X001380Y013426D01*
X001353Y013485D02*
X001438Y013485D01*
X001497Y013543D02*
X001353Y013543D01*
X001709Y013543D02*
X002047Y013543D01*
X001989Y013485D02*
X001767Y013485D01*
X001826Y013426D02*
X001930Y013426D01*
X001872Y013368D02*
X001832Y013368D01*
X001554Y012022D02*
X001353Y012022D01*
X001353Y011964D02*
X001485Y011964D01*
X001431Y011905D02*
X001353Y011905D01*
X001353Y011847D02*
X001406Y011847D01*
X001382Y011788D02*
X001353Y011788D01*
X001353Y011730D02*
X001378Y011730D01*
X001378Y011671D02*
X001353Y011671D01*
X001353Y011613D02*
X001386Y011613D01*
X001410Y011554D02*
X001353Y011554D01*
X001353Y011496D02*
X001436Y011496D01*
X001495Y011437D02*
X001353Y011437D01*
X001353Y011379D02*
X001577Y011379D01*
X001353Y011320D02*
X006554Y011320D01*
X006544Y011262D02*
X001353Y011262D01*
X001353Y011203D02*
X006544Y011203D01*
X006544Y011145D02*
X001353Y011145D01*
X001353Y011086D02*
X006578Y011086D01*
X006636Y011028D02*
X001918Y011028D01*
X001950Y011014D02*
X001815Y011070D01*
X001670Y011070D01*
X001536Y011014D01*
X001433Y010912D01*
X001378Y010778D01*
X001378Y010632D01*
X001433Y010498D01*
X001536Y010396D01*
X001670Y010340D01*
X001815Y010340D01*
X001950Y010396D01*
X002052Y010498D01*
X002108Y010632D01*
X002108Y010778D01*
X002052Y010912D01*
X001950Y011014D01*
X001995Y010969D02*
X003763Y010969D01*
X003808Y011014D02*
X003674Y010880D01*
X003674Y010690D01*
X003808Y010556D01*
X003998Y010556D01*
X004132Y010690D01*
X004132Y010880D01*
X003998Y011014D01*
X003808Y011014D01*
X003704Y010911D02*
X002053Y010911D01*
X002077Y010852D02*
X003674Y010852D01*
X003674Y010794D02*
X002101Y010794D01*
X002108Y010735D02*
X003674Y010735D01*
X003687Y010677D02*
X002108Y010677D01*
X002102Y010618D02*
X003746Y010618D01*
X003804Y010560D02*
X002078Y010560D01*
X002053Y010501D02*
X005844Y010501D01*
X005844Y010490D02*
X005978Y010356D01*
X006168Y010356D01*
X006302Y010490D01*
X006302Y010680D01*
X006168Y010814D01*
X005978Y010814D01*
X005844Y010680D01*
X005844Y010490D01*
X005891Y010443D02*
X002489Y010443D01*
X002438Y010494D02*
X002572Y010360D01*
X002572Y010170D01*
X002438Y010036D01*
X002333Y010036D01*
X002333Y009989D01*
X002348Y010004D01*
X002538Y010004D01*
X002672Y009870D01*
X002672Y009680D01*
X002573Y009581D01*
X002573Y009498D01*
X003446Y008624D01*
X003587Y008624D01*
X003721Y008490D01*
X003721Y008300D01*
X003587Y008166D01*
X003397Y008166D01*
X003263Y008300D01*
X003263Y008440D01*
X002389Y009314D01*
X002333Y009370D01*
X002333Y009168D01*
X003477Y008023D01*
X003568Y008114D01*
X003758Y008114D01*
X003892Y007980D01*
X003892Y007790D01*
X003758Y007656D01*
X003568Y007656D01*
X003469Y007755D01*
X003378Y007755D01*
X003302Y007831D01*
X002149Y008984D01*
X002073Y009060D01*
X002073Y009548D01*
X002052Y009498D01*
X001950Y009396D01*
X001815Y009340D01*
X001670Y009340D01*
X001536Y009396D01*
X001433Y009498D01*
X001378Y009632D01*
X001378Y009778D01*
X001433Y009912D01*
X001536Y010014D01*
X001670Y010070D01*
X001815Y010070D01*
X001950Y010014D01*
X002052Y009912D01*
X002073Y009862D01*
X002073Y010179D01*
X002114Y010220D01*
X002114Y010360D01*
X002248Y010494D01*
X002438Y010494D01*
X002548Y010384D02*
X003699Y010384D01*
X003746Y010432D02*
X003612Y010298D01*
X003612Y010108D01*
X003746Y009974D01*
X003936Y009974D01*
X004070Y010108D01*
X004070Y010298D01*
X003936Y010432D01*
X003746Y010432D01*
X003640Y010326D02*
X002572Y010326D01*
X002572Y010267D02*
X003612Y010267D01*
X003612Y010209D02*
X002572Y010209D01*
X002552Y010150D02*
X003612Y010150D01*
X003628Y010092D02*
X002493Y010092D01*
X002567Y009975D02*
X003745Y009975D01*
X003687Y010033D02*
X002333Y010033D01*
X002102Y010209D02*
X001353Y010209D01*
X001353Y010267D02*
X002114Y010267D01*
X002114Y010326D02*
X001353Y010326D01*
X001353Y010384D02*
X001564Y010384D01*
X001489Y010443D02*
X001353Y010443D01*
X001353Y010501D02*
X001432Y010501D01*
X001408Y010560D02*
X001353Y010560D01*
X001353Y010618D02*
X001384Y010618D01*
X001378Y010677D02*
X001353Y010677D01*
X001353Y010735D02*
X001378Y010735D01*
X001384Y010794D02*
X001353Y010794D01*
X001353Y010852D02*
X001409Y010852D01*
X001433Y010911D02*
X001353Y010911D01*
X001353Y010969D02*
X001491Y010969D01*
X001568Y011028D02*
X001353Y011028D01*
X001908Y011379D02*
X006612Y011379D01*
X006671Y011437D02*
X001991Y011437D01*
X002050Y011496D02*
X007029Y011496D01*
X006971Y011437D02*
X006875Y011437D01*
X006968Y011086D02*
X007038Y011086D01*
X006909Y011028D02*
X007363Y011028D01*
X007363Y011086D02*
X007268Y011086D01*
X007326Y011145D02*
X007363Y011145D01*
X007363Y010969D02*
X004043Y010969D01*
X004101Y010911D02*
X006484Y010911D01*
X006498Y010924D02*
X006364Y010790D01*
X006364Y010600D01*
X006498Y010466D01*
X006688Y010466D01*
X006822Y010600D01*
X006822Y010790D01*
X006688Y010924D01*
X006498Y010924D01*
X006426Y010852D02*
X004132Y010852D01*
X004132Y010794D02*
X005957Y010794D01*
X005899Y010735D02*
X004132Y010735D01*
X004118Y010677D02*
X005844Y010677D01*
X005844Y010618D02*
X004060Y010618D01*
X004001Y010560D02*
X005844Y010560D01*
X005950Y010384D02*
X003984Y010384D01*
X004042Y010326D02*
X006249Y010326D01*
X006214Y010290D02*
X006214Y010100D01*
X006348Y009966D01*
X006538Y009966D01*
X006672Y010100D01*
X006672Y010290D01*
X006538Y010424D01*
X006348Y010424D01*
X006214Y010290D01*
X006214Y010267D02*
X004070Y010267D01*
X004070Y010209D02*
X006214Y010209D01*
X006214Y010150D02*
X004070Y010150D01*
X004054Y010092D02*
X006222Y010092D01*
X006281Y010033D02*
X003996Y010033D01*
X003937Y009975D02*
X006339Y009975D01*
X006453Y009799D02*
X002672Y009799D01*
X002672Y009741D02*
X006394Y009741D01*
X006336Y009682D02*
X002672Y009682D01*
X002615Y009624D02*
X006277Y009624D01*
X006219Y009565D02*
X002573Y009565D01*
X002573Y009507D02*
X006160Y009507D01*
X006102Y009448D02*
X002622Y009448D01*
X002681Y009390D02*
X006043Y009390D01*
X005985Y009331D02*
X002739Y009331D01*
X002798Y009273D02*
X005926Y009273D01*
X005868Y009214D02*
X002856Y009214D01*
X002915Y009156D02*
X005809Y009156D01*
X005751Y009097D02*
X002973Y009097D01*
X003032Y009039D02*
X005692Y009039D01*
X005842Y008571D02*
X005854Y008571D01*
X005854Y008512D02*
X005670Y008512D01*
X005728Y008454D02*
X005910Y008454D01*
X005933Y008395D02*
X005787Y008395D01*
X005792Y008337D02*
X005933Y008337D01*
X005933Y008278D02*
X005792Y008278D01*
X005792Y008220D02*
X005933Y008220D01*
X005933Y008161D02*
X005753Y008161D01*
X005694Y008103D02*
X005933Y008103D01*
X005933Y008044D02*
X005496Y008044D01*
X005372Y007986D02*
X005940Y007986D01*
X005999Y007927D02*
X005372Y007927D01*
X005372Y007869D02*
X006057Y007869D01*
X006116Y007810D02*
X005372Y007810D01*
X005323Y007752D02*
X006174Y007752D01*
X006233Y007693D02*
X005265Y007693D01*
X005216Y007576D02*
X006350Y007576D01*
X006408Y007518D02*
X005274Y007518D01*
X005312Y007459D02*
X006467Y007459D01*
X006525Y007401D02*
X005312Y007401D01*
X005312Y007342D02*
X006584Y007342D01*
X006642Y007284D02*
X005305Y007284D01*
X005247Y007225D02*
X005819Y007225D01*
X005848Y007254D02*
X005714Y007120D01*
X005714Y006930D01*
X005848Y006796D01*
X006038Y006796D01*
X006172Y006930D01*
X006172Y007120D01*
X006038Y007254D01*
X005848Y007254D01*
X005760Y007167D02*
X005188Y007167D01*
X005263Y007050D02*
X004893Y007050D01*
X004893Y007108D02*
X005322Y007108D01*
X005348Y007134D02*
X005214Y007000D01*
X005214Y006810D01*
X005348Y006676D01*
X005538Y006676D01*
X005672Y006810D01*
X005672Y007000D01*
X005538Y007134D01*
X005348Y007134D01*
X005214Y006991D02*
X004893Y006991D01*
X004893Y006933D02*
X005214Y006933D01*
X005214Y006874D02*
X004893Y006874D01*
X004893Y006816D02*
X005214Y006816D01*
X005267Y006757D02*
X004893Y006757D01*
X004893Y006699D02*
X005325Y006699D01*
X005560Y006699D02*
X006843Y006699D01*
X006843Y006757D02*
X005619Y006757D01*
X005672Y006816D02*
X005828Y006816D01*
X005770Y006874D02*
X005672Y006874D01*
X005672Y006933D02*
X005714Y006933D01*
X005714Y006991D02*
X005672Y006991D01*
X005714Y007050D02*
X005622Y007050D01*
X005564Y007108D02*
X005714Y007108D01*
X006067Y007225D02*
X006701Y007225D01*
X006759Y007167D02*
X006125Y007167D01*
X006172Y007108D02*
X006818Y007108D01*
X006843Y007050D02*
X006172Y007050D01*
X006172Y006991D02*
X006843Y006991D01*
X006843Y006933D02*
X006172Y006933D01*
X006116Y006874D02*
X006843Y006874D01*
X006843Y006816D02*
X006057Y006816D01*
X006291Y007635D02*
X005094Y007635D01*
X004914Y007927D02*
X004643Y007927D01*
X004643Y007869D02*
X004904Y007869D01*
X004846Y007810D02*
X004643Y007810D01*
X004643Y007752D02*
X004787Y007752D01*
X004729Y007693D02*
X004643Y007693D01*
X004643Y007635D02*
X004670Y007635D01*
X004893Y007225D02*
X004919Y007225D01*
X004893Y007167D02*
X004977Y007167D01*
X004893Y006640D02*
X006843Y006640D01*
X006843Y006582D02*
X004893Y006582D01*
X004893Y006523D02*
X006843Y006523D01*
X006843Y006465D02*
X004893Y006465D01*
X004893Y006406D02*
X006843Y006406D01*
X006843Y006348D02*
X004893Y006348D01*
X004893Y006289D02*
X006843Y006289D01*
X006843Y006231D02*
X004893Y006231D01*
X004893Y006172D02*
X006843Y006172D01*
X006807Y006114D02*
X004893Y006114D01*
X004935Y006055D02*
X006764Y006055D01*
X006764Y005997D02*
X004993Y005997D01*
X005052Y005938D02*
X006764Y005938D01*
X006764Y005880D02*
X005110Y005880D01*
X005169Y005821D02*
X006823Y005821D01*
X006881Y005763D02*
X005227Y005763D01*
X005286Y005704D02*
X008378Y005704D01*
X008378Y005646D02*
X005344Y005646D01*
X005403Y005587D02*
X005871Y005587D01*
X005878Y005594D02*
X005744Y005460D01*
X005744Y005270D01*
X005878Y005136D01*
X006068Y005136D01*
X006202Y005270D01*
X006202Y005460D01*
X006068Y005594D01*
X005878Y005594D01*
X005812Y005529D02*
X005461Y005529D01*
X005520Y005470D02*
X005754Y005470D01*
X005744Y005412D02*
X005578Y005412D01*
X005637Y005353D02*
X005744Y005353D01*
X005744Y005295D02*
X005695Y005295D01*
X005754Y005236D02*
X005778Y005236D01*
X005812Y005178D02*
X005836Y005178D01*
X005871Y005119D02*
X009133Y005119D01*
X009133Y005061D02*
X008838Y005061D01*
X008815Y005070D02*
X008670Y005070D01*
X008536Y005014D01*
X008433Y004912D01*
X008378Y004778D01*
X008378Y004632D01*
X008433Y004498D01*
X008536Y004396D01*
X008670Y004340D01*
X008815Y004340D01*
X008950Y004396D01*
X009052Y004498D01*
X009108Y004632D01*
X009108Y004778D01*
X009052Y004912D01*
X008950Y005014D01*
X008815Y005070D01*
X008815Y005340D02*
X008950Y005396D01*
X009052Y005498D01*
X009108Y005632D01*
X009108Y005778D01*
X009052Y005912D01*
X008950Y006014D01*
X008815Y006070D01*
X008670Y006070D01*
X008536Y006014D01*
X008433Y005912D01*
X008378Y005778D01*
X008378Y005632D01*
X008433Y005498D01*
X008536Y005396D01*
X008670Y005340D01*
X008815Y005340D01*
X008847Y005353D02*
X009133Y005353D01*
X009133Y005295D02*
X006202Y005295D01*
X006202Y005353D02*
X008639Y005353D01*
X008520Y005412D02*
X006202Y005412D01*
X006192Y005470D02*
X008462Y005470D01*
X008421Y005529D02*
X006133Y005529D01*
X006075Y005587D02*
X008397Y005587D01*
X008378Y005763D02*
X007104Y005763D01*
X007163Y005821D02*
X008396Y005821D01*
X008420Y005880D02*
X007221Y005880D01*
X007222Y005938D02*
X008460Y005938D01*
X008518Y005997D02*
X007222Y005997D01*
X007222Y006055D02*
X008634Y006055D01*
X008852Y006055D02*
X009133Y006055D01*
X009133Y005997D02*
X008967Y005997D01*
X009026Y005938D02*
X009133Y005938D01*
X009133Y005880D02*
X009066Y005880D01*
X009090Y005821D02*
X009133Y005821D01*
X009133Y005763D02*
X009108Y005763D01*
X009108Y005704D02*
X009133Y005704D01*
X009133Y005646D02*
X009108Y005646D01*
X009089Y005587D02*
X009133Y005587D01*
X009133Y005529D02*
X009065Y005529D01*
X009024Y005470D02*
X009133Y005470D01*
X009133Y005412D02*
X008966Y005412D01*
X009133Y005236D02*
X006168Y005236D01*
X006109Y005178D02*
X009133Y005178D01*
X009133Y005002D02*
X008962Y005002D01*
X009020Y004944D02*
X009133Y004944D01*
X009133Y004885D02*
X009063Y004885D01*
X009088Y004827D02*
X009133Y004827D01*
X009133Y004768D02*
X009108Y004768D01*
X009108Y004710D02*
X009133Y004710D01*
X009133Y004651D02*
X009108Y004651D01*
X009091Y004593D02*
X009133Y004593D01*
X009133Y004534D02*
X009067Y004534D01*
X009030Y004476D02*
X009133Y004476D01*
X009133Y004417D02*
X008971Y004417D01*
X008860Y004359D02*
X009133Y004359D01*
X009133Y004300D02*
X006690Y004300D01*
X006748Y004242D02*
X007925Y004242D01*
X007978Y004294D02*
X007844Y004160D01*
X007844Y003970D01*
X007978Y003836D01*
X008168Y003836D01*
X008302Y003970D01*
X008302Y004160D01*
X008168Y004294D01*
X007978Y004294D01*
X007867Y004183D02*
X006807Y004183D01*
X006865Y004125D02*
X007844Y004125D01*
X007844Y004066D02*
X007036Y004066D01*
X007094Y004008D02*
X007844Y004008D01*
X007865Y003949D02*
X007152Y003949D01*
X007152Y003891D02*
X007923Y003891D01*
X008222Y003891D02*
X008425Y003891D01*
X008433Y003912D02*
X008378Y003778D01*
X008378Y003632D01*
X008433Y003498D01*
X008536Y003396D01*
X008670Y003340D01*
X008815Y003340D01*
X008950Y003396D01*
X009052Y003498D01*
X009108Y003632D01*
X009108Y003778D01*
X009052Y003912D01*
X008950Y004014D01*
X008815Y004070D01*
X008670Y004070D01*
X008536Y004014D01*
X008433Y003912D01*
X008471Y003949D02*
X008281Y003949D01*
X008302Y004008D02*
X008529Y004008D01*
X008661Y004066D02*
X008302Y004066D01*
X008302Y004125D02*
X009133Y004125D01*
X009133Y004183D02*
X008279Y004183D01*
X008220Y004242D02*
X009133Y004242D01*
X009133Y004066D02*
X008825Y004066D01*
X008956Y004008D02*
X009133Y004008D01*
X009133Y003949D02*
X009015Y003949D01*
X009061Y003891D02*
X009133Y003891D01*
X009133Y003832D02*
X009085Y003832D01*
X009108Y003774D02*
X009133Y003774D01*
X009133Y003715D02*
X009108Y003715D01*
X009108Y003657D02*
X009133Y003657D01*
X009133Y003598D02*
X009094Y003598D01*
X009069Y003540D02*
X009133Y003540D01*
X009133Y003481D02*
X009035Y003481D01*
X008977Y003423D02*
X009133Y003423D01*
X009133Y003364D02*
X008873Y003364D01*
X009133Y003306D02*
X001353Y003306D01*
X001353Y003364D02*
X001612Y003364D01*
X001670Y003340D02*
X001815Y003340D01*
X001950Y003396D01*
X002052Y003498D01*
X002108Y003632D01*
X002108Y003778D01*
X002052Y003912D01*
X001950Y004014D01*
X001815Y004070D01*
X001670Y004070D01*
X001536Y004014D01*
X001433Y003912D01*
X001378Y003778D01*
X001378Y003632D01*
X001433Y003498D01*
X001536Y003396D01*
X001670Y003340D01*
X001670Y003070D02*
X001536Y003014D01*
X001433Y002912D01*
X001378Y002778D01*
X001378Y002632D01*
X001433Y002498D01*
X001536Y002396D01*
X001670Y002340D01*
X001815Y002340D01*
X001950Y002396D01*
X002052Y002498D01*
X002108Y002632D01*
X002108Y002778D01*
X002052Y002912D01*
X001950Y003014D01*
X001815Y003070D01*
X001670Y003070D01*
X001535Y003013D02*
X001353Y003013D01*
X001353Y002955D02*
X001476Y002955D01*
X001427Y002896D02*
X001353Y002896D01*
X001353Y002838D02*
X001403Y002838D01*
X001378Y002779D02*
X001353Y002779D01*
X001353Y002721D02*
X001378Y002721D01*
X001378Y002662D02*
X001353Y002662D01*
X001353Y002604D02*
X001390Y002604D01*
X001414Y002545D02*
X001353Y002545D01*
X001353Y002487D02*
X001445Y002487D01*
X001504Y002428D02*
X001353Y002428D01*
X001353Y002370D02*
X001599Y002370D01*
X001353Y002311D02*
X009133Y002311D01*
X009133Y002253D02*
X001353Y002253D01*
X001353Y002194D02*
X007008Y002194D01*
X007048Y002234D02*
X006914Y002100D01*
X006914Y001910D01*
X007048Y001776D01*
X007238Y001776D01*
X007372Y001910D01*
X007372Y002100D01*
X007238Y002234D01*
X007048Y002234D01*
X006949Y002136D02*
X005786Y002136D01*
X005845Y002077D02*
X006914Y002077D01*
X006914Y002019D02*
X005872Y002019D01*
X005872Y001960D02*
X006914Y001960D01*
X006922Y001902D02*
X005872Y001902D01*
X005855Y001843D02*
X006981Y001843D01*
X007039Y001785D02*
X005796Y001785D01*
X005846Y001726D02*
X008378Y001726D01*
X008378Y001668D02*
X005872Y001668D01*
X005872Y001609D02*
X008387Y001609D01*
X008412Y001551D02*
X005872Y001551D01*
X005489Y001785D02*
X005146Y001785D01*
X005196Y001726D02*
X005440Y001726D01*
X005414Y001668D02*
X005222Y001668D01*
X005222Y001609D02*
X005414Y001609D01*
X005414Y001551D02*
X005222Y001551D01*
X005205Y001843D02*
X005431Y001843D01*
X005414Y001902D02*
X005222Y001902D01*
X005222Y001960D02*
X005414Y001960D01*
X005414Y002019D02*
X005222Y002019D01*
X005195Y002077D02*
X005441Y002077D01*
X005499Y002136D02*
X005136Y002136D01*
X004849Y002136D02*
X004386Y002136D01*
X004445Y002077D02*
X004791Y002077D01*
X004764Y002019D02*
X004472Y002019D01*
X004472Y001960D02*
X004764Y001960D01*
X004764Y001902D02*
X004472Y001902D01*
X004455Y001843D02*
X004781Y001843D01*
X004839Y001785D02*
X004396Y001785D01*
X004446Y001726D02*
X004790Y001726D01*
X004764Y001668D02*
X004472Y001668D01*
X004472Y001609D02*
X004764Y001609D01*
X004764Y001551D02*
X004472Y001551D01*
X004089Y001785D02*
X003387Y001785D01*
X003446Y001726D02*
X004040Y001726D01*
X004014Y001668D02*
X003472Y001668D01*
X003472Y001609D02*
X004014Y001609D01*
X004014Y001551D02*
X003472Y001551D01*
X003098Y001785D02*
X002105Y001785D01*
X002108Y001726D02*
X003040Y001726D01*
X003014Y001668D02*
X002108Y001668D01*
X002098Y001609D02*
X003014Y001609D01*
X003014Y001551D02*
X002074Y001551D01*
X002081Y001843D02*
X004031Y001843D01*
X004014Y001902D02*
X002056Y001902D01*
X002004Y001960D02*
X004014Y001960D01*
X004014Y002019D02*
X001940Y002019D01*
X001887Y002370D02*
X008599Y002370D01*
X008536Y002396D02*
X008670Y002340D01*
X008815Y002340D01*
X008950Y002396D01*
X009052Y002498D01*
X009108Y002632D01*
X009108Y002778D01*
X009052Y002912D01*
X008950Y003014D01*
X008815Y003070D01*
X008670Y003070D01*
X008536Y003014D01*
X008433Y002912D01*
X008378Y002778D01*
X008378Y002632D01*
X008433Y002498D01*
X008536Y002396D01*
X008504Y002428D02*
X001982Y002428D01*
X002041Y002487D02*
X008445Y002487D01*
X008414Y002545D02*
X002072Y002545D01*
X002096Y002604D02*
X002430Y002604D01*
X002448Y002586D02*
X002638Y002586D01*
X002772Y002720D01*
X002772Y002910D01*
X002638Y003044D01*
X002448Y003044D01*
X002314Y002910D01*
X002314Y002720D01*
X002448Y002586D01*
X002372Y002662D02*
X002108Y002662D01*
X002108Y002721D02*
X002314Y002721D01*
X002314Y002779D02*
X002107Y002779D01*
X002083Y002838D02*
X002314Y002838D01*
X002314Y002896D02*
X002059Y002896D01*
X002009Y002955D02*
X002358Y002955D01*
X002417Y003013D02*
X001951Y003013D01*
X001873Y003364D02*
X008612Y003364D01*
X008509Y003423D02*
X001977Y003423D01*
X002035Y003481D02*
X008451Y003481D01*
X008416Y003540D02*
X002069Y003540D01*
X002094Y003598D02*
X008392Y003598D01*
X008378Y003657D02*
X007048Y003657D01*
X007107Y003715D02*
X008378Y003715D01*
X008378Y003774D02*
X007152Y003774D01*
X007152Y003832D02*
X008400Y003832D01*
X008625Y004359D02*
X007230Y004359D01*
X007178Y004306D02*
X007312Y004440D01*
X007312Y004630D01*
X007178Y004764D01*
X006988Y004764D01*
X006854Y004630D01*
X006854Y004440D01*
X006988Y004306D01*
X007178Y004306D01*
X007289Y004417D02*
X008515Y004417D01*
X008456Y004476D02*
X007312Y004476D01*
X007312Y004534D02*
X008419Y004534D01*
X008394Y004593D02*
X007312Y004593D01*
X007291Y004651D02*
X008378Y004651D01*
X008378Y004710D02*
X007232Y004710D01*
X006933Y004710D02*
X006280Y004710D01*
X006222Y004768D02*
X008378Y004768D01*
X008398Y004827D02*
X006163Y004827D01*
X006105Y004885D02*
X008422Y004885D01*
X008465Y004944D02*
X006046Y004944D01*
X005988Y005002D02*
X008524Y005002D01*
X008647Y005061D02*
X005929Y005061D01*
X005495Y004651D02*
X005161Y004651D01*
X005158Y004654D02*
X004968Y004654D01*
X004834Y004520D01*
X004834Y004330D01*
X004968Y004196D01*
X005158Y004196D01*
X005292Y004330D01*
X005292Y004520D01*
X005158Y004654D01*
X005219Y004593D02*
X005553Y004593D01*
X005612Y004534D02*
X005278Y004534D01*
X005292Y004476D02*
X005670Y004476D01*
X005729Y004417D02*
X005292Y004417D01*
X005292Y004359D02*
X005787Y004359D01*
X005846Y004300D02*
X005262Y004300D01*
X005203Y004242D02*
X005904Y004242D01*
X005963Y004183D02*
X001353Y004183D01*
X001353Y004125D02*
X006021Y004125D01*
X006080Y004066D02*
X001825Y004066D01*
X001956Y004008D02*
X006138Y004008D01*
X006197Y003949D02*
X002015Y003949D01*
X002061Y003891D02*
X006204Y003891D01*
X006204Y003832D02*
X002085Y003832D01*
X002108Y003774D02*
X006260Y003774D01*
X006319Y003715D02*
X002108Y003715D01*
X002108Y003657D02*
X006797Y003657D01*
X006739Y003715D02*
X006547Y003715D01*
X006605Y003774D02*
X006694Y003774D01*
X006694Y003832D02*
X006662Y003832D01*
X006662Y003891D02*
X006675Y003891D01*
X006631Y004359D02*
X006935Y004359D01*
X006877Y004417D02*
X006573Y004417D01*
X006514Y004476D02*
X006854Y004476D01*
X006854Y004534D02*
X006456Y004534D01*
X006397Y004593D02*
X006854Y004593D01*
X006875Y004651D02*
X006339Y004651D01*
X005436Y004710D02*
X002108Y004710D01*
X002108Y004768D02*
X005378Y004768D01*
X005319Y004827D02*
X002088Y004827D01*
X002108Y004778D02*
X002052Y004912D01*
X001950Y005014D01*
X001815Y005070D01*
X001670Y005070D01*
X001536Y005014D01*
X001433Y004912D01*
X001378Y004778D01*
X001378Y004632D01*
X001433Y004498D01*
X001536Y004396D01*
X001670Y004340D01*
X001815Y004340D01*
X001950Y004396D01*
X002052Y004498D01*
X002108Y004632D01*
X002108Y004778D01*
X002063Y004885D02*
X005261Y004885D01*
X005202Y004944D02*
X002020Y004944D01*
X001962Y005002D02*
X005144Y005002D01*
X005085Y005061D02*
X001838Y005061D01*
X001815Y005340D02*
X001950Y005396D01*
X002052Y005498D01*
X002108Y005632D01*
X002108Y005778D01*
X002052Y005912D01*
X001950Y006014D01*
X001815Y006070D01*
X001670Y006070D01*
X001536Y006014D01*
X001433Y005912D01*
X001378Y005778D01*
X001378Y005632D01*
X001433Y005498D01*
X001536Y005396D01*
X001670Y005340D01*
X001815Y005340D01*
X001847Y005353D02*
X004793Y005353D01*
X004851Y005295D02*
X001353Y005295D01*
X001353Y005353D02*
X001639Y005353D01*
X001520Y005412D02*
X001353Y005412D01*
X001353Y005470D02*
X001462Y005470D01*
X001421Y005529D02*
X001353Y005529D01*
X001353Y005587D02*
X001397Y005587D01*
X001378Y005646D02*
X001353Y005646D01*
X001353Y005704D02*
X001378Y005704D01*
X001378Y005763D02*
X001353Y005763D01*
X001353Y005821D02*
X001396Y005821D01*
X001420Y005880D02*
X001353Y005880D01*
X001353Y005938D02*
X001460Y005938D01*
X001518Y005997D02*
X001353Y005997D01*
X001353Y006055D02*
X001634Y006055D01*
X001852Y006055D02*
X004343Y006055D01*
X004343Y005997D02*
X001967Y005997D01*
X002026Y005938D02*
X004343Y005938D01*
X004343Y005880D02*
X002066Y005880D01*
X002090Y005821D02*
X004343Y005821D01*
X004383Y005763D02*
X002108Y005763D01*
X002108Y005704D02*
X004442Y005704D01*
X004500Y005646D02*
X002108Y005646D01*
X002089Y005587D02*
X004559Y005587D01*
X004617Y005529D02*
X002065Y005529D01*
X002024Y005470D02*
X004676Y005470D01*
X004734Y005412D02*
X001966Y005412D01*
X001647Y005061D02*
X001353Y005061D01*
X001353Y005119D02*
X005027Y005119D01*
X004968Y005178D02*
X001353Y005178D01*
X001353Y005236D02*
X004910Y005236D01*
X004965Y004651D02*
X002108Y004651D01*
X002091Y004593D02*
X004906Y004593D01*
X004848Y004534D02*
X002067Y004534D01*
X002030Y004476D02*
X004834Y004476D01*
X004834Y004417D02*
X001971Y004417D01*
X001860Y004359D02*
X004834Y004359D01*
X004864Y004300D02*
X001353Y004300D01*
X001353Y004242D02*
X004922Y004242D01*
X004343Y006114D02*
X001353Y006114D01*
X001353Y006172D02*
X004343Y006172D01*
X004343Y006231D02*
X001353Y006231D01*
X001353Y006289D02*
X004343Y006289D01*
X004343Y006348D02*
X001834Y006348D01*
X001815Y006340D02*
X001950Y006396D01*
X002052Y006498D01*
X002108Y006632D01*
X002108Y006778D01*
X002052Y006912D01*
X001950Y007014D01*
X001815Y007070D01*
X001670Y007070D01*
X001536Y007014D01*
X001433Y006912D01*
X001378Y006778D01*
X001378Y006632D01*
X001433Y006498D01*
X001536Y006396D01*
X001670Y006340D01*
X001815Y006340D01*
X001960Y006406D02*
X004343Y006406D01*
X004343Y006465D02*
X002019Y006465D01*
X002063Y006523D02*
X004343Y006523D01*
X004343Y006582D02*
X002087Y006582D01*
X002108Y006640D02*
X004343Y006640D01*
X004343Y006699D02*
X002108Y006699D01*
X002108Y006757D02*
X004343Y006757D01*
X004343Y006816D02*
X002092Y006816D01*
X002068Y006874D02*
X004343Y006874D01*
X004343Y006933D02*
X002031Y006933D01*
X001973Y006991D02*
X004343Y006991D01*
X004343Y007050D02*
X001865Y007050D01*
X001621Y007050D02*
X001353Y007050D01*
X001353Y007108D02*
X004343Y007108D01*
X004343Y007167D02*
X001353Y007167D01*
X001353Y007225D02*
X004343Y007225D01*
X004343Y007284D02*
X001353Y007284D01*
X001353Y007342D02*
X001665Y007342D01*
X001670Y007340D02*
X001815Y007340D01*
X001950Y007396D01*
X002052Y007498D01*
X002108Y007632D01*
X002108Y007778D01*
X002052Y007912D01*
X001950Y008014D01*
X001815Y008070D01*
X001670Y008070D01*
X001536Y008014D01*
X001433Y007912D01*
X001378Y007778D01*
X001378Y007632D01*
X001433Y007498D01*
X001536Y007396D01*
X001670Y007340D01*
X001531Y007401D02*
X001353Y007401D01*
X001353Y007459D02*
X001473Y007459D01*
X001425Y007518D02*
X001353Y007518D01*
X001353Y007576D02*
X001401Y007576D01*
X001378Y007635D02*
X001353Y007635D01*
X001353Y007693D02*
X001378Y007693D01*
X001378Y007752D02*
X001353Y007752D01*
X001353Y007810D02*
X001391Y007810D01*
X001415Y007869D02*
X001353Y007869D01*
X001353Y007927D02*
X001449Y007927D01*
X001507Y007986D02*
X001353Y007986D01*
X001353Y008044D02*
X001608Y008044D01*
X001878Y008044D02*
X003089Y008044D01*
X003147Y007986D02*
X001978Y007986D01*
X002037Y007927D02*
X003206Y007927D01*
X003264Y007869D02*
X002070Y007869D01*
X002094Y007810D02*
X003323Y007810D01*
X003472Y007752D02*
X002108Y007752D01*
X002108Y007693D02*
X003531Y007693D01*
X003498Y008044D02*
X003456Y008044D01*
X003398Y008103D02*
X003556Y008103D01*
X003640Y008220D02*
X004123Y008220D01*
X004123Y008161D02*
X003339Y008161D01*
X003343Y008220D02*
X003281Y008220D01*
X003285Y008278D02*
X003222Y008278D01*
X003263Y008337D02*
X003164Y008337D01*
X003105Y008395D02*
X003263Y008395D01*
X003249Y008454D02*
X003047Y008454D01*
X002988Y008512D02*
X003191Y008512D01*
X003132Y008571D02*
X002930Y008571D01*
X002871Y008629D02*
X003074Y008629D01*
X003015Y008688D02*
X002813Y008688D01*
X002754Y008746D02*
X002957Y008746D01*
X002898Y008805D02*
X002696Y008805D01*
X002637Y008863D02*
X002840Y008863D01*
X002781Y008922D02*
X002579Y008922D01*
X002520Y008980D02*
X002723Y008980D01*
X002664Y009039D02*
X002462Y009039D01*
X002403Y009097D02*
X002606Y009097D01*
X002547Y009156D02*
X002345Y009156D01*
X002333Y009214D02*
X002489Y009214D01*
X002430Y009273D02*
X002333Y009273D01*
X002333Y009331D02*
X002372Y009331D01*
X002094Y009039D02*
X001891Y009039D01*
X001950Y009014D02*
X001815Y009070D01*
X001670Y009070D01*
X001536Y009014D01*
X001433Y008912D01*
X001378Y008778D01*
X001378Y008632D01*
X001433Y008498D01*
X001536Y008396D01*
X001670Y008340D01*
X001815Y008340D01*
X001950Y008396D01*
X002052Y008498D01*
X002108Y008632D01*
X002108Y008778D01*
X002052Y008912D01*
X001950Y009014D01*
X001984Y008980D02*
X002153Y008980D01*
X002211Y008922D02*
X002042Y008922D01*
X002072Y008863D02*
X002270Y008863D01*
X002328Y008805D02*
X002097Y008805D01*
X002108Y008746D02*
X002387Y008746D01*
X002445Y008688D02*
X002108Y008688D01*
X002106Y008629D02*
X002504Y008629D01*
X002562Y008571D02*
X002082Y008571D01*
X002058Y008512D02*
X002621Y008512D01*
X002679Y008454D02*
X002008Y008454D01*
X001948Y008395D02*
X002738Y008395D01*
X002796Y008337D02*
X001353Y008337D01*
X001353Y008395D02*
X001537Y008395D01*
X001478Y008454D02*
X001353Y008454D01*
X001353Y008512D02*
X001428Y008512D01*
X001403Y008571D02*
X001353Y008571D01*
X001353Y008629D02*
X001379Y008629D01*
X001378Y008688D02*
X001353Y008688D01*
X001353Y008746D02*
X001378Y008746D01*
X001389Y008805D02*
X001353Y008805D01*
X001353Y008863D02*
X001413Y008863D01*
X001443Y008922D02*
X001353Y008922D01*
X001353Y008980D02*
X001502Y008980D01*
X001594Y009039D02*
X001353Y009039D01*
X001353Y009097D02*
X002073Y009097D01*
X002073Y009156D02*
X001353Y009156D01*
X001353Y009214D02*
X002073Y009214D01*
X002073Y009273D02*
X001353Y009273D01*
X001353Y009331D02*
X002073Y009331D01*
X002073Y009390D02*
X001935Y009390D01*
X002002Y009448D02*
X002073Y009448D01*
X002073Y009507D02*
X002056Y009507D01*
X002048Y009916D02*
X002073Y009916D01*
X002073Y009975D02*
X001989Y009975D01*
X001905Y010033D02*
X002073Y010033D01*
X002073Y010092D02*
X001353Y010092D01*
X001353Y010150D02*
X002073Y010150D01*
X002138Y010384D02*
X001922Y010384D01*
X001997Y010443D02*
X002196Y010443D01*
X002626Y009916D02*
X006570Y009916D01*
X006546Y009975D02*
X006628Y009975D01*
X006605Y010033D02*
X006687Y010033D01*
X006663Y010092D02*
X006745Y010092D01*
X006804Y010150D02*
X006672Y010150D01*
X006672Y010209D02*
X006862Y010209D01*
X006921Y010267D02*
X006672Y010267D01*
X006636Y010326D02*
X006979Y010326D01*
X007038Y010384D02*
X006578Y010384D01*
X006463Y010501D02*
X006302Y010501D01*
X006302Y010560D02*
X006404Y010560D01*
X006364Y010618D02*
X006302Y010618D01*
X006302Y010677D02*
X006364Y010677D01*
X006364Y010735D02*
X006247Y010735D01*
X006188Y010794D02*
X006367Y010794D01*
X006254Y010443D02*
X007096Y010443D01*
X007155Y010501D02*
X006723Y010501D01*
X006781Y010560D02*
X007214Y010560D01*
X007272Y010618D02*
X006822Y010618D01*
X006822Y010677D02*
X007331Y010677D01*
X007363Y010735D02*
X006822Y010735D01*
X006818Y010794D02*
X007363Y010794D01*
X007363Y010852D02*
X006760Y010852D01*
X006701Y010911D02*
X007363Y010911D01*
X007335Y011437D02*
X007363Y011437D01*
X007363Y011496D02*
X007276Y011496D01*
X007363Y011554D02*
X002075Y011554D01*
X002100Y011613D02*
X007363Y011613D01*
X007363Y011671D02*
X002108Y011671D01*
X002108Y011730D02*
X007363Y011730D01*
X007363Y011788D02*
X002103Y011788D01*
X002079Y011847D02*
X003545Y011847D01*
X003449Y011905D02*
X002055Y011905D01*
X002000Y011964D02*
X003391Y011964D01*
X004395Y013543D02*
X006090Y013543D01*
X006066Y013602D02*
X004420Y013602D01*
X004439Y013660D02*
X006047Y013660D01*
X006047Y013719D02*
X004439Y013719D01*
X004433Y013777D02*
X006053Y013777D01*
X006077Y013836D02*
X004408Y013836D01*
X004369Y013894D02*
X006116Y013894D01*
X006179Y013953D02*
X004306Y013953D01*
X004661Y012958D02*
X005824Y012958D01*
X005822Y012900D02*
X004663Y012900D01*
X004663Y012841D02*
X005822Y012841D01*
X005840Y012783D02*
X004645Y012783D01*
X004587Y012724D02*
X004768Y012724D01*
X005007Y012256D02*
X007798Y012256D01*
X007856Y012198D02*
X004949Y012198D01*
X004890Y012139D02*
X008093Y012139D01*
X008091Y012081D02*
X008093Y012081D01*
X008093Y012198D02*
X008049Y012198D01*
X007834Y012081D02*
X004832Y012081D01*
X004773Y012022D02*
X007576Y012022D01*
X007518Y011964D02*
X004715Y011964D01*
X004656Y011905D02*
X007459Y011905D01*
X007401Y011847D02*
X004560Y011847D01*
X006196Y010384D02*
X006308Y010384D01*
X006511Y009858D02*
X002672Y009858D01*
X003090Y008980D02*
X005234Y008980D01*
X005175Y008922D02*
X003149Y008922D01*
X003207Y008863D02*
X005117Y008863D01*
X005058Y008805D02*
X003266Y008805D01*
X003324Y008746D02*
X005000Y008746D01*
X004941Y008688D02*
X003383Y008688D01*
X003441Y008629D02*
X004173Y008629D01*
X004114Y008571D02*
X003640Y008571D01*
X003699Y008512D02*
X004056Y008512D01*
X004044Y008454D02*
X003721Y008454D01*
X003721Y008395D02*
X004044Y008395D01*
X004044Y008337D02*
X003721Y008337D01*
X003699Y008278D02*
X004076Y008278D01*
X004123Y008103D02*
X003769Y008103D01*
X003828Y008044D02*
X004182Y008044D01*
X004240Y007986D02*
X003886Y007986D01*
X003892Y007927D02*
X004299Y007927D01*
X004343Y007869D02*
X003892Y007869D01*
X003892Y007810D02*
X004343Y007810D01*
X004343Y007752D02*
X003853Y007752D01*
X003795Y007693D02*
X004343Y007693D01*
X004343Y007635D02*
X002108Y007635D01*
X002084Y007576D02*
X004343Y007576D01*
X004343Y007518D02*
X002060Y007518D01*
X002013Y007459D02*
X004343Y007459D01*
X004343Y007401D02*
X001955Y007401D01*
X001820Y007342D02*
X004343Y007342D01*
X004643Y007986D02*
X004914Y007986D01*
X004968Y008044D02*
X004606Y008044D01*
X004547Y008103D02*
X005001Y008103D01*
X004943Y008161D02*
X004489Y008161D01*
X004430Y008220D02*
X004624Y008220D01*
X004566Y008278D02*
X004470Y008278D01*
X004502Y008337D02*
X004524Y008337D01*
X004524Y008395D02*
X004502Y008395D01*
X004502Y008454D02*
X004524Y008454D01*
X004526Y008512D02*
X004490Y008512D01*
X004431Y008571D02*
X004584Y008571D01*
X004643Y008629D02*
X004373Y008629D01*
X004863Y008629D02*
X004883Y008629D01*
X004881Y008220D02*
X004884Y008220D01*
X006423Y007927D02*
X008449Y007927D01*
X008433Y007912D02*
X008378Y007778D01*
X008378Y007632D01*
X008433Y007498D01*
X008536Y007396D01*
X008670Y007340D01*
X008815Y007340D01*
X008950Y007396D01*
X009052Y007498D01*
X009108Y007632D01*
X009108Y007778D01*
X009052Y007912D01*
X008950Y008014D01*
X008815Y008070D01*
X008670Y008070D01*
X008536Y008014D01*
X008433Y007912D01*
X008415Y007869D02*
X006481Y007869D01*
X006540Y007810D02*
X008391Y007810D01*
X008378Y007752D02*
X006598Y007752D01*
X006657Y007693D02*
X008378Y007693D01*
X008378Y007635D02*
X006715Y007635D01*
X006774Y007576D02*
X008401Y007576D01*
X008425Y007518D02*
X006832Y007518D01*
X006891Y007459D02*
X008473Y007459D01*
X008531Y007401D02*
X006949Y007401D01*
X007008Y007342D02*
X008665Y007342D01*
X008820Y007342D02*
X009133Y007342D01*
X009133Y007284D02*
X007066Y007284D01*
X007125Y007225D02*
X009133Y007225D01*
X009133Y007167D02*
X007143Y007167D01*
X007143Y007108D02*
X009133Y007108D01*
X009133Y007050D02*
X008865Y007050D01*
X008815Y007070D02*
X008670Y007070D01*
X008536Y007014D01*
X008433Y006912D01*
X008378Y006778D01*
X008378Y006632D01*
X008433Y006498D01*
X008536Y006396D01*
X008670Y006340D01*
X008815Y006340D01*
X008950Y006396D01*
X009052Y006498D01*
X009108Y006632D01*
X009108Y006778D01*
X009052Y006912D01*
X008950Y007014D01*
X008815Y007070D01*
X008973Y006991D02*
X009133Y006991D01*
X009133Y006933D02*
X009031Y006933D01*
X009068Y006874D02*
X009133Y006874D01*
X009133Y006816D02*
X009092Y006816D01*
X009108Y006757D02*
X009133Y006757D01*
X009133Y006699D02*
X009108Y006699D01*
X009108Y006640D02*
X009133Y006640D01*
X009133Y006582D02*
X009087Y006582D01*
X009063Y006523D02*
X009133Y006523D01*
X009133Y006465D02*
X009019Y006465D01*
X008960Y006406D02*
X009133Y006406D01*
X009133Y006348D02*
X008834Y006348D01*
X008652Y006348D02*
X007143Y006348D01*
X007143Y006406D02*
X008526Y006406D01*
X008467Y006465D02*
X007143Y006465D01*
X007143Y006523D02*
X008423Y006523D01*
X008399Y006582D02*
X007143Y006582D01*
X007143Y006640D02*
X008378Y006640D01*
X008378Y006699D02*
X007143Y006699D01*
X007143Y006757D02*
X008378Y006757D01*
X008394Y006816D02*
X007143Y006816D01*
X007143Y006874D02*
X008418Y006874D01*
X008454Y006933D02*
X007143Y006933D01*
X007143Y006991D02*
X008513Y006991D01*
X008621Y007050D02*
X007143Y007050D01*
X007143Y006289D02*
X009133Y006289D01*
X009133Y006231D02*
X007143Y006231D01*
X007143Y006172D02*
X009133Y006172D01*
X009133Y006114D02*
X007178Y006114D01*
X006547Y007986D02*
X008138Y007986D01*
X008148Y007976D02*
X008338Y007976D01*
X008472Y008110D01*
X008472Y008300D01*
X008338Y008434D01*
X008148Y008434D01*
X008014Y008300D01*
X008014Y008110D01*
X008148Y007976D01*
X008080Y008044D02*
X006606Y008044D01*
X006662Y008103D02*
X006671Y008103D01*
X006914Y008103D02*
X008021Y008103D01*
X008014Y008161D02*
X006973Y008161D01*
X007022Y008220D02*
X008014Y008220D01*
X008014Y008278D02*
X007022Y008278D01*
X007022Y008337D02*
X008050Y008337D01*
X008109Y008395D02*
X007022Y008395D01*
X006968Y008454D02*
X008478Y008454D01*
X008433Y008498D02*
X008536Y008396D01*
X008670Y008340D01*
X008815Y008340D01*
X008950Y008396D01*
X009052Y008498D01*
X009108Y008632D01*
X009108Y008778D01*
X009052Y008912D01*
X008950Y009014D01*
X008815Y009070D01*
X008670Y009070D01*
X008536Y009014D01*
X008433Y008912D01*
X008378Y008778D01*
X008378Y008632D01*
X008433Y008498D01*
X008428Y008512D02*
X006910Y008512D01*
X006892Y008571D02*
X008403Y008571D01*
X008379Y008629D02*
X006892Y008629D01*
X006892Y008688D02*
X008378Y008688D01*
X008378Y008746D02*
X006866Y008746D01*
X006807Y008805D02*
X008389Y008805D01*
X008413Y008863D02*
X006663Y008863D01*
X006721Y008922D02*
X008443Y008922D01*
X008502Y008980D02*
X006780Y008980D01*
X006838Y009039D02*
X008594Y009039D01*
X008670Y009340D02*
X008536Y009396D01*
X008433Y009498D01*
X008378Y009632D01*
X008378Y009778D01*
X008433Y009912D01*
X008536Y010014D01*
X008670Y010070D01*
X008815Y010070D01*
X008950Y010014D01*
X009052Y009912D01*
X009108Y009778D01*
X009108Y009632D01*
X009052Y009498D01*
X008950Y009396D01*
X008815Y009340D01*
X008670Y009340D01*
X008551Y009390D02*
X007189Y009390D01*
X007131Y009331D02*
X009133Y009331D01*
X009133Y009273D02*
X007072Y009273D01*
X007014Y009214D02*
X009133Y009214D01*
X009133Y009156D02*
X006955Y009156D01*
X006897Y009097D02*
X009133Y009097D01*
X009133Y009039D02*
X008891Y009039D01*
X008984Y008980D02*
X009133Y008980D01*
X009133Y008922D02*
X009042Y008922D01*
X009072Y008863D02*
X009133Y008863D01*
X009133Y008805D02*
X009097Y008805D01*
X009108Y008746D02*
X009133Y008746D01*
X009133Y008688D02*
X009108Y008688D01*
X009106Y008629D02*
X009133Y008629D01*
X009133Y008571D02*
X009082Y008571D01*
X009058Y008512D02*
X009133Y008512D01*
X009133Y008454D02*
X009008Y008454D01*
X008948Y008395D02*
X009133Y008395D01*
X009133Y008337D02*
X008435Y008337D01*
X008472Y008278D02*
X009133Y008278D01*
X009133Y008220D02*
X008472Y008220D01*
X008472Y008161D02*
X009133Y008161D01*
X009133Y008103D02*
X008464Y008103D01*
X008406Y008044D02*
X008608Y008044D01*
X008507Y007986D02*
X008347Y007986D01*
X008377Y008395D02*
X008537Y008395D01*
X008878Y008044D02*
X009133Y008044D01*
X009133Y007986D02*
X008978Y007986D01*
X009037Y007927D02*
X009133Y007927D01*
X009133Y007869D02*
X009070Y007869D01*
X009094Y007810D02*
X009133Y007810D01*
X009133Y007752D02*
X009108Y007752D01*
X009108Y007693D02*
X009133Y007693D01*
X009133Y007635D02*
X009108Y007635D01*
X009084Y007576D02*
X009133Y007576D01*
X009133Y007518D02*
X009060Y007518D01*
X009013Y007459D02*
X009133Y007459D01*
X009133Y007401D02*
X008955Y007401D01*
X008935Y009390D02*
X009133Y009390D01*
X009133Y009448D02*
X009002Y009448D01*
X009056Y009507D02*
X009133Y009507D01*
X009133Y009565D02*
X009080Y009565D01*
X009104Y009624D02*
X009133Y009624D01*
X009133Y009682D02*
X009108Y009682D01*
X009108Y009741D02*
X009133Y009741D01*
X009133Y009799D02*
X009099Y009799D01*
X009075Y009858D02*
X009133Y009858D01*
X009133Y009916D02*
X009048Y009916D01*
X008989Y009975D02*
X009133Y009975D01*
X009133Y010033D02*
X008905Y010033D01*
X009133Y010092D02*
X007891Y010092D01*
X007833Y010033D02*
X008581Y010033D01*
X008496Y009975D02*
X008117Y009975D01*
X008176Y009916D02*
X008438Y009916D01*
X008411Y009858D02*
X008234Y009858D01*
X008242Y009799D02*
X008387Y009799D01*
X008378Y009741D02*
X008242Y009741D01*
X008242Y009682D02*
X008378Y009682D01*
X008381Y009624D02*
X008205Y009624D01*
X008147Y009565D02*
X008406Y009565D01*
X008430Y009507D02*
X007858Y009507D01*
X007800Y009448D02*
X008484Y009448D01*
X007950Y010150D02*
X009133Y010150D01*
X009133Y010209D02*
X008008Y010209D01*
X008067Y010267D02*
X009133Y010267D01*
X009133Y010326D02*
X008125Y010326D01*
X008184Y010384D02*
X008564Y010384D01*
X008489Y010443D02*
X008242Y010443D01*
X008301Y010501D02*
X008432Y010501D01*
X008922Y010384D02*
X009133Y010384D01*
X009133Y010443D02*
X008997Y010443D01*
X009053Y010501D02*
X009133Y010501D01*
X009133Y010560D02*
X009078Y010560D01*
X009102Y010618D02*
X009133Y010618D01*
X009133Y010677D02*
X009108Y010677D01*
X009108Y010735D02*
X009133Y010735D01*
X009133Y010794D02*
X009101Y010794D01*
X009077Y010852D02*
X009133Y010852D01*
X009133Y010911D02*
X009053Y010911D01*
X008995Y010969D02*
X009133Y010969D01*
X009133Y011028D02*
X008933Y011028D01*
X008933Y011086D02*
X009133Y011086D01*
X009133Y011145D02*
X008892Y011145D01*
X008833Y011203D02*
X009133Y011203D01*
X009133Y011262D02*
X008775Y011262D01*
X008716Y011320D02*
X009133Y011320D01*
X009133Y011379D02*
X008908Y011379D01*
X008991Y011437D02*
X009133Y011437D01*
X009133Y011496D02*
X009050Y011496D01*
X009075Y011554D02*
X009133Y011554D01*
X009133Y011613D02*
X009100Y011613D01*
X009108Y011671D02*
X009133Y011671D01*
X009133Y011730D02*
X009108Y011730D01*
X009103Y011788D02*
X009133Y011788D01*
X009133Y011847D02*
X009079Y011847D01*
X009055Y011905D02*
X009133Y011905D01*
X009133Y011964D02*
X009000Y011964D01*
X008931Y012022D02*
X009133Y012022D01*
X009133Y012081D02*
X008473Y012081D01*
X008473Y012139D02*
X009133Y012139D01*
X009133Y012198D02*
X008473Y012198D01*
X008473Y012256D02*
X009133Y012256D01*
X009133Y012315D02*
X008856Y012315D01*
X008773Y012315D02*
X008713Y012315D01*
X008713Y012373D02*
X008773Y012373D01*
X008773Y012432D02*
X008713Y012432D01*
X008713Y012490D02*
X008773Y012490D01*
X008773Y012549D02*
X008713Y012549D01*
X008713Y012607D02*
X008773Y012607D01*
X008773Y012666D02*
X008713Y012666D01*
X008713Y012783D02*
X008773Y012783D01*
X008773Y012841D02*
X008713Y012841D01*
X008713Y012900D02*
X008773Y012900D01*
X008773Y012958D02*
X008713Y012958D01*
X008713Y013017D02*
X008773Y013017D01*
X008773Y013075D02*
X008713Y013075D01*
X008578Y013075D02*
X008031Y013075D01*
X007973Y013134D02*
X009133Y013134D01*
X009133Y013192D02*
X007914Y013192D01*
X007902Y013251D02*
X009133Y013251D01*
X009133Y013309D02*
X007902Y013309D01*
X007902Y013368D02*
X009133Y013368D01*
X009133Y013426D02*
X007902Y013426D01*
X007857Y013485D02*
X009133Y013485D01*
X009133Y013543D02*
X007799Y013543D01*
X007547Y013543D02*
X006580Y013543D01*
X006605Y013602D02*
X009133Y013602D01*
X009133Y013660D02*
X006624Y013660D01*
X006624Y013719D02*
X009133Y013719D01*
X009133Y013777D02*
X006618Y013777D01*
X006593Y013836D02*
X009133Y013836D01*
X009133Y013894D02*
X006554Y013894D01*
X006491Y013953D02*
X009133Y013953D01*
X009133Y013075D02*
X008908Y013075D01*
X009004Y013017D02*
X009133Y013017D01*
X009133Y012958D02*
X009061Y012958D01*
X009100Y012900D02*
X009133Y012900D01*
X009125Y012841D02*
X009133Y012841D01*
X009116Y012549D02*
X009133Y012549D01*
X009133Y012490D02*
X009086Y012490D01*
X009042Y012432D02*
X009133Y012432D01*
X009133Y012373D02*
X008975Y012373D01*
X008630Y012315D02*
X008473Y012315D01*
X008473Y012373D02*
X008511Y012373D01*
X008345Y012783D02*
X008324Y012783D01*
X008361Y012841D02*
X008265Y012841D01*
X008207Y012900D02*
X008386Y012900D01*
X008425Y012958D02*
X008148Y012958D01*
X008090Y013017D02*
X008482Y013017D01*
X007904Y012666D02*
X007057Y012666D01*
X007086Y012724D02*
X007845Y012724D01*
X007787Y012783D02*
X007103Y012783D01*
X007103Y012841D02*
X007728Y012841D01*
X007670Y012900D02*
X007088Y012900D01*
X007063Y012958D02*
X007611Y012958D01*
X007553Y013017D02*
X007005Y013017D01*
X006701Y013017D02*
X006693Y013017D01*
X006684Y013075D02*
X007494Y013075D01*
X007483Y013134D02*
X006660Y013134D01*
X006609Y013192D02*
X007483Y013192D01*
X007444Y013251D02*
X006551Y013251D01*
X006492Y013309D02*
X007444Y013309D01*
X007444Y013368D02*
X006434Y013368D01*
X006416Y013426D02*
X007444Y013426D01*
X007488Y013485D02*
X006523Y013485D01*
X006998Y012607D02*
X007811Y012607D01*
X007752Y012549D02*
X006940Y012549D01*
X006881Y012490D02*
X007724Y012490D01*
X007724Y012432D02*
X006823Y012432D01*
X006764Y012373D02*
X007724Y012373D01*
X007739Y012315D02*
X006706Y012315D01*
X007774Y009975D02*
X007908Y009975D01*
X007850Y009916D02*
X007716Y009916D01*
X007784Y009858D02*
X007791Y009858D01*
X007487Y009507D02*
X007306Y009507D01*
X007248Y009448D02*
X007546Y009448D01*
X007444Y009565D02*
X007365Y009565D01*
X007423Y009624D02*
X007444Y009624D01*
X008473Y011964D02*
X008485Y011964D01*
X008473Y012022D02*
X008554Y012022D01*
X009133Y003247D02*
X001353Y003247D01*
X001353Y003189D02*
X009133Y003189D01*
X009133Y003130D02*
X001353Y003130D01*
X001353Y003072D02*
X009133Y003072D01*
X009133Y003013D02*
X008951Y003013D01*
X009009Y002955D02*
X009133Y002955D01*
X009133Y002896D02*
X009059Y002896D01*
X009083Y002838D02*
X009133Y002838D01*
X009133Y002779D02*
X009107Y002779D01*
X009108Y002721D02*
X009133Y002721D01*
X009133Y002662D02*
X009108Y002662D01*
X009096Y002604D02*
X009133Y002604D01*
X009133Y002545D02*
X009072Y002545D01*
X009041Y002487D02*
X009133Y002487D01*
X009133Y002428D02*
X008982Y002428D01*
X008887Y002370D02*
X009133Y002370D01*
X009133Y002194D02*
X007278Y002194D01*
X007336Y002136D02*
X009133Y002136D01*
X009133Y002077D02*
X007372Y002077D01*
X007372Y002019D02*
X008546Y002019D01*
X008482Y001960D02*
X007372Y001960D01*
X007363Y001902D02*
X008429Y001902D01*
X008405Y001843D02*
X007305Y001843D01*
X007246Y001785D02*
X008381Y001785D01*
X008940Y002019D02*
X009133Y002019D01*
X009133Y001960D02*
X009004Y001960D01*
X009056Y001902D02*
X009133Y001902D01*
X009133Y001843D02*
X009081Y001843D01*
X009105Y001785D02*
X009133Y001785D01*
X009133Y001726D02*
X009108Y001726D01*
X009108Y001668D02*
X009133Y001668D01*
X009133Y001609D02*
X009098Y001609D01*
X009074Y001551D02*
X009133Y001551D01*
X008390Y002604D02*
X002655Y002604D01*
X002714Y002662D02*
X008378Y002662D01*
X008378Y002721D02*
X002772Y002721D01*
X002772Y002779D02*
X008378Y002779D01*
X008403Y002838D02*
X002772Y002838D01*
X002772Y002896D02*
X008427Y002896D01*
X008476Y002955D02*
X002727Y002955D01*
X002669Y003013D02*
X008535Y003013D01*
X004099Y002136D02*
X001353Y002136D01*
X001353Y002077D02*
X004041Y002077D01*
X001661Y004066D02*
X001353Y004066D01*
X001353Y004008D02*
X001529Y004008D01*
X001471Y003949D02*
X001353Y003949D01*
X001353Y003891D02*
X001425Y003891D01*
X001400Y003832D02*
X001353Y003832D01*
X001353Y003774D02*
X001378Y003774D01*
X001378Y003715D02*
X001353Y003715D01*
X001353Y003657D02*
X001378Y003657D01*
X001392Y003598D02*
X001353Y003598D01*
X001353Y003540D02*
X001416Y003540D01*
X001451Y003481D02*
X001353Y003481D01*
X001353Y003423D02*
X001509Y003423D01*
X001625Y004359D02*
X001353Y004359D01*
X001353Y004417D02*
X001515Y004417D01*
X001456Y004476D02*
X001353Y004476D01*
X001353Y004534D02*
X001419Y004534D01*
X001394Y004593D02*
X001353Y004593D01*
X001353Y004651D02*
X001378Y004651D01*
X001378Y004710D02*
X001353Y004710D01*
X001353Y004768D02*
X001378Y004768D01*
X001398Y004827D02*
X001353Y004827D01*
X001353Y004885D02*
X001422Y004885D01*
X001465Y004944D02*
X001353Y004944D01*
X001353Y005002D02*
X001524Y005002D01*
X001652Y006348D02*
X001353Y006348D01*
X001353Y006406D02*
X001526Y006406D01*
X001467Y006465D02*
X001353Y006465D01*
X001353Y006523D02*
X001423Y006523D01*
X001399Y006582D02*
X001353Y006582D01*
X001353Y006640D02*
X001378Y006640D01*
X001378Y006699D02*
X001353Y006699D01*
X001353Y006757D02*
X001378Y006757D01*
X001394Y006816D02*
X001353Y006816D01*
X001353Y006874D02*
X001418Y006874D01*
X001454Y006933D02*
X001353Y006933D01*
X001353Y006991D02*
X001513Y006991D01*
X001353Y008103D02*
X003030Y008103D01*
X002972Y008161D02*
X001353Y008161D01*
X001353Y008220D02*
X002913Y008220D01*
X002855Y008278D02*
X001353Y008278D01*
X001353Y009390D02*
X001551Y009390D01*
X001484Y009448D02*
X001353Y009448D01*
X001353Y009507D02*
X001430Y009507D01*
X001406Y009565D02*
X001353Y009565D01*
X001353Y009624D02*
X001381Y009624D01*
X001378Y009682D02*
X001353Y009682D01*
X001353Y009741D02*
X001378Y009741D01*
X001387Y009799D02*
X001353Y009799D01*
X001353Y009858D02*
X001411Y009858D01*
X001438Y009916D02*
X001353Y009916D01*
X001353Y009975D02*
X001496Y009975D01*
X001581Y010033D02*
X001353Y010033D01*
X001353Y002019D02*
X001546Y002019D01*
X001482Y001960D02*
X001353Y001960D01*
X001353Y001902D02*
X001429Y001902D01*
X001405Y001843D02*
X001353Y001843D01*
X001353Y001785D02*
X001381Y001785D01*
X001378Y001726D02*
X001353Y001726D01*
X001353Y001668D02*
X001378Y001668D01*
X001387Y001609D02*
X001353Y001609D01*
X001353Y001551D02*
X001412Y001551D01*
D15*
X008743Y012705D02*
X008743Y013125D01*
D16*
X008743Y010705D02*
X008293Y010705D01*
X006393Y008805D01*
X006393Y008235D01*
X006433Y008195D01*
X006083Y008055D02*
X006993Y007145D01*
X006993Y005975D01*
X006083Y008055D02*
X006083Y008605D01*
X005143Y007895D02*
X004743Y007495D01*
X004743Y006035D01*
X006923Y003855D01*
X006433Y003925D02*
X004493Y005865D01*
X004493Y007945D01*
X004273Y008165D01*
X004273Y008405D01*
D17*
X004993Y008295D02*
X005143Y008145D01*
X005413Y008145D01*
X005563Y008295D01*
X005493Y008555D02*
X005443Y008555D01*
X005293Y008405D01*
X005233Y008405D01*
X004993Y008555D02*
X005293Y008855D01*
X005693Y008855D01*
X007493Y010655D01*
X007493Y011755D01*
X007643Y011905D01*
X007943Y011905D01*
X007963Y011885D01*
X007803Y011585D02*
X007693Y011475D01*
X007693Y010605D01*
X005743Y008655D01*
X005593Y008655D01*
X005493Y008555D01*
X004993Y008555D02*
X004993Y008295D01*
X003663Y007885D02*
X003432Y007885D01*
X002203Y009114D01*
X002203Y010125D01*
X002343Y010265D01*
X002443Y009775D02*
X002443Y009444D01*
X003492Y008395D01*
D18*
X007673Y013165D02*
X008283Y012555D01*
X008283Y011485D01*
X008743Y011025D01*
X008743Y010705D01*
X007673Y013165D02*
X007673Y013345D01*
M02*
