G75*
G70*
%OFA0B0*%
%FSLAX24Y24*%
%IPPOS*%
%LPD*%
%AMOC8*
5,1,8,0,0,1.08239X$1,22.5*
%
%ADD10C,0.0050*%
%ADD11C,0.0040*%
%ADD12R,0.0280X0.0160*%
%ADD13C,0.0080*%
%ADD14C,0.0020*%
%ADD15C,0.0160*%
%ADD16R,0.0160X0.0280*%
D10*
X002248Y000555D02*
X002338Y000645D01*
X002518Y000645D01*
X002473Y000760D02*
X002293Y000940D01*
X002473Y000940D01*
X002518Y000895D01*
X002518Y000805D01*
X002473Y000760D01*
X002293Y000760D01*
X002248Y000805D01*
X002248Y000895D01*
X002293Y000940D01*
X002383Y000645D02*
X002383Y000465D01*
X002338Y000465D02*
X002248Y000555D01*
X002338Y000465D02*
X002518Y000465D01*
X002518Y001465D02*
X002338Y001465D01*
X002248Y001555D01*
X002338Y001645D01*
X002518Y001645D01*
X002518Y001760D02*
X002518Y001940D01*
X002518Y001850D02*
X002248Y001850D01*
X002338Y001760D01*
X002383Y001645D02*
X002383Y001465D01*
X002383Y002465D02*
X002383Y002645D01*
X002338Y002645D02*
X002518Y002645D01*
X002518Y002760D02*
X002338Y002940D01*
X002293Y002940D01*
X002248Y002895D01*
X002248Y002805D01*
X002293Y002760D01*
X002338Y002645D02*
X002248Y002555D01*
X002338Y002465D01*
X002518Y002465D01*
X002518Y002760D02*
X002518Y002940D01*
X002518Y003465D02*
X002338Y003465D01*
X002248Y003555D01*
X002338Y003645D01*
X002518Y003645D01*
X002473Y003760D02*
X002518Y003805D01*
X002518Y003895D01*
X002473Y003940D01*
X002428Y003940D01*
X002383Y003895D01*
X002383Y003850D01*
X002383Y003895D02*
X002338Y003940D01*
X002293Y003940D01*
X002248Y003895D01*
X002248Y003805D01*
X002293Y003760D01*
X002383Y003645D02*
X002383Y003465D01*
X002383Y004465D02*
X002383Y004645D01*
X002338Y004645D02*
X002518Y004645D01*
X002383Y004760D02*
X002383Y004940D01*
X002518Y004895D02*
X002248Y004895D01*
X002383Y004760D01*
X002338Y004645D02*
X002248Y004555D01*
X002338Y004465D01*
X002518Y004465D01*
X002518Y005465D02*
X002338Y005465D01*
X002248Y005555D01*
X002338Y005645D01*
X002518Y005645D01*
X002473Y005760D02*
X002518Y005805D01*
X002518Y005895D01*
X002473Y005940D01*
X002383Y005940D01*
X002338Y005895D01*
X002338Y005850D01*
X002383Y005760D01*
X002248Y005760D01*
X002248Y005940D01*
X002383Y005645D02*
X002383Y005465D01*
X002383Y006465D02*
X002383Y006645D01*
X002338Y006645D02*
X002518Y006645D01*
X002473Y006760D02*
X002383Y006760D01*
X002383Y006895D01*
X002428Y006940D01*
X002473Y006940D01*
X002518Y006895D01*
X002518Y006805D01*
X002473Y006760D01*
X002383Y006760D02*
X002293Y006850D01*
X002248Y006940D01*
X002338Y006645D02*
X002248Y006555D01*
X002338Y006465D01*
X002518Y006465D01*
X002518Y007465D02*
X002338Y007465D01*
X002248Y007555D01*
X002338Y007645D01*
X002518Y007645D01*
X002518Y007760D02*
X002473Y007760D01*
X002293Y007940D01*
X002248Y007940D01*
X002248Y007760D01*
X002383Y007645D02*
X002383Y007465D01*
X002428Y008465D02*
X002428Y008600D01*
X002383Y008645D01*
X002293Y008645D01*
X002248Y008600D01*
X002248Y008465D01*
X002518Y008465D01*
X002428Y008555D02*
X002518Y008645D01*
X002518Y008760D02*
X002248Y008940D01*
X002248Y008760D02*
X002518Y008940D01*
X002248Y009365D02*
X002248Y009545D01*
X002248Y009455D02*
X002518Y009455D01*
X002518Y009660D02*
X002248Y009840D01*
X002248Y009660D02*
X002518Y009840D01*
X002473Y010265D02*
X002293Y010265D01*
X002248Y010310D01*
X002248Y010400D01*
X002293Y010445D01*
X002383Y010445D02*
X002383Y010355D01*
X002383Y010445D02*
X002473Y010445D01*
X002518Y010400D01*
X002518Y010310D01*
X002473Y010265D01*
X002518Y010560D02*
X002248Y010560D01*
X002518Y010740D01*
X002248Y010740D01*
X002248Y010854D02*
X002248Y010989D01*
X002293Y011034D01*
X002473Y011034D01*
X002518Y010989D01*
X002518Y010854D01*
X002248Y010854D01*
X002248Y011265D02*
X002248Y011400D01*
X002293Y011445D01*
X002383Y011445D01*
X002428Y011400D01*
X002428Y011265D01*
X002518Y011265D02*
X002248Y011265D01*
X002428Y011355D02*
X002518Y011445D01*
X002518Y011560D02*
X002338Y011560D01*
X002248Y011650D01*
X002338Y011740D01*
X002518Y011740D01*
X002518Y011854D02*
X002428Y011944D01*
X002518Y012034D01*
X002248Y012034D01*
X002248Y011854D02*
X002518Y011854D01*
X002383Y011740D02*
X002383Y011560D01*
X004348Y011134D02*
X004618Y011134D01*
X004348Y010954D01*
X004618Y010954D01*
X004618Y010750D02*
X004348Y010750D01*
X004348Y010660D02*
X004348Y010840D01*
X004393Y010545D02*
X004438Y010545D01*
X004483Y010500D01*
X004483Y010365D01*
X004618Y010365D02*
X004348Y010365D01*
X004348Y010500D01*
X004393Y010545D01*
X004483Y010500D02*
X004528Y010545D01*
X004573Y010545D01*
X004618Y010500D01*
X004618Y010365D01*
X004652Y010231D02*
X004652Y009049D01*
X005833Y009049D02*
X005833Y010231D01*
X006498Y010715D02*
X006498Y010850D01*
X006543Y010895D01*
X006633Y010895D01*
X006678Y010850D01*
X006678Y010715D01*
X006768Y010715D02*
X006498Y010715D01*
X006678Y010805D02*
X006768Y010895D01*
X006723Y011010D02*
X006768Y011055D01*
X006768Y011145D01*
X006723Y011190D01*
X006678Y011190D01*
X006633Y011145D01*
X006633Y011055D01*
X006588Y011010D01*
X006543Y011010D01*
X006498Y011055D01*
X006498Y011145D01*
X006543Y011190D01*
X006498Y011304D02*
X006498Y011484D01*
X006498Y011394D02*
X006768Y011394D01*
X006652Y010231D02*
X006652Y009049D01*
X007833Y009049D02*
X007833Y010231D01*
X007968Y010336D02*
X008238Y010336D01*
X008238Y010426D02*
X008238Y010246D01*
X008193Y010540D02*
X008238Y010585D01*
X008238Y010675D01*
X008193Y010720D01*
X008148Y010720D01*
X008103Y010675D01*
X008103Y010585D01*
X008058Y010540D01*
X008013Y010540D01*
X007968Y010585D01*
X007968Y010675D01*
X008013Y010720D01*
X007968Y010835D02*
X008058Y010925D01*
X008058Y010880D02*
X008058Y011015D01*
X007968Y011015D02*
X008238Y011015D01*
X008238Y010880D01*
X008193Y010835D01*
X008103Y010835D01*
X008058Y010880D01*
X008013Y011246D02*
X007968Y011291D01*
X007968Y011381D01*
X008013Y011426D01*
X008193Y011426D01*
X008238Y011381D01*
X008238Y011291D01*
X008193Y011246D01*
X008193Y011540D02*
X008238Y011585D01*
X008238Y011675D01*
X008193Y011720D01*
X008013Y011720D01*
X007968Y011675D01*
X007968Y011585D01*
X008013Y011540D01*
X008058Y011835D02*
X008238Y011835D01*
X008238Y012015D02*
X008058Y012015D01*
X007968Y011925D01*
X008058Y011835D01*
X008013Y009015D02*
X007968Y008970D01*
X007968Y008880D01*
X008013Y008835D01*
X008103Y008835D01*
X008103Y008925D01*
X008193Y009015D02*
X008013Y009015D01*
X008193Y009015D02*
X008238Y008970D01*
X008238Y008880D01*
X008193Y008835D01*
X008238Y008720D02*
X007968Y008540D01*
X008238Y008540D01*
X008238Y008426D02*
X008238Y008291D01*
X008193Y008246D01*
X008013Y008246D01*
X007968Y008291D01*
X007968Y008426D01*
X008238Y008426D01*
X008238Y008720D02*
X007968Y008720D01*
X007968Y007915D02*
X007968Y007780D01*
X008013Y007735D01*
X008193Y007735D01*
X008238Y007780D01*
X008238Y007915D01*
X007968Y007915D01*
X007968Y007620D02*
X008013Y007620D01*
X008193Y007440D01*
X008238Y007440D01*
X008238Y007620D01*
X008238Y006915D02*
X007968Y006915D01*
X007968Y006780D01*
X008013Y006735D01*
X008193Y006735D01*
X008238Y006780D01*
X008238Y006915D01*
X008103Y006620D02*
X008013Y006620D01*
X007968Y006575D01*
X007968Y006485D01*
X008013Y006440D01*
X008058Y006440D01*
X008103Y006485D01*
X008103Y006620D01*
X008193Y006530D01*
X008238Y006440D01*
X008238Y005915D02*
X007968Y005915D01*
X007968Y005780D01*
X008013Y005735D01*
X008193Y005735D01*
X008238Y005780D01*
X008238Y005915D01*
X008238Y005620D02*
X008103Y005620D01*
X008148Y005530D01*
X008148Y005485D01*
X008103Y005440D01*
X008013Y005440D01*
X007968Y005485D01*
X007968Y005575D01*
X008013Y005620D01*
X008238Y005620D02*
X008238Y005440D01*
X008238Y004915D02*
X007968Y004915D01*
X007968Y004780D01*
X008013Y004735D01*
X008193Y004735D01*
X008238Y004780D01*
X008238Y004915D01*
X008103Y004620D02*
X008103Y004440D01*
X008238Y004485D02*
X008103Y004620D01*
X007968Y004485D02*
X008238Y004485D01*
X008238Y003915D02*
X007968Y003915D01*
X007968Y003780D01*
X008013Y003735D01*
X008193Y003735D01*
X008238Y003780D01*
X008238Y003915D01*
X008193Y003620D02*
X008238Y003575D01*
X008238Y003485D01*
X008193Y003440D01*
X008148Y003440D01*
X008103Y003485D01*
X008058Y003440D01*
X008013Y003440D01*
X007968Y003485D01*
X007968Y003575D01*
X008013Y003620D01*
X008103Y003530D02*
X008103Y003485D01*
X008238Y002915D02*
X007968Y002915D01*
X007968Y002780D01*
X008013Y002735D01*
X008193Y002735D01*
X008238Y002780D01*
X008238Y002915D01*
X008193Y002620D02*
X008238Y002575D01*
X008238Y002485D01*
X008193Y002440D01*
X008148Y002440D01*
X007968Y002620D01*
X007968Y002440D01*
X007968Y001815D02*
X007968Y001680D01*
X008013Y001635D01*
X008193Y001635D01*
X008238Y001680D01*
X008238Y001815D01*
X007968Y001815D01*
X007968Y001520D02*
X007968Y001340D01*
X007968Y001430D02*
X008238Y001430D01*
X008148Y001520D01*
X008238Y000915D02*
X007968Y000915D01*
X007968Y000780D01*
X008013Y000735D01*
X008193Y000735D01*
X008238Y000780D01*
X008238Y000915D01*
X008193Y000620D02*
X008013Y000620D01*
X008193Y000440D01*
X008013Y000440D01*
X007968Y000485D01*
X007968Y000575D01*
X008013Y000620D01*
X008193Y000620D02*
X008238Y000575D01*
X008238Y000485D01*
X008193Y000440D01*
D11*
X008096Y009224D02*
X007963Y009224D01*
X008063Y009224D02*
X008063Y009357D01*
X008096Y009357D02*
X007963Y009357D01*
X007996Y009445D02*
X007963Y009478D01*
X007963Y009578D01*
X008163Y009578D01*
X008163Y009478D01*
X008130Y009445D01*
X007996Y009445D01*
X008096Y009357D02*
X008163Y009290D01*
X008096Y009224D01*
X008130Y009666D02*
X007996Y009666D01*
X007963Y009699D01*
X007963Y009799D01*
X008163Y009799D01*
X008163Y009699D01*
X008130Y009666D01*
X008163Y009887D02*
X008030Y009887D01*
X007963Y009953D01*
X008030Y010020D01*
X008163Y010020D01*
X003823Y011360D02*
X003823Y011493D01*
X003823Y011581D02*
X003823Y011714D01*
X003823Y011802D02*
X003823Y011902D01*
X003789Y011935D01*
X003656Y011935D01*
X003623Y011902D01*
X003623Y011802D01*
X003823Y011802D01*
X003723Y011648D02*
X003723Y011581D01*
X003623Y011581D02*
X003823Y011581D01*
X003823Y011360D02*
X003623Y011360D01*
X003623Y011581D02*
X003623Y011714D01*
X003656Y012023D02*
X003623Y012056D01*
X003623Y012123D01*
X003656Y012156D01*
X003689Y012156D01*
X003823Y012023D01*
X003823Y012156D01*
X003373Y012156D02*
X003373Y012023D01*
X003373Y012090D02*
X003173Y012090D01*
X003239Y012023D01*
X003206Y011935D02*
X003173Y011902D01*
X003173Y011802D01*
X003373Y011802D01*
X003373Y011902D01*
X003339Y011935D01*
X003206Y011935D01*
X003173Y011714D02*
X003173Y011581D01*
X003373Y011581D01*
X003373Y011714D01*
X003273Y011648D02*
X003273Y011581D01*
X003373Y011493D02*
X003373Y011360D01*
X003173Y011360D01*
X002873Y011360D02*
X002673Y011360D01*
X002673Y011460D01*
X002706Y011493D01*
X002773Y011493D01*
X002806Y011460D01*
X002806Y011360D01*
X002873Y011581D02*
X002673Y011581D01*
X002673Y011714D02*
X002873Y011714D01*
X002806Y011648D01*
X002873Y011581D01*
X002873Y011802D02*
X002673Y011802D01*
X002673Y011902D01*
X002706Y011935D01*
X002773Y011935D01*
X002806Y011902D01*
X002806Y011802D01*
X002806Y011869D02*
X002873Y011935D01*
D12*
X002743Y009840D03*
X003243Y009840D03*
X003743Y009840D03*
X006243Y009840D03*
X006243Y010840D03*
X007543Y011640D03*
D13*
X006581Y011518D02*
X006109Y011518D01*
X006109Y012069D01*
X004377Y012069D01*
X004377Y011518D01*
X003904Y011518D01*
X003904Y012148D01*
X003904Y013211D02*
X006581Y013211D01*
X006581Y012148D02*
X006581Y011518D01*
X003924Y010907D02*
X003743Y010907D01*
X003835Y010785D01*
X003743Y010907D02*
X003562Y010907D01*
X003424Y010907D02*
X003243Y010907D01*
X003335Y010785D01*
X003243Y010907D02*
X003062Y010907D01*
X002924Y010907D02*
X002743Y010907D01*
X002835Y010785D01*
X002743Y010907D02*
X002562Y010907D01*
X002657Y010785D02*
X002733Y010901D01*
X003157Y010785D02*
X003233Y010901D01*
X003657Y010785D02*
X003733Y010901D01*
X003293Y001190D02*
X005193Y001190D01*
X005193Y000290D02*
X003293Y000290D01*
X003543Y000590D02*
X003393Y000740D01*
X003543Y000890D01*
X003393Y000740D02*
X003743Y000740D01*
D14*
X002585Y001920D02*
X007900Y001920D01*
X007900Y008337D01*
X002585Y008337D01*
X002585Y001920D01*
D15*
X006431Y000940D02*
X006455Y000940D01*
X007531Y001440D02*
X007555Y001440D01*
X007243Y010928D02*
X007243Y010952D01*
D16*
X006243Y008740D03*
X003443Y001640D03*
M02*
