G75*
G70*
%OFA0B0*%
%FSLAX24Y24*%
%IPPOS*%
%LPD*%
%AMOC8*
5,1,8,0,0,1.08239X$1,22.5*
%
%ADD10R,0.0354X0.0276*%
%ADD11R,0.0315X0.0315*%
%ADD12R,0.0138X0.0551*%
%ADD13R,0.0709X0.0748*%
%ADD14R,0.0472X0.0472*%
%ADD15R,0.0472X0.0276*%
%ADD16R,0.0276X0.0472*%
%ADD17R,0.0945X0.0748*%
%ADD18R,0.0400X0.1000*%
%ADD19R,0.0276X0.0354*%
%ADD20R,0.0394X0.0394*%
D10*
X002743Y009584D03*
X002743Y010096D03*
X003243Y010096D03*
X003243Y009584D03*
X003743Y009584D03*
X003743Y010096D03*
X006243Y010096D03*
X006243Y009584D03*
X006243Y010584D03*
X006243Y011096D03*
X007543Y011384D03*
X007543Y011896D03*
X007543Y001696D03*
X007543Y001184D03*
X006443Y001196D03*
X006443Y000684D03*
D11*
X003743Y010545D03*
X003743Y011135D03*
X003243Y011135D03*
X003243Y010545D03*
X002743Y010545D03*
X002743Y011135D03*
D12*
X004731Y011597D03*
X004987Y011597D03*
X005243Y011597D03*
X005499Y011597D03*
X005755Y011597D03*
D13*
X006818Y012640D03*
X003668Y012640D03*
D14*
X002940Y007983D03*
X002940Y002274D03*
X007546Y002274D03*
X007546Y007983D03*
D15*
X007546Y007254D03*
X007546Y006782D03*
X007546Y006309D03*
X007546Y005837D03*
X007546Y005364D03*
X007546Y004892D03*
X007546Y004420D03*
X007546Y003947D03*
X007546Y003475D03*
X007546Y003002D03*
X002940Y003002D03*
X002940Y003475D03*
X002940Y003947D03*
X002940Y004420D03*
X002940Y004892D03*
X002940Y005364D03*
X002940Y005837D03*
X002940Y006309D03*
X002940Y006782D03*
X002940Y007254D03*
D16*
X003589Y007983D03*
X004062Y007983D03*
X004534Y007983D03*
X005007Y007983D03*
X005479Y007983D03*
X005951Y007983D03*
X006424Y007983D03*
X006896Y007983D03*
X006896Y002274D03*
X006424Y002274D03*
X005951Y002274D03*
X005479Y002274D03*
X005007Y002274D03*
X004534Y002274D03*
X004062Y002274D03*
X003589Y002274D03*
D17*
X004396Y003711D03*
X004396Y005128D03*
X004396Y006546D03*
X006089Y006546D03*
X006089Y005128D03*
X006089Y003711D03*
D18*
X002943Y000740D03*
X005543Y000740D03*
D19*
X006487Y001640D03*
X006999Y001640D03*
X003699Y001640D03*
X003187Y001640D03*
X005987Y008740D03*
X006499Y008740D03*
X006987Y010940D03*
X007499Y010940D03*
D20*
X007558Y010467D03*
X006928Y010467D03*
X006928Y008813D03*
X007558Y008813D03*
X005558Y008813D03*
X004928Y008813D03*
X004928Y010467D03*
X005558Y010467D03*
M02*
