G75*
G70*
%OFA0B0*%
%FSLAX24Y24*%
%IPPOS*%
%LPD*%
%AMOC8*
5,1,8,0,0,1.08239X$1,22.5*
%
%ADD10C,0.0050*%
%ADD11C,0.0040*%
%ADD12C,0.0080*%
%ADD13C,0.0020*%
D10*
X002248Y000565D02*
X002338Y000655D01*
X002518Y000655D01*
X002473Y000770D02*
X002293Y000950D01*
X002473Y000950D01*
X002518Y000905D01*
X002518Y000815D01*
X002473Y000770D01*
X002293Y000770D01*
X002248Y000815D01*
X002248Y000905D01*
X002293Y000950D01*
X002383Y000655D02*
X002383Y000475D01*
X002338Y000475D02*
X002248Y000565D01*
X002338Y000475D02*
X002518Y000475D01*
X002518Y001475D02*
X002338Y001475D01*
X002248Y001565D01*
X002338Y001655D01*
X002518Y001655D01*
X002518Y001770D02*
X002518Y001950D01*
X002518Y001860D02*
X002248Y001860D01*
X002338Y001770D01*
X002383Y001655D02*
X002383Y001475D01*
X002383Y002475D02*
X002383Y002655D01*
X002338Y002655D02*
X002518Y002655D01*
X002518Y002770D02*
X002338Y002950D01*
X002293Y002950D01*
X002248Y002905D01*
X002248Y002815D01*
X002293Y002770D01*
X002338Y002655D02*
X002248Y002565D01*
X002338Y002475D01*
X002518Y002475D01*
X002518Y002770D02*
X002518Y002950D01*
X002518Y003475D02*
X002338Y003475D01*
X002248Y003565D01*
X002338Y003655D01*
X002518Y003655D01*
X002473Y003770D02*
X002518Y003815D01*
X002518Y003905D01*
X002473Y003950D01*
X002428Y003950D01*
X002383Y003905D01*
X002383Y003860D01*
X002383Y003905D02*
X002338Y003950D01*
X002293Y003950D01*
X002248Y003905D01*
X002248Y003815D01*
X002293Y003770D01*
X002383Y003655D02*
X002383Y003475D01*
X002383Y004475D02*
X002383Y004655D01*
X002338Y004655D02*
X002518Y004655D01*
X002383Y004770D02*
X002383Y004950D01*
X002518Y004905D02*
X002248Y004905D01*
X002383Y004770D01*
X002338Y004655D02*
X002248Y004565D01*
X002338Y004475D01*
X002518Y004475D01*
X002518Y005475D02*
X002338Y005475D01*
X002248Y005565D01*
X002338Y005655D01*
X002518Y005655D01*
X002473Y005770D02*
X002518Y005815D01*
X002518Y005905D01*
X002473Y005950D01*
X002383Y005950D01*
X002338Y005905D01*
X002338Y005860D01*
X002383Y005770D01*
X002248Y005770D01*
X002248Y005950D01*
X002383Y005655D02*
X002383Y005475D01*
X002383Y006475D02*
X002383Y006655D01*
X002338Y006655D02*
X002518Y006655D01*
X002473Y006770D02*
X002383Y006770D01*
X002383Y006905D01*
X002428Y006950D01*
X002473Y006950D01*
X002518Y006905D01*
X002518Y006815D01*
X002473Y006770D01*
X002383Y006770D02*
X002293Y006860D01*
X002248Y006950D01*
X002338Y006655D02*
X002248Y006565D01*
X002338Y006475D01*
X002518Y006475D01*
X002518Y007475D02*
X002338Y007475D01*
X002248Y007565D01*
X002338Y007655D01*
X002518Y007655D01*
X002518Y007770D02*
X002473Y007770D01*
X002293Y007950D01*
X002248Y007950D01*
X002248Y007770D01*
X002383Y007655D02*
X002383Y007475D01*
X002428Y008475D02*
X002428Y008610D01*
X002383Y008655D01*
X002293Y008655D01*
X002248Y008610D01*
X002248Y008475D01*
X002518Y008475D01*
X002428Y008565D02*
X002518Y008655D01*
X002518Y008770D02*
X002248Y008950D01*
X002248Y008770D02*
X002518Y008950D01*
X002248Y009375D02*
X002248Y009555D01*
X002248Y009465D02*
X002518Y009465D01*
X002518Y009670D02*
X002248Y009850D01*
X002248Y009670D02*
X002518Y009850D01*
X002473Y010275D02*
X002293Y010275D01*
X002248Y010320D01*
X002248Y010410D01*
X002293Y010455D01*
X002383Y010455D02*
X002383Y010365D01*
X002383Y010455D02*
X002473Y010455D01*
X002518Y010410D01*
X002518Y010320D01*
X002473Y010275D01*
X002518Y010570D02*
X002248Y010570D01*
X002518Y010750D01*
X002248Y010750D01*
X002248Y010864D02*
X002248Y010999D01*
X002293Y011044D01*
X002473Y011044D01*
X002518Y010999D01*
X002518Y010864D01*
X002248Y010864D01*
X002248Y011275D02*
X002248Y011410D01*
X002293Y011455D01*
X002383Y011455D01*
X002428Y011410D01*
X002428Y011275D01*
X002518Y011275D02*
X002248Y011275D01*
X002428Y011365D02*
X002518Y011455D01*
X002518Y011570D02*
X002338Y011570D01*
X002248Y011660D01*
X002338Y011750D01*
X002518Y011750D01*
X002518Y011864D02*
X002428Y011954D01*
X002518Y012044D01*
X002248Y012044D01*
X002248Y011864D02*
X002518Y011864D01*
X002383Y011750D02*
X002383Y011570D01*
X004152Y010241D02*
X004152Y009059D01*
X005333Y009059D02*
X005333Y010241D01*
X005137Y010775D02*
X005137Y011045D01*
X004957Y011045D02*
X004957Y010775D01*
X005137Y010775D02*
X004957Y011045D01*
X004843Y011045D02*
X004662Y011045D01*
X004753Y011045D02*
X004753Y010775D01*
X004548Y010820D02*
X004503Y010775D01*
X004368Y010775D01*
X004368Y011045D01*
X004503Y011045D01*
X004548Y011000D01*
X004548Y010955D01*
X004503Y010910D01*
X004368Y010910D01*
X004503Y010910D02*
X004548Y010865D01*
X004548Y010820D01*
X006652Y010241D02*
X006652Y009059D01*
X007833Y009059D02*
X007833Y010241D01*
X007968Y010346D02*
X008238Y010346D01*
X008238Y010436D02*
X008238Y010256D01*
X008193Y010550D02*
X008238Y010595D01*
X008238Y010685D01*
X008193Y010730D01*
X008148Y010730D01*
X008103Y010685D01*
X008103Y010595D01*
X008058Y010550D01*
X008013Y010550D01*
X007968Y010595D01*
X007968Y010685D01*
X008013Y010730D01*
X007968Y010845D02*
X008058Y010935D01*
X008058Y010890D02*
X008058Y011025D01*
X007968Y011025D02*
X008238Y011025D01*
X008238Y010890D01*
X008193Y010845D01*
X008103Y010845D01*
X008058Y010890D01*
X008013Y011256D02*
X007968Y011301D01*
X007968Y011391D01*
X008013Y011436D01*
X008193Y011436D01*
X008238Y011391D01*
X008238Y011301D01*
X008193Y011256D01*
X008193Y011550D02*
X008238Y011595D01*
X008238Y011685D01*
X008193Y011730D01*
X008013Y011730D01*
X007968Y011685D01*
X007968Y011595D01*
X008013Y011550D01*
X008058Y011845D02*
X007968Y011935D01*
X008058Y012025D01*
X008238Y012025D01*
X008238Y011845D02*
X008058Y011845D01*
X007168Y011805D02*
X007168Y011715D01*
X007123Y011670D01*
X007033Y011715D02*
X007033Y011805D01*
X007078Y011850D01*
X007123Y011850D01*
X007168Y011805D01*
X007168Y012054D02*
X006898Y012054D01*
X006898Y011964D02*
X006898Y012144D01*
X006943Y011850D02*
X006898Y011805D01*
X006898Y011715D01*
X006943Y011670D01*
X006988Y011670D01*
X007033Y011715D01*
X007033Y011555D02*
X006943Y011555D01*
X006898Y011510D01*
X006898Y011375D01*
X007168Y011375D01*
X007078Y011375D02*
X007078Y011510D01*
X007033Y011555D01*
X007078Y011465D02*
X007168Y011555D01*
X008013Y009025D02*
X007968Y008980D01*
X007968Y008890D01*
X008013Y008845D01*
X008103Y008845D01*
X008103Y008935D01*
X008193Y009025D02*
X008013Y009025D01*
X008193Y009025D02*
X008238Y008980D01*
X008238Y008890D01*
X008193Y008845D01*
X008238Y008730D02*
X007968Y008550D01*
X008238Y008550D01*
X008238Y008436D02*
X008238Y008301D01*
X008193Y008256D01*
X008013Y008256D01*
X007968Y008301D01*
X007968Y008436D01*
X008238Y008436D01*
X008238Y008730D02*
X007968Y008730D01*
X007968Y007925D02*
X007968Y007790D01*
X008013Y007745D01*
X008193Y007745D01*
X008238Y007790D01*
X008238Y007925D01*
X007968Y007925D01*
X007968Y007630D02*
X008013Y007630D01*
X008193Y007450D01*
X008238Y007450D01*
X008238Y007630D01*
X008238Y006925D02*
X007968Y006925D01*
X007968Y006790D01*
X008013Y006745D01*
X008193Y006745D01*
X008238Y006790D01*
X008238Y006925D01*
X008103Y006630D02*
X008013Y006630D01*
X007968Y006585D01*
X007968Y006495D01*
X008013Y006450D01*
X008058Y006450D01*
X008103Y006495D01*
X008103Y006630D01*
X008193Y006540D01*
X008238Y006450D01*
X008238Y005925D02*
X007968Y005925D01*
X007968Y005790D01*
X008013Y005745D01*
X008193Y005745D01*
X008238Y005790D01*
X008238Y005925D01*
X008238Y005630D02*
X008103Y005630D01*
X008148Y005540D01*
X008148Y005495D01*
X008103Y005450D01*
X008013Y005450D01*
X007968Y005495D01*
X007968Y005585D01*
X008013Y005630D01*
X008238Y005630D02*
X008238Y005450D01*
X008238Y004925D02*
X007968Y004925D01*
X007968Y004790D01*
X008013Y004745D01*
X008193Y004745D01*
X008238Y004790D01*
X008238Y004925D01*
X008103Y004630D02*
X008103Y004450D01*
X008238Y004495D02*
X008103Y004630D01*
X007968Y004495D02*
X008238Y004495D01*
X008238Y003925D02*
X007968Y003925D01*
X007968Y003790D01*
X008013Y003745D01*
X008193Y003745D01*
X008238Y003790D01*
X008238Y003925D01*
X008193Y003630D02*
X008238Y003585D01*
X008238Y003495D01*
X008193Y003450D01*
X008148Y003450D01*
X008103Y003495D01*
X008058Y003450D01*
X008013Y003450D01*
X007968Y003495D01*
X007968Y003585D01*
X008013Y003630D01*
X008103Y003540D02*
X008103Y003495D01*
X008238Y002925D02*
X007968Y002925D01*
X007968Y002790D01*
X008013Y002745D01*
X008193Y002745D01*
X008238Y002790D01*
X008238Y002925D01*
X008193Y002630D02*
X008238Y002585D01*
X008238Y002495D01*
X008193Y002450D01*
X008148Y002450D01*
X007968Y002630D01*
X007968Y002450D01*
X007968Y001825D02*
X007968Y001690D01*
X008013Y001645D01*
X008193Y001645D01*
X008238Y001690D01*
X008238Y001825D01*
X007968Y001825D01*
X007968Y001530D02*
X007968Y001350D01*
X007968Y001440D02*
X008238Y001440D01*
X008148Y001530D01*
X008238Y000925D02*
X007968Y000925D01*
X007968Y000790D01*
X008013Y000745D01*
X008193Y000745D01*
X008238Y000790D01*
X008238Y000925D01*
X008193Y000630D02*
X008013Y000630D01*
X008193Y000450D01*
X008013Y000450D01*
X007968Y000495D01*
X007968Y000585D01*
X008013Y000630D01*
X008193Y000630D02*
X008238Y000585D01*
X008238Y000495D01*
X008193Y000450D01*
D11*
X008096Y009234D02*
X007963Y009234D01*
X008063Y009234D02*
X008063Y009367D01*
X008096Y009367D02*
X007963Y009367D01*
X007996Y009455D02*
X007963Y009488D01*
X007963Y009588D01*
X008163Y009588D01*
X008163Y009488D01*
X008130Y009455D01*
X007996Y009455D01*
X008096Y009367D02*
X008163Y009300D01*
X008096Y009234D01*
X008130Y009676D02*
X007996Y009676D01*
X007963Y009709D01*
X007963Y009809D01*
X008163Y009809D01*
X008163Y009709D01*
X008130Y009676D01*
X008163Y009897D02*
X008030Y009897D01*
X007963Y009963D01*
X008030Y010030D01*
X008163Y010030D01*
X003823Y011670D02*
X003623Y011670D01*
X003623Y011770D01*
X003656Y011803D01*
X003723Y011803D01*
X003756Y011770D01*
X003756Y011670D01*
X003823Y011891D02*
X003756Y011958D01*
X003823Y012024D01*
X003623Y012024D01*
X003623Y012112D02*
X003623Y012212D01*
X003656Y012245D01*
X003723Y012245D01*
X003756Y012212D01*
X003756Y012112D01*
X003756Y012179D02*
X003823Y012245D01*
X003823Y012112D02*
X003623Y012112D01*
X003623Y011891D02*
X003823Y011891D01*
X003296Y011720D02*
X003163Y011720D01*
X003230Y011720D02*
X003230Y011920D01*
X003163Y011853D01*
X002796Y011853D02*
X002796Y011887D01*
X002763Y011920D01*
X002696Y011920D01*
X002663Y011887D01*
X002796Y011853D02*
X002663Y011720D01*
X002796Y011720D01*
D12*
X002743Y011267D02*
X002562Y011267D01*
X002657Y011145D02*
X002733Y011261D01*
X002743Y011267D02*
X002835Y011145D01*
X002924Y011267D02*
X002743Y011267D01*
X003062Y011267D02*
X003243Y011267D01*
X003335Y011145D01*
X003424Y011267D02*
X003243Y011267D01*
X003233Y011261D02*
X003157Y011145D01*
X003562Y011267D02*
X003743Y011267D01*
X003835Y011145D01*
X003924Y011267D02*
X003743Y011267D01*
X003733Y011261D02*
X003657Y011145D01*
X003904Y011528D02*
X003904Y012158D01*
X003904Y011528D02*
X004377Y011528D01*
X004377Y012079D01*
X006109Y012079D01*
X006109Y011528D01*
X006581Y011528D01*
X006581Y012158D01*
X006581Y013221D02*
X003904Y013221D01*
X003293Y001200D02*
X005193Y001200D01*
X005193Y000300D02*
X003293Y000300D01*
X003543Y000600D02*
X003393Y000750D01*
X003543Y000900D01*
X003393Y000750D02*
X003743Y000750D01*
D13*
X002585Y001930D02*
X007900Y001930D01*
X007900Y008347D01*
X002585Y008347D01*
X002585Y001930D01*
M02*
