G75*
G70*
%OFA0B0*%
%FSLAX24Y24*%
%IPPOS*%
%LPD*%
%AMOC8*
5,1,8,0,0,1.08239X$1,22.5*
%
%ADD10R,0.0513X0.0474*%
%ADD11R,0.0237X0.0611*%
%ADD12R,0.0671X0.0828*%
%ADD13C,0.0316*%
%ADD14C,0.0517*%
%ADD15R,0.0552X0.0552*%
%ADD16R,0.0552X0.0356*%
%ADD17R,0.0356X0.0552*%
%ADD18R,0.1025X0.0828*%
%ADD19R,0.0474X0.0513*%
%ADD20R,0.0336X0.0572*%
%ADD21R,0.0395X0.0395*%
%ADD22C,0.0010*%
%ADD23R,0.0513X0.0631*%
%ADD24R,0.0493X0.0946*%
%ADD25R,0.0474X0.0493*%
%ADD26R,0.0474X0.0671*%
%ADD27C,0.0770*%
%ADD28R,0.1130X0.1080*%
%ADD29R,0.0380X0.0580*%
D10*
X005758Y002650D03*
X006427Y002650D03*
X006438Y001490D03*
X007107Y001490D03*
X007227Y009690D03*
X006558Y009690D03*
X006293Y011405D03*
X006293Y012075D03*
X004193Y012075D03*
X004193Y011405D03*
X003927Y009690D03*
X003258Y009690D03*
D11*
X004731Y012587D03*
X004987Y012587D03*
X005243Y012587D03*
X005499Y012587D03*
X005755Y012587D03*
D12*
X005637Y013640D03*
X004849Y013636D03*
D13*
X004475Y012813D03*
X006011Y012813D03*
D14*
X006335Y013422D02*
X006335Y013858D01*
X004150Y013858D02*
X004150Y013422D01*
D15*
X002940Y008983D03*
X002940Y003274D03*
X007546Y003274D03*
X007546Y008983D03*
D16*
X007546Y008254D03*
X007546Y007782D03*
X007546Y007309D03*
X007546Y006837D03*
X007546Y006364D03*
X007546Y005892D03*
X007546Y005420D03*
X007546Y004947D03*
X007546Y004475D03*
X007546Y004002D03*
X002940Y004002D03*
X002940Y004475D03*
X002940Y004947D03*
X002940Y005420D03*
X002940Y005892D03*
X002940Y006364D03*
X002940Y006837D03*
X002940Y007309D03*
X002940Y007782D03*
X002940Y008254D03*
D17*
X003589Y008983D03*
X004062Y008983D03*
X004534Y008983D03*
X005007Y008983D03*
X005479Y008983D03*
X005951Y008983D03*
X006424Y008983D03*
X006896Y008983D03*
X006896Y003274D03*
X006424Y003274D03*
X005951Y003274D03*
X005479Y003274D03*
X005007Y003274D03*
X004534Y003274D03*
X004062Y003274D03*
X003589Y003274D03*
D18*
X004396Y004711D03*
X004396Y006128D03*
X004396Y007546D03*
X006089Y007546D03*
X006089Y006128D03*
X006089Y004711D03*
D19*
X006433Y002645D03*
X006433Y001975D03*
X005577Y009690D03*
X004908Y009690D03*
X003427Y012610D03*
X002758Y012610D03*
D20*
X002938Y012028D03*
X003548Y012028D03*
X003548Y010552D03*
X002938Y010552D03*
X006938Y010552D03*
X007548Y010552D03*
X007548Y012028D03*
X006938Y012028D03*
D21*
X007693Y012995D03*
X007693Y013585D03*
D22*
X008253Y013600D02*
X008483Y013550D01*
X008523Y013600D01*
X008483Y013650D01*
X008253Y013600D01*
X008272Y013596D02*
X008520Y013596D01*
X008519Y013604D02*
X008273Y013604D01*
X008312Y013613D02*
X008512Y013613D01*
X008506Y013621D02*
X008351Y013621D01*
X008390Y013630D02*
X008499Y013630D01*
X008492Y013638D02*
X008429Y013638D01*
X008469Y013647D02*
X008485Y013647D01*
X008532Y013681D02*
X008857Y013681D01*
X008862Y013689D02*
X008526Y013689D01*
X008521Y013698D02*
X008868Y013698D01*
X008874Y013706D02*
X008515Y013706D01*
X008510Y013715D02*
X008685Y013715D01*
X008693Y013710D02*
X008393Y013900D01*
X008583Y013600D01*
X008383Y013280D01*
X008693Y013480D01*
X009003Y013290D01*
X008803Y013600D01*
X009003Y013900D01*
X008693Y013710D01*
X008701Y013715D02*
X008879Y013715D01*
X008885Y013723D02*
X008715Y013723D01*
X008729Y013732D02*
X008891Y013732D01*
X008896Y013740D02*
X008742Y013740D01*
X008756Y013749D02*
X008902Y013749D01*
X008908Y013757D02*
X008770Y013757D01*
X008784Y013766D02*
X008913Y013766D01*
X008919Y013774D02*
X008798Y013774D01*
X008812Y013783D02*
X008925Y013783D01*
X008930Y013791D02*
X008826Y013791D01*
X008839Y013800D02*
X008936Y013800D01*
X008942Y013808D02*
X008853Y013808D01*
X008867Y013817D02*
X008947Y013817D01*
X008953Y013825D02*
X008881Y013825D01*
X008895Y013834D02*
X008959Y013834D01*
X008964Y013842D02*
X008909Y013842D01*
X008923Y013851D02*
X008970Y013851D01*
X008976Y013859D02*
X008937Y013859D01*
X008950Y013868D02*
X008981Y013868D01*
X008987Y013876D02*
X008964Y013876D01*
X008978Y013885D02*
X008993Y013885D01*
X008992Y013893D02*
X008998Y013893D01*
X008956Y013638D02*
X008896Y013638D01*
X008891Y013630D02*
X008995Y013630D01*
X009034Y013621D02*
X008886Y013621D01*
X008881Y013613D02*
X009074Y013613D01*
X009075Y013587D02*
X008880Y013587D01*
X008885Y013579D02*
X009036Y013579D01*
X008997Y013570D02*
X008891Y013570D01*
X008896Y013562D02*
X008957Y013562D01*
X008918Y013553D02*
X008901Y013553D01*
X008903Y013550D02*
X009133Y013600D01*
X008903Y013650D01*
X008873Y013600D01*
X008903Y013550D01*
X008875Y013596D02*
X009114Y013596D01*
X009113Y013604D02*
X008875Y013604D01*
X008901Y013647D02*
X008917Y013647D01*
X008851Y013672D02*
X008537Y013672D01*
X008542Y013664D02*
X008845Y013664D01*
X008840Y013655D02*
X008548Y013655D01*
X008553Y013647D02*
X008834Y013647D01*
X008828Y013638D02*
X008558Y013638D01*
X008564Y013630D02*
X008823Y013630D01*
X008817Y013621D02*
X008569Y013621D01*
X008575Y013613D02*
X008811Y013613D01*
X008806Y013604D02*
X008580Y013604D01*
X008580Y013596D02*
X008805Y013596D01*
X008811Y013587D02*
X008575Y013587D01*
X008570Y013579D02*
X008816Y013579D01*
X008822Y013570D02*
X008564Y013570D01*
X008559Y013562D02*
X008827Y013562D01*
X008833Y013553D02*
X008554Y013553D01*
X008548Y013545D02*
X008838Y013545D01*
X008844Y013536D02*
X008543Y013536D01*
X008538Y013528D02*
X008849Y013528D01*
X008855Y013519D02*
X008532Y013519D01*
X008527Y013511D02*
X008860Y013511D01*
X008866Y013502D02*
X008522Y013502D01*
X008516Y013494D02*
X008871Y013494D01*
X008877Y013485D02*
X008511Y013485D01*
X008506Y013477D02*
X008688Y013477D01*
X008698Y013477D02*
X008882Y013477D01*
X008888Y013468D02*
X008712Y013468D01*
X008726Y013460D02*
X008893Y013460D01*
X008899Y013451D02*
X008739Y013451D01*
X008753Y013443D02*
X008904Y013443D01*
X008910Y013434D02*
X008767Y013434D01*
X008781Y013426D02*
X008915Y013426D01*
X008921Y013417D02*
X008795Y013417D01*
X008809Y013409D02*
X008926Y013409D01*
X008932Y013400D02*
X008823Y013400D01*
X008837Y013392D02*
X008937Y013392D01*
X008943Y013383D02*
X008850Y013383D01*
X008864Y013375D02*
X008948Y013375D01*
X008954Y013366D02*
X008878Y013366D01*
X008892Y013358D02*
X008959Y013358D01*
X008964Y013349D02*
X008906Y013349D01*
X008920Y013341D02*
X008970Y013341D01*
X008975Y013332D02*
X008934Y013332D01*
X008948Y013324D02*
X008981Y013324D01*
X008986Y013315D02*
X008961Y013315D01*
X008975Y013307D02*
X008992Y013307D01*
X008989Y013298D02*
X008997Y013298D01*
X008734Y013349D02*
X008651Y013349D01*
X008653Y013341D02*
X008733Y013341D01*
X008731Y013332D02*
X008655Y013332D01*
X008657Y013324D02*
X008729Y013324D01*
X008727Y013315D02*
X008658Y013315D01*
X008660Y013307D02*
X008725Y013307D01*
X008724Y013298D02*
X008662Y013298D01*
X008664Y013290D02*
X008722Y013290D01*
X008720Y013281D02*
X008665Y013281D01*
X008667Y013273D02*
X008718Y013273D01*
X008717Y013264D02*
X008669Y013264D01*
X008671Y013256D02*
X008715Y013256D01*
X008713Y013247D02*
X008673Y013247D01*
X008674Y013239D02*
X008711Y013239D01*
X008710Y013230D02*
X008676Y013230D01*
X008678Y013222D02*
X008708Y013222D01*
X008706Y013213D02*
X008680Y013213D01*
X008681Y013205D02*
X008704Y013205D01*
X008702Y013196D02*
X008683Y013196D01*
X008685Y013188D02*
X008701Y013188D01*
X008699Y013179D02*
X008687Y013179D01*
X008688Y013171D02*
X008697Y013171D01*
X008695Y013162D02*
X008690Y013162D01*
X008692Y013154D02*
X008694Y013154D01*
X008693Y013150D02*
X008743Y013390D01*
X008693Y013420D01*
X008643Y013390D01*
X008693Y013150D01*
X008649Y013358D02*
X008736Y013358D01*
X008738Y013366D02*
X008648Y013366D01*
X008646Y013375D02*
X008740Y013375D01*
X008741Y013383D02*
X008644Y013383D01*
X008646Y013392D02*
X008740Y013392D01*
X008725Y013400D02*
X008660Y013400D01*
X008674Y013409D02*
X008711Y013409D01*
X008697Y013417D02*
X008688Y013417D01*
X008662Y013460D02*
X008495Y013460D01*
X008490Y013451D02*
X008648Y013451D01*
X008635Y013443D02*
X008485Y013443D01*
X008479Y013434D02*
X008622Y013434D01*
X008609Y013426D02*
X008474Y013426D01*
X008469Y013417D02*
X008596Y013417D01*
X008583Y013409D02*
X008463Y013409D01*
X008458Y013400D02*
X008569Y013400D01*
X008556Y013392D02*
X008453Y013392D01*
X008447Y013383D02*
X008543Y013383D01*
X008530Y013375D02*
X008442Y013375D01*
X008437Y013366D02*
X008517Y013366D01*
X008504Y013358D02*
X008431Y013358D01*
X008426Y013349D02*
X008490Y013349D01*
X008477Y013341D02*
X008421Y013341D01*
X008416Y013332D02*
X008464Y013332D01*
X008451Y013324D02*
X008410Y013324D01*
X008405Y013315D02*
X008438Y013315D01*
X008424Y013307D02*
X008400Y013307D01*
X008394Y013298D02*
X008411Y013298D01*
X008398Y013290D02*
X008389Y013290D01*
X008385Y013281D02*
X008384Y013281D01*
X008501Y013468D02*
X008675Y013468D01*
X008513Y013587D02*
X008311Y013587D01*
X008350Y013579D02*
X008506Y013579D01*
X008499Y013570D02*
X008389Y013570D01*
X008428Y013562D02*
X008492Y013562D01*
X008486Y013553D02*
X008467Y013553D01*
X008505Y013723D02*
X008672Y013723D01*
X008658Y013732D02*
X008499Y013732D01*
X008494Y013740D02*
X008645Y013740D01*
X008631Y013749D02*
X008489Y013749D01*
X008483Y013757D02*
X008618Y013757D01*
X008605Y013766D02*
X008478Y013766D01*
X008472Y013774D02*
X008591Y013774D01*
X008578Y013783D02*
X008467Y013783D01*
X008462Y013791D02*
X008564Y013791D01*
X008551Y013800D02*
X008456Y013800D01*
X008451Y013808D02*
X008537Y013808D01*
X008524Y013817D02*
X008445Y013817D01*
X008440Y013825D02*
X008511Y013825D01*
X008497Y013834D02*
X008435Y013834D01*
X008429Y013842D02*
X008484Y013842D01*
X008470Y013851D02*
X008424Y013851D01*
X008419Y013859D02*
X008457Y013859D01*
X008443Y013868D02*
X008413Y013868D01*
X008408Y013876D02*
X008430Y013876D01*
X008417Y013885D02*
X008402Y013885D01*
X008403Y013893D02*
X008397Y013893D01*
X008652Y013842D02*
X008734Y013842D01*
X008736Y013834D02*
X008650Y013834D01*
X008648Y013825D02*
X008738Y013825D01*
X008739Y013817D02*
X008646Y013817D01*
X008645Y013808D02*
X008741Y013808D01*
X008743Y013800D02*
X008693Y014040D01*
X008643Y013800D01*
X008743Y013800D01*
X008693Y013770D01*
X008643Y013800D01*
X008657Y013791D02*
X008728Y013791D01*
X008714Y013783D02*
X008671Y013783D01*
X008685Y013774D02*
X008700Y013774D01*
X008732Y013851D02*
X008653Y013851D01*
X008655Y013859D02*
X008730Y013859D01*
X008729Y013868D02*
X008657Y013868D01*
X008659Y013876D02*
X008727Y013876D01*
X008725Y013885D02*
X008660Y013885D01*
X008662Y013893D02*
X008723Y013893D01*
X008722Y013902D02*
X008664Y013902D01*
X008666Y013910D02*
X008720Y013910D01*
X008718Y013919D02*
X008668Y013919D01*
X008669Y013927D02*
X008716Y013927D01*
X008714Y013936D02*
X008671Y013936D01*
X008673Y013944D02*
X008713Y013944D01*
X008711Y013953D02*
X008675Y013953D01*
X008676Y013961D02*
X008709Y013961D01*
X008707Y013970D02*
X008678Y013970D01*
X008680Y013978D02*
X008706Y013978D01*
X008704Y013987D02*
X008682Y013987D01*
X008684Y013995D02*
X008702Y013995D01*
X008700Y014004D02*
X008685Y014004D01*
X008687Y014012D02*
X008699Y014012D01*
X008697Y014021D02*
X008689Y014021D01*
X008691Y014029D02*
X008695Y014029D01*
X008692Y014038D02*
X008693Y014038D01*
D23*
X005597Y011511D03*
X005597Y010369D03*
X004888Y010369D03*
X004888Y011511D03*
D24*
X003824Y001840D03*
X002662Y001840D03*
D25*
X003243Y002441D03*
D26*
X003278Y000540D03*
X006428Y000540D03*
D27*
X001743Y001640D03*
X001743Y002640D03*
X001743Y003640D03*
X001743Y004640D03*
X001743Y005640D03*
X001743Y006640D03*
X001743Y007640D03*
X001743Y008640D03*
X001743Y009640D03*
X001743Y010640D03*
X001743Y011640D03*
X001743Y012640D03*
X008743Y012640D03*
X008743Y011640D03*
X008743Y010640D03*
X008743Y009640D03*
X008743Y008640D03*
X008743Y007640D03*
X008743Y006640D03*
X008743Y005640D03*
X008743Y004640D03*
X008743Y003640D03*
X008743Y002640D03*
X008743Y001640D03*
D28*
X002443Y013540D03*
D29*
X003368Y013540D03*
M02*
