G75*
G70*
%OFA0B0*%
%FSLAX24Y24*%
%IPPOS*%
%LPD*%
%AMOC8*
5,1,8,0,0,1.08239X$1,22.5*
%
%ADD10C,0.0600*%
%ADD11C,0.0080*%
%ADD12C,0.0278*%
D10*
X001743Y001833D03*
X001743Y002833D03*
X001743Y003833D03*
X001743Y004833D03*
X001743Y005833D03*
X001743Y006833D03*
X001743Y007833D03*
X001743Y008833D03*
X001743Y009833D03*
X001743Y010833D03*
X001743Y011833D03*
X001743Y012833D03*
X008743Y012833D03*
X008743Y011833D03*
X008743Y010833D03*
X008743Y009833D03*
X008743Y008833D03*
X008743Y007833D03*
X008743Y006833D03*
X008743Y005833D03*
X008743Y004833D03*
X008743Y003833D03*
X008743Y002833D03*
X008743Y001833D03*
D11*
X001403Y002087D02*
X001403Y002579D01*
X001505Y002477D01*
X001659Y002413D01*
X001826Y002413D01*
X001981Y002477D01*
X002099Y002595D01*
X002163Y002750D01*
X002163Y002917D01*
X002099Y003071D01*
X001981Y003189D01*
X001826Y003253D01*
X001659Y003253D01*
X001505Y003189D01*
X001403Y003087D01*
X001403Y003579D01*
X001505Y003477D01*
X001659Y003413D01*
X001826Y003413D01*
X001981Y003477D01*
X002099Y003595D01*
X002163Y003750D01*
X002163Y003917D01*
X002099Y004071D01*
X001981Y004189D01*
X001826Y004253D01*
X001659Y004253D01*
X001505Y004189D01*
X001403Y004087D01*
X001403Y004579D01*
X001505Y004477D01*
X001659Y004413D01*
X001826Y004413D01*
X001981Y004477D01*
X002099Y004595D01*
X002163Y004750D01*
X002163Y004917D01*
X002099Y005071D01*
X001981Y005189D01*
X001826Y005253D01*
X001659Y005253D01*
X001505Y005189D01*
X001403Y005087D01*
X001403Y005579D01*
X001505Y005477D01*
X001659Y005413D01*
X001826Y005413D01*
X001981Y005477D01*
X002099Y005595D01*
X002163Y005750D01*
X002163Y005917D01*
X002099Y006071D01*
X001981Y006189D01*
X001826Y006253D01*
X001659Y006253D01*
X001505Y006189D01*
X001403Y006087D01*
X001403Y006579D01*
X001505Y006477D01*
X001659Y006413D01*
X001826Y006413D01*
X001981Y006477D01*
X002099Y006595D01*
X002163Y006750D01*
X008323Y006750D01*
X008387Y006595D01*
X008505Y006477D01*
X008659Y006413D01*
X008826Y006413D01*
X008981Y006477D01*
X009083Y006579D01*
X009083Y006087D01*
X008981Y006189D01*
X008826Y006253D01*
X008659Y006253D01*
X008505Y006189D01*
X008387Y006071D01*
X008323Y005917D01*
X008323Y005750D01*
X008387Y005595D01*
X008505Y005477D01*
X008659Y005413D01*
X008826Y005413D01*
X008981Y005477D01*
X009083Y005579D01*
X009083Y005087D01*
X008981Y005189D01*
X008826Y005253D01*
X008659Y005253D01*
X008505Y005189D01*
X008387Y005071D01*
X008323Y004917D01*
X008323Y004750D01*
X008387Y004595D01*
X008505Y004477D01*
X008659Y004413D01*
X008826Y004413D01*
X008981Y004477D01*
X009083Y004579D01*
X009083Y004087D01*
X008981Y004189D01*
X008826Y004253D01*
X008659Y004253D01*
X008505Y004189D01*
X008387Y004071D01*
X008323Y003917D01*
X008323Y003750D01*
X008387Y003595D01*
X008505Y003477D01*
X008659Y003413D01*
X008826Y003413D01*
X008981Y003477D01*
X009083Y003579D01*
X009083Y003087D01*
X008981Y003189D01*
X008826Y003253D01*
X008659Y003253D01*
X008505Y003189D01*
X008387Y003071D01*
X008323Y002917D01*
X008323Y002750D01*
X008387Y002595D01*
X008505Y002477D01*
X008659Y002413D01*
X008826Y002413D01*
X008981Y002477D01*
X009083Y002579D01*
X009083Y002087D01*
X008981Y002189D01*
X008826Y002253D01*
X008659Y002253D01*
X008505Y002189D01*
X008387Y002071D01*
X008323Y001917D01*
X008323Y001750D01*
X008371Y001633D01*
X002115Y001633D01*
X002163Y001750D01*
X002163Y001917D01*
X002099Y002071D01*
X001981Y002189D01*
X001826Y002253D01*
X001659Y002253D01*
X001505Y002189D01*
X001403Y002087D01*
X001403Y002118D02*
X001434Y002118D01*
X001403Y002197D02*
X001523Y002197D01*
X001403Y002275D02*
X009083Y002275D01*
X009083Y002197D02*
X008963Y002197D01*
X009052Y002118D02*
X009083Y002118D01*
X009083Y002354D02*
X001403Y002354D01*
X001403Y002432D02*
X001613Y002432D01*
X001471Y002511D02*
X001403Y002511D01*
X001872Y002432D02*
X008613Y002432D01*
X008471Y002511D02*
X002014Y002511D01*
X002093Y002589D02*
X008393Y002589D01*
X008357Y002668D02*
X002129Y002668D01*
X002161Y002746D02*
X008324Y002746D01*
X008323Y002825D02*
X002163Y002825D01*
X002163Y002903D02*
X008323Y002903D01*
X008350Y002982D02*
X002136Y002982D01*
X002103Y003060D02*
X008382Y003060D01*
X008454Y003139D02*
X002031Y003139D01*
X001913Y003217D02*
X008572Y003217D01*
X008564Y003453D02*
X001922Y003453D01*
X002035Y003531D02*
X008451Y003531D01*
X008381Y003610D02*
X002105Y003610D01*
X002137Y003688D02*
X008348Y003688D01*
X008323Y003767D02*
X006253Y003767D01*
X006220Y003733D02*
X006292Y003806D01*
X006299Y003821D01*
X006306Y003813D01*
X006401Y003774D01*
X006504Y003774D01*
X006600Y003813D01*
X006663Y003877D01*
X006676Y003863D01*
X006771Y003824D01*
X006874Y003824D01*
X006970Y003863D01*
X007042Y003936D01*
X007082Y004032D01*
X007082Y004135D01*
X007042Y004230D01*
X006970Y004303D01*
X006874Y004342D01*
X006771Y004342D01*
X006676Y004303D01*
X006613Y004239D01*
X006600Y004253D01*
X006504Y004292D01*
X006401Y004292D01*
X006306Y004253D01*
X006233Y004180D01*
X006227Y004165D01*
X006220Y004173D01*
X006124Y004212D01*
X006021Y004212D01*
X005926Y004173D01*
X005853Y004100D01*
X005814Y004005D01*
X005814Y003902D01*
X005853Y003806D01*
X005926Y003733D01*
X006021Y003694D01*
X006124Y003694D01*
X006220Y003733D01*
X005893Y003767D02*
X002163Y003767D01*
X002163Y003845D02*
X005837Y003845D01*
X005814Y003924D02*
X002160Y003924D01*
X002127Y004002D02*
X005814Y004002D01*
X005845Y004081D02*
X002089Y004081D01*
X002011Y004159D02*
X005912Y004159D01*
X006291Y004238D02*
X001864Y004238D01*
X001622Y004238D02*
X001403Y004238D01*
X001403Y004316D02*
X006708Y004316D01*
X006843Y004456D02*
X006804Y004552D01*
X002055Y004552D01*
X002113Y004630D02*
X006804Y004630D01*
X006804Y004655D02*
X006804Y004552D01*
X006836Y004473D02*
X001971Y004473D01*
X002146Y004709D02*
X006826Y004709D01*
X006843Y004750D02*
X006804Y004655D01*
X006843Y004750D02*
X006916Y004823D01*
X007011Y004862D01*
X007114Y004862D01*
X007210Y004823D01*
X007282Y004750D01*
X007322Y004655D01*
X007322Y004552D01*
X008430Y004552D01*
X008372Y004630D02*
X007322Y004630D01*
X007322Y004552D02*
X007282Y004456D01*
X007210Y004383D01*
X007114Y004344D01*
X007011Y004344D01*
X006916Y004383D01*
X006843Y004456D01*
X006905Y004395D02*
X001403Y004395D01*
X001403Y004473D02*
X001514Y004473D01*
X001430Y004552D02*
X001403Y004552D01*
X001403Y004159D02*
X001475Y004159D01*
X001451Y003531D02*
X001403Y003531D01*
X001403Y003453D02*
X001564Y003453D01*
X001403Y003374D02*
X009083Y003374D01*
X009083Y003296D02*
X001403Y003296D01*
X001403Y003217D02*
X001572Y003217D01*
X001454Y003139D02*
X001403Y003139D01*
X001963Y002197D02*
X008523Y002197D01*
X008434Y002118D02*
X002052Y002118D01*
X002112Y002040D02*
X008374Y002040D01*
X008341Y001961D02*
X002144Y001961D01*
X002163Y001883D02*
X008323Y001883D01*
X008323Y001804D02*
X002163Y001804D01*
X002153Y001726D02*
X008333Y001726D01*
X008365Y001647D02*
X002120Y001647D01*
X002163Y004787D02*
X006880Y004787D01*
X006844Y004844D02*
X006940Y004883D01*
X007012Y004956D01*
X007052Y005052D01*
X007052Y005155D01*
X007012Y005250D01*
X006940Y005323D01*
X006844Y005362D01*
X006741Y005362D01*
X006646Y005323D01*
X006573Y005250D01*
X006534Y005155D01*
X006534Y005052D01*
X006573Y004956D01*
X006646Y004883D01*
X006741Y004844D01*
X006844Y004844D01*
X006896Y004866D02*
X008323Y004866D01*
X008334Y004944D02*
X007000Y004944D01*
X007040Y005023D02*
X008367Y005023D01*
X008417Y005101D02*
X007052Y005101D01*
X007042Y005180D02*
X008495Y005180D01*
X008654Y005415D02*
X001831Y005415D01*
X001654Y005415D02*
X001403Y005415D01*
X001403Y005337D02*
X006680Y005337D01*
X006581Y005258D02*
X001403Y005258D01*
X001403Y005180D02*
X001495Y005180D01*
X001417Y005101D02*
X001403Y005101D01*
X001403Y005494D02*
X001488Y005494D01*
X001410Y005572D02*
X001403Y005572D01*
X001403Y006122D02*
X001437Y006122D01*
X001403Y006200D02*
X001531Y006200D01*
X001403Y006279D02*
X009083Y006279D01*
X009083Y006357D02*
X001403Y006357D01*
X001403Y006436D02*
X001605Y006436D01*
X001468Y006514D02*
X001403Y006514D01*
X001881Y006436D02*
X008605Y006436D01*
X008468Y006514D02*
X002018Y006514D01*
X002096Y006593D02*
X008389Y006593D01*
X008355Y006671D02*
X002130Y006671D01*
X002163Y006750D02*
X002163Y006917D01*
X002099Y007071D01*
X001981Y007189D01*
X001826Y007253D01*
X001659Y007253D01*
X001505Y007189D01*
X001403Y007087D01*
X001403Y007579D01*
X001505Y007477D01*
X001659Y007413D01*
X001826Y007413D01*
X001981Y007477D01*
X002099Y007595D01*
X002163Y007750D01*
X002163Y007917D01*
X002099Y008071D01*
X001981Y008189D01*
X001826Y008253D01*
X001659Y008253D01*
X001505Y008189D01*
X001403Y008087D01*
X001403Y008579D01*
X001505Y008477D01*
X001659Y008413D01*
X001826Y008413D01*
X001981Y008477D01*
X002099Y008595D01*
X002163Y008750D01*
X002163Y008917D01*
X002099Y009071D01*
X001981Y009189D01*
X001826Y009253D01*
X001659Y009253D01*
X001505Y009189D01*
X001403Y009087D01*
X001403Y009579D01*
X001505Y009477D01*
X001659Y009413D01*
X001826Y009413D01*
X001981Y009477D01*
X002099Y009595D01*
X002163Y009750D01*
X002163Y009917D01*
X002099Y010071D01*
X001981Y010189D01*
X001826Y010253D01*
X001659Y010253D01*
X001505Y010189D01*
X001403Y010087D01*
X001403Y010579D01*
X001505Y010477D01*
X001659Y010413D01*
X001826Y010413D01*
X001981Y010477D01*
X002099Y010595D01*
X002146Y010708D01*
X002163Y010666D01*
X002211Y010619D01*
X002196Y010613D01*
X002123Y010540D01*
X002084Y010445D01*
X002084Y010342D01*
X002123Y010246D01*
X002196Y010173D01*
X002291Y010134D01*
X002294Y010134D01*
X002294Y010042D01*
X002333Y009946D01*
X002406Y009873D01*
X002501Y009834D01*
X002604Y009834D01*
X002700Y009873D01*
X002772Y009946D01*
X002812Y010042D01*
X002812Y010145D01*
X002772Y010240D01*
X002700Y010313D01*
X002604Y010352D01*
X002602Y010352D01*
X002602Y010445D01*
X002562Y010540D01*
X002515Y010587D01*
X002530Y010593D01*
X002602Y010666D01*
X002642Y010762D01*
X002642Y010865D01*
X002602Y010960D01*
X002530Y011033D01*
X002434Y011072D01*
X002331Y011072D01*
X002236Y011033D01*
X002163Y010960D01*
X002154Y010938D01*
X002099Y011071D01*
X001981Y011189D01*
X001826Y011253D01*
X001659Y011253D01*
X001505Y011189D01*
X001403Y011087D01*
X001403Y011552D01*
X001407Y011546D01*
X001456Y011497D01*
X001512Y011457D01*
X001574Y011425D01*
X001640Y011404D01*
X001703Y011394D01*
X001703Y011793D01*
X001783Y011793D01*
X001783Y011873D01*
X002182Y011873D01*
X002172Y011936D01*
X002151Y012002D01*
X002119Y012064D01*
X002078Y012120D01*
X002029Y012169D01*
X001973Y012209D01*
X001912Y012241D01*
X001846Y012262D01*
X001783Y012272D01*
X001783Y011873D01*
X001703Y011873D01*
X001703Y012272D01*
X001640Y012262D01*
X001574Y012241D01*
X001512Y012209D01*
X001456Y012169D01*
X001407Y012120D01*
X001403Y012114D01*
X001403Y012579D01*
X001505Y012477D01*
X001659Y012413D01*
X001826Y012413D01*
X001981Y012477D01*
X002099Y012595D01*
X002120Y012645D01*
X002123Y012636D01*
X002196Y012563D01*
X002291Y012524D01*
X002394Y012524D01*
X002490Y012563D01*
X002562Y012636D01*
X002602Y012732D01*
X002602Y012835D01*
X002562Y012930D01*
X002490Y013003D01*
X002394Y013042D01*
X002291Y013042D01*
X002196Y013003D01*
X002147Y012954D01*
X002099Y013071D01*
X001981Y013189D01*
X001826Y013253D01*
X001659Y013253D01*
X001505Y013189D01*
X001403Y013087D01*
X001403Y014173D01*
X009083Y014173D01*
X009083Y013087D01*
X008981Y013189D01*
X008826Y013253D01*
X008659Y013253D01*
X008505Y013189D01*
X008501Y013185D01*
X008512Y013212D01*
X008512Y013315D01*
X008472Y013410D01*
X008400Y013483D01*
X008304Y013522D01*
X008201Y013522D01*
X008106Y013483D01*
X008033Y013410D01*
X007994Y013315D01*
X007994Y013212D01*
X008033Y013116D01*
X008106Y013043D01*
X008201Y013004D01*
X008304Y013004D01*
X008370Y013031D01*
X008323Y012917D01*
X008323Y012750D01*
X008387Y012595D01*
X008505Y012477D01*
X008659Y012413D01*
X008826Y012413D01*
X008981Y012477D01*
X009083Y012579D01*
X009083Y012087D01*
X008981Y012189D01*
X008826Y012253D01*
X008659Y012253D01*
X008505Y012189D01*
X008387Y012071D01*
X008323Y011917D01*
X008323Y011750D01*
X008346Y011694D01*
X008254Y011732D01*
X008151Y011732D01*
X008056Y011693D01*
X007983Y011620D01*
X007944Y011525D01*
X007944Y011422D01*
X007983Y011326D01*
X008056Y011253D01*
X008151Y011214D01*
X008254Y011214D01*
X008350Y011253D01*
X008422Y011326D01*
X008462Y011422D01*
X008462Y011520D01*
X008505Y011477D01*
X008659Y011413D01*
X008826Y011413D01*
X008981Y011477D01*
X009083Y011579D01*
X009083Y011087D01*
X008981Y011189D01*
X008826Y011253D01*
X008659Y011253D01*
X008505Y011189D01*
X008387Y011071D01*
X008323Y010917D01*
X008323Y010750D01*
X008387Y010595D01*
X008505Y010477D01*
X008659Y010413D01*
X008826Y010413D01*
X008981Y010477D01*
X009083Y010579D01*
X009083Y010114D01*
X009078Y010120D01*
X009029Y010169D01*
X008973Y010209D01*
X008912Y010241D01*
X008846Y010262D01*
X008783Y010272D01*
X008783Y009873D01*
X008703Y009873D01*
X008703Y010272D01*
X008640Y010262D01*
X008574Y010241D01*
X008512Y010209D01*
X008456Y010169D01*
X008407Y010120D01*
X008366Y010064D01*
X008335Y010002D01*
X008314Y009936D01*
X008304Y009873D01*
X008703Y009873D01*
X008703Y009793D01*
X008783Y009793D01*
X008783Y009394D01*
X008846Y009404D01*
X008912Y009425D01*
X008973Y009457D01*
X009029Y009497D01*
X009083Y009497D01*
X009078Y009546D02*
X009083Y009552D01*
X009083Y009087D01*
X008981Y009189D01*
X008826Y009253D01*
X008659Y009253D01*
X008505Y009189D01*
X008387Y009071D01*
X008323Y008917D01*
X008323Y008750D01*
X008387Y008595D01*
X008505Y008477D01*
X008659Y008413D01*
X008826Y008413D01*
X008981Y008477D01*
X009083Y008579D01*
X009083Y008087D01*
X008981Y008189D01*
X008826Y008253D01*
X008659Y008253D01*
X008505Y008189D01*
X008387Y008071D01*
X008323Y007917D01*
X008323Y007750D01*
X008387Y007595D01*
X008505Y007477D01*
X008659Y007413D01*
X008826Y007413D01*
X008981Y007477D01*
X009083Y007579D01*
X009083Y007087D01*
X008981Y007189D01*
X008826Y007253D01*
X008659Y007253D01*
X008505Y007189D01*
X008387Y007071D01*
X008323Y006917D01*
X008323Y006750D01*
X008323Y006828D02*
X002163Y006828D01*
X002163Y006907D02*
X004673Y006907D01*
X004706Y006873D02*
X004633Y006946D01*
X004594Y007042D01*
X004594Y007145D01*
X004633Y007240D01*
X004706Y007313D01*
X004801Y007352D01*
X004904Y007352D01*
X005000Y007313D01*
X005072Y007240D01*
X005112Y007145D01*
X005112Y007042D01*
X005072Y006946D01*
X005000Y006873D01*
X004904Y006834D01*
X004801Y006834D01*
X004706Y006873D01*
X004617Y006985D02*
X002134Y006985D01*
X002102Y007064D02*
X004594Y007064D01*
X004594Y007142D02*
X002028Y007142D01*
X001905Y007221D02*
X004625Y007221D01*
X004692Y007299D02*
X001403Y007299D01*
X001403Y007221D02*
X001581Y007221D01*
X001458Y007142D02*
X001403Y007142D01*
X001403Y007378D02*
X005656Y007378D01*
X005691Y007392D02*
X005596Y007353D01*
X005523Y007280D01*
X005484Y007185D01*
X005484Y007082D01*
X005523Y006986D01*
X005596Y006913D01*
X005691Y006874D01*
X005794Y006874D01*
X005890Y006913D01*
X005962Y006986D01*
X006002Y007082D01*
X006002Y007185D01*
X005962Y007280D01*
X005890Y007353D01*
X005794Y007392D01*
X005691Y007392D01*
X005829Y007378D02*
X009083Y007378D01*
X009083Y007456D02*
X008930Y007456D01*
X009038Y007535D02*
X009083Y007535D01*
X009083Y007299D02*
X005943Y007299D01*
X005987Y007221D02*
X008581Y007221D01*
X008458Y007142D02*
X006002Y007142D01*
X005994Y007064D02*
X008384Y007064D01*
X008351Y006985D02*
X005961Y006985D01*
X005873Y006907D02*
X008323Y006907D01*
X008555Y007456D02*
X001930Y007456D01*
X002038Y007535D02*
X008447Y007535D01*
X008379Y007613D02*
X002106Y007613D01*
X002139Y007692D02*
X005128Y007692D01*
X005093Y007726D02*
X005166Y007653D01*
X005261Y007614D01*
X005364Y007614D01*
X005460Y007653D01*
X005532Y007726D01*
X005572Y007822D01*
X005572Y007925D01*
X005532Y008020D01*
X005460Y008093D01*
X005364Y008132D01*
X005261Y008132D01*
X005166Y008093D01*
X005093Y008020D01*
X005054Y007925D01*
X005054Y007822D01*
X005093Y007726D01*
X005075Y007770D02*
X002163Y007770D01*
X002163Y007849D02*
X005054Y007849D01*
X005055Y007927D02*
X002158Y007927D01*
X002126Y008006D02*
X002413Y008006D01*
X002441Y007994D02*
X002544Y007994D01*
X002640Y008033D01*
X002712Y008106D01*
X002752Y008202D01*
X002752Y008305D01*
X002712Y008400D01*
X002640Y008473D01*
X002544Y008512D01*
X002441Y008512D01*
X002346Y008473D01*
X002273Y008400D01*
X002234Y008305D01*
X002234Y008202D01*
X002273Y008106D01*
X002346Y008033D01*
X002441Y007994D01*
X002572Y008006D02*
X005087Y008006D01*
X005157Y008084D02*
X004635Y008084D01*
X004634Y008084D02*
X004730Y008123D01*
X004802Y008196D01*
X004842Y008292D01*
X004842Y008395D01*
X004802Y008490D01*
X004784Y008508D01*
X004842Y008566D01*
X004882Y008662D01*
X004882Y008765D01*
X004842Y008860D01*
X004770Y008933D01*
X004674Y008972D01*
X004571Y008972D01*
X004476Y008933D01*
X004403Y008860D01*
X004364Y008765D01*
X004364Y008662D01*
X004403Y008566D01*
X004421Y008548D01*
X004363Y008490D01*
X004362Y008487D01*
X004352Y008510D01*
X004280Y008583D01*
X004184Y008622D01*
X004081Y008622D01*
X003986Y008583D01*
X003913Y008510D01*
X003874Y008415D01*
X003874Y008312D01*
X003913Y008216D01*
X003986Y008143D01*
X004081Y008104D01*
X004184Y008104D01*
X004280Y008143D01*
X004352Y008216D01*
X004354Y008219D01*
X004363Y008196D01*
X004436Y008123D01*
X004531Y008084D01*
X002690Y008084D01*
X002736Y008163D02*
X003967Y008163D01*
X003903Y008241D02*
X003766Y008241D01*
X003748Y008223D02*
X003821Y008296D01*
X003861Y008392D01*
X003861Y008495D01*
X003821Y008590D01*
X003748Y008663D01*
X003653Y008702D01*
X003550Y008702D01*
X003455Y008663D01*
X003382Y008590D01*
X003343Y008495D01*
X003343Y008392D01*
X003382Y008296D01*
X003455Y008223D01*
X003550Y008184D01*
X003653Y008184D01*
X003748Y008223D01*
X003831Y008320D02*
X003874Y008320D01*
X003874Y008398D02*
X003861Y008398D01*
X003861Y008477D02*
X003899Y008477D01*
X003958Y008555D02*
X003836Y008555D01*
X003778Y008634D02*
X004375Y008634D01*
X004364Y008712D02*
X002147Y008712D01*
X002163Y008791D02*
X004375Y008791D01*
X004412Y008869D02*
X002163Y008869D01*
X002150Y008948D02*
X004512Y008948D01*
X004734Y008948D02*
X008336Y008948D01*
X008323Y008869D02*
X004833Y008869D01*
X004871Y008791D02*
X005054Y008791D01*
X005086Y008823D02*
X005013Y008750D01*
X004974Y008655D01*
X004974Y008552D01*
X005013Y008456D01*
X005086Y008383D01*
X005181Y008344D01*
X005284Y008344D01*
X005307Y008353D01*
X005343Y008266D01*
X005416Y008193D01*
X005511Y008154D01*
X005614Y008154D01*
X005710Y008193D01*
X005782Y008266D01*
X005822Y008362D01*
X005822Y008465D01*
X005782Y008560D01*
X005710Y008633D01*
X005614Y008672D01*
X005511Y008672D01*
X005489Y008663D01*
X005452Y008750D01*
X005380Y008823D01*
X005284Y008862D01*
X005181Y008862D01*
X005086Y008823D01*
X004998Y008712D02*
X004882Y008712D01*
X004870Y008634D02*
X004974Y008634D01*
X004974Y008555D02*
X004831Y008555D01*
X004808Y008477D02*
X005005Y008477D01*
X005071Y008398D02*
X004840Y008398D01*
X004842Y008320D02*
X005321Y008320D01*
X005368Y008241D02*
X004821Y008241D01*
X004769Y008163D02*
X005491Y008163D01*
X005468Y008084D02*
X006533Y008084D01*
X006486Y008103D02*
X006581Y008064D01*
X006684Y008064D01*
X006780Y008103D01*
X006843Y008167D01*
X006896Y008113D01*
X006991Y008074D01*
X007094Y008074D01*
X007190Y008113D01*
X007262Y008186D01*
X007302Y008282D01*
X007302Y008385D01*
X007262Y008480D01*
X007190Y008553D01*
X007094Y008592D01*
X006991Y008592D01*
X006896Y008553D01*
X006833Y008489D01*
X006780Y008543D01*
X006684Y008582D01*
X006581Y008582D01*
X006486Y008543D01*
X006413Y008470D01*
X006374Y008375D01*
X006374Y008272D01*
X006413Y008176D01*
X006486Y008103D01*
X006427Y008163D02*
X005635Y008163D01*
X005757Y008241D02*
X006386Y008241D01*
X006374Y008320D02*
X006172Y008320D01*
X006134Y008304D02*
X006031Y008304D01*
X005936Y008343D01*
X005863Y008416D01*
X005824Y008512D01*
X005824Y008615D01*
X005863Y008710D01*
X005936Y008783D01*
X006031Y008822D01*
X006134Y008822D01*
X006230Y008783D01*
X006302Y008710D01*
X006342Y008615D01*
X006342Y008512D01*
X006302Y008416D01*
X006230Y008343D01*
X006134Y008304D01*
X005994Y008320D02*
X005804Y008320D01*
X005822Y008398D02*
X005881Y008398D01*
X005838Y008477D02*
X005817Y008477D01*
X005824Y008555D02*
X005784Y008555D01*
X005832Y008634D02*
X005707Y008634D01*
X005865Y008712D02*
X005468Y008712D01*
X005412Y008791D02*
X005955Y008791D01*
X006210Y008791D02*
X008323Y008791D01*
X008338Y008712D02*
X006300Y008712D01*
X006334Y008634D02*
X008371Y008634D01*
X008427Y008555D02*
X007184Y008555D01*
X007264Y008477D02*
X008506Y008477D01*
X008630Y008241D02*
X007285Y008241D01*
X007302Y008320D02*
X009083Y008320D01*
X009083Y008398D02*
X007296Y008398D01*
X007239Y008163D02*
X008478Y008163D01*
X008400Y008084D02*
X007119Y008084D01*
X006967Y008084D02*
X006733Y008084D01*
X006839Y008163D02*
X006847Y008163D01*
X006902Y008555D02*
X006750Y008555D01*
X006516Y008555D02*
X006342Y008555D01*
X006327Y008477D02*
X006420Y008477D01*
X006383Y008398D02*
X006284Y008398D01*
X005571Y007927D02*
X008327Y007927D01*
X008323Y007849D02*
X005572Y007849D01*
X005551Y007770D02*
X008323Y007770D01*
X008347Y007692D02*
X005498Y007692D01*
X005538Y008006D02*
X008360Y008006D01*
X008855Y008241D02*
X009083Y008241D01*
X009083Y008163D02*
X009007Y008163D01*
X008980Y008477D02*
X009083Y008477D01*
X009083Y008555D02*
X009059Y008555D01*
X009065Y009105D02*
X009083Y009105D01*
X009083Y009183D02*
X008987Y009183D01*
X009083Y009262D02*
X001403Y009262D01*
X001403Y009340D02*
X007834Y009340D01*
X007826Y009343D02*
X007921Y009304D01*
X008024Y009304D01*
X008120Y009343D01*
X008192Y009416D01*
X008232Y009512D01*
X008232Y009615D01*
X008192Y009710D01*
X008120Y009783D01*
X008024Y009822D01*
X007921Y009822D01*
X007826Y009783D01*
X007753Y009710D01*
X007714Y009615D01*
X007714Y009512D01*
X007753Y009416D01*
X007826Y009343D01*
X007752Y009419D02*
X001840Y009419D01*
X001646Y009419D02*
X001403Y009419D01*
X001403Y009497D02*
X001485Y009497D01*
X001406Y009576D02*
X001403Y009576D01*
X001403Y009183D02*
X001499Y009183D01*
X001420Y009105D02*
X001403Y009105D01*
X001403Y008555D02*
X001427Y008555D01*
X001403Y008477D02*
X001506Y008477D01*
X001403Y008398D02*
X002272Y008398D01*
X002240Y008320D02*
X001403Y008320D01*
X001403Y008241D02*
X001630Y008241D01*
X001478Y008163D02*
X001403Y008163D01*
X001855Y008241D02*
X002234Y008241D01*
X002250Y008163D02*
X002007Y008163D01*
X002086Y008084D02*
X002295Y008084D01*
X002355Y008477D02*
X001980Y008477D01*
X002059Y008555D02*
X003368Y008555D01*
X003343Y008477D02*
X002630Y008477D01*
X002713Y008398D02*
X003343Y008398D01*
X003372Y008320D02*
X002746Y008320D01*
X002752Y008241D02*
X003437Y008241D01*
X003426Y008634D02*
X002115Y008634D01*
X002117Y009026D02*
X008368Y009026D01*
X008420Y009105D02*
X002065Y009105D01*
X001987Y009183D02*
X008499Y009183D01*
X008574Y009425D02*
X008512Y009457D01*
X008456Y009497D01*
X008407Y009546D01*
X008366Y009602D01*
X008335Y009664D01*
X008314Y009730D01*
X008304Y009793D01*
X008703Y009793D01*
X008703Y009394D01*
X008640Y009404D01*
X008574Y009425D01*
X008595Y009419D02*
X008193Y009419D01*
X008226Y009497D02*
X008457Y009497D01*
X008386Y009576D02*
X008232Y009576D01*
X008215Y009654D02*
X008340Y009654D01*
X008313Y009733D02*
X008170Y009733D01*
X008051Y009811D02*
X008703Y009811D01*
X008703Y009733D02*
X008783Y009733D01*
X008783Y009654D02*
X008703Y009654D01*
X008703Y009576D02*
X008783Y009576D01*
X008783Y009497D02*
X008703Y009497D01*
X008703Y009419D02*
X008783Y009419D01*
X008891Y009419D02*
X009083Y009419D01*
X009083Y009340D02*
X008111Y009340D01*
X007720Y009497D02*
X002001Y009497D01*
X002079Y009576D02*
X007714Y009576D01*
X007730Y009654D02*
X002123Y009654D01*
X002156Y009733D02*
X007776Y009733D01*
X007754Y009764D02*
X007850Y009803D01*
X007922Y009876D01*
X007962Y009972D01*
X007962Y010075D01*
X007922Y010170D01*
X007850Y010243D01*
X007754Y010282D01*
X007651Y010282D01*
X004100Y010282D01*
X004100Y010279D02*
X004061Y010184D01*
X003988Y010111D01*
X003893Y010072D01*
X003790Y010072D01*
X003694Y010111D01*
X003622Y010184D01*
X003582Y010279D01*
X003582Y010382D01*
X003622Y010477D01*
X003694Y010550D01*
X003790Y010590D01*
X003893Y010590D01*
X003988Y010550D01*
X004061Y010477D01*
X004100Y010382D01*
X004100Y010279D01*
X004069Y010204D02*
X007517Y010204D01*
X007483Y010170D02*
X007444Y010075D01*
X007444Y009972D01*
X007483Y009876D01*
X007556Y009803D01*
X007651Y009764D01*
X007754Y009764D01*
X007857Y009811D02*
X007895Y009811D01*
X007928Y009890D02*
X008306Y009890D01*
X008324Y009968D02*
X007960Y009968D01*
X007962Y010047D02*
X008358Y010047D01*
X008413Y010125D02*
X007941Y010125D01*
X007889Y010204D02*
X008504Y010204D01*
X008596Y010439D02*
X004077Y010439D01*
X004100Y010361D02*
X009083Y010361D01*
X009083Y010439D02*
X008889Y010439D01*
X008981Y010204D02*
X009083Y010204D01*
X009083Y010282D02*
X007754Y010282D01*
X007651Y010282D02*
X007556Y010243D01*
X007483Y010170D01*
X007465Y010125D02*
X004002Y010125D01*
X003680Y010125D02*
X002812Y010125D01*
X002812Y010047D02*
X007444Y010047D01*
X007445Y009968D02*
X002781Y009968D01*
X002716Y009890D02*
X007478Y009890D01*
X007548Y009811D02*
X002163Y009811D01*
X002163Y009890D02*
X002390Y009890D01*
X002324Y009968D02*
X002141Y009968D01*
X002109Y010047D02*
X002294Y010047D01*
X002294Y010125D02*
X002045Y010125D01*
X001946Y010204D02*
X002166Y010204D01*
X002108Y010282D02*
X001403Y010282D01*
X001403Y010204D02*
X001540Y010204D01*
X001441Y010125D02*
X001403Y010125D01*
X001403Y010361D02*
X002084Y010361D01*
X002084Y010439D02*
X001889Y010439D01*
X002021Y010518D02*
X002114Y010518D01*
X002099Y010596D02*
X002179Y010596D01*
X002160Y010675D02*
X002132Y010675D01*
X002133Y010989D02*
X002192Y010989D01*
X002100Y011067D02*
X002319Y011067D01*
X002446Y011067D02*
X004202Y011067D01*
X004203Y011070D02*
X004164Y010975D01*
X004164Y010872D01*
X004203Y010776D01*
X004276Y010703D01*
X004371Y010664D01*
X004474Y010664D01*
X004570Y010703D01*
X004642Y010776D01*
X004682Y010872D01*
X004682Y010975D01*
X004642Y011070D01*
X004570Y011143D01*
X004474Y011182D01*
X004371Y011182D01*
X004276Y011143D01*
X004203Y011070D01*
X004170Y010989D02*
X002574Y010989D01*
X002623Y010910D02*
X004164Y010910D01*
X004180Y010832D02*
X002642Y010832D01*
X002638Y010753D02*
X004226Y010753D01*
X004346Y010675D02*
X002606Y010675D01*
X002532Y010596D02*
X005841Y010596D01*
X005853Y010566D02*
X005926Y010493D01*
X006021Y010454D01*
X006124Y010454D01*
X006220Y010493D01*
X006292Y010566D01*
X006332Y010662D01*
X006332Y010678D01*
X006346Y010663D01*
X006441Y010624D01*
X006544Y010624D01*
X006640Y010663D01*
X006712Y010736D01*
X006752Y010832D01*
X008323Y010832D01*
X008323Y010910D02*
X006752Y010910D01*
X006752Y010935D02*
X006712Y011030D01*
X006640Y011103D01*
X006544Y011142D01*
X006441Y011142D01*
X006346Y011103D01*
X006273Y011030D01*
X006234Y010935D01*
X006234Y010918D01*
X006220Y010933D01*
X006124Y010972D01*
X006021Y010972D01*
X005926Y010933D01*
X005853Y010860D01*
X005814Y010765D01*
X005814Y010662D01*
X005853Y010566D01*
X005902Y010518D02*
X004021Y010518D01*
X003662Y010518D02*
X002572Y010518D01*
X002602Y010439D02*
X003606Y010439D01*
X003582Y010361D02*
X002602Y010361D01*
X002730Y010282D02*
X003582Y010282D01*
X003613Y010204D02*
X002787Y010204D01*
X002024Y011146D02*
X004283Y011146D01*
X004563Y011146D02*
X006989Y011146D01*
X006946Y011163D02*
X007041Y011124D01*
X007144Y011124D01*
X007240Y011163D01*
X007273Y011197D01*
X007306Y011163D01*
X007401Y011124D01*
X007504Y011124D01*
X007600Y011163D01*
X007672Y011236D01*
X007712Y011332D01*
X007712Y011435D01*
X007672Y011530D01*
X007600Y011603D01*
X007504Y011642D01*
X007401Y011642D01*
X007306Y011603D01*
X007273Y011569D01*
X007240Y011603D01*
X007144Y011642D01*
X007041Y011642D01*
X006946Y011603D01*
X006873Y011530D01*
X006834Y011435D01*
X006834Y011332D01*
X006873Y011236D01*
X006946Y011163D01*
X006885Y011224D02*
X001896Y011224D01*
X001846Y011404D02*
X001783Y011394D01*
X001783Y011793D01*
X002182Y011793D01*
X002172Y011730D01*
X002151Y011664D01*
X002119Y011602D01*
X002078Y011546D01*
X002029Y011497D01*
X001973Y011457D01*
X001912Y011425D01*
X001846Y011404D01*
X001783Y011460D02*
X001703Y011460D01*
X001703Y011538D02*
X001783Y011538D01*
X001783Y011617D02*
X001703Y011617D01*
X001703Y011695D02*
X001783Y011695D01*
X001783Y011774D02*
X001703Y011774D01*
X001783Y011852D02*
X008323Y011852D01*
X008323Y011774D02*
X002179Y011774D01*
X002161Y011695D02*
X008062Y011695D01*
X007982Y011617D02*
X007566Y011617D01*
X007664Y011538D02*
X007949Y011538D01*
X007944Y011460D02*
X007702Y011460D01*
X007712Y011381D02*
X007960Y011381D01*
X008007Y011303D02*
X007700Y011303D01*
X007660Y011224D02*
X008127Y011224D01*
X008279Y011224D02*
X008589Y011224D01*
X008461Y011146D02*
X007556Y011146D01*
X007349Y011146D02*
X007196Y011146D01*
X006846Y011303D02*
X001403Y011303D01*
X001403Y011381D02*
X006834Y011381D01*
X006844Y011460D02*
X001977Y011460D01*
X002070Y011538D02*
X006881Y011538D01*
X006980Y011617D02*
X002126Y011617D01*
X002173Y011931D02*
X008329Y011931D01*
X008361Y012009D02*
X002147Y012009D01*
X002102Y012088D02*
X008403Y012088D01*
X008482Y012166D02*
X002032Y012166D01*
X001900Y012245D02*
X008639Y012245D01*
X008847Y012245D02*
X009083Y012245D01*
X009083Y012323D02*
X001403Y012323D01*
X001403Y012245D02*
X001586Y012245D01*
X001703Y012245D02*
X001783Y012245D01*
X001783Y012166D02*
X001703Y012166D01*
X001703Y012088D02*
X001783Y012088D01*
X001783Y012009D02*
X001703Y012009D01*
X001703Y011931D02*
X001783Y011931D01*
X001454Y012166D02*
X001403Y012166D01*
X001403Y012402D02*
X009083Y012402D01*
X009083Y012480D02*
X008984Y012480D01*
X009062Y012559D02*
X009083Y012559D01*
X009083Y012166D02*
X009004Y012166D01*
X009082Y012088D02*
X009083Y012088D01*
X009083Y011538D02*
X009042Y011538D01*
X009083Y011460D02*
X008939Y011460D01*
X009083Y011381D02*
X008445Y011381D01*
X008462Y011460D02*
X008547Y011460D01*
X008399Y011303D02*
X009083Y011303D01*
X009083Y011224D02*
X008896Y011224D01*
X009024Y011146D02*
X009083Y011146D01*
X009083Y010518D02*
X009021Y010518D01*
X008783Y010204D02*
X008703Y010204D01*
X008703Y010125D02*
X008783Y010125D01*
X008783Y010047D02*
X008703Y010047D01*
X008703Y009968D02*
X008783Y009968D01*
X008783Y009890D02*
X008703Y009890D01*
X009073Y010125D02*
X009083Y010125D01*
X009078Y009546D02*
X009029Y009497D01*
X008464Y010518D02*
X006244Y010518D01*
X006305Y010596D02*
X008386Y010596D01*
X008354Y010675D02*
X006651Y010675D01*
X006719Y010753D02*
X008323Y010753D01*
X008353Y010989D02*
X006729Y010989D01*
X006752Y010935D02*
X006752Y010832D01*
X006675Y011067D02*
X008385Y011067D01*
X008344Y011695D02*
X008345Y011695D01*
X008502Y012480D02*
X006856Y012480D01*
X006840Y012463D02*
X006912Y012536D01*
X006952Y012632D01*
X006952Y012735D01*
X006912Y012830D01*
X006840Y012903D01*
X006744Y012942D01*
X006641Y012942D01*
X006546Y012903D01*
X006473Y012830D01*
X006434Y012735D01*
X006434Y012632D01*
X006473Y012536D01*
X006546Y012463D01*
X006641Y012424D01*
X006744Y012424D01*
X006840Y012463D01*
X006922Y012559D02*
X008423Y012559D01*
X008369Y012637D02*
X006952Y012637D01*
X006952Y012716D02*
X008337Y012716D01*
X008323Y012794D02*
X006927Y012794D01*
X006870Y012873D02*
X008323Y012873D01*
X008337Y012951D02*
X006510Y012951D01*
X006540Y012963D02*
X006612Y013036D01*
X006652Y013132D01*
X006652Y013235D01*
X006612Y013330D01*
X006540Y013403D01*
X006444Y013442D01*
X006341Y013442D01*
X006246Y013403D01*
X006173Y013330D01*
X006134Y013235D01*
X006134Y013216D01*
X006066Y013244D01*
X005955Y013244D01*
X005853Y013202D01*
X005775Y013124D01*
X005733Y013022D01*
X005733Y012912D01*
X005775Y012810D01*
X005853Y012732D01*
X005955Y012689D01*
X006066Y012689D01*
X006168Y012732D01*
X006246Y012810D01*
X006288Y012912D01*
X006288Y012946D01*
X006341Y012924D01*
X006444Y012924D01*
X006540Y012963D01*
X006516Y012873D02*
X006272Y012873D01*
X006230Y012794D02*
X006458Y012794D01*
X006434Y012716D02*
X006129Y012716D01*
X005892Y012716D02*
X004593Y012716D01*
X004632Y012732D02*
X004710Y012810D01*
X004753Y012912D01*
X004753Y013022D01*
X004710Y013124D01*
X004632Y013202D01*
X004530Y013244D01*
X004420Y013244D01*
X004318Y013202D01*
X004240Y013124D01*
X004198Y013022D01*
X004198Y012912D01*
X004240Y012810D01*
X004318Y012732D01*
X004420Y012689D01*
X004530Y012689D01*
X004632Y012732D01*
X004695Y012794D02*
X005791Y012794D01*
X005749Y012873D02*
X004736Y012873D01*
X004753Y012951D02*
X005733Y012951D01*
X005736Y013030D02*
X004749Y013030D01*
X004717Y013108D02*
X005769Y013108D01*
X005838Y013187D02*
X004648Y013187D01*
X004302Y013187D02*
X002613Y013187D01*
X002612Y013186D02*
X002652Y013282D01*
X002652Y013385D01*
X002612Y013480D01*
X002540Y013553D01*
X002444Y013592D01*
X002341Y013592D01*
X002246Y013553D01*
X002173Y013480D01*
X002134Y013385D01*
X002134Y013282D01*
X002173Y013186D01*
X002246Y013113D01*
X002341Y013074D01*
X002444Y013074D01*
X002540Y013113D01*
X002612Y013186D01*
X002645Y013265D02*
X006146Y013265D01*
X006187Y013344D02*
X002652Y013344D01*
X002636Y013422D02*
X006293Y013422D01*
X006493Y013422D02*
X008045Y013422D01*
X008006Y013344D02*
X006599Y013344D01*
X006639Y013265D02*
X007994Y013265D01*
X008004Y013187D02*
X006652Y013187D01*
X006642Y013108D02*
X008041Y013108D01*
X008139Y013030D02*
X006606Y013030D01*
X006434Y012637D02*
X002563Y012637D01*
X002595Y012716D02*
X004357Y012716D01*
X004255Y012794D02*
X002602Y012794D01*
X002586Y012873D02*
X004214Y012873D01*
X004198Y012951D02*
X002541Y012951D01*
X002425Y013030D02*
X004201Y013030D01*
X004233Y013108D02*
X002527Y013108D01*
X002259Y013108D02*
X002062Y013108D01*
X002116Y013030D02*
X002261Y013030D01*
X002173Y013187D02*
X001983Y013187D01*
X002141Y013265D02*
X001403Y013265D01*
X001403Y013187D02*
X001502Y013187D01*
X001424Y013108D02*
X001403Y013108D01*
X001403Y013344D02*
X002134Y013344D01*
X002149Y013422D02*
X001403Y013422D01*
X001403Y013501D02*
X002194Y013501D01*
X002310Y013579D02*
X001403Y013579D01*
X001403Y013658D02*
X002602Y013658D01*
X002573Y013686D02*
X002646Y013613D01*
X002741Y013574D01*
X002844Y013574D01*
X002940Y013613D01*
X003012Y013686D01*
X003052Y013782D01*
X003052Y013885D01*
X003012Y013980D01*
X002940Y014053D01*
X002844Y014092D01*
X002741Y014092D01*
X002646Y014053D01*
X002573Y013980D01*
X002534Y013885D01*
X002534Y013782D01*
X002573Y013686D01*
X002553Y013736D02*
X001403Y013736D01*
X001403Y013815D02*
X002534Y013815D01*
X002537Y013893D02*
X001403Y013893D01*
X001403Y013972D02*
X002570Y013972D01*
X002643Y014050D02*
X001403Y014050D01*
X001403Y014129D02*
X009083Y014129D01*
X009083Y014050D02*
X002942Y014050D01*
X003016Y013972D02*
X009083Y013972D01*
X009083Y013893D02*
X003048Y013893D01*
X003052Y013815D02*
X009083Y013815D01*
X009083Y013736D02*
X003033Y013736D01*
X002984Y013658D02*
X009083Y013658D01*
X009083Y013579D02*
X002857Y013579D01*
X002729Y013579D02*
X002476Y013579D01*
X002592Y013501D02*
X008149Y013501D01*
X008356Y013501D02*
X009083Y013501D01*
X009083Y013422D02*
X008460Y013422D01*
X008500Y013344D02*
X009083Y013344D01*
X009083Y013265D02*
X008512Y013265D01*
X008502Y013187D02*
X008502Y013187D01*
X008370Y013030D02*
X008366Y013030D01*
X008983Y013187D02*
X009083Y013187D01*
X009083Y013108D02*
X009062Y013108D01*
X007340Y011617D02*
X007206Y011617D01*
X006529Y012480D02*
X001984Y012480D01*
X002062Y012559D02*
X002208Y012559D01*
X002123Y012637D02*
X002116Y012637D01*
X002478Y012559D02*
X006464Y012559D01*
X006310Y011067D02*
X004644Y011067D01*
X004676Y010989D02*
X006256Y010989D01*
X006332Y010675D02*
X006335Y010675D01*
X005903Y010910D02*
X004682Y010910D01*
X004665Y010832D02*
X005842Y010832D01*
X005814Y010753D02*
X004619Y010753D01*
X004500Y010675D02*
X005814Y010675D01*
X004414Y008555D02*
X004307Y008555D01*
X004299Y008163D02*
X004397Y008163D01*
X004531Y008084D02*
X004634Y008084D01*
X005013Y007299D02*
X005542Y007299D01*
X005499Y007221D02*
X005080Y007221D01*
X005112Y007142D02*
X005484Y007142D01*
X005491Y007064D02*
X005112Y007064D01*
X005088Y006985D02*
X005524Y006985D01*
X005613Y006907D02*
X005033Y006907D01*
X006544Y005180D02*
X001990Y005180D01*
X002069Y005101D02*
X006534Y005101D01*
X006546Y005023D02*
X002119Y005023D01*
X002151Y004944D02*
X006585Y004944D01*
X006689Y004866D02*
X002163Y004866D01*
X001997Y005494D02*
X008488Y005494D01*
X008410Y005572D02*
X002076Y005572D01*
X002122Y005651D02*
X008364Y005651D01*
X008331Y005729D02*
X002154Y005729D01*
X002163Y005808D02*
X008323Y005808D01*
X008323Y005886D02*
X002163Y005886D01*
X002143Y005965D02*
X008343Y005965D01*
X008375Y006043D02*
X002110Y006043D01*
X002048Y006122D02*
X008437Y006122D01*
X008531Y006200D02*
X001954Y006200D01*
X001555Y007456D02*
X001403Y007456D01*
X001403Y007535D02*
X001447Y007535D01*
X001403Y010439D02*
X001596Y010439D01*
X001464Y010518D02*
X001403Y010518D01*
X001403Y011146D02*
X001461Y011146D01*
X001403Y011224D02*
X001589Y011224D01*
X001508Y011460D02*
X001403Y011460D01*
X001403Y011538D02*
X001416Y011538D01*
X001403Y012480D02*
X001502Y012480D01*
X001423Y012559D02*
X001403Y012559D01*
X006906Y005337D02*
X009083Y005337D01*
X009083Y005415D02*
X008831Y005415D01*
X008997Y005494D02*
X009083Y005494D01*
X009076Y005572D02*
X009083Y005572D01*
X009083Y005258D02*
X007004Y005258D01*
X007245Y004787D02*
X008323Y004787D01*
X008340Y004709D02*
X007299Y004709D01*
X007289Y004473D02*
X008514Y004473D01*
X008622Y004238D02*
X007035Y004238D01*
X007072Y004159D02*
X008475Y004159D01*
X008396Y004081D02*
X007082Y004081D01*
X007070Y004002D02*
X008358Y004002D01*
X008326Y003924D02*
X007030Y003924D01*
X006925Y003845D02*
X008323Y003845D01*
X008864Y004238D02*
X009083Y004238D01*
X009083Y004316D02*
X006937Y004316D01*
X007221Y004395D02*
X009083Y004395D01*
X009083Y004473D02*
X008971Y004473D01*
X009055Y004552D02*
X009083Y004552D01*
X009083Y004159D02*
X009011Y004159D01*
X009035Y003531D02*
X009083Y003531D01*
X009083Y003453D02*
X008922Y003453D01*
X008913Y003217D02*
X009083Y003217D01*
X009083Y003139D02*
X009031Y003139D01*
X009014Y002511D02*
X009083Y002511D01*
X009083Y002432D02*
X008872Y002432D01*
X006720Y003845D02*
X006631Y003845D01*
X008881Y006436D02*
X009083Y006436D01*
X009083Y006514D02*
X009018Y006514D01*
X008954Y006200D02*
X009083Y006200D01*
X009083Y006122D02*
X009048Y006122D01*
X009083Y005180D02*
X008990Y005180D01*
X009069Y005101D02*
X009083Y005101D01*
X009028Y007142D02*
X009083Y007142D01*
X009083Y007221D02*
X008905Y007221D01*
D12*
X008243Y008333D03*
X007973Y009563D03*
X007703Y010023D03*
X007453Y011383D03*
X007093Y011383D03*
X006493Y010883D03*
X006073Y010713D03*
X006443Y010323D03*
X006643Y008713D03*
X006633Y008323D03*
X007043Y008333D03*
X006083Y008563D03*
X005563Y008413D03*
X005233Y008603D03*
X005313Y007873D03*
X004643Y007933D03*
X004583Y008343D03*
X004623Y008713D03*
X004133Y008363D03*
X003602Y008443D03*
X002493Y008253D03*
X002553Y010093D03*
X002343Y010393D03*
X002383Y010813D03*
X003903Y010913D03*
X003841Y010331D03*
X004423Y010923D03*
X003893Y012713D03*
X004643Y014033D03*
X004943Y014033D03*
X005243Y014033D03*
X005543Y014033D03*
X005843Y014033D03*
X006393Y013183D03*
X006693Y012683D03*
X008253Y013263D03*
X008293Y012333D03*
X008203Y011473D03*
X005743Y007133D03*
X004853Y007093D03*
X005943Y005503D03*
X006793Y005103D03*
X007063Y004603D03*
X006823Y004083D03*
X006453Y004033D03*
X006073Y003953D03*
X005743Y001833D03*
X004793Y001833D03*
X003843Y001833D03*
X002643Y001833D03*
X002643Y002943D03*
X006783Y006273D03*
X008073Y004193D03*
X002343Y012783D03*
X002393Y013333D03*
X002793Y013833D03*
X001943Y013433D03*
M02*
