G75*
G70*
%OFA0B0*%
%FSLAX24Y24*%
%IPPOS*%
%LPD*%
%AMOC8*
5,1,8,0,0,1.08239X$1,22.5*
%
%ADD10R,0.0630X0.0551*%
%ADD11R,0.0472X0.0217*%
%ADD12R,0.0433X0.0748*%
%ADD13R,0.0433X0.0394*%
%ADD14R,0.0394X0.0709*%
%ADD15R,0.0248X0.0327*%
%ADD16R,0.0079X0.0394*%
%ADD17R,0.0394X0.0079*%
%ADD18R,0.0394X0.0433*%
%ADD19R,0.0220X0.0590*%
%ADD20R,0.0390X0.0118*%
%ADD21R,0.0551X0.0630*%
D10*
X003743Y010099D03*
X003743Y011201D03*
X006743Y011201D03*
X006743Y010099D03*
D11*
X005755Y010276D03*
X005755Y011024D03*
X004731Y011024D03*
X004731Y010650D03*
X004731Y010276D03*
D12*
X003390Y002372D03*
X004296Y002372D03*
X004296Y003828D03*
X003390Y003828D03*
D13*
X003508Y004500D03*
X004177Y004500D03*
X005043Y003485D03*
X005043Y002815D03*
X004177Y001700D03*
X003508Y001700D03*
X007408Y007150D03*
X008077Y007150D03*
X005577Y009600D03*
X004908Y009600D03*
X002943Y009815D03*
X002943Y010485D03*
D14*
X004792Y011900D03*
X005894Y011900D03*
D15*
X005696Y012700D03*
X004790Y012700D03*
D16*
G36*
X005841Y009334D02*
X005896Y009279D01*
X005619Y009002D01*
X005564Y009057D01*
X005841Y009334D01*
G37*
G36*
X005980Y009195D02*
X006035Y009140D01*
X005758Y008863D01*
X005703Y008918D01*
X005980Y009195D01*
G37*
G36*
X006119Y009056D02*
X006174Y009001D01*
X005897Y008724D01*
X005842Y008779D01*
X006119Y009056D01*
G37*
G36*
X006259Y008917D02*
X006314Y008862D01*
X006037Y008585D01*
X005982Y008640D01*
X006259Y008917D01*
G37*
G36*
X006398Y008778D02*
X006453Y008723D01*
X006176Y008446D01*
X006121Y008501D01*
X006398Y008778D01*
G37*
G36*
X006537Y008638D02*
X006592Y008583D01*
X006315Y008306D01*
X006260Y008361D01*
X006537Y008638D01*
G37*
G36*
X006676Y008499D02*
X006731Y008444D01*
X006454Y008167D01*
X006399Y008222D01*
X006676Y008499D01*
G37*
G36*
X006815Y008360D02*
X006870Y008305D01*
X006593Y008028D01*
X006538Y008083D01*
X006815Y008360D01*
G37*
G36*
X006955Y008221D02*
X007010Y008166D01*
X006733Y007889D01*
X006678Y007944D01*
X006955Y008221D01*
G37*
G36*
X007094Y008082D02*
X007149Y008027D01*
X006872Y007750D01*
X006817Y007805D01*
X007094Y008082D01*
G37*
G36*
X007233Y007942D02*
X007288Y007887D01*
X007011Y007610D01*
X006956Y007665D01*
X007233Y007942D01*
G37*
G36*
X007372Y007803D02*
X007427Y007748D01*
X007150Y007471D01*
X007095Y007526D01*
X007372Y007803D01*
G37*
G36*
X004867Y005298D02*
X004922Y005243D01*
X004645Y004966D01*
X004590Y005021D01*
X004867Y005298D01*
G37*
G36*
X004727Y005437D02*
X004782Y005382D01*
X004505Y005105D01*
X004450Y005160D01*
X004727Y005437D01*
G37*
G36*
X004588Y005576D02*
X004643Y005521D01*
X004366Y005244D01*
X004311Y005299D01*
X004588Y005576D01*
G37*
G36*
X004449Y005715D02*
X004504Y005660D01*
X004227Y005383D01*
X004172Y005438D01*
X004449Y005715D01*
G37*
G36*
X004310Y005854D02*
X004365Y005799D01*
X004088Y005522D01*
X004033Y005577D01*
X004310Y005854D01*
G37*
G36*
X004171Y005994D02*
X004226Y005939D01*
X003949Y005662D01*
X003894Y005717D01*
X004171Y005994D01*
G37*
G36*
X004031Y006133D02*
X004086Y006078D01*
X003809Y005801D01*
X003754Y005856D01*
X004031Y006133D01*
G37*
G36*
X003892Y006272D02*
X003947Y006217D01*
X003670Y005940D01*
X003615Y005995D01*
X003892Y006272D01*
G37*
G36*
X003753Y006411D02*
X003808Y006356D01*
X003531Y006079D01*
X003476Y006134D01*
X003753Y006411D01*
G37*
G36*
X003614Y006550D02*
X003669Y006495D01*
X003392Y006218D01*
X003337Y006273D01*
X003614Y006550D01*
G37*
G36*
X003475Y006690D02*
X003530Y006635D01*
X003253Y006358D01*
X003198Y006413D01*
X003475Y006690D01*
G37*
G36*
X003335Y006829D02*
X003390Y006774D01*
X003113Y006497D01*
X003058Y006552D01*
X003335Y006829D01*
G37*
D17*
G36*
X003113Y007803D02*
X003390Y007526D01*
X003335Y007471D01*
X003058Y007748D01*
X003113Y007803D01*
G37*
G36*
X003253Y007942D02*
X003530Y007665D01*
X003475Y007610D01*
X003198Y007887D01*
X003253Y007942D01*
G37*
G36*
X003392Y008082D02*
X003669Y007805D01*
X003614Y007750D01*
X003337Y008027D01*
X003392Y008082D01*
G37*
G36*
X003531Y008221D02*
X003808Y007944D01*
X003753Y007889D01*
X003476Y008166D01*
X003531Y008221D01*
G37*
G36*
X003670Y008360D02*
X003947Y008083D01*
X003892Y008028D01*
X003615Y008305D01*
X003670Y008360D01*
G37*
G36*
X003809Y008499D02*
X004086Y008222D01*
X004031Y008167D01*
X003754Y008444D01*
X003809Y008499D01*
G37*
G36*
X003949Y008638D02*
X004226Y008361D01*
X004171Y008306D01*
X003894Y008583D01*
X003949Y008638D01*
G37*
G36*
X004088Y008778D02*
X004365Y008501D01*
X004310Y008446D01*
X004033Y008723D01*
X004088Y008778D01*
G37*
G36*
X004227Y008917D02*
X004504Y008640D01*
X004449Y008585D01*
X004172Y008862D01*
X004227Y008917D01*
G37*
G36*
X004366Y009056D02*
X004643Y008779D01*
X004588Y008724D01*
X004311Y009001D01*
X004366Y009056D01*
G37*
G36*
X004505Y009195D02*
X004782Y008918D01*
X004727Y008863D01*
X004450Y009140D01*
X004505Y009195D01*
G37*
G36*
X004645Y009334D02*
X004922Y009057D01*
X004867Y009002D01*
X004590Y009279D01*
X004645Y009334D01*
G37*
G36*
X006733Y006411D02*
X007010Y006134D01*
X006955Y006079D01*
X006678Y006356D01*
X006733Y006411D01*
G37*
G36*
X006872Y006550D02*
X007149Y006273D01*
X007094Y006218D01*
X006817Y006495D01*
X006872Y006550D01*
G37*
G36*
X007011Y006690D02*
X007288Y006413D01*
X007233Y006358D01*
X006956Y006635D01*
X007011Y006690D01*
G37*
G36*
X007150Y006829D02*
X007427Y006552D01*
X007372Y006497D01*
X007095Y006774D01*
X007150Y006829D01*
G37*
G36*
X006593Y006272D02*
X006870Y005995D01*
X006815Y005940D01*
X006538Y006217D01*
X006593Y006272D01*
G37*
G36*
X006454Y006133D02*
X006731Y005856D01*
X006676Y005801D01*
X006399Y006078D01*
X006454Y006133D01*
G37*
G36*
X006315Y005994D02*
X006592Y005717D01*
X006537Y005662D01*
X006260Y005939D01*
X006315Y005994D01*
G37*
G36*
X006176Y005854D02*
X006453Y005577D01*
X006398Y005522D01*
X006121Y005799D01*
X006176Y005854D01*
G37*
G36*
X006037Y005715D02*
X006314Y005438D01*
X006259Y005383D01*
X005982Y005660D01*
X006037Y005715D01*
G37*
G36*
X005897Y005576D02*
X006174Y005299D01*
X006119Y005244D01*
X005842Y005521D01*
X005897Y005576D01*
G37*
G36*
X005758Y005437D02*
X006035Y005160D01*
X005980Y005105D01*
X005703Y005382D01*
X005758Y005437D01*
G37*
G36*
X005619Y005298D02*
X005896Y005021D01*
X005841Y004966D01*
X005564Y005243D01*
X005619Y005298D01*
G37*
D18*
X005243Y004985D03*
X005243Y004315D03*
X005043Y002335D03*
X005043Y001665D03*
X003393Y005015D03*
X003393Y005685D03*
X003558Y012150D03*
X003558Y012650D03*
X004227Y012650D03*
X004227Y012150D03*
X007843Y011135D03*
X007843Y010465D03*
D19*
X007193Y004190D03*
X006693Y004190D03*
X006193Y004190D03*
X005693Y004190D03*
X005693Y001310D03*
X006193Y001310D03*
X006693Y001310D03*
X007193Y001310D03*
D20*
X003012Y012144D03*
X003012Y012400D03*
X003012Y012656D03*
X002378Y012656D03*
X002378Y012400D03*
X002378Y012144D03*
D21*
X006892Y012550D03*
X007994Y012550D03*
M02*
