%
M48
M72
T01C0.0118
T02C0.0400
%
T01
X2443Y2869
X4593Y4119
X5103Y4909
X4593Y5569
X3793Y6069
X4593Y6969
X5043Y6869
X4643Y7769
X4543Y8469
X4543Y9019
X4793Y9439
X5393Y10219
X6293Y10219
X6993Y10569
X7293Y10369
X7493Y10769
X7893Y10519
X7843Y9419
X7193Y9419
X6793Y8369
X6993Y8069
X6443Y8519
X6243Y7469
X5843Y6919
X6343Y6119
X6843Y5769
X6943Y4219
X7093Y3819
X6193Y4119
X6143Y3769
X5493Y3919
X4643Y2819
X7993Y2719
X7993Y2219
X8093Y7619
X5743Y8519
X5393Y8519
X5143Y8219
X3743Y10169
X3243Y10169
X2743Y10169
X2343Y10219
X3562Y8319
X4293Y11919
X4143Y12569
X5243Y13119
X6343Y12919
X6943Y12969
X7443Y13769
X2493Y12619
X1843Y13419
X1643Y13769
T02
X1743Y1669
X1743Y2669
X1743Y3669
X1743Y4669
X1743Y5669
X1743Y6669
X1743Y7669
X1743Y8669
X1743Y9669
X1743Y10669
X1743Y11669
X1743Y12669
X8743Y12669
X8743Y11669
X8743Y10669
X8743Y9669
X8743Y8669
X8743Y7669
X8743Y6669
X8743Y5669
X8743Y4669
X8743Y3669
X8743Y2669
X8743Y1669
M30
