G75*
G70*
%OFA0B0*%
%FSLAX24Y24*%
%IPPOS*%
%LPD*%
%AMOC8*
5,1,8,0,0,1.08239X$1,22.5*
%
%ADD10C,0.0397*%
%ADD11C,0.0550*%
%ADD12C,0.0080*%
%ADD13C,0.0278*%
%ADD14C,0.0100*%
D10*
X004150Y013705D03*
X006335Y013705D03*
D11*
X008743Y012705D03*
X008743Y011705D03*
X008743Y010705D03*
X008743Y009705D03*
X008743Y008705D03*
X008743Y007705D03*
X008743Y006705D03*
X008743Y005705D03*
X008743Y004705D03*
X008743Y003705D03*
X008743Y002705D03*
X008743Y001705D03*
X001743Y001705D03*
X001743Y002705D03*
X001743Y003705D03*
X001743Y004705D03*
X001743Y005705D03*
X001743Y006705D03*
X001743Y007705D03*
X001743Y008705D03*
X001743Y009705D03*
X001743Y010705D03*
X001743Y011705D03*
X001743Y012705D03*
D12*
X001363Y011537D02*
X001363Y001455D01*
X001462Y001455D01*
X001425Y001493D01*
X001368Y001630D01*
X001368Y001780D01*
X001425Y001917D01*
X001530Y002023D01*
X001668Y002080D01*
X001817Y002080D01*
X001955Y002023D01*
X002061Y001917D01*
X002118Y001780D01*
X002118Y001630D01*
X002061Y001493D01*
X002023Y001455D01*
X008462Y001455D01*
X008425Y001493D01*
X008368Y001630D01*
X008368Y001780D01*
X008425Y001917D01*
X008530Y002023D01*
X008668Y002080D01*
X008817Y002080D01*
X008955Y002023D01*
X009061Y001917D01*
X009118Y001780D01*
X009118Y001630D01*
X009061Y001493D01*
X009023Y001455D01*
X009123Y001455D01*
X009123Y009537D01*
X009098Y009487D01*
X009059Y009435D01*
X009013Y009388D01*
X008960Y009350D01*
X008902Y009320D01*
X008840Y009300D01*
X008783Y009291D01*
X008783Y009665D01*
X008703Y009665D01*
X008703Y009291D01*
X008646Y009300D01*
X008583Y009320D01*
X008525Y009350D01*
X008472Y009388D01*
X008426Y009435D01*
X008388Y009487D01*
X008358Y009546D01*
X008338Y009608D01*
X008329Y009665D01*
X008703Y009665D01*
X008703Y009745D01*
X008703Y010119D01*
X008646Y010110D01*
X008583Y010090D01*
X008525Y010060D01*
X008472Y010022D01*
X008426Y009975D01*
X008388Y009923D01*
X008358Y009864D01*
X008338Y009802D01*
X008329Y009745D01*
X008703Y009745D01*
X008783Y009745D01*
X008783Y010119D01*
X008840Y010110D01*
X008902Y010090D01*
X008960Y010060D01*
X009013Y010022D01*
X009059Y009975D01*
X009098Y009923D01*
X009123Y009873D01*
X009123Y014085D01*
X001363Y014085D01*
X001363Y011873D01*
X001388Y011923D01*
X001426Y011975D01*
X001472Y012022D01*
X001525Y012060D01*
X001583Y012090D01*
X001646Y012110D01*
X001703Y012119D01*
X001703Y011745D01*
X001783Y011745D01*
X002157Y011745D01*
X002148Y011802D01*
X002127Y011864D01*
X002098Y011923D01*
X002059Y011975D01*
X002013Y012022D01*
X001960Y012060D01*
X001902Y012090D01*
X001840Y012110D01*
X001783Y012119D01*
X001783Y011745D01*
X001783Y011665D01*
X002157Y011665D01*
X002148Y011608D01*
X002127Y011546D01*
X002098Y011487D01*
X002059Y011435D01*
X002013Y011388D01*
X001960Y011350D01*
X001902Y011320D01*
X001840Y011300D01*
X001783Y011291D01*
X001783Y011665D01*
X001703Y011665D01*
X001703Y011291D01*
X001646Y011300D01*
X001583Y011320D01*
X001525Y011350D01*
X001472Y011388D01*
X001426Y011435D01*
X001388Y011487D01*
X001363Y011537D01*
X001363Y011509D02*
X001377Y011509D01*
X001363Y011431D02*
X001430Y011431D01*
X001363Y011352D02*
X001523Y011352D01*
X001363Y011274D02*
X006538Y011274D01*
X006534Y011263D02*
X006534Y011167D01*
X006570Y011080D01*
X006637Y011012D01*
X006725Y010976D01*
X006820Y010976D01*
X006908Y011012D01*
X006975Y011080D01*
X006991Y011118D01*
X007017Y011092D01*
X007105Y011056D01*
X007200Y011056D01*
X007288Y011092D01*
X007355Y011160D01*
X007392Y011247D01*
X007392Y011343D01*
X007355Y011430D01*
X007288Y011498D01*
X007200Y011534D01*
X007105Y011534D01*
X007017Y011498D01*
X006950Y011430D01*
X006934Y011392D01*
X006908Y011418D01*
X006820Y011454D01*
X006725Y011454D01*
X006637Y011418D01*
X006570Y011350D01*
X006534Y011263D01*
X006534Y011195D02*
X001363Y011195D01*
X001363Y011117D02*
X006555Y011117D01*
X006612Y011038D02*
X004335Y011038D01*
X004320Y011044D02*
X004225Y011044D01*
X004137Y011008D01*
X004070Y010940D01*
X004034Y010853D01*
X004034Y010757D01*
X004070Y010670D01*
X004137Y010602D01*
X004225Y010566D01*
X004234Y010566D01*
X004234Y010557D01*
X004270Y010470D01*
X004337Y010402D01*
X004425Y010366D01*
X004520Y010366D01*
X004608Y010402D01*
X004675Y010470D01*
X004712Y010557D01*
X004712Y010653D01*
X004675Y010740D01*
X004608Y010808D01*
X004520Y010844D01*
X004512Y010844D01*
X004512Y010853D01*
X004475Y010940D01*
X004408Y011008D01*
X004320Y011044D01*
X004211Y011038D02*
X001919Y011038D01*
X001955Y011023D02*
X001817Y011080D01*
X001668Y011080D01*
X001530Y011023D01*
X001425Y010917D01*
X001368Y010780D01*
X001368Y010630D01*
X001425Y010493D01*
X001530Y010387D01*
X001668Y010330D01*
X001817Y010330D01*
X001955Y010387D01*
X002061Y010493D01*
X002118Y010630D01*
X002118Y010654D01*
X002140Y010600D01*
X002207Y010532D01*
X002285Y010500D01*
X002207Y010468D01*
X002140Y010400D01*
X002104Y010313D01*
X002104Y010217D01*
X002140Y010130D01*
X002207Y010062D01*
X002295Y010026D01*
X002390Y010026D01*
X002478Y010062D01*
X002492Y010076D01*
X002474Y010033D01*
X002474Y010014D01*
X002395Y010014D01*
X002307Y009978D01*
X002240Y009910D01*
X002204Y009823D01*
X002204Y009727D01*
X002240Y009640D01*
X002307Y009572D01*
X002395Y009536D01*
X002490Y009536D01*
X002578Y009572D01*
X002645Y009640D01*
X002682Y009727D01*
X002682Y009746D01*
X002760Y009746D01*
X002848Y009782D01*
X002915Y009850D01*
X002952Y009937D01*
X002952Y010033D01*
X002915Y010120D01*
X002848Y010188D01*
X002760Y010224D01*
X002665Y010224D01*
X002577Y010188D01*
X002564Y010174D01*
X002582Y010217D01*
X002582Y010313D01*
X002545Y010400D01*
X002478Y010468D01*
X002400Y010500D01*
X002478Y010532D01*
X002545Y010600D01*
X002582Y010687D01*
X002582Y010783D01*
X002545Y010870D01*
X002478Y010938D01*
X002390Y010974D01*
X002295Y010974D01*
X002207Y010938D01*
X002140Y010870D01*
X002110Y010798D01*
X002061Y010917D01*
X001955Y011023D01*
X002019Y010960D02*
X002260Y010960D01*
X002151Y010881D02*
X002076Y010881D01*
X002108Y010803D02*
X002112Y010803D01*
X002118Y010646D02*
X002121Y010646D01*
X002092Y010567D02*
X002173Y010567D01*
X002258Y010489D02*
X002057Y010489D01*
X001978Y010410D02*
X002150Y010410D01*
X002112Y010332D02*
X001821Y010332D01*
X001665Y010332D02*
X001363Y010332D01*
X001363Y010410D02*
X001507Y010410D01*
X001429Y010489D02*
X001363Y010489D01*
X001363Y010567D02*
X001394Y010567D01*
X001368Y010646D02*
X001363Y010646D01*
X001363Y010724D02*
X001368Y010724D01*
X001363Y010803D02*
X001377Y010803D01*
X001363Y010881D02*
X001410Y010881D01*
X001363Y010960D02*
X001467Y010960D01*
X001567Y011038D02*
X001363Y011038D01*
X001703Y011352D02*
X001783Y011352D01*
X001783Y011431D02*
X001703Y011431D01*
X001703Y011509D02*
X001783Y011509D01*
X001783Y011588D02*
X001703Y011588D01*
X001783Y011666D02*
X007578Y011666D01*
X007564Y011633D02*
X007564Y011537D01*
X007600Y011450D01*
X007667Y011382D01*
X007755Y011346D01*
X007850Y011346D01*
X007938Y011382D01*
X008005Y011450D01*
X008042Y011537D01*
X008042Y011633D01*
X008033Y011655D01*
X008098Y011682D01*
X008165Y011750D01*
X008202Y011837D01*
X008202Y011933D01*
X008165Y012020D01*
X008098Y012088D01*
X008010Y012124D01*
X007915Y012124D01*
X007827Y012088D01*
X007760Y012020D01*
X007724Y011933D01*
X007724Y011837D01*
X007733Y011815D01*
X007667Y011788D01*
X007600Y011720D01*
X007564Y011633D01*
X007564Y011588D02*
X002141Y011588D01*
X002109Y011509D02*
X007045Y011509D01*
X006950Y011431D02*
X006877Y011431D01*
X006668Y011431D02*
X002055Y011431D01*
X001963Y011352D02*
X006572Y011352D01*
X006545Y010934D02*
X006457Y010898D01*
X006390Y010830D01*
X006354Y010743D01*
X006354Y010647D01*
X006390Y010560D01*
X006457Y010492D01*
X006545Y010456D01*
X006640Y010456D01*
X006728Y010492D01*
X006795Y010560D01*
X006832Y010647D01*
X006832Y010743D01*
X006795Y010830D01*
X006728Y010898D01*
X006640Y010934D01*
X006545Y010934D01*
X006441Y010881D02*
X004500Y010881D01*
X004456Y010960D02*
X008012Y010960D01*
X008045Y010946D02*
X007957Y010982D01*
X007890Y011050D01*
X007854Y011137D01*
X007854Y011233D01*
X007890Y011320D01*
X007957Y011388D01*
X008045Y011424D01*
X008140Y011424D01*
X008228Y011388D01*
X008295Y011320D01*
X008332Y011233D01*
X008332Y011137D01*
X008295Y011050D01*
X008228Y010982D01*
X008140Y010946D01*
X008045Y010946D01*
X008173Y010960D02*
X008467Y010960D01*
X008425Y010917D02*
X008368Y010780D01*
X008368Y010630D01*
X008425Y010493D01*
X008530Y010387D01*
X008668Y010330D01*
X008817Y010330D01*
X008955Y010387D01*
X009061Y010493D01*
X009118Y010630D01*
X009118Y010780D01*
X009061Y010917D01*
X008955Y011023D01*
X008817Y011080D01*
X008668Y011080D01*
X008530Y011023D01*
X008425Y010917D01*
X008410Y010881D02*
X006745Y010881D01*
X006807Y010803D02*
X008377Y010803D01*
X008368Y010724D02*
X006832Y010724D01*
X006831Y010646D02*
X008368Y010646D01*
X008394Y010567D02*
X006799Y010567D01*
X006719Y010489D02*
X008429Y010489D01*
X008507Y010410D02*
X004616Y010410D01*
X004683Y010489D02*
X006467Y010489D01*
X006387Y010567D02*
X004712Y010567D01*
X004712Y010646D02*
X006355Y010646D01*
X006354Y010724D02*
X004682Y010724D01*
X004613Y010803D02*
X006379Y010803D01*
X006934Y011038D02*
X007902Y011038D01*
X007862Y011117D02*
X007312Y011117D01*
X007370Y011195D02*
X007854Y011195D01*
X007871Y011274D02*
X007392Y011274D01*
X007388Y011352D02*
X007741Y011352D01*
X007865Y011352D02*
X007922Y011352D01*
X007986Y011431D02*
X008487Y011431D01*
X008530Y011387D02*
X008425Y011493D01*
X008368Y011630D01*
X008368Y011780D01*
X008425Y011917D01*
X008530Y012023D01*
X008668Y012080D01*
X008817Y012080D01*
X008955Y012023D01*
X009061Y011917D01*
X009118Y011780D01*
X009118Y011630D01*
X009061Y011493D01*
X008955Y011387D01*
X008817Y011330D01*
X008668Y011330D01*
X008530Y011387D01*
X008615Y011352D02*
X008264Y011352D01*
X008315Y011274D02*
X009123Y011274D01*
X009123Y011352D02*
X008871Y011352D01*
X008999Y011431D02*
X009123Y011431D01*
X009123Y011509D02*
X009068Y011509D01*
X009100Y011588D02*
X009123Y011588D01*
X009118Y011666D02*
X009123Y011666D01*
X009118Y011745D02*
X009123Y011745D01*
X009123Y011823D02*
X009100Y011823D01*
X009123Y011902D02*
X009067Y011902D01*
X009123Y011980D02*
X008998Y011980D01*
X009123Y012059D02*
X008869Y012059D01*
X009123Y012137D02*
X001363Y012137D01*
X001363Y012059D02*
X001523Y012059D01*
X001431Y011980D02*
X001363Y011980D01*
X001363Y011902D02*
X001377Y011902D01*
X001363Y012216D02*
X009123Y012216D01*
X009123Y012294D02*
X002520Y012294D01*
X002545Y012320D02*
X002582Y012407D01*
X002582Y012503D01*
X002545Y012590D01*
X002486Y012650D01*
X002545Y012710D01*
X002582Y012797D01*
X002582Y012893D01*
X002545Y012980D01*
X002478Y013048D01*
X002390Y013084D01*
X002295Y013084D01*
X002207Y013048D01*
X002140Y012980D01*
X002104Y012893D01*
X002104Y012814D01*
X002061Y012917D01*
X001955Y013023D01*
X001817Y013080D01*
X001668Y013080D01*
X001530Y013023D01*
X001425Y012917D01*
X001368Y012780D01*
X001368Y012630D01*
X001425Y012493D01*
X001530Y012387D01*
X001668Y012330D01*
X001817Y012330D01*
X001955Y012387D01*
X002061Y012493D01*
X002118Y012630D01*
X002118Y012764D01*
X002140Y012710D01*
X002200Y012650D01*
X002140Y012590D01*
X002104Y012503D01*
X002104Y012407D01*
X002140Y012320D01*
X002207Y012252D01*
X002295Y012216D01*
X002390Y012216D01*
X002478Y012252D01*
X002545Y012320D01*
X002567Y012373D02*
X008566Y012373D01*
X008530Y012387D02*
X008668Y012330D01*
X008817Y012330D01*
X008955Y012387D01*
X009061Y012493D01*
X009118Y012630D01*
X009118Y012780D01*
X009061Y012917D01*
X008955Y013023D01*
X008817Y013080D01*
X008668Y013080D01*
X008530Y013023D01*
X008425Y012917D01*
X008368Y012780D01*
X008368Y012630D01*
X008425Y012493D01*
X008530Y012387D01*
X008466Y012451D02*
X002582Y012451D01*
X002571Y012530D02*
X008410Y012530D01*
X008377Y012608D02*
X006978Y012608D01*
X006988Y012612D02*
X006900Y012576D01*
X006805Y012576D01*
X006717Y012612D01*
X006650Y012680D01*
X006614Y012767D01*
X006614Y012838D01*
X006578Y012802D01*
X006490Y012766D01*
X006395Y012766D01*
X006307Y012802D01*
X006240Y012870D01*
X006209Y012946D01*
X006209Y012796D01*
X006093Y012680D01*
X005928Y012680D01*
X005812Y012796D01*
X005812Y012960D01*
X005928Y013076D01*
X006093Y013076D01*
X006204Y012965D01*
X006204Y013053D01*
X006240Y013140D01*
X006307Y013208D01*
X006395Y013244D01*
X006490Y013244D01*
X006578Y013208D01*
X006645Y013140D01*
X006682Y013053D01*
X006682Y012982D01*
X006717Y013018D01*
X006805Y013054D01*
X006900Y013054D01*
X006988Y013018D01*
X007055Y012950D01*
X007092Y012863D01*
X007092Y012767D01*
X007055Y012680D01*
X006988Y012612D01*
X007058Y012687D02*
X008368Y012687D01*
X008368Y012765D02*
X007091Y012765D01*
X007092Y012844D02*
X008394Y012844D01*
X008430Y012922D02*
X007067Y012922D01*
X007005Y013001D02*
X008508Y013001D01*
X008666Y013079D02*
X006671Y013079D01*
X006682Y013001D02*
X006700Y013001D01*
X006628Y013158D02*
X007522Y013158D01*
X007537Y013142D02*
X007625Y013106D01*
X007720Y013106D01*
X007808Y013142D01*
X007875Y013210D01*
X007912Y013297D01*
X007912Y013393D01*
X009123Y013393D01*
X009123Y013315D02*
X007912Y013315D01*
X007912Y013393D02*
X007875Y013480D01*
X007808Y013548D01*
X007720Y013584D01*
X007625Y013584D01*
X007537Y013548D01*
X007470Y013480D01*
X007434Y013393D01*
X006467Y013393D01*
X006496Y013405D02*
X006551Y013442D01*
X006598Y013489D01*
X006635Y013545D01*
X006661Y013606D01*
X006674Y013672D01*
X006674Y013696D01*
X006345Y013696D01*
X006345Y013714D01*
X006674Y013714D01*
X006674Y013738D01*
X006661Y013804D01*
X006635Y013865D01*
X006598Y013921D01*
X006551Y013968D01*
X006496Y014005D01*
X006434Y014030D01*
X006369Y014043D01*
X006345Y014043D01*
X006345Y013714D01*
X006326Y013714D01*
X006326Y013696D01*
X005997Y013696D01*
X005997Y013672D01*
X006010Y013606D01*
X006035Y013545D01*
X006072Y013489D01*
X006120Y013442D01*
X006175Y013405D01*
X006237Y013380D01*
X006302Y013367D01*
X006326Y013367D01*
X006326Y013696D01*
X006345Y013696D01*
X006345Y013367D01*
X006369Y013367D01*
X006434Y013380D01*
X006496Y013405D01*
X006580Y013472D02*
X007466Y013472D01*
X007434Y013393D02*
X007434Y013297D01*
X007470Y013210D01*
X007537Y013142D01*
X007459Y013236D02*
X006510Y013236D01*
X006376Y013236D02*
X003932Y013236D01*
X003932Y013207D02*
X003895Y013120D01*
X003828Y013052D01*
X003740Y013016D01*
X003645Y013016D01*
X003557Y013052D01*
X003490Y013120D01*
X003454Y013207D01*
X003454Y013303D01*
X003490Y013390D01*
X003557Y013458D01*
X003645Y013494D01*
X003740Y013494D01*
X003828Y013458D01*
X003895Y013390D01*
X003932Y013303D01*
X003932Y013207D01*
X003911Y013158D02*
X006257Y013158D01*
X006215Y013079D02*
X003855Y013079D01*
X003927Y013315D02*
X007434Y013315D01*
X007543Y013550D02*
X006637Y013550D01*
X006665Y013629D02*
X009123Y013629D01*
X009123Y013707D02*
X006345Y013707D01*
X006326Y013707D02*
X004160Y013707D01*
X004160Y013714D02*
X004489Y013714D01*
X004489Y013738D01*
X004476Y013804D01*
X004450Y013865D01*
X004413Y013921D01*
X004366Y013968D01*
X004311Y014005D01*
X004249Y014030D01*
X004184Y014043D01*
X004159Y014043D01*
X004159Y013714D01*
X004141Y013714D01*
X004141Y013696D01*
X003812Y013696D01*
X003812Y013672D01*
X003825Y013606D01*
X003850Y013545D01*
X003887Y013489D01*
X003935Y013442D01*
X003990Y013405D01*
X004052Y013380D01*
X004117Y013367D01*
X004141Y013367D01*
X004141Y013696D01*
X004159Y013696D01*
X004159Y013367D01*
X004184Y013367D01*
X004249Y013380D01*
X004311Y013405D01*
X004366Y013442D01*
X004413Y013489D01*
X004450Y013545D01*
X004476Y013606D01*
X004489Y013672D01*
X004489Y013696D01*
X004160Y013696D01*
X004160Y013714D01*
X004141Y013714D02*
X004141Y014043D01*
X004117Y014043D01*
X004052Y014030D01*
X003990Y014005D01*
X003935Y013968D01*
X003887Y013921D01*
X003850Y013865D01*
X003825Y013804D01*
X003812Y013738D01*
X003812Y013714D01*
X004141Y013714D01*
X004141Y013707D02*
X001363Y013707D01*
X001363Y013629D02*
X003820Y013629D01*
X003848Y013550D02*
X001363Y013550D01*
X001363Y013472D02*
X003591Y013472D01*
X003493Y013393D02*
X001363Y013393D01*
X001363Y013315D02*
X003459Y013315D01*
X003454Y013236D02*
X001363Y013236D01*
X001363Y013158D02*
X003474Y013158D01*
X003531Y013079D02*
X002402Y013079D01*
X002283Y013079D02*
X001820Y013079D01*
X001978Y013001D02*
X002160Y013001D01*
X002116Y012922D02*
X002056Y012922D01*
X002091Y012844D02*
X002104Y012844D01*
X002118Y012687D02*
X002163Y012687D01*
X002158Y012608D02*
X002109Y012608D01*
X002115Y012530D02*
X002076Y012530D01*
X002104Y012451D02*
X002019Y012451D01*
X001920Y012373D02*
X002118Y012373D01*
X002166Y012294D02*
X001363Y012294D01*
X001363Y012373D02*
X001566Y012373D01*
X001466Y012451D02*
X001363Y012451D01*
X001363Y012530D02*
X001410Y012530D01*
X001377Y012608D02*
X001363Y012608D01*
X001363Y012687D02*
X001368Y012687D01*
X001363Y012765D02*
X001368Y012765D01*
X001363Y012844D02*
X001394Y012844D01*
X001363Y012922D02*
X001430Y012922D01*
X001363Y013001D02*
X001508Y013001D01*
X001363Y013079D02*
X001666Y013079D01*
X001363Y013786D02*
X003821Y013786D01*
X003850Y013864D02*
X001363Y013864D01*
X001363Y013943D02*
X003909Y013943D01*
X004029Y014021D02*
X001363Y014021D01*
X002525Y013001D02*
X004317Y013001D01*
X004277Y012960D02*
X004277Y012796D01*
X004393Y012680D01*
X004557Y012680D01*
X004673Y012796D01*
X004673Y012960D01*
X004557Y013076D01*
X004393Y013076D01*
X004277Y012960D01*
X004277Y012922D02*
X002570Y012922D01*
X002582Y012844D02*
X004277Y012844D01*
X004308Y012765D02*
X002568Y012765D01*
X002522Y012687D02*
X004387Y012687D01*
X004564Y012687D02*
X005922Y012687D01*
X005844Y012765D02*
X004642Y012765D01*
X004673Y012844D02*
X005812Y012844D01*
X005812Y012922D02*
X004673Y012922D01*
X004633Y013001D02*
X005853Y013001D01*
X006099Y012687D02*
X006647Y012687D01*
X006615Y012765D02*
X006178Y012765D01*
X006209Y012844D02*
X006266Y012844D01*
X006218Y012922D02*
X006209Y012922D01*
X006204Y013001D02*
X006168Y013001D01*
X006204Y013393D02*
X004281Y013393D01*
X004159Y013393D02*
X004141Y013393D01*
X004141Y013472D02*
X004159Y013472D01*
X004159Y013550D02*
X004141Y013550D01*
X004141Y013629D02*
X004159Y013629D01*
X004159Y013786D02*
X004141Y013786D01*
X004141Y013864D02*
X004159Y013864D01*
X004159Y013943D02*
X004141Y013943D01*
X004141Y014021D02*
X004159Y014021D01*
X004272Y014021D02*
X006214Y014021D01*
X006237Y014030D02*
X006175Y014005D01*
X006120Y013968D01*
X006072Y013921D01*
X006035Y013865D01*
X006010Y013804D01*
X005997Y013738D01*
X005997Y013714D01*
X006326Y013714D01*
X006326Y014043D01*
X006302Y014043D01*
X006237Y014030D01*
X006326Y014021D02*
X006345Y014021D01*
X006345Y013943D02*
X006326Y013943D01*
X006326Y013864D02*
X006345Y013864D01*
X006345Y013786D02*
X006326Y013786D01*
X006326Y013629D02*
X006345Y013629D01*
X006345Y013550D02*
X006326Y013550D01*
X006326Y013472D02*
X006345Y013472D01*
X006345Y013393D02*
X006326Y013393D01*
X006090Y013472D02*
X004395Y013472D01*
X004452Y013550D02*
X006033Y013550D01*
X006005Y013629D02*
X004480Y013629D01*
X004479Y013786D02*
X006006Y013786D01*
X006035Y013864D02*
X004451Y013864D01*
X004391Y013943D02*
X006094Y013943D01*
X006457Y014021D02*
X009123Y014021D01*
X009123Y013943D02*
X006576Y013943D01*
X006636Y013864D02*
X009123Y013864D01*
X009123Y013786D02*
X006664Y013786D01*
X006728Y012608D02*
X002528Y012608D01*
X002055Y011980D02*
X007743Y011980D01*
X007724Y011902D02*
X002108Y011902D01*
X002141Y011823D02*
X007730Y011823D01*
X007624Y011745D02*
X001783Y011745D01*
X001783Y011823D02*
X001703Y011823D01*
X001703Y011902D02*
X001783Y011902D01*
X001783Y011980D02*
X001703Y011980D01*
X001703Y012059D02*
X001783Y012059D01*
X001962Y012059D02*
X007798Y012059D01*
X008059Y011666D02*
X008368Y011666D01*
X008368Y011745D02*
X008160Y011745D01*
X008196Y011823D02*
X008386Y011823D01*
X008418Y011902D02*
X008202Y011902D01*
X008182Y011980D02*
X008488Y011980D01*
X008616Y012059D02*
X008127Y012059D01*
X008042Y011588D02*
X008386Y011588D01*
X008418Y011509D02*
X008030Y011509D01*
X008332Y011195D02*
X009123Y011195D01*
X009123Y011117D02*
X008323Y011117D01*
X008284Y011038D02*
X008567Y011038D01*
X008919Y011038D02*
X009123Y011038D01*
X009123Y010960D02*
X009019Y010960D01*
X009076Y010881D02*
X009123Y010881D01*
X009123Y010803D02*
X009108Y010803D01*
X009118Y010724D02*
X009123Y010724D01*
X009118Y010646D02*
X009123Y010646D01*
X009123Y010567D02*
X009092Y010567D01*
X009123Y010489D02*
X009057Y010489D01*
X009123Y010410D02*
X008978Y010410D01*
X009123Y010332D02*
X008821Y010332D01*
X008783Y010096D02*
X008703Y010096D01*
X008703Y010018D02*
X008783Y010018D01*
X008783Y009939D02*
X008703Y009939D01*
X008703Y009861D02*
X008783Y009861D01*
X008783Y009782D02*
X008703Y009782D01*
X008703Y009704D02*
X008250Y009704D01*
X008252Y009707D02*
X008252Y009803D01*
X008215Y009890D01*
X008148Y009958D01*
X008060Y009994D01*
X007965Y009994D01*
X007877Y009958D01*
X007810Y009890D01*
X007795Y009853D01*
X007720Y009884D01*
X007625Y009884D01*
X007537Y009848D01*
X007470Y009780D01*
X007434Y009693D01*
X007434Y009597D01*
X007470Y009510D01*
X007537Y009442D01*
X007625Y009406D01*
X007720Y009406D01*
X007808Y009442D01*
X007875Y009510D01*
X007891Y009547D01*
X007965Y009516D01*
X008060Y009516D01*
X008148Y009552D01*
X008215Y009620D01*
X008252Y009707D01*
X008252Y009782D02*
X008335Y009782D01*
X008357Y009861D02*
X008228Y009861D01*
X008167Y009939D02*
X008400Y009939D01*
X008468Y010018D02*
X003994Y010018D01*
X003977Y010000D02*
X004044Y010067D01*
X004080Y010155D01*
X004080Y010250D01*
X004044Y010338D01*
X003977Y010405D01*
X003889Y010442D01*
X003794Y010442D01*
X003706Y010405D01*
X003639Y010338D01*
X003602Y010250D01*
X003602Y010155D01*
X003639Y010067D01*
X003706Y010000D01*
X003794Y009964D01*
X003889Y009964D01*
X003977Y010000D01*
X004056Y010096D02*
X008603Y010096D01*
X008665Y010332D02*
X004047Y010332D01*
X004079Y010253D02*
X009123Y010253D01*
X009123Y010175D02*
X004080Y010175D01*
X003965Y010410D02*
X004330Y010410D01*
X004262Y010489D02*
X002428Y010489D01*
X002513Y010567D02*
X004223Y010567D01*
X004094Y010646D02*
X002564Y010646D01*
X002582Y010724D02*
X004048Y010724D01*
X004034Y010803D02*
X002574Y010803D01*
X002535Y010881D02*
X004046Y010881D01*
X004089Y010960D02*
X002425Y010960D01*
X002536Y010410D02*
X003717Y010410D01*
X003636Y010332D02*
X002574Y010332D01*
X002582Y010253D02*
X003603Y010253D01*
X003602Y010175D02*
X002861Y010175D01*
X002926Y010096D02*
X003627Y010096D01*
X003688Y010018D02*
X002952Y010018D01*
X002952Y009939D02*
X007859Y009939D01*
X007798Y009861D02*
X007777Y009861D01*
X007568Y009861D02*
X002920Y009861D01*
X002847Y009782D02*
X007472Y009782D01*
X007438Y009704D02*
X002672Y009704D01*
X002631Y009625D02*
X007434Y009625D01*
X007455Y009547D02*
X002516Y009547D01*
X002370Y009547D02*
X002083Y009547D01*
X002061Y009493D02*
X002118Y009630D01*
X002118Y009780D01*
X002061Y009917D01*
X001955Y010023D01*
X001817Y010080D01*
X001668Y010080D01*
X001530Y010023D01*
X001425Y009917D01*
X001368Y009780D01*
X001368Y009630D01*
X001425Y009493D01*
X001530Y009387D01*
X001668Y009330D01*
X001817Y009330D01*
X001955Y009387D01*
X002061Y009493D01*
X002036Y009468D02*
X007512Y009468D01*
X007834Y009468D02*
X008402Y009468D01*
X008358Y009547D02*
X008134Y009547D01*
X008218Y009625D02*
X008335Y009625D01*
X008471Y009390D02*
X001958Y009390D01*
X002116Y009625D02*
X002255Y009625D01*
X002214Y009704D02*
X002118Y009704D01*
X002117Y009782D02*
X002204Y009782D01*
X002219Y009861D02*
X002084Y009861D01*
X002039Y009939D02*
X002269Y009939D01*
X002174Y010096D02*
X001363Y010096D01*
X001363Y010018D02*
X001525Y010018D01*
X001447Y009939D02*
X001363Y009939D01*
X001363Y009861D02*
X001401Y009861D01*
X001369Y009782D02*
X001363Y009782D01*
X001363Y009704D02*
X001368Y009704D01*
X001363Y009625D02*
X001370Y009625D01*
X001363Y009547D02*
X001403Y009547D01*
X001363Y009468D02*
X001449Y009468D01*
X001528Y009390D02*
X001363Y009390D01*
X001363Y009311D02*
X008612Y009311D01*
X008703Y009311D02*
X008783Y009311D01*
X008783Y009390D02*
X008703Y009390D01*
X008703Y009468D02*
X008783Y009468D01*
X008783Y009547D02*
X008703Y009547D01*
X008703Y009625D02*
X008783Y009625D01*
X009014Y009390D02*
X009123Y009390D01*
X009123Y009468D02*
X009084Y009468D01*
X009123Y009311D02*
X008873Y009311D01*
X008817Y009080D02*
X008668Y009080D01*
X008530Y009023D01*
X008425Y008917D01*
X008368Y008780D01*
X008368Y008630D01*
X008425Y008493D01*
X008530Y008387D01*
X008668Y008330D01*
X008817Y008330D01*
X008955Y008387D01*
X009061Y008493D01*
X009118Y008630D01*
X009118Y008780D01*
X009061Y008917D01*
X008955Y009023D01*
X008817Y009080D01*
X008828Y009076D02*
X009123Y009076D01*
X009123Y009154D02*
X001363Y009154D01*
X001363Y009076D02*
X001657Y009076D01*
X001668Y009080D02*
X001530Y009023D01*
X001425Y008917D01*
X001368Y008780D01*
X001368Y008630D01*
X001425Y008493D01*
X001530Y008387D01*
X001668Y008330D01*
X001817Y008330D01*
X001955Y008387D01*
X002061Y008493D01*
X002118Y008630D01*
X002118Y008780D01*
X002061Y008917D01*
X001955Y009023D01*
X001817Y009080D01*
X001668Y009080D01*
X001828Y009076D02*
X008657Y009076D01*
X008505Y008997D02*
X001981Y008997D01*
X002060Y008919D02*
X008426Y008919D01*
X008393Y008840D02*
X006140Y008840D01*
X006130Y008844D02*
X006218Y008808D01*
X006285Y008740D01*
X006322Y008653D01*
X006322Y008557D01*
X006285Y008470D01*
X006218Y008402D01*
X006130Y008366D01*
X006035Y008366D01*
X005947Y008402D01*
X005880Y008470D01*
X005844Y008557D01*
X005844Y008653D01*
X005880Y008740D01*
X005947Y008808D01*
X006035Y008844D01*
X006130Y008844D01*
X006026Y008840D02*
X002093Y008840D01*
X002118Y008762D02*
X005901Y008762D01*
X005856Y008683D02*
X002118Y008683D01*
X002107Y008605D02*
X003373Y008605D01*
X003356Y008598D02*
X003289Y008530D01*
X003253Y008443D01*
X003253Y008347D01*
X003289Y008260D01*
X003356Y008192D01*
X003444Y008156D01*
X003539Y008156D01*
X003627Y008192D01*
X003694Y008260D01*
X003731Y008347D01*
X003731Y008443D01*
X003694Y008530D01*
X003627Y008598D01*
X003539Y008634D01*
X003444Y008634D01*
X003356Y008598D01*
X003287Y008526D02*
X002075Y008526D01*
X002016Y008448D02*
X003255Y008448D01*
X003253Y008369D02*
X001912Y008369D01*
X001817Y008080D02*
X001668Y008080D01*
X001530Y008023D01*
X001425Y007917D01*
X001368Y007780D01*
X001368Y007630D01*
X001425Y007493D01*
X001530Y007387D01*
X001668Y007330D01*
X001817Y007330D01*
X001955Y007387D01*
X002061Y007493D01*
X002118Y007630D01*
X002118Y007780D01*
X002061Y007917D01*
X001955Y008023D01*
X001817Y008080D01*
X001878Y008055D02*
X002263Y008055D01*
X002254Y008077D02*
X002290Y007990D01*
X002357Y007922D01*
X002445Y007886D01*
X002540Y007886D01*
X002628Y007922D01*
X002695Y007990D01*
X002732Y008077D01*
X002732Y008173D01*
X002695Y008260D01*
X002628Y008328D01*
X002540Y008364D01*
X002445Y008364D01*
X002357Y008328D01*
X002290Y008260D01*
X002254Y008173D01*
X002254Y008077D01*
X002254Y008134D02*
X001363Y008134D01*
X001363Y008212D02*
X002270Y008212D01*
X002320Y008291D02*
X001363Y008291D01*
X001363Y008369D02*
X001574Y008369D01*
X001470Y008448D02*
X001363Y008448D01*
X001363Y008526D02*
X001411Y008526D01*
X001379Y008605D02*
X001363Y008605D01*
X001363Y008683D02*
X001368Y008683D01*
X001363Y008762D02*
X001368Y008762D01*
X001363Y008840D02*
X001393Y008840D01*
X001363Y008919D02*
X001426Y008919D01*
X001363Y008997D02*
X001505Y008997D01*
X001363Y009233D02*
X009123Y009233D01*
X009123Y008997D02*
X008981Y008997D01*
X009060Y008919D02*
X009123Y008919D01*
X009123Y008840D02*
X009093Y008840D01*
X009118Y008762D02*
X009123Y008762D01*
X009118Y008683D02*
X009123Y008683D01*
X009123Y008605D02*
X009107Y008605D01*
X009123Y008526D02*
X009075Y008526D01*
X009123Y008448D02*
X009016Y008448D01*
X008912Y008369D02*
X009123Y008369D01*
X009123Y008291D02*
X007245Y008291D01*
X007228Y008308D02*
X007140Y008344D01*
X007045Y008344D01*
X007032Y008339D01*
X007032Y008353D01*
X006995Y008440D01*
X006928Y008508D01*
X006840Y008544D01*
X006745Y008544D01*
X006657Y008508D01*
X006590Y008440D01*
X006571Y008395D01*
X006568Y008398D01*
X006480Y008434D01*
X006385Y008434D01*
X006297Y008398D01*
X006230Y008330D01*
X006194Y008243D01*
X006194Y008147D01*
X006230Y008060D01*
X006297Y007992D01*
X006385Y007956D01*
X006480Y007956D01*
X006568Y007992D01*
X006635Y008060D01*
X006654Y008105D01*
X006657Y008102D01*
X006745Y008066D01*
X006840Y008066D01*
X006854Y008071D01*
X006854Y008057D01*
X006890Y007970D01*
X006957Y007902D01*
X007045Y007866D01*
X007140Y007866D01*
X007228Y007902D01*
X007295Y007970D01*
X007332Y008057D01*
X007332Y008153D01*
X007295Y008240D01*
X007228Y008308D01*
X007307Y008212D02*
X009123Y008212D01*
X009123Y008134D02*
X007332Y008134D01*
X007331Y008055D02*
X008608Y008055D01*
X008668Y008080D02*
X008530Y008023D01*
X008425Y007917D01*
X008368Y007780D01*
X008368Y007630D01*
X008425Y007493D01*
X008530Y007387D01*
X008668Y007330D01*
X008817Y007330D01*
X008955Y007387D01*
X009061Y007493D01*
X009118Y007630D01*
X009118Y007780D01*
X009061Y007917D01*
X008955Y008023D01*
X008817Y008080D01*
X008668Y008080D01*
X008484Y007977D02*
X007298Y007977D01*
X007218Y007898D02*
X008417Y007898D01*
X008384Y007820D02*
X005370Y007820D01*
X005382Y007847D02*
X005345Y007760D01*
X005278Y007692D01*
X005190Y007656D01*
X005095Y007656D01*
X005007Y007692D01*
X004940Y007760D01*
X004904Y007847D01*
X004904Y007943D01*
X004940Y008030D01*
X005007Y008098D01*
X005095Y008134D01*
X005190Y008134D01*
X005278Y008098D01*
X005345Y008030D01*
X005382Y007943D01*
X005382Y007847D01*
X005382Y007898D02*
X006968Y007898D01*
X006887Y007977D02*
X006530Y007977D01*
X006631Y008055D02*
X006855Y008055D01*
X007025Y008369D02*
X008574Y008369D01*
X008470Y008448D02*
X006988Y008448D01*
X006884Y008526D02*
X008411Y008526D01*
X008379Y008605D02*
X006322Y008605D01*
X006309Y008683D02*
X008368Y008683D01*
X008368Y008762D02*
X006264Y008762D01*
X006309Y008526D02*
X006702Y008526D01*
X006597Y008448D02*
X006263Y008448D01*
X006269Y008369D02*
X006138Y008369D01*
X006214Y008291D02*
X005802Y008291D01*
X005802Y008247D02*
X005802Y008343D01*
X005765Y008430D01*
X005698Y008498D01*
X005610Y008534D01*
X005515Y008534D01*
X005449Y008507D01*
X005435Y008540D01*
X005368Y008608D01*
X005280Y008644D01*
X005185Y008644D01*
X005097Y008608D01*
X005030Y008540D01*
X004994Y008453D01*
X004994Y008357D01*
X005030Y008270D01*
X005097Y008202D01*
X005185Y008166D01*
X005280Y008166D01*
X005346Y008193D01*
X005360Y008160D01*
X005427Y008092D01*
X005515Y008056D01*
X005610Y008056D01*
X005698Y008092D01*
X005765Y008160D01*
X005802Y008247D01*
X005787Y008212D02*
X006194Y008212D01*
X006200Y008134D02*
X005739Y008134D01*
X005791Y008369D02*
X006028Y008369D01*
X005902Y008448D02*
X005748Y008448D01*
X005857Y008526D02*
X005630Y008526D01*
X005496Y008526D02*
X005441Y008526D01*
X005371Y008605D02*
X005844Y008605D01*
X005386Y008134D02*
X005192Y008134D01*
X005094Y008134D02*
X002732Y008134D01*
X002723Y008055D02*
X003495Y008055D01*
X003527Y008088D02*
X003460Y008020D01*
X003424Y007933D01*
X003424Y007837D01*
X003460Y007750D01*
X003527Y007682D01*
X003615Y007646D01*
X003710Y007646D01*
X003798Y007682D01*
X003865Y007750D01*
X003902Y007837D01*
X003902Y007933D01*
X003865Y008020D01*
X003798Y008088D01*
X003710Y008124D01*
X003615Y008124D01*
X003527Y008088D01*
X003442Y007977D02*
X002682Y007977D01*
X002570Y007898D02*
X003424Y007898D01*
X003431Y007820D02*
X002101Y007820D01*
X002118Y007741D02*
X003469Y007741D01*
X003575Y007663D02*
X002118Y007663D01*
X002099Y007584D02*
X008387Y007584D01*
X008368Y007663D02*
X005206Y007663D01*
X005327Y007741D02*
X008368Y007741D01*
X008420Y007506D02*
X002066Y007506D01*
X001995Y007427D02*
X008490Y007427D01*
X008623Y007349D02*
X001862Y007349D01*
X001623Y007349D02*
X001363Y007349D01*
X001363Y007427D02*
X001490Y007427D01*
X001420Y007506D02*
X001363Y007506D01*
X001363Y007584D02*
X001387Y007584D01*
X001368Y007663D02*
X001363Y007663D01*
X001363Y007741D02*
X001368Y007741D01*
X001363Y007820D02*
X001384Y007820D01*
X001363Y007898D02*
X001417Y007898D01*
X001363Y007977D02*
X001484Y007977D01*
X001363Y008055D02*
X001608Y008055D01*
X002002Y007977D02*
X002303Y007977D01*
X002416Y007898D02*
X002069Y007898D01*
X001817Y007080D02*
X001668Y007080D01*
X001530Y007023D01*
X001425Y006917D01*
X001368Y006780D01*
X001368Y006630D01*
X001425Y006493D01*
X001530Y006387D01*
X001668Y006330D01*
X001817Y006330D01*
X001955Y006387D01*
X002061Y006493D01*
X002118Y006630D01*
X002118Y006780D01*
X002061Y006917D01*
X001955Y007023D01*
X001817Y007080D01*
X001927Y007035D02*
X004838Y007035D01*
X004840Y007040D02*
X004804Y006953D01*
X004804Y006857D01*
X004840Y006770D01*
X004907Y006702D01*
X004995Y006666D01*
X005090Y006666D01*
X005178Y006702D01*
X005243Y006767D01*
X005307Y006702D01*
X005395Y006666D01*
X005490Y006666D01*
X005578Y006702D01*
X005645Y006770D01*
X005682Y006857D01*
X005682Y006953D01*
X005645Y007040D01*
X005578Y007108D01*
X005490Y007144D01*
X005395Y007144D01*
X005307Y007108D01*
X005243Y007043D01*
X005178Y007108D01*
X005090Y007144D01*
X004995Y007144D01*
X004907Y007108D01*
X004840Y007040D01*
X004805Y006956D02*
X002022Y006956D01*
X002077Y006878D02*
X004804Y006878D01*
X004828Y006799D02*
X002110Y006799D01*
X002118Y006721D02*
X004889Y006721D01*
X004920Y007113D02*
X001363Y007113D01*
X001363Y007035D02*
X001558Y007035D01*
X001463Y006956D02*
X001363Y006956D01*
X001363Y006878D02*
X001408Y006878D01*
X001376Y006799D02*
X001363Y006799D01*
X001363Y006721D02*
X001368Y006721D01*
X001363Y006642D02*
X001368Y006642D01*
X001363Y006564D02*
X001396Y006564D01*
X001363Y006485D02*
X001432Y006485D01*
X001363Y006407D02*
X001511Y006407D01*
X001363Y006328D02*
X009123Y006328D01*
X009123Y006250D02*
X001363Y006250D01*
X001363Y006171D02*
X006851Y006171D01*
X006857Y006178D02*
X006790Y006110D01*
X006754Y006023D01*
X006754Y005927D01*
X006790Y005840D01*
X006857Y005772D01*
X006945Y005736D01*
X007040Y005736D01*
X007128Y005772D01*
X007195Y005840D01*
X007232Y005927D01*
X007232Y006023D01*
X007195Y006110D01*
X007128Y006178D01*
X007040Y006214D01*
X006945Y006214D01*
X006857Y006178D01*
X006783Y006093D02*
X001363Y006093D01*
X001363Y006014D02*
X001521Y006014D01*
X001530Y006023D02*
X001425Y005917D01*
X001368Y005780D01*
X001368Y005630D01*
X001425Y005493D01*
X001530Y005387D01*
X001668Y005330D01*
X001817Y005330D01*
X001955Y005387D01*
X002061Y005493D01*
X002118Y005630D01*
X002118Y005780D01*
X002061Y005917D01*
X001955Y006023D01*
X001817Y006080D01*
X001668Y006080D01*
X001530Y006023D01*
X001443Y005936D02*
X001363Y005936D01*
X001363Y005857D02*
X001400Y005857D01*
X001368Y005779D02*
X001363Y005779D01*
X001363Y005700D02*
X001368Y005700D01*
X001363Y005622D02*
X001371Y005622D01*
X001363Y005543D02*
X001404Y005543D01*
X001363Y005465D02*
X001453Y005465D01*
X001533Y005386D02*
X001363Y005386D01*
X001363Y005308D02*
X009123Y005308D01*
X009123Y005386D02*
X008953Y005386D01*
X008955Y005387D02*
X009061Y005493D01*
X009118Y005630D01*
X009118Y005780D01*
X009061Y005917D01*
X008955Y006023D01*
X008817Y006080D01*
X008668Y006080D01*
X008530Y006023D01*
X008425Y005917D01*
X008368Y005780D01*
X008368Y005630D01*
X008425Y005493D01*
X008530Y005387D01*
X008668Y005330D01*
X008817Y005330D01*
X008955Y005387D01*
X009033Y005465D02*
X009123Y005465D01*
X009123Y005543D02*
X009082Y005543D01*
X009114Y005622D02*
X009123Y005622D01*
X009118Y005700D02*
X009123Y005700D01*
X009118Y005779D02*
X009123Y005779D01*
X009123Y005857D02*
X009086Y005857D01*
X009123Y005936D02*
X009043Y005936D01*
X008964Y006014D02*
X009123Y006014D01*
X009123Y006093D02*
X007203Y006093D01*
X007232Y006014D02*
X008521Y006014D01*
X008443Y005936D02*
X007232Y005936D01*
X007203Y005857D02*
X008400Y005857D01*
X008368Y005779D02*
X007134Y005779D01*
X006851Y005779D02*
X002118Y005779D01*
X002118Y005700D02*
X008368Y005700D01*
X008371Y005622D02*
X002114Y005622D01*
X002082Y005543D02*
X008404Y005543D01*
X008453Y005465D02*
X002033Y005465D01*
X001953Y005386D02*
X008533Y005386D01*
X008668Y005080D02*
X008530Y005023D01*
X008425Y004917D01*
X008368Y004780D01*
X008368Y004630D01*
X008425Y004493D01*
X008530Y004387D01*
X008668Y004330D01*
X008817Y004330D01*
X008955Y004387D01*
X009061Y004493D01*
X009118Y004630D01*
X009118Y004780D01*
X009061Y004917D01*
X008955Y005023D01*
X008817Y005080D01*
X008668Y005080D01*
X008649Y005072D02*
X007302Y005072D01*
X007302Y005073D02*
X007265Y005160D01*
X007198Y005228D01*
X007110Y005264D01*
X007015Y005264D01*
X006927Y005228D01*
X006860Y005160D01*
X006824Y005073D01*
X006824Y004977D01*
X006860Y004890D01*
X006927Y004822D01*
X007015Y004786D01*
X007110Y004786D01*
X007198Y004822D01*
X007265Y004890D01*
X007302Y004977D01*
X007302Y005073D01*
X007302Y004994D02*
X008501Y004994D01*
X008424Y004915D02*
X007276Y004915D01*
X007212Y004837D02*
X008391Y004837D01*
X008368Y004758D02*
X002118Y004758D01*
X002118Y004780D02*
X002061Y004917D01*
X001955Y005023D01*
X001817Y005080D01*
X001668Y005080D01*
X001530Y005023D01*
X001425Y004917D01*
X001368Y004780D01*
X001368Y004630D01*
X001425Y004493D01*
X001530Y004387D01*
X001668Y004330D01*
X001817Y004330D01*
X001955Y004387D01*
X002061Y004493D01*
X002118Y004630D01*
X002118Y004780D01*
X002094Y004837D02*
X006913Y004837D01*
X006850Y004915D02*
X002062Y004915D01*
X001985Y004994D02*
X006824Y004994D01*
X006824Y005072D02*
X001837Y005072D01*
X001649Y005072D02*
X001363Y005072D01*
X001363Y004994D02*
X001501Y004994D01*
X001424Y004915D02*
X001363Y004915D01*
X001363Y004837D02*
X001391Y004837D01*
X001368Y004758D02*
X001363Y004758D01*
X001363Y004680D02*
X001368Y004680D01*
X001363Y004601D02*
X001380Y004601D01*
X001363Y004523D02*
X001412Y004523D01*
X001363Y004444D02*
X001473Y004444D01*
X001363Y004366D02*
X001582Y004366D01*
X001363Y004287D02*
X009123Y004287D01*
X009123Y004209D02*
X001363Y004209D01*
X001363Y004130D02*
X006303Y004130D01*
X006297Y004128D02*
X006230Y004060D01*
X006213Y004020D01*
X006130Y004054D01*
X006035Y004054D01*
X005947Y004018D01*
X005880Y003950D01*
X005844Y003863D01*
X005844Y003767D01*
X005880Y003680D01*
X005947Y003612D01*
X006035Y003576D01*
X006130Y003576D01*
X006218Y003612D01*
X006285Y003680D01*
X006302Y003720D01*
X006385Y003686D01*
X006480Y003686D01*
X006568Y003722D01*
X006635Y003790D01*
X006672Y003877D01*
X006672Y003973D01*
X006713Y003973D01*
X006720Y003990D02*
X006684Y003903D01*
X006684Y003807D01*
X006720Y003720D01*
X006787Y003652D01*
X006875Y003616D01*
X006970Y003616D01*
X007058Y003652D01*
X007125Y003720D01*
X007162Y003807D01*
X007162Y003903D01*
X007125Y003990D01*
X007058Y004058D01*
X006970Y004094D01*
X006875Y004094D01*
X006787Y004058D01*
X006720Y003990D01*
X006672Y003973D02*
X006635Y004060D01*
X006568Y004128D01*
X006480Y004164D01*
X006385Y004164D01*
X006297Y004128D01*
X006226Y004052D02*
X006136Y004052D01*
X006029Y004052D02*
X001886Y004052D01*
X001817Y004080D02*
X001668Y004080D01*
X001530Y004023D01*
X001425Y003917D01*
X001368Y003780D01*
X001368Y003630D01*
X001425Y003493D01*
X001530Y003387D01*
X001668Y003330D01*
X001817Y003330D01*
X001955Y003387D01*
X002061Y003493D01*
X002118Y003630D01*
X002118Y003780D01*
X002061Y003917D01*
X001955Y004023D01*
X001817Y004080D01*
X002005Y003973D02*
X005903Y003973D01*
X005857Y003895D02*
X002070Y003895D01*
X002103Y003816D02*
X005844Y003816D01*
X005856Y003738D02*
X002118Y003738D01*
X002118Y003659D02*
X005901Y003659D01*
X006024Y003581D02*
X002097Y003581D01*
X002065Y003502D02*
X008421Y003502D01*
X008425Y003493D02*
X008530Y003387D01*
X008668Y003330D01*
X008817Y003330D01*
X008955Y003387D01*
X009061Y003493D01*
X009118Y003630D01*
X009118Y003780D01*
X009061Y003917D01*
X008955Y004023D01*
X008817Y004080D01*
X008668Y004080D01*
X008530Y004023D01*
X008425Y003917D01*
X008368Y003780D01*
X008368Y003630D01*
X008425Y003493D01*
X008388Y003581D02*
X006141Y003581D01*
X006265Y003659D02*
X006781Y003659D01*
X006713Y003738D02*
X006583Y003738D01*
X006646Y003816D02*
X006684Y003816D01*
X006672Y003895D02*
X006684Y003895D01*
X006639Y004052D02*
X006781Y004052D01*
X006563Y004130D02*
X009123Y004130D01*
X009123Y004052D02*
X008886Y004052D01*
X009005Y003973D02*
X009123Y003973D01*
X009123Y003895D02*
X009070Y003895D01*
X009103Y003816D02*
X009123Y003816D01*
X009118Y003738D02*
X009123Y003738D01*
X009118Y003659D02*
X009123Y003659D01*
X009123Y003581D02*
X009097Y003581D01*
X009123Y003502D02*
X009065Y003502D01*
X009123Y003424D02*
X008992Y003424D01*
X009123Y003345D02*
X008854Y003345D01*
X008817Y003080D02*
X008668Y003080D01*
X008530Y003023D01*
X008425Y002917D01*
X008368Y002780D01*
X008368Y002630D01*
X008425Y002493D01*
X008530Y002387D01*
X008668Y002330D01*
X008817Y002330D01*
X008955Y002387D01*
X009061Y002493D01*
X009118Y002630D01*
X009118Y002780D01*
X009061Y002917D01*
X008955Y003023D01*
X008817Y003080D01*
X008936Y003031D02*
X009123Y003031D01*
X009123Y002953D02*
X009026Y002953D01*
X009079Y002874D02*
X009123Y002874D01*
X009111Y002796D02*
X009123Y002796D01*
X009118Y002717D02*
X009123Y002717D01*
X009118Y002639D02*
X009123Y002639D01*
X009123Y002560D02*
X009089Y002560D01*
X009123Y002482D02*
X009050Y002482D01*
X009123Y002403D02*
X008971Y002403D01*
X009123Y002325D02*
X001363Y002325D01*
X001363Y002403D02*
X001514Y002403D01*
X001530Y002387D02*
X001668Y002330D01*
X001817Y002330D01*
X001955Y002387D01*
X002061Y002493D01*
X002118Y002630D01*
X002118Y002780D01*
X002061Y002917D01*
X001955Y003023D01*
X001817Y003080D01*
X001668Y003080D01*
X001530Y003023D01*
X001425Y002917D01*
X001368Y002780D01*
X001368Y002630D01*
X001425Y002493D01*
X001530Y002387D01*
X001436Y002482D02*
X001363Y002482D01*
X001363Y002560D02*
X001397Y002560D01*
X001368Y002639D02*
X001363Y002639D01*
X001363Y002717D02*
X001368Y002717D01*
X001363Y002796D02*
X001374Y002796D01*
X001363Y002874D02*
X001407Y002874D01*
X001363Y002953D02*
X001460Y002953D01*
X001550Y003031D02*
X001363Y003031D01*
X001363Y003110D02*
X009123Y003110D01*
X009123Y003188D02*
X001363Y003188D01*
X001363Y003267D02*
X009123Y003267D01*
X008632Y003345D02*
X001854Y003345D01*
X001992Y003424D02*
X008494Y003424D01*
X008368Y003659D02*
X007065Y003659D01*
X007133Y003738D02*
X008368Y003738D01*
X008383Y003816D02*
X007162Y003816D01*
X007162Y003895D02*
X008415Y003895D01*
X008480Y003973D02*
X007133Y003973D01*
X007064Y004052D02*
X008599Y004052D01*
X008582Y004366D02*
X001903Y004366D01*
X002012Y004444D02*
X008473Y004444D01*
X008412Y004523D02*
X002073Y004523D01*
X002106Y004601D02*
X008380Y004601D01*
X008368Y004680D02*
X002118Y004680D01*
X001599Y004052D02*
X001363Y004052D01*
X001363Y003973D02*
X001480Y003973D01*
X001415Y003895D02*
X001363Y003895D01*
X001363Y003816D02*
X001383Y003816D01*
X001368Y003738D02*
X001363Y003738D01*
X001363Y003659D02*
X001368Y003659D01*
X001363Y003581D02*
X001388Y003581D01*
X001363Y003502D02*
X001421Y003502D01*
X001363Y003424D02*
X001494Y003424D01*
X001363Y003345D02*
X001632Y003345D01*
X001936Y003031D02*
X008550Y003031D01*
X008460Y002953D02*
X002026Y002953D01*
X002079Y002874D02*
X008407Y002874D01*
X008374Y002796D02*
X002111Y002796D01*
X002118Y002717D02*
X008368Y002717D01*
X008368Y002639D02*
X002118Y002639D01*
X002089Y002560D02*
X008397Y002560D01*
X008436Y002482D02*
X002050Y002482D01*
X001971Y002403D02*
X008514Y002403D01*
X008518Y002011D02*
X001968Y002011D01*
X002046Y001932D02*
X008439Y001932D01*
X008398Y001854D02*
X002087Y001854D01*
X002118Y001775D02*
X008368Y001775D01*
X008368Y001697D02*
X002118Y001697D01*
X002113Y001618D02*
X008373Y001618D01*
X008405Y001540D02*
X002080Y001540D01*
X002029Y001461D02*
X008456Y001461D01*
X009029Y001461D02*
X009123Y001461D01*
X009123Y001540D02*
X009080Y001540D01*
X009113Y001618D02*
X009123Y001618D01*
X009118Y001697D02*
X009123Y001697D01*
X009118Y001775D02*
X009123Y001775D01*
X009123Y001854D02*
X009087Y001854D01*
X009123Y001932D02*
X009046Y001932D01*
X009123Y002011D02*
X008968Y002011D01*
X009123Y002089D02*
X001363Y002089D01*
X001363Y002011D02*
X001518Y002011D01*
X001439Y001932D02*
X001363Y001932D01*
X001363Y001854D02*
X001398Y001854D01*
X001368Y001775D02*
X001363Y001775D01*
X001363Y001697D02*
X001368Y001697D01*
X001363Y001618D02*
X001373Y001618D01*
X001363Y001540D02*
X001405Y001540D01*
X001363Y001461D02*
X001456Y001461D01*
X001363Y002168D02*
X009123Y002168D01*
X009123Y002246D02*
X001363Y002246D01*
X001363Y005151D02*
X006856Y005151D01*
X006931Y005229D02*
X001363Y005229D01*
X001964Y006014D02*
X006754Y006014D01*
X006754Y005936D02*
X002043Y005936D01*
X002086Y005857D02*
X006783Y005857D01*
X007135Y006171D02*
X009123Y006171D01*
X009123Y006407D02*
X008975Y006407D01*
X008955Y006387D02*
X009061Y006493D01*
X009118Y006630D01*
X009118Y006780D01*
X009061Y006917D01*
X008955Y007023D01*
X008817Y007080D01*
X008668Y007080D01*
X008530Y007023D01*
X008425Y006917D01*
X008368Y006780D01*
X008368Y006630D01*
X008425Y006493D01*
X008530Y006387D01*
X008668Y006330D01*
X008817Y006330D01*
X008955Y006387D01*
X009053Y006485D02*
X009123Y006485D01*
X009123Y006564D02*
X009090Y006564D01*
X009118Y006642D02*
X009123Y006642D01*
X009118Y006721D02*
X009123Y006721D01*
X009123Y006799D02*
X009110Y006799D01*
X009123Y006878D02*
X009077Y006878D01*
X009123Y006956D02*
X009022Y006956D01*
X008927Y007035D02*
X009123Y007035D01*
X009123Y007113D02*
X005565Y007113D01*
X005648Y007035D02*
X008558Y007035D01*
X008463Y006956D02*
X005680Y006956D01*
X005682Y006878D02*
X008408Y006878D01*
X008376Y006799D02*
X005658Y006799D01*
X005596Y006721D02*
X008368Y006721D01*
X008368Y006642D02*
X002118Y006642D01*
X002090Y006564D02*
X008396Y006564D01*
X008432Y006485D02*
X002053Y006485D01*
X001975Y006407D02*
X008511Y006407D01*
X009123Y007192D02*
X001363Y007192D01*
X001363Y007270D02*
X009123Y007270D01*
X009123Y007349D02*
X008862Y007349D01*
X008995Y007427D02*
X009123Y007427D01*
X009123Y007506D02*
X009066Y007506D01*
X009099Y007584D02*
X009123Y007584D01*
X009118Y007663D02*
X009123Y007663D01*
X009118Y007741D02*
X009123Y007741D01*
X009123Y007820D02*
X009101Y007820D01*
X009123Y007898D02*
X009069Y007898D01*
X009123Y007977D02*
X009002Y007977D01*
X009123Y008055D02*
X008878Y008055D01*
X007891Y009547D02*
X007891Y009547D01*
X006993Y011117D02*
X006991Y011117D01*
X007261Y011509D02*
X007576Y011509D01*
X007619Y011431D02*
X007355Y011431D01*
X007823Y013158D02*
X009123Y013158D01*
X009123Y013236D02*
X007886Y013236D01*
X007879Y013472D02*
X009123Y013472D01*
X009123Y013550D02*
X007802Y013550D01*
X008820Y013079D02*
X009123Y013079D01*
X009123Y013001D02*
X008978Y013001D01*
X009056Y012922D02*
X009123Y012922D01*
X009123Y012844D02*
X009091Y012844D01*
X009118Y012765D02*
X009123Y012765D01*
X009118Y012687D02*
X009123Y012687D01*
X009123Y012608D02*
X009109Y012608D01*
X009123Y012530D02*
X009076Y012530D01*
X009123Y012451D02*
X009019Y012451D01*
X008920Y012373D02*
X009123Y012373D01*
X009123Y010096D02*
X008882Y010096D01*
X009017Y010018D02*
X009123Y010018D01*
X009123Y009939D02*
X009086Y009939D01*
X006336Y007977D02*
X005368Y007977D01*
X005321Y008055D02*
X006235Y008055D01*
X005320Y007113D02*
X005165Y007113D01*
X005196Y006721D02*
X005289Y006721D01*
X005079Y007663D02*
X003750Y007663D01*
X003857Y007741D02*
X004959Y007741D01*
X004915Y007820D02*
X003894Y007820D01*
X003902Y007898D02*
X004904Y007898D01*
X004918Y007977D02*
X003884Y007977D01*
X003831Y008055D02*
X004965Y008055D01*
X004888Y008212D02*
X004955Y008280D01*
X004992Y008367D01*
X004992Y008463D01*
X004955Y008550D01*
X004888Y008618D01*
X004800Y008654D01*
X004705Y008654D01*
X004617Y008618D01*
X004550Y008550D01*
X004514Y008463D01*
X004514Y008367D01*
X004550Y008280D01*
X004617Y008212D01*
X004705Y008176D01*
X004800Y008176D01*
X004888Y008212D01*
X004887Y008212D02*
X005088Y008212D01*
X005021Y008291D02*
X004960Y008291D01*
X004992Y008369D02*
X004994Y008369D01*
X004992Y008448D02*
X004994Y008448D01*
X004966Y008526D02*
X005024Y008526D01*
X005094Y008605D02*
X004901Y008605D01*
X004604Y008605D02*
X004411Y008605D01*
X004408Y008608D02*
X004320Y008644D01*
X004225Y008644D01*
X004137Y008608D01*
X004070Y008540D01*
X004034Y008453D01*
X004034Y008357D01*
X004070Y008270D01*
X004137Y008202D01*
X004225Y008166D01*
X004320Y008166D01*
X004408Y008202D01*
X004475Y008270D01*
X004512Y008357D01*
X004512Y008453D01*
X004475Y008540D01*
X004408Y008608D01*
X004481Y008526D02*
X004540Y008526D01*
X004512Y008448D02*
X004514Y008448D01*
X004512Y008369D02*
X004514Y008369D01*
X004484Y008291D02*
X004546Y008291D01*
X004618Y008212D02*
X004418Y008212D01*
X004128Y008212D02*
X003647Y008212D01*
X003707Y008291D02*
X004061Y008291D01*
X004034Y008369D02*
X003731Y008369D01*
X003729Y008448D02*
X004034Y008448D01*
X004064Y008526D02*
X003696Y008526D01*
X003611Y008605D02*
X004134Y008605D01*
X003337Y008212D02*
X002716Y008212D01*
X002665Y008291D02*
X003276Y008291D01*
X002474Y010018D02*
X001961Y010018D01*
X002122Y010175D02*
X001363Y010175D01*
X001363Y010253D02*
X002104Y010253D01*
X002564Y010175D02*
X002564Y010175D01*
X003893Y013393D02*
X004019Y013393D01*
X003905Y013472D02*
X003795Y013472D01*
X007195Y005229D02*
X009123Y005229D01*
X009123Y005151D02*
X007270Y005151D01*
X008837Y005072D02*
X009123Y005072D01*
X009123Y004994D02*
X008985Y004994D01*
X009062Y004915D02*
X009123Y004915D01*
X009123Y004837D02*
X009094Y004837D01*
X009118Y004758D02*
X009123Y004758D01*
X009118Y004680D02*
X009123Y004680D01*
X009123Y004601D02*
X009106Y004601D01*
X009123Y004523D02*
X009073Y004523D01*
X009123Y004444D02*
X009012Y004444D01*
X008903Y004366D02*
X009123Y004366D01*
D13*
X008073Y004065D03*
X007083Y004535D03*
X007063Y005025D03*
X006993Y005975D03*
X005973Y005365D03*
X005063Y004425D03*
X006083Y003815D03*
X006433Y003925D03*
X006923Y003855D03*
X007143Y002005D03*
X007143Y001105D03*
X007143Y000505D03*
X008093Y000505D03*
X008593Y000955D03*
X005643Y001605D03*
X005643Y001955D03*
X004993Y001955D03*
X004993Y001605D03*
X004243Y001605D03*
X004243Y001955D03*
X003243Y001605D03*
X002543Y002815D03*
X005043Y006905D03*
X005083Y007385D03*
X005143Y007895D03*
X005233Y008405D03*
X005563Y008295D03*
X006083Y008605D03*
X006433Y008195D03*
X006663Y008625D03*
X006793Y008305D03*
X007093Y008105D03*
X007673Y009645D03*
X008013Y009755D03*
X008093Y011185D03*
X007803Y011585D03*
X007963Y011885D03*
X007953Y012425D03*
X007673Y013345D03*
X006853Y012815D03*
X006443Y013005D03*
X006773Y011215D03*
X006593Y010695D03*
X006443Y010195D03*
X006073Y010585D03*
X007153Y011295D03*
X008243Y008205D03*
X005943Y007025D03*
X005443Y006905D03*
X004753Y008415D03*
X004273Y008405D03*
X003663Y007885D03*
X003492Y008395D03*
X002493Y008125D03*
X002443Y009775D03*
X002713Y009985D03*
X002343Y010265D03*
X002343Y010735D03*
X002343Y012455D03*
X002343Y012845D03*
X001603Y013325D03*
X003693Y013255D03*
X003893Y012585D03*
X003903Y010785D03*
X004273Y010805D03*
X004473Y010605D03*
X003841Y010203D03*
D14*
X006993Y001955D02*
X006993Y000335D01*
X008189Y000335D01*
X009113Y001259D01*
X009113Y001592D01*
X009069Y001487D01*
X008961Y001379D01*
X008819Y001320D01*
X008666Y001320D01*
X008525Y001379D01*
X008416Y001487D01*
X008358Y001628D01*
X008358Y001782D01*
X008416Y001923D01*
X008448Y001955D01*
X006993Y001955D01*
X006993Y001880D02*
X008398Y001880D01*
X008358Y001781D02*
X006993Y001781D01*
X006993Y001683D02*
X008358Y001683D01*
X008376Y001584D02*
X006993Y001584D01*
X006993Y001486D02*
X008418Y001486D01*
X008516Y001387D02*
X006993Y001387D01*
X006993Y001289D02*
X009113Y001289D01*
X009113Y001387D02*
X008969Y001387D01*
X009068Y001486D02*
X009113Y001486D01*
X009109Y001584D02*
X009113Y001584D01*
X009044Y001190D02*
X006993Y001190D01*
X006993Y001092D02*
X008945Y001092D01*
X008847Y000993D02*
X006993Y000993D01*
X006993Y000895D02*
X008748Y000895D01*
X008650Y000796D02*
X006993Y000796D01*
X006993Y000698D02*
X008551Y000698D01*
X008453Y000599D02*
X006993Y000599D01*
X006993Y000501D02*
X008354Y000501D01*
X008256Y000402D02*
X006993Y000402D01*
M02*
