G75*
G70*
%OFA0B0*%
%FSLAX24Y24*%
%IPPOS*%
%LPD*%
%AMOC8*
5,1,8,0,0,1.08239X$1,22.5*
%
%ADD10C,0.0600*%
%ADD11C,0.0278*%
%ADD12C,0.0080*%
D10*
X001743Y000640D03*
X001743Y001640D03*
X001743Y002640D03*
X001743Y003640D03*
X001743Y004640D03*
X001743Y005640D03*
X001743Y006640D03*
X001743Y007640D03*
X001743Y008640D03*
X001743Y009640D03*
X001743Y010640D03*
X001743Y011640D03*
X008743Y011640D03*
X008743Y010640D03*
X008743Y009640D03*
X008743Y008640D03*
X008743Y007640D03*
X008743Y006640D03*
X008743Y005640D03*
X008743Y004640D03*
X008743Y003640D03*
X008743Y002640D03*
X008743Y001640D03*
X008743Y000640D03*
D11*
X007943Y001190D03*
X007943Y001690D03*
X007093Y002790D03*
X006943Y003190D03*
X006193Y003090D03*
X005393Y002790D03*
X005093Y003090D03*
X004793Y002790D03*
X004443Y001790D03*
X005093Y003990D03*
X004593Y004540D03*
X004993Y005740D03*
X004593Y005940D03*
X004643Y006740D03*
X005143Y007190D03*
X005393Y007490D03*
X005993Y007140D03*
X006493Y007490D03*
X006943Y007240D03*
X007893Y008440D03*
X007693Y009590D03*
X007043Y009240D03*
X006293Y009190D03*
X005643Y009740D03*
X005243Y009740D03*
X004843Y009740D03*
X004243Y010740D03*
X003493Y011740D03*
X002193Y012040D03*
X001693Y012440D03*
X002743Y009140D03*
X003243Y009140D03*
X003743Y009140D03*
X004093Y008990D03*
X004793Y008410D03*
X004543Y007940D03*
X004543Y007440D03*
X003893Y007290D03*
X003543Y005540D03*
X003543Y005040D03*
X005683Y008410D03*
X006043Y010640D03*
X005493Y012190D03*
X006143Y012440D03*
X006243Y012840D03*
X007943Y012240D03*
X008293Y007140D03*
X006843Y004740D03*
X006343Y005090D03*
X005843Y005890D03*
D12*
X001403Y002386D02*
X001403Y001894D01*
X001505Y001996D01*
X001659Y002060D01*
X001826Y002060D01*
X001981Y001996D01*
X002099Y001878D01*
X002163Y001724D01*
X002163Y001640D01*
X004226Y001640D01*
X004223Y001643D01*
X004184Y001738D01*
X004184Y001842D01*
X004223Y001937D01*
X004296Y002010D01*
X004391Y002049D01*
X004494Y002049D01*
X004590Y002010D01*
X004662Y001937D01*
X004702Y001842D01*
X004702Y001738D01*
X004662Y001643D01*
X004659Y001640D01*
X008323Y001640D01*
X008323Y001724D01*
X008387Y001878D01*
X008505Y001996D01*
X008659Y002060D01*
X008826Y002060D01*
X008981Y001996D01*
X009083Y001894D01*
X009083Y002386D01*
X008981Y002284D01*
X008826Y002220D01*
X008659Y002220D01*
X008505Y002284D01*
X008387Y002402D01*
X008323Y002556D01*
X008323Y002724D01*
X008387Y002878D01*
X008505Y002996D01*
X008659Y003060D01*
X008826Y003060D01*
X008981Y002996D01*
X009083Y002894D01*
X009083Y003386D01*
X008981Y003284D01*
X008826Y003220D01*
X008659Y003220D01*
X008505Y003284D01*
X008387Y003402D01*
X008323Y003556D01*
X008323Y003724D01*
X008387Y003878D01*
X008505Y003996D01*
X008659Y004060D01*
X008826Y004060D01*
X008981Y003996D01*
X009083Y003894D01*
X009083Y004386D01*
X008981Y004284D01*
X008826Y004220D01*
X008659Y004220D01*
X008505Y004284D01*
X008387Y004402D01*
X008323Y004556D01*
X008323Y004724D01*
X008387Y004878D01*
X008505Y004996D01*
X008659Y005060D01*
X008826Y005060D01*
X008981Y004996D01*
X009083Y004894D01*
X009083Y005386D01*
X008981Y005284D01*
X008826Y005220D01*
X008659Y005220D01*
X008505Y005284D01*
X008387Y005402D01*
X008323Y005556D01*
X008323Y005724D01*
X008387Y005878D01*
X008505Y005996D01*
X008659Y006060D01*
X008826Y006060D01*
X008981Y005996D01*
X009083Y005894D01*
X009083Y006386D01*
X008981Y006284D01*
X008826Y006220D01*
X008659Y006220D01*
X008505Y006284D01*
X008387Y006402D01*
X008323Y006556D01*
X008323Y006724D01*
X008387Y006878D01*
X008422Y006913D01*
X008344Y006881D01*
X008241Y006881D01*
X008146Y006920D01*
X008073Y006993D01*
X008034Y007088D01*
X008034Y007192D01*
X008073Y007287D01*
X008146Y007360D01*
X008241Y007399D01*
X008344Y007399D01*
X008422Y007367D01*
X008387Y007402D01*
X008323Y007556D01*
X008323Y007724D01*
X008387Y007878D01*
X008505Y007996D01*
X008659Y008060D01*
X008826Y008060D01*
X008981Y007996D01*
X009083Y007894D01*
X009083Y008386D01*
X008981Y008284D01*
X008826Y008220D01*
X008659Y008220D01*
X008505Y008284D01*
X008387Y008402D01*
X008323Y008556D01*
X008323Y008724D01*
X008387Y008878D01*
X008505Y008996D01*
X008659Y009060D01*
X008826Y009060D01*
X008981Y008996D01*
X009083Y008894D01*
X009083Y009386D01*
X008981Y009284D01*
X008826Y009220D01*
X008659Y009220D01*
X008505Y009284D01*
X008387Y009402D01*
X008323Y009556D01*
X008323Y009724D01*
X008387Y009878D01*
X008505Y009996D01*
X008659Y010060D01*
X008826Y010060D01*
X008981Y009996D01*
X009083Y009894D01*
X009083Y010386D01*
X008981Y010284D01*
X008826Y010220D01*
X008659Y010220D01*
X008505Y010284D01*
X008387Y010402D01*
X008323Y010556D01*
X008323Y010724D01*
X008387Y010878D01*
X008505Y010996D01*
X008659Y011060D01*
X008826Y011060D01*
X008981Y010996D01*
X009083Y010894D01*
X009083Y011359D01*
X009078Y011353D01*
X009029Y011304D01*
X008973Y011264D01*
X008912Y011232D01*
X008846Y011211D01*
X008783Y011201D01*
X008783Y011600D01*
X008703Y011600D01*
X008703Y011201D01*
X008640Y011211D01*
X008574Y011232D01*
X008512Y011264D01*
X008456Y011304D01*
X008407Y011353D01*
X008366Y011409D01*
X008335Y011471D01*
X008314Y011537D01*
X008304Y011600D01*
X008703Y011600D01*
X008703Y011680D01*
X008703Y012079D01*
X008640Y012069D01*
X008574Y012048D01*
X008512Y012016D01*
X008456Y011976D01*
X008407Y011927D01*
X008366Y011871D01*
X008335Y011809D01*
X008314Y011743D01*
X008304Y011680D01*
X008703Y011680D01*
X008783Y011680D01*
X008783Y012079D01*
X008846Y012069D01*
X008912Y012048D01*
X008973Y012016D01*
X009029Y011976D01*
X009078Y011927D01*
X009083Y011921D01*
X009083Y012980D01*
X006465Y012980D01*
X006502Y012892D01*
X006502Y012788D01*
X006462Y012693D01*
X006390Y012620D01*
X006347Y012603D01*
X006362Y012587D01*
X006402Y012492D01*
X006402Y012388D01*
X006362Y012293D01*
X006290Y012220D01*
X006194Y012181D01*
X006091Y012181D01*
X005996Y012220D01*
X005923Y012293D01*
X005884Y012388D01*
X005884Y012492D01*
X005923Y012587D01*
X005996Y012660D01*
X006039Y012677D01*
X006023Y012693D01*
X005984Y012788D01*
X005984Y012892D01*
X006020Y012980D01*
X001403Y012980D01*
X001403Y011894D01*
X001505Y011996D01*
X001659Y012060D01*
X001826Y012060D01*
X001934Y012016D01*
X001934Y012092D01*
X001973Y012187D01*
X002046Y012260D01*
X002141Y012299D01*
X002244Y012299D01*
X002340Y012260D01*
X002412Y012187D01*
X002452Y012092D01*
X002452Y011988D01*
X002412Y011893D01*
X002340Y011820D01*
X002244Y011781D01*
X002141Y011781D01*
X002139Y011782D01*
X002163Y011724D01*
X002163Y011556D01*
X002099Y011402D01*
X001981Y011284D01*
X001826Y011220D01*
X001659Y011220D01*
X001505Y011284D01*
X001403Y011386D01*
X001403Y010894D01*
X001505Y010996D01*
X001659Y011060D01*
X001826Y011060D01*
X001981Y010996D01*
X002099Y010878D01*
X002163Y010724D01*
X002163Y010556D01*
X002099Y010402D01*
X001981Y010284D01*
X001826Y010220D01*
X001659Y010220D01*
X001505Y010284D01*
X001403Y010386D01*
X001403Y009894D01*
X001505Y009996D01*
X001659Y010060D01*
X001826Y010060D01*
X001981Y009996D01*
X002099Y009878D01*
X002163Y009724D01*
X002163Y009556D01*
X002099Y009402D01*
X001981Y009284D01*
X001826Y009220D01*
X001659Y009220D01*
X001505Y009284D01*
X001403Y009386D01*
X001403Y008894D01*
X001505Y008996D01*
X001659Y009060D01*
X001826Y009060D01*
X001981Y008996D01*
X002099Y008878D01*
X002163Y008724D01*
X002163Y008556D01*
X002099Y008402D01*
X001981Y008284D01*
X001826Y008220D01*
X001659Y008220D01*
X001505Y008284D01*
X001403Y008386D01*
X001403Y007894D01*
X001505Y007996D01*
X001659Y008060D01*
X001826Y008060D01*
X001981Y007996D01*
X002099Y007878D01*
X002163Y007724D01*
X002163Y007556D01*
X002099Y007402D01*
X001981Y007284D01*
X001826Y007220D01*
X001659Y007220D01*
X001505Y007284D01*
X001403Y007386D01*
X001403Y006894D01*
X001505Y006996D01*
X001659Y007060D01*
X001826Y007060D01*
X001981Y006996D01*
X002099Y006878D01*
X002163Y006724D01*
X002163Y006556D01*
X002099Y006402D01*
X001981Y006284D01*
X001826Y006220D01*
X001659Y006220D01*
X001505Y006284D01*
X001403Y006386D01*
X001403Y005894D01*
X001505Y005996D01*
X001659Y006060D01*
X001826Y006060D01*
X001981Y005996D01*
X002099Y005878D01*
X002163Y005724D01*
X002163Y005556D01*
X002099Y005402D01*
X001981Y005284D01*
X001826Y005220D01*
X001659Y005220D01*
X001505Y005284D01*
X001403Y005386D01*
X001403Y004894D01*
X001505Y004996D01*
X001659Y005060D01*
X001826Y005060D01*
X001981Y004996D01*
X002099Y004878D01*
X002163Y004724D01*
X002163Y004556D01*
X002099Y004402D01*
X001981Y004284D01*
X001826Y004220D01*
X001659Y004220D01*
X001505Y004284D01*
X001403Y004386D01*
X001403Y003894D01*
X001505Y003996D01*
X001659Y004060D01*
X001826Y004060D01*
X001981Y003996D01*
X002099Y003878D01*
X002163Y003724D01*
X002163Y003556D01*
X002099Y003402D01*
X001981Y003284D01*
X001826Y003220D01*
X001659Y003220D01*
X001505Y003284D01*
X001403Y003386D01*
X001403Y002894D01*
X001505Y002996D01*
X001659Y003060D01*
X001826Y003060D01*
X001981Y002996D01*
X002099Y002878D01*
X002163Y002724D01*
X002163Y002556D01*
X002099Y002402D01*
X001981Y002284D01*
X001826Y002220D01*
X001659Y002220D01*
X001505Y002284D01*
X001403Y002386D01*
X001403Y002338D02*
X001451Y002338D01*
X001403Y002260D02*
X001564Y002260D01*
X001403Y002181D02*
X009083Y002181D01*
X009083Y002103D02*
X001403Y002103D01*
X001403Y002024D02*
X001572Y002024D01*
X001454Y001946D02*
X001403Y001946D01*
X001913Y002024D02*
X004331Y002024D01*
X004232Y001946D02*
X002031Y001946D01*
X002103Y001867D02*
X004194Y001867D01*
X004184Y001789D02*
X002136Y001789D01*
X002163Y001710D02*
X004196Y001710D01*
X004555Y002024D02*
X008572Y002024D01*
X008454Y001946D02*
X004654Y001946D01*
X004691Y001867D02*
X008382Y001867D01*
X008350Y001789D02*
X004702Y001789D01*
X004690Y001710D02*
X008323Y001710D01*
X008564Y002260D02*
X001922Y002260D01*
X002035Y002338D02*
X008451Y002338D01*
X008381Y002417D02*
X002105Y002417D01*
X002137Y002495D02*
X008348Y002495D01*
X008323Y002574D02*
X007243Y002574D01*
X007240Y002570D02*
X007312Y002643D01*
X007352Y002738D01*
X007352Y002842D01*
X007312Y002937D01*
X007240Y003010D01*
X007161Y003042D01*
X007162Y003043D01*
X007202Y003138D01*
X007202Y003242D01*
X007162Y003337D01*
X007090Y003410D01*
X006994Y003449D01*
X006891Y003449D01*
X006796Y003410D01*
X006723Y003337D01*
X006684Y003242D01*
X006684Y003138D01*
X006723Y003043D01*
X006796Y002970D01*
X006874Y002938D01*
X006873Y002937D01*
X006834Y002842D01*
X006834Y002738D01*
X006873Y002643D01*
X006946Y002570D01*
X007041Y002531D01*
X007144Y002531D01*
X007240Y002570D01*
X007316Y002652D02*
X008323Y002652D01*
X008326Y002731D02*
X007349Y002731D01*
X007352Y002809D02*
X008358Y002809D01*
X008396Y002888D02*
X007333Y002888D01*
X007283Y002966D02*
X008475Y002966D01*
X008622Y003045D02*
X007163Y003045D01*
X007195Y003123D02*
X009083Y003123D01*
X009083Y003045D02*
X008864Y003045D01*
X008971Y003280D02*
X009083Y003280D01*
X009083Y003202D02*
X007202Y003202D01*
X007186Y003280D02*
X008514Y003280D01*
X008430Y003359D02*
X007141Y003359D01*
X007023Y003437D02*
X008372Y003437D01*
X008340Y003516D02*
X002146Y003516D01*
X002163Y003594D02*
X008323Y003594D01*
X008323Y003673D02*
X002163Y003673D01*
X002151Y003751D02*
X004993Y003751D01*
X004946Y003770D02*
X005041Y003731D01*
X005144Y003731D01*
X005240Y003770D01*
X005312Y003843D01*
X005352Y003938D01*
X005352Y004042D01*
X005312Y004137D01*
X005240Y004210D01*
X005144Y004249D01*
X005041Y004249D01*
X004946Y004210D01*
X004873Y004137D01*
X004834Y004042D01*
X004834Y003938D01*
X004873Y003843D01*
X004946Y003770D01*
X004887Y003830D02*
X002119Y003830D01*
X002069Y003908D02*
X004846Y003908D01*
X004834Y003987D02*
X001990Y003987D01*
X001831Y004222D02*
X004976Y004222D01*
X004880Y004144D02*
X001403Y004144D01*
X001403Y004222D02*
X001654Y004222D01*
X001488Y004301D02*
X001403Y004301D01*
X001403Y004379D02*
X001410Y004379D01*
X001403Y004065D02*
X004843Y004065D01*
X005210Y004222D02*
X008654Y004222D01*
X008831Y004222D02*
X009083Y004222D01*
X009083Y004144D02*
X005306Y004144D01*
X005342Y004065D02*
X009083Y004065D01*
X009083Y003987D02*
X008990Y003987D01*
X009069Y003908D02*
X009083Y003908D01*
X009083Y004301D02*
X008997Y004301D01*
X009076Y004379D02*
X009083Y004379D01*
X009083Y004929D02*
X009048Y004929D01*
X009083Y005007D02*
X008954Y005007D01*
X009083Y005086D02*
X006602Y005086D01*
X006602Y005038D02*
X006602Y005142D01*
X006562Y005237D01*
X006490Y005310D01*
X006394Y005349D01*
X006291Y005349D01*
X006196Y005310D01*
X006123Y005237D01*
X006084Y005142D01*
X006084Y005038D01*
X006123Y004943D01*
X006196Y004870D01*
X006291Y004831D01*
X006394Y004831D01*
X006490Y004870D01*
X006562Y004943D01*
X006602Y005038D01*
X006589Y005007D02*
X008531Y005007D01*
X008437Y004929D02*
X007021Y004929D01*
X006990Y004960D02*
X006894Y004999D01*
X006791Y004999D01*
X006696Y004960D01*
X006623Y004887D01*
X006584Y004792D01*
X006584Y004688D01*
X006623Y004593D01*
X006696Y004520D01*
X006791Y004481D01*
X006894Y004481D01*
X006990Y004520D01*
X007062Y004593D01*
X007102Y004688D01*
X007102Y004792D01*
X007062Y004887D01*
X006990Y004960D01*
X007078Y004850D02*
X008375Y004850D01*
X008343Y004772D02*
X007102Y004772D01*
X007102Y004693D02*
X008323Y004693D01*
X008323Y004615D02*
X007071Y004615D01*
X007005Y004536D02*
X008331Y004536D01*
X008364Y004458D02*
X002122Y004458D01*
X002154Y004536D02*
X006680Y004536D01*
X006614Y004615D02*
X002163Y004615D01*
X002163Y004693D02*
X006584Y004693D01*
X006584Y004772D02*
X002143Y004772D01*
X002110Y004850D02*
X003366Y004850D01*
X003396Y004820D02*
X003323Y004893D01*
X003284Y004988D01*
X003284Y005092D01*
X003323Y005187D01*
X003396Y005260D01*
X003491Y005299D01*
X003594Y005299D01*
X003690Y005260D01*
X003762Y005187D01*
X003802Y005092D01*
X003802Y004988D01*
X003762Y004893D01*
X003690Y004820D01*
X003594Y004781D01*
X003491Y004781D01*
X003396Y004820D01*
X003309Y004929D02*
X002048Y004929D01*
X001954Y005007D02*
X003284Y005007D01*
X003284Y005086D02*
X001403Y005086D01*
X001403Y005164D02*
X003314Y005164D01*
X003379Y005243D02*
X001881Y005243D01*
X002018Y005321D02*
X006224Y005321D01*
X006129Y005243D02*
X003707Y005243D01*
X003772Y005164D02*
X006093Y005164D01*
X006084Y005086D02*
X003802Y005086D01*
X003802Y005007D02*
X006097Y005007D01*
X006138Y004929D02*
X003777Y004929D01*
X003719Y004850D02*
X006245Y004850D01*
X006440Y004850D02*
X006608Y004850D01*
X006665Y004929D02*
X006548Y004929D01*
X006593Y005164D02*
X009083Y005164D01*
X009083Y005243D02*
X008881Y005243D01*
X009018Y005321D02*
X009083Y005321D01*
X008605Y005243D02*
X006557Y005243D01*
X006462Y005321D02*
X008468Y005321D01*
X008389Y005400D02*
X002096Y005400D01*
X002130Y005478D02*
X008355Y005478D01*
X008323Y005557D02*
X005176Y005557D01*
X005212Y005593D02*
X005252Y005688D01*
X005252Y005792D01*
X005603Y005792D01*
X005584Y005838D02*
X005623Y005743D01*
X005696Y005670D01*
X005791Y005631D01*
X005894Y005631D01*
X005990Y005670D01*
X006062Y005743D01*
X006102Y005838D01*
X006102Y005942D01*
X006062Y006037D01*
X005990Y006110D01*
X005894Y006149D01*
X005791Y006149D01*
X005696Y006110D01*
X005623Y006037D01*
X005584Y005942D01*
X005584Y005838D01*
X005584Y005871D02*
X005219Y005871D01*
X005212Y005887D02*
X005140Y005960D01*
X005044Y005999D01*
X004941Y005999D01*
X004852Y005962D01*
X004852Y005992D01*
X004812Y006087D01*
X004740Y006160D01*
X004644Y006199D01*
X004541Y006199D01*
X004446Y006160D01*
X004373Y006087D01*
X004334Y005992D01*
X004334Y005888D01*
X004373Y005793D01*
X004446Y005720D01*
X004541Y005681D01*
X004644Y005681D01*
X004734Y005718D01*
X004734Y005688D01*
X004773Y005593D01*
X004846Y005520D01*
X004941Y005481D01*
X005044Y005481D01*
X005140Y005520D01*
X005212Y005593D01*
X005230Y005635D02*
X005781Y005635D01*
X005904Y005635D02*
X008323Y005635D01*
X008323Y005714D02*
X006033Y005714D01*
X006083Y005792D02*
X008351Y005792D01*
X008384Y005871D02*
X006102Y005871D01*
X006099Y005949D02*
X008458Y005949D01*
X008581Y006028D02*
X006066Y006028D01*
X005993Y006106D02*
X009083Y006106D01*
X009083Y006028D02*
X008905Y006028D01*
X009028Y005949D02*
X009083Y005949D01*
X009083Y006185D02*
X004679Y006185D01*
X004506Y006185D02*
X001403Y006185D01*
X001403Y006263D02*
X001555Y006263D01*
X001447Y006342D02*
X001403Y006342D01*
X001403Y006106D02*
X004392Y006106D01*
X004349Y006028D02*
X001905Y006028D01*
X002028Y005949D02*
X004334Y005949D01*
X004341Y005871D02*
X002102Y005871D01*
X002134Y005792D02*
X004374Y005792D01*
X004463Y005714D02*
X002163Y005714D01*
X002163Y005635D02*
X004756Y005635D01*
X004734Y005714D02*
X004723Y005714D01*
X004810Y005557D02*
X002163Y005557D01*
X001930Y006263D02*
X008555Y006263D01*
X008447Y006342D02*
X002038Y006342D01*
X002106Y006420D02*
X008379Y006420D01*
X008347Y006499D02*
X004737Y006499D01*
X004694Y006481D02*
X004790Y006520D01*
X004862Y006593D01*
X004902Y006688D01*
X004902Y006792D01*
X004862Y006887D01*
X004790Y006960D01*
X004694Y006999D01*
X004591Y006999D01*
X004496Y006960D01*
X004423Y006887D01*
X004384Y006792D01*
X004384Y006688D01*
X004423Y006593D01*
X004496Y006520D01*
X004591Y006481D01*
X004694Y006481D01*
X004846Y006577D02*
X008323Y006577D01*
X008323Y006656D02*
X004888Y006656D01*
X004902Y006734D02*
X008327Y006734D01*
X008360Y006813D02*
X004893Y006813D01*
X004858Y006891D02*
X005917Y006891D01*
X005941Y006881D02*
X006044Y006881D01*
X006140Y006920D01*
X006212Y006993D01*
X006252Y007088D01*
X006252Y007192D01*
X006212Y007287D01*
X006140Y007360D01*
X006044Y007399D01*
X005941Y007399D01*
X005846Y007360D01*
X005773Y007287D01*
X005734Y007192D01*
X005734Y007088D01*
X005773Y006993D01*
X005846Y006920D01*
X005941Y006881D01*
X006069Y006891D02*
X008217Y006891D01*
X008097Y006970D02*
X006189Y006970D01*
X006235Y007048D02*
X008051Y007048D01*
X008034Y007127D02*
X006252Y007127D01*
X006246Y007205D02*
X008039Y007205D01*
X008072Y007284D02*
X006653Y007284D01*
X006640Y007270D02*
X006712Y007343D01*
X006752Y007438D01*
X006752Y007542D01*
X006712Y007637D01*
X006640Y007710D01*
X006544Y007749D01*
X006441Y007749D01*
X006346Y007710D01*
X006273Y007637D01*
X006234Y007542D01*
X006234Y007438D01*
X006273Y007343D01*
X006346Y007270D01*
X006441Y007231D01*
X006544Y007231D01*
X006640Y007270D01*
X006720Y007362D02*
X008152Y007362D01*
X008338Y007519D02*
X006752Y007519D01*
X006752Y007441D02*
X008371Y007441D01*
X008323Y007598D02*
X006729Y007598D01*
X006673Y007676D02*
X008323Y007676D01*
X008336Y007755D02*
X004724Y007755D01*
X004690Y007720D02*
X004762Y007793D01*
X004802Y007888D01*
X004802Y007992D01*
X004762Y008087D01*
X004690Y008160D01*
X004594Y008199D01*
X004491Y008199D01*
X004396Y008160D01*
X004323Y008087D01*
X004284Y007992D01*
X004284Y007888D01*
X004323Y007793D01*
X004396Y007720D01*
X004469Y007690D01*
X004396Y007660D01*
X004323Y007587D01*
X004284Y007492D01*
X004284Y007388D01*
X004323Y007293D01*
X004396Y007220D01*
X004491Y007181D01*
X004594Y007181D01*
X004690Y007220D01*
X004762Y007293D01*
X004802Y007388D01*
X004802Y007492D01*
X004762Y007587D01*
X004690Y007660D01*
X004616Y007690D01*
X004690Y007720D01*
X004650Y007676D02*
X005212Y007676D01*
X005246Y007710D02*
X005173Y007637D01*
X005134Y007542D01*
X005134Y007449D01*
X005091Y007449D01*
X004996Y007410D01*
X004923Y007337D01*
X004884Y007242D01*
X004884Y007138D01*
X004923Y007043D01*
X004996Y006970D01*
X005091Y006931D01*
X005194Y006931D01*
X005290Y006970D01*
X005362Y007043D01*
X005402Y007138D01*
X005402Y007231D01*
X005444Y007231D01*
X005540Y007270D01*
X005612Y007343D01*
X005652Y007438D01*
X005652Y007542D01*
X005612Y007637D01*
X005540Y007710D01*
X005444Y007749D01*
X005341Y007749D01*
X005246Y007710D01*
X005157Y007598D02*
X004752Y007598D01*
X004790Y007519D02*
X005134Y007519D01*
X005071Y007441D02*
X004802Y007441D01*
X004791Y007362D02*
X004948Y007362D01*
X004901Y007284D02*
X004753Y007284D01*
X004652Y007205D02*
X004884Y007205D01*
X004889Y007127D02*
X004096Y007127D01*
X004112Y007143D02*
X004152Y007238D01*
X004152Y007342D01*
X004112Y007437D01*
X004040Y007510D01*
X003944Y007549D01*
X003841Y007549D01*
X003746Y007510D01*
X003673Y007437D01*
X003634Y007342D01*
X003634Y007238D01*
X003673Y007143D01*
X003746Y007070D01*
X003841Y007031D01*
X003944Y007031D01*
X004040Y007070D01*
X004112Y007143D01*
X004138Y007205D02*
X004433Y007205D01*
X004333Y007284D02*
X004152Y007284D01*
X004143Y007362D02*
X004295Y007362D01*
X004284Y007441D02*
X004109Y007441D01*
X004017Y007519D02*
X004295Y007519D01*
X004334Y007598D02*
X002163Y007598D01*
X002163Y007676D02*
X004436Y007676D01*
X004362Y007755D02*
X002150Y007755D01*
X002117Y007833D02*
X004307Y007833D01*
X004284Y007912D02*
X002065Y007912D01*
X001987Y007990D02*
X004284Y007990D01*
X004316Y008069D02*
X001403Y008069D01*
X001403Y008147D02*
X004383Y008147D01*
X004573Y008263D02*
X004646Y008190D01*
X004741Y008151D01*
X004844Y008151D01*
X004940Y008190D01*
X005012Y008263D01*
X005052Y008358D01*
X005052Y008462D01*
X005012Y008557D01*
X004940Y008630D01*
X004844Y008669D01*
X004741Y008669D01*
X004646Y008630D01*
X004573Y008557D01*
X004534Y008462D01*
X004534Y008358D01*
X004573Y008263D01*
X004556Y008304D02*
X002001Y008304D01*
X002079Y008383D02*
X004534Y008383D01*
X004534Y008461D02*
X002123Y008461D01*
X002156Y008540D02*
X004566Y008540D01*
X004634Y008618D02*
X002163Y008618D01*
X002163Y008697D02*
X007835Y008697D01*
X007841Y008699D02*
X007746Y008660D01*
X007673Y008587D01*
X007634Y008492D01*
X007634Y008388D01*
X007673Y008293D01*
X007746Y008220D01*
X007841Y008181D01*
X007944Y008181D01*
X008040Y008220D01*
X008112Y008293D01*
X008152Y008388D01*
X008152Y008492D01*
X008112Y008587D01*
X008040Y008660D01*
X007944Y008699D01*
X007841Y008699D01*
X007950Y008697D02*
X008323Y008697D01*
X008323Y008618D02*
X008081Y008618D01*
X008132Y008540D02*
X008330Y008540D01*
X008362Y008461D02*
X008152Y008461D01*
X008149Y008383D02*
X008406Y008383D01*
X008485Y008304D02*
X008117Y008304D01*
X008045Y008226D02*
X008646Y008226D01*
X008840Y008226D02*
X009083Y008226D01*
X009083Y008304D02*
X009001Y008304D01*
X009079Y008383D02*
X009083Y008383D01*
X009083Y008147D02*
X004702Y008147D01*
X004770Y008069D02*
X009083Y008069D01*
X009083Y007990D02*
X008987Y007990D01*
X009065Y007912D02*
X009083Y007912D01*
X008499Y007990D02*
X004802Y007990D01*
X004802Y007912D02*
X008420Y007912D01*
X008368Y007833D02*
X004779Y007833D01*
X004611Y008226D02*
X001840Y008226D01*
X001646Y008226D02*
X001403Y008226D01*
X001403Y008304D02*
X001485Y008304D01*
X001406Y008383D02*
X001403Y008383D01*
X001403Y007990D02*
X001499Y007990D01*
X001420Y007912D02*
X001403Y007912D01*
X001403Y007362D02*
X001427Y007362D01*
X001403Y007284D02*
X001506Y007284D01*
X001403Y007205D02*
X003648Y007205D01*
X003634Y007284D02*
X001980Y007284D01*
X002059Y007362D02*
X003642Y007362D01*
X003677Y007441D02*
X002115Y007441D01*
X002147Y007519D02*
X003769Y007519D01*
X003690Y007127D02*
X001403Y007127D01*
X001403Y007048D02*
X001630Y007048D01*
X001478Y006970D02*
X001403Y006970D01*
X001855Y007048D02*
X003800Y007048D01*
X003986Y007048D02*
X004921Y007048D01*
X004998Y006970D02*
X004766Y006970D01*
X004520Y006970D02*
X002007Y006970D01*
X002086Y006891D02*
X004427Y006891D01*
X004392Y006813D02*
X002126Y006813D01*
X002158Y006734D02*
X004384Y006734D01*
X004397Y006656D02*
X002163Y006656D01*
X002163Y006577D02*
X004439Y006577D01*
X004549Y006499D02*
X002139Y006499D01*
X001581Y006028D02*
X001403Y006028D01*
X001403Y005949D02*
X001458Y005949D01*
X001468Y005321D02*
X001403Y005321D01*
X001403Y005243D02*
X001605Y005243D01*
X001531Y005007D02*
X001403Y005007D01*
X001403Y004929D02*
X001437Y004929D01*
X001997Y004301D02*
X008488Y004301D01*
X008410Y004379D02*
X002076Y004379D01*
X001495Y003987D02*
X001403Y003987D01*
X001403Y003908D02*
X001417Y003908D01*
X001403Y003359D02*
X001430Y003359D01*
X001403Y003280D02*
X001514Y003280D01*
X001622Y003045D02*
X001403Y003045D01*
X001403Y003123D02*
X004834Y003123D01*
X004834Y003142D02*
X004834Y003038D01*
X004873Y002943D01*
X004946Y002870D01*
X005041Y002831D01*
X005134Y002831D01*
X005134Y002738D01*
X005173Y002643D01*
X005246Y002570D01*
X005341Y002531D01*
X005444Y002531D01*
X005540Y002570D01*
X005612Y002643D01*
X005652Y002738D01*
X005652Y002842D01*
X005612Y002937D01*
X005540Y003010D01*
X005444Y003049D01*
X005352Y003049D01*
X005352Y003142D01*
X005312Y003237D01*
X005240Y003310D01*
X005144Y003349D01*
X005041Y003349D01*
X004946Y003310D01*
X004873Y003237D01*
X004834Y003142D01*
X004859Y003202D02*
X001403Y003202D01*
X001403Y002966D02*
X001475Y002966D01*
X001864Y003045D02*
X004834Y003045D01*
X004864Y002966D02*
X002011Y002966D01*
X002089Y002888D02*
X004929Y002888D01*
X005134Y002809D02*
X002127Y002809D01*
X002160Y002731D02*
X005137Y002731D01*
X005170Y002652D02*
X002163Y002652D01*
X002163Y002574D02*
X005243Y002574D01*
X005543Y002574D02*
X006943Y002574D01*
X006870Y002652D02*
X005616Y002652D01*
X005649Y002731D02*
X006837Y002731D01*
X006834Y002809D02*
X005652Y002809D01*
X005633Y002888D02*
X006029Y002888D01*
X006046Y002870D02*
X006141Y002831D01*
X006244Y002831D01*
X006340Y002870D01*
X006412Y002943D01*
X006452Y003038D01*
X006452Y003142D01*
X006412Y003237D01*
X006340Y003310D01*
X006244Y003349D01*
X006141Y003349D01*
X006046Y003310D01*
X005973Y003237D01*
X005934Y003142D01*
X005934Y003038D01*
X005973Y002943D01*
X006046Y002870D01*
X005964Y002966D02*
X005583Y002966D01*
X005455Y003045D02*
X005934Y003045D01*
X005934Y003123D02*
X005352Y003123D01*
X005327Y003202D02*
X005959Y003202D01*
X006016Y003280D02*
X005269Y003280D01*
X005193Y003751D02*
X008334Y003751D01*
X008367Y003830D02*
X005299Y003830D01*
X005339Y003908D02*
X008417Y003908D01*
X008495Y003987D02*
X005352Y003987D01*
X004916Y003280D02*
X001971Y003280D01*
X002055Y003359D02*
X006745Y003359D01*
X006700Y003280D02*
X006369Y003280D01*
X006427Y003202D02*
X006684Y003202D01*
X006690Y003123D02*
X006452Y003123D01*
X006452Y003045D02*
X006723Y003045D01*
X006807Y002966D02*
X006422Y002966D01*
X006357Y002888D02*
X006853Y002888D01*
X006862Y003437D02*
X002113Y003437D01*
X004837Y006028D02*
X005619Y006028D01*
X005587Y005949D02*
X005150Y005949D01*
X005212Y005887D02*
X005252Y005792D01*
X005252Y005714D02*
X005653Y005714D01*
X005692Y006106D02*
X004793Y006106D01*
X005287Y006970D02*
X005797Y006970D01*
X005751Y007048D02*
X005364Y007048D01*
X005397Y007127D02*
X005734Y007127D01*
X005739Y007205D02*
X005402Y007205D01*
X005553Y007284D02*
X005772Y007284D01*
X005852Y007362D02*
X005620Y007362D01*
X005652Y007441D02*
X006234Y007441D01*
X006234Y007519D02*
X005652Y007519D01*
X005629Y007598D02*
X006257Y007598D01*
X006312Y007676D02*
X005573Y007676D01*
X005631Y008151D02*
X005536Y008190D01*
X005463Y008263D01*
X005424Y008358D01*
X005424Y008462D01*
X005463Y008557D01*
X005536Y008630D01*
X005631Y008669D01*
X005734Y008669D01*
X005830Y008630D01*
X005902Y008557D01*
X005942Y008462D01*
X005942Y008358D01*
X005902Y008263D01*
X005830Y008190D01*
X005734Y008151D01*
X005631Y008151D01*
X005501Y008226D02*
X004975Y008226D01*
X005029Y008304D02*
X005446Y008304D01*
X005424Y008383D02*
X005052Y008383D01*
X005052Y008461D02*
X005424Y008461D01*
X005456Y008540D02*
X005020Y008540D01*
X004951Y008618D02*
X005524Y008618D01*
X005841Y008618D02*
X007704Y008618D01*
X007654Y008540D02*
X005910Y008540D01*
X005942Y008461D02*
X007634Y008461D01*
X007636Y008383D02*
X005942Y008383D01*
X005919Y008304D02*
X007669Y008304D01*
X007741Y008226D02*
X005865Y008226D01*
X006146Y008970D02*
X006241Y008931D01*
X006344Y008931D01*
X006440Y008970D01*
X006512Y009043D01*
X006552Y009138D01*
X006552Y009242D01*
X006512Y009337D01*
X006440Y009410D01*
X006344Y009449D01*
X006241Y009449D01*
X006146Y009410D01*
X006073Y009337D01*
X006034Y009242D01*
X006034Y009138D01*
X006073Y009043D01*
X006146Y008970D01*
X006106Y009011D02*
X004352Y009011D01*
X004352Y009042D02*
X004312Y009137D01*
X004240Y009210D01*
X004144Y009249D01*
X004041Y009249D01*
X003946Y009210D01*
X003873Y009137D01*
X003834Y009042D01*
X003834Y008938D01*
X003873Y008843D01*
X003946Y008770D01*
X004041Y008731D01*
X004144Y008731D01*
X004240Y008770D01*
X004312Y008843D01*
X004352Y008938D01*
X004352Y009042D01*
X004332Y009089D02*
X006054Y009089D01*
X006034Y009168D02*
X004282Y009168D01*
X004152Y009246D02*
X006036Y009246D01*
X006068Y009325D02*
X003425Y009325D01*
X003390Y009360D02*
X003294Y009399D01*
X003191Y009399D01*
X003096Y009360D01*
X003023Y009287D01*
X002993Y009213D01*
X002962Y009287D01*
X002890Y009360D01*
X002794Y009399D01*
X002691Y009399D01*
X002596Y009360D01*
X002523Y009287D01*
X002484Y009192D01*
X002484Y009088D01*
X002523Y008993D01*
X002596Y008920D01*
X002691Y008881D01*
X002794Y008881D01*
X002890Y008920D01*
X002962Y008993D01*
X002993Y009067D01*
X003023Y008993D01*
X003096Y008920D01*
X003191Y008881D01*
X003294Y008881D01*
X003390Y008920D01*
X003462Y008993D01*
X003502Y009088D01*
X003502Y009192D01*
X003462Y009287D01*
X003390Y009360D01*
X003479Y009246D02*
X004034Y009246D01*
X003904Y009168D02*
X003502Y009168D01*
X003502Y009089D02*
X003853Y009089D01*
X003834Y009011D02*
X003470Y009011D01*
X003401Y008932D02*
X003836Y008932D01*
X003869Y008854D02*
X002109Y008854D01*
X002141Y008775D02*
X003941Y008775D01*
X004244Y008775D02*
X008344Y008775D01*
X008377Y008854D02*
X004317Y008854D01*
X004349Y008932D02*
X006239Y008932D01*
X006347Y008932D02*
X008441Y008932D01*
X008540Y009011D02*
X007166Y009011D01*
X007190Y009020D02*
X007262Y009093D01*
X007302Y009188D01*
X007302Y009292D01*
X007262Y009387D01*
X007190Y009460D01*
X007094Y009499D01*
X006991Y009499D01*
X006896Y009460D01*
X006823Y009387D01*
X006784Y009292D01*
X006784Y009188D01*
X006823Y009093D01*
X006896Y009020D01*
X006991Y008981D01*
X007094Y008981D01*
X007190Y009020D01*
X007258Y009089D02*
X009083Y009089D01*
X009083Y009011D02*
X008946Y009011D01*
X009045Y008932D02*
X009083Y008932D01*
X009083Y009168D02*
X007293Y009168D01*
X007302Y009246D02*
X008596Y009246D01*
X008464Y009325D02*
X007288Y009325D01*
X007246Y009403D02*
X008386Y009403D01*
X008354Y009482D02*
X007137Y009482D01*
X006949Y009482D02*
X005696Y009482D01*
X005694Y009481D02*
X005790Y009520D01*
X005862Y009593D01*
X005902Y009688D01*
X005902Y009792D01*
X005862Y009887D01*
X005790Y009960D01*
X005694Y009999D01*
X005591Y009999D01*
X005496Y009960D01*
X005443Y009906D01*
X005390Y009960D01*
X005294Y009999D01*
X005191Y009999D01*
X005096Y009960D01*
X005043Y009906D01*
X004990Y009960D01*
X004894Y009999D01*
X004791Y009999D01*
X004696Y009960D01*
X004623Y009887D01*
X004584Y009792D01*
X004584Y009688D01*
X004623Y009593D01*
X004696Y009520D01*
X004791Y009481D01*
X004894Y009481D01*
X004990Y009520D01*
X005043Y009574D01*
X005096Y009520D01*
X005191Y009481D01*
X005294Y009481D01*
X005390Y009520D01*
X005443Y009574D01*
X005496Y009520D01*
X005591Y009481D01*
X005694Y009481D01*
X005590Y009482D02*
X005296Y009482D01*
X005190Y009482D02*
X004896Y009482D01*
X004790Y009482D02*
X002132Y009482D01*
X002163Y009560D02*
X004656Y009560D01*
X004604Y009639D02*
X002163Y009639D01*
X002163Y009717D02*
X004584Y009717D01*
X004585Y009796D02*
X002133Y009796D01*
X002100Y009874D02*
X004618Y009874D01*
X004689Y009953D02*
X002024Y009953D01*
X001896Y010031D02*
X008589Y010031D01*
X008461Y009953D02*
X005797Y009953D01*
X005868Y009874D02*
X008385Y009874D01*
X008353Y009796D02*
X005900Y009796D01*
X005902Y009717D02*
X008323Y009717D01*
X008323Y009639D02*
X005881Y009639D01*
X005829Y009560D02*
X008323Y009560D01*
X008547Y010267D02*
X001939Y010267D01*
X002042Y010345D02*
X008444Y010345D01*
X008378Y010424D02*
X006193Y010424D01*
X006190Y010420D02*
X006262Y010493D01*
X006302Y010588D01*
X006302Y010692D01*
X006262Y010787D01*
X006190Y010860D01*
X006094Y010899D01*
X005991Y010899D01*
X005896Y010860D01*
X005823Y010787D01*
X005784Y010692D01*
X005784Y010588D01*
X005823Y010493D01*
X005896Y010420D01*
X005991Y010381D01*
X006094Y010381D01*
X006190Y010420D01*
X006266Y010502D02*
X008345Y010502D01*
X008323Y010581D02*
X006299Y010581D01*
X006302Y010659D02*
X008323Y010659D01*
X008329Y010738D02*
X006283Y010738D01*
X006233Y010816D02*
X008361Y010816D01*
X008403Y010895D02*
X006105Y010895D01*
X005980Y010895D02*
X004455Y010895D01*
X004462Y010887D02*
X004390Y010960D01*
X004294Y010999D01*
X004191Y010999D01*
X004096Y010960D01*
X004023Y010887D01*
X003984Y010792D01*
X003984Y010688D01*
X004023Y010593D01*
X004096Y010520D01*
X004191Y010481D01*
X004294Y010481D01*
X004390Y010520D01*
X004462Y010593D01*
X004502Y010688D01*
X004502Y010792D01*
X004462Y010887D01*
X004492Y010816D02*
X005852Y010816D01*
X005803Y010738D02*
X004502Y010738D01*
X004490Y010659D02*
X005784Y010659D01*
X005787Y010581D02*
X004450Y010581D01*
X004345Y010502D02*
X005820Y010502D01*
X005893Y010424D02*
X002108Y010424D01*
X002140Y010502D02*
X004140Y010502D01*
X004036Y010581D02*
X002163Y010581D01*
X002163Y010659D02*
X003996Y010659D01*
X003984Y010738D02*
X002157Y010738D01*
X002124Y010816D02*
X003994Y010816D01*
X004031Y010895D02*
X002082Y010895D01*
X002004Y010973D02*
X004128Y010973D01*
X004357Y010973D02*
X008482Y010973D01*
X008639Y011052D02*
X001847Y011052D01*
X001639Y011052D02*
X001403Y011052D01*
X001403Y011130D02*
X009083Y011130D01*
X009083Y011052D02*
X008847Y011052D01*
X008831Y011209D02*
X009083Y011209D01*
X009083Y011287D02*
X009006Y011287D01*
X008783Y011287D02*
X008703Y011287D01*
X008703Y011209D02*
X008783Y011209D01*
X008654Y011209D02*
X001403Y011209D01*
X001403Y011287D02*
X001502Y011287D01*
X001423Y011366D02*
X001403Y011366D01*
X001403Y010973D02*
X001482Y010973D01*
X001403Y010895D02*
X001403Y010895D01*
X001403Y010345D02*
X001444Y010345D01*
X001403Y010267D02*
X001547Y010267D01*
X001589Y010031D02*
X001403Y010031D01*
X001403Y009953D02*
X001461Y009953D01*
X001403Y010110D02*
X009083Y010110D01*
X009083Y010188D02*
X001403Y010188D01*
X001403Y009325D02*
X001464Y009325D01*
X001403Y009246D02*
X001596Y009246D01*
X001540Y009011D02*
X001403Y009011D01*
X001403Y009089D02*
X002484Y009089D01*
X002484Y009168D02*
X001403Y009168D01*
X001403Y008932D02*
X001441Y008932D01*
X001946Y009011D02*
X002516Y009011D01*
X002584Y008932D02*
X002045Y008932D01*
X001889Y009246D02*
X002506Y009246D01*
X002561Y009325D02*
X002021Y009325D01*
X002099Y009403D02*
X006139Y009403D01*
X006446Y009403D02*
X006839Y009403D01*
X006797Y009325D02*
X006517Y009325D01*
X006550Y009246D02*
X006784Y009246D01*
X006792Y009168D02*
X006552Y009168D01*
X006531Y009089D02*
X006827Y009089D01*
X006920Y009011D02*
X006480Y009011D01*
X005456Y009560D02*
X005429Y009560D01*
X005397Y009953D02*
X005489Y009953D01*
X005089Y009953D02*
X004997Y009953D01*
X005029Y009560D02*
X005056Y009560D01*
X006134Y007362D02*
X006265Y007362D01*
X006214Y007284D02*
X006333Y007284D01*
X008369Y006891D02*
X008400Y006891D01*
X008930Y006263D02*
X009083Y006263D01*
X009083Y006342D02*
X009038Y006342D01*
X009083Y009246D02*
X008889Y009246D01*
X009021Y009325D02*
X009083Y009325D01*
X009083Y009953D02*
X009024Y009953D01*
X009083Y010031D02*
X008896Y010031D01*
X008939Y010267D02*
X009083Y010267D01*
X009083Y010345D02*
X009042Y010345D01*
X009082Y010895D02*
X009083Y010895D01*
X009083Y010973D02*
X009004Y010973D01*
X008783Y011366D02*
X008703Y011366D01*
X008703Y011444D02*
X008783Y011444D01*
X008783Y011523D02*
X008703Y011523D01*
X008703Y011601D02*
X002163Y011601D01*
X002163Y011680D02*
X008703Y011680D01*
X008703Y011758D02*
X008783Y011758D01*
X008783Y011837D02*
X008703Y011837D01*
X008703Y011915D02*
X008783Y011915D01*
X008783Y011994D02*
X008703Y011994D01*
X008703Y012072D02*
X008783Y012072D01*
X008828Y012072D02*
X009083Y012072D01*
X009083Y011994D02*
X009005Y011994D01*
X009083Y012151D02*
X005752Y012151D01*
X005752Y012138D02*
X005712Y012043D01*
X005640Y011970D01*
X005544Y011931D01*
X005441Y011931D01*
X005346Y011970D01*
X005273Y012043D01*
X005234Y012138D01*
X005234Y012242D01*
X005273Y012337D01*
X005346Y012410D01*
X005441Y012449D01*
X005544Y012449D01*
X005640Y012410D01*
X005712Y012337D01*
X005752Y012242D01*
X005752Y012138D01*
X005724Y012072D02*
X008658Y012072D01*
X008481Y011994D02*
X005663Y011994D01*
X005752Y012229D02*
X005987Y012229D01*
X005917Y012308D02*
X005725Y012308D01*
X005663Y012386D02*
X005885Y012386D01*
X005884Y012465D02*
X001403Y012465D01*
X001403Y012543D02*
X005905Y012543D01*
X005958Y012622D02*
X001403Y012622D01*
X001403Y012700D02*
X006020Y012700D01*
X005988Y012779D02*
X001403Y012779D01*
X001403Y012857D02*
X005984Y012857D01*
X006002Y012936D02*
X001403Y012936D01*
X001403Y012386D02*
X005322Y012386D01*
X005261Y012308D02*
X001403Y012308D01*
X001403Y012229D02*
X002015Y012229D01*
X001958Y012151D02*
X001403Y012151D01*
X001403Y012072D02*
X001934Y012072D01*
X002149Y011758D02*
X008319Y011758D01*
X008349Y011837D02*
X002356Y011837D01*
X002421Y011915D02*
X008399Y011915D01*
X008318Y011523D02*
X002149Y011523D01*
X002116Y011444D02*
X008349Y011444D01*
X008398Y011366D02*
X002062Y011366D01*
X001984Y011287D02*
X008480Y011287D01*
X009083Y012229D02*
X006298Y012229D01*
X006368Y012308D02*
X009083Y012308D01*
X009083Y012386D02*
X006401Y012386D01*
X006402Y012465D02*
X009083Y012465D01*
X009083Y012543D02*
X006381Y012543D01*
X006391Y012622D02*
X009083Y012622D01*
X009083Y012700D02*
X006465Y012700D01*
X006498Y012779D02*
X009083Y012779D01*
X009083Y012857D02*
X006502Y012857D01*
X006484Y012936D02*
X009083Y012936D01*
X005323Y011994D02*
X002452Y011994D01*
X002452Y012072D02*
X005261Y012072D01*
X005234Y012151D02*
X002427Y012151D01*
X002370Y012229D02*
X005234Y012229D01*
X003061Y009325D02*
X002925Y009325D01*
X002979Y009246D02*
X003006Y009246D01*
X003016Y009011D02*
X002970Y009011D01*
X002901Y008932D02*
X003084Y008932D01*
X001424Y011915D02*
X001403Y011915D01*
X001403Y011994D02*
X001502Y011994D01*
X008913Y002024D02*
X009083Y002024D01*
X009083Y001946D02*
X009031Y001946D01*
X009083Y002260D02*
X008922Y002260D01*
X009035Y002338D02*
X009083Y002338D01*
X009083Y002966D02*
X009011Y002966D01*
X009055Y003359D02*
X009083Y003359D01*
M02*
