G75*
G70*
%OFA0B0*%
%FSLAX24Y24*%
%IPPOS*%
%LPD*%
%AMOC8*
5,1,8,0,0,1.08239X$1,22.5*
%
%ADD10C,0.0740*%
%ADD11R,0.0250X0.0500*%
%ADD12R,0.0394X0.0433*%
%ADD13R,0.0079X0.0394*%
%ADD14R,0.0394X0.0079*%
%ADD15R,0.0433X0.0394*%
%ADD16R,0.0220X0.0590*%
%ADD17R,0.0118X0.0390*%
%ADD18R,0.0748X0.0433*%
%ADD19R,0.0500X0.0750*%
%ADD20R,0.1500X0.0750*%
%ADD21R,0.0236X0.0315*%
%ADD22R,0.0197X0.0315*%
%ADD23R,0.0551X0.0630*%
%ADD24C,0.0080*%
%ADD25C,0.0278*%
%ADD26C,0.0120*%
%ADD27C,0.0320*%
%ADD28C,0.0200*%
%ADD29C,0.0500*%
%ADD30C,0.0240*%
%ADD31C,0.0160*%
D10*
X001743Y001833D03*
X001743Y002833D03*
X001743Y003833D03*
X001743Y004833D03*
X001743Y005833D03*
X001743Y006833D03*
X001743Y007833D03*
X001743Y008833D03*
X001743Y009833D03*
X001743Y010833D03*
X001743Y011833D03*
X001743Y012833D03*
X008743Y012833D03*
X008743Y011833D03*
X008743Y010833D03*
X008743Y009833D03*
X008743Y008833D03*
X008743Y007833D03*
X008743Y006833D03*
X008743Y005833D03*
X008743Y004833D03*
X008743Y003833D03*
X008743Y002833D03*
X008743Y001833D03*
D11*
X004023Y004303D03*
X003363Y004303D03*
X003363Y005163D03*
X004023Y005163D03*
D12*
X003393Y005848D03*
X003393Y006518D03*
X003393Y003618D03*
X003393Y002948D03*
X003993Y002948D03*
X004543Y002948D03*
X004543Y003618D03*
X003993Y003618D03*
X005093Y003618D03*
X005643Y003618D03*
X005643Y002948D03*
X005093Y002948D03*
X007743Y007998D03*
X007743Y008668D03*
X003927Y013833D03*
X003258Y013833D03*
X002327Y013833D03*
X001658Y013833D03*
X002758Y011183D03*
X002758Y010533D03*
X003427Y010533D03*
X003427Y011183D03*
D13*
G36*
X005841Y010517D02*
X005896Y010462D01*
X005619Y010185D01*
X005564Y010240D01*
X005841Y010517D01*
G37*
G36*
X005980Y010378D02*
X006035Y010323D01*
X005758Y010046D01*
X005703Y010101D01*
X005980Y010378D01*
G37*
G36*
X006119Y010239D02*
X006174Y010184D01*
X005897Y009907D01*
X005842Y009962D01*
X006119Y010239D01*
G37*
G36*
X006259Y010100D02*
X006314Y010045D01*
X006037Y009768D01*
X005982Y009823D01*
X006259Y010100D01*
G37*
G36*
X006398Y009961D02*
X006453Y009906D01*
X006176Y009629D01*
X006121Y009684D01*
X006398Y009961D01*
G37*
G36*
X006537Y009821D02*
X006592Y009766D01*
X006315Y009489D01*
X006260Y009544D01*
X006537Y009821D01*
G37*
G36*
X006676Y009682D02*
X006731Y009627D01*
X006454Y009350D01*
X006399Y009405D01*
X006676Y009682D01*
G37*
G36*
X006815Y009543D02*
X006870Y009488D01*
X006593Y009211D01*
X006538Y009266D01*
X006815Y009543D01*
G37*
G36*
X006955Y009404D02*
X007010Y009349D01*
X006733Y009072D01*
X006678Y009127D01*
X006955Y009404D01*
G37*
G36*
X007094Y009265D02*
X007149Y009210D01*
X006872Y008933D01*
X006817Y008988D01*
X007094Y009265D01*
G37*
G36*
X007233Y009125D02*
X007288Y009070D01*
X007011Y008793D01*
X006956Y008848D01*
X007233Y009125D01*
G37*
G36*
X007372Y008986D02*
X007427Y008931D01*
X007150Y008654D01*
X007095Y008709D01*
X007372Y008986D01*
G37*
G36*
X004867Y006481D02*
X004922Y006426D01*
X004645Y006149D01*
X004590Y006204D01*
X004867Y006481D01*
G37*
G36*
X004727Y006620D02*
X004782Y006565D01*
X004505Y006288D01*
X004450Y006343D01*
X004727Y006620D01*
G37*
G36*
X004588Y006759D02*
X004643Y006704D01*
X004366Y006427D01*
X004311Y006482D01*
X004588Y006759D01*
G37*
G36*
X004449Y006898D02*
X004504Y006843D01*
X004227Y006566D01*
X004172Y006621D01*
X004449Y006898D01*
G37*
G36*
X004310Y007038D02*
X004365Y006983D01*
X004088Y006706D01*
X004033Y006761D01*
X004310Y007038D01*
G37*
G36*
X004171Y007177D02*
X004226Y007122D01*
X003949Y006845D01*
X003894Y006900D01*
X004171Y007177D01*
G37*
G36*
X004031Y007316D02*
X004086Y007261D01*
X003809Y006984D01*
X003754Y007039D01*
X004031Y007316D01*
G37*
G36*
X003892Y007455D02*
X003947Y007400D01*
X003670Y007123D01*
X003615Y007178D01*
X003892Y007455D01*
G37*
G36*
X003753Y007594D02*
X003808Y007539D01*
X003531Y007262D01*
X003476Y007317D01*
X003753Y007594D01*
G37*
G36*
X003614Y007734D02*
X003669Y007679D01*
X003392Y007402D01*
X003337Y007457D01*
X003614Y007734D01*
G37*
G36*
X003475Y007873D02*
X003530Y007818D01*
X003253Y007541D01*
X003198Y007596D01*
X003475Y007873D01*
G37*
G36*
X003335Y008012D02*
X003390Y007957D01*
X003113Y007680D01*
X003058Y007735D01*
X003335Y008012D01*
G37*
D14*
G36*
X003113Y008986D02*
X003390Y008709D01*
X003335Y008654D01*
X003058Y008931D01*
X003113Y008986D01*
G37*
G36*
X003253Y009125D02*
X003530Y008848D01*
X003475Y008793D01*
X003198Y009070D01*
X003253Y009125D01*
G37*
G36*
X003392Y009265D02*
X003669Y008988D01*
X003614Y008933D01*
X003337Y009210D01*
X003392Y009265D01*
G37*
G36*
X003531Y009404D02*
X003808Y009127D01*
X003753Y009072D01*
X003476Y009349D01*
X003531Y009404D01*
G37*
G36*
X003670Y009543D02*
X003947Y009266D01*
X003892Y009211D01*
X003615Y009488D01*
X003670Y009543D01*
G37*
G36*
X003809Y009682D02*
X004086Y009405D01*
X004031Y009350D01*
X003754Y009627D01*
X003809Y009682D01*
G37*
G36*
X003949Y009821D02*
X004226Y009544D01*
X004171Y009489D01*
X003894Y009766D01*
X003949Y009821D01*
G37*
G36*
X004088Y009961D02*
X004365Y009684D01*
X004310Y009629D01*
X004033Y009906D01*
X004088Y009961D01*
G37*
G36*
X004227Y010100D02*
X004504Y009823D01*
X004449Y009768D01*
X004172Y010045D01*
X004227Y010100D01*
G37*
G36*
X004366Y010239D02*
X004643Y009962D01*
X004588Y009907D01*
X004311Y010184D01*
X004366Y010239D01*
G37*
G36*
X004505Y010378D02*
X004782Y010101D01*
X004727Y010046D01*
X004450Y010323D01*
X004505Y010378D01*
G37*
G36*
X004645Y010517D02*
X004922Y010240D01*
X004867Y010185D01*
X004590Y010462D01*
X004645Y010517D01*
G37*
G36*
X006872Y007734D02*
X007149Y007457D01*
X007094Y007402D01*
X006817Y007679D01*
X006872Y007734D01*
G37*
G36*
X007011Y007873D02*
X007288Y007596D01*
X007233Y007541D01*
X006956Y007818D01*
X007011Y007873D01*
G37*
G36*
X007150Y008012D02*
X007427Y007735D01*
X007372Y007680D01*
X007095Y007957D01*
X007150Y008012D01*
G37*
G36*
X006733Y007594D02*
X007010Y007317D01*
X006955Y007262D01*
X006678Y007539D01*
X006733Y007594D01*
G37*
G36*
X006593Y007455D02*
X006870Y007178D01*
X006815Y007123D01*
X006538Y007400D01*
X006593Y007455D01*
G37*
G36*
X006454Y007316D02*
X006731Y007039D01*
X006676Y006984D01*
X006399Y007261D01*
X006454Y007316D01*
G37*
G36*
X006315Y007177D02*
X006592Y006900D01*
X006537Y006845D01*
X006260Y007122D01*
X006315Y007177D01*
G37*
G36*
X006176Y007038D02*
X006453Y006761D01*
X006398Y006706D01*
X006121Y006983D01*
X006176Y007038D01*
G37*
G36*
X006037Y006898D02*
X006314Y006621D01*
X006259Y006566D01*
X005982Y006843D01*
X006037Y006898D01*
G37*
G36*
X005897Y006759D02*
X006174Y006482D01*
X006119Y006427D01*
X005842Y006704D01*
X005897Y006759D01*
G37*
G36*
X005758Y006620D02*
X006035Y006343D01*
X005980Y006288D01*
X005703Y006565D01*
X005758Y006620D01*
G37*
G36*
X005619Y006481D02*
X005896Y006204D01*
X005841Y006149D01*
X005564Y006426D01*
X005619Y006481D01*
G37*
D15*
X005577Y005833D03*
X004908Y005833D03*
X005643Y004918D03*
X005643Y004248D03*
X005577Y010783D03*
X004908Y010783D03*
X003427Y011883D03*
X002758Y011883D03*
X007058Y011883D03*
X007727Y011883D03*
X007827Y013033D03*
X007158Y013033D03*
D16*
X007293Y005623D03*
X007793Y005623D03*
X006793Y005623D03*
X006293Y005623D03*
X006293Y002743D03*
X006793Y002743D03*
X007293Y002743D03*
X007793Y002743D03*
D17*
X003349Y012568D03*
X003093Y012568D03*
X002837Y012568D03*
X002837Y013202D03*
X003093Y013202D03*
X003349Y013202D03*
D18*
X004793Y005225D03*
X004793Y004241D03*
D19*
X005243Y011513D03*
X006153Y011513D03*
X004333Y011513D03*
D20*
X005243Y013953D03*
D21*
X006841Y010978D03*
X006841Y010388D03*
X007845Y010388D03*
X007845Y010978D03*
D22*
X007500Y010978D03*
X007185Y010978D03*
X007185Y010388D03*
X007500Y010388D03*
D23*
X008044Y013783D03*
X006942Y013783D03*
D24*
X008003Y011473D02*
X007843Y011313D01*
X007843Y010980D01*
X007845Y010978D01*
X007500Y010978D02*
X007500Y011336D01*
X007453Y011383D01*
X007185Y011291D02*
X007185Y010978D01*
X007185Y011291D02*
X007093Y011383D01*
X006841Y010978D02*
X006588Y010978D01*
X006493Y010883D01*
X006073Y010713D02*
X006003Y010783D01*
X005577Y010783D01*
X005577Y010448D01*
X005253Y010123D01*
X004984Y010123D01*
X004756Y010351D01*
X004616Y010212D02*
X004453Y010376D01*
X004453Y010643D01*
X004173Y010643D01*
X003903Y010913D01*
X003973Y010593D02*
X003487Y010593D01*
X003427Y010533D01*
X003427Y011183D01*
X003973Y010593D02*
X004103Y010463D01*
X004103Y010169D01*
X004338Y009934D01*
X004477Y010073D02*
X005233Y009317D01*
X005233Y008603D01*
X005563Y008413D02*
X005563Y009263D01*
X005453Y009373D01*
X005453Y010074D01*
X005730Y010351D01*
X005869Y010212D02*
X005623Y009966D01*
X005623Y009443D01*
X005823Y009243D01*
X005823Y008253D01*
X005723Y008153D01*
X005153Y008153D01*
X004623Y008683D01*
X004623Y008713D01*
X004583Y008343D02*
X004557Y008343D01*
X003642Y007428D01*
X003393Y007179D01*
X003393Y006518D01*
X003713Y006783D02*
X003593Y006903D01*
X003593Y007101D01*
X003781Y007289D01*
X004425Y007933D01*
X004643Y007933D01*
X004364Y007593D02*
X006113Y007593D01*
X006633Y008113D01*
X006633Y008323D01*
X006353Y008333D02*
X005893Y007873D01*
X005313Y007873D01*
X005193Y007433D02*
X004853Y007093D01*
X005243Y006923D02*
X005243Y006623D01*
X005243Y006168D01*
X004908Y005833D01*
X004913Y005833D01*
X004523Y005563D02*
X004523Y005333D01*
X004553Y005303D01*
X004715Y005303D01*
X004793Y005225D01*
X004885Y005133D01*
X005053Y005133D01*
X005293Y004893D01*
X005293Y003873D01*
X005223Y003803D01*
X005223Y003748D01*
X005093Y003618D01*
X004793Y004241D02*
X004295Y004241D01*
X004293Y004243D01*
X004293Y003868D01*
X004543Y003618D01*
X003993Y003618D02*
X003773Y003838D01*
X003773Y004793D01*
X004023Y005043D01*
X004023Y005163D01*
X004033Y005173D01*
X004033Y006705D01*
X004199Y006872D01*
X004060Y007011D02*
X003873Y006824D01*
X003873Y005673D01*
X003623Y005423D01*
X003623Y004873D01*
X003363Y004613D01*
X003363Y004303D01*
X003363Y003648D01*
X003393Y003618D01*
X003043Y003993D02*
X002243Y003193D01*
X002243Y002613D01*
X001743Y002113D01*
X001743Y001833D01*
X001743Y002833D02*
X001743Y003103D01*
X002843Y004203D01*
X002843Y007186D01*
X003364Y007707D01*
X003503Y007568D02*
X003043Y007107D01*
X003043Y003993D01*
X002643Y004983D02*
X001743Y004083D01*
X001743Y003833D01*
X001743Y004833D02*
X001743Y005103D01*
X002443Y005803D01*
X002443Y007283D01*
X002743Y007583D01*
X002743Y007873D01*
X002943Y008073D01*
X002943Y008983D01*
X003193Y009233D01*
X003368Y009233D01*
X003503Y009099D01*
X003638Y009238D02*
X003642Y009238D01*
X003447Y009433D01*
X003143Y009433D01*
X002773Y009063D01*
X002773Y008153D01*
X002543Y007923D01*
X002543Y007633D01*
X002243Y007333D01*
X002243Y006333D01*
X001743Y005833D01*
X001743Y006833D02*
X001743Y007103D01*
X002243Y007603D01*
X002243Y008373D01*
X002403Y008533D01*
X002403Y008943D01*
X003093Y009633D01*
X003525Y009633D01*
X003781Y009377D01*
X003920Y009516D02*
X003614Y009823D01*
X003033Y009823D01*
X002243Y009033D01*
X002243Y008603D01*
X001743Y008103D01*
X001743Y007833D01*
X001773Y008833D02*
X001743Y008833D01*
X001773Y008833D02*
X002943Y010003D01*
X003712Y010003D01*
X004060Y009655D01*
X004199Y009795D02*
X003841Y010152D01*
X003841Y010331D01*
X004453Y010643D02*
X004768Y010643D01*
X004908Y010783D01*
X005793Y009857D02*
X005793Y009513D01*
X006083Y009223D01*
X006083Y008563D01*
X006353Y008333D02*
X006353Y009223D01*
X005963Y009613D01*
X005963Y009749D01*
X006148Y009934D01*
X006287Y009795D02*
X006595Y010103D01*
X006773Y010103D01*
X006843Y010173D01*
X006843Y010386D01*
X006841Y010388D01*
X007183Y010385D02*
X007183Y010173D01*
X006953Y009943D01*
X006714Y009943D01*
X006426Y009655D01*
X006565Y009516D02*
X006832Y009783D01*
X007113Y009783D01*
X007503Y010173D01*
X007503Y010385D01*
X007500Y010388D01*
X007185Y010388D02*
X007183Y010385D01*
X007703Y010023D02*
X007303Y009623D01*
X006950Y009623D01*
X006704Y009377D01*
X006844Y009238D02*
X007069Y009463D01*
X007873Y009463D01*
X007973Y009563D01*
X008243Y009333D02*
X008273Y009303D01*
X008743Y008833D01*
X008243Y009003D02*
X008243Y008333D01*
X008243Y008113D01*
X008128Y007998D01*
X007743Y007998D01*
X007261Y007846D02*
X007774Y007333D01*
X008243Y007333D01*
X008743Y007833D01*
X008743Y006833D02*
X007996Y006833D01*
X007122Y007707D01*
X006983Y007568D02*
X008717Y005833D01*
X008743Y005833D01*
X008243Y005633D02*
X008743Y005133D01*
X008743Y004833D01*
X008243Y004633D02*
X008743Y004133D01*
X008743Y003833D01*
X008743Y003093D02*
X008743Y002833D01*
X008743Y003093D02*
X007543Y004293D01*
X007543Y006172D01*
X006565Y007150D01*
X006426Y007011D02*
X007053Y006384D01*
X007053Y004993D01*
X006793Y004733D01*
X006793Y004483D01*
X008243Y003033D01*
X008243Y002603D01*
X008743Y002103D01*
X008743Y001833D01*
X008243Y004633D02*
X008243Y005333D01*
X008043Y005533D01*
X008043Y005951D01*
X006704Y007289D01*
X006844Y007428D02*
X008239Y006033D01*
X008243Y006033D01*
X008243Y005633D01*
X006783Y006273D02*
X006783Y006375D01*
X006287Y006872D01*
X006148Y006732D02*
X005993Y006887D01*
X005993Y007033D01*
X006043Y007083D01*
X006043Y007283D01*
X005893Y007433D01*
X005193Y007433D01*
X005453Y007133D02*
X005243Y006923D01*
X005453Y007133D02*
X005743Y007133D01*
X006008Y006593D02*
X006293Y006309D01*
X006293Y005623D01*
X006063Y006013D02*
X005883Y005833D01*
X005577Y005833D01*
X005730Y006315D02*
X005730Y006316D01*
X005423Y006623D01*
X005243Y006623D01*
X005064Y006623D01*
X004756Y006315D01*
X004477Y006593D02*
X004343Y006459D01*
X004343Y005743D01*
X004523Y005563D01*
X004293Y005573D02*
X004193Y005673D01*
X004193Y006587D01*
X004338Y006732D01*
X003920Y007150D02*
X004364Y007593D01*
X003793Y008023D02*
X004133Y008363D01*
X003863Y008333D02*
X003863Y008553D01*
X003713Y008703D01*
X003620Y008703D01*
X003364Y008959D01*
X003224Y008820D02*
X003602Y008443D01*
X003713Y008183D02*
X003863Y008333D01*
X003713Y008183D02*
X003303Y008183D01*
X002943Y007823D01*
X002943Y007533D01*
X002643Y007233D01*
X002643Y004983D01*
X003393Y005848D02*
X003638Y005848D01*
X003713Y005923D01*
X003713Y006783D01*
X003224Y007846D02*
X003402Y008023D01*
X003793Y008023D01*
X004293Y005573D02*
X004293Y004243D01*
X004791Y004243D02*
X004793Y004241D01*
X004023Y005163D02*
X004013Y005173D01*
X005869Y006454D02*
X006063Y006260D01*
X006063Y006013D01*
X007043Y008333D02*
X007043Y008602D01*
X007261Y008820D01*
X007414Y008668D01*
X007743Y008668D01*
X008113Y009133D02*
X007296Y009133D01*
X007122Y008959D01*
X007122Y008962D01*
X006983Y009099D02*
X007187Y009303D01*
X008273Y009303D01*
X008243Y009333D02*
X008243Y010143D01*
X007998Y010388D01*
X007845Y010388D01*
X008003Y011473D02*
X008203Y011473D01*
X008113Y009133D02*
X008243Y009003D01*
X006008Y010073D02*
X005793Y009857D01*
D25*
X006443Y010323D03*
X006073Y010713D03*
X006493Y010883D03*
X007093Y011383D03*
X007453Y011383D03*
X008203Y011473D03*
X008293Y012333D03*
X008253Y013263D03*
X006693Y012683D03*
X006393Y013183D03*
X005843Y014033D03*
X005543Y014033D03*
X005243Y014033D03*
X004943Y014033D03*
X004643Y014033D03*
X003893Y012713D03*
X002793Y013833D03*
X002393Y013333D03*
X001943Y013433D03*
X002343Y012783D03*
X002383Y010813D03*
X002343Y010393D03*
X002553Y010093D03*
X003841Y010331D03*
X003903Y010913D03*
X004423Y010923D03*
X004623Y008713D03*
X004583Y008343D03*
X004643Y007933D03*
X004133Y008363D03*
X003602Y008443D03*
X002493Y008253D03*
X004853Y007093D03*
X005313Y007873D03*
X005563Y008413D03*
X005233Y008603D03*
X006083Y008563D03*
X006643Y008713D03*
X006633Y008323D03*
X007043Y008333D03*
X007973Y009563D03*
X007703Y010023D03*
X008243Y008333D03*
X006783Y006273D03*
X005943Y005503D03*
X006793Y005103D03*
X007063Y004603D03*
X006823Y004083D03*
X006453Y004033D03*
X006073Y003953D03*
X005743Y001833D03*
X004793Y001833D03*
X003843Y001833D03*
X002643Y001833D03*
X002643Y002943D03*
X005743Y007133D03*
X008073Y004193D03*
D26*
X007793Y003113D02*
X006823Y004083D01*
X006453Y004033D02*
X007293Y003193D01*
X007293Y002743D01*
X007793Y002743D02*
X007793Y003113D01*
X006793Y005103D02*
X006793Y005623D01*
X006293Y005623D02*
X006293Y005113D01*
X006097Y004918D01*
X005643Y004918D01*
X002293Y009833D02*
X001743Y009833D01*
X002293Y009833D02*
X002553Y010093D01*
X002343Y010393D02*
X001903Y010833D01*
X001743Y010833D01*
X002383Y010813D02*
X002478Y010813D01*
X002758Y010533D01*
X002758Y011183D02*
X002493Y011183D01*
X002393Y011283D01*
X002393Y012133D01*
X002483Y012223D01*
X003023Y012223D01*
X003093Y012293D01*
X003093Y012568D01*
X003349Y012568D02*
X003748Y012568D01*
X003893Y012713D01*
X003349Y013202D02*
X003093Y013202D01*
X003093Y013383D01*
X002943Y013533D01*
X002627Y013533D01*
X002327Y013833D01*
X002327Y014118D01*
X002393Y014183D01*
X003893Y014183D01*
X003943Y014133D01*
X003943Y013848D01*
X003927Y013833D01*
X002837Y013202D02*
X002524Y013202D01*
X002393Y013333D01*
X001943Y013433D02*
X001743Y013433D01*
X001658Y013518D01*
X001658Y013833D01*
X001643Y013833D01*
X002343Y012783D02*
X002558Y012568D01*
X002837Y012568D01*
X002758Y011883D02*
X003098Y011543D01*
X003743Y011543D01*
X003903Y011383D01*
X003903Y010913D01*
X005243Y013953D02*
X005243Y013983D01*
D27*
X005243Y013953D02*
X005413Y013783D01*
X006942Y013783D01*
X006693Y012683D02*
X006643Y012633D01*
X006643Y011883D01*
X007058Y011883D01*
X006643Y011883D02*
X006443Y011883D01*
X006153Y011593D01*
X006153Y011513D01*
X007727Y011883D02*
X007727Y012198D01*
X007863Y012333D01*
X008293Y012333D01*
X007827Y013033D02*
X008057Y013263D01*
X008057Y013770D01*
X008044Y013783D01*
X008057Y013263D02*
X008253Y013263D01*
X005363Y013833D02*
X005243Y013953D01*
X005243Y014033D01*
X004043Y011883D02*
X003427Y011883D01*
X004043Y011883D02*
X004333Y011593D01*
X004333Y011513D01*
X004333Y011013D01*
X004423Y010923D01*
D28*
X005577Y005833D02*
X005577Y005578D01*
X005653Y005503D01*
X005943Y005503D01*
X005643Y004248D02*
X005643Y003618D01*
X005647Y003613D01*
X006073Y003613D01*
X006073Y003953D01*
X006073Y003613D02*
X006293Y003393D01*
X006293Y002743D01*
X006793Y002743D01*
X005643Y002948D02*
X005093Y002948D01*
X004543Y002948D01*
X003993Y002948D01*
X003393Y002948D01*
X002648Y002948D01*
X002643Y002943D01*
X007063Y004603D02*
X007293Y004833D01*
X007293Y005623D01*
X007793Y005623D02*
X007793Y004473D01*
X008073Y004193D01*
D29*
X005243Y011513D02*
X005243Y013953D01*
D30*
X003258Y013833D02*
X002793Y013833D01*
D31*
X007158Y013033D02*
X007528Y012663D01*
X008573Y012663D01*
X008743Y012833D01*
M02*
