G75*
G70*
%OFA0B0*%
%FSLAX24Y24*%
%IPPOS*%
%LPD*%
%AMOC8*
5,1,8,0,0,1.08239X$1,22.5*
%
%ADD10R,0.0710X0.0631*%
%ADD11R,0.0552X0.0297*%
%ADD12C,0.0820*%
%ADD13R,0.0513X0.0828*%
%ADD14R,0.0513X0.0474*%
%ADD15R,0.0474X0.0789*%
%ADD16R,0.0328X0.0407*%
%ADD17R,0.0159X0.0474*%
%ADD18R,0.0474X0.0159*%
%ADD19R,0.0474X0.0513*%
%ADD20R,0.0300X0.0670*%
%ADD21R,0.0470X0.0198*%
%ADD22R,0.0631X0.0710*%
D10*
X003743Y010099D03*
X003743Y011201D03*
X006743Y011201D03*
X006743Y010099D03*
D11*
X005755Y010276D03*
X005755Y011024D03*
X004731Y011024D03*
X004731Y010650D03*
X004731Y010276D03*
D12*
X001743Y000650D03*
X001743Y001650D03*
X001743Y002650D03*
X001743Y003650D03*
X001743Y004650D03*
X001743Y005650D03*
X001743Y006650D03*
X001743Y007650D03*
X001743Y008650D03*
X001743Y009650D03*
X001743Y010650D03*
X001743Y011650D03*
X008743Y011650D03*
X008743Y010650D03*
X008743Y009650D03*
X008743Y008650D03*
X008743Y007650D03*
X008743Y006650D03*
X008743Y005650D03*
X008743Y004650D03*
X008743Y003650D03*
X008743Y002650D03*
X008743Y001650D03*
X008743Y000650D03*
D13*
X004296Y002372D03*
X003390Y002372D03*
X003390Y003828D03*
X004296Y003828D03*
D14*
X004177Y004500D03*
X003508Y004500D03*
X005043Y003485D03*
X005043Y002815D03*
X004177Y001700D03*
X003508Y001700D03*
X007408Y007150D03*
X008077Y007150D03*
X005577Y009600D03*
X004908Y009600D03*
X002943Y009815D03*
X002943Y010485D03*
D15*
X004792Y011900D03*
X005894Y011900D03*
D16*
X005696Y012700D03*
X004790Y012700D03*
D17*
G36*
X005841Y009391D02*
X005953Y009279D01*
X005619Y008945D01*
X005507Y009057D01*
X005841Y009391D01*
G37*
G36*
X005980Y009252D02*
X006092Y009140D01*
X005758Y008806D01*
X005646Y008918D01*
X005980Y009252D01*
G37*
G36*
X006119Y009113D02*
X006231Y009001D01*
X005897Y008667D01*
X005785Y008779D01*
X006119Y009113D01*
G37*
G36*
X006259Y008974D02*
X006371Y008862D01*
X006037Y008528D01*
X005925Y008640D01*
X006259Y008974D01*
G37*
G36*
X006398Y008835D02*
X006510Y008723D01*
X006176Y008389D01*
X006064Y008501D01*
X006398Y008835D01*
G37*
G36*
X006537Y008695D02*
X006649Y008583D01*
X006315Y008249D01*
X006203Y008361D01*
X006537Y008695D01*
G37*
G36*
X006676Y008556D02*
X006788Y008444D01*
X006454Y008110D01*
X006342Y008222D01*
X006676Y008556D01*
G37*
G36*
X006815Y008417D02*
X006927Y008305D01*
X006593Y007971D01*
X006481Y008083D01*
X006815Y008417D01*
G37*
G36*
X006955Y008278D02*
X007067Y008166D01*
X006733Y007832D01*
X006621Y007944D01*
X006955Y008278D01*
G37*
G36*
X007094Y008139D02*
X007206Y008027D01*
X006872Y007693D01*
X006760Y007805D01*
X007094Y008139D01*
G37*
G36*
X007233Y007999D02*
X007345Y007887D01*
X007011Y007553D01*
X006899Y007665D01*
X007233Y007999D01*
G37*
G36*
X007372Y007860D02*
X007484Y007748D01*
X007150Y007414D01*
X007038Y007526D01*
X007372Y007860D01*
G37*
G36*
X004867Y005355D02*
X004979Y005243D01*
X004645Y004909D01*
X004533Y005021D01*
X004867Y005355D01*
G37*
G36*
X004727Y005494D02*
X004839Y005382D01*
X004505Y005048D01*
X004393Y005160D01*
X004727Y005494D01*
G37*
G36*
X004588Y005633D02*
X004700Y005521D01*
X004366Y005187D01*
X004254Y005299D01*
X004588Y005633D01*
G37*
G36*
X004449Y005772D02*
X004561Y005660D01*
X004227Y005326D01*
X004115Y005438D01*
X004449Y005772D01*
G37*
G36*
X004310Y005911D02*
X004422Y005799D01*
X004088Y005465D01*
X003976Y005577D01*
X004310Y005911D01*
G37*
G36*
X004171Y006051D02*
X004283Y005939D01*
X003949Y005605D01*
X003837Y005717D01*
X004171Y006051D01*
G37*
G36*
X004031Y006190D02*
X004143Y006078D01*
X003809Y005744D01*
X003697Y005856D01*
X004031Y006190D01*
G37*
G36*
X003892Y006329D02*
X004004Y006217D01*
X003670Y005883D01*
X003558Y005995D01*
X003892Y006329D01*
G37*
G36*
X003753Y006468D02*
X003865Y006356D01*
X003531Y006022D01*
X003419Y006134D01*
X003753Y006468D01*
G37*
G36*
X003614Y006607D02*
X003726Y006495D01*
X003392Y006161D01*
X003280Y006273D01*
X003614Y006607D01*
G37*
G36*
X003475Y006747D02*
X003587Y006635D01*
X003253Y006301D01*
X003141Y006413D01*
X003475Y006747D01*
G37*
G36*
X003335Y006886D02*
X003447Y006774D01*
X003113Y006440D01*
X003001Y006552D01*
X003335Y006886D01*
G37*
D18*
G36*
X003113Y007860D02*
X003447Y007526D01*
X003335Y007414D01*
X003001Y007748D01*
X003113Y007860D01*
G37*
G36*
X003253Y007999D02*
X003587Y007665D01*
X003475Y007553D01*
X003141Y007887D01*
X003253Y007999D01*
G37*
G36*
X003392Y008139D02*
X003726Y007805D01*
X003614Y007693D01*
X003280Y008027D01*
X003392Y008139D01*
G37*
G36*
X003531Y008278D02*
X003865Y007944D01*
X003753Y007832D01*
X003419Y008166D01*
X003531Y008278D01*
G37*
G36*
X003670Y008417D02*
X004004Y008083D01*
X003892Y007971D01*
X003558Y008305D01*
X003670Y008417D01*
G37*
G36*
X003809Y008556D02*
X004143Y008222D01*
X004031Y008110D01*
X003697Y008444D01*
X003809Y008556D01*
G37*
G36*
X003949Y008695D02*
X004283Y008361D01*
X004171Y008249D01*
X003837Y008583D01*
X003949Y008695D01*
G37*
G36*
X004088Y008835D02*
X004422Y008501D01*
X004310Y008389D01*
X003976Y008723D01*
X004088Y008835D01*
G37*
G36*
X004227Y008974D02*
X004561Y008640D01*
X004449Y008528D01*
X004115Y008862D01*
X004227Y008974D01*
G37*
G36*
X004366Y009113D02*
X004700Y008779D01*
X004588Y008667D01*
X004254Y009001D01*
X004366Y009113D01*
G37*
G36*
X004505Y009252D02*
X004839Y008918D01*
X004727Y008806D01*
X004393Y009140D01*
X004505Y009252D01*
G37*
G36*
X004645Y009391D02*
X004979Y009057D01*
X004867Y008945D01*
X004533Y009279D01*
X004645Y009391D01*
G37*
G36*
X006733Y006468D02*
X007067Y006134D01*
X006955Y006022D01*
X006621Y006356D01*
X006733Y006468D01*
G37*
G36*
X006872Y006607D02*
X007206Y006273D01*
X007094Y006161D01*
X006760Y006495D01*
X006872Y006607D01*
G37*
G36*
X007011Y006747D02*
X007345Y006413D01*
X007233Y006301D01*
X006899Y006635D01*
X007011Y006747D01*
G37*
G36*
X007150Y006886D02*
X007484Y006552D01*
X007372Y006440D01*
X007038Y006774D01*
X007150Y006886D01*
G37*
G36*
X006593Y006329D02*
X006927Y005995D01*
X006815Y005883D01*
X006481Y006217D01*
X006593Y006329D01*
G37*
G36*
X006454Y006190D02*
X006788Y005856D01*
X006676Y005744D01*
X006342Y006078D01*
X006454Y006190D01*
G37*
G36*
X006315Y006051D02*
X006649Y005717D01*
X006537Y005605D01*
X006203Y005939D01*
X006315Y006051D01*
G37*
G36*
X006176Y005911D02*
X006510Y005577D01*
X006398Y005465D01*
X006064Y005799D01*
X006176Y005911D01*
G37*
G36*
X006037Y005772D02*
X006371Y005438D01*
X006259Y005326D01*
X005925Y005660D01*
X006037Y005772D01*
G37*
G36*
X005897Y005633D02*
X006231Y005299D01*
X006119Y005187D01*
X005785Y005521D01*
X005897Y005633D01*
G37*
G36*
X005758Y005494D02*
X006092Y005160D01*
X005980Y005048D01*
X005646Y005382D01*
X005758Y005494D01*
G37*
G36*
X005619Y005355D02*
X005953Y005021D01*
X005841Y004909D01*
X005507Y005243D01*
X005619Y005355D01*
G37*
D19*
X005243Y004985D03*
X005243Y004315D03*
X005043Y002335D03*
X005043Y001665D03*
X003393Y005015D03*
X003393Y005685D03*
X003558Y012150D03*
X003558Y012650D03*
X004227Y012650D03*
X004227Y012150D03*
X007843Y011135D03*
X007843Y010465D03*
D20*
X007193Y004190D03*
X006693Y004190D03*
X006193Y004190D03*
X005693Y004190D03*
X005693Y001310D03*
X006193Y001310D03*
X006693Y001310D03*
X007193Y001310D03*
D21*
X003012Y012144D03*
X003012Y012400D03*
X003012Y012656D03*
X002378Y012656D03*
X002378Y012400D03*
X002378Y012144D03*
D22*
X006892Y012550D03*
X007994Y012550D03*
M02*
