G75*
G70*
%OFA0B0*%
%FSLAX24Y24*%
%IPPOS*%
%LPD*%
%AMOC8*
5,1,8,0,0,1.08239X$1,22.5*
%
%ADD10R,0.0433X0.0748*%
%ADD11R,0.0394X0.0433*%
%ADD12R,0.0079X0.0394*%
%ADD13R,0.0394X0.0079*%
%ADD14R,0.0433X0.0394*%
%ADD15R,0.0220X0.0590*%
%ADD16R,0.0118X0.0390*%
%ADD17R,0.0748X0.0433*%
%ADD18R,0.0500X0.0750*%
%ADD19R,0.1500X0.0750*%
%ADD20R,0.0236X0.0315*%
%ADD21R,0.0197X0.0315*%
%ADD22R,0.0551X0.0630*%
D10*
X006284Y003762D03*
X007189Y003762D03*
X007189Y005218D03*
X006284Y005218D03*
D11*
X006987Y006005D03*
X006987Y006675D03*
X006802Y010340D03*
X006802Y010990D03*
X007471Y010990D03*
X007471Y010340D03*
X007371Y013690D03*
X008002Y013690D03*
X008671Y013690D03*
X006702Y013690D03*
X002437Y008475D03*
X002437Y007805D03*
X004587Y002975D03*
X004587Y002305D03*
X005237Y002305D03*
X005237Y002975D03*
X005887Y002975D03*
X005887Y002305D03*
X006537Y002305D03*
X006537Y002975D03*
X007187Y002975D03*
X007187Y002305D03*
D12*
G36*
X005640Y006011D02*
X005585Y005956D01*
X005308Y006233D01*
X005363Y006288D01*
X005640Y006011D01*
G37*
G36*
X005779Y006150D02*
X005724Y006095D01*
X005447Y006372D01*
X005502Y006427D01*
X005779Y006150D01*
G37*
G36*
X005918Y006289D02*
X005863Y006234D01*
X005586Y006511D01*
X005641Y006566D01*
X005918Y006289D01*
G37*
G36*
X006057Y006428D02*
X006002Y006373D01*
X005725Y006650D01*
X005780Y006705D01*
X006057Y006428D01*
G37*
G36*
X006197Y006567D02*
X006142Y006512D01*
X005865Y006789D01*
X005920Y006844D01*
X006197Y006567D01*
G37*
G36*
X006336Y006707D02*
X006281Y006652D01*
X006004Y006929D01*
X006059Y006984D01*
X006336Y006707D01*
G37*
G36*
X006475Y006846D02*
X006420Y006791D01*
X006143Y007068D01*
X006198Y007123D01*
X006475Y006846D01*
G37*
G36*
X006614Y006985D02*
X006559Y006930D01*
X006282Y007207D01*
X006337Y007262D01*
X006614Y006985D01*
G37*
G36*
X006753Y007124D02*
X006698Y007069D01*
X006421Y007346D01*
X006476Y007401D01*
X006753Y007124D01*
G37*
G36*
X006893Y007263D02*
X006838Y007208D01*
X006561Y007485D01*
X006616Y007540D01*
X006893Y007263D01*
G37*
G36*
X007032Y007403D02*
X006977Y007348D01*
X006700Y007625D01*
X006755Y007680D01*
X007032Y007403D01*
G37*
G36*
X007171Y007542D02*
X007116Y007487D01*
X006839Y007764D01*
X006894Y007819D01*
X007171Y007542D01*
G37*
G36*
X004665Y010047D02*
X004610Y009992D01*
X004333Y010269D01*
X004388Y010324D01*
X004665Y010047D01*
G37*
G36*
X004526Y009908D02*
X004471Y009853D01*
X004194Y010130D01*
X004249Y010185D01*
X004526Y009908D01*
G37*
G36*
X004387Y009769D02*
X004332Y009714D01*
X004055Y009991D01*
X004110Y010046D01*
X004387Y009769D01*
G37*
G36*
X004248Y009630D02*
X004193Y009575D01*
X003916Y009852D01*
X003971Y009907D01*
X004248Y009630D01*
G37*
G36*
X004109Y009491D02*
X004054Y009436D01*
X003777Y009713D01*
X003832Y009768D01*
X004109Y009491D01*
G37*
G36*
X003970Y009351D02*
X003915Y009296D01*
X003638Y009573D01*
X003693Y009628D01*
X003970Y009351D01*
G37*
G36*
X003830Y009212D02*
X003775Y009157D01*
X003498Y009434D01*
X003553Y009489D01*
X003830Y009212D01*
G37*
G36*
X003691Y009073D02*
X003636Y009018D01*
X003359Y009295D01*
X003414Y009350D01*
X003691Y009073D01*
G37*
G36*
X003552Y008934D02*
X003497Y008879D01*
X003220Y009156D01*
X003275Y009211D01*
X003552Y008934D01*
G37*
G36*
X003413Y008795D02*
X003358Y008740D01*
X003081Y009017D01*
X003136Y009072D01*
X003413Y008795D01*
G37*
G36*
X003274Y008655D02*
X003219Y008600D01*
X002942Y008877D01*
X002997Y008932D01*
X003274Y008655D01*
G37*
G36*
X003134Y008516D02*
X003079Y008461D01*
X002802Y008738D01*
X002857Y008793D01*
X003134Y008516D01*
G37*
D13*
G36*
X003134Y007764D02*
X002857Y007487D01*
X002802Y007542D01*
X003079Y007819D01*
X003134Y007764D01*
G37*
G36*
X003274Y007625D02*
X002997Y007348D01*
X002942Y007403D01*
X003219Y007680D01*
X003274Y007625D01*
G37*
G36*
X003413Y007485D02*
X003136Y007208D01*
X003081Y007263D01*
X003358Y007540D01*
X003413Y007485D01*
G37*
G36*
X003552Y007346D02*
X003275Y007069D01*
X003220Y007124D01*
X003497Y007401D01*
X003552Y007346D01*
G37*
G36*
X003691Y007207D02*
X003414Y006930D01*
X003359Y006985D01*
X003636Y007262D01*
X003691Y007207D01*
G37*
G36*
X003830Y007068D02*
X003553Y006791D01*
X003498Y006846D01*
X003775Y007123D01*
X003830Y007068D01*
G37*
G36*
X003970Y006929D02*
X003693Y006652D01*
X003638Y006707D01*
X003915Y006984D01*
X003970Y006929D01*
G37*
G36*
X004109Y006789D02*
X003832Y006512D01*
X003777Y006567D01*
X004054Y006844D01*
X004109Y006789D01*
G37*
G36*
X004248Y006650D02*
X003971Y006373D01*
X003916Y006428D01*
X004193Y006705D01*
X004248Y006650D01*
G37*
G36*
X004387Y006511D02*
X004110Y006234D01*
X004055Y006289D01*
X004332Y006566D01*
X004387Y006511D01*
G37*
G36*
X004526Y006372D02*
X004249Y006095D01*
X004194Y006150D01*
X004471Y006427D01*
X004526Y006372D01*
G37*
G36*
X004665Y006233D02*
X004388Y005956D01*
X004333Y006011D01*
X004610Y006288D01*
X004665Y006233D01*
G37*
G36*
X006753Y009156D02*
X006476Y008879D01*
X006421Y008934D01*
X006698Y009211D01*
X006753Y009156D01*
G37*
G36*
X006893Y009017D02*
X006616Y008740D01*
X006561Y008795D01*
X006838Y009072D01*
X006893Y009017D01*
G37*
G36*
X007032Y008877D02*
X006755Y008600D01*
X006700Y008655D01*
X006977Y008932D01*
X007032Y008877D01*
G37*
G36*
X007171Y008738D02*
X006894Y008461D01*
X006839Y008516D01*
X007116Y008793D01*
X007171Y008738D01*
G37*
G36*
X006614Y009295D02*
X006337Y009018D01*
X006282Y009073D01*
X006559Y009350D01*
X006614Y009295D01*
G37*
G36*
X006475Y009434D02*
X006198Y009157D01*
X006143Y009212D01*
X006420Y009489D01*
X006475Y009434D01*
G37*
G36*
X006336Y009573D02*
X006059Y009296D01*
X006004Y009351D01*
X006281Y009628D01*
X006336Y009573D01*
G37*
G36*
X006197Y009713D02*
X005920Y009436D01*
X005865Y009491D01*
X006142Y009768D01*
X006197Y009713D01*
G37*
G36*
X006057Y009852D02*
X005780Y009575D01*
X005725Y009630D01*
X006002Y009907D01*
X006057Y009852D01*
G37*
G36*
X005918Y009991D02*
X005641Y009714D01*
X005586Y009769D01*
X005863Y010046D01*
X005918Y009991D01*
G37*
G36*
X005779Y010130D02*
X005502Y009853D01*
X005447Y009908D01*
X005724Y010185D01*
X005779Y010130D01*
G37*
G36*
X005640Y010269D02*
X005363Y009992D01*
X005308Y010047D01*
X005585Y010324D01*
X005640Y010269D01*
G37*
D14*
X005321Y010610D03*
X004652Y010610D03*
X003171Y011690D03*
X002502Y011690D03*
X002402Y012840D03*
X003071Y012840D03*
X006802Y011690D03*
X007471Y011690D03*
X005321Y005590D03*
X004652Y005590D03*
X004587Y004475D03*
X004587Y003805D03*
D15*
X002437Y002550D03*
X002937Y002550D03*
X003437Y002550D03*
X003937Y002550D03*
X003937Y005430D03*
X003437Y005430D03*
X002937Y005430D03*
X002437Y005430D03*
D16*
X006881Y012375D03*
X007137Y012375D03*
X007393Y012375D03*
X007393Y013009D03*
X007137Y013009D03*
X006881Y013009D03*
D17*
X005437Y004832D03*
X005437Y003848D03*
D18*
X004987Y011320D03*
X005897Y011320D03*
X004077Y011320D03*
D19*
X004987Y013760D03*
D20*
X003389Y010785D03*
X003389Y010195D03*
X002385Y010195D03*
X002385Y010785D03*
D21*
X002729Y010785D03*
X003044Y010785D03*
X003044Y010195D03*
X002729Y010195D03*
D22*
X003088Y013640D03*
X001985Y013640D03*
M02*
