G75*
G70*
%OFA0B0*%
%FSLAX24Y24*%
%IPPOS*%
%LPD*%
%AMOC8*
5,1,8,0,0,1.08239X$1,22.5*
%
%ADD10C,0.0820*%
%ADD11R,0.0513X0.0474*%
%ADD12R,0.0237X0.0611*%
%ADD13R,0.0789X0.0848*%
%ADD14R,0.0828X0.0848*%
%ADD15C,0.0395*%
%ADD16R,0.0328X0.0407*%
%ADD17R,0.0552X0.0552*%
%ADD18R,0.0552X0.0356*%
%ADD19R,0.0356X0.0552*%
%ADD20R,0.1025X0.0828*%
%ADD21R,0.0474X0.0513*%
%ADD22R,0.0336X0.0572*%
%ADD23R,0.0395X0.0395*%
%ADD24C,0.0010*%
%ADD25R,0.0513X0.0631*%
%ADD26R,0.0493X0.0946*%
%ADD27R,0.0474X0.0493*%
%ADD28R,0.0474X0.0671*%
D10*
X001743Y001833D03*
X001743Y002833D03*
X001743Y003833D03*
X001743Y004833D03*
X001743Y005833D03*
X001743Y006833D03*
X001743Y007833D03*
X001743Y008833D03*
X001743Y009833D03*
X001743Y010833D03*
X001743Y011833D03*
X001743Y012833D03*
X008743Y012833D03*
X008743Y011833D03*
X008743Y010833D03*
X008743Y009833D03*
X008743Y008833D03*
X008743Y007833D03*
X008743Y006833D03*
X008743Y005833D03*
X008743Y004833D03*
X008743Y003833D03*
X008743Y002833D03*
X008743Y001833D03*
D11*
X006437Y002593D03*
X005768Y002593D03*
X006558Y009883D03*
X007227Y009883D03*
X006293Y011598D03*
X006293Y012268D03*
X004193Y012268D03*
X004193Y011598D03*
X003927Y009883D03*
X003258Y009883D03*
D12*
X004731Y012741D03*
X004987Y012741D03*
X005243Y012741D03*
X005499Y012741D03*
X005755Y012741D03*
D13*
X006818Y013833D03*
X003668Y013833D03*
D14*
X004743Y013833D03*
X005743Y013833D03*
D15*
X006011Y012967D03*
X004475Y012967D03*
D16*
X002446Y013833D03*
X001540Y013833D03*
D17*
X002940Y009176D03*
X002940Y003467D03*
X007546Y003467D03*
X007546Y009176D03*
D18*
X007546Y008447D03*
X007546Y007975D03*
X007546Y007502D03*
X007546Y007030D03*
X007546Y006557D03*
X007546Y006085D03*
X007546Y005613D03*
X007546Y005140D03*
X007546Y004668D03*
X007546Y004195D03*
X002940Y004195D03*
X002940Y004668D03*
X002940Y005140D03*
X002940Y005613D03*
X002940Y006085D03*
X002940Y006557D03*
X002940Y007030D03*
X002940Y007502D03*
X002940Y007975D03*
X002940Y008447D03*
D19*
X003589Y009176D03*
X004062Y009176D03*
X004534Y009176D03*
X005007Y009176D03*
X005479Y009176D03*
X005951Y009176D03*
X006424Y009176D03*
X006896Y009176D03*
X006896Y003467D03*
X006424Y003467D03*
X005951Y003467D03*
X005479Y003467D03*
X005007Y003467D03*
X004534Y003467D03*
X004062Y003467D03*
X003589Y003467D03*
D20*
X004396Y004904D03*
X004396Y006321D03*
X004396Y007739D03*
X006089Y007739D03*
X006089Y006321D03*
X006089Y004904D03*
D21*
X006443Y002568D03*
X006443Y001898D03*
X007043Y001888D03*
X007643Y001898D03*
X007643Y002568D03*
X007043Y001218D03*
X005577Y009883D03*
X004908Y009883D03*
X003427Y013003D03*
X002758Y013003D03*
D22*
X002938Y012221D03*
X003548Y012221D03*
X003548Y010745D03*
X002938Y010745D03*
X006938Y010745D03*
X007548Y010745D03*
X007548Y012221D03*
X006938Y012221D03*
D23*
X007693Y013188D03*
X007693Y013778D03*
D24*
X008253Y013793D02*
X008483Y013743D01*
X008523Y013793D01*
X008483Y013843D01*
X008253Y013793D01*
X008259Y013794D02*
X008522Y013794D01*
X008517Y013786D02*
X008286Y013786D01*
X008298Y013803D02*
X008515Y013803D01*
X008508Y013811D02*
X008337Y013811D01*
X008325Y013777D02*
X008510Y013777D01*
X008503Y013769D02*
X008364Y013769D01*
X008403Y013760D02*
X008497Y013760D01*
X008490Y013752D02*
X008442Y013752D01*
X008481Y013743D02*
X008483Y013743D01*
X008531Y013709D02*
X008857Y013709D01*
X008862Y013701D02*
X008525Y013701D01*
X008520Y013692D02*
X008868Y013692D01*
X008873Y013684D02*
X008515Y013684D01*
X008509Y013675D02*
X008879Y013675D01*
X008884Y013667D02*
X008703Y013667D01*
X008693Y013673D02*
X009003Y013483D01*
X008803Y013793D01*
X009003Y014093D01*
X008693Y013903D01*
X008393Y014093D01*
X008583Y013793D01*
X008383Y013473D01*
X008693Y013673D01*
X008683Y013667D02*
X008504Y013667D01*
X008499Y013658D02*
X008670Y013658D01*
X008657Y013650D02*
X008493Y013650D01*
X008488Y013641D02*
X008644Y013641D01*
X008631Y013633D02*
X008483Y013633D01*
X008477Y013624D02*
X008617Y013624D01*
X008604Y013616D02*
X008472Y013616D01*
X008467Y013607D02*
X008591Y013607D01*
X008578Y013599D02*
X008461Y013599D01*
X008456Y013590D02*
X008565Y013590D01*
X008552Y013582D02*
X008451Y013582D01*
X008446Y013573D02*
X008538Y013573D01*
X008525Y013565D02*
X008440Y013565D01*
X008435Y013556D02*
X008512Y013556D01*
X008499Y013548D02*
X008430Y013548D01*
X008424Y013539D02*
X008486Y013539D01*
X008472Y013531D02*
X008419Y013531D01*
X008414Y013522D02*
X008459Y013522D01*
X008446Y013514D02*
X008408Y013514D01*
X008403Y013505D02*
X008433Y013505D01*
X008420Y013497D02*
X008398Y013497D01*
X008392Y013488D02*
X008407Y013488D01*
X008393Y013480D02*
X008387Y013480D01*
X008650Y013548D02*
X008735Y013548D01*
X008734Y013539D02*
X008652Y013539D01*
X008654Y013531D02*
X008732Y013531D01*
X008730Y013522D02*
X008655Y013522D01*
X008657Y013514D02*
X008728Y013514D01*
X008727Y013505D02*
X008659Y013505D01*
X008661Y013497D02*
X008725Y013497D01*
X008723Y013488D02*
X008663Y013488D01*
X008664Y013480D02*
X008721Y013480D01*
X008720Y013471D02*
X008666Y013471D01*
X008668Y013463D02*
X008718Y013463D01*
X008716Y013454D02*
X008670Y013454D01*
X008671Y013446D02*
X008714Y013446D01*
X008712Y013437D02*
X008673Y013437D01*
X008675Y013429D02*
X008711Y013429D01*
X008709Y013420D02*
X008677Y013420D01*
X008678Y013412D02*
X008707Y013412D01*
X008705Y013403D02*
X008680Y013403D01*
X008682Y013395D02*
X008704Y013395D01*
X008702Y013386D02*
X008684Y013386D01*
X008686Y013378D02*
X008700Y013378D01*
X008698Y013369D02*
X008687Y013369D01*
X008689Y013361D02*
X008697Y013361D01*
X008695Y013352D02*
X008691Y013352D01*
X008693Y013344D02*
X008693Y013344D01*
X008693Y013343D02*
X008743Y013583D01*
X008693Y013613D01*
X008643Y013583D01*
X008693Y013343D01*
X008897Y013548D02*
X008961Y013548D01*
X008955Y013556D02*
X008883Y013556D01*
X008869Y013565D02*
X008950Y013565D01*
X008945Y013573D02*
X008855Y013573D01*
X008842Y013582D02*
X008939Y013582D01*
X008934Y013590D02*
X008828Y013590D01*
X008814Y013599D02*
X008928Y013599D01*
X008923Y013607D02*
X008800Y013607D01*
X008786Y013616D02*
X008917Y013616D01*
X008912Y013624D02*
X008772Y013624D01*
X008758Y013633D02*
X008906Y013633D01*
X008901Y013641D02*
X008744Y013641D01*
X008731Y013650D02*
X008895Y013650D01*
X008890Y013658D02*
X008717Y013658D01*
X008702Y013607D02*
X008683Y013607D01*
X008669Y013599D02*
X008716Y013599D01*
X008731Y013590D02*
X008655Y013590D01*
X008643Y013582D02*
X008743Y013582D01*
X008741Y013573D02*
X008645Y013573D01*
X008647Y013565D02*
X008739Y013565D01*
X008737Y013556D02*
X008648Y013556D01*
X008536Y013718D02*
X008851Y013718D01*
X008846Y013726D02*
X008541Y013726D01*
X008546Y013735D02*
X008840Y013735D01*
X008835Y013743D02*
X008552Y013743D01*
X008557Y013752D02*
X008829Y013752D01*
X008824Y013760D02*
X008562Y013760D01*
X008568Y013769D02*
X008818Y013769D01*
X008813Y013777D02*
X008573Y013777D01*
X008578Y013786D02*
X008807Y013786D01*
X008804Y013794D02*
X008582Y013794D01*
X008577Y013803D02*
X008809Y013803D01*
X008815Y013811D02*
X008571Y013811D01*
X008566Y013820D02*
X008821Y013820D01*
X008826Y013828D02*
X008560Y013828D01*
X008555Y013837D02*
X008832Y013837D01*
X008838Y013845D02*
X008550Y013845D01*
X008544Y013854D02*
X008843Y013854D01*
X008849Y013862D02*
X008539Y013862D01*
X008533Y013871D02*
X008855Y013871D01*
X008860Y013879D02*
X008528Y013879D01*
X008523Y013888D02*
X008866Y013888D01*
X008872Y013896D02*
X008517Y013896D01*
X008512Y013905D02*
X008690Y013905D01*
X008696Y013905D02*
X008877Y013905D01*
X008883Y013913D02*
X008710Y013913D01*
X008724Y013922D02*
X008889Y013922D01*
X008894Y013930D02*
X008737Y013930D01*
X008751Y013939D02*
X008900Y013939D01*
X008906Y013947D02*
X008765Y013947D01*
X008779Y013956D02*
X008911Y013956D01*
X008917Y013964D02*
X008793Y013964D01*
X008807Y013973D02*
X008923Y013973D01*
X008928Y013981D02*
X008821Y013981D01*
X008835Y013990D02*
X008934Y013990D01*
X008940Y013998D02*
X008848Y013998D01*
X008862Y014007D02*
X008945Y014007D01*
X008951Y014015D02*
X008876Y014015D01*
X008890Y014024D02*
X008957Y014024D01*
X008962Y014032D02*
X008904Y014032D01*
X008918Y014041D02*
X008968Y014041D01*
X008974Y014049D02*
X008932Y014049D01*
X008945Y014058D02*
X008979Y014058D01*
X008985Y014066D02*
X008959Y014066D01*
X008973Y014075D02*
X008991Y014075D01*
X008987Y014083D02*
X008996Y014083D01*
X009001Y014092D02*
X009002Y014092D01*
X008931Y013837D02*
X008899Y013837D01*
X008903Y013843D02*
X008873Y013793D01*
X008903Y013743D01*
X009133Y013793D01*
X008903Y013843D01*
X008894Y013828D02*
X008970Y013828D01*
X009009Y013820D02*
X008889Y013820D01*
X008884Y013811D02*
X009048Y013811D01*
X009061Y013777D02*
X008882Y013777D01*
X008887Y013769D02*
X009022Y013769D01*
X008983Y013760D02*
X008892Y013760D01*
X008897Y013752D02*
X008944Y013752D01*
X008903Y013743D02*
X008904Y013743D01*
X008877Y013786D02*
X009100Y013786D01*
X009087Y013803D02*
X008879Y013803D01*
X008874Y013794D02*
X009127Y013794D01*
X008966Y013539D02*
X008911Y013539D01*
X008925Y013531D02*
X008972Y013531D01*
X008977Y013522D02*
X008939Y013522D01*
X008952Y013514D02*
X008983Y013514D01*
X008988Y013505D02*
X008966Y013505D01*
X008980Y013497D02*
X008994Y013497D01*
X008994Y013488D02*
X008999Y013488D01*
X008676Y013913D02*
X008507Y013913D01*
X008501Y013922D02*
X008663Y013922D01*
X008650Y013930D02*
X008496Y013930D01*
X008490Y013939D02*
X008636Y013939D01*
X008623Y013947D02*
X008485Y013947D01*
X008480Y013956D02*
X008609Y013956D01*
X008596Y013964D02*
X008474Y013964D01*
X008469Y013973D02*
X008582Y013973D01*
X008569Y013981D02*
X008464Y013981D01*
X008458Y013990D02*
X008556Y013990D01*
X008542Y013998D02*
X008453Y013998D01*
X008447Y014007D02*
X008529Y014007D01*
X008515Y014015D02*
X008442Y014015D01*
X008437Y014024D02*
X008502Y014024D01*
X008489Y014032D02*
X008431Y014032D01*
X008426Y014041D02*
X008475Y014041D01*
X008462Y014049D02*
X008420Y014049D01*
X008415Y014058D02*
X008448Y014058D01*
X008435Y014066D02*
X008410Y014066D01*
X008404Y014075D02*
X008421Y014075D01*
X008408Y014083D02*
X008399Y014083D01*
X008395Y014092D02*
X008394Y014092D01*
X008455Y013837D02*
X008488Y013837D01*
X008495Y013828D02*
X008415Y013828D01*
X008376Y013820D02*
X008501Y013820D01*
X008643Y013993D02*
X008693Y013963D01*
X008743Y013993D01*
X008693Y014233D01*
X008643Y013993D01*
X008644Y013998D02*
X008742Y013998D01*
X008740Y014007D02*
X008646Y014007D01*
X008647Y014015D02*
X008738Y014015D01*
X008736Y014024D02*
X008649Y014024D01*
X008651Y014032D02*
X008735Y014032D01*
X008733Y014041D02*
X008653Y014041D01*
X008655Y014049D02*
X008731Y014049D01*
X008729Y014058D02*
X008656Y014058D01*
X008658Y014066D02*
X008728Y014066D01*
X008726Y014075D02*
X008660Y014075D01*
X008662Y014083D02*
X008724Y014083D01*
X008722Y014092D02*
X008663Y014092D01*
X008665Y014100D02*
X008720Y014100D01*
X008719Y014109D02*
X008667Y014109D01*
X008669Y014117D02*
X008717Y014117D01*
X008715Y014126D02*
X008670Y014126D01*
X008672Y014134D02*
X008713Y014134D01*
X008712Y014143D02*
X008674Y014143D01*
X008676Y014151D02*
X008710Y014151D01*
X008708Y014160D02*
X008678Y014160D01*
X008679Y014168D02*
X008706Y014168D01*
X008704Y014177D02*
X008681Y014177D01*
X008683Y014185D02*
X008703Y014185D01*
X008701Y014194D02*
X008685Y014194D01*
X008686Y014202D02*
X008699Y014202D01*
X008697Y014211D02*
X008688Y014211D01*
X008690Y014219D02*
X008696Y014219D01*
X008692Y014228D02*
X008694Y014228D01*
X008648Y013990D02*
X008738Y013990D01*
X008723Y013981D02*
X008662Y013981D01*
X008676Y013973D02*
X008709Y013973D01*
X008695Y013964D02*
X008691Y013964D01*
D25*
X005597Y011704D03*
X004888Y011704D03*
X004888Y010562D03*
X005597Y010562D03*
D26*
X003824Y002033D03*
X002662Y002033D03*
D27*
X003243Y002634D03*
D28*
X003368Y000733D03*
X006518Y000733D03*
M02*
