G75*
G70*
%OFA0B0*%
%FSLAX24Y24*%
%IPPOS*%
%LPD*%
%AMOC8*
5,1,8,0,0,1.08239X$1,22.5*
%
%ADD10R,0.0433X0.0394*%
%ADD11R,0.0315X0.0315*%
%ADD12R,0.0394X0.0433*%
%ADD13R,0.0138X0.0551*%
%ADD14R,0.0709X0.0748*%
%ADD15R,0.0748X0.0748*%
%ADD16R,0.0472X0.0472*%
%ADD17R,0.0472X0.0276*%
%ADD18R,0.0276X0.0472*%
%ADD19R,0.0945X0.0748*%
%ADD20R,0.0400X0.1000*%
%ADD21R,0.0394X0.0394*%
D10*
X006408Y002669D03*
X007077Y002669D03*
X003743Y010584D03*
X003743Y011253D03*
X003243Y011253D03*
X003243Y010584D03*
X002743Y010584D03*
X002743Y011253D03*
X006908Y012069D03*
X007543Y012584D03*
X007577Y012069D03*
X007543Y013253D03*
D11*
X003743Y012264D03*
X003743Y011673D03*
X003243Y011673D03*
X003243Y012264D03*
X002743Y012264D03*
X002743Y011673D03*
D12*
X002977Y013669D03*
X002308Y013669D03*
X005658Y011569D03*
X005658Y010719D03*
X006327Y010719D03*
X006327Y011569D03*
X006327Y009769D03*
X005658Y009769D03*
X003777Y002669D03*
X003108Y002669D03*
X006443Y002153D03*
X006443Y001484D03*
X007593Y001984D03*
X007593Y002653D03*
D13*
X005755Y012625D03*
X005499Y012625D03*
X005243Y012625D03*
X004987Y012625D03*
X004731Y012625D03*
D14*
X003668Y013669D03*
X006818Y013669D03*
D15*
X005743Y013669D03*
X004743Y013669D03*
D16*
X002940Y009011D03*
X002940Y003302D03*
X007546Y003302D03*
X007546Y009011D03*
D17*
X007546Y008283D03*
X007546Y007810D03*
X007546Y007338D03*
X007546Y006865D03*
X007546Y006393D03*
X007546Y005921D03*
X007546Y005448D03*
X007546Y004976D03*
X007546Y004503D03*
X007546Y004031D03*
X002940Y004031D03*
X002940Y004503D03*
X002940Y004976D03*
X002940Y005448D03*
X002940Y005921D03*
X002940Y006393D03*
X002940Y006865D03*
X002940Y007338D03*
X002940Y007810D03*
X002940Y008283D03*
D18*
X003589Y009011D03*
X004062Y009011D03*
X004534Y009011D03*
X005007Y009011D03*
X005479Y009011D03*
X005951Y009011D03*
X006424Y009011D03*
X006896Y009011D03*
X006896Y003302D03*
X006424Y003302D03*
X005951Y003302D03*
X005479Y003302D03*
X005007Y003302D03*
X004534Y003302D03*
X004062Y003302D03*
X003589Y003302D03*
D19*
X004396Y004739D03*
X004396Y006157D03*
X004396Y007574D03*
X006089Y007574D03*
X006089Y006157D03*
X006089Y004739D03*
D20*
X002943Y001769D03*
X005543Y001769D03*
D21*
X005058Y009842D03*
X004428Y009842D03*
X004428Y011495D03*
X005058Y011495D03*
X006928Y011495D03*
X007558Y011495D03*
X007558Y009842D03*
X006928Y009842D03*
M02*
