G75*
G70*
%OFA0B0*%
%FSLAX24Y24*%
%IPPOS*%
%LPD*%
%AMOC8*
5,1,8,0,0,1.08239X$1,22.5*
%
%ADD10C,0.0080*%
%ADD11C,0.0050*%
%ADD12C,0.0160*%
%ADD13C,0.0100*%
%ADD14C,0.0060*%
%ADD15C,0.0030*%
%ADD16R,0.0160X0.0280*%
D10*
X001243Y000390D02*
X001493Y000140D01*
X001993Y000140D01*
X002243Y000390D01*
X002243Y000890D01*
X001993Y001140D01*
X002243Y001390D01*
X002243Y001890D01*
X001993Y002140D01*
X002243Y002390D01*
X002243Y002890D01*
X001993Y003140D01*
X002243Y003390D01*
X002243Y003890D01*
X001993Y004140D01*
X002243Y004390D01*
X002243Y004890D01*
X001993Y005140D01*
X002243Y005390D01*
X002243Y005890D01*
X001993Y006140D01*
X002243Y006390D01*
X002243Y006890D01*
X001993Y007140D01*
X002243Y007390D01*
X002243Y007890D01*
X001993Y008140D01*
X002243Y008390D01*
X002243Y008890D01*
X001993Y009140D01*
X002243Y009390D01*
X002243Y009890D01*
X001993Y010140D01*
X002243Y010390D01*
X002243Y010890D01*
X001993Y011140D01*
X002243Y011390D01*
X002243Y011890D01*
X001993Y012140D01*
X001493Y012140D01*
X001243Y011890D01*
X001243Y011390D01*
X001493Y011140D01*
X001243Y010890D01*
X001243Y010390D01*
X001493Y010140D01*
X001243Y009890D01*
X001243Y009390D01*
X001493Y009140D01*
X001243Y008890D01*
X001243Y008390D01*
X001493Y008140D01*
X001243Y007890D01*
X001243Y007390D01*
X001493Y007140D01*
X001243Y006890D01*
X001243Y006390D01*
X001493Y006140D01*
X001243Y005890D01*
X001243Y005390D01*
X001493Y005140D01*
X001243Y004890D01*
X001243Y004390D01*
X001493Y004140D01*
X001243Y003890D01*
X001243Y003390D01*
X001493Y003140D01*
X001243Y002890D01*
X001243Y002390D01*
X001493Y002140D01*
X001243Y001890D01*
X001243Y001390D01*
X001493Y001140D01*
X001243Y000890D01*
X001243Y000390D01*
X003213Y003004D02*
X003213Y003476D01*
X003725Y004224D02*
X003961Y004224D01*
X004473Y003476D02*
X004473Y003004D01*
X003961Y002256D02*
X003725Y002256D01*
X008243Y002390D02*
X008493Y002140D01*
X008243Y001890D01*
X008243Y001390D01*
X008493Y001140D01*
X008243Y000890D01*
X008243Y000390D01*
X008493Y000140D01*
X008993Y000140D01*
X009243Y000390D01*
X009243Y000890D01*
X008993Y001140D01*
X009243Y001390D01*
X009243Y001890D01*
X008993Y002140D01*
X009243Y002390D01*
X009243Y002890D01*
X008993Y003140D01*
X009243Y003390D01*
X009243Y003890D01*
X008993Y004140D01*
X009243Y004390D01*
X009243Y004890D01*
X008993Y005140D01*
X009243Y005390D01*
X009243Y005890D01*
X008993Y006140D01*
X009243Y006390D01*
X009243Y006890D01*
X008993Y007140D01*
X009243Y007390D01*
X009243Y007890D01*
X008993Y008140D01*
X009243Y008390D01*
X009243Y008890D01*
X008993Y009140D01*
X009243Y009390D01*
X009243Y009890D01*
X008993Y010140D01*
X009243Y010390D01*
X009243Y010890D01*
X008993Y011140D01*
X009243Y011390D01*
X009243Y011890D01*
X008993Y012140D01*
X008493Y012140D01*
X008243Y011890D01*
X008243Y011390D01*
X008493Y011140D01*
X008243Y010890D01*
X008243Y010390D01*
X008493Y010140D01*
X008243Y009890D01*
X008243Y009390D01*
X008493Y009140D01*
X008243Y008890D01*
X008243Y008390D01*
X008493Y008140D01*
X008243Y007890D01*
X008243Y007390D01*
X008493Y007140D01*
X008243Y006890D01*
X008243Y006390D01*
X008493Y006140D01*
X008243Y005890D01*
X008243Y005390D01*
X008493Y005140D01*
X008243Y004890D01*
X008243Y004390D01*
X008493Y004140D01*
X008243Y003890D01*
X008243Y003390D01*
X008493Y003140D01*
X008243Y002890D01*
X008243Y002390D01*
X007215Y009656D02*
X006270Y009656D01*
X006270Y010246D01*
X006270Y011034D02*
X006270Y011467D01*
X006428Y011624D01*
X007058Y011624D01*
X007215Y011467D01*
X007215Y011034D01*
X007215Y010246D02*
X007215Y009656D01*
X005562Y010534D02*
X005562Y010746D01*
X005412Y011200D02*
X005074Y011200D01*
X005093Y011590D02*
X005593Y011590D01*
X005593Y012190D02*
X005093Y012190D01*
X005046Y012384D02*
X005046Y012896D01*
X005597Y012896D01*
X005597Y012384D02*
X005046Y012384D01*
X004888Y012384D01*
X004888Y012896D02*
X005046Y012896D01*
X004058Y011624D02*
X004215Y011467D01*
X004215Y011034D01*
X004058Y011624D02*
X003428Y011624D01*
X003270Y011467D01*
X003270Y011034D01*
X003258Y011868D02*
X002628Y011868D01*
X002611Y011710D02*
X002613Y011724D01*
X002619Y011738D01*
X002627Y011750D01*
X002639Y011758D01*
X002653Y011764D01*
X002667Y011766D01*
X002681Y011764D01*
X002695Y011758D01*
X002707Y011750D01*
X002715Y011738D01*
X002721Y011724D01*
X002723Y011710D01*
X002721Y011696D01*
X002715Y011682D01*
X002707Y011670D01*
X002695Y011662D01*
X002681Y011656D01*
X002667Y011654D01*
X002653Y011656D01*
X002639Y011662D01*
X002627Y011670D01*
X002619Y011682D01*
X002613Y011696D01*
X002611Y011710D01*
X002628Y012812D02*
X003258Y012812D01*
X003270Y010246D02*
X003270Y009656D01*
X004215Y009656D01*
X004215Y010246D01*
X005074Y010080D02*
X005412Y010080D01*
X006459Y012068D02*
X007049Y012068D01*
X007049Y013012D02*
X006459Y013012D01*
X006459Y012068D01*
X007837Y012068D02*
X008270Y012068D01*
X008427Y012225D01*
X008427Y012855D01*
X008270Y013012D01*
X007837Y013012D01*
D11*
X007593Y012940D02*
X007593Y012140D01*
X007143Y010790D02*
X006343Y010790D01*
X004143Y010790D02*
X003343Y010790D01*
X002667Y011710D02*
X002667Y011749D01*
X002628Y011749D01*
D12*
X005231Y009490D02*
X005255Y009490D01*
X007643Y007152D02*
X007643Y007128D01*
X005255Y004640D02*
X005231Y004640D01*
X003843Y004602D02*
X003843Y004578D01*
X003405Y005490D02*
X003381Y005490D01*
X005031Y002040D02*
X005055Y002040D01*
X003843Y001852D02*
X003843Y001828D01*
D13*
X005166Y005337D02*
X005319Y005337D01*
X007045Y007063D01*
X007045Y007217D01*
X005319Y008943D01*
X005166Y008943D01*
X003440Y007217D01*
X003440Y007063D01*
X005166Y005337D01*
X005007Y006026D02*
X005009Y006056D01*
X005015Y006086D01*
X005024Y006115D01*
X005037Y006142D01*
X005054Y006167D01*
X005073Y006190D01*
X005096Y006211D01*
X005121Y006228D01*
X005147Y006242D01*
X005176Y006252D01*
X005205Y006259D01*
X005235Y006262D01*
X005266Y006261D01*
X005296Y006256D01*
X005325Y006247D01*
X005352Y006235D01*
X005378Y006220D01*
X005402Y006201D01*
X005423Y006179D01*
X005441Y006155D01*
X005456Y006128D01*
X005467Y006100D01*
X005475Y006071D01*
X005479Y006041D01*
X005479Y006011D01*
X005475Y005981D01*
X005467Y005952D01*
X005456Y005924D01*
X005441Y005897D01*
X005423Y005873D01*
X005402Y005851D01*
X005378Y005832D01*
X005352Y005817D01*
X005325Y005805D01*
X005296Y005796D01*
X005266Y005791D01*
X005235Y005790D01*
X005205Y005793D01*
X005176Y005800D01*
X005147Y005810D01*
X005121Y005824D01*
X005096Y005841D01*
X005073Y005862D01*
X005054Y005885D01*
X005037Y005910D01*
X005024Y005937D01*
X005015Y005966D01*
X005009Y005996D01*
X005007Y006026D01*
D14*
X005383Y003800D02*
X005483Y003800D01*
X005383Y003800D02*
X005383Y002860D01*
X005383Y002620D01*
X005383Y001680D01*
X005483Y001680D01*
X005903Y001680D02*
X005983Y001680D01*
X006403Y001680D02*
X006483Y001680D01*
X006903Y001680D02*
X006983Y001680D01*
X007403Y001680D02*
X007503Y001680D01*
X007503Y003800D01*
X007403Y003800D01*
X006983Y003800D02*
X006903Y003800D01*
X006483Y003800D02*
X006403Y003800D01*
X005983Y003800D02*
X005903Y003800D01*
X005383Y002860D02*
X005404Y002858D01*
X005424Y002853D01*
X005443Y002844D01*
X005460Y002832D01*
X005475Y002817D01*
X005487Y002800D01*
X005496Y002781D01*
X005501Y002761D01*
X005503Y002740D01*
X005501Y002719D01*
X005496Y002699D01*
X005487Y002680D01*
X005475Y002663D01*
X005460Y002648D01*
X005443Y002636D01*
X005424Y002627D01*
X005404Y002622D01*
X005383Y002620D01*
D15*
X005429Y004171D02*
X005116Y004485D01*
X005116Y004328D02*
X005429Y004328D01*
X005429Y004485D02*
X005116Y004171D01*
X005273Y004171D02*
X005273Y004485D01*
D16*
X005043Y003540D03*
X002743Y011540D03*
X001943Y012690D03*
X004093Y012640D03*
X004093Y012140D03*
M02*
