G75*
G70*
%OFA0B0*%
%FSLAX24Y24*%
%IPPOS*%
%LPD*%
%AMOC8*
5,1,8,0,0,1.08239X$1,22.5*
%
%ADD10C,0.0600*%
%ADD11C,0.0278*%
%ADD12C,0.0080*%
D10*
X001743Y000640D03*
X001743Y001640D03*
X001743Y002640D03*
X001743Y003640D03*
X001743Y004640D03*
X001743Y005640D03*
X001743Y006640D03*
X001743Y007640D03*
X001743Y008640D03*
X001743Y009640D03*
X001743Y010640D03*
X001743Y011640D03*
X008743Y011640D03*
X008743Y010640D03*
X008743Y009640D03*
X008743Y008640D03*
X008743Y007640D03*
X008743Y006640D03*
X008743Y005640D03*
X008743Y004640D03*
X008743Y003640D03*
X008743Y002640D03*
X008743Y001640D03*
X008743Y000640D03*
D11*
X007993Y001690D03*
X007593Y001640D03*
X007093Y002790D03*
X006943Y003190D03*
X006193Y003090D03*
X006143Y002740D03*
X005493Y002890D03*
X005103Y003880D03*
X004593Y004540D03*
X003793Y005040D03*
X004643Y006740D03*
X004893Y007290D03*
X005243Y007490D03*
X005493Y007140D03*
X005743Y007490D03*
X006443Y007490D03*
X006793Y007340D03*
X006993Y007040D03*
X007193Y008390D03*
X007293Y009340D03*
X006993Y009540D03*
X007493Y009740D03*
X007893Y009490D03*
X007843Y008390D03*
X008093Y006590D03*
X006843Y004940D03*
X005743Y005940D03*
X005043Y005840D03*
X004543Y007440D03*
X004813Y008410D03*
X005043Y009240D03*
X005393Y009190D03*
X006293Y009190D03*
X006243Y011090D03*
X006943Y011940D03*
X007443Y012740D03*
X005343Y012040D03*
X004293Y010890D03*
X004093Y011690D03*
X002743Y009390D03*
X002743Y008890D03*
X002493Y008640D03*
X002343Y009390D03*
X003393Y009290D03*
X003843Y009240D03*
X003562Y007290D03*
X004593Y003090D03*
X004643Y001790D03*
X002443Y001840D03*
X001493Y012240D03*
X001643Y012740D03*
X001843Y012390D03*
D12*
X001403Y002386D02*
X001403Y001894D01*
X001505Y001996D01*
X001659Y002060D01*
X001826Y002060D01*
X001981Y001996D01*
X002099Y001878D01*
X002163Y001724D01*
X002163Y001640D01*
X002276Y001640D01*
X002223Y001693D01*
X002184Y001788D01*
X002184Y001892D01*
X002223Y001987D01*
X002296Y002060D01*
X002391Y002099D01*
X002494Y002099D01*
X002590Y002060D01*
X002662Y001987D01*
X002702Y001892D01*
X002702Y001788D01*
X002662Y001693D01*
X002609Y001640D01*
X004426Y001640D01*
X004423Y001643D01*
X004384Y001738D01*
X004384Y001842D01*
X004423Y001937D01*
X004496Y002010D01*
X004591Y002049D01*
X004694Y002049D01*
X004790Y002010D01*
X004862Y001937D01*
X004902Y001842D01*
X004902Y001738D01*
X004862Y001643D01*
X004859Y001640D01*
X007334Y001640D01*
X007334Y001692D01*
X007373Y001787D01*
X007446Y001860D01*
X007541Y001899D01*
X007644Y001899D01*
X007740Y001860D01*
X007812Y001787D01*
X007852Y001692D01*
X007852Y001640D01*
X008323Y001640D01*
X008323Y001724D01*
X008387Y001878D01*
X008505Y001996D01*
X008659Y002060D01*
X008826Y002060D01*
X008981Y001996D01*
X009083Y001894D01*
X009083Y002386D01*
X008981Y002284D01*
X008826Y002220D01*
X008659Y002220D01*
X008505Y002284D01*
X008387Y002402D01*
X008323Y002556D01*
X008323Y002724D01*
X008387Y002878D01*
X008505Y002996D01*
X008659Y003060D01*
X008826Y003060D01*
X008981Y002996D01*
X009083Y002894D01*
X009083Y003386D01*
X008981Y003284D01*
X008826Y003220D01*
X008659Y003220D01*
X008505Y003284D01*
X008387Y003402D01*
X008323Y003556D01*
X008323Y003724D01*
X008387Y003878D01*
X008505Y003996D01*
X008659Y004060D01*
X008826Y004060D01*
X008981Y003996D01*
X009083Y003894D01*
X009083Y004386D01*
X008981Y004284D01*
X008826Y004220D01*
X008659Y004220D01*
X008505Y004284D01*
X008387Y004402D01*
X008323Y004556D01*
X008323Y004724D01*
X008387Y004878D01*
X008505Y004996D01*
X008659Y005060D01*
X008826Y005060D01*
X008981Y004996D01*
X009083Y004894D01*
X009083Y005386D01*
X008981Y005284D01*
X008826Y005220D01*
X008659Y005220D01*
X008505Y005284D01*
X008387Y005402D01*
X008323Y005556D01*
X008323Y005724D01*
X008387Y005878D01*
X008505Y005996D01*
X008659Y006060D01*
X008826Y006060D01*
X008981Y005996D01*
X009083Y005894D01*
X009083Y006386D01*
X008981Y006284D01*
X008826Y006220D01*
X008659Y006220D01*
X008505Y006284D01*
X008387Y006402D01*
X008341Y006512D01*
X008312Y006443D01*
X008240Y006370D01*
X008144Y006331D01*
X008041Y006331D01*
X007946Y006370D01*
X007873Y006443D01*
X007834Y006538D01*
X007834Y006642D01*
X007873Y006737D01*
X007946Y006810D01*
X008041Y006849D01*
X008144Y006849D01*
X008240Y006810D01*
X008312Y006737D01*
X008323Y006712D01*
X008323Y006724D01*
X008387Y006878D01*
X008505Y006996D01*
X008659Y007060D01*
X008826Y007060D01*
X008981Y006996D01*
X009083Y006894D01*
X009083Y007386D01*
X008981Y007284D01*
X008826Y007220D01*
X008659Y007220D01*
X008505Y007284D01*
X008387Y007402D01*
X008323Y007556D01*
X008323Y007724D01*
X008387Y007878D01*
X008505Y007996D01*
X008659Y008060D01*
X008826Y008060D01*
X008981Y007996D01*
X009083Y007894D01*
X009083Y008386D01*
X008981Y008284D01*
X008826Y008220D01*
X008659Y008220D01*
X008505Y008284D01*
X008387Y008402D01*
X008323Y008556D01*
X008323Y008724D01*
X008387Y008878D01*
X008505Y008996D01*
X008659Y009060D01*
X008826Y009060D01*
X008981Y008996D01*
X009083Y008894D01*
X009083Y009386D01*
X008981Y009284D01*
X008826Y009220D01*
X008659Y009220D01*
X008505Y009284D01*
X008387Y009402D01*
X008323Y009556D01*
X008323Y009724D01*
X008387Y009878D01*
X008505Y009996D01*
X008659Y010060D01*
X008826Y010060D01*
X008981Y009996D01*
X009083Y009894D01*
X009083Y010386D01*
X008981Y010284D01*
X008826Y010220D01*
X008659Y010220D01*
X008505Y010284D01*
X008387Y010402D01*
X008323Y010556D01*
X008323Y010724D01*
X008387Y010878D01*
X008505Y010996D01*
X008659Y011060D01*
X008826Y011060D01*
X008981Y010996D01*
X009083Y010894D01*
X009083Y011359D01*
X009078Y011353D01*
X009029Y011304D01*
X008973Y011264D01*
X008912Y011232D01*
X008846Y011211D01*
X008783Y011201D01*
X008783Y011600D01*
X008703Y011600D01*
X008703Y011201D01*
X008640Y011211D01*
X008574Y011232D01*
X008512Y011264D01*
X008456Y011304D01*
X008407Y011353D01*
X008366Y011409D01*
X008335Y011471D01*
X008314Y011537D01*
X008304Y011600D01*
X008703Y011600D01*
X008703Y011680D01*
X008703Y012079D01*
X008640Y012069D01*
X008574Y012048D01*
X008512Y012016D01*
X008456Y011976D01*
X008407Y011927D01*
X008366Y011871D01*
X008335Y011809D01*
X008314Y011743D01*
X008304Y011680D01*
X008703Y011680D01*
X008783Y011680D01*
X008783Y012079D01*
X008846Y012069D01*
X008912Y012048D01*
X008973Y012016D01*
X009029Y011976D01*
X009078Y011927D01*
X009083Y011921D01*
X009083Y012980D01*
X001403Y012980D01*
X001403Y012483D01*
X001441Y012499D01*
X001544Y012499D01*
X001598Y012477D01*
X001623Y012537D01*
X001696Y012610D01*
X001791Y012649D01*
X001894Y012649D01*
X001990Y012610D01*
X002062Y012537D01*
X002102Y012442D01*
X002102Y012338D01*
X002062Y012243D01*
X001990Y012170D01*
X001894Y012131D01*
X001791Y012131D01*
X001737Y012153D01*
X001712Y012093D01*
X001679Y012060D01*
X001826Y012060D01*
X001981Y011996D01*
X002099Y011878D01*
X002163Y011724D01*
X002163Y011556D01*
X002099Y011402D01*
X001981Y011284D01*
X001826Y011220D01*
X001659Y011220D01*
X001505Y011284D01*
X001403Y011386D01*
X001403Y010894D01*
X001505Y010996D01*
X001659Y011060D01*
X001826Y011060D01*
X001981Y010996D01*
X002099Y010878D01*
X002163Y010724D01*
X002163Y010556D01*
X002099Y010402D01*
X001981Y010284D01*
X001826Y010220D01*
X001659Y010220D01*
X001505Y010284D01*
X001403Y010386D01*
X001403Y009894D01*
X001505Y009996D01*
X001659Y010060D01*
X001826Y010060D01*
X001981Y009996D01*
X002099Y009878D01*
X002163Y009724D01*
X002163Y009576D01*
X002196Y009610D01*
X002291Y009649D01*
X002394Y009649D01*
X002490Y009610D01*
X002543Y009556D01*
X002596Y009610D01*
X002691Y009649D01*
X002794Y009649D01*
X002890Y009610D01*
X002962Y009537D01*
X003002Y009442D01*
X003002Y009338D01*
X002962Y009243D01*
X002890Y009170D01*
X002816Y009140D01*
X002890Y009110D01*
X002962Y009037D01*
X003002Y008942D01*
X003002Y008838D01*
X002962Y008743D01*
X002890Y008670D01*
X002794Y008631D01*
X002752Y008631D01*
X002752Y008588D01*
X002712Y008493D01*
X002640Y008420D01*
X002544Y008381D01*
X002441Y008381D01*
X002346Y008420D01*
X002273Y008493D01*
X002234Y008588D01*
X002234Y008692D01*
X002273Y008787D01*
X002346Y008860D01*
X002441Y008899D01*
X002484Y008899D01*
X002484Y008942D01*
X002523Y009037D01*
X002596Y009110D01*
X002669Y009140D01*
X002596Y009170D01*
X002543Y009224D01*
X002490Y009170D01*
X002394Y009131D01*
X002291Y009131D01*
X002196Y009170D01*
X002123Y009243D01*
X002084Y009338D01*
X002084Y009387D01*
X001981Y009284D01*
X001826Y009220D01*
X001659Y009220D01*
X001505Y009284D01*
X001403Y009386D01*
X001403Y008894D01*
X001505Y008996D01*
X001659Y009060D01*
X001826Y009060D01*
X001981Y008996D01*
X002099Y008878D01*
X002163Y008724D01*
X002163Y008556D01*
X002099Y008402D01*
X001981Y008284D01*
X001826Y008220D01*
X001659Y008220D01*
X001505Y008284D01*
X001403Y008386D01*
X001403Y007894D01*
X001505Y007996D01*
X001659Y008060D01*
X001826Y008060D01*
X001981Y007996D01*
X002099Y007878D01*
X002163Y007724D01*
X002163Y007556D01*
X002099Y007402D01*
X001981Y007284D01*
X001826Y007220D01*
X001659Y007220D01*
X001505Y007284D01*
X001403Y007386D01*
X001403Y006894D01*
X001505Y006996D01*
X001659Y007060D01*
X001826Y007060D01*
X001981Y006996D01*
X002099Y006878D01*
X002163Y006724D01*
X002163Y006556D01*
X002099Y006402D01*
X001981Y006284D01*
X001826Y006220D01*
X001659Y006220D01*
X001505Y006284D01*
X001403Y006386D01*
X001403Y005894D01*
X001505Y005996D01*
X001659Y006060D01*
X001826Y006060D01*
X001981Y005996D01*
X002099Y005878D01*
X002163Y005724D01*
X002163Y005556D01*
X002099Y005402D01*
X001981Y005284D01*
X001826Y005220D01*
X001659Y005220D01*
X001505Y005284D01*
X001403Y005386D01*
X001403Y004894D01*
X001505Y004996D01*
X001659Y005060D01*
X001826Y005060D01*
X001981Y004996D01*
X002099Y004878D01*
X002163Y004724D01*
X002163Y004556D01*
X002099Y004402D01*
X001981Y004284D01*
X001826Y004220D01*
X001659Y004220D01*
X001505Y004284D01*
X001403Y004386D01*
X001403Y003894D01*
X001505Y003996D01*
X001659Y004060D01*
X001826Y004060D01*
X001981Y003996D01*
X002099Y003878D01*
X002163Y003724D01*
X002163Y003556D01*
X002099Y003402D01*
X001981Y003284D01*
X001826Y003220D01*
X001659Y003220D01*
X001505Y003284D01*
X001403Y003386D01*
X001403Y002894D01*
X001505Y002996D01*
X001659Y003060D01*
X001826Y003060D01*
X001981Y002996D01*
X002099Y002878D01*
X002163Y002724D01*
X002163Y002556D01*
X002099Y002402D01*
X001981Y002284D01*
X001826Y002220D01*
X001659Y002220D01*
X001505Y002284D01*
X001403Y002386D01*
X001403Y002338D02*
X001451Y002338D01*
X001403Y002260D02*
X001564Y002260D01*
X001572Y002024D02*
X001403Y002024D01*
X001403Y001946D02*
X001454Y001946D01*
X001403Y002103D02*
X009083Y002103D01*
X009083Y002181D02*
X001403Y002181D01*
X001403Y002966D02*
X001475Y002966D01*
X001403Y003045D02*
X001622Y003045D01*
X001864Y003045D02*
X005281Y003045D01*
X005273Y003037D02*
X005234Y002942D01*
X005234Y002838D01*
X005273Y002743D01*
X005346Y002670D01*
X005441Y002631D01*
X005544Y002631D01*
X005640Y002670D01*
X005712Y002743D01*
X005752Y002838D01*
X005752Y002942D01*
X005712Y003037D01*
X005640Y003110D01*
X005544Y003149D01*
X005441Y003149D01*
X005346Y003110D01*
X005273Y003037D01*
X005244Y002966D02*
X002011Y002966D01*
X002089Y002888D02*
X005234Y002888D01*
X005246Y002809D02*
X002127Y002809D01*
X002160Y002731D02*
X005286Y002731D01*
X005390Y002652D02*
X002163Y002652D01*
X002163Y002574D02*
X005943Y002574D01*
X005923Y002593D02*
X005996Y002520D01*
X006091Y002481D01*
X006194Y002481D01*
X006290Y002520D01*
X006362Y002593D01*
X006402Y002688D01*
X006402Y002792D01*
X006362Y002887D01*
X006359Y002890D01*
X006412Y002943D01*
X006452Y003038D01*
X006452Y003142D01*
X006412Y003237D01*
X006340Y003310D01*
X006244Y003349D01*
X006141Y003349D01*
X006046Y003310D01*
X005973Y003237D01*
X005934Y003142D01*
X005934Y003038D01*
X005973Y002943D01*
X005976Y002940D01*
X005923Y002887D01*
X005884Y002792D01*
X005884Y002688D01*
X005923Y002593D01*
X005899Y002652D02*
X005595Y002652D01*
X005700Y002731D02*
X005884Y002731D01*
X005891Y002809D02*
X005740Y002809D01*
X005752Y002888D02*
X005924Y002888D01*
X005964Y002966D02*
X005742Y002966D01*
X005705Y003045D02*
X005934Y003045D01*
X005934Y003123D02*
X005607Y003123D01*
X005378Y003123D02*
X001403Y003123D01*
X001403Y003202D02*
X005959Y003202D01*
X006016Y003280D02*
X001971Y003280D01*
X002055Y003359D02*
X006745Y003359D01*
X006723Y003337D02*
X006684Y003242D01*
X006684Y003138D01*
X006723Y003043D01*
X006796Y002970D01*
X006874Y002938D01*
X006873Y002937D01*
X006834Y002842D01*
X006834Y002738D01*
X006873Y002643D01*
X006946Y002570D01*
X007041Y002531D01*
X007144Y002531D01*
X007240Y002570D01*
X007312Y002643D01*
X007352Y002738D01*
X007352Y002842D01*
X007312Y002937D01*
X007240Y003010D01*
X007161Y003042D01*
X007162Y003043D01*
X007202Y003138D01*
X007202Y003242D01*
X007162Y003337D01*
X007090Y003410D01*
X006994Y003449D01*
X006891Y003449D01*
X006796Y003410D01*
X006723Y003337D01*
X006700Y003280D02*
X006369Y003280D01*
X006427Y003202D02*
X006684Y003202D01*
X006690Y003123D02*
X006452Y003123D01*
X006452Y003045D02*
X006723Y003045D01*
X006807Y002966D02*
X006422Y002966D01*
X006362Y002888D02*
X006853Y002888D01*
X006834Y002809D02*
X006395Y002809D01*
X006402Y002731D02*
X006837Y002731D01*
X006870Y002652D02*
X006387Y002652D01*
X006343Y002574D02*
X006943Y002574D01*
X007163Y003045D02*
X008622Y003045D01*
X008475Y002966D02*
X007283Y002966D01*
X007333Y002888D02*
X008396Y002888D01*
X008358Y002809D02*
X007352Y002809D01*
X007349Y002731D02*
X008326Y002731D01*
X008323Y002652D02*
X007316Y002652D01*
X007243Y002574D02*
X008323Y002574D01*
X008348Y002495D02*
X006228Y002495D01*
X006057Y002495D02*
X002137Y002495D01*
X002105Y002417D02*
X008381Y002417D01*
X008451Y002338D02*
X002035Y002338D01*
X001922Y002260D02*
X008564Y002260D01*
X008572Y002024D02*
X004755Y002024D01*
X004854Y001946D02*
X008454Y001946D01*
X008382Y001867D02*
X007722Y001867D01*
X007811Y001789D02*
X008350Y001789D01*
X008323Y001710D02*
X007844Y001710D01*
X007464Y001867D02*
X004891Y001867D01*
X004902Y001789D02*
X007375Y001789D01*
X007341Y001710D02*
X004890Y001710D01*
X004531Y002024D02*
X002625Y002024D01*
X002680Y001946D02*
X004432Y001946D01*
X004394Y001867D02*
X002702Y001867D01*
X002702Y001789D02*
X004384Y001789D01*
X004396Y001710D02*
X002669Y001710D01*
X002260Y002024D02*
X001913Y002024D01*
X002031Y001946D02*
X002206Y001946D01*
X002184Y001867D02*
X002103Y001867D01*
X002136Y001789D02*
X002184Y001789D01*
X002163Y001710D02*
X002216Y001710D01*
X001514Y003280D02*
X001403Y003280D01*
X001403Y003359D02*
X001430Y003359D01*
X001403Y003908D02*
X001417Y003908D01*
X001403Y003987D02*
X001495Y003987D01*
X001403Y004065D02*
X004921Y004065D01*
X004956Y004100D02*
X004883Y004027D01*
X004844Y003932D01*
X004844Y003828D01*
X004883Y003733D01*
X004956Y003660D01*
X005051Y003621D01*
X005154Y003621D01*
X005250Y003660D01*
X005322Y003733D01*
X005362Y003828D01*
X005362Y003932D01*
X005322Y004027D01*
X005250Y004100D01*
X005154Y004139D01*
X005051Y004139D01*
X004956Y004100D01*
X004867Y003987D02*
X001990Y003987D01*
X002069Y003908D02*
X004844Y003908D01*
X004844Y003830D02*
X002119Y003830D01*
X002151Y003751D02*
X004876Y003751D01*
X004944Y003673D02*
X002163Y003673D01*
X002163Y003594D02*
X008323Y003594D01*
X008323Y003673D02*
X005262Y003673D01*
X005330Y003751D02*
X008334Y003751D01*
X008367Y003830D02*
X005362Y003830D01*
X005362Y003908D02*
X008417Y003908D01*
X008495Y003987D02*
X005339Y003987D01*
X005284Y004065D02*
X009083Y004065D01*
X009083Y003987D02*
X008990Y003987D01*
X009069Y003908D02*
X009083Y003908D01*
X009083Y004144D02*
X001403Y004144D01*
X001403Y004222D02*
X001654Y004222D01*
X001831Y004222D02*
X008654Y004222D01*
X008831Y004222D02*
X009083Y004222D01*
X009083Y004301D02*
X008997Y004301D01*
X009076Y004379D02*
X009083Y004379D01*
X009083Y004929D02*
X009048Y004929D01*
X009083Y005007D02*
X008954Y005007D01*
X009083Y005086D02*
X007063Y005086D01*
X007062Y005087D02*
X006990Y005160D01*
X006894Y005199D01*
X006791Y005199D01*
X006696Y005160D01*
X006623Y005087D01*
X006584Y004992D01*
X006584Y004888D01*
X006623Y004793D01*
X006696Y004720D01*
X006791Y004681D01*
X006894Y004681D01*
X006990Y004720D01*
X007062Y004793D01*
X007102Y004888D01*
X007102Y004992D01*
X007062Y005087D01*
X007095Y005007D02*
X008531Y005007D01*
X008437Y004929D02*
X007102Y004929D01*
X007086Y004850D02*
X008375Y004850D01*
X008343Y004772D02*
X007041Y004772D01*
X006923Y004693D02*
X008323Y004693D01*
X008323Y004615D02*
X002163Y004615D01*
X002163Y004693D02*
X006762Y004693D01*
X006645Y004772D02*
X002143Y004772D01*
X002110Y004850D02*
X003616Y004850D01*
X003646Y004820D02*
X003573Y004893D01*
X003534Y004988D01*
X003534Y005092D01*
X003573Y005187D01*
X003646Y005260D01*
X003741Y005299D01*
X003844Y005299D01*
X003940Y005260D01*
X004012Y005187D01*
X004052Y005092D01*
X004052Y004988D01*
X004012Y004893D01*
X003940Y004820D01*
X003844Y004781D01*
X003741Y004781D01*
X003646Y004820D01*
X003559Y004929D02*
X002048Y004929D01*
X001954Y005007D02*
X003534Y005007D01*
X003534Y005086D02*
X001403Y005086D01*
X001403Y005164D02*
X003564Y005164D01*
X003629Y005243D02*
X001881Y005243D01*
X002018Y005321D02*
X008468Y005321D01*
X008389Y005400D02*
X002096Y005400D01*
X002130Y005478D02*
X008355Y005478D01*
X008323Y005557D02*
X002163Y005557D01*
X002163Y005635D02*
X004881Y005635D01*
X004896Y005620D02*
X004991Y005581D01*
X005094Y005581D01*
X005190Y005620D01*
X005262Y005693D01*
X005302Y005788D01*
X005302Y005892D01*
X005262Y005987D01*
X005190Y006060D01*
X005094Y006099D01*
X004991Y006099D01*
X004896Y006060D01*
X004823Y005987D01*
X004784Y005892D01*
X004784Y005788D01*
X004823Y005693D01*
X004896Y005620D01*
X004815Y005714D02*
X002163Y005714D01*
X002134Y005792D02*
X004784Y005792D01*
X004784Y005871D02*
X002102Y005871D01*
X002028Y005949D02*
X004808Y005949D01*
X004864Y006028D02*
X001905Y006028D01*
X001930Y006263D02*
X008555Y006263D01*
X008447Y006342D02*
X008170Y006342D01*
X008289Y006420D02*
X008379Y006420D01*
X008347Y006499D02*
X008335Y006499D01*
X008314Y006734D02*
X008327Y006734D01*
X008360Y006813D02*
X008233Y006813D01*
X008400Y006891D02*
X005569Y006891D01*
X005544Y006881D02*
X005640Y006920D01*
X005712Y006993D01*
X005752Y007088D01*
X005752Y007192D01*
X005736Y007231D01*
X005794Y007231D01*
X005890Y007270D01*
X005962Y007343D01*
X006002Y007438D01*
X006002Y007542D01*
X005962Y007637D01*
X005890Y007710D01*
X005794Y007749D01*
X005691Y007749D01*
X005596Y007710D01*
X005523Y007637D01*
X005493Y007563D01*
X005462Y007637D01*
X005390Y007710D01*
X005294Y007749D01*
X005191Y007749D01*
X005096Y007710D01*
X005023Y007637D01*
X004984Y007542D01*
X004984Y007533D01*
X004944Y007549D01*
X004841Y007549D01*
X004787Y007527D01*
X004762Y007587D01*
X004690Y007660D01*
X004594Y007699D01*
X004491Y007699D01*
X004396Y007660D01*
X004323Y007587D01*
X004284Y007492D01*
X004284Y007388D01*
X004323Y007293D01*
X004396Y007220D01*
X004491Y007181D01*
X004594Y007181D01*
X004648Y007203D01*
X004673Y007143D01*
X004746Y007070D01*
X004841Y007031D01*
X004944Y007031D01*
X005040Y007070D01*
X005112Y007143D01*
X005152Y007238D01*
X005152Y007247D01*
X005191Y007231D01*
X005250Y007231D01*
X005234Y007192D01*
X005234Y007088D01*
X005273Y006993D01*
X005346Y006920D01*
X005441Y006881D01*
X005544Y006881D01*
X005689Y006970D02*
X008478Y006970D01*
X008630Y007048D02*
X005735Y007048D01*
X005752Y007127D02*
X006640Y007127D01*
X006646Y007120D02*
X006741Y007081D01*
X006844Y007081D01*
X006940Y007120D01*
X007012Y007193D01*
X007052Y007288D01*
X007052Y007392D01*
X007012Y007487D01*
X006940Y007560D01*
X006844Y007599D01*
X006741Y007599D01*
X006687Y007577D01*
X006662Y007637D01*
X006590Y007710D01*
X006494Y007749D01*
X006391Y007749D01*
X006296Y007710D01*
X006223Y007637D01*
X006184Y007542D01*
X006184Y007438D01*
X006223Y007343D01*
X006296Y007270D01*
X006391Y007231D01*
X006494Y007231D01*
X006548Y007253D01*
X006573Y007193D01*
X006646Y007120D01*
X006568Y007205D02*
X005746Y007205D01*
X005903Y007284D02*
X006283Y007284D01*
X006215Y007362D02*
X005970Y007362D01*
X006002Y007441D02*
X006184Y007441D01*
X006184Y007519D02*
X006002Y007519D01*
X005979Y007598D02*
X006207Y007598D01*
X006262Y007676D02*
X005923Y007676D01*
X005562Y007676D02*
X005423Y007676D01*
X005479Y007598D02*
X005507Y007598D01*
X005239Y007205D02*
X005138Y007205D01*
X005096Y007127D02*
X005234Y007127D01*
X005251Y007048D02*
X004986Y007048D01*
X004800Y007048D02*
X003654Y007048D01*
X003613Y007031D02*
X003708Y007070D01*
X003781Y007143D01*
X003821Y007238D01*
X003821Y007342D01*
X003781Y007437D01*
X003708Y007510D01*
X003613Y007549D01*
X003510Y007549D01*
X003415Y007510D01*
X003342Y007437D01*
X003303Y007342D01*
X003303Y007238D01*
X003342Y007143D01*
X003415Y007070D01*
X003510Y007031D01*
X003613Y007031D01*
X003469Y007048D02*
X001855Y007048D01*
X002007Y006970D02*
X004520Y006970D01*
X004496Y006960D02*
X004591Y006999D01*
X004694Y006999D01*
X004790Y006960D01*
X004862Y006887D01*
X004902Y006792D01*
X004902Y006688D01*
X004862Y006593D01*
X004790Y006520D01*
X004694Y006481D01*
X004591Y006481D01*
X004496Y006520D01*
X004423Y006593D01*
X004384Y006688D01*
X004384Y006792D01*
X004423Y006887D01*
X004496Y006960D01*
X004427Y006891D02*
X002086Y006891D01*
X002126Y006813D02*
X004392Y006813D01*
X004384Y006734D02*
X002158Y006734D01*
X002163Y006656D02*
X004397Y006656D01*
X004439Y006577D02*
X002163Y006577D01*
X002139Y006499D02*
X004549Y006499D01*
X004737Y006499D02*
X007850Y006499D01*
X007834Y006577D02*
X004846Y006577D01*
X004888Y006656D02*
X007840Y006656D01*
X007872Y006734D02*
X004902Y006734D01*
X004893Y006813D02*
X007953Y006813D01*
X007896Y006420D02*
X002106Y006420D01*
X002038Y006342D02*
X008016Y006342D01*
X008384Y005871D02*
X005994Y005871D01*
X006002Y005888D02*
X005962Y005793D01*
X005890Y005720D01*
X005794Y005681D01*
X005691Y005681D01*
X005596Y005720D01*
X005523Y005793D01*
X005484Y005888D01*
X005484Y005992D01*
X005523Y006087D01*
X005596Y006160D01*
X005691Y006199D01*
X005794Y006199D01*
X005890Y006160D01*
X005962Y006087D01*
X006002Y005992D01*
X006002Y005888D01*
X006002Y005949D02*
X008458Y005949D01*
X008581Y006028D02*
X005987Y006028D01*
X005943Y006106D02*
X009083Y006106D01*
X009083Y006028D02*
X008905Y006028D01*
X009028Y005949D02*
X009083Y005949D01*
X009083Y006185D02*
X005829Y006185D01*
X005656Y006185D02*
X001403Y006185D01*
X001403Y006263D02*
X001555Y006263D01*
X001447Y006342D02*
X001403Y006342D01*
X001403Y006106D02*
X005542Y006106D01*
X005499Y006028D02*
X005222Y006028D01*
X005278Y005949D02*
X005484Y005949D01*
X005491Y005871D02*
X005302Y005871D01*
X005302Y005792D02*
X005524Y005792D01*
X005613Y005714D02*
X005271Y005714D01*
X005204Y005635D02*
X008323Y005635D01*
X008323Y005714D02*
X005873Y005714D01*
X005961Y005792D02*
X008351Y005792D01*
X008605Y005243D02*
X003957Y005243D01*
X004022Y005164D02*
X006707Y005164D01*
X006623Y005086D02*
X004052Y005086D01*
X004052Y005007D02*
X006590Y005007D01*
X006584Y004929D02*
X004027Y004929D01*
X003969Y004850D02*
X006600Y004850D01*
X006979Y005164D02*
X009083Y005164D01*
X009083Y005243D02*
X008881Y005243D01*
X009018Y005321D02*
X009083Y005321D01*
X009083Y006263D02*
X008930Y006263D01*
X009038Y006342D02*
X009083Y006342D01*
X009083Y006970D02*
X009007Y006970D01*
X009083Y007048D02*
X008855Y007048D01*
X009083Y007127D02*
X006946Y007127D01*
X007017Y007205D02*
X009083Y007205D01*
X009083Y007284D02*
X008980Y007284D01*
X009059Y007362D02*
X009083Y007362D01*
X009065Y007912D02*
X009083Y007912D01*
X009083Y007990D02*
X008987Y007990D01*
X009083Y008069D02*
X001403Y008069D01*
X001403Y008147D02*
X007102Y008147D01*
X007141Y008131D02*
X007046Y008170D01*
X006973Y008243D01*
X006934Y008338D01*
X006934Y008442D01*
X006973Y008537D01*
X007046Y008610D01*
X007141Y008649D01*
X007244Y008649D01*
X007340Y008610D01*
X007412Y008537D01*
X007452Y008442D01*
X007452Y008338D01*
X007412Y008243D01*
X007340Y008170D01*
X007244Y008131D01*
X007141Y008131D01*
X007283Y008147D02*
X007752Y008147D01*
X007791Y008131D02*
X007696Y008170D01*
X007623Y008243D01*
X007584Y008338D01*
X007584Y008442D01*
X007623Y008537D01*
X007696Y008610D01*
X007791Y008649D01*
X007894Y008649D01*
X007990Y008610D01*
X008062Y008537D01*
X008102Y008442D01*
X008102Y008338D01*
X008062Y008243D01*
X007990Y008170D01*
X007894Y008131D01*
X007791Y008131D01*
X007933Y008147D02*
X009083Y008147D01*
X009083Y008226D02*
X008840Y008226D01*
X009001Y008304D02*
X009083Y008304D01*
X009079Y008383D02*
X009083Y008383D01*
X008646Y008226D02*
X008045Y008226D01*
X008088Y008304D02*
X008485Y008304D01*
X008406Y008383D02*
X008102Y008383D01*
X008094Y008461D02*
X008362Y008461D01*
X008330Y008540D02*
X008060Y008540D01*
X007969Y008618D02*
X008323Y008618D01*
X008323Y008697D02*
X002916Y008697D01*
X002976Y008775D02*
X008344Y008775D01*
X008377Y008854D02*
X003002Y008854D01*
X003002Y008932D02*
X006239Y008932D01*
X006241Y008931D02*
X006344Y008931D01*
X006440Y008970D01*
X006512Y009043D01*
X006552Y009138D01*
X006552Y009242D01*
X006512Y009337D01*
X006440Y009410D01*
X006344Y009449D01*
X006241Y009449D01*
X006146Y009410D01*
X006073Y009337D01*
X006034Y009242D01*
X006034Y009138D01*
X006073Y009043D01*
X006146Y008970D01*
X006241Y008931D01*
X006347Y008932D02*
X008441Y008932D01*
X008540Y009011D02*
X006480Y009011D01*
X006531Y009089D02*
X007222Y009089D01*
X007241Y009081D02*
X007146Y009120D01*
X007073Y009193D01*
X007037Y009281D01*
X006941Y009281D01*
X006846Y009320D01*
X006773Y009393D01*
X006734Y009488D01*
X006734Y009592D01*
X006773Y009687D01*
X006846Y009760D01*
X006941Y009799D01*
X007044Y009799D01*
X007140Y009760D01*
X007212Y009687D01*
X007249Y009599D01*
X007271Y009599D01*
X007234Y009688D01*
X007234Y009792D01*
X007273Y009887D01*
X007346Y009960D01*
X007441Y009999D01*
X007544Y009999D01*
X007640Y009960D01*
X007712Y009887D01*
X007752Y009792D01*
X007752Y009712D01*
X007841Y009749D01*
X007944Y009749D01*
X008040Y009710D01*
X008112Y009637D01*
X008152Y009542D01*
X008152Y009438D01*
X008112Y009343D01*
X008040Y009270D01*
X007944Y009231D01*
X007841Y009231D01*
X007746Y009270D01*
X007673Y009343D01*
X007634Y009438D01*
X007634Y009518D01*
X007544Y009481D01*
X007515Y009481D01*
X007552Y009392D01*
X007552Y009288D01*
X007512Y009193D01*
X007440Y009120D01*
X007344Y009081D01*
X007241Y009081D01*
X007364Y009089D02*
X009083Y009089D01*
X009083Y009011D02*
X008946Y009011D01*
X009045Y008932D02*
X009083Y008932D01*
X009083Y009168D02*
X007487Y009168D01*
X007534Y009246D02*
X007805Y009246D01*
X007692Y009325D02*
X007552Y009325D01*
X007547Y009403D02*
X007648Y009403D01*
X007634Y009482D02*
X007546Y009482D01*
X007752Y009717D02*
X007764Y009717D01*
X007750Y009796D02*
X008353Y009796D01*
X008385Y009874D02*
X007718Y009874D01*
X007647Y009953D02*
X008461Y009953D01*
X008589Y010031D02*
X001896Y010031D01*
X002024Y009953D02*
X007339Y009953D01*
X007268Y009874D02*
X002100Y009874D01*
X002133Y009796D02*
X006933Y009796D01*
X006803Y009717D02*
X002163Y009717D01*
X002163Y009639D02*
X002266Y009639D01*
X002420Y009639D02*
X002666Y009639D01*
X002546Y009560D02*
X002539Y009560D01*
X002820Y009639D02*
X006753Y009639D01*
X006734Y009560D02*
X002939Y009560D01*
X002985Y009482D02*
X003218Y009482D01*
X003246Y009510D02*
X003173Y009437D01*
X003134Y009342D01*
X003134Y009238D01*
X003173Y009143D01*
X003246Y009070D01*
X003341Y009031D01*
X003444Y009031D01*
X003540Y009070D01*
X003612Y009143D01*
X003652Y009238D01*
X003652Y009342D01*
X003612Y009437D01*
X003540Y009510D01*
X003444Y009549D01*
X003341Y009549D01*
X003246Y009510D01*
X003159Y009403D02*
X003002Y009403D01*
X002996Y009325D02*
X003134Y009325D01*
X003134Y009246D02*
X002964Y009246D01*
X002883Y009168D02*
X003163Y009168D01*
X003227Y009089D02*
X002910Y009089D01*
X002973Y009011D02*
X004920Y009011D01*
X004896Y009020D02*
X004991Y008981D01*
X005094Y008981D01*
X005190Y009020D01*
X005262Y009093D01*
X005302Y009188D01*
X005302Y009292D01*
X005262Y009387D01*
X005190Y009460D01*
X005094Y009499D01*
X004991Y009499D01*
X004896Y009460D01*
X004823Y009387D01*
X004784Y009292D01*
X004784Y009188D01*
X004823Y009093D01*
X004896Y009020D01*
X004827Y009089D02*
X003558Y009089D01*
X003622Y009168D02*
X004792Y009168D01*
X004784Y009246D02*
X003652Y009246D01*
X003652Y009325D02*
X004797Y009325D01*
X004839Y009403D02*
X003626Y009403D01*
X003568Y009482D02*
X004949Y009482D01*
X005137Y009482D02*
X006737Y009482D01*
X006769Y009403D02*
X006446Y009403D01*
X006517Y009325D02*
X006842Y009325D01*
X007051Y009246D02*
X006550Y009246D01*
X006552Y009168D02*
X007099Y009168D01*
X007232Y009639D02*
X007254Y009639D01*
X007234Y009717D02*
X007182Y009717D01*
X007235Y009796D02*
X007053Y009796D01*
X007066Y008618D02*
X004971Y008618D01*
X004960Y008630D02*
X004864Y008669D01*
X004761Y008669D01*
X004666Y008630D01*
X004593Y008557D01*
X004554Y008462D01*
X004554Y008358D01*
X004593Y008263D01*
X004666Y008190D01*
X004761Y008151D01*
X004864Y008151D01*
X004960Y008190D01*
X005032Y008263D01*
X005072Y008358D01*
X005072Y008462D01*
X005032Y008557D01*
X004960Y008630D01*
X005040Y008540D02*
X006976Y008540D01*
X006942Y008461D02*
X005072Y008461D01*
X005072Y008383D02*
X006934Y008383D01*
X006948Y008304D02*
X005049Y008304D01*
X004995Y008226D02*
X006991Y008226D01*
X007395Y008226D02*
X007641Y008226D01*
X007598Y008304D02*
X007438Y008304D01*
X007452Y008383D02*
X007584Y008383D01*
X007592Y008461D02*
X007444Y008461D01*
X007410Y008540D02*
X007626Y008540D01*
X007716Y008618D02*
X007319Y008618D01*
X007981Y009246D02*
X008596Y009246D01*
X008464Y009325D02*
X008094Y009325D01*
X008137Y009403D02*
X008386Y009403D01*
X008354Y009482D02*
X008152Y009482D01*
X008144Y009560D02*
X008323Y009560D01*
X008323Y009639D02*
X008111Y009639D01*
X008022Y009717D02*
X008323Y009717D01*
X008547Y010267D02*
X001939Y010267D01*
X002042Y010345D02*
X008444Y010345D01*
X008378Y010424D02*
X002108Y010424D01*
X002140Y010502D02*
X008345Y010502D01*
X008323Y010581D02*
X002163Y010581D01*
X002163Y010659D02*
X004173Y010659D01*
X004146Y010670D02*
X004241Y010631D01*
X004344Y010631D01*
X004440Y010670D01*
X004512Y010743D01*
X004552Y010838D01*
X004552Y010942D01*
X004512Y011037D01*
X004440Y011110D01*
X004344Y011149D01*
X004241Y011149D01*
X004146Y011110D01*
X004073Y011037D01*
X004034Y010942D01*
X004034Y010838D01*
X004073Y010743D01*
X004146Y010670D01*
X004079Y010738D02*
X002157Y010738D01*
X002124Y010816D02*
X004043Y010816D01*
X004034Y010895D02*
X002082Y010895D01*
X002004Y010973D02*
X004047Y010973D01*
X004088Y011052D02*
X001847Y011052D01*
X001639Y011052D02*
X001403Y011052D01*
X001403Y011130D02*
X004195Y011130D01*
X004390Y011130D02*
X009083Y011130D01*
X009083Y011052D02*
X008847Y011052D01*
X008831Y011209D02*
X009083Y011209D01*
X009083Y011287D02*
X009006Y011287D01*
X008783Y011287D02*
X008703Y011287D01*
X008703Y011209D02*
X008783Y011209D01*
X008654Y011209D02*
X001403Y011209D01*
X001403Y011287D02*
X001502Y011287D01*
X001423Y011366D02*
X001403Y011366D01*
X001403Y010973D02*
X001482Y010973D01*
X001403Y010895D02*
X001403Y010895D01*
X001403Y010345D02*
X001444Y010345D01*
X001403Y010267D02*
X001547Y010267D01*
X001403Y010188D02*
X009083Y010188D01*
X009083Y010110D02*
X001403Y010110D01*
X001403Y010031D02*
X001589Y010031D01*
X001461Y009953D02*
X001403Y009953D01*
X001403Y009325D02*
X001464Y009325D01*
X001403Y009246D02*
X001596Y009246D01*
X001540Y009011D02*
X001403Y009011D01*
X001403Y009089D02*
X002575Y009089D01*
X002603Y009168D02*
X002483Y009168D01*
X002512Y009011D02*
X001946Y009011D01*
X002045Y008932D02*
X002484Y008932D01*
X002340Y008854D02*
X002109Y008854D01*
X002141Y008775D02*
X002268Y008775D01*
X002236Y008697D02*
X002163Y008697D01*
X002163Y008618D02*
X002234Y008618D01*
X002254Y008540D02*
X002156Y008540D01*
X002123Y008461D02*
X002305Y008461D01*
X002437Y008383D02*
X002079Y008383D01*
X002001Y008304D02*
X004576Y008304D01*
X004554Y008383D02*
X002548Y008383D01*
X002680Y008461D02*
X004554Y008461D01*
X004586Y008540D02*
X002732Y008540D01*
X002752Y008618D02*
X004654Y008618D01*
X004631Y008226D02*
X001840Y008226D01*
X001646Y008226D02*
X001403Y008226D01*
X001403Y008304D02*
X001485Y008304D01*
X001406Y008383D02*
X001403Y008383D01*
X001403Y007990D02*
X001499Y007990D01*
X001420Y007912D02*
X001403Y007912D01*
X001403Y007362D02*
X001427Y007362D01*
X001403Y007284D02*
X001506Y007284D01*
X001403Y007205D02*
X003316Y007205D01*
X003303Y007284D02*
X001980Y007284D01*
X002059Y007362D02*
X003311Y007362D01*
X003346Y007441D02*
X002115Y007441D01*
X002147Y007519D02*
X003438Y007519D01*
X003359Y007127D02*
X001403Y007127D01*
X001403Y007048D02*
X001630Y007048D01*
X001478Y006970D02*
X001403Y006970D01*
X001403Y006028D02*
X001581Y006028D01*
X001458Y005949D02*
X001403Y005949D01*
X001403Y005321D02*
X001468Y005321D01*
X001403Y005243D02*
X001605Y005243D01*
X001531Y005007D02*
X001403Y005007D01*
X001403Y004929D02*
X001437Y004929D01*
X001410Y004379D02*
X001403Y004379D01*
X001403Y004301D02*
X001488Y004301D01*
X001997Y004301D02*
X008488Y004301D01*
X008410Y004379D02*
X002076Y004379D01*
X002122Y004458D02*
X008364Y004458D01*
X008331Y004536D02*
X002154Y004536D01*
X002146Y003516D02*
X008340Y003516D01*
X008372Y003437D02*
X007023Y003437D01*
X006862Y003437D02*
X002113Y003437D01*
X003765Y007127D02*
X004690Y007127D01*
X004766Y006970D02*
X005297Y006970D01*
X005417Y006891D02*
X004858Y006891D01*
X004433Y007205D02*
X003807Y007205D01*
X003821Y007284D02*
X004333Y007284D01*
X004295Y007362D02*
X003812Y007362D01*
X003778Y007441D02*
X004284Y007441D01*
X004295Y007519D02*
X003686Y007519D01*
X004334Y007598D02*
X002163Y007598D01*
X002163Y007676D02*
X004436Y007676D01*
X004650Y007676D02*
X005062Y007676D01*
X005007Y007598D02*
X004752Y007598D01*
X005166Y009011D02*
X006106Y009011D01*
X006054Y009089D02*
X005258Y009089D01*
X005293Y009168D02*
X006034Y009168D01*
X006036Y009246D02*
X005302Y009246D01*
X005288Y009325D02*
X006068Y009325D01*
X006139Y009403D02*
X005246Y009403D01*
X004412Y010659D02*
X008323Y010659D01*
X008329Y010738D02*
X004507Y010738D01*
X004543Y010816D02*
X008361Y010816D01*
X008403Y010895D02*
X004552Y010895D01*
X004539Y010973D02*
X008482Y010973D01*
X008639Y011052D02*
X004498Y011052D01*
X004530Y011496D02*
X004420Y011496D01*
X004318Y011539D01*
X004313Y011544D01*
X004312Y011543D01*
X004240Y011470D01*
X004144Y011431D01*
X004041Y011431D01*
X003946Y011470D01*
X003873Y011543D01*
X003834Y011638D01*
X003834Y011742D01*
X003873Y011837D01*
X003946Y011910D01*
X004041Y011949D01*
X004144Y011949D01*
X004232Y011913D01*
X004240Y011931D01*
X004318Y012009D01*
X004420Y012051D01*
X004530Y012051D01*
X004632Y012009D01*
X004710Y011931D01*
X004753Y011829D01*
X004753Y011719D01*
X004710Y011617D01*
X004632Y011539D01*
X004530Y011496D01*
X004593Y011523D02*
X005892Y011523D01*
X005853Y011539D02*
X005955Y011496D01*
X006066Y011496D01*
X006168Y011539D01*
X006246Y011617D01*
X006288Y011719D01*
X006288Y011829D01*
X006246Y011931D01*
X006168Y012009D01*
X006066Y012051D01*
X005955Y012051D01*
X005853Y012009D01*
X005775Y011931D01*
X005733Y011829D01*
X005733Y011719D01*
X005775Y011617D01*
X005853Y011539D01*
X005791Y011601D02*
X004695Y011601D01*
X004736Y011680D02*
X005749Y011680D01*
X005733Y011758D02*
X004753Y011758D01*
X004749Y011837D02*
X005180Y011837D01*
X005196Y011820D02*
X005291Y011781D01*
X005394Y011781D01*
X005490Y011820D01*
X005562Y011893D01*
X005602Y011988D01*
X005602Y012092D01*
X005562Y012187D01*
X005490Y012260D01*
X005394Y012299D01*
X005291Y012299D01*
X005196Y012260D01*
X005123Y012187D01*
X005084Y012092D01*
X005084Y011988D01*
X005123Y011893D01*
X005196Y011820D01*
X005114Y011915D02*
X004717Y011915D01*
X004648Y011994D02*
X005084Y011994D01*
X005084Y012072D02*
X001691Y012072D01*
X001736Y012151D02*
X001744Y012151D01*
X001942Y012151D02*
X005108Y012151D01*
X005165Y012229D02*
X002048Y012229D01*
X002089Y012308D02*
X009083Y012308D01*
X009083Y012386D02*
X002102Y012386D01*
X002092Y012465D02*
X009083Y012465D01*
X009083Y012543D02*
X002056Y012543D01*
X001961Y012622D02*
X009083Y012622D01*
X009083Y012700D02*
X001403Y012700D01*
X001403Y012622D02*
X001725Y012622D01*
X001629Y012543D02*
X001403Y012543D01*
X001403Y012779D02*
X009083Y012779D01*
X009083Y012857D02*
X001403Y012857D01*
X001403Y012936D02*
X009083Y012936D01*
X009083Y012229D02*
X005520Y012229D01*
X005577Y012151D02*
X006787Y012151D01*
X006796Y012160D02*
X006723Y012087D01*
X006684Y011992D01*
X006684Y011888D01*
X006723Y011793D01*
X006796Y011720D01*
X006891Y011681D01*
X006994Y011681D01*
X007090Y011720D01*
X007162Y011793D01*
X007202Y011888D01*
X007202Y011992D01*
X007162Y012087D01*
X007090Y012160D01*
X006994Y012199D01*
X006891Y012199D01*
X006796Y012160D01*
X006717Y012072D02*
X005602Y012072D01*
X005602Y011994D02*
X005838Y011994D01*
X005769Y011915D02*
X005571Y011915D01*
X005506Y011837D02*
X005736Y011837D01*
X006183Y011994D02*
X006685Y011994D01*
X006684Y011915D02*
X006252Y011915D01*
X006285Y011837D02*
X006705Y011837D01*
X006758Y011758D02*
X006288Y011758D01*
X006272Y011680D02*
X008703Y011680D01*
X008703Y011758D02*
X008783Y011758D01*
X008783Y011837D02*
X008703Y011837D01*
X008703Y011915D02*
X008783Y011915D01*
X008783Y011994D02*
X008703Y011994D01*
X008703Y012072D02*
X008783Y012072D01*
X008828Y012072D02*
X009083Y012072D01*
X009083Y011994D02*
X009005Y011994D01*
X009083Y012151D02*
X007099Y012151D01*
X007169Y012072D02*
X008658Y012072D01*
X008481Y011994D02*
X007201Y011994D01*
X007202Y011915D02*
X008399Y011915D01*
X008349Y011837D02*
X007180Y011837D01*
X007127Y011758D02*
X008319Y011758D01*
X008318Y011523D02*
X006129Y011523D01*
X006230Y011601D02*
X008703Y011601D01*
X008703Y011523D02*
X008783Y011523D01*
X008783Y011444D02*
X008703Y011444D01*
X008703Y011366D02*
X008783Y011366D01*
X009004Y010973D02*
X009083Y010973D01*
X009082Y010895D02*
X009083Y010895D01*
X009083Y010345D02*
X009042Y010345D01*
X009083Y010267D02*
X008939Y010267D01*
X008896Y010031D02*
X009083Y010031D01*
X009083Y009953D02*
X009024Y009953D01*
X009021Y009325D02*
X009083Y009325D01*
X009083Y009246D02*
X008889Y009246D01*
X008499Y007990D02*
X001987Y007990D01*
X002065Y007912D02*
X008420Y007912D01*
X008368Y007833D02*
X002117Y007833D01*
X002150Y007755D02*
X008336Y007755D01*
X008323Y007676D02*
X006623Y007676D01*
X006679Y007598D02*
X006738Y007598D01*
X006848Y007598D02*
X008323Y007598D01*
X008338Y007519D02*
X006980Y007519D01*
X007032Y007441D02*
X008371Y007441D01*
X008427Y007362D02*
X007052Y007362D01*
X007050Y007284D02*
X008506Y007284D01*
X008430Y003359D02*
X007141Y003359D01*
X007186Y003280D02*
X008514Y003280D01*
X008864Y003045D02*
X009083Y003045D01*
X009083Y003123D02*
X007195Y003123D01*
X007202Y003202D02*
X009083Y003202D01*
X009083Y003280D02*
X008971Y003280D01*
X009055Y003359D02*
X009083Y003359D01*
X009083Y002966D02*
X009011Y002966D01*
X009035Y002338D02*
X009083Y002338D01*
X009083Y002260D02*
X008922Y002260D01*
X008913Y002024D02*
X009083Y002024D01*
X009083Y001946D02*
X009031Y001946D01*
X008480Y011287D02*
X001984Y011287D01*
X002062Y011366D02*
X008398Y011366D01*
X008349Y011444D02*
X004176Y011444D01*
X004292Y011523D02*
X004357Y011523D01*
X004233Y011915D02*
X004226Y011915D01*
X004302Y011994D02*
X001983Y011994D01*
X002062Y011915D02*
X003959Y011915D01*
X003873Y011837D02*
X002116Y011837D01*
X002149Y011758D02*
X003841Y011758D01*
X003834Y011680D02*
X002163Y011680D01*
X002163Y011601D02*
X003849Y011601D01*
X003894Y011523D02*
X002149Y011523D01*
X002116Y011444D02*
X004010Y011444D01*
X002203Y009168D02*
X001403Y009168D01*
X001403Y008932D02*
X001441Y008932D01*
X001889Y009246D02*
X002122Y009246D01*
X002090Y009325D02*
X002021Y009325D01*
M02*
