G75*
G70*
%OFA0B0*%
%FSLAX24Y24*%
%IPPOS*%
%LPD*%
%AMOC8*
5,1,8,0,0,1.08239X$1,22.5*
%
%ADD10R,0.0513X0.0828*%
%ADD11R,0.0474X0.0513*%
%ADD12C,0.0316*%
%ADD13C,0.0517*%
%ADD14R,0.0159X0.0474*%
%ADD15R,0.0474X0.0159*%
%ADD16R,0.0513X0.0474*%
%ADD17R,0.0300X0.0670*%
%ADD18R,0.0198X0.0470*%
%ADD19R,0.0828X0.0513*%
%ADD20R,0.0580X0.0830*%
%ADD21R,0.1580X0.0830*%
%ADD22R,0.0316X0.0395*%
%ADD23R,0.0277X0.0395*%
%ADD24R,0.0631X0.0710*%
%ADD25C,0.0770*%
D10*
X003040Y003762D03*
X003946Y003762D03*
X003946Y005218D03*
X003040Y005218D03*
D11*
X003243Y006005D03*
X003243Y006675D03*
X003427Y010340D03*
X003427Y010990D03*
X002758Y010990D03*
X002758Y010340D03*
X002858Y013690D03*
X002227Y013690D03*
X001558Y013690D03*
X003527Y013690D03*
X007793Y008475D03*
X007793Y007805D03*
X005643Y002975D03*
X005643Y002305D03*
X004993Y002305D03*
X004993Y002975D03*
X004343Y002975D03*
X004343Y002305D03*
X003693Y002305D03*
X003693Y002975D03*
X003043Y002975D03*
X003043Y002305D03*
D12*
X004475Y012813D03*
X006011Y012813D03*
D13*
X006335Y013422D02*
X006335Y013858D01*
X004150Y013858D02*
X004150Y013422D01*
D14*
G36*
X005841Y010381D02*
X005953Y010269D01*
X005619Y009935D01*
X005507Y010047D01*
X005841Y010381D01*
G37*
G36*
X005980Y010242D02*
X006092Y010130D01*
X005758Y009796D01*
X005646Y009908D01*
X005980Y010242D01*
G37*
G36*
X006119Y010103D02*
X006231Y009991D01*
X005897Y009657D01*
X005785Y009769D01*
X006119Y010103D01*
G37*
G36*
X006259Y009964D02*
X006371Y009852D01*
X006037Y009518D01*
X005925Y009630D01*
X006259Y009964D01*
G37*
G36*
X006398Y009825D02*
X006510Y009713D01*
X006176Y009379D01*
X006064Y009491D01*
X006398Y009825D01*
G37*
G36*
X006537Y009685D02*
X006649Y009573D01*
X006315Y009239D01*
X006203Y009351D01*
X006537Y009685D01*
G37*
G36*
X006676Y009546D02*
X006788Y009434D01*
X006454Y009100D01*
X006342Y009212D01*
X006676Y009546D01*
G37*
G36*
X006815Y009407D02*
X006927Y009295D01*
X006593Y008961D01*
X006481Y009073D01*
X006815Y009407D01*
G37*
G36*
X006955Y009268D02*
X007067Y009156D01*
X006733Y008822D01*
X006621Y008934D01*
X006955Y009268D01*
G37*
G36*
X007094Y009129D02*
X007206Y009017D01*
X006872Y008683D01*
X006760Y008795D01*
X007094Y009129D01*
G37*
G36*
X007233Y008989D02*
X007345Y008877D01*
X007011Y008543D01*
X006899Y008655D01*
X007233Y008989D01*
G37*
G36*
X007372Y008850D02*
X007484Y008738D01*
X007150Y008404D01*
X007038Y008516D01*
X007372Y008850D01*
G37*
G36*
X004867Y006345D02*
X004979Y006233D01*
X004645Y005899D01*
X004533Y006011D01*
X004867Y006345D01*
G37*
G36*
X004727Y006484D02*
X004839Y006372D01*
X004505Y006038D01*
X004393Y006150D01*
X004727Y006484D01*
G37*
G36*
X004588Y006623D02*
X004700Y006511D01*
X004366Y006177D01*
X004254Y006289D01*
X004588Y006623D01*
G37*
G36*
X004449Y006762D02*
X004561Y006650D01*
X004227Y006316D01*
X004115Y006428D01*
X004449Y006762D01*
G37*
G36*
X004310Y006901D02*
X004422Y006789D01*
X004088Y006455D01*
X003976Y006567D01*
X004310Y006901D01*
G37*
G36*
X004171Y007041D02*
X004283Y006929D01*
X003949Y006595D01*
X003837Y006707D01*
X004171Y007041D01*
G37*
G36*
X004031Y007180D02*
X004143Y007068D01*
X003809Y006734D01*
X003697Y006846D01*
X004031Y007180D01*
G37*
G36*
X003892Y007319D02*
X004004Y007207D01*
X003670Y006873D01*
X003558Y006985D01*
X003892Y007319D01*
G37*
G36*
X003753Y007458D02*
X003865Y007346D01*
X003531Y007012D01*
X003419Y007124D01*
X003753Y007458D01*
G37*
G36*
X003614Y007597D02*
X003726Y007485D01*
X003392Y007151D01*
X003280Y007263D01*
X003614Y007597D01*
G37*
G36*
X003475Y007737D02*
X003587Y007625D01*
X003253Y007291D01*
X003141Y007403D01*
X003475Y007737D01*
G37*
G36*
X003335Y007876D02*
X003447Y007764D01*
X003113Y007430D01*
X003001Y007542D01*
X003335Y007876D01*
G37*
D15*
G36*
X003113Y008850D02*
X003447Y008516D01*
X003335Y008404D01*
X003001Y008738D01*
X003113Y008850D01*
G37*
G36*
X003253Y008989D02*
X003587Y008655D01*
X003475Y008543D01*
X003141Y008877D01*
X003253Y008989D01*
G37*
G36*
X003392Y009129D02*
X003726Y008795D01*
X003614Y008683D01*
X003280Y009017D01*
X003392Y009129D01*
G37*
G36*
X003531Y009268D02*
X003865Y008934D01*
X003753Y008822D01*
X003419Y009156D01*
X003531Y009268D01*
G37*
G36*
X003670Y009407D02*
X004004Y009073D01*
X003892Y008961D01*
X003558Y009295D01*
X003670Y009407D01*
G37*
G36*
X003809Y009546D02*
X004143Y009212D01*
X004031Y009100D01*
X003697Y009434D01*
X003809Y009546D01*
G37*
G36*
X003949Y009685D02*
X004283Y009351D01*
X004171Y009239D01*
X003837Y009573D01*
X003949Y009685D01*
G37*
G36*
X004088Y009825D02*
X004422Y009491D01*
X004310Y009379D01*
X003976Y009713D01*
X004088Y009825D01*
G37*
G36*
X004227Y009964D02*
X004561Y009630D01*
X004449Y009518D01*
X004115Y009852D01*
X004227Y009964D01*
G37*
G36*
X004366Y010103D02*
X004700Y009769D01*
X004588Y009657D01*
X004254Y009991D01*
X004366Y010103D01*
G37*
G36*
X004505Y010242D02*
X004839Y009908D01*
X004727Y009796D01*
X004393Y010130D01*
X004505Y010242D01*
G37*
G36*
X004645Y010381D02*
X004979Y010047D01*
X004867Y009935D01*
X004533Y010269D01*
X004645Y010381D01*
G37*
G36*
X006593Y007319D02*
X006927Y006985D01*
X006815Y006873D01*
X006481Y007207D01*
X006593Y007319D01*
G37*
G36*
X006733Y007458D02*
X007067Y007124D01*
X006955Y007012D01*
X006621Y007346D01*
X006733Y007458D01*
G37*
G36*
X006872Y007597D02*
X007206Y007263D01*
X007094Y007151D01*
X006760Y007485D01*
X006872Y007597D01*
G37*
G36*
X007011Y007737D02*
X007345Y007403D01*
X007233Y007291D01*
X006899Y007625D01*
X007011Y007737D01*
G37*
G36*
X007150Y007876D02*
X007484Y007542D01*
X007372Y007430D01*
X007038Y007764D01*
X007150Y007876D01*
G37*
G36*
X006454Y007180D02*
X006788Y006846D01*
X006676Y006734D01*
X006342Y007068D01*
X006454Y007180D01*
G37*
G36*
X006315Y007041D02*
X006649Y006707D01*
X006537Y006595D01*
X006203Y006929D01*
X006315Y007041D01*
G37*
G36*
X006176Y006901D02*
X006510Y006567D01*
X006398Y006455D01*
X006064Y006789D01*
X006176Y006901D01*
G37*
G36*
X006037Y006762D02*
X006371Y006428D01*
X006259Y006316D01*
X005925Y006650D01*
X006037Y006762D01*
G37*
G36*
X005897Y006623D02*
X006231Y006289D01*
X006119Y006177D01*
X005785Y006511D01*
X005897Y006623D01*
G37*
G36*
X005758Y006484D02*
X006092Y006150D01*
X005980Y006038D01*
X005646Y006372D01*
X005758Y006484D01*
G37*
G36*
X005619Y006345D02*
X005953Y006011D01*
X005841Y005899D01*
X005507Y006233D01*
X005619Y006345D01*
G37*
D16*
X005577Y005590D03*
X004908Y005590D03*
X005643Y004475D03*
X005643Y003805D03*
X005577Y010610D03*
X004908Y010610D03*
X003427Y011690D03*
X002758Y011690D03*
X007058Y011690D03*
X007727Y011690D03*
X007827Y012840D03*
X007158Y012840D03*
D17*
X007293Y005430D03*
X007793Y005430D03*
X006793Y005430D03*
X006293Y005430D03*
X006293Y002550D03*
X006793Y002550D03*
X007293Y002550D03*
X007793Y002550D03*
D18*
X003349Y012375D03*
X003093Y012375D03*
X002837Y012375D03*
X002837Y013009D03*
X003093Y013009D03*
X003349Y013009D03*
D19*
X004793Y004832D03*
X004793Y003848D03*
D20*
X005243Y011320D03*
X006153Y011320D03*
X004333Y011320D03*
D21*
X005243Y013760D03*
D22*
X006841Y010785D03*
X006841Y010195D03*
X007845Y010195D03*
X007845Y010785D03*
D23*
X007500Y010785D03*
X007185Y010785D03*
X007185Y010195D03*
X007500Y010195D03*
D24*
X007142Y013640D03*
X008244Y013640D03*
D25*
X001743Y001640D03*
X001743Y002640D03*
X001743Y003640D03*
X001743Y004640D03*
X001743Y005640D03*
X001743Y006640D03*
X001743Y007640D03*
X001743Y008640D03*
X001743Y009640D03*
X001743Y010640D03*
X001743Y011640D03*
X001743Y012640D03*
X008743Y012640D03*
X008743Y011640D03*
X008743Y010640D03*
X008743Y009640D03*
X008743Y008640D03*
X008743Y007640D03*
X008743Y006640D03*
X008743Y005640D03*
X008743Y004640D03*
X008743Y003640D03*
X008743Y002640D03*
X008743Y001640D03*
M02*
