G75*
G70*
%OFA0B0*%
%FSLAX24Y24*%
%IPPOS*%
%LPD*%
%AMOC8*
5,1,8,0,0,1.08239X$1,22.5*
%
%ADD10R,0.0513X0.0474*%
%ADD11R,0.0395X0.0395*%
%ADD12C,0.0820*%
%ADD13R,0.0474X0.0513*%
%ADD14R,0.0218X0.0631*%
%ADD15R,0.0789X0.0828*%
%ADD16R,0.0828X0.0828*%
%ADD17R,0.0552X0.0552*%
%ADD18R,0.0552X0.0356*%
%ADD19R,0.0356X0.0552*%
%ADD20R,0.1025X0.0828*%
%ADD21R,0.0480X0.1080*%
%ADD22R,0.0474X0.0474*%
%ADD23C,0.0010*%
D10*
X003258Y008640D03*
X003927Y008640D03*
X003743Y009805D03*
X003743Y010475D03*
X003243Y010475D03*
X003243Y009805D03*
X002743Y009805D03*
X002743Y010475D03*
X006908Y011040D03*
X007577Y011040D03*
X007543Y011555D03*
X007543Y012225D03*
X007077Y001640D03*
X006408Y001640D03*
D11*
X003743Y010895D03*
X003743Y011485D03*
X003243Y011485D03*
X003243Y010895D03*
X002743Y010895D03*
X002743Y011485D03*
D12*
X001743Y000640D03*
X001743Y001640D03*
X001743Y002640D03*
X001743Y003640D03*
X001743Y004640D03*
X001743Y005640D03*
X001743Y006640D03*
X001743Y007640D03*
X001743Y008640D03*
X001743Y009640D03*
X001743Y010640D03*
X001743Y011640D03*
X008743Y011640D03*
X008743Y010640D03*
X008743Y009640D03*
X008743Y008640D03*
X008743Y007640D03*
X008743Y006640D03*
X008743Y005640D03*
X008743Y004640D03*
X008743Y003640D03*
X008743Y002640D03*
X008743Y001640D03*
X008743Y000640D03*
D13*
X006443Y000455D03*
X006443Y001125D03*
X003777Y001640D03*
X003108Y001640D03*
X005658Y008740D03*
X006327Y008740D03*
X006327Y009690D03*
X006327Y010540D03*
X005658Y010540D03*
X005658Y009690D03*
X002977Y012290D03*
X002977Y012790D03*
X002308Y012790D03*
X002308Y012290D03*
D14*
X004731Y011597D03*
X004987Y011597D03*
X005243Y011597D03*
X005499Y011597D03*
X005755Y011597D03*
D15*
X006818Y012640D03*
X003668Y012640D03*
D16*
X004743Y012640D03*
X005743Y012640D03*
D17*
X007546Y007983D03*
X007546Y002274D03*
X002940Y002274D03*
X002940Y007983D03*
D18*
X002940Y007254D03*
X002940Y006782D03*
X002940Y006309D03*
X002940Y005837D03*
X002940Y005364D03*
X002940Y004892D03*
X002940Y004420D03*
X002940Y003947D03*
X002940Y003475D03*
X002940Y003002D03*
X007546Y003002D03*
X007546Y003475D03*
X007546Y003947D03*
X007546Y004420D03*
X007546Y004892D03*
X007546Y005364D03*
X007546Y005837D03*
X007546Y006309D03*
X007546Y006782D03*
X007546Y007254D03*
D19*
X006896Y007983D03*
X006424Y007983D03*
X005951Y007983D03*
X005479Y007983D03*
X005007Y007983D03*
X004534Y007983D03*
X004062Y007983D03*
X003589Y007983D03*
X003589Y002274D03*
X004062Y002274D03*
X004534Y002274D03*
X005007Y002274D03*
X005479Y002274D03*
X005951Y002274D03*
X006424Y002274D03*
X006896Y002274D03*
D20*
X006089Y003711D03*
X006089Y005128D03*
X006089Y006546D03*
X004396Y006546D03*
X004396Y005128D03*
X004396Y003711D03*
D21*
X005543Y000740D03*
X002943Y000740D03*
D22*
X004428Y008813D03*
X005058Y008813D03*
X005058Y010467D03*
X004428Y010467D03*
X006928Y010467D03*
X007558Y010467D03*
X007558Y008813D03*
X006928Y008813D03*
D23*
X008693Y012150D02*
X008743Y012390D01*
X008693Y012420D01*
X008643Y012390D01*
X008693Y012150D01*
X008693Y012151D02*
X008693Y012151D01*
X008691Y012159D02*
X008695Y012159D01*
X008697Y012168D02*
X008689Y012168D01*
X008687Y012176D02*
X008698Y012176D01*
X008700Y012185D02*
X008686Y012185D01*
X008684Y012193D02*
X008702Y012193D01*
X008704Y012202D02*
X008682Y012202D01*
X008680Y012210D02*
X008705Y012210D01*
X008707Y012219D02*
X008678Y012219D01*
X008677Y012227D02*
X008709Y012227D01*
X008711Y012236D02*
X008675Y012236D01*
X008673Y012244D02*
X008712Y012244D01*
X008714Y012253D02*
X008671Y012253D01*
X008670Y012261D02*
X008716Y012261D01*
X008718Y012270D02*
X008668Y012270D01*
X008666Y012278D02*
X008720Y012278D01*
X008721Y012287D02*
X008664Y012287D01*
X008663Y012295D02*
X008723Y012295D01*
X008725Y012304D02*
X008661Y012304D01*
X008659Y012312D02*
X008727Y012312D01*
X008728Y012321D02*
X008657Y012321D01*
X008655Y012329D02*
X008730Y012329D01*
X008732Y012338D02*
X008654Y012338D01*
X008652Y012346D02*
X008734Y012346D01*
X008735Y012355D02*
X008650Y012355D01*
X008648Y012363D02*
X008737Y012363D01*
X008739Y012372D02*
X008647Y012372D01*
X008645Y012380D02*
X008741Y012380D01*
X008743Y012389D02*
X008643Y012389D01*
X008655Y012397D02*
X008731Y012397D01*
X008716Y012406D02*
X008669Y012406D01*
X008683Y012414D02*
X008702Y012414D01*
X008731Y012457D02*
X008895Y012457D01*
X008890Y012465D02*
X008717Y012465D01*
X008703Y012474D02*
X008884Y012474D01*
X008879Y012482D02*
X008509Y012482D01*
X008504Y012474D02*
X008683Y012474D01*
X008693Y012480D02*
X009003Y012290D01*
X008803Y012600D01*
X009003Y012900D01*
X008693Y012710D01*
X008393Y012900D01*
X008583Y012600D01*
X008383Y012280D01*
X008693Y012480D01*
X008670Y012465D02*
X008499Y012465D01*
X008493Y012457D02*
X008657Y012457D01*
X008644Y012448D02*
X008488Y012448D01*
X008483Y012440D02*
X008631Y012440D01*
X008617Y012431D02*
X008477Y012431D01*
X008472Y012423D02*
X008604Y012423D01*
X008591Y012414D02*
X008467Y012414D01*
X008461Y012406D02*
X008578Y012406D01*
X008565Y012397D02*
X008456Y012397D01*
X008451Y012389D02*
X008552Y012389D01*
X008538Y012380D02*
X008446Y012380D01*
X008440Y012372D02*
X008525Y012372D01*
X008512Y012363D02*
X008435Y012363D01*
X008430Y012355D02*
X008499Y012355D01*
X008486Y012346D02*
X008424Y012346D01*
X008419Y012338D02*
X008472Y012338D01*
X008459Y012329D02*
X008414Y012329D01*
X008408Y012321D02*
X008446Y012321D01*
X008433Y012312D02*
X008403Y012312D01*
X008398Y012304D02*
X008420Y012304D01*
X008407Y012295D02*
X008392Y012295D01*
X008393Y012287D02*
X008387Y012287D01*
X008515Y012491D02*
X008873Y012491D01*
X008868Y012499D02*
X008520Y012499D01*
X008525Y012508D02*
X008862Y012508D01*
X008857Y012516D02*
X008531Y012516D01*
X008536Y012525D02*
X008851Y012525D01*
X008846Y012533D02*
X008541Y012533D01*
X008546Y012542D02*
X008840Y012542D01*
X008835Y012550D02*
X008552Y012550D01*
X008557Y012559D02*
X008829Y012559D01*
X008824Y012567D02*
X008562Y012567D01*
X008568Y012576D02*
X008818Y012576D01*
X008813Y012584D02*
X008573Y012584D01*
X008578Y012593D02*
X008807Y012593D01*
X008804Y012601D02*
X008582Y012601D01*
X008577Y012610D02*
X008809Y012610D01*
X008815Y012618D02*
X008571Y012618D01*
X008566Y012627D02*
X008821Y012627D01*
X008826Y012635D02*
X008560Y012635D01*
X008555Y012644D02*
X008832Y012644D01*
X008838Y012652D02*
X008550Y012652D01*
X008544Y012661D02*
X008843Y012661D01*
X008849Y012669D02*
X008539Y012669D01*
X008533Y012678D02*
X008855Y012678D01*
X008860Y012686D02*
X008528Y012686D01*
X008523Y012695D02*
X008866Y012695D01*
X008872Y012703D02*
X008517Y012703D01*
X008512Y012712D02*
X008690Y012712D01*
X008696Y012712D02*
X008877Y012712D01*
X008883Y012720D02*
X008710Y012720D01*
X008724Y012729D02*
X008889Y012729D01*
X008894Y012737D02*
X008737Y012737D01*
X008751Y012746D02*
X008900Y012746D01*
X008906Y012754D02*
X008765Y012754D01*
X008779Y012763D02*
X008911Y012763D01*
X008917Y012771D02*
X008793Y012771D01*
X008807Y012780D02*
X008923Y012780D01*
X008928Y012788D02*
X008821Y012788D01*
X008835Y012797D02*
X008934Y012797D01*
X008940Y012805D02*
X008848Y012805D01*
X008862Y012814D02*
X008945Y012814D01*
X008951Y012822D02*
X008876Y012822D01*
X008890Y012831D02*
X008957Y012831D01*
X008962Y012839D02*
X008904Y012839D01*
X008918Y012848D02*
X008968Y012848D01*
X008974Y012856D02*
X008932Y012856D01*
X008945Y012865D02*
X008979Y012865D01*
X008985Y012873D02*
X008959Y012873D01*
X008973Y012882D02*
X008991Y012882D01*
X008987Y012890D02*
X008996Y012890D01*
X009001Y012899D02*
X009002Y012899D01*
X008903Y012650D02*
X008873Y012600D01*
X008903Y012550D01*
X009133Y012600D01*
X008903Y012650D01*
X008899Y012644D02*
X008931Y012644D01*
X008894Y012635D02*
X008970Y012635D01*
X009009Y012627D02*
X008889Y012627D01*
X008884Y012618D02*
X009048Y012618D01*
X009061Y012584D02*
X008882Y012584D01*
X008887Y012576D02*
X009022Y012576D01*
X008983Y012567D02*
X008892Y012567D01*
X008897Y012559D02*
X008944Y012559D01*
X008903Y012550D02*
X008904Y012550D01*
X008877Y012593D02*
X009100Y012593D01*
X009087Y012610D02*
X008879Y012610D01*
X008874Y012601D02*
X009127Y012601D01*
X008917Y012423D02*
X008786Y012423D01*
X008772Y012431D02*
X008912Y012431D01*
X008906Y012440D02*
X008758Y012440D01*
X008744Y012448D02*
X008901Y012448D01*
X008923Y012414D02*
X008800Y012414D01*
X008814Y012406D02*
X008928Y012406D01*
X008934Y012397D02*
X008828Y012397D01*
X008842Y012389D02*
X008939Y012389D01*
X008945Y012380D02*
X008855Y012380D01*
X008869Y012372D02*
X008950Y012372D01*
X008955Y012363D02*
X008883Y012363D01*
X008897Y012355D02*
X008961Y012355D01*
X008966Y012346D02*
X008911Y012346D01*
X008925Y012338D02*
X008972Y012338D01*
X008977Y012329D02*
X008939Y012329D01*
X008952Y012321D02*
X008983Y012321D01*
X008988Y012312D02*
X008966Y012312D01*
X008980Y012304D02*
X008994Y012304D01*
X008994Y012295D02*
X008999Y012295D01*
X008676Y012720D02*
X008507Y012720D01*
X008501Y012729D02*
X008663Y012729D01*
X008650Y012737D02*
X008496Y012737D01*
X008490Y012746D02*
X008636Y012746D01*
X008623Y012754D02*
X008485Y012754D01*
X008480Y012763D02*
X008609Y012763D01*
X008596Y012771D02*
X008474Y012771D01*
X008469Y012780D02*
X008582Y012780D01*
X008569Y012788D02*
X008464Y012788D01*
X008458Y012797D02*
X008556Y012797D01*
X008542Y012805D02*
X008453Y012805D01*
X008447Y012814D02*
X008529Y012814D01*
X008515Y012822D02*
X008442Y012822D01*
X008437Y012831D02*
X008502Y012831D01*
X008489Y012839D02*
X008431Y012839D01*
X008426Y012848D02*
X008475Y012848D01*
X008462Y012856D02*
X008420Y012856D01*
X008415Y012865D02*
X008448Y012865D01*
X008435Y012873D02*
X008410Y012873D01*
X008404Y012882D02*
X008421Y012882D01*
X008408Y012890D02*
X008399Y012890D01*
X008395Y012899D02*
X008394Y012899D01*
X008483Y012650D02*
X008523Y012600D01*
X008483Y012550D01*
X008253Y012600D01*
X008483Y012650D01*
X008488Y012644D02*
X008455Y012644D01*
X008415Y012635D02*
X008495Y012635D01*
X008501Y012627D02*
X008376Y012627D01*
X008337Y012618D02*
X008508Y012618D01*
X008515Y012610D02*
X008298Y012610D01*
X008286Y012593D02*
X008517Y012593D01*
X008522Y012601D02*
X008259Y012601D01*
X008325Y012584D02*
X008510Y012584D01*
X008503Y012576D02*
X008364Y012576D01*
X008403Y012567D02*
X008497Y012567D01*
X008490Y012559D02*
X008442Y012559D01*
X008481Y012550D02*
X008483Y012550D01*
X008643Y012800D02*
X008693Y012770D01*
X008743Y012800D01*
X008693Y013040D01*
X008643Y012800D01*
X008644Y012805D02*
X008742Y012805D01*
X008740Y012814D02*
X008646Y012814D01*
X008647Y012822D02*
X008738Y012822D01*
X008736Y012831D02*
X008649Y012831D01*
X008651Y012839D02*
X008735Y012839D01*
X008733Y012848D02*
X008653Y012848D01*
X008655Y012856D02*
X008731Y012856D01*
X008729Y012865D02*
X008656Y012865D01*
X008658Y012873D02*
X008728Y012873D01*
X008726Y012882D02*
X008660Y012882D01*
X008662Y012890D02*
X008724Y012890D01*
X008722Y012899D02*
X008663Y012899D01*
X008665Y012907D02*
X008720Y012907D01*
X008719Y012916D02*
X008667Y012916D01*
X008669Y012924D02*
X008717Y012924D01*
X008715Y012933D02*
X008670Y012933D01*
X008672Y012941D02*
X008713Y012941D01*
X008712Y012950D02*
X008674Y012950D01*
X008676Y012958D02*
X008710Y012958D01*
X008708Y012967D02*
X008678Y012967D01*
X008679Y012975D02*
X008706Y012975D01*
X008704Y012984D02*
X008681Y012984D01*
X008683Y012992D02*
X008703Y012992D01*
X008701Y013001D02*
X008685Y013001D01*
X008686Y013009D02*
X008699Y013009D01*
X008697Y013018D02*
X008688Y013018D01*
X008690Y013026D02*
X008696Y013026D01*
X008692Y013035D02*
X008694Y013035D01*
X008648Y012797D02*
X008738Y012797D01*
X008723Y012788D02*
X008662Y012788D01*
X008676Y012780D02*
X008709Y012780D01*
X008695Y012771D02*
X008691Y012771D01*
M02*
