G75*
G70*
%OFA0B0*%
%FSLAX24Y24*%
%IPPOS*%
%LPD*%
%AMOC8*
5,1,8,0,0,1.08239X$1,22.5*
%
%ADD10R,0.0433X0.0394*%
%ADD11R,0.0157X0.0531*%
%ADD12R,0.0709X0.0768*%
%ADD13R,0.0748X0.0768*%
%ADD14R,0.0248X0.0327*%
%ADD15R,0.0472X0.0472*%
%ADD16R,0.0472X0.0276*%
%ADD17R,0.0276X0.0472*%
%ADD18R,0.0945X0.0748*%
%ADD19R,0.0394X0.0433*%
%ADD20R,0.0256X0.0492*%
%ADD21R,0.0315X0.0315*%
%ADD22R,0.0433X0.0551*%
%ADD23R,0.0413X0.0866*%
%ADD24R,0.0394X0.0413*%
%ADD25R,0.0394X0.0591*%
D10*
X005768Y002593D03*
X006437Y002593D03*
X006558Y009883D03*
X007227Y009883D03*
X006293Y011598D03*
X006293Y012268D03*
X004193Y012268D03*
X004193Y011598D03*
X003927Y009883D03*
X003258Y009883D03*
D11*
X004731Y012741D03*
X004987Y012741D03*
X005243Y012741D03*
X005499Y012741D03*
X005755Y012741D03*
D12*
X006818Y013833D03*
X003668Y013833D03*
D13*
X004743Y013833D03*
X005743Y013833D03*
D14*
X002446Y013833D03*
X001540Y013833D03*
D15*
X002940Y009176D03*
X002940Y003467D03*
X007546Y003467D03*
X007546Y009176D03*
D16*
X007546Y008447D03*
X007546Y007975D03*
X007546Y007502D03*
X007546Y007030D03*
X007546Y006557D03*
X007546Y006085D03*
X007546Y005613D03*
X007546Y005140D03*
X007546Y004668D03*
X007546Y004195D03*
X002940Y004195D03*
X002940Y004668D03*
X002940Y005140D03*
X002940Y005613D03*
X002940Y006085D03*
X002940Y006557D03*
X002940Y007030D03*
X002940Y007502D03*
X002940Y007975D03*
X002940Y008447D03*
D17*
X003589Y009176D03*
X004062Y009176D03*
X004534Y009176D03*
X005007Y009176D03*
X005479Y009176D03*
X005951Y009176D03*
X006424Y009176D03*
X006896Y009176D03*
X006896Y003467D03*
X006424Y003467D03*
X005951Y003467D03*
X005479Y003467D03*
X005007Y003467D03*
X004534Y003467D03*
X004062Y003467D03*
X003589Y003467D03*
D18*
X004396Y004904D03*
X004396Y006321D03*
X004396Y007739D03*
X006089Y007739D03*
X006089Y006321D03*
X006089Y004904D03*
D19*
X006443Y002568D03*
X006443Y001898D03*
X007043Y001888D03*
X007643Y001898D03*
X007643Y002568D03*
X007043Y001218D03*
X005577Y009883D03*
X004908Y009883D03*
X003427Y013003D03*
X002758Y013003D03*
D20*
X002938Y012221D03*
X003548Y012221D03*
X003548Y010745D03*
X002938Y010745D03*
X006938Y010745D03*
X007548Y010745D03*
X007548Y012221D03*
X006938Y012221D03*
D21*
X007693Y013188D03*
X007693Y013778D03*
D22*
X005597Y011704D03*
X004888Y011704D03*
X004888Y010562D03*
X005597Y010562D03*
D23*
X002662Y002033D03*
X003824Y002033D03*
D24*
X003243Y002634D03*
D25*
X003368Y000733D03*
X006518Y000733D03*
M02*
