G75*
G70*
%OFA0B0*%
%FSLAX24Y24*%
%IPPOS*%
%LPD*%
%AMOC8*
5,1,8,0,0,1.08239X$1,22.5*
%
%ADD10R,0.0710X0.0631*%
%ADD11R,0.0552X0.0297*%
%ADD12C,0.0820*%
%ADD13R,0.0513X0.0828*%
%ADD14R,0.0513X0.0474*%
%ADD15R,0.0474X0.0789*%
%ADD16R,0.0328X0.0407*%
%ADD17R,0.0159X0.0474*%
%ADD18R,0.0474X0.0159*%
%ADD19R,0.0474X0.0513*%
%ADD20R,0.0300X0.0670*%
%ADD21R,0.0470X0.0198*%
%ADD22R,0.0631X0.0710*%
D10*
X003743Y011067D03*
X003743Y012170D03*
X006743Y012220D03*
X006743Y011117D03*
D11*
X005755Y011295D03*
X005755Y012043D03*
X004731Y012043D03*
X004731Y011669D03*
X004731Y011295D03*
D12*
X001743Y001669D03*
X001743Y002669D03*
X001743Y003669D03*
X001743Y004669D03*
X001743Y005669D03*
X001743Y006669D03*
X001743Y007669D03*
X001743Y008669D03*
X001743Y009669D03*
X001743Y010669D03*
X001743Y011669D03*
X001743Y012669D03*
X008743Y012669D03*
X008743Y011669D03*
X008743Y010669D03*
X008743Y009669D03*
X008743Y008669D03*
X008743Y007669D03*
X008743Y006669D03*
X008743Y005669D03*
X008743Y004669D03*
X008743Y003669D03*
X008743Y002669D03*
X008743Y001669D03*
D13*
X004296Y003390D03*
X003390Y003390D03*
X003390Y004847D03*
X004296Y004847D03*
D14*
X004177Y005519D03*
X003508Y005519D03*
X005043Y004503D03*
X005043Y003834D03*
X004177Y002719D03*
X003508Y002719D03*
X007408Y008169D03*
X008077Y008169D03*
X005577Y010619D03*
X004908Y010619D03*
X002943Y010834D03*
X002943Y011503D03*
X002943Y011984D03*
X002943Y012653D03*
D15*
X004792Y012919D03*
X005894Y012919D03*
D16*
X005696Y013719D03*
X004790Y013719D03*
D17*
G36*
X005841Y010410D02*
X005953Y010298D01*
X005619Y009964D01*
X005507Y010076D01*
X005841Y010410D01*
G37*
G36*
X005980Y010271D02*
X006092Y010159D01*
X005758Y009825D01*
X005646Y009937D01*
X005980Y010271D01*
G37*
G36*
X006119Y010132D02*
X006231Y010020D01*
X005897Y009686D01*
X005785Y009798D01*
X006119Y010132D01*
G37*
G36*
X006259Y009992D02*
X006371Y009880D01*
X006037Y009546D01*
X005925Y009658D01*
X006259Y009992D01*
G37*
G36*
X006398Y009853D02*
X006510Y009741D01*
X006176Y009407D01*
X006064Y009519D01*
X006398Y009853D01*
G37*
G36*
X006537Y009714D02*
X006649Y009602D01*
X006315Y009268D01*
X006203Y009380D01*
X006537Y009714D01*
G37*
G36*
X006676Y009575D02*
X006788Y009463D01*
X006454Y009129D01*
X006342Y009241D01*
X006676Y009575D01*
G37*
G36*
X006815Y009436D02*
X006927Y009324D01*
X006593Y008990D01*
X006481Y009102D01*
X006815Y009436D01*
G37*
G36*
X006955Y009296D02*
X007067Y009184D01*
X006733Y008850D01*
X006621Y008962D01*
X006955Y009296D01*
G37*
G36*
X007094Y009157D02*
X007206Y009045D01*
X006872Y008711D01*
X006760Y008823D01*
X007094Y009157D01*
G37*
G36*
X007233Y009018D02*
X007345Y008906D01*
X007011Y008572D01*
X006899Y008684D01*
X007233Y009018D01*
G37*
G36*
X007372Y008879D02*
X007484Y008767D01*
X007150Y008433D01*
X007038Y008545D01*
X007372Y008879D01*
G37*
G36*
X004867Y006373D02*
X004979Y006261D01*
X004645Y005927D01*
X004533Y006039D01*
X004867Y006373D01*
G37*
G36*
X004727Y006513D02*
X004839Y006401D01*
X004505Y006067D01*
X004393Y006179D01*
X004727Y006513D01*
G37*
G36*
X004588Y006652D02*
X004700Y006540D01*
X004366Y006206D01*
X004254Y006318D01*
X004588Y006652D01*
G37*
G36*
X004449Y006791D02*
X004561Y006679D01*
X004227Y006345D01*
X004115Y006457D01*
X004449Y006791D01*
G37*
G36*
X004310Y006930D02*
X004422Y006818D01*
X004088Y006484D01*
X003976Y006596D01*
X004310Y006930D01*
G37*
G36*
X004171Y007069D02*
X004283Y006957D01*
X003949Y006623D01*
X003837Y006735D01*
X004171Y007069D01*
G37*
G36*
X004031Y007208D02*
X004143Y007096D01*
X003809Y006762D01*
X003697Y006874D01*
X004031Y007208D01*
G37*
G36*
X003892Y007348D02*
X004004Y007236D01*
X003670Y006902D01*
X003558Y007014D01*
X003892Y007348D01*
G37*
G36*
X003753Y007487D02*
X003865Y007375D01*
X003531Y007041D01*
X003419Y007153D01*
X003753Y007487D01*
G37*
G36*
X003614Y007626D02*
X003726Y007514D01*
X003392Y007180D01*
X003280Y007292D01*
X003614Y007626D01*
G37*
G36*
X003475Y007765D02*
X003587Y007653D01*
X003253Y007319D01*
X003141Y007431D01*
X003475Y007765D01*
G37*
G36*
X003335Y007904D02*
X003447Y007792D01*
X003113Y007458D01*
X003001Y007570D01*
X003335Y007904D01*
G37*
D18*
G36*
X003113Y008879D02*
X003447Y008545D01*
X003335Y008433D01*
X003001Y008767D01*
X003113Y008879D01*
G37*
G36*
X003253Y009018D02*
X003587Y008684D01*
X003475Y008572D01*
X003141Y008906D01*
X003253Y009018D01*
G37*
G36*
X003392Y009157D02*
X003726Y008823D01*
X003614Y008711D01*
X003280Y009045D01*
X003392Y009157D01*
G37*
G36*
X003531Y009296D02*
X003865Y008962D01*
X003753Y008850D01*
X003419Y009184D01*
X003531Y009296D01*
G37*
G36*
X003670Y009436D02*
X004004Y009102D01*
X003892Y008990D01*
X003558Y009324D01*
X003670Y009436D01*
G37*
G36*
X003809Y009575D02*
X004143Y009241D01*
X004031Y009129D01*
X003697Y009463D01*
X003809Y009575D01*
G37*
G36*
X003949Y009714D02*
X004283Y009380D01*
X004171Y009268D01*
X003837Y009602D01*
X003949Y009714D01*
G37*
G36*
X004088Y009853D02*
X004422Y009519D01*
X004310Y009407D01*
X003976Y009741D01*
X004088Y009853D01*
G37*
G36*
X004227Y009992D02*
X004561Y009658D01*
X004449Y009546D01*
X004115Y009880D01*
X004227Y009992D01*
G37*
G36*
X004366Y010132D02*
X004700Y009798D01*
X004588Y009686D01*
X004254Y010020D01*
X004366Y010132D01*
G37*
G36*
X004505Y010271D02*
X004839Y009937D01*
X004727Y009825D01*
X004393Y010159D01*
X004505Y010271D01*
G37*
G36*
X004645Y010410D02*
X004979Y010076D01*
X004867Y009964D01*
X004533Y010298D01*
X004645Y010410D01*
G37*
G36*
X006733Y007487D02*
X007067Y007153D01*
X006955Y007041D01*
X006621Y007375D01*
X006733Y007487D01*
G37*
G36*
X006872Y007626D02*
X007206Y007292D01*
X007094Y007180D01*
X006760Y007514D01*
X006872Y007626D01*
G37*
G36*
X007011Y007765D02*
X007345Y007431D01*
X007233Y007319D01*
X006899Y007653D01*
X007011Y007765D01*
G37*
G36*
X007150Y007904D02*
X007484Y007570D01*
X007372Y007458D01*
X007038Y007792D01*
X007150Y007904D01*
G37*
G36*
X006593Y007348D02*
X006927Y007014D01*
X006815Y006902D01*
X006481Y007236D01*
X006593Y007348D01*
G37*
G36*
X006454Y007208D02*
X006788Y006874D01*
X006676Y006762D01*
X006342Y007096D01*
X006454Y007208D01*
G37*
G36*
X006315Y007069D02*
X006649Y006735D01*
X006537Y006623D01*
X006203Y006957D01*
X006315Y007069D01*
G37*
G36*
X006176Y006930D02*
X006510Y006596D01*
X006398Y006484D01*
X006064Y006818D01*
X006176Y006930D01*
G37*
G36*
X006037Y006791D02*
X006371Y006457D01*
X006259Y006345D01*
X005925Y006679D01*
X006037Y006791D01*
G37*
G36*
X005897Y006652D02*
X006231Y006318D01*
X006119Y006206D01*
X005785Y006540D01*
X005897Y006652D01*
G37*
G36*
X005758Y006513D02*
X006092Y006179D01*
X005980Y006067D01*
X005646Y006401D01*
X005758Y006513D01*
G37*
G36*
X005619Y006373D02*
X005953Y006039D01*
X005841Y005927D01*
X005507Y006261D01*
X005619Y006373D01*
G37*
D19*
X005243Y006003D03*
X005243Y005334D03*
X005043Y003353D03*
X005043Y002684D03*
X003393Y006034D03*
X003393Y006703D03*
X003558Y013169D03*
X003558Y013669D03*
X004227Y013669D03*
X004227Y013169D03*
X007843Y012153D03*
X007843Y011484D03*
D20*
X007193Y005209D03*
X006693Y005209D03*
X006193Y005209D03*
X005693Y005209D03*
X005693Y002329D03*
X006193Y002329D03*
X006693Y002329D03*
X007193Y002329D03*
D21*
X003012Y013163D03*
X003012Y013419D03*
X003012Y013675D03*
X002378Y013675D03*
X002378Y013419D03*
X002378Y013163D03*
D22*
X006892Y013569D03*
X007994Y013569D03*
M02*
