%
M48
M72
T01C0.0354
T02C0.0360
T03C0.0400
%
T01
X12150Y7650
X15150Y6650
X18150Y6650
X18150Y3650
X18150Y2650
X15150Y2650
X15150Y3650
X12150Y10650
T02
X20650Y10650
X21650Y10650
X21650Y9650
X20650Y9650
X20650Y8650
X21650Y8650
X21650Y7650
X20650Y7650
X20650Y6650
X21650Y6650
X21650Y5650
X20650Y5650
X20650Y4650
X21650Y4650
X21650Y3650
X20650Y3650
X20650Y2650
X21650Y2650
X21650Y11650
X20650Y11650
T03
X2150Y1650
X2150Y2650
X2150Y3650
X2150Y4650
X2150Y5650
X2150Y6650
X2150Y7650
X2150Y8650
X2150Y9650
X2150Y10650
X2150Y11650
X2150Y12650
X9150Y12650
X9150Y11650
X9150Y10650
X9150Y9650
X9150Y8650
X9150Y7650
X9150Y6650
X9150Y5650
X9150Y4650
X9150Y3650
X9150Y2650
X9150Y1650
M30
