G75*
G70*
%OFA0B0*%
%FSLAX24Y24*%
%IPPOS*%
%LPD*%
%AMOC8*
5,1,8,0,0,1.08239X$1,22.5*
%
%ADD10OC8,0.0560*%
%ADD11C,0.0740*%
%ADD12C,0.0100*%
%ADD13C,0.0160*%
%ADD14C,0.0360*%
D10*
X020650Y002650D03*
X021650Y002650D03*
X021650Y003650D03*
X020650Y003650D03*
X020650Y004650D03*
X021650Y004650D03*
X021650Y005650D03*
X020650Y005650D03*
X020650Y006650D03*
X021650Y006650D03*
X021650Y007650D03*
X020650Y007650D03*
X020650Y008650D03*
X021650Y008650D03*
X021650Y009650D03*
X020650Y009650D03*
X020650Y010650D03*
X021650Y010650D03*
X021650Y011650D03*
X020650Y011650D03*
D11*
X002150Y001650D03*
X002150Y002650D03*
X002150Y003650D03*
X002150Y004650D03*
X002150Y005650D03*
X002150Y006650D03*
X002150Y007650D03*
X002150Y008650D03*
X002150Y009650D03*
X002150Y010650D03*
X002150Y011650D03*
X002150Y012650D03*
X009150Y012650D03*
X009150Y011650D03*
X009150Y010650D03*
X009150Y009650D03*
X009150Y008650D03*
X009150Y007650D03*
X009150Y006650D03*
X009150Y005650D03*
X009150Y004650D03*
X009150Y003650D03*
X009150Y002650D03*
X009150Y001650D03*
X015150Y002650D03*
X015150Y003650D03*
X018150Y003650D03*
X018150Y002650D03*
X018150Y006650D03*
X015150Y006650D03*
X012150Y007650D03*
X012150Y010650D03*
D12*
X012670Y010690D02*
X020085Y010690D01*
X019987Y010788D02*
X012656Y010788D01*
X012670Y010753D02*
X012591Y010945D01*
X012445Y011091D01*
X012253Y011170D01*
X012047Y011170D01*
X011855Y011091D01*
X011709Y010945D01*
X011630Y010753D01*
X011630Y010547D01*
X011709Y010355D01*
X011855Y010209D01*
X012047Y010130D01*
X012253Y010130D01*
X012445Y010209D01*
X012591Y010355D01*
X012670Y010547D01*
X012670Y010753D01*
X012615Y010887D02*
X019888Y010887D01*
X019790Y010985D02*
X012550Y010985D01*
X012452Y011084D02*
X019691Y011084D01*
X019593Y011182D02*
X009379Y011182D01*
X009445Y011209D02*
X009302Y011150D01*
X009445Y011091D01*
X009591Y010945D01*
X009670Y010753D01*
X009670Y010547D01*
X009591Y010355D01*
X009445Y010209D01*
X009298Y010149D01*
X009350Y010132D01*
X009423Y010095D01*
X009489Y010047D01*
X009547Y009989D01*
X009595Y009923D01*
X009632Y009850D01*
X009657Y009772D01*
X009669Y009700D01*
X009200Y009700D01*
X009200Y009600D01*
X009669Y009600D01*
X009657Y009528D01*
X009632Y009450D01*
X009595Y009377D01*
X009547Y009311D01*
X009489Y009253D01*
X009423Y009205D01*
X009350Y009168D01*
X009298Y009151D01*
X009445Y009091D01*
X009591Y008945D01*
X009670Y008753D01*
X009670Y008547D01*
X009591Y008355D01*
X009445Y008209D01*
X009302Y008150D01*
X009445Y008091D01*
X009591Y007945D01*
X009670Y007753D01*
X009670Y007547D01*
X009591Y007355D01*
X009445Y007209D01*
X009302Y007150D01*
X009445Y007091D01*
X009591Y006945D01*
X009670Y006753D01*
X009670Y006547D01*
X009591Y006355D01*
X009445Y006209D01*
X009302Y006150D01*
X009445Y006091D01*
X009591Y005945D01*
X009670Y005753D01*
X009670Y005547D01*
X009591Y005355D01*
X009445Y005209D01*
X009302Y005150D01*
X011150Y005150D01*
X011150Y000600D01*
X023200Y000600D01*
X023192Y013700D01*
X000600Y013700D01*
X000600Y005150D01*
X001998Y005150D01*
X001855Y005209D01*
X001709Y005355D01*
X001630Y005547D01*
X001630Y005753D01*
X001709Y005945D01*
X001855Y006091D01*
X001998Y006150D01*
X001855Y006209D01*
X001709Y006355D01*
X001630Y006547D01*
X001630Y006753D01*
X001709Y006945D01*
X001855Y007091D01*
X001998Y007150D01*
X001855Y007209D01*
X001709Y007355D01*
X001630Y007547D01*
X001630Y007753D01*
X001709Y007945D01*
X001855Y008091D01*
X001998Y008150D01*
X001855Y008209D01*
X001709Y008355D01*
X001630Y008547D01*
X001630Y008753D01*
X001709Y008945D01*
X001855Y009091D01*
X001998Y009150D01*
X001855Y009209D01*
X001709Y009355D01*
X001630Y009547D01*
X001630Y009753D01*
X001709Y009945D01*
X001855Y010091D01*
X001998Y010150D01*
X001855Y010209D01*
X001709Y010355D01*
X001630Y010547D01*
X001630Y010753D01*
X001709Y010945D01*
X001855Y011091D01*
X002002Y011151D01*
X001950Y011168D01*
X001877Y011205D01*
X001811Y011253D01*
X001753Y011311D01*
X001705Y011377D01*
X001668Y011450D01*
X001643Y011528D01*
X001631Y011600D01*
X002100Y011600D01*
X002100Y011700D01*
X001631Y011700D01*
X001643Y011772D01*
X001668Y011850D01*
X001705Y011923D01*
X001753Y011989D01*
X001811Y012047D01*
X001877Y012095D01*
X001950Y012132D01*
X002002Y012149D01*
X001855Y012209D01*
X001709Y012355D01*
X001630Y012547D01*
X001630Y012753D01*
X001709Y012945D01*
X001855Y013091D01*
X002047Y013170D01*
X002253Y013170D01*
X002445Y013091D01*
X002591Y012945D01*
X002670Y012753D01*
X002670Y012547D01*
X002591Y012355D01*
X002445Y012209D01*
X002298Y012149D01*
X002350Y012132D01*
X002423Y012095D01*
X002489Y012047D01*
X002547Y011989D01*
X002595Y011923D01*
X002632Y011850D01*
X002657Y011772D01*
X002669Y011700D01*
X002200Y011700D01*
X002200Y011600D01*
X002669Y011600D01*
X002657Y011528D01*
X002632Y011450D01*
X002595Y011377D01*
X002547Y011311D01*
X002489Y011253D01*
X002423Y011205D01*
X002350Y011168D01*
X002298Y011151D01*
X002445Y011091D01*
X002591Y010945D01*
X002670Y010753D01*
X002670Y010547D01*
X002591Y010355D01*
X002445Y010209D01*
X002302Y010150D01*
X002445Y010091D01*
X002591Y009945D01*
X002670Y009753D01*
X002670Y009547D01*
X002591Y009355D01*
X002445Y009209D01*
X002302Y009150D01*
X002445Y009091D01*
X002591Y008945D01*
X002670Y008753D01*
X002670Y008547D01*
X002591Y008355D01*
X002445Y008209D01*
X002302Y008150D01*
X002445Y008091D01*
X002591Y007945D01*
X002670Y007753D01*
X002670Y007547D01*
X002591Y007355D01*
X002445Y007209D01*
X002302Y007150D01*
X002445Y007091D01*
X002591Y006945D01*
X002670Y006753D01*
X002670Y006547D01*
X002591Y006355D01*
X002445Y006209D01*
X002302Y006150D01*
X002445Y006091D01*
X002591Y005945D01*
X002670Y005753D01*
X002670Y005547D01*
X002591Y005355D01*
X002445Y005209D01*
X002302Y005150D01*
X008998Y005150D01*
X008855Y005209D01*
X008709Y005355D01*
X008630Y005547D01*
X008630Y005753D01*
X008709Y005945D01*
X008855Y006091D01*
X008998Y006150D01*
X008855Y006209D01*
X008709Y006355D01*
X008630Y006547D01*
X008630Y006753D01*
X008709Y006945D01*
X008855Y007091D01*
X008998Y007150D01*
X008855Y007209D01*
X008709Y007355D01*
X008630Y007547D01*
X008630Y007753D01*
X008709Y007945D01*
X008855Y008091D01*
X008998Y008150D01*
X008855Y008209D01*
X008709Y008355D01*
X008630Y008547D01*
X008630Y008753D01*
X008709Y008945D01*
X008855Y009091D01*
X009002Y009151D01*
X008950Y009168D01*
X008877Y009205D01*
X008811Y009253D01*
X008753Y009311D01*
X008705Y009377D01*
X008668Y009450D01*
X008643Y009528D01*
X008631Y009600D01*
X009100Y009600D01*
X009100Y009700D01*
X008631Y009700D01*
X008643Y009772D01*
X008668Y009850D01*
X008705Y009923D01*
X008753Y009989D01*
X008811Y010047D01*
X008877Y010095D01*
X008950Y010132D01*
X009002Y010149D01*
X008855Y010209D01*
X008709Y010355D01*
X008630Y010547D01*
X008630Y010753D01*
X008709Y010945D01*
X008855Y011091D01*
X008998Y011150D01*
X008855Y011209D01*
X008709Y011355D01*
X008630Y011547D01*
X008630Y011753D01*
X008709Y011945D01*
X008855Y012091D01*
X008998Y012150D01*
X008855Y012209D01*
X008709Y012355D01*
X008630Y012547D01*
X008630Y012753D01*
X008709Y012945D01*
X008855Y013091D01*
X009047Y013170D01*
X009253Y013170D01*
X009445Y013091D01*
X009591Y012945D01*
X009670Y012753D01*
X009670Y012547D01*
X009591Y012355D01*
X009445Y012209D01*
X009302Y012150D01*
X009445Y012091D01*
X009591Y011945D01*
X009670Y011753D01*
X009670Y011547D01*
X009591Y011355D01*
X009445Y011209D01*
X009516Y011281D02*
X019494Y011281D01*
X019396Y011379D02*
X009601Y011379D01*
X009641Y011478D02*
X019297Y011478D01*
X019199Y011576D02*
X009670Y011576D01*
X009670Y011675D02*
X019100Y011675D01*
X019002Y011773D02*
X009662Y011773D01*
X009621Y011872D02*
X018903Y011872D01*
X018805Y011970D02*
X009565Y011970D01*
X009467Y012069D02*
X018706Y012069D01*
X018608Y012167D02*
X009343Y012167D01*
X009501Y012266D02*
X018509Y012266D01*
X018411Y012364D02*
X009594Y012364D01*
X009635Y012463D02*
X018312Y012463D01*
X018214Y012561D02*
X009670Y012561D01*
X009670Y012660D02*
X018115Y012660D01*
X018017Y012758D02*
X009668Y012758D01*
X009627Y012857D02*
X017796Y012857D01*
X017763Y012870D02*
X017884Y012820D01*
X017955Y012820D01*
X020220Y010555D01*
X020220Y010472D01*
X020472Y010220D01*
X020828Y010220D01*
X021080Y010472D01*
X021080Y010828D01*
X020828Y011080D01*
X020472Y011080D01*
X020409Y011017D01*
X018280Y013145D01*
X018280Y013216D01*
X018230Y013337D01*
X018137Y013430D01*
X018016Y013480D01*
X017884Y013480D01*
X017763Y013430D01*
X017670Y013337D01*
X017620Y013216D01*
X017620Y013084D01*
X017670Y012963D01*
X017763Y012870D01*
X017678Y012955D02*
X009580Y012955D01*
X009482Y013054D02*
X017633Y013054D01*
X017620Y013152D02*
X009297Y013152D01*
X009003Y013152D02*
X002297Y013152D01*
X002482Y013054D02*
X008818Y013054D01*
X008720Y012955D02*
X002580Y012955D01*
X002627Y012857D02*
X008673Y012857D01*
X008632Y012758D02*
X002668Y012758D01*
X002670Y012660D02*
X008630Y012660D01*
X008630Y012561D02*
X002670Y012561D01*
X002635Y012463D02*
X008665Y012463D01*
X008706Y012364D02*
X002594Y012364D01*
X002501Y012266D02*
X008799Y012266D01*
X008957Y012167D02*
X002343Y012167D01*
X002459Y012069D02*
X008833Y012069D01*
X008735Y011970D02*
X002560Y011970D01*
X002621Y011872D02*
X008679Y011872D01*
X008638Y011773D02*
X002657Y011773D01*
X002200Y011675D02*
X008630Y011675D01*
X008630Y011576D02*
X002665Y011576D01*
X002641Y011478D02*
X008659Y011478D01*
X008699Y011379D02*
X002596Y011379D01*
X002516Y011281D02*
X008784Y011281D01*
X008921Y011182D02*
X002377Y011182D01*
X002452Y011084D02*
X008848Y011084D01*
X008750Y010985D02*
X002550Y010985D01*
X002615Y010887D02*
X008685Y010887D01*
X008644Y010788D02*
X002656Y010788D01*
X002670Y010690D02*
X008630Y010690D01*
X008630Y010591D02*
X002670Y010591D01*
X002648Y010493D02*
X008652Y010493D01*
X008693Y010394D02*
X002607Y010394D01*
X002531Y010296D02*
X008769Y010296D01*
X008885Y010197D02*
X002415Y010197D01*
X002426Y010099D02*
X008885Y010099D01*
X008765Y010000D02*
X002535Y010000D01*
X002609Y009902D02*
X008695Y009902D01*
X008653Y009803D02*
X002649Y009803D01*
X002670Y009705D02*
X008632Y009705D01*
X008650Y009508D02*
X002654Y009508D01*
X002670Y009606D02*
X009100Y009606D01*
X009200Y009606D02*
X010569Y009606D01*
X010555Y009620D02*
X011020Y009155D01*
X011020Y009084D01*
X011070Y008963D01*
X011163Y008870D01*
X011284Y008820D01*
X011416Y008820D01*
X011537Y008870D01*
X011630Y008963D01*
X011680Y009084D01*
X011680Y009216D01*
X011630Y009337D01*
X011537Y009430D01*
X011416Y009480D01*
X011345Y009480D01*
X010880Y009945D01*
X010880Y010016D01*
X010830Y010137D01*
X010737Y010230D01*
X010616Y010280D01*
X010484Y010280D01*
X010363Y010230D01*
X010270Y010137D01*
X010220Y010016D01*
X010220Y009884D01*
X010270Y009763D01*
X010363Y009670D01*
X010484Y009620D01*
X010555Y009620D01*
X010667Y009508D02*
X009650Y009508D01*
X009611Y009409D02*
X009942Y009409D01*
X009963Y009430D02*
X009870Y009337D01*
X009820Y009216D01*
X009820Y009084D01*
X009870Y008963D01*
X009920Y008913D01*
X009920Y008845D01*
X009920Y008655D01*
X011220Y007355D01*
X011220Y007284D01*
X011270Y007163D01*
X011363Y007070D01*
X011484Y007020D01*
X011616Y007020D01*
X011737Y007070D01*
X011830Y007163D01*
X011851Y007214D01*
X011855Y007209D01*
X012047Y007130D01*
X012253Y007130D01*
X012445Y007209D01*
X012591Y007355D01*
X012670Y007547D01*
X012670Y007753D01*
X012591Y007945D01*
X012445Y008091D01*
X012253Y008170D01*
X012047Y008170D01*
X011855Y008091D01*
X011709Y007945D01*
X011630Y007753D01*
X011630Y007674D01*
X011616Y007680D01*
X011545Y007680D01*
X010380Y008845D01*
X010380Y008913D01*
X010430Y008963D01*
X010480Y009084D01*
X010480Y009216D01*
X010430Y009337D01*
X010337Y009430D01*
X010216Y009480D01*
X010084Y009480D01*
X009963Y009430D01*
X009859Y009311D02*
X009546Y009311D01*
X009432Y009212D02*
X009820Y009212D01*
X009820Y009114D02*
X009390Y009114D01*
X009520Y009015D02*
X009849Y009015D01*
X009917Y008917D02*
X009602Y008917D01*
X009643Y008818D02*
X009920Y008818D01*
X009920Y008720D02*
X009670Y008720D01*
X009670Y008621D02*
X009954Y008621D01*
X010052Y008523D02*
X009660Y008523D01*
X009619Y008424D02*
X010151Y008424D01*
X010249Y008326D02*
X009561Y008326D01*
X009462Y008227D02*
X010348Y008227D01*
X010446Y008129D02*
X009354Y008129D01*
X009505Y008030D02*
X010545Y008030D01*
X010643Y007932D02*
X009596Y007932D01*
X009637Y007833D02*
X010742Y007833D01*
X010840Y007735D02*
X009670Y007735D01*
X009670Y007636D02*
X010939Y007636D01*
X011037Y007538D02*
X009666Y007538D01*
X009625Y007439D02*
X011136Y007439D01*
X011220Y007341D02*
X009576Y007341D01*
X009477Y007242D02*
X011238Y007242D01*
X011290Y007144D02*
X009317Y007144D01*
X009490Y007045D02*
X011424Y007045D01*
X011676Y007045D02*
X014810Y007045D01*
X014811Y007047D02*
X014753Y006989D01*
X014705Y006923D01*
X014668Y006850D01*
X014643Y006772D01*
X014630Y006691D01*
X014630Y006689D01*
X015111Y006689D01*
X015111Y007170D01*
X015109Y007170D01*
X015028Y007157D01*
X014950Y007132D01*
X014877Y007095D01*
X014811Y007047D01*
X014723Y006947D02*
X009589Y006947D01*
X009631Y006848D02*
X014668Y006848D01*
X014639Y006750D02*
X009670Y006750D01*
X009670Y006651D02*
X015111Y006651D01*
X015111Y006689D02*
X015111Y006611D01*
X015189Y006611D01*
X015189Y006689D01*
X015670Y006689D01*
X015670Y006691D01*
X015657Y006772D01*
X015632Y006850D01*
X015595Y006923D01*
X015547Y006989D01*
X015489Y007047D01*
X015423Y007095D01*
X015350Y007132D01*
X015272Y007157D01*
X015191Y007170D01*
X015189Y007170D01*
X015189Y006689D01*
X015111Y006689D01*
X015111Y006750D02*
X015189Y006750D01*
X015189Y006848D02*
X015111Y006848D01*
X015111Y006947D02*
X015189Y006947D01*
X015189Y007045D02*
X015111Y007045D01*
X015111Y007144D02*
X015189Y007144D01*
X015314Y007144D02*
X017983Y007144D01*
X018047Y007170D02*
X017855Y007091D01*
X017709Y006945D01*
X017630Y006753D01*
X017630Y006547D01*
X017709Y006355D01*
X017855Y006209D01*
X018047Y006130D01*
X018253Y006130D01*
X018445Y006209D01*
X018591Y006355D01*
X018670Y006547D01*
X018670Y006705D01*
X019320Y006055D01*
X019320Y005455D01*
X020220Y004555D01*
X020220Y004472D01*
X020472Y004220D01*
X020828Y004220D01*
X021080Y004472D01*
X021080Y004828D01*
X020828Y005080D01*
X020472Y005080D01*
X020409Y005017D01*
X019780Y005645D01*
X019780Y006245D01*
X019645Y006380D01*
X016880Y009145D01*
X016880Y009216D01*
X016830Y009337D01*
X016737Y009430D01*
X016616Y009480D01*
X016484Y009480D01*
X016363Y009430D01*
X016270Y009337D01*
X016220Y009216D01*
X016220Y009084D01*
X016270Y008963D01*
X016363Y008870D01*
X016484Y008820D01*
X016555Y008820D01*
X018205Y007170D01*
X018047Y007170D01*
X018133Y007242D02*
X012477Y007242D01*
X012576Y007341D02*
X018034Y007341D01*
X017936Y007439D02*
X012625Y007439D01*
X012666Y007538D02*
X017837Y007538D01*
X017739Y007636D02*
X012670Y007636D01*
X012670Y007735D02*
X017640Y007735D01*
X017542Y007833D02*
X012637Y007833D01*
X012596Y007932D02*
X017443Y007932D01*
X017345Y008030D02*
X012505Y008030D01*
X012354Y008129D02*
X017246Y008129D01*
X017148Y008227D02*
X010998Y008227D01*
X010900Y008326D02*
X017049Y008326D01*
X016951Y008424D02*
X010801Y008424D01*
X010703Y008523D02*
X016852Y008523D01*
X016754Y008621D02*
X010604Y008621D01*
X010506Y008720D02*
X016655Y008720D01*
X016557Y008818D02*
X010407Y008818D01*
X010383Y008917D02*
X011117Y008917D01*
X011049Y009015D02*
X010451Y009015D01*
X010480Y009114D02*
X011020Y009114D01*
X010963Y009212D02*
X010480Y009212D01*
X010441Y009311D02*
X010864Y009311D01*
X010766Y009409D02*
X010358Y009409D01*
X010329Y009705D02*
X009668Y009705D01*
X009647Y009803D02*
X010254Y009803D01*
X010220Y009902D02*
X009605Y009902D01*
X009535Y010000D02*
X010220Y010000D01*
X010254Y010099D02*
X009415Y010099D01*
X009415Y010197D02*
X010330Y010197D01*
X010770Y010197D02*
X011885Y010197D01*
X011769Y010296D02*
X009531Y010296D01*
X009607Y010394D02*
X011693Y010394D01*
X011652Y010493D02*
X009648Y010493D01*
X009670Y010591D02*
X011630Y010591D01*
X011630Y010690D02*
X009670Y010690D01*
X009656Y010788D02*
X011644Y010788D01*
X011685Y010887D02*
X009615Y010887D01*
X009550Y010985D02*
X011750Y010985D01*
X011848Y011084D02*
X009452Y011084D01*
X010846Y010099D02*
X023194Y010099D01*
X023194Y010197D02*
X012415Y010197D01*
X012531Y010296D02*
X020396Y010296D01*
X020298Y010394D02*
X012607Y010394D01*
X012648Y010493D02*
X020220Y010493D01*
X020184Y010591D02*
X012670Y010591D01*
X011219Y009606D02*
X020220Y009606D01*
X020220Y009508D02*
X011318Y009508D01*
X011558Y009409D02*
X016342Y009409D01*
X016259Y009311D02*
X011641Y009311D01*
X011680Y009212D02*
X016220Y009212D01*
X016220Y009114D02*
X011680Y009114D01*
X011651Y009015D02*
X016249Y009015D01*
X016317Y008917D02*
X011583Y008917D01*
X011121Y009705D02*
X020220Y009705D01*
X020220Y009803D02*
X011022Y009803D01*
X010924Y009902D02*
X020293Y009902D01*
X020220Y009828D02*
X020220Y009472D01*
X020472Y009220D01*
X020828Y009220D01*
X021080Y009472D01*
X021080Y009828D01*
X020828Y010080D01*
X020472Y010080D01*
X020220Y009828D01*
X020392Y010000D02*
X010880Y010000D01*
X008910Y009114D02*
X002390Y009114D01*
X002447Y009212D02*
X008868Y009212D01*
X008754Y009311D02*
X002546Y009311D01*
X002613Y009409D02*
X008689Y009409D01*
X008780Y009015D02*
X002520Y009015D01*
X002602Y008917D02*
X008698Y008917D01*
X008657Y008818D02*
X002643Y008818D01*
X002670Y008720D02*
X008630Y008720D01*
X008630Y008621D02*
X002670Y008621D01*
X002660Y008523D02*
X008640Y008523D01*
X008681Y008424D02*
X002619Y008424D01*
X002561Y008326D02*
X008739Y008326D01*
X008838Y008227D02*
X002462Y008227D01*
X002354Y008129D02*
X008946Y008129D01*
X008795Y008030D02*
X002505Y008030D01*
X002596Y007932D02*
X008704Y007932D01*
X008663Y007833D02*
X002637Y007833D01*
X002670Y007735D02*
X008630Y007735D01*
X008630Y007636D02*
X002670Y007636D01*
X002666Y007538D02*
X008634Y007538D01*
X008675Y007439D02*
X002625Y007439D01*
X002576Y007341D02*
X008724Y007341D01*
X008823Y007242D02*
X002477Y007242D01*
X002317Y007144D02*
X008983Y007144D01*
X008810Y007045D02*
X002490Y007045D01*
X002589Y006947D02*
X008711Y006947D01*
X008669Y006848D02*
X002631Y006848D01*
X002670Y006750D02*
X008630Y006750D01*
X008630Y006651D02*
X002670Y006651D01*
X002670Y006553D02*
X008630Y006553D01*
X008668Y006454D02*
X002632Y006454D01*
X002591Y006356D02*
X008709Y006356D01*
X008808Y006257D02*
X002492Y006257D01*
X002322Y006159D02*
X008978Y006159D01*
X008825Y006060D02*
X002475Y006060D01*
X002574Y005962D02*
X008726Y005962D01*
X008675Y005863D02*
X002625Y005863D01*
X002665Y005765D02*
X008635Y005765D01*
X008630Y005666D02*
X002670Y005666D01*
X002670Y005568D02*
X008630Y005568D01*
X008662Y005469D02*
X002638Y005469D01*
X002597Y005371D02*
X008703Y005371D01*
X008793Y005272D02*
X002507Y005272D01*
X002358Y005174D02*
X008942Y005174D01*
X009358Y005174D02*
X019601Y005174D01*
X019503Y005272D02*
X009507Y005272D01*
X009597Y005371D02*
X019404Y005371D01*
X019320Y005469D02*
X009638Y005469D01*
X009670Y005568D02*
X019320Y005568D01*
X019320Y005666D02*
X009670Y005666D01*
X009665Y005765D02*
X019320Y005765D01*
X019320Y005863D02*
X009625Y005863D01*
X009574Y005962D02*
X019320Y005962D01*
X019315Y006060D02*
X009475Y006060D01*
X009322Y006159D02*
X014980Y006159D01*
X014950Y006168D02*
X015028Y006143D01*
X015109Y006130D01*
X015111Y006130D01*
X015111Y006611D01*
X014630Y006611D01*
X014630Y006609D01*
X014643Y006528D01*
X014668Y006450D01*
X014705Y006377D01*
X014753Y006311D01*
X014811Y006253D01*
X014877Y006205D01*
X014950Y006168D01*
X015111Y006159D02*
X015189Y006159D01*
X015189Y006130D02*
X015191Y006130D01*
X015272Y006143D01*
X015350Y006168D01*
X015423Y006205D01*
X015489Y006253D01*
X015547Y006311D01*
X015595Y006377D01*
X015632Y006450D01*
X015657Y006528D01*
X015670Y006609D01*
X015670Y006611D01*
X015189Y006611D01*
X015189Y006130D01*
X015189Y006257D02*
X015111Y006257D01*
X015111Y006356D02*
X015189Y006356D01*
X015189Y006454D02*
X015111Y006454D01*
X015111Y006553D02*
X015189Y006553D01*
X015189Y006651D02*
X017630Y006651D01*
X017630Y006553D02*
X015661Y006553D01*
X015633Y006454D02*
X017668Y006454D01*
X017709Y006356D02*
X015579Y006356D01*
X015492Y006257D02*
X017808Y006257D01*
X017978Y006159D02*
X015320Y006159D01*
X014808Y006257D02*
X009492Y006257D01*
X009591Y006356D02*
X014721Y006356D01*
X014667Y006454D02*
X009632Y006454D01*
X009670Y006553D02*
X014639Y006553D01*
X014986Y007144D02*
X012286Y007144D01*
X012014Y007144D02*
X011810Y007144D01*
X011630Y007735D02*
X011491Y007735D01*
X011392Y007833D02*
X011663Y007833D01*
X011704Y007932D02*
X011294Y007932D01*
X011195Y008030D02*
X011795Y008030D01*
X011946Y008129D02*
X011097Y008129D01*
X015490Y007045D02*
X017810Y007045D01*
X017711Y006947D02*
X015577Y006947D01*
X015632Y006848D02*
X017669Y006848D01*
X017630Y006750D02*
X015661Y006750D01*
X017798Y008227D02*
X020465Y008227D01*
X020472Y008220D02*
X020828Y008220D01*
X021080Y008472D01*
X021080Y008828D01*
X020828Y009080D01*
X020472Y009080D01*
X020220Y008828D01*
X020220Y008472D01*
X020472Y008220D01*
X020472Y008080D02*
X020220Y007828D01*
X020220Y007472D01*
X020472Y007220D01*
X020828Y007220D01*
X021080Y007472D01*
X021080Y007828D01*
X020828Y008080D01*
X020472Y008080D01*
X020422Y008030D02*
X017995Y008030D01*
X017897Y008129D02*
X023196Y008129D01*
X023195Y008227D02*
X021835Y008227D01*
X021828Y008220D02*
X022080Y008472D01*
X022080Y008610D01*
X021690Y008610D01*
X021690Y008690D01*
X021610Y008690D01*
X021610Y009080D01*
X021472Y009080D01*
X021220Y008828D01*
X021220Y008690D01*
X021610Y008690D01*
X021610Y008610D01*
X021220Y008610D01*
X021220Y008472D01*
X021472Y008220D01*
X021610Y008220D01*
X021610Y008610D01*
X021690Y008610D01*
X021690Y008220D01*
X021828Y008220D01*
X021690Y008227D02*
X021610Y008227D01*
X021610Y008326D02*
X021690Y008326D01*
X021690Y008424D02*
X021610Y008424D01*
X021610Y008523D02*
X021690Y008523D01*
X021690Y008621D02*
X023195Y008621D01*
X023195Y008523D02*
X022080Y008523D01*
X022032Y008424D02*
X023195Y008424D01*
X023195Y008326D02*
X021934Y008326D01*
X021828Y008080D02*
X021690Y008080D01*
X021690Y007690D01*
X021610Y007690D01*
X021610Y008080D01*
X021472Y008080D01*
X021220Y007828D01*
X021220Y007690D01*
X021610Y007690D01*
X021610Y007610D01*
X021220Y007610D01*
X021220Y007472D01*
X021472Y007220D01*
X021610Y007220D01*
X021610Y007610D01*
X021690Y007610D01*
X021690Y007690D01*
X022080Y007690D01*
X022080Y007828D01*
X021828Y008080D01*
X021878Y008030D02*
X023196Y008030D01*
X023196Y007932D02*
X021977Y007932D01*
X022075Y007833D02*
X023196Y007833D01*
X023196Y007735D02*
X022080Y007735D01*
X022080Y007610D02*
X021690Y007610D01*
X021690Y007220D01*
X021828Y007220D01*
X022080Y007472D01*
X022080Y007610D01*
X022080Y007538D02*
X023196Y007538D01*
X023196Y007636D02*
X021690Y007636D01*
X021610Y007636D02*
X021080Y007636D01*
X021080Y007538D02*
X021220Y007538D01*
X021253Y007439D02*
X021047Y007439D01*
X020949Y007341D02*
X021351Y007341D01*
X021450Y007242D02*
X020850Y007242D01*
X020828Y007080D02*
X020472Y007080D01*
X020220Y006828D01*
X020220Y006472D01*
X020472Y006220D01*
X020828Y006220D01*
X021080Y006472D01*
X021080Y006828D01*
X020828Y007080D01*
X020863Y007045D02*
X021437Y007045D01*
X021472Y007080D02*
X021220Y006828D01*
X021220Y006690D01*
X021610Y006690D01*
X021610Y007080D01*
X021472Y007080D01*
X021610Y007045D02*
X021690Y007045D01*
X021690Y007080D02*
X021690Y006690D01*
X021610Y006690D01*
X021610Y006610D01*
X021220Y006610D01*
X021220Y006472D01*
X021472Y006220D01*
X021610Y006220D01*
X021610Y006610D01*
X021690Y006610D01*
X021690Y006690D01*
X022080Y006690D01*
X022080Y006828D01*
X021828Y007080D01*
X021690Y007080D01*
X021690Y006947D02*
X021610Y006947D01*
X021610Y006848D02*
X021690Y006848D01*
X021690Y006750D02*
X021610Y006750D01*
X021610Y006651D02*
X021080Y006651D01*
X021080Y006553D02*
X021220Y006553D01*
X021238Y006454D02*
X021062Y006454D01*
X020964Y006356D02*
X021336Y006356D01*
X021435Y006257D02*
X020865Y006257D01*
X020828Y006080D02*
X020472Y006080D01*
X020220Y005828D01*
X020220Y005472D01*
X020472Y005220D01*
X020828Y005220D01*
X021080Y005472D01*
X021080Y005828D01*
X020828Y006080D01*
X020848Y006060D02*
X021452Y006060D01*
X021472Y006080D02*
X021220Y005828D01*
X021220Y005690D01*
X021610Y005690D01*
X021610Y006080D01*
X021472Y006080D01*
X021610Y006060D02*
X021690Y006060D01*
X021690Y006080D02*
X021690Y005690D01*
X021610Y005690D01*
X021610Y005610D01*
X021220Y005610D01*
X021220Y005472D01*
X021472Y005220D01*
X021610Y005220D01*
X021610Y005610D01*
X021690Y005610D01*
X021690Y005690D01*
X022080Y005690D01*
X022080Y005828D01*
X021828Y006080D01*
X021690Y006080D01*
X021690Y005962D02*
X021610Y005962D01*
X021610Y005863D02*
X021690Y005863D01*
X021690Y005765D02*
X021610Y005765D01*
X021610Y005666D02*
X021080Y005666D01*
X021080Y005568D02*
X021220Y005568D01*
X021223Y005469D02*
X021077Y005469D01*
X020979Y005371D02*
X021321Y005371D01*
X021420Y005272D02*
X020880Y005272D01*
X020833Y005075D02*
X021467Y005075D01*
X021472Y005080D02*
X021220Y004828D01*
X021220Y004690D01*
X021610Y004690D01*
X021610Y005080D01*
X021472Y005080D01*
X021610Y005075D02*
X021690Y005075D01*
X021690Y005080D02*
X021690Y004690D01*
X021610Y004690D01*
X021610Y004610D01*
X021220Y004610D01*
X021220Y004472D01*
X021472Y004220D01*
X021610Y004220D01*
X021610Y004610D01*
X021690Y004610D01*
X021690Y004690D01*
X022080Y004690D01*
X022080Y004828D01*
X021828Y005080D01*
X021690Y005080D01*
X021690Y004977D02*
X021610Y004977D01*
X021610Y004878D02*
X021690Y004878D01*
X021690Y004780D02*
X021610Y004780D01*
X021610Y004681D02*
X021080Y004681D01*
X021080Y004583D02*
X021220Y004583D01*
X021220Y004484D02*
X021080Y004484D01*
X020994Y004386D02*
X021306Y004386D01*
X021405Y004287D02*
X020895Y004287D01*
X020828Y004080D02*
X020472Y004080D01*
X020220Y003828D01*
X020220Y003472D01*
X020472Y003220D01*
X020828Y003220D01*
X021080Y003472D01*
X021080Y003828D01*
X020828Y004080D01*
X020917Y003992D02*
X021383Y003992D01*
X021472Y004080D02*
X021220Y003828D01*
X021220Y003690D01*
X021610Y003690D01*
X021610Y004080D01*
X021472Y004080D01*
X021610Y003992D02*
X021690Y003992D01*
X021690Y004080D02*
X021690Y003690D01*
X021610Y003690D01*
X021610Y003610D01*
X021220Y003610D01*
X021220Y003472D01*
X021472Y003220D01*
X021610Y003220D01*
X021610Y003610D01*
X021690Y003610D01*
X021690Y003690D01*
X022080Y003690D01*
X022080Y003828D01*
X021828Y004080D01*
X021690Y004080D01*
X021690Y004220D02*
X021828Y004220D01*
X022080Y004472D01*
X022080Y004610D01*
X021690Y004610D01*
X021690Y004220D01*
X021690Y004287D02*
X021610Y004287D01*
X021610Y004386D02*
X021690Y004386D01*
X021690Y004484D02*
X021610Y004484D01*
X021610Y004583D02*
X021690Y004583D01*
X021690Y004681D02*
X023197Y004681D01*
X023198Y004583D02*
X022080Y004583D01*
X022080Y004484D02*
X023198Y004484D01*
X023198Y004386D02*
X021994Y004386D01*
X021895Y004287D02*
X023198Y004287D01*
X023198Y004189D02*
X011150Y004189D01*
X011150Y004287D02*
X020405Y004287D01*
X020306Y004386D02*
X011150Y004386D01*
X011150Y004484D02*
X020220Y004484D01*
X020192Y004583D02*
X011150Y004583D01*
X011150Y004681D02*
X020094Y004681D01*
X019995Y004780D02*
X011150Y004780D01*
X011150Y004878D02*
X019897Y004878D01*
X019798Y004977D02*
X011150Y004977D01*
X011150Y005075D02*
X019700Y005075D01*
X020055Y005371D02*
X020321Y005371D01*
X020223Y005469D02*
X019956Y005469D01*
X019858Y005568D02*
X020220Y005568D01*
X020220Y005666D02*
X019780Y005666D01*
X019780Y005765D02*
X020220Y005765D01*
X020255Y005863D02*
X019780Y005863D01*
X019780Y005962D02*
X020353Y005962D01*
X020452Y006060D02*
X019780Y006060D01*
X019780Y006159D02*
X023197Y006159D01*
X023197Y006257D02*
X021865Y006257D01*
X021828Y006220D02*
X022080Y006472D01*
X022080Y006610D01*
X021690Y006610D01*
X021690Y006220D01*
X021828Y006220D01*
X021690Y006257D02*
X021610Y006257D01*
X021610Y006356D02*
X021690Y006356D01*
X021690Y006454D02*
X021610Y006454D01*
X021610Y006553D02*
X021690Y006553D01*
X021690Y006651D02*
X023196Y006651D01*
X023196Y006553D02*
X022080Y006553D01*
X022062Y006454D02*
X023196Y006454D01*
X023197Y006356D02*
X021964Y006356D01*
X021848Y006060D02*
X023197Y006060D01*
X023197Y005962D02*
X021947Y005962D01*
X022045Y005863D02*
X023197Y005863D01*
X023197Y005765D02*
X022080Y005765D01*
X022080Y005610D02*
X021690Y005610D01*
X021690Y005220D01*
X021828Y005220D01*
X022080Y005472D01*
X022080Y005610D01*
X022080Y005568D02*
X023197Y005568D01*
X023197Y005666D02*
X021690Y005666D01*
X021690Y005568D02*
X021610Y005568D01*
X021610Y005469D02*
X021690Y005469D01*
X021690Y005371D02*
X021610Y005371D01*
X021610Y005272D02*
X021690Y005272D01*
X021880Y005272D02*
X023197Y005272D01*
X023197Y005174D02*
X020252Y005174D01*
X020153Y005272D02*
X020420Y005272D01*
X020467Y005075D02*
X020350Y005075D01*
X020932Y004977D02*
X021368Y004977D01*
X021270Y004878D02*
X021030Y004878D01*
X021080Y004780D02*
X021220Y004780D01*
X021833Y005075D02*
X023197Y005075D01*
X023197Y004977D02*
X021932Y004977D01*
X022030Y004878D02*
X023197Y004878D01*
X023197Y004780D02*
X022080Y004780D01*
X021979Y005371D02*
X023197Y005371D01*
X023197Y005469D02*
X022077Y005469D01*
X021353Y005962D02*
X020947Y005962D01*
X021045Y005863D02*
X021255Y005863D01*
X021220Y005765D02*
X021080Y005765D01*
X020435Y006257D02*
X019768Y006257D01*
X019670Y006356D02*
X020336Y006356D01*
X020238Y006454D02*
X019571Y006454D01*
X019473Y006553D02*
X020220Y006553D01*
X020220Y006651D02*
X019374Y006651D01*
X019276Y006750D02*
X020220Y006750D01*
X020240Y006848D02*
X019177Y006848D01*
X019079Y006947D02*
X020338Y006947D01*
X020437Y007045D02*
X018980Y007045D01*
X018882Y007144D02*
X023196Y007144D01*
X023196Y007242D02*
X021850Y007242D01*
X021949Y007341D02*
X023196Y007341D01*
X023196Y007439D02*
X022047Y007439D01*
X021690Y007439D02*
X021610Y007439D01*
X021610Y007341D02*
X021690Y007341D01*
X021690Y007242D02*
X021610Y007242D01*
X021863Y007045D02*
X023196Y007045D01*
X023196Y006947D02*
X021962Y006947D01*
X022060Y006848D02*
X023196Y006848D01*
X023196Y006750D02*
X022080Y006750D01*
X021338Y006947D02*
X020962Y006947D01*
X021060Y006848D02*
X021240Y006848D01*
X021220Y006750D02*
X021080Y006750D01*
X020450Y007242D02*
X018783Y007242D01*
X018685Y007341D02*
X020351Y007341D01*
X020253Y007439D02*
X018586Y007439D01*
X018488Y007538D02*
X020220Y007538D01*
X020220Y007636D02*
X018389Y007636D01*
X018291Y007735D02*
X020220Y007735D01*
X020225Y007833D02*
X018192Y007833D01*
X018094Y007932D02*
X020323Y007932D01*
X020878Y008030D02*
X021422Y008030D01*
X021323Y007932D02*
X020977Y007932D01*
X021075Y007833D02*
X021225Y007833D01*
X021220Y007735D02*
X021080Y007735D01*
X021610Y007735D02*
X021690Y007735D01*
X021690Y007833D02*
X021610Y007833D01*
X021610Y007932D02*
X021690Y007932D01*
X021690Y008030D02*
X021610Y008030D01*
X021465Y008227D02*
X020835Y008227D01*
X020934Y008326D02*
X021366Y008326D01*
X021268Y008424D02*
X021032Y008424D01*
X021080Y008523D02*
X021220Y008523D01*
X021080Y008621D02*
X021610Y008621D01*
X021610Y008720D02*
X021690Y008720D01*
X021690Y008690D02*
X021690Y009080D01*
X021828Y009080D01*
X022080Y008828D01*
X022080Y008690D01*
X021690Y008690D01*
X021690Y008818D02*
X021610Y008818D01*
X021610Y008917D02*
X021690Y008917D01*
X021690Y009015D02*
X021610Y009015D01*
X021407Y009015D02*
X020893Y009015D01*
X020992Y008917D02*
X021308Y008917D01*
X021220Y008818D02*
X021080Y008818D01*
X021080Y008720D02*
X021220Y008720D01*
X021893Y009015D02*
X023195Y009015D01*
X023195Y008917D02*
X021992Y008917D01*
X022080Y008818D02*
X023195Y008818D01*
X023195Y008720D02*
X022080Y008720D01*
X021828Y009220D02*
X021690Y009220D01*
X021690Y009610D01*
X021690Y009690D01*
X021610Y009690D01*
X021610Y010080D01*
X021472Y010080D01*
X021220Y009828D01*
X021220Y009690D01*
X021610Y009690D01*
X021610Y009610D01*
X021220Y009610D01*
X021220Y009472D01*
X021472Y009220D01*
X021610Y009220D01*
X021610Y009610D01*
X021690Y009610D01*
X022080Y009610D01*
X022080Y009472D01*
X021828Y009220D01*
X021919Y009311D02*
X023195Y009311D01*
X023195Y009409D02*
X022017Y009409D01*
X022080Y009508D02*
X023195Y009508D01*
X023195Y009606D02*
X022080Y009606D01*
X022080Y009690D02*
X022080Y009828D01*
X021828Y010080D01*
X021690Y010080D01*
X021690Y009690D01*
X022080Y009690D01*
X022080Y009705D02*
X023195Y009705D01*
X023195Y009803D02*
X022080Y009803D01*
X022007Y009902D02*
X023195Y009902D01*
X023194Y010000D02*
X021908Y010000D01*
X021690Y010000D02*
X021610Y010000D01*
X021610Y009902D02*
X021690Y009902D01*
X021690Y009803D02*
X021610Y009803D01*
X021610Y009705D02*
X021690Y009705D01*
X021690Y009606D02*
X021610Y009606D01*
X021610Y009508D02*
X021690Y009508D01*
X021690Y009409D02*
X021610Y009409D01*
X021610Y009311D02*
X021690Y009311D01*
X021381Y009311D02*
X020919Y009311D01*
X021017Y009409D02*
X021283Y009409D01*
X021220Y009508D02*
X021080Y009508D01*
X021080Y009606D02*
X021220Y009606D01*
X021220Y009705D02*
X021080Y009705D01*
X021080Y009803D02*
X021220Y009803D01*
X021293Y009902D02*
X021007Y009902D01*
X020908Y010000D02*
X021392Y010000D01*
X021472Y010220D02*
X021220Y010472D01*
X021220Y010610D01*
X021610Y010610D01*
X021610Y010690D01*
X021610Y011080D01*
X021472Y011080D01*
X021220Y010828D01*
X021220Y010690D01*
X021610Y010690D01*
X021690Y010690D01*
X021690Y011080D01*
X021828Y011080D01*
X022080Y010828D01*
X022080Y010690D01*
X021690Y010690D01*
X021690Y010610D01*
X022080Y010610D01*
X022080Y010472D01*
X021828Y010220D01*
X021690Y010220D01*
X021690Y010610D01*
X021610Y010610D01*
X021610Y010220D01*
X021472Y010220D01*
X021396Y010296D02*
X020904Y010296D01*
X021002Y010394D02*
X021298Y010394D01*
X021220Y010493D02*
X021080Y010493D01*
X021080Y010591D02*
X021220Y010591D01*
X021080Y010690D02*
X021610Y010690D01*
X021690Y010690D02*
X023194Y010690D01*
X023194Y010788D02*
X022080Y010788D01*
X022022Y010887D02*
X023194Y010887D01*
X023194Y010985D02*
X021923Y010985D01*
X021690Y010985D02*
X021610Y010985D01*
X021610Y010887D02*
X021690Y010887D01*
X021690Y010788D02*
X021610Y010788D01*
X021610Y010591D02*
X021690Y010591D01*
X021690Y010493D02*
X021610Y010493D01*
X021610Y010394D02*
X021690Y010394D01*
X021690Y010296D02*
X021610Y010296D01*
X021904Y010296D02*
X023194Y010296D01*
X023194Y010394D02*
X022002Y010394D01*
X022080Y010493D02*
X023194Y010493D01*
X023194Y010591D02*
X022080Y010591D01*
X021377Y010985D02*
X020923Y010985D01*
X021022Y010887D02*
X021278Y010887D01*
X021220Y010788D02*
X021080Y010788D01*
X020828Y011220D02*
X020472Y011220D01*
X020220Y011472D01*
X020220Y011828D01*
X020472Y012080D01*
X020828Y012080D01*
X021080Y011828D01*
X021080Y011472D01*
X020828Y011220D01*
X020889Y011281D02*
X021411Y011281D01*
X021472Y011220D02*
X021828Y011220D01*
X022080Y011472D01*
X022080Y011828D01*
X021828Y012080D01*
X021472Y012080D01*
X021220Y011828D01*
X021220Y011472D01*
X021472Y011220D01*
X021313Y011379D02*
X020987Y011379D01*
X021080Y011478D02*
X021220Y011478D01*
X021220Y011576D02*
X021080Y011576D01*
X021080Y011675D02*
X021220Y011675D01*
X021220Y011773D02*
X021080Y011773D01*
X021037Y011872D02*
X021263Y011872D01*
X021362Y011970D02*
X020938Y011970D01*
X020840Y012069D02*
X021460Y012069D01*
X021840Y012069D02*
X023193Y012069D01*
X023193Y012167D02*
X019258Y012167D01*
X019160Y012266D02*
X023193Y012266D01*
X023193Y012364D02*
X019061Y012364D01*
X018963Y012463D02*
X023193Y012463D01*
X023193Y012561D02*
X018864Y012561D01*
X018766Y012660D02*
X023193Y012660D01*
X023193Y012758D02*
X018667Y012758D01*
X018569Y012857D02*
X023193Y012857D01*
X023193Y012955D02*
X018470Y012955D01*
X018372Y013054D02*
X023193Y013054D01*
X023193Y013152D02*
X018280Y013152D01*
X018266Y013251D02*
X023193Y013251D01*
X023193Y013349D02*
X018218Y013349D01*
X018094Y013448D02*
X023193Y013448D01*
X023192Y013546D02*
X000600Y013546D01*
X000600Y013448D02*
X017806Y013448D01*
X017682Y013349D02*
X000600Y013349D01*
X000600Y013251D02*
X017634Y013251D01*
X019357Y012069D02*
X020460Y012069D01*
X020362Y011970D02*
X019455Y011970D01*
X019554Y011872D02*
X020263Y011872D01*
X020220Y011773D02*
X019652Y011773D01*
X019751Y011675D02*
X020220Y011675D01*
X020220Y011576D02*
X019849Y011576D01*
X019948Y011478D02*
X020220Y011478D01*
X020313Y011379D02*
X020046Y011379D01*
X020145Y011281D02*
X020411Y011281D01*
X020243Y011182D02*
X023194Y011182D01*
X023194Y011084D02*
X020342Y011084D01*
X021889Y011281D02*
X023194Y011281D01*
X023194Y011379D02*
X021987Y011379D01*
X022080Y011478D02*
X023194Y011478D01*
X023194Y011576D02*
X022080Y011576D01*
X022080Y011675D02*
X023194Y011675D01*
X023193Y011773D02*
X022080Y011773D01*
X022037Y011872D02*
X023193Y011872D01*
X023193Y011970D02*
X021938Y011970D01*
X023192Y013645D02*
X000600Y013645D01*
X000600Y013152D02*
X002003Y013152D01*
X001818Y013054D02*
X000600Y013054D01*
X000600Y012955D02*
X001720Y012955D01*
X001673Y012857D02*
X000600Y012857D01*
X000600Y012758D02*
X001632Y012758D01*
X001630Y012660D02*
X000600Y012660D01*
X000600Y012561D02*
X001630Y012561D01*
X001665Y012463D02*
X000600Y012463D01*
X000600Y012364D02*
X001706Y012364D01*
X001799Y012266D02*
X000600Y012266D01*
X000600Y012167D02*
X001957Y012167D01*
X001841Y012069D02*
X000600Y012069D01*
X000600Y011970D02*
X001740Y011970D01*
X001679Y011872D02*
X000600Y011872D01*
X000600Y011773D02*
X001643Y011773D01*
X001635Y011576D02*
X000600Y011576D01*
X000600Y011478D02*
X001659Y011478D01*
X001704Y011379D02*
X000600Y011379D01*
X000600Y011281D02*
X001784Y011281D01*
X001923Y011182D02*
X000600Y011182D01*
X000600Y011084D02*
X001848Y011084D01*
X001750Y010985D02*
X000600Y010985D01*
X000600Y010887D02*
X001685Y010887D01*
X001644Y010788D02*
X000600Y010788D01*
X000600Y010690D02*
X001630Y010690D01*
X001630Y010591D02*
X000600Y010591D01*
X000600Y010493D02*
X001652Y010493D01*
X001693Y010394D02*
X000600Y010394D01*
X000600Y010296D02*
X001769Y010296D01*
X001885Y010197D02*
X000600Y010197D01*
X000600Y010099D02*
X001874Y010099D01*
X001765Y010000D02*
X000600Y010000D01*
X000600Y009902D02*
X001691Y009902D01*
X001651Y009803D02*
X000600Y009803D01*
X000600Y009705D02*
X001630Y009705D01*
X001630Y009606D02*
X000600Y009606D01*
X000600Y009508D02*
X001646Y009508D01*
X001687Y009409D02*
X000600Y009409D01*
X000600Y009311D02*
X001754Y009311D01*
X001853Y009212D02*
X000600Y009212D01*
X000600Y009114D02*
X001910Y009114D01*
X001780Y009015D02*
X000600Y009015D01*
X000600Y008917D02*
X001698Y008917D01*
X001657Y008818D02*
X000600Y008818D01*
X000600Y008720D02*
X001630Y008720D01*
X001630Y008621D02*
X000600Y008621D01*
X000600Y008523D02*
X001640Y008523D01*
X001681Y008424D02*
X000600Y008424D01*
X000600Y008326D02*
X001739Y008326D01*
X001838Y008227D02*
X000600Y008227D01*
X000600Y008129D02*
X001946Y008129D01*
X001795Y008030D02*
X000600Y008030D01*
X000600Y007932D02*
X001704Y007932D01*
X001663Y007833D02*
X000600Y007833D01*
X000600Y007735D02*
X001630Y007735D01*
X001630Y007636D02*
X000600Y007636D01*
X000600Y007538D02*
X001634Y007538D01*
X001675Y007439D02*
X000600Y007439D01*
X000600Y007341D02*
X001724Y007341D01*
X001823Y007242D02*
X000600Y007242D01*
X000600Y007144D02*
X001983Y007144D01*
X001810Y007045D02*
X000600Y007045D01*
X000600Y006947D02*
X001711Y006947D01*
X001669Y006848D02*
X000600Y006848D01*
X000600Y006750D02*
X001630Y006750D01*
X001630Y006651D02*
X000600Y006651D01*
X000600Y006553D02*
X001630Y006553D01*
X001668Y006454D02*
X000600Y006454D01*
X000600Y006356D02*
X001709Y006356D01*
X001808Y006257D02*
X000600Y006257D01*
X000600Y006159D02*
X001978Y006159D01*
X001825Y006060D02*
X000600Y006060D01*
X000600Y005962D02*
X001726Y005962D01*
X001675Y005863D02*
X000600Y005863D01*
X000600Y005765D02*
X001635Y005765D01*
X001630Y005666D02*
X000600Y005666D01*
X000600Y005568D02*
X001630Y005568D01*
X001662Y005469D02*
X000600Y005469D01*
X000600Y005371D02*
X001703Y005371D01*
X001793Y005272D02*
X000600Y005272D01*
X000600Y005174D02*
X001942Y005174D01*
X011150Y004090D02*
X014871Y004090D01*
X014877Y004095D02*
X014811Y004047D01*
X014753Y003989D01*
X014705Y003923D01*
X014668Y003850D01*
X014643Y003772D01*
X014630Y003691D01*
X014630Y003689D01*
X015111Y003689D01*
X015111Y004170D01*
X015109Y004170D01*
X015028Y004157D01*
X014950Y004132D01*
X014877Y004095D01*
X014756Y003992D02*
X011150Y003992D01*
X011150Y003893D02*
X014690Y003893D01*
X014650Y003795D02*
X011150Y003795D01*
X011150Y003696D02*
X014631Y003696D01*
X014630Y003611D02*
X014630Y003609D01*
X014643Y003528D01*
X014668Y003450D01*
X014705Y003377D01*
X014753Y003311D01*
X014811Y003253D01*
X014877Y003205D01*
X014950Y003168D01*
X015006Y003150D01*
X014950Y003132D01*
X014877Y003095D01*
X014811Y003047D01*
X014753Y002989D01*
X014705Y002923D01*
X014668Y002850D01*
X014643Y002772D01*
X014630Y002691D01*
X014630Y002689D01*
X015111Y002689D01*
X015111Y003611D01*
X014630Y003611D01*
X014632Y003598D02*
X011150Y003598D01*
X011150Y003499D02*
X014652Y003499D01*
X014694Y003401D02*
X011150Y003401D01*
X011150Y003302D02*
X014763Y003302D01*
X014881Y003204D02*
X011150Y003204D01*
X011150Y003105D02*
X014898Y003105D01*
X014771Y003007D02*
X011150Y003007D01*
X011150Y002908D02*
X014698Y002908D01*
X014655Y002810D02*
X011150Y002810D01*
X011150Y002711D02*
X014633Y002711D01*
X014630Y002611D02*
X014630Y002609D01*
X014643Y002528D01*
X014668Y002450D01*
X014705Y002377D01*
X014753Y002311D01*
X014811Y002253D01*
X014877Y002205D01*
X014950Y002168D01*
X015028Y002143D01*
X015109Y002130D01*
X015111Y002130D01*
X015111Y002611D01*
X015189Y002611D01*
X015189Y002689D01*
X015670Y002689D01*
X015670Y002691D01*
X015657Y002772D01*
X015632Y002850D01*
X015595Y002923D01*
X015547Y002989D01*
X015489Y003047D01*
X015423Y003095D01*
X015350Y003132D01*
X015294Y003150D01*
X015350Y003168D01*
X015423Y003205D01*
X015489Y003253D01*
X015547Y003311D01*
X015595Y003377D01*
X015632Y003450D01*
X015657Y003528D01*
X015670Y003609D01*
X015670Y003611D01*
X015189Y003611D01*
X015189Y003689D01*
X015670Y003689D01*
X015670Y003691D01*
X015657Y003772D01*
X015632Y003850D01*
X015595Y003923D01*
X015547Y003989D01*
X015489Y004047D01*
X015423Y004095D01*
X015350Y004132D01*
X015272Y004157D01*
X015191Y004170D01*
X015189Y004170D01*
X015189Y003689D01*
X015111Y003689D01*
X015111Y003611D01*
X015189Y003611D01*
X015189Y003130D01*
X015189Y002689D01*
X015111Y002689D01*
X015111Y002611D01*
X014630Y002611D01*
X014647Y002514D02*
X011150Y002514D01*
X011150Y002416D02*
X014686Y002416D01*
X014749Y002317D02*
X011150Y002317D01*
X011150Y002219D02*
X014859Y002219D01*
X015111Y002219D02*
X015189Y002219D01*
X015189Y002130D02*
X015191Y002130D01*
X015272Y002143D01*
X015350Y002168D01*
X015423Y002205D01*
X015489Y002253D01*
X015547Y002311D01*
X015595Y002377D01*
X015632Y002450D01*
X015657Y002528D01*
X015670Y002609D01*
X015670Y002611D01*
X015189Y002611D01*
X015189Y002130D01*
X015441Y002219D02*
X017846Y002219D01*
X017855Y002209D02*
X018047Y002130D01*
X018253Y002130D01*
X018445Y002209D01*
X018591Y002355D01*
X018670Y002547D01*
X018670Y002753D01*
X018591Y002945D01*
X018445Y003091D01*
X018302Y003150D01*
X018445Y003209D01*
X018591Y003355D01*
X018670Y003547D01*
X018670Y003753D01*
X018591Y003945D01*
X018445Y004091D01*
X018253Y004170D01*
X018047Y004170D01*
X017855Y004091D01*
X017709Y003945D01*
X017630Y003753D01*
X017630Y003547D01*
X017709Y003355D01*
X017855Y003209D01*
X017998Y003150D01*
X017855Y003091D01*
X017709Y002945D01*
X017630Y002753D01*
X017630Y002547D01*
X017709Y002355D01*
X017855Y002209D01*
X017748Y002317D02*
X015551Y002317D01*
X015614Y002416D02*
X017684Y002416D01*
X017643Y002514D02*
X015653Y002514D01*
X015667Y002711D02*
X017630Y002711D01*
X017630Y002613D02*
X015189Y002613D01*
X015111Y002613D02*
X011150Y002613D01*
X011150Y002120D02*
X023199Y002120D01*
X023199Y002022D02*
X011150Y002022D01*
X011150Y001923D02*
X023199Y001923D01*
X023199Y001825D02*
X011150Y001825D01*
X011150Y001726D02*
X023199Y001726D01*
X023199Y001628D02*
X011150Y001628D01*
X011150Y001529D02*
X023199Y001529D01*
X023199Y001431D02*
X011150Y001431D01*
X011150Y001332D02*
X023199Y001332D01*
X023199Y001234D02*
X011150Y001234D01*
X011150Y001135D02*
X023199Y001135D01*
X023200Y001037D02*
X011150Y001037D01*
X011150Y000938D02*
X023200Y000938D01*
X023200Y000840D02*
X011150Y000840D01*
X011150Y000741D02*
X023200Y000741D01*
X023200Y000643D02*
X011150Y000643D01*
X015111Y002317D02*
X015189Y002317D01*
X015189Y002416D02*
X015111Y002416D01*
X015111Y002514D02*
X015189Y002514D01*
X015189Y002711D02*
X015111Y002711D01*
X015111Y002810D02*
X015189Y002810D01*
X015189Y002908D02*
X015111Y002908D01*
X015111Y003007D02*
X015189Y003007D01*
X015189Y003105D02*
X015111Y003105D01*
X015111Y003204D02*
X015189Y003204D01*
X015189Y003302D02*
X015111Y003302D01*
X015111Y003401D02*
X015189Y003401D01*
X015189Y003499D02*
X015111Y003499D01*
X015111Y003598D02*
X015189Y003598D01*
X015189Y003696D02*
X015111Y003696D01*
X015111Y003795D02*
X015189Y003795D01*
X015189Y003893D02*
X015111Y003893D01*
X015111Y003992D02*
X015189Y003992D01*
X015189Y004090D02*
X015111Y004090D01*
X015429Y004090D02*
X017855Y004090D01*
X017756Y003992D02*
X015544Y003992D01*
X015610Y003893D02*
X017688Y003893D01*
X017647Y003795D02*
X015650Y003795D01*
X015669Y003696D02*
X017630Y003696D01*
X017630Y003598D02*
X015668Y003598D01*
X015648Y003499D02*
X017650Y003499D01*
X017690Y003401D02*
X015606Y003401D01*
X015537Y003302D02*
X017763Y003302D01*
X017869Y003204D02*
X015419Y003204D01*
X015402Y003105D02*
X017890Y003105D01*
X017771Y003007D02*
X015529Y003007D01*
X015602Y002908D02*
X017694Y002908D01*
X017653Y002810D02*
X015645Y002810D01*
X018410Y003105D02*
X023198Y003105D01*
X023198Y003007D02*
X021902Y003007D01*
X021828Y003080D02*
X021690Y003080D01*
X021690Y002690D01*
X021610Y002690D01*
X021610Y003080D01*
X021472Y003080D01*
X021220Y002828D01*
X021220Y002690D01*
X021610Y002690D01*
X021610Y002610D01*
X021220Y002610D01*
X021220Y002472D01*
X021472Y002220D01*
X021610Y002220D01*
X021610Y002610D01*
X021690Y002610D01*
X021690Y002690D01*
X022080Y002690D01*
X022080Y002828D01*
X021828Y003080D01*
X021828Y003220D02*
X021690Y003220D01*
X021690Y003610D01*
X022080Y003610D01*
X022080Y003472D01*
X021828Y003220D01*
X021910Y003302D02*
X023198Y003302D01*
X023198Y003204D02*
X018431Y003204D01*
X018537Y003302D02*
X020390Y003302D01*
X020291Y003401D02*
X018610Y003401D01*
X018650Y003499D02*
X020220Y003499D01*
X020220Y003598D02*
X018670Y003598D01*
X018670Y003696D02*
X020220Y003696D01*
X020220Y003795D02*
X018653Y003795D01*
X018612Y003893D02*
X020285Y003893D01*
X020383Y003992D02*
X018544Y003992D01*
X018445Y004090D02*
X023198Y004090D01*
X023198Y003992D02*
X021917Y003992D01*
X022015Y003893D02*
X023198Y003893D01*
X023198Y003795D02*
X022080Y003795D01*
X022080Y003696D02*
X023198Y003696D01*
X023198Y003598D02*
X022080Y003598D01*
X022080Y003499D02*
X023198Y003499D01*
X023198Y003401D02*
X022009Y003401D01*
X021690Y003401D02*
X021610Y003401D01*
X021610Y003499D02*
X021690Y003499D01*
X021690Y003598D02*
X021610Y003598D01*
X021610Y003696D02*
X021690Y003696D01*
X021690Y003795D02*
X021610Y003795D01*
X021610Y003893D02*
X021690Y003893D01*
X021285Y003893D02*
X021015Y003893D01*
X021080Y003795D02*
X021220Y003795D01*
X021220Y003696D02*
X021080Y003696D01*
X021080Y003598D02*
X021220Y003598D01*
X021220Y003499D02*
X021080Y003499D01*
X021009Y003401D02*
X021291Y003401D01*
X021390Y003302D02*
X020910Y003302D01*
X020828Y003080D02*
X020472Y003080D01*
X020220Y002828D01*
X020220Y002472D01*
X020472Y002220D01*
X020828Y002220D01*
X021080Y002472D01*
X021080Y002828D01*
X020828Y003080D01*
X020902Y003007D02*
X021398Y003007D01*
X021300Y002908D02*
X021000Y002908D01*
X021080Y002810D02*
X021220Y002810D01*
X021220Y002711D02*
X021080Y002711D01*
X021080Y002613D02*
X021610Y002613D01*
X021690Y002613D02*
X023199Y002613D01*
X023199Y002711D02*
X022080Y002711D01*
X022080Y002810D02*
X023199Y002810D01*
X023198Y002908D02*
X022000Y002908D01*
X021690Y002908D02*
X021610Y002908D01*
X021610Y002810D02*
X021690Y002810D01*
X021690Y002711D02*
X021610Y002711D01*
X021690Y002610D02*
X022080Y002610D01*
X022080Y002472D01*
X021828Y002220D01*
X021690Y002220D01*
X021690Y002610D01*
X021690Y002514D02*
X021610Y002514D01*
X021610Y002416D02*
X021690Y002416D01*
X021690Y002317D02*
X021610Y002317D01*
X021375Y002317D02*
X020925Y002317D01*
X021024Y002416D02*
X021276Y002416D01*
X021220Y002514D02*
X021080Y002514D01*
X020375Y002317D02*
X018552Y002317D01*
X018616Y002416D02*
X020276Y002416D01*
X020220Y002514D02*
X018657Y002514D01*
X018670Y002613D02*
X020220Y002613D01*
X020220Y002711D02*
X018670Y002711D01*
X018647Y002810D02*
X020220Y002810D01*
X020300Y002908D02*
X018606Y002908D01*
X018529Y003007D02*
X020398Y003007D01*
X021610Y003007D02*
X021690Y003007D01*
X021690Y003302D02*
X021610Y003302D01*
X022080Y002514D02*
X023199Y002514D01*
X023199Y002416D02*
X022024Y002416D01*
X021925Y002317D02*
X023199Y002317D01*
X023199Y002219D02*
X018454Y002219D01*
X018322Y006159D02*
X019216Y006159D01*
X019118Y006257D02*
X018492Y006257D01*
X018591Y006356D02*
X019019Y006356D01*
X018921Y006454D02*
X018632Y006454D01*
X018670Y006553D02*
X018822Y006553D01*
X018724Y006651D02*
X018670Y006651D01*
X017700Y008326D02*
X020366Y008326D01*
X020268Y008424D02*
X017601Y008424D01*
X017503Y008523D02*
X020220Y008523D01*
X020220Y008621D02*
X017404Y008621D01*
X017306Y008720D02*
X020220Y008720D01*
X020220Y008818D02*
X017207Y008818D01*
X017109Y008917D02*
X020308Y008917D01*
X020407Y009015D02*
X017010Y009015D01*
X016912Y009114D02*
X023195Y009114D01*
X023195Y009212D02*
X016880Y009212D01*
X016841Y009311D02*
X020381Y009311D01*
X020283Y009409D02*
X016758Y009409D01*
X021610Y007538D02*
X021690Y007538D01*
X002100Y011675D02*
X000600Y011675D01*
D13*
X010150Y009150D02*
X010150Y008750D01*
X011550Y007350D01*
X011350Y009150D02*
X010550Y009950D01*
X016550Y009150D02*
X019550Y006150D01*
X019550Y005550D01*
X020550Y004550D01*
X020650Y004650D01*
X020550Y010550D02*
X020650Y010650D01*
X020550Y010550D02*
X017950Y013150D01*
D14*
X017950Y013150D03*
X016550Y009150D03*
X011550Y007350D03*
X011350Y009150D03*
X010150Y009150D03*
X010550Y009950D03*
M02*
