G75*
G70*
%OFA0B0*%
%FSLAX24Y24*%
%IPPOS*%
%LPD*%
%AMOC8*
5,1,8,0,0,1.08239X$1,22.5*
%
%ADD10OC8,0.0640*%
%ADD11C,0.0820*%
D10*
X020650Y002650D03*
X021650Y002650D03*
X021650Y003650D03*
X020650Y003650D03*
X020650Y004650D03*
X021650Y004650D03*
X021650Y005650D03*
X020650Y005650D03*
X020650Y006650D03*
X021650Y006650D03*
X021650Y007650D03*
X020650Y007650D03*
X020650Y008650D03*
X021650Y008650D03*
X021650Y009650D03*
X020650Y009650D03*
X020650Y010650D03*
X021650Y010650D03*
X021650Y011650D03*
X020650Y011650D03*
D11*
X002150Y001650D03*
X002150Y002650D03*
X002150Y003650D03*
X002150Y004650D03*
X002150Y005650D03*
X002150Y006650D03*
X002150Y007650D03*
X002150Y008650D03*
X002150Y009650D03*
X002150Y010650D03*
X002150Y011650D03*
X002150Y012650D03*
X009150Y012650D03*
X009150Y011650D03*
X009150Y010650D03*
X009150Y009650D03*
X009150Y008650D03*
X009150Y007650D03*
X009150Y006650D03*
X009150Y005650D03*
X009150Y004650D03*
X009150Y003650D03*
X009150Y002650D03*
X009150Y001650D03*
X015150Y002650D03*
X015150Y003650D03*
X018150Y003650D03*
X018150Y002650D03*
X018150Y006650D03*
X015150Y006650D03*
X012150Y007650D03*
X012150Y010650D03*
M02*
