G75*
G70*
%OFA0B0*%
%FSLAX24Y24*%
%IPPOS*%
%LPD*%
%AMOC8*
5,1,8,0,0,1.08239X$1,22.5*
%
%ADD10C,0.0110*%
D10*
X000900Y008205D02*
X001294Y008205D01*
X000900Y008599D01*
X000900Y008697D01*
X000999Y008796D01*
X001196Y008796D01*
X001294Y008697D01*
X001545Y008697D02*
X001643Y008796D01*
X001840Y008796D01*
X001939Y008697D01*
X001939Y008303D01*
X001545Y008697D01*
X001545Y008303D01*
X001643Y008205D01*
X001840Y008205D01*
X001939Y008303D01*
X002189Y008500D02*
X002583Y008500D01*
X002834Y008500D02*
X003228Y008500D01*
X002932Y008796D01*
X002932Y008205D01*
X003479Y008303D02*
X003577Y008205D01*
X003774Y008205D01*
X003872Y008303D01*
X003479Y008697D01*
X003479Y008303D01*
X003872Y008303D02*
X003872Y008697D01*
X003774Y008796D01*
X003577Y008796D01*
X003479Y008697D01*
X004123Y008500D02*
X004517Y008500D01*
X004768Y008402D02*
X004768Y008303D01*
X004866Y008205D01*
X005063Y008205D01*
X005161Y008303D01*
X005412Y008205D02*
X005806Y008205D01*
X005609Y008205D02*
X005609Y008796D01*
X005806Y008599D01*
X006057Y008697D02*
X006155Y008796D01*
X006352Y008796D01*
X006450Y008697D01*
X006450Y008303D01*
X006057Y008697D01*
X006057Y008303D01*
X006155Y008205D01*
X006352Y008205D01*
X006450Y008303D01*
X006701Y008205D02*
X007095Y008205D01*
X006701Y008599D01*
X006701Y008697D01*
X006800Y008796D01*
X006997Y008796D01*
X007095Y008697D01*
X006898Y009205D02*
X006701Y009599D01*
X006450Y009697D02*
X006352Y009796D01*
X006155Y009796D01*
X006057Y009697D01*
X006450Y009303D01*
X006352Y009205D01*
X006155Y009205D01*
X006057Y009303D01*
X006057Y009697D01*
X006450Y009697D02*
X006450Y009303D01*
X006898Y009205D02*
X007095Y009599D01*
X005806Y009303D02*
X005806Y009205D01*
X005707Y009205D01*
X005707Y009303D01*
X005806Y009303D01*
X005484Y009205D02*
X005090Y009205D01*
X005287Y009205D02*
X005287Y009796D01*
X005484Y009599D01*
X005063Y008796D02*
X004866Y008796D01*
X004768Y008697D01*
X004768Y008599D01*
X004866Y008500D01*
X004768Y008402D01*
X004866Y008500D02*
X004965Y008500D01*
X005161Y008697D02*
X005063Y008796D01*
X005081Y010705D02*
X005278Y010705D01*
X005376Y010803D01*
X005376Y011000D01*
X005278Y011099D01*
X005081Y011099D01*
X004983Y011000D01*
X004983Y010902D01*
X005376Y010902D01*
X005707Y011099D02*
X005707Y010705D01*
X005609Y010705D02*
X005806Y010705D01*
X006057Y010705D02*
X006057Y011000D01*
X006155Y011099D01*
X006352Y011099D01*
X006450Y011000D01*
X006701Y010902D02*
X006701Y010803D01*
X006800Y010705D01*
X006997Y010705D01*
X007095Y010803D01*
X006997Y011000D02*
X006800Y011000D01*
X006701Y010902D01*
X006997Y011000D02*
X007095Y011099D01*
X007095Y011197D01*
X006997Y011296D01*
X006800Y011296D01*
X006701Y011197D01*
X006450Y011296D02*
X006450Y010705D01*
X005806Y011099D02*
X005707Y011099D01*
X005707Y011296D02*
X005707Y011394D01*
X005618Y011755D02*
X005520Y011853D01*
X005520Y012050D01*
X005618Y012149D01*
X005815Y012149D01*
X005913Y012050D01*
X005913Y011853D01*
X005815Y011755D01*
X005618Y011755D01*
X005269Y011853D02*
X005269Y012050D01*
X005170Y012149D01*
X004875Y012149D01*
X004875Y011657D01*
X004974Y011558D01*
X005072Y011558D01*
X005170Y011755D02*
X004875Y011755D01*
X004624Y011755D02*
X004624Y012149D01*
X004624Y011952D02*
X004427Y012149D01*
X004329Y012149D01*
X003989Y012149D02*
X003792Y012149D01*
X003693Y012050D01*
X003693Y011755D01*
X003989Y011755D01*
X004087Y011853D01*
X003989Y011952D01*
X003693Y011952D01*
X003443Y011755D02*
X003443Y012149D01*
X003344Y012149D01*
X003246Y012050D01*
X003147Y012149D01*
X003049Y012050D01*
X003049Y011755D01*
X003246Y011755D02*
X003246Y012050D01*
X002798Y012149D02*
X002798Y011755D01*
X002601Y011755D02*
X002601Y012050D01*
X002503Y012149D01*
X002404Y012050D01*
X002404Y011755D01*
X002153Y011853D02*
X002153Y012050D01*
X002055Y012149D01*
X001858Y012149D01*
X001760Y012050D01*
X001760Y011952D01*
X002153Y011952D01*
X002153Y011853D02*
X002055Y011755D01*
X001858Y011755D01*
X001509Y011755D02*
X001509Y012149D01*
X001509Y011952D02*
X001312Y012149D01*
X001214Y012149D01*
X002601Y012050D02*
X002700Y012149D01*
X002798Y012149D01*
X003908Y011296D02*
X003908Y010705D01*
X004204Y010705D01*
X004302Y010803D01*
X004302Y011000D01*
X004204Y011099D01*
X003908Y011099D01*
X004535Y010705D02*
X004732Y010705D01*
X004633Y010705D02*
X004633Y011296D01*
X004732Y011296D01*
X005170Y011755D02*
X005269Y011853D01*
X006155Y012149D02*
X006254Y012149D01*
X006450Y011952D01*
X006450Y011755D02*
X006450Y012149D01*
X006701Y012247D02*
X006701Y012050D01*
X006800Y011952D01*
X007095Y011952D01*
X007095Y011755D02*
X007095Y012346D01*
X006800Y012346D01*
X006701Y012247D01*
X006450Y012608D02*
X006450Y013199D01*
X006155Y013199D01*
X006057Y013100D01*
X006057Y012903D01*
X006155Y012805D01*
X006450Y012805D01*
X006701Y012903D02*
X006800Y012805D01*
X006997Y012805D01*
X007095Y012903D01*
X006997Y013100D02*
X006800Y013100D01*
X006701Y013002D01*
X006701Y012903D01*
X006997Y013100D02*
X007095Y013199D01*
X007095Y013297D01*
X006997Y013396D01*
X006800Y013396D01*
X006701Y013297D01*
X005806Y012903D02*
X005707Y013002D01*
X005412Y013002D01*
X005412Y013100D02*
X005412Y012805D01*
X005707Y012805D01*
X005806Y012903D01*
X005707Y013199D02*
X005511Y013199D01*
X005412Y013100D01*
X005161Y013002D02*
X004965Y013199D01*
X004866Y013199D01*
X005161Y013199D02*
X005161Y012805D01*
X004624Y012805D02*
X004624Y013396D01*
X004329Y013199D02*
X004624Y013002D01*
X004329Y012805D01*
M02*
