G75*
G70*
%OFA0B0*%
%FSLAX24Y24*%
%IPPOS*%
%LPD*%
%AMOC8*
5,1,8,0,0,1.08239X$1,22.5*
%
%ADD10C,0.0060*%
%ADD11C,0.0020*%
%ADD12C,0.0050*%
%ADD13C,0.0080*%
D10*
X012043Y008380D02*
X011930Y008493D01*
X012270Y008493D01*
X012270Y008380D02*
X012270Y008607D01*
X012213Y008748D02*
X011986Y008748D01*
X011930Y008805D01*
X011930Y008918D01*
X011986Y008975D01*
X012213Y008748D01*
X012270Y008805D01*
X012270Y008918D01*
X012213Y008975D01*
X011986Y008975D01*
X011930Y009117D02*
X012270Y009117D01*
X012157Y009117D02*
X011930Y009343D01*
X012100Y009173D02*
X012270Y009343D01*
X016375Y006657D02*
X016488Y006770D01*
X016488Y006430D01*
X016375Y006430D02*
X016602Y006430D01*
X016743Y006487D02*
X016970Y006714D01*
X016970Y006487D01*
X016914Y006430D01*
X016800Y006430D01*
X016743Y006487D01*
X016743Y006714D01*
X016800Y006770D01*
X016914Y006770D01*
X016970Y006714D01*
X017112Y006770D02*
X017112Y006430D01*
X017112Y006543D02*
X017339Y006770D01*
X017168Y006600D02*
X017339Y006430D01*
X019400Y006350D02*
X019800Y006350D01*
X019900Y006350D01*
X019900Y003450D01*
X019900Y002850D01*
X019800Y002850D01*
X019600Y002850D01*
X019600Y003450D01*
X019600Y003650D01*
X019400Y003800D01*
X019400Y006350D01*
X019400Y007950D01*
X019400Y009500D01*
X019600Y009650D01*
X019600Y009850D01*
X019600Y010450D01*
X019600Y010650D01*
X019400Y010800D01*
X019400Y011350D01*
X019450Y011350D01*
X019450Y011950D01*
X019400Y011950D01*
X019400Y013650D01*
X022900Y013650D01*
X022900Y013150D01*
X023000Y013150D01*
X023000Y012650D01*
X022900Y012650D01*
X022900Y007400D01*
X023000Y007400D01*
X023000Y006900D01*
X022900Y006900D01*
X022900Y001650D01*
X023000Y001650D01*
X023000Y001150D01*
X022900Y001150D01*
X022900Y000650D01*
X019400Y000650D01*
X019400Y002500D01*
X019600Y002650D01*
X019600Y002850D01*
X019900Y002850D02*
X019900Y001150D01*
X022400Y001150D01*
X022400Y013150D01*
X019900Y013150D01*
X019900Y010450D01*
X019900Y009850D01*
X019800Y009850D01*
X019600Y009850D01*
X019900Y009850D02*
X019900Y007950D01*
X019800Y007950D01*
X019400Y007950D01*
X019900Y007950D02*
X020200Y007950D01*
X020200Y006350D01*
X019900Y006350D01*
X017339Y003770D02*
X017112Y003543D01*
X017168Y003600D02*
X017339Y003430D01*
X017112Y003430D02*
X017112Y003770D01*
X016970Y003714D02*
X016743Y003487D01*
X016800Y003430D01*
X016914Y003430D01*
X016970Y003487D01*
X016970Y003714D01*
X016914Y003770D01*
X016800Y003770D01*
X016743Y003714D01*
X016743Y003487D01*
X016602Y003430D02*
X016375Y003430D01*
X016488Y003430D02*
X016488Y003770D01*
X016375Y003657D01*
X016488Y002770D02*
X016488Y002430D01*
X016375Y002430D02*
X016602Y002430D01*
X016743Y002487D02*
X016970Y002714D01*
X016970Y002487D01*
X016914Y002430D01*
X016800Y002430D01*
X016743Y002487D01*
X016743Y002714D01*
X016800Y002770D01*
X016914Y002770D01*
X016970Y002714D01*
X017112Y002770D02*
X017112Y002430D01*
X017112Y002543D02*
X017339Y002770D01*
X017168Y002600D02*
X017339Y002430D01*
X016488Y002770D02*
X016375Y002657D01*
X019600Y003450D02*
X019800Y003450D01*
X019900Y003450D01*
X019900Y010450D02*
X019800Y010450D01*
X019600Y010450D01*
D11*
X019800Y010450D02*
X019800Y013250D01*
X022500Y013250D01*
X022500Y001050D01*
X019800Y001050D01*
X019800Y002850D01*
X019800Y003450D02*
X019800Y006350D01*
X019800Y007950D02*
X019800Y009850D01*
D12*
X019650Y007415D02*
X019950Y007415D01*
X020025Y007340D01*
X020025Y007190D01*
X019950Y007115D01*
X019650Y007415D01*
X019575Y007340D01*
X019575Y007190D01*
X019650Y007115D01*
X019950Y007115D01*
X020025Y006954D02*
X020025Y006654D01*
X019725Y006954D01*
X019650Y006954D01*
X019575Y006879D01*
X019575Y006729D01*
X019650Y006654D01*
X020575Y012215D02*
X020425Y012365D01*
X020875Y012365D01*
X020875Y012215D02*
X020875Y012515D01*
X021425Y012440D02*
X021425Y012290D01*
X021500Y012215D01*
X021425Y012440D02*
X021500Y012515D01*
X021575Y012515D01*
X021875Y012215D01*
X021875Y012515D01*
D13*
X001900Y001150D02*
X001650Y001400D01*
X001650Y001900D01*
X001900Y002150D01*
X001650Y002400D01*
X001650Y002900D01*
X001900Y003150D01*
X001650Y003400D01*
X001650Y003900D01*
X001900Y004150D01*
X001650Y004400D01*
X001650Y004900D01*
X001900Y005150D01*
X001650Y005400D01*
X001650Y005900D01*
X001900Y006150D01*
X001650Y006400D01*
X001650Y006900D01*
X001900Y007150D01*
X001650Y007400D01*
X001650Y007900D01*
X001900Y008150D01*
X001650Y008400D01*
X001650Y008900D01*
X001900Y009150D01*
X001650Y009400D01*
X001650Y009900D01*
X001900Y010150D01*
X001650Y010400D01*
X001650Y010900D01*
X001900Y011150D01*
X001650Y011400D01*
X001650Y011900D01*
X001900Y012150D01*
X001650Y012400D01*
X001650Y012900D01*
X001900Y013150D01*
X002400Y013150D01*
X002650Y012900D01*
X002650Y012400D01*
X002400Y012150D01*
X002650Y011900D01*
X002650Y011400D01*
X002400Y011150D01*
X002650Y010900D01*
X002650Y010400D01*
X002400Y010150D01*
X002650Y009900D01*
X002650Y009400D01*
X002400Y009150D01*
X002650Y008900D01*
X002650Y008400D01*
X002400Y008150D01*
X002650Y007900D01*
X002650Y007400D01*
X002400Y007150D01*
X002650Y006900D01*
X002650Y006400D01*
X002400Y006150D01*
X002650Y005900D01*
X002650Y005400D01*
X002400Y005150D01*
X002650Y004900D01*
X002650Y004400D01*
X002400Y004150D01*
X002650Y003900D01*
X002650Y003400D01*
X002400Y003150D01*
X002650Y002900D01*
X002650Y002400D01*
X002400Y002150D01*
X002650Y001900D01*
X002650Y001400D01*
X002400Y001150D01*
X001900Y001150D01*
X008650Y001400D02*
X008900Y001150D01*
X009400Y001150D01*
X009650Y001400D01*
X009650Y001900D01*
X009400Y002150D01*
X009650Y002400D01*
X009650Y002900D01*
X009400Y003150D01*
X009650Y003400D01*
X009650Y003900D01*
X009400Y004150D01*
X009650Y004400D01*
X009650Y004900D01*
X009400Y005150D01*
X009650Y005400D01*
X009650Y005900D01*
X009400Y006150D01*
X009650Y006400D01*
X009650Y006900D01*
X009400Y007150D01*
X009650Y007400D01*
X009650Y007900D01*
X009400Y008150D01*
X009650Y008400D01*
X009650Y008900D01*
X009400Y009150D01*
X009650Y009400D01*
X009650Y009900D01*
X009400Y010150D01*
X009650Y010400D01*
X009650Y010900D01*
X009400Y011150D01*
X009650Y011400D01*
X009650Y011900D01*
X009400Y012150D01*
X009650Y012400D01*
X009650Y012900D01*
X009400Y013150D01*
X008900Y013150D01*
X008650Y012900D01*
X008650Y012400D01*
X008900Y012150D01*
X008650Y011900D01*
X008650Y011400D01*
X008900Y011150D01*
X008650Y010900D01*
X008650Y010400D01*
X008900Y010150D01*
X008650Y009900D01*
X008650Y009400D01*
X008900Y009150D01*
X008650Y008900D01*
X008650Y008400D01*
X008900Y008150D01*
X008650Y007900D01*
X008650Y007400D01*
X008900Y007150D01*
X008650Y006900D01*
X008650Y006400D01*
X008900Y006150D01*
X008650Y005900D01*
X008650Y005400D01*
X008900Y005150D01*
X008650Y004900D01*
X008650Y004400D01*
X008900Y004150D01*
X008650Y003900D01*
X008650Y003400D01*
X008900Y003150D01*
X008650Y002900D01*
X008650Y002400D01*
X008900Y002150D01*
X008650Y001900D01*
X008650Y001400D01*
X015550Y002650D02*
X015650Y002650D01*
X015650Y002950D01*
X017650Y002950D01*
X017650Y002650D01*
X017750Y002650D01*
X017650Y002650D02*
X017650Y002350D01*
X015650Y002350D01*
X015650Y002650D01*
X015650Y003350D02*
X015650Y003650D01*
X015550Y003650D01*
X015650Y003650D02*
X015650Y003950D01*
X017650Y003950D01*
X017650Y003650D01*
X017750Y003650D01*
X017650Y003650D02*
X017650Y003350D01*
X015650Y003350D01*
X015650Y006350D02*
X015650Y006650D01*
X015550Y006650D01*
X015650Y006650D02*
X015650Y006950D01*
X017650Y006950D01*
X017650Y006650D01*
X017750Y006650D01*
X017650Y006650D02*
X017650Y006350D01*
X015650Y006350D01*
X012450Y008150D02*
X012150Y008150D01*
X012150Y008050D01*
X012150Y008150D02*
X011850Y008150D01*
X011850Y010150D01*
X012150Y010150D01*
X012150Y010250D01*
X012150Y010150D02*
X012450Y010150D01*
X012450Y008150D01*
M02*
