G75*
G70*
%OFA0B0*%
%FSLAX24Y24*%
%IPPOS*%
%LPD*%
%AMOC8*
5,1,8,0,0,1.08239X$1,22.5*
%
%ADD10C,0.0110*%
%ADD11C,0.0060*%
%ADD12C,0.0020*%
%ADD13C,0.0050*%
%ADD14C,0.0080*%
D10*
X010303Y000705D02*
X010205Y000803D01*
X010303Y000705D02*
X010500Y000705D01*
X010599Y000803D01*
X010599Y000902D01*
X010500Y001000D01*
X010303Y001000D01*
X010205Y001099D01*
X010205Y001197D01*
X010303Y001296D01*
X010500Y001296D01*
X010599Y001197D01*
X010850Y001296D02*
X010850Y000705D01*
X010850Y001000D02*
X010948Y001099D01*
X011145Y001099D01*
X011243Y001000D01*
X011243Y000705D01*
X011494Y000705D02*
X011691Y000705D01*
X011593Y000705D02*
X011593Y001099D01*
X011494Y001099D01*
X011593Y001296D02*
X011593Y001394D01*
X011924Y001000D02*
X012022Y001099D01*
X012219Y001099D01*
X012317Y001000D01*
X012317Y000902D01*
X011924Y000902D01*
X011924Y001000D02*
X011924Y000803D01*
X012022Y000705D01*
X012219Y000705D01*
X012568Y000705D02*
X012765Y000705D01*
X012667Y000705D02*
X012667Y001296D01*
X012568Y001296D01*
X012326Y001558D02*
X012425Y001657D01*
X012425Y002149D01*
X012130Y002149D01*
X012031Y002050D01*
X012031Y001853D01*
X012130Y001755D01*
X012425Y001755D01*
X012676Y001755D02*
X012676Y002149D01*
X012873Y002149D02*
X012971Y002149D01*
X012873Y002149D02*
X012676Y001952D01*
X013213Y001853D02*
X013311Y001952D01*
X013607Y001952D01*
X013607Y002050D02*
X013607Y001755D01*
X013311Y001755D01*
X013213Y001853D01*
X013508Y002149D02*
X013607Y002050D01*
X013508Y002149D02*
X013311Y002149D01*
X013857Y002149D02*
X013956Y002149D01*
X014054Y002050D01*
X014153Y002149D01*
X014251Y002050D01*
X014251Y001755D01*
X014054Y001755D02*
X014054Y002050D01*
X013857Y002149D02*
X013857Y001755D01*
X014502Y001755D02*
X014502Y002149D01*
X014600Y002149D01*
X014699Y002050D01*
X014797Y002149D01*
X014896Y002050D01*
X014896Y001755D01*
X014699Y001755D02*
X014699Y002050D01*
X015147Y002050D02*
X015147Y001853D01*
X015245Y001755D01*
X015442Y001755D01*
X015540Y001952D02*
X015147Y001952D01*
X015147Y002050D02*
X015245Y002149D01*
X015442Y002149D01*
X015540Y002050D01*
X015540Y001952D01*
X015791Y001952D02*
X015988Y002149D01*
X016086Y002149D01*
X015791Y002149D02*
X015791Y001755D01*
X013392Y001296D02*
X013392Y000705D01*
X013096Y000705D01*
X012998Y000803D01*
X012998Y001000D01*
X013096Y001099D01*
X013392Y001099D01*
X012326Y001558D02*
X012228Y001558D01*
X011780Y001853D02*
X011780Y002050D01*
X011682Y002149D01*
X011485Y002149D01*
X011387Y002050D01*
X011387Y001853D01*
X011485Y001755D01*
X011682Y001755D01*
X011780Y001853D01*
X011145Y002149D02*
X011046Y002149D01*
X010850Y001952D01*
X010850Y001755D02*
X010850Y002149D01*
X010599Y002247D02*
X010599Y002050D01*
X010500Y001952D01*
X010205Y001952D01*
X010205Y001755D02*
X010205Y002346D01*
X010500Y002346D01*
X010599Y002247D01*
X010850Y002608D02*
X010850Y003199D01*
X011145Y003199D01*
X011243Y003100D01*
X011243Y002903D01*
X011145Y002805D01*
X010850Y002805D01*
X010599Y002903D02*
X010500Y002805D01*
X010303Y002805D01*
X010205Y002903D01*
X010303Y003100D02*
X010500Y003100D01*
X010599Y003002D01*
X010599Y002903D01*
X010303Y003100D02*
X010205Y003199D01*
X010205Y003297D01*
X010303Y003396D01*
X010500Y003396D01*
X010599Y003297D01*
X011494Y002903D02*
X011593Y002805D01*
X011888Y002805D01*
X011888Y003100D01*
X011789Y003199D01*
X011593Y003199D01*
X011593Y003002D02*
X011888Y003002D01*
X012139Y003002D02*
X012335Y003199D01*
X012434Y003199D01*
X012139Y003199D02*
X012139Y002805D01*
X012676Y002805D02*
X012676Y003396D01*
X012971Y003199D02*
X012676Y003002D01*
X012971Y002805D01*
X011593Y003002D02*
X011494Y002903D01*
X011494Y011705D02*
X011888Y011705D01*
X011691Y011705D02*
X011691Y012296D01*
X011494Y012099D01*
X011243Y012197D02*
X010850Y011803D01*
X010948Y011705D01*
X011145Y011705D01*
X011243Y011803D01*
X011243Y012197D01*
X011145Y012296D01*
X010948Y012296D01*
X010850Y012197D01*
X010850Y011803D01*
X010599Y011705D02*
X010205Y011705D01*
X010599Y012099D01*
X010599Y012197D01*
X010500Y012296D01*
X010303Y012296D01*
X010205Y012197D01*
X010402Y012705D02*
X010599Y013099D01*
X010850Y013197D02*
X010948Y013296D01*
X011145Y013296D01*
X011243Y013197D01*
X010850Y012803D01*
X010948Y012705D01*
X011145Y012705D01*
X011243Y012803D01*
X011243Y013197D01*
X010850Y013197D02*
X010850Y012803D01*
X010402Y012705D02*
X010205Y013099D01*
X011494Y012803D02*
X011494Y012705D01*
X011593Y012705D01*
X011593Y012803D01*
X011494Y012803D01*
X011816Y012705D02*
X012210Y012705D01*
X012013Y012705D02*
X012013Y013296D01*
X011816Y013099D01*
X012237Y012296D02*
X012434Y012296D01*
X012532Y012197D01*
X012532Y012099D01*
X012434Y012000D01*
X012532Y011902D01*
X012532Y011803D01*
X012434Y011705D01*
X012237Y011705D01*
X012139Y011803D01*
X012335Y012000D02*
X012434Y012000D01*
X012783Y012000D02*
X013177Y012000D01*
X013428Y011803D02*
X013821Y012197D01*
X013821Y011803D01*
X013723Y011705D01*
X013526Y011705D01*
X013428Y011803D01*
X013428Y012197D01*
X013526Y012296D01*
X013723Y012296D01*
X013821Y012197D01*
X014072Y012197D02*
X014171Y012296D01*
X014368Y012296D01*
X014466Y012197D01*
X014466Y012099D01*
X014368Y012000D01*
X014466Y011902D01*
X014466Y011803D01*
X014368Y011705D01*
X014171Y011705D01*
X014072Y011803D01*
X014269Y012000D02*
X014368Y012000D01*
X014717Y012000D02*
X015111Y012000D01*
X015361Y012197D02*
X015460Y012296D01*
X015657Y012296D01*
X015755Y012197D01*
X015755Y012099D01*
X015361Y011705D01*
X015755Y011705D01*
X016006Y011803D02*
X016104Y011705D01*
X016301Y011705D01*
X016400Y011803D01*
X016400Y011902D01*
X016301Y012000D01*
X016006Y012000D01*
X016006Y011803D01*
X016006Y012000D02*
X016203Y012197D01*
X016400Y012296D01*
X012237Y012296D02*
X012139Y012197D01*
D11*
X012270Y009343D02*
X012100Y009173D01*
X012157Y009117D02*
X011930Y009343D01*
X011930Y009117D02*
X012270Y009117D01*
X012213Y008975D02*
X011986Y008975D01*
X012213Y008748D01*
X012270Y008805D01*
X012270Y008918D01*
X012213Y008975D01*
X011986Y008975D02*
X011930Y008918D01*
X011930Y008805D01*
X011986Y008748D01*
X012213Y008748D01*
X012270Y008607D02*
X012270Y008380D01*
X012270Y008493D02*
X011930Y008493D01*
X012043Y008380D01*
X016375Y006657D02*
X016488Y006770D01*
X016488Y006430D01*
X016375Y006430D02*
X016602Y006430D01*
X016743Y006487D02*
X016970Y006714D01*
X016970Y006487D01*
X016914Y006430D01*
X016800Y006430D01*
X016743Y006487D01*
X016743Y006714D01*
X016800Y006770D01*
X016914Y006770D01*
X016970Y006714D01*
X017112Y006770D02*
X017112Y006430D01*
X017112Y006543D02*
X017339Y006770D01*
X017168Y006600D02*
X017339Y006430D01*
X019400Y006350D02*
X019800Y006350D01*
X019900Y006350D01*
X019900Y003450D01*
X019900Y002850D01*
X019800Y002850D01*
X019600Y002850D01*
X019600Y003450D01*
X019600Y003650D01*
X019400Y003800D01*
X019400Y006350D01*
X019400Y007950D01*
X019400Y009500D01*
X019600Y009650D01*
X019600Y009850D01*
X019600Y010450D01*
X019600Y010650D01*
X019400Y010800D01*
X019400Y011350D01*
X019450Y011350D01*
X019450Y011950D01*
X019400Y011950D01*
X019400Y013650D01*
X022900Y013650D01*
X022900Y013150D01*
X023000Y013150D01*
X023000Y012650D01*
X022900Y012650D01*
X022900Y007400D01*
X023000Y007400D01*
X023000Y006900D01*
X022900Y006900D01*
X022900Y001650D01*
X023000Y001650D01*
X023000Y001150D01*
X022900Y001150D01*
X022900Y000650D01*
X019400Y000650D01*
X019400Y002500D01*
X019600Y002650D01*
X019600Y002850D01*
X019900Y002850D02*
X019900Y001150D01*
X022400Y001150D01*
X022400Y013150D01*
X019900Y013150D01*
X019900Y010450D01*
X019900Y009850D01*
X019800Y009850D01*
X019600Y009850D01*
X019900Y009850D02*
X019900Y007950D01*
X019800Y007950D01*
X019400Y007950D01*
X019900Y007950D02*
X020200Y007950D01*
X020200Y006350D01*
X019900Y006350D01*
X017339Y003770D02*
X017112Y003543D01*
X017168Y003600D02*
X017339Y003430D01*
X017112Y003430D02*
X017112Y003770D01*
X016970Y003714D02*
X016743Y003487D01*
X016800Y003430D01*
X016914Y003430D01*
X016970Y003487D01*
X016970Y003714D01*
X016914Y003770D01*
X016800Y003770D01*
X016743Y003714D01*
X016743Y003487D01*
X016602Y003430D02*
X016375Y003430D01*
X016488Y003430D02*
X016488Y003770D01*
X016375Y003657D01*
X016488Y002770D02*
X016488Y002430D01*
X016375Y002430D02*
X016602Y002430D01*
X016743Y002487D02*
X016970Y002714D01*
X016970Y002487D01*
X016914Y002430D01*
X016800Y002430D01*
X016743Y002487D01*
X016743Y002714D01*
X016800Y002770D01*
X016914Y002770D01*
X016970Y002714D01*
X017112Y002770D02*
X017112Y002430D01*
X017112Y002543D02*
X017339Y002770D01*
X017168Y002600D02*
X017339Y002430D01*
X016488Y002770D02*
X016375Y002657D01*
X019600Y003450D02*
X019800Y003450D01*
X019900Y003450D01*
X019900Y010450D02*
X019800Y010450D01*
X019600Y010450D01*
D12*
X019800Y010450D02*
X019800Y013250D01*
X022500Y013250D01*
X022500Y001050D01*
X019800Y001050D01*
X019800Y002850D01*
X019800Y003450D02*
X019800Y006350D01*
X019800Y007950D02*
X019800Y009850D01*
D13*
X019650Y007415D02*
X019950Y007415D01*
X020025Y007340D01*
X020025Y007190D01*
X019950Y007115D01*
X019650Y007415D01*
X019575Y007340D01*
X019575Y007190D01*
X019650Y007115D01*
X019950Y007115D01*
X020025Y006954D02*
X020025Y006654D01*
X019725Y006954D01*
X019650Y006954D01*
X019575Y006879D01*
X019575Y006729D01*
X019650Y006654D01*
X020575Y012215D02*
X020425Y012365D01*
X020875Y012365D01*
X020875Y012215D02*
X020875Y012515D01*
X021425Y012440D02*
X021425Y012290D01*
X021500Y012215D01*
X021425Y012440D02*
X021500Y012515D01*
X021575Y012515D01*
X021875Y012215D01*
X021875Y012515D01*
D14*
X001900Y001150D02*
X001650Y001400D01*
X001650Y001900D01*
X001900Y002150D01*
X001650Y002400D01*
X001650Y002900D01*
X001900Y003150D01*
X001650Y003400D01*
X001650Y003900D01*
X001900Y004150D01*
X001650Y004400D01*
X001650Y004900D01*
X001900Y005150D01*
X001650Y005400D01*
X001650Y005900D01*
X001900Y006150D01*
X001650Y006400D01*
X001650Y006900D01*
X001900Y007150D01*
X001650Y007400D01*
X001650Y007900D01*
X001900Y008150D01*
X001650Y008400D01*
X001650Y008900D01*
X001900Y009150D01*
X001650Y009400D01*
X001650Y009900D01*
X001900Y010150D01*
X001650Y010400D01*
X001650Y010900D01*
X001900Y011150D01*
X001650Y011400D01*
X001650Y011900D01*
X001900Y012150D01*
X001650Y012400D01*
X001650Y012900D01*
X001900Y013150D01*
X002400Y013150D01*
X002650Y012900D01*
X002650Y012400D01*
X002400Y012150D01*
X002650Y011900D01*
X002650Y011400D01*
X002400Y011150D01*
X002650Y010900D01*
X002650Y010400D01*
X002400Y010150D01*
X002650Y009900D01*
X002650Y009400D01*
X002400Y009150D01*
X002650Y008900D01*
X002650Y008400D01*
X002400Y008150D01*
X002650Y007900D01*
X002650Y007400D01*
X002400Y007150D01*
X002650Y006900D01*
X002650Y006400D01*
X002400Y006150D01*
X002650Y005900D01*
X002650Y005400D01*
X002400Y005150D01*
X002650Y004900D01*
X002650Y004400D01*
X002400Y004150D01*
X002650Y003900D01*
X002650Y003400D01*
X002400Y003150D01*
X002650Y002900D01*
X002650Y002400D01*
X002400Y002150D01*
X002650Y001900D01*
X002650Y001400D01*
X002400Y001150D01*
X001900Y001150D01*
X008650Y001400D02*
X008900Y001150D01*
X009400Y001150D01*
X009650Y001400D01*
X009650Y001900D01*
X009400Y002150D01*
X009650Y002400D01*
X009650Y002900D01*
X009400Y003150D01*
X009650Y003400D01*
X009650Y003900D01*
X009400Y004150D01*
X009650Y004400D01*
X009650Y004900D01*
X009400Y005150D01*
X009650Y005400D01*
X009650Y005900D01*
X009400Y006150D01*
X009650Y006400D01*
X009650Y006900D01*
X009400Y007150D01*
X009650Y007400D01*
X009650Y007900D01*
X009400Y008150D01*
X009650Y008400D01*
X009650Y008900D01*
X009400Y009150D01*
X009650Y009400D01*
X009650Y009900D01*
X009400Y010150D01*
X009650Y010400D01*
X009650Y010900D01*
X009400Y011150D01*
X009650Y011400D01*
X009650Y011900D01*
X009400Y012150D01*
X009650Y012400D01*
X009650Y012900D01*
X009400Y013150D01*
X008900Y013150D01*
X008650Y012900D01*
X008650Y012400D01*
X008900Y012150D01*
X008650Y011900D01*
X008650Y011400D01*
X008900Y011150D01*
X008650Y010900D01*
X008650Y010400D01*
X008900Y010150D01*
X008650Y009900D01*
X008650Y009400D01*
X008900Y009150D01*
X008650Y008900D01*
X008650Y008400D01*
X008900Y008150D01*
X008650Y007900D01*
X008650Y007400D01*
X008900Y007150D01*
X008650Y006900D01*
X008650Y006400D01*
X008900Y006150D01*
X008650Y005900D01*
X008650Y005400D01*
X008900Y005150D01*
X008650Y004900D01*
X008650Y004400D01*
X008900Y004150D01*
X008650Y003900D01*
X008650Y003400D01*
X008900Y003150D01*
X008650Y002900D01*
X008650Y002400D01*
X008900Y002150D01*
X008650Y001900D01*
X008650Y001400D01*
X015550Y002650D02*
X015650Y002650D01*
X015650Y002950D01*
X017650Y002950D01*
X017650Y002650D01*
X017750Y002650D01*
X017650Y002650D02*
X017650Y002350D01*
X015650Y002350D01*
X015650Y002650D01*
X015650Y003350D02*
X015650Y003650D01*
X015550Y003650D01*
X015650Y003650D02*
X015650Y003950D01*
X017650Y003950D01*
X017650Y003650D01*
X017750Y003650D01*
X017650Y003650D02*
X017650Y003350D01*
X015650Y003350D01*
X015650Y006350D02*
X015650Y006650D01*
X015550Y006650D01*
X015650Y006650D02*
X015650Y006950D01*
X017650Y006950D01*
X017650Y006650D01*
X017750Y006650D01*
X017650Y006650D02*
X017650Y006350D01*
X015650Y006350D01*
X012450Y008150D02*
X012150Y008150D01*
X012150Y008050D01*
X012150Y008150D02*
X011850Y008150D01*
X011850Y010150D01*
X012150Y010150D01*
X012150Y010250D01*
X012150Y010150D02*
X012450Y010150D01*
X012450Y008150D01*
M02*
