G75*
G70*
%OFA0B0*%
%FSLAX24Y24*%
%IPPOS*%
%LPD*%
%AMOC8*
5,1,8,0,0,1.08239X$1,22.5*
%
%ADD10C,0.0000*%
%ADD11OC8,0.0560*%
%ADD12C,0.0740*%
%ADD13C,0.0100*%
D10*
X000150Y000150D02*
X000150Y014150D01*
X023642Y014150D01*
X023650Y000150D01*
X000150Y000150D01*
D11*
X020650Y002650D03*
X021650Y002650D03*
X021650Y003650D03*
X020650Y003650D03*
X020650Y004650D03*
X021650Y004650D03*
X021650Y005650D03*
X020650Y005650D03*
X020650Y006650D03*
X021650Y006650D03*
X021650Y007650D03*
X020650Y007650D03*
X020650Y008650D03*
X021650Y008650D03*
X021650Y009650D03*
X020650Y009650D03*
X020650Y010650D03*
X021650Y010650D03*
X021650Y011650D03*
X020650Y011650D03*
D12*
X018150Y006650D03*
X015150Y006650D03*
X012150Y007650D03*
X009150Y007650D03*
X009150Y006650D03*
X009150Y005650D03*
X009150Y004650D03*
X009150Y003650D03*
X009150Y002650D03*
X009150Y001650D03*
X015150Y002650D03*
X015150Y003650D03*
X018150Y003650D03*
X018150Y002650D03*
X009150Y008650D03*
X009150Y009650D03*
X009150Y010650D03*
X009150Y011650D03*
X009150Y012650D03*
X012150Y010650D03*
X002150Y010650D03*
X002150Y009650D03*
X002150Y008650D03*
X002150Y007650D03*
X002150Y006650D03*
X002150Y005650D03*
X002150Y004650D03*
X002150Y003650D03*
X002150Y002650D03*
X002150Y001650D03*
X002150Y011650D03*
X002150Y012650D03*
D13*
X008150Y010650D02*
X009150Y011650D01*
X009150Y012650D02*
X010150Y012650D01*
X012150Y010650D01*
X013150Y011650D01*
X020650Y011650D01*
X021650Y011650D01*
X020650Y010650D02*
X021150Y010150D01*
X021150Y005150D01*
X009650Y005150D01*
X009150Y004650D01*
X008650Y004150D02*
X008150Y004650D01*
X008150Y010650D01*
X009650Y009150D02*
X010150Y009650D01*
X020650Y009650D01*
X020650Y008650D02*
X009150Y008650D01*
X008650Y009150D02*
X008650Y007150D01*
X009150Y006650D01*
X009150Y005650D02*
X012150Y005650D01*
X012150Y007650D01*
X012650Y008150D02*
X009650Y008150D01*
X009150Y007650D01*
X008650Y009150D02*
X009650Y009150D01*
X012650Y008150D02*
X013150Y007650D01*
X020650Y007650D01*
X020650Y006650D02*
X018150Y006650D01*
X020650Y005650D02*
X012150Y005650D01*
X010150Y004650D02*
X009650Y004150D01*
X008650Y004150D01*
X010150Y004650D02*
X020650Y004650D01*
X020650Y003650D02*
X018150Y003650D01*
X018150Y002650D02*
X020650Y002650D01*
M02*
