G75*
G70*
%OFA0B0*%
%FSLAX24Y24*%
%IPPOS*%
%LPD*%
%AMOC8*
5,1,8,0,0,1.08239X$1,22.5*
%
%ADD10C,0.0740*%
%ADD11R,0.1500X0.2000*%
%ADD12C,0.0278*%
%ADD13C,0.0060*%
D10*
X001487Y001833D03*
X001487Y002833D03*
X001487Y003833D03*
X001487Y004833D03*
X001487Y005833D03*
X001487Y006833D03*
X001487Y007833D03*
X001487Y008833D03*
X001487Y009833D03*
X001487Y010833D03*
X001487Y011833D03*
X001487Y012833D03*
X008487Y012833D03*
X008487Y011833D03*
X008487Y010833D03*
X008487Y009833D03*
X008487Y008833D03*
X008487Y007833D03*
X008487Y006833D03*
X008487Y005833D03*
X008487Y004833D03*
X008487Y003833D03*
X008487Y002833D03*
X008487Y001833D03*
D11*
X006537Y013233D03*
X003437Y013233D03*
D12*
X003987Y011833D03*
X004437Y010833D03*
X005187Y009833D03*
X005187Y008833D03*
X005187Y007833D03*
X005187Y006833D03*
X005187Y005833D03*
X005187Y004833D03*
X005187Y003833D03*
X005487Y001833D03*
X004237Y001833D03*
X003817Y003633D03*
X002987Y001833D03*
X002307Y003013D03*
X002437Y003833D03*
X002437Y004833D03*
X002437Y005833D03*
X002437Y006833D03*
X002437Y007833D03*
X002437Y008833D03*
X002437Y009833D03*
X002437Y010833D03*
X002437Y011833D03*
X002437Y012833D03*
X002437Y013833D03*
X005987Y011833D03*
X006887Y010833D03*
X007087Y009833D03*
X007537Y009833D03*
X007537Y010833D03*
X007537Y011833D03*
X007537Y012833D03*
X007537Y013833D03*
X007537Y008833D03*
X007087Y008833D03*
X007087Y007833D03*
X007537Y007833D03*
X007537Y006833D03*
X007087Y006833D03*
X007087Y005833D03*
X007537Y005833D03*
X007537Y004833D03*
X007087Y004833D03*
X007087Y003833D03*
X007327Y003133D03*
X007537Y003833D03*
D13*
X007787Y006333D02*
X007787Y014203D01*
X002187Y014203D01*
X002187Y006333D01*
X007787Y006333D01*
X007787Y006364D02*
X002187Y006364D01*
X002187Y006423D02*
X007787Y006423D01*
X007787Y006481D02*
X002187Y006481D01*
X002187Y006540D02*
X007787Y006540D01*
X007787Y006598D02*
X002187Y006598D01*
X002187Y006657D02*
X007787Y006657D01*
X007787Y006715D02*
X002187Y006715D01*
X002187Y006774D02*
X007787Y006774D01*
X007787Y006832D02*
X002187Y006832D01*
X002187Y006891D02*
X007787Y006891D01*
X007787Y006949D02*
X002187Y006949D01*
X002187Y007008D02*
X007787Y007008D01*
X007787Y007066D02*
X002187Y007066D01*
X002187Y007125D02*
X007787Y007125D01*
X007787Y007183D02*
X002187Y007183D01*
X002187Y007242D02*
X007787Y007242D01*
X007787Y007300D02*
X002187Y007300D01*
X002187Y007359D02*
X007787Y007359D01*
X007787Y007417D02*
X002187Y007417D01*
X002187Y007476D02*
X007787Y007476D01*
X007787Y007534D02*
X002187Y007534D01*
X002187Y007593D02*
X007787Y007593D01*
X007787Y007651D02*
X002187Y007651D01*
X002187Y007710D02*
X007787Y007710D01*
X007787Y007768D02*
X002187Y007768D01*
X002187Y007827D02*
X007787Y007827D01*
X007787Y007885D02*
X002187Y007885D01*
X002187Y007944D02*
X007787Y007944D01*
X007787Y008002D02*
X002187Y008002D01*
X002187Y008061D02*
X007787Y008061D01*
X007787Y008119D02*
X002187Y008119D01*
X002187Y008178D02*
X007787Y008178D01*
X007787Y008236D02*
X002187Y008236D01*
X002187Y008295D02*
X007787Y008295D01*
X007787Y008353D02*
X002187Y008353D01*
X002187Y008412D02*
X007787Y008412D01*
X007787Y008470D02*
X002187Y008470D01*
X002187Y008529D02*
X007787Y008529D01*
X007787Y008587D02*
X002187Y008587D01*
X002187Y008646D02*
X007787Y008646D01*
X007787Y008704D02*
X002187Y008704D01*
X002187Y008763D02*
X007787Y008763D01*
X007787Y008821D02*
X002187Y008821D01*
X002187Y008880D02*
X007787Y008880D01*
X007787Y008938D02*
X002187Y008938D01*
X002187Y008997D02*
X007787Y008997D01*
X007787Y009055D02*
X002187Y009055D01*
X002187Y009114D02*
X007787Y009114D01*
X007787Y009172D02*
X002187Y009172D01*
X002187Y009231D02*
X007787Y009231D01*
X007787Y009289D02*
X002187Y009289D01*
X002187Y009348D02*
X007787Y009348D01*
X007787Y009406D02*
X002187Y009406D01*
X002187Y009465D02*
X007787Y009465D01*
X007787Y009523D02*
X002187Y009523D01*
X002187Y009582D02*
X007787Y009582D01*
X007787Y009640D02*
X002187Y009640D01*
X002187Y009699D02*
X007787Y009699D01*
X007787Y009757D02*
X002187Y009757D01*
X002187Y009816D02*
X007787Y009816D01*
X007787Y009874D02*
X002187Y009874D01*
X002187Y009933D02*
X007787Y009933D01*
X007787Y009991D02*
X002187Y009991D01*
X002187Y010050D02*
X007787Y010050D01*
X007787Y010108D02*
X002187Y010108D01*
X002187Y010167D02*
X007787Y010167D01*
X007787Y010225D02*
X002187Y010225D01*
X002187Y010284D02*
X007787Y010284D01*
X007787Y010342D02*
X002187Y010342D01*
X002187Y010401D02*
X007787Y010401D01*
X007787Y010459D02*
X002187Y010459D01*
X002187Y010518D02*
X007787Y010518D01*
X007787Y010576D02*
X002187Y010576D01*
X002187Y010635D02*
X007787Y010635D01*
X007787Y010693D02*
X002187Y010693D01*
X002187Y010752D02*
X007787Y010752D01*
X007787Y010810D02*
X002187Y010810D01*
X002187Y010869D02*
X007787Y010869D01*
X007787Y010927D02*
X002187Y010927D01*
X002187Y010986D02*
X007787Y010986D01*
X007787Y011044D02*
X002187Y011044D01*
X002187Y011103D02*
X007787Y011103D01*
X007787Y011161D02*
X002187Y011161D01*
X002187Y011220D02*
X007787Y011220D01*
X007787Y011278D02*
X002187Y011278D01*
X002187Y011337D02*
X007787Y011337D01*
X007787Y011395D02*
X002187Y011395D01*
X002187Y011454D02*
X007787Y011454D01*
X007787Y011512D02*
X002187Y011512D01*
X002187Y011571D02*
X007787Y011571D01*
X007787Y011629D02*
X002187Y011629D01*
X002187Y011688D02*
X007787Y011688D01*
X007787Y011746D02*
X002187Y011746D01*
X002187Y011805D02*
X007787Y011805D01*
X007787Y011863D02*
X002187Y011863D01*
X002187Y011922D02*
X007787Y011922D01*
X007787Y011980D02*
X002187Y011980D01*
X002187Y012039D02*
X007787Y012039D01*
X007787Y012097D02*
X002187Y012097D01*
X002187Y012156D02*
X007787Y012156D01*
X007787Y012214D02*
X002187Y012214D01*
X002187Y012273D02*
X007787Y012273D01*
X007787Y012331D02*
X002187Y012331D01*
X002187Y012390D02*
X007787Y012390D01*
X007787Y012448D02*
X002187Y012448D01*
X002187Y012507D02*
X007787Y012507D01*
X007787Y012565D02*
X002187Y012565D01*
X002187Y012624D02*
X007787Y012624D01*
X007787Y012682D02*
X002187Y012682D01*
X002187Y012741D02*
X007787Y012741D01*
X007787Y012799D02*
X002187Y012799D01*
X002187Y012858D02*
X007787Y012858D01*
X007787Y012916D02*
X002187Y012916D01*
X002187Y012975D02*
X007787Y012975D01*
X007787Y013033D02*
X002187Y013033D01*
X002187Y013092D02*
X007787Y013092D01*
X007787Y013150D02*
X002187Y013150D01*
X002187Y013209D02*
X007787Y013209D01*
X007787Y013267D02*
X002187Y013267D01*
X002187Y013326D02*
X007787Y013326D01*
X007787Y013384D02*
X002187Y013384D01*
X002187Y013443D02*
X007787Y013443D01*
X007787Y013501D02*
X002187Y013501D01*
X002187Y013560D02*
X007787Y013560D01*
X007787Y013618D02*
X002187Y013618D01*
X002187Y013677D02*
X007787Y013677D01*
X007787Y013735D02*
X002187Y013735D01*
X002187Y013794D02*
X007787Y013794D01*
X007787Y013852D02*
X002187Y013852D01*
X002187Y013911D02*
X007787Y013911D01*
X007787Y013969D02*
X002187Y013969D01*
X002187Y014028D02*
X007787Y014028D01*
X007787Y014086D02*
X002187Y014086D01*
X002187Y014145D02*
X007787Y014145D01*
M02*
