G75*
G70*
%OFA0B0*%
%FSLAX24Y24*%
%IPPOS*%
%LPD*%
%AMOC8*
5,1,8,0,0,1.08239X$1,22.5*
%
%ADD10C,0.0600*%
%ADD11C,0.0080*%
%ADD12C,0.0278*%
D10*
X001487Y001833D03*
X001487Y002833D03*
X001487Y003833D03*
X001487Y004833D03*
X001487Y005833D03*
X001487Y006833D03*
X001487Y007833D03*
X001487Y008833D03*
X001487Y009833D03*
X001487Y010833D03*
X001487Y011833D03*
X001487Y012833D03*
X008487Y012833D03*
X008487Y011833D03*
X008487Y010833D03*
X008487Y009833D03*
X008487Y008833D03*
X008487Y007833D03*
X008487Y006833D03*
X008487Y005833D03*
X008487Y004833D03*
X008487Y003833D03*
X008487Y002833D03*
X008487Y001833D03*
D11*
X001147Y002087D02*
X001147Y002579D01*
X001249Y002477D01*
X001403Y002413D01*
X001570Y002413D01*
X001725Y002477D01*
X001843Y002595D01*
X001907Y002750D01*
X001907Y002917D01*
X001843Y003071D01*
X001725Y003189D01*
X001570Y003253D01*
X001403Y003253D01*
X001249Y003189D01*
X001147Y003087D01*
X001147Y003579D01*
X001249Y003477D01*
X001403Y003413D01*
X001570Y003413D01*
X001725Y003477D01*
X001843Y003595D01*
X001907Y003750D01*
X001907Y003917D01*
X001843Y004071D01*
X001725Y004189D01*
X001570Y004253D01*
X001403Y004253D01*
X001249Y004189D01*
X001147Y004087D01*
X001147Y004579D01*
X001249Y004477D01*
X001403Y004413D01*
X001570Y004413D01*
X001725Y004477D01*
X001843Y004595D01*
X001907Y004750D01*
X001907Y004917D01*
X001843Y005071D01*
X001725Y005189D01*
X001570Y005253D01*
X001403Y005253D01*
X001249Y005189D01*
X001147Y005087D01*
X001147Y005579D01*
X001249Y005477D01*
X001403Y005413D01*
X001570Y005413D01*
X001725Y005477D01*
X001843Y005595D01*
X001907Y005750D01*
X001907Y005917D01*
X001843Y006071D01*
X001725Y006189D01*
X001570Y006253D01*
X001403Y006253D01*
X001249Y006189D01*
X001147Y006087D01*
X001147Y006579D01*
X001249Y006477D01*
X001403Y006413D01*
X001570Y006413D01*
X001725Y006477D01*
X001843Y006595D01*
X001907Y006750D01*
X008067Y006750D01*
X008131Y006595D01*
X008249Y006477D01*
X008403Y006413D01*
X008570Y006413D01*
X008725Y006477D01*
X008827Y006579D01*
X008827Y006087D01*
X008725Y006189D01*
X008570Y006253D01*
X008403Y006253D01*
X008249Y006189D01*
X008131Y006071D01*
X008067Y005917D01*
X008067Y005750D01*
X008131Y005595D01*
X008249Y005477D01*
X008403Y005413D01*
X008570Y005413D01*
X008725Y005477D01*
X008827Y005579D01*
X008827Y005087D01*
X008725Y005189D01*
X008570Y005253D01*
X008403Y005253D01*
X008249Y005189D01*
X008131Y005071D01*
X008067Y004917D01*
X008067Y004750D01*
X008131Y004595D01*
X008249Y004477D01*
X008403Y004413D01*
X008570Y004413D01*
X008725Y004477D01*
X008827Y004579D01*
X008827Y004087D01*
X008725Y004189D01*
X008570Y004253D01*
X008403Y004253D01*
X008249Y004189D01*
X008131Y004071D01*
X008067Y003917D01*
X008067Y003750D01*
X008131Y003595D01*
X008249Y003477D01*
X008403Y003413D01*
X008570Y003413D01*
X008725Y003477D01*
X008827Y003579D01*
X008827Y003087D01*
X008725Y003189D01*
X008570Y003253D01*
X008403Y003253D01*
X008249Y003189D01*
X008131Y003071D01*
X008067Y002917D01*
X008067Y002750D01*
X008131Y002595D01*
X008249Y002477D01*
X008403Y002413D01*
X008570Y002413D01*
X008725Y002477D01*
X008827Y002579D01*
X008827Y002087D01*
X008725Y002189D01*
X008570Y002253D01*
X008403Y002253D01*
X008249Y002189D01*
X008131Y002071D01*
X008067Y001917D01*
X008067Y001750D01*
X008115Y001633D01*
X001858Y001633D01*
X001907Y001750D01*
X001907Y001917D01*
X001843Y002071D01*
X001725Y002189D01*
X001570Y002253D01*
X001403Y002253D01*
X001249Y002189D01*
X001147Y002087D01*
X001147Y002118D02*
X001178Y002118D01*
X001147Y002197D02*
X001267Y002197D01*
X001147Y002275D02*
X008827Y002275D01*
X008827Y002197D02*
X008707Y002197D01*
X008796Y002118D02*
X008827Y002118D01*
X008827Y002354D02*
X001147Y002354D01*
X001147Y002432D02*
X001357Y002432D01*
X001215Y002511D02*
X001147Y002511D01*
X001147Y003139D02*
X001198Y003139D01*
X001147Y003217D02*
X001316Y003217D01*
X001147Y003296D02*
X008827Y003296D01*
X008827Y003374D02*
X001147Y003374D01*
X001147Y003453D02*
X001308Y003453D01*
X001195Y003531D02*
X001147Y003531D01*
X001147Y004159D02*
X001219Y004159D01*
X001147Y004238D02*
X001366Y004238D01*
X001258Y004473D02*
X001147Y004473D01*
X001147Y004395D02*
X008827Y004395D01*
X008827Y004473D02*
X008715Y004473D01*
X008799Y004552D02*
X008827Y004552D01*
X008827Y004316D02*
X001147Y004316D01*
X001147Y004552D02*
X001174Y004552D01*
X001147Y005101D02*
X001161Y005101D01*
X001147Y005180D02*
X001239Y005180D01*
X001147Y005258D02*
X008827Y005258D01*
X008827Y005180D02*
X008734Y005180D01*
X008813Y005101D02*
X008827Y005101D01*
X008827Y005337D02*
X001147Y005337D01*
X001147Y005415D02*
X001398Y005415D01*
X001575Y005415D02*
X008398Y005415D01*
X008575Y005415D02*
X008827Y005415D01*
X008827Y005494D02*
X008741Y005494D01*
X008820Y005572D02*
X008827Y005572D01*
X008827Y006122D02*
X008792Y006122D01*
X008827Y006200D02*
X008698Y006200D01*
X008827Y006279D02*
X001147Y006279D01*
X001147Y006357D02*
X008827Y006357D01*
X008827Y006436D02*
X008625Y006436D01*
X008762Y006514D02*
X008827Y006514D01*
X008827Y007087D02*
X008725Y007189D01*
X008570Y007253D01*
X008403Y007253D01*
X008249Y007189D01*
X008131Y007071D01*
X008067Y006917D01*
X008067Y006750D01*
X008067Y006828D02*
X001907Y006828D01*
X001907Y006750D02*
X001907Y006917D01*
X001843Y007071D01*
X001725Y007189D01*
X001570Y007253D01*
X001403Y007253D01*
X001249Y007189D01*
X001147Y007087D01*
X001147Y007579D01*
X001249Y007477D01*
X001403Y007413D01*
X001570Y007413D01*
X001725Y007477D01*
X001843Y007595D01*
X001907Y007750D01*
X001907Y007917D01*
X001843Y008071D01*
X001725Y008189D01*
X001570Y008253D01*
X001403Y008253D01*
X001249Y008189D01*
X001147Y008087D01*
X001147Y008579D01*
X001249Y008477D01*
X001403Y008413D01*
X001570Y008413D01*
X001725Y008477D01*
X001843Y008595D01*
X001907Y008750D01*
X001907Y008917D01*
X001843Y009071D01*
X001725Y009189D01*
X001570Y009253D01*
X001403Y009253D01*
X001249Y009189D01*
X001147Y009087D01*
X001147Y009579D01*
X001249Y009477D01*
X001403Y009413D01*
X001570Y009413D01*
X001725Y009477D01*
X001843Y009595D01*
X001907Y009750D01*
X001907Y009917D01*
X001843Y010071D01*
X001725Y010189D01*
X001570Y010253D01*
X001403Y010253D01*
X001249Y010189D01*
X001147Y010087D01*
X001147Y010579D01*
X001249Y010477D01*
X001403Y010413D01*
X001570Y010413D01*
X001725Y010477D01*
X001843Y010595D01*
X001907Y010750D01*
X001907Y010917D01*
X001843Y011071D01*
X001725Y011189D01*
X001570Y011253D01*
X001403Y011253D01*
X001249Y011189D01*
X001147Y011087D01*
X001147Y011552D01*
X001151Y011546D01*
X001200Y011497D01*
X001256Y011457D01*
X001318Y011425D01*
X001384Y011404D01*
X001447Y011394D01*
X001447Y011793D01*
X001527Y011793D01*
X001527Y011873D01*
X001926Y011873D01*
X001916Y011936D01*
X001894Y012002D01*
X001863Y012064D01*
X001822Y012120D01*
X001773Y012169D01*
X001717Y012209D01*
X001656Y012241D01*
X001590Y012262D01*
X001527Y012272D01*
X001527Y011873D01*
X001447Y011873D01*
X001447Y012272D01*
X001384Y012262D01*
X001318Y012241D01*
X001256Y012209D01*
X001200Y012169D01*
X001151Y012120D01*
X001147Y012114D01*
X001147Y012579D01*
X001249Y012477D01*
X001403Y012413D01*
X001570Y012413D01*
X001725Y012477D01*
X001843Y012595D01*
X001907Y012750D01*
X001907Y012917D01*
X001843Y013071D01*
X001725Y013189D01*
X001570Y013253D01*
X001403Y013253D01*
X001249Y013189D01*
X001147Y013087D01*
X001147Y014173D01*
X008827Y014173D01*
X008827Y013087D01*
X008725Y013189D01*
X008570Y013253D01*
X008403Y013253D01*
X008249Y013189D01*
X008131Y013071D01*
X008067Y012917D01*
X008067Y012750D01*
X008131Y012595D01*
X008249Y012477D01*
X008403Y012413D01*
X008570Y012413D01*
X008725Y012477D01*
X008827Y012579D01*
X008827Y012087D01*
X008725Y012189D01*
X008570Y012253D01*
X008403Y012253D01*
X008249Y012189D01*
X008131Y012071D01*
X008067Y011917D01*
X008067Y011750D01*
X008131Y011595D01*
X008249Y011477D01*
X008403Y011413D01*
X008570Y011413D01*
X008725Y011477D01*
X008827Y011579D01*
X008827Y011087D01*
X008725Y011189D01*
X008570Y011253D01*
X008403Y011253D01*
X008249Y011189D01*
X008131Y011071D01*
X008067Y010917D01*
X008067Y010750D01*
X008131Y010595D01*
X008249Y010477D01*
X008403Y010413D01*
X008570Y010413D01*
X008725Y010477D01*
X008827Y010579D01*
X008827Y010114D01*
X008822Y010120D01*
X008773Y010169D01*
X008717Y010209D01*
X008656Y010241D01*
X008590Y010262D01*
X008527Y010272D01*
X008527Y009873D01*
X008447Y009873D01*
X008447Y010272D01*
X008384Y010262D01*
X008318Y010241D01*
X008256Y010209D01*
X008200Y010169D01*
X008151Y010120D01*
X008110Y010064D01*
X008079Y010002D01*
X008058Y009936D01*
X008048Y009873D01*
X008447Y009873D01*
X008447Y009793D01*
X008527Y009793D01*
X008527Y009394D01*
X008590Y009404D01*
X008656Y009425D01*
X008717Y009457D01*
X008773Y009497D01*
X008827Y009497D01*
X008822Y009546D02*
X008827Y009552D01*
X008827Y009087D01*
X008725Y009189D01*
X008570Y009253D01*
X008403Y009253D01*
X008249Y009189D01*
X008131Y009071D01*
X008067Y008917D01*
X008067Y008750D01*
X008131Y008595D01*
X008249Y008477D01*
X008403Y008413D01*
X008570Y008413D01*
X008725Y008477D01*
X008827Y008579D01*
X008827Y008087D01*
X008725Y008189D01*
X008570Y008253D01*
X008403Y008253D01*
X008249Y008189D01*
X008131Y008071D01*
X008067Y007917D01*
X008067Y007750D01*
X008131Y007595D01*
X008249Y007477D01*
X008403Y007413D01*
X008570Y007413D01*
X008725Y007477D01*
X008827Y007579D01*
X008827Y007087D01*
X008827Y007142D02*
X008772Y007142D01*
X008827Y007221D02*
X008649Y007221D01*
X008827Y007299D02*
X001147Y007299D01*
X001147Y007221D02*
X001325Y007221D01*
X001202Y007142D02*
X001147Y007142D01*
X001147Y007378D02*
X008827Y007378D01*
X008827Y007456D02*
X008674Y007456D01*
X008782Y007535D02*
X008827Y007535D01*
X008827Y008163D02*
X008751Y008163D01*
X008827Y008241D02*
X008599Y008241D01*
X008724Y008477D02*
X008827Y008477D01*
X008827Y008555D02*
X008803Y008555D01*
X008827Y008398D02*
X001147Y008398D01*
X001147Y008320D02*
X008827Y008320D01*
X008374Y008241D02*
X001599Y008241D01*
X001724Y008477D02*
X008250Y008477D01*
X008171Y008555D02*
X001803Y008555D01*
X001859Y008634D02*
X008115Y008634D01*
X008082Y008712D02*
X001891Y008712D01*
X001907Y008791D02*
X008067Y008791D01*
X008067Y008869D02*
X001907Y008869D01*
X001894Y008948D02*
X008079Y008948D01*
X008112Y009026D02*
X001861Y009026D01*
X001809Y009105D02*
X008164Y009105D01*
X008243Y009183D02*
X001731Y009183D01*
X001584Y009419D02*
X008338Y009419D01*
X008318Y009425D02*
X008384Y009404D01*
X008447Y009394D01*
X008447Y009793D01*
X008048Y009793D01*
X008058Y009730D01*
X008079Y009664D01*
X008110Y009602D01*
X008151Y009546D01*
X008200Y009497D01*
X008256Y009457D01*
X008318Y009425D01*
X008447Y009419D02*
X008527Y009419D01*
X008527Y009497D02*
X008447Y009497D01*
X008447Y009576D02*
X008527Y009576D01*
X008527Y009654D02*
X008447Y009654D01*
X008447Y009733D02*
X008527Y009733D01*
X008447Y009811D02*
X001907Y009811D01*
X001907Y009890D02*
X008050Y009890D01*
X008068Y009968D02*
X001885Y009968D01*
X001853Y010047D02*
X008102Y010047D01*
X008156Y010125D02*
X001789Y010125D01*
X001690Y010204D02*
X008248Y010204D01*
X008340Y010439D02*
X001633Y010439D01*
X001765Y010518D02*
X008208Y010518D01*
X008130Y010596D02*
X001843Y010596D01*
X001876Y010675D02*
X008098Y010675D01*
X008067Y010753D02*
X001907Y010753D01*
X001907Y010832D02*
X008067Y010832D01*
X008067Y010910D02*
X001907Y010910D01*
X001877Y010989D02*
X008096Y010989D01*
X008129Y011067D02*
X001844Y011067D01*
X001768Y011146D02*
X008205Y011146D01*
X008333Y011224D02*
X001640Y011224D01*
X001590Y011404D02*
X001656Y011425D01*
X001717Y011457D01*
X001773Y011497D01*
X001822Y011546D01*
X001863Y011602D01*
X001894Y011664D01*
X001916Y011730D01*
X001926Y011793D01*
X001527Y011793D01*
X001527Y011394D01*
X001590Y011404D01*
X001527Y011460D02*
X001447Y011460D01*
X001447Y011538D02*
X001527Y011538D01*
X001527Y011617D02*
X001447Y011617D01*
X001447Y011695D02*
X001527Y011695D01*
X001527Y011774D02*
X001447Y011774D01*
X001527Y011852D02*
X008067Y011852D01*
X008067Y011774D02*
X001923Y011774D01*
X001904Y011695D02*
X008089Y011695D01*
X008122Y011617D02*
X001870Y011617D01*
X001814Y011538D02*
X008188Y011538D01*
X008291Y011460D02*
X001721Y011460D01*
X001527Y011931D02*
X001447Y011931D01*
X001447Y012009D02*
X001527Y012009D01*
X001527Y012088D02*
X001447Y012088D01*
X001447Y012166D02*
X001527Y012166D01*
X001527Y012245D02*
X001447Y012245D01*
X001329Y012245D02*
X001147Y012245D01*
X001147Y012323D02*
X008827Y012323D01*
X008827Y012245D02*
X008591Y012245D01*
X008748Y012166D02*
X008827Y012166D01*
X008826Y012088D02*
X008827Y012088D01*
X008827Y012402D02*
X001147Y012402D01*
X001147Y012480D02*
X001246Y012480D01*
X001167Y012559D02*
X001147Y012559D01*
X001147Y012166D02*
X001197Y012166D01*
X001147Y011538D02*
X001159Y011538D01*
X001147Y011460D02*
X001252Y011460D01*
X001147Y011381D02*
X008827Y011381D01*
X008827Y011303D02*
X001147Y011303D01*
X001147Y011224D02*
X001333Y011224D01*
X001205Y011146D02*
X001147Y011146D01*
X001147Y010518D02*
X001208Y010518D01*
X001147Y010439D02*
X001340Y010439D01*
X001284Y010204D02*
X001147Y010204D01*
X001147Y010282D02*
X008827Y010282D01*
X008827Y010204D02*
X008725Y010204D01*
X008817Y010125D02*
X008827Y010125D01*
X008827Y010361D02*
X001147Y010361D01*
X001147Y010125D02*
X001185Y010125D01*
X001147Y009576D02*
X001150Y009576D01*
X001147Y009497D02*
X001229Y009497D01*
X001147Y009419D02*
X001390Y009419D01*
X001243Y009183D02*
X001147Y009183D01*
X001147Y009105D02*
X001164Y009105D01*
X001147Y009262D02*
X008827Y009262D01*
X008827Y009340D02*
X001147Y009340D01*
X001147Y008555D02*
X001171Y008555D01*
X001147Y008477D02*
X001250Y008477D01*
X001147Y008241D02*
X001374Y008241D01*
X001222Y008163D02*
X001147Y008163D01*
X001147Y007535D02*
X001191Y007535D01*
X001147Y007456D02*
X001299Y007456D01*
X001674Y007456D02*
X008299Y007456D01*
X008191Y007535D02*
X001782Y007535D01*
X001850Y007613D02*
X008123Y007613D01*
X008091Y007692D02*
X001883Y007692D01*
X001907Y007770D02*
X008067Y007770D01*
X008067Y007849D02*
X001907Y007849D01*
X001902Y007927D02*
X008071Y007927D01*
X008104Y008006D02*
X001870Y008006D01*
X001830Y008084D02*
X008144Y008084D01*
X008222Y008163D02*
X001751Y008163D01*
X001649Y007221D02*
X008325Y007221D01*
X008202Y007142D02*
X001772Y007142D01*
X001846Y007064D02*
X008128Y007064D01*
X008095Y006985D02*
X001878Y006985D01*
X001907Y006907D02*
X008067Y006907D01*
X008099Y006671D02*
X001874Y006671D01*
X001840Y006593D02*
X008133Y006593D01*
X008212Y006514D02*
X001762Y006514D01*
X001625Y006436D02*
X008349Y006436D01*
X008275Y006200D02*
X001698Y006200D01*
X001792Y006122D02*
X008181Y006122D01*
X008119Y006043D02*
X001854Y006043D01*
X001887Y005965D02*
X008087Y005965D01*
X008067Y005886D02*
X001907Y005886D01*
X001907Y005808D02*
X008067Y005808D01*
X008075Y005729D02*
X001898Y005729D01*
X001866Y005651D02*
X008108Y005651D01*
X008154Y005572D02*
X001820Y005572D01*
X001741Y005494D02*
X008232Y005494D01*
X008239Y005180D02*
X001734Y005180D01*
X001813Y005101D02*
X008161Y005101D01*
X008111Y005023D02*
X001863Y005023D01*
X001895Y004944D02*
X008078Y004944D01*
X008067Y004866D02*
X001907Y004866D01*
X001907Y004787D02*
X008067Y004787D01*
X008084Y004709D02*
X001890Y004709D01*
X001857Y004630D02*
X008116Y004630D01*
X008174Y004552D02*
X001799Y004552D01*
X001715Y004473D02*
X008258Y004473D01*
X008366Y004238D02*
X001608Y004238D01*
X001755Y004159D02*
X008219Y004159D01*
X008140Y004081D02*
X001833Y004081D01*
X001871Y004002D02*
X008102Y004002D01*
X008070Y003924D02*
X001904Y003924D01*
X001907Y003845D02*
X008067Y003845D01*
X008067Y003767D02*
X001907Y003767D01*
X001881Y003688D02*
X008092Y003688D01*
X008125Y003610D02*
X001849Y003610D01*
X001779Y003531D02*
X008195Y003531D01*
X008308Y003453D02*
X001666Y003453D01*
X001657Y003217D02*
X008316Y003217D01*
X008198Y003139D02*
X001775Y003139D01*
X001847Y003060D02*
X008126Y003060D01*
X008094Y002982D02*
X001880Y002982D01*
X001907Y002903D02*
X008067Y002903D01*
X008067Y002825D02*
X001907Y002825D01*
X001905Y002746D02*
X008068Y002746D01*
X008101Y002668D02*
X001873Y002668D01*
X001837Y002589D02*
X008137Y002589D01*
X008215Y002511D02*
X001758Y002511D01*
X001707Y002197D02*
X008267Y002197D01*
X008178Y002118D02*
X001796Y002118D01*
X001856Y002040D02*
X008118Y002040D01*
X008085Y001961D02*
X001888Y001961D01*
X001907Y001883D02*
X008067Y001883D01*
X008067Y001804D02*
X001907Y001804D01*
X001897Y001726D02*
X008077Y001726D01*
X008109Y001647D02*
X001864Y001647D01*
X001616Y002432D02*
X008357Y002432D01*
X008616Y002432D02*
X008827Y002432D01*
X008827Y002511D02*
X008758Y002511D01*
X008775Y003139D02*
X008827Y003139D01*
X008827Y003217D02*
X008657Y003217D01*
X008666Y003453D02*
X008827Y003453D01*
X008827Y003531D02*
X008779Y003531D01*
X008755Y004159D02*
X008827Y004159D01*
X008827Y004238D02*
X008608Y004238D01*
X008809Y009105D02*
X008827Y009105D01*
X008827Y009183D02*
X008731Y009183D01*
X008635Y009419D02*
X008827Y009419D01*
X008773Y009497D02*
X008822Y009546D01*
X008527Y009890D02*
X008447Y009890D01*
X008447Y009968D02*
X008527Y009968D01*
X008527Y010047D02*
X008447Y010047D01*
X008447Y010125D02*
X008527Y010125D01*
X008527Y010204D02*
X008447Y010204D01*
X008633Y010439D02*
X008827Y010439D01*
X008827Y010518D02*
X008765Y010518D01*
X008768Y011146D02*
X008827Y011146D01*
X008827Y011224D02*
X008640Y011224D01*
X008683Y011460D02*
X008827Y011460D01*
X008827Y011538D02*
X008786Y011538D01*
X008383Y012245D02*
X001644Y012245D01*
X001776Y012166D02*
X008226Y012166D01*
X008147Y012088D02*
X001846Y012088D01*
X001891Y012009D02*
X008105Y012009D01*
X008072Y011931D02*
X001917Y011931D01*
X001728Y012480D02*
X008246Y012480D01*
X008167Y012559D02*
X001806Y012559D01*
X001860Y012637D02*
X008113Y012637D01*
X008081Y012716D02*
X001893Y012716D01*
X001907Y012794D02*
X008067Y012794D01*
X008067Y012873D02*
X001907Y012873D01*
X001892Y012951D02*
X008081Y012951D01*
X008113Y013030D02*
X001860Y013030D01*
X001806Y013108D02*
X008168Y013108D01*
X008246Y013187D02*
X001727Y013187D01*
X001246Y013187D02*
X001147Y013187D01*
X001147Y013265D02*
X008827Y013265D01*
X008827Y013187D02*
X008727Y013187D01*
X008806Y013108D02*
X008827Y013108D01*
X008827Y013344D02*
X001147Y013344D01*
X001147Y013422D02*
X008827Y013422D01*
X008827Y013501D02*
X001147Y013501D01*
X001147Y013579D02*
X008827Y013579D01*
X008827Y013658D02*
X001147Y013658D01*
X001147Y013736D02*
X008827Y013736D01*
X008827Y013815D02*
X001147Y013815D01*
X001147Y013893D02*
X008827Y013893D01*
X008827Y013972D02*
X001147Y013972D01*
X001147Y014050D02*
X008827Y014050D01*
X008827Y014129D02*
X001147Y014129D01*
X001147Y013108D02*
X001168Y013108D01*
X001900Y009733D02*
X008057Y009733D01*
X008084Y009654D02*
X001867Y009654D01*
X001823Y009576D02*
X008130Y009576D01*
X008201Y009497D02*
X001745Y009497D01*
X001212Y006514D02*
X001147Y006514D01*
X001147Y006436D02*
X001349Y006436D01*
X001275Y006200D02*
X001147Y006200D01*
X001147Y006122D02*
X001181Y006122D01*
X001154Y005572D02*
X001147Y005572D01*
X001147Y005494D02*
X001232Y005494D01*
X008728Y012480D02*
X008827Y012480D01*
X008827Y012559D02*
X008806Y012559D01*
D12*
X007537Y012833D03*
X007537Y011833D03*
X007537Y010833D03*
X007537Y009833D03*
X007087Y009833D03*
X006887Y010833D03*
X005987Y011833D03*
X005187Y009833D03*
X005187Y008833D03*
X005187Y007833D03*
X005187Y006833D03*
X005187Y005833D03*
X005187Y004833D03*
X005187Y003833D03*
X005487Y001833D03*
X004237Y001833D03*
X003817Y003633D03*
X002987Y001833D03*
X002307Y003013D03*
X002437Y003833D03*
X002437Y004833D03*
X002437Y005833D03*
X002437Y006833D03*
X002437Y007833D03*
X002437Y008833D03*
X002437Y009833D03*
X002437Y010833D03*
X002437Y011833D03*
X002437Y012833D03*
X002437Y013833D03*
X003987Y011833D03*
X004437Y010833D03*
X007087Y008833D03*
X007537Y008833D03*
X007537Y007833D03*
X007087Y007833D03*
X007087Y006833D03*
X007537Y006833D03*
X007537Y005833D03*
X007087Y005833D03*
X007087Y004833D03*
X007537Y004833D03*
X007537Y003833D03*
X007327Y003133D03*
X007087Y003833D03*
X007537Y013833D03*
M02*
