%
M48
M72
T01C0.0118
T02C0.0400
%
T01
X2307Y3013
X2437Y3833
X2437Y4833
X2437Y5833
X2437Y6833
X2437Y7833
X2437Y8833
X2437Y9833
X2437Y10833
X2437Y11833
X2437Y12833
X2437Y13833
X3987Y11833
X4437Y10833
X5187Y9833
X5187Y8833
X5187Y7833
X5187Y6833
X5187Y5833
X5187Y4833
X5187Y3833
X5487Y1833
X4237Y1833
X3817Y3633
X2987Y1833
X7087Y3833
X7327Y3133
X7537Y3833
X7537Y4833
X7087Y4833
X7087Y5833
X7537Y5833
X7537Y6833
X7087Y6833
X7087Y7833
X7537Y7833
X7537Y8833
X7087Y8833
X7087Y9833
X7537Y9833
X7537Y10833
X7537Y11833
X7537Y12833
X7537Y13833
X5987Y11833
X6887Y10833
T02
X1487Y1833
X1487Y2833
X1487Y3833
X1487Y4833
X1487Y5833
X1487Y6833
X1487Y7833
X1487Y8833
X1487Y9833
X1487Y10833
X1487Y11833
X1487Y12833
X8487Y12833
X8487Y11833
X8487Y10833
X8487Y9833
X8487Y8833
X8487Y7833
X8487Y6833
X8487Y5833
X8487Y4833
X8487Y3833
X8487Y2833
X8487Y1833
M30
