G75*
G70*
%OFA0B0*%
%FSLAX24Y24*%
%IPPOS*%
%LPD*%
%AMOC8*
5,1,8,0,0,1.08239X$1,22.5*
%
%ADD10C,0.0740*%
%ADD11R,0.0394X0.0433*%
%ADD12R,0.0413X0.0866*%
%ADD13R,0.0394X0.0413*%
%ADD14R,0.0433X0.0394*%
%ADD15R,0.0394X0.0591*%
%ADD16R,0.0400X0.2000*%
%ADD17R,0.1500X0.2000*%
%ADD18C,0.0278*%
%ADD19C,0.0060*%
%ADD20C,0.0250*%
%ADD21C,0.0160*%
%ADD22C,0.0230*%
D10*
X001487Y001833D03*
X001487Y002833D03*
X001487Y003833D03*
X001487Y004833D03*
X001487Y005833D03*
X001487Y006833D03*
X001487Y007833D03*
X001487Y008833D03*
X001487Y009833D03*
X001487Y010833D03*
X001487Y011833D03*
X001487Y012833D03*
X008487Y012833D03*
X008487Y011833D03*
X008487Y010833D03*
X008487Y009833D03*
X008487Y008833D03*
X008487Y007833D03*
X008487Y006833D03*
X008487Y005833D03*
X008487Y004833D03*
X008487Y003833D03*
X008487Y002833D03*
X008487Y001833D03*
D11*
X007387Y001898D03*
X007387Y002568D03*
X006787Y001888D03*
X006787Y001218D03*
X006187Y001898D03*
X006187Y002568D03*
D12*
X003567Y002033D03*
X002406Y002033D03*
D13*
X002987Y002634D03*
D14*
X005512Y002593D03*
X006181Y002593D03*
D15*
X006261Y000733D03*
X003112Y000733D03*
D16*
X004987Y013233D03*
D17*
X006537Y013233D03*
X003437Y013233D03*
D18*
X003987Y011833D03*
X004437Y010833D03*
X005187Y009833D03*
X005187Y008833D03*
X005187Y007833D03*
X005187Y006833D03*
X005187Y005833D03*
X005187Y004833D03*
X005187Y003833D03*
X005487Y001833D03*
X004237Y001833D03*
X003817Y003633D03*
X002987Y001833D03*
X002307Y003013D03*
X002437Y003833D03*
X002437Y004833D03*
X002437Y005833D03*
X002437Y006833D03*
X002437Y007833D03*
X002437Y008833D03*
X002437Y009833D03*
X002437Y010833D03*
X002437Y011833D03*
X002437Y012833D03*
X002437Y013833D03*
X005987Y011833D03*
X006887Y010833D03*
X007087Y009833D03*
X007537Y009833D03*
X007537Y010833D03*
X007537Y011833D03*
X007537Y012833D03*
X007537Y013833D03*
X007537Y008833D03*
X007087Y008833D03*
X007087Y007833D03*
X007537Y007833D03*
X007537Y006833D03*
X007087Y006833D03*
X007087Y005833D03*
X007537Y005833D03*
X007537Y004833D03*
X007087Y004833D03*
X007087Y003833D03*
X007327Y003133D03*
X007537Y003833D03*
D19*
X007788Y003849D02*
X006792Y003849D01*
X006792Y003907D02*
X007788Y003907D01*
X007789Y003966D02*
X006792Y003966D01*
X006792Y004024D02*
X007789Y004024D01*
X007789Y004083D02*
X006792Y004083D01*
X006792Y004141D02*
X007789Y004141D01*
X007789Y004200D02*
X006792Y004200D01*
X006792Y004258D02*
X007789Y004258D01*
X007789Y004317D02*
X006792Y004317D01*
X006792Y004375D02*
X007789Y004375D01*
X007789Y004434D02*
X006792Y004434D01*
X006792Y004492D02*
X007789Y004492D01*
X007789Y004551D02*
X006792Y004551D01*
X006792Y004609D02*
X007789Y004609D01*
X007789Y004668D02*
X006792Y004668D01*
X006792Y004726D02*
X007789Y004726D01*
X007789Y004785D02*
X006792Y004785D01*
X006792Y004843D02*
X007789Y004843D01*
X007789Y004902D02*
X006792Y004902D01*
X006792Y004960D02*
X007789Y004960D01*
X007789Y005019D02*
X006792Y005019D01*
X006792Y005077D02*
X007789Y005077D01*
X007789Y005136D02*
X006792Y005136D01*
X006792Y005194D02*
X007789Y005194D01*
X007790Y005253D02*
X006792Y005253D01*
X006792Y005311D02*
X007790Y005311D01*
X007790Y005370D02*
X006792Y005370D01*
X006792Y005428D02*
X007790Y005428D01*
X007790Y005487D02*
X006792Y005487D01*
X006792Y005545D02*
X007790Y005545D01*
X007790Y005604D02*
X006792Y005604D01*
X006792Y005662D02*
X007790Y005662D01*
X007790Y005721D02*
X006792Y005721D01*
X006792Y005779D02*
X007790Y005779D01*
X007790Y005838D02*
X006792Y005838D01*
X006792Y005896D02*
X007790Y005896D01*
X007790Y005955D02*
X006792Y005955D01*
X006792Y006013D02*
X007790Y006013D01*
X007790Y006072D02*
X006792Y006072D01*
X006792Y006130D02*
X007790Y006130D01*
X007790Y006189D02*
X006792Y006189D01*
X006792Y006247D02*
X007790Y006247D01*
X007790Y006306D02*
X006792Y006306D01*
X006792Y006364D02*
X007790Y006364D01*
X007790Y006423D02*
X006792Y006423D01*
X006792Y006481D02*
X007790Y006481D01*
X007791Y006540D02*
X006792Y006540D01*
X006792Y006598D02*
X007791Y006598D01*
X007791Y006657D02*
X006792Y006657D01*
X006792Y006715D02*
X007791Y006715D01*
X007791Y006774D02*
X006792Y006774D01*
X006792Y006832D02*
X007791Y006832D01*
X007791Y006891D02*
X006792Y006891D01*
X006792Y006949D02*
X007791Y006949D01*
X007791Y007008D02*
X006792Y007008D01*
X006792Y007066D02*
X007791Y007066D01*
X007791Y007125D02*
X006792Y007125D01*
X006792Y007183D02*
X007791Y007183D01*
X007791Y007242D02*
X006792Y007242D01*
X006792Y007300D02*
X007791Y007300D01*
X007791Y007359D02*
X006792Y007359D01*
X006792Y007417D02*
X007791Y007417D01*
X007791Y007476D02*
X006792Y007476D01*
X006792Y007534D02*
X007791Y007534D01*
X007791Y007593D02*
X006792Y007593D01*
X006792Y007651D02*
X007791Y007651D01*
X007791Y007710D02*
X006792Y007710D01*
X006792Y007768D02*
X007792Y007768D01*
X007792Y007827D02*
X006792Y007827D01*
X006792Y007885D02*
X007792Y007885D01*
X007792Y007944D02*
X006792Y007944D01*
X006792Y008002D02*
X007792Y008002D01*
X007792Y008061D02*
X006792Y008061D01*
X006792Y008119D02*
X007792Y008119D01*
X007792Y008178D02*
X006792Y008178D01*
X006792Y008236D02*
X007792Y008236D01*
X007792Y008295D02*
X006792Y008295D01*
X006792Y008353D02*
X007792Y008353D01*
X007792Y008412D02*
X006792Y008412D01*
X006792Y008470D02*
X007792Y008470D01*
X007792Y008529D02*
X006792Y008529D01*
X006792Y008587D02*
X007792Y008587D01*
X007792Y008646D02*
X006792Y008646D01*
X006792Y008704D02*
X007792Y008704D01*
X007792Y008763D02*
X006792Y008763D01*
X006792Y008821D02*
X007792Y008821D01*
X007792Y008880D02*
X006792Y008880D01*
X006792Y008938D02*
X007792Y008938D01*
X007792Y008997D02*
X006792Y008997D01*
X006792Y009055D02*
X007793Y009055D01*
X007793Y009114D02*
X006792Y009114D01*
X006792Y009172D02*
X007793Y009172D01*
X007793Y009231D02*
X006792Y009231D01*
X006792Y009289D02*
X007793Y009289D01*
X007793Y009348D02*
X006792Y009348D01*
X006792Y009406D02*
X007793Y009406D01*
X007793Y009465D02*
X006792Y009465D01*
X006792Y009523D02*
X007793Y009523D01*
X007793Y009582D02*
X006792Y009582D01*
X006792Y009640D02*
X007793Y009640D01*
X007793Y009699D02*
X006792Y009699D01*
X006792Y009757D02*
X007793Y009757D01*
X007793Y009816D02*
X006792Y009816D01*
X006792Y009874D02*
X007793Y009874D01*
X007793Y009933D02*
X006792Y009933D01*
X006792Y009991D02*
X007793Y009991D01*
X007793Y010050D02*
X006792Y010050D01*
X006792Y010108D02*
X007793Y010108D01*
X007793Y010167D02*
X006792Y010167D01*
X006792Y010225D02*
X007793Y010225D01*
X007793Y010284D02*
X006787Y010284D01*
X006790Y010275D02*
X006700Y010494D01*
X006700Y010494D01*
X006663Y010582D01*
X005592Y011654D01*
X005592Y011959D01*
X005594Y011961D01*
X005667Y012138D01*
X005667Y014203D01*
X007797Y014203D01*
X007787Y002378D01*
X007770Y002395D01*
X007649Y002445D01*
X007124Y002445D01*
X007074Y002424D01*
X007049Y002434D01*
X006878Y002434D01*
X006878Y002885D01*
X006805Y003062D01*
X006792Y003075D01*
X006792Y010272D01*
X006790Y010275D01*
X006762Y010342D02*
X007794Y010342D01*
X007794Y010401D02*
X006738Y010401D01*
X006714Y010459D02*
X007794Y010459D01*
X007794Y010518D02*
X006690Y010518D01*
X006666Y010576D02*
X007794Y010576D01*
X007794Y010635D02*
X006611Y010635D01*
X006552Y010693D02*
X007794Y010693D01*
X007794Y010752D02*
X006494Y010752D01*
X006435Y010810D02*
X007794Y010810D01*
X007794Y010869D02*
X006377Y010869D01*
X006318Y010927D02*
X007794Y010927D01*
X007794Y010986D02*
X006260Y010986D01*
X006201Y011044D02*
X007794Y011044D01*
X007794Y011103D02*
X006143Y011103D01*
X006084Y011161D02*
X007794Y011161D01*
X007794Y011220D02*
X006026Y011220D01*
X005967Y011278D02*
X007794Y011278D01*
X007794Y011337D02*
X005909Y011337D01*
X005850Y011395D02*
X007794Y011395D01*
X007794Y011454D02*
X005792Y011454D01*
X005733Y011512D02*
X007794Y011512D01*
X007795Y011571D02*
X005675Y011571D01*
X005616Y011629D02*
X007795Y011629D01*
X007795Y011688D02*
X005592Y011688D01*
X005592Y011746D02*
X007795Y011746D01*
X007795Y011805D02*
X005592Y011805D01*
X005592Y011863D02*
X007795Y011863D01*
X007795Y011922D02*
X005592Y011922D01*
X005601Y011980D02*
X007795Y011980D01*
X007795Y012039D02*
X005626Y012039D01*
X005650Y012097D02*
X007795Y012097D01*
X007795Y012156D02*
X005667Y012156D01*
X005667Y012214D02*
X007795Y012214D01*
X007795Y012273D02*
X005667Y012273D01*
X005667Y012331D02*
X007795Y012331D01*
X007795Y012390D02*
X005667Y012390D01*
X005667Y012448D02*
X007795Y012448D01*
X007795Y012507D02*
X005667Y012507D01*
X005667Y012565D02*
X007795Y012565D01*
X007795Y012624D02*
X005667Y012624D01*
X005667Y012682D02*
X007795Y012682D01*
X007795Y012741D02*
X005667Y012741D01*
X005667Y012799D02*
X007795Y012799D01*
X007796Y012858D02*
X005667Y012858D01*
X005667Y012916D02*
X007796Y012916D01*
X007796Y012975D02*
X005667Y012975D01*
X005667Y013033D02*
X007796Y013033D01*
X007796Y013092D02*
X005667Y013092D01*
X005667Y013150D02*
X007796Y013150D01*
X007796Y013209D02*
X005667Y013209D01*
X005667Y013267D02*
X007796Y013267D01*
X007796Y013326D02*
X005667Y013326D01*
X005667Y013384D02*
X007796Y013384D01*
X007796Y013443D02*
X005667Y013443D01*
X005667Y013501D02*
X007796Y013501D01*
X007796Y013560D02*
X005667Y013560D01*
X005667Y013618D02*
X007796Y013618D01*
X007796Y013677D02*
X005667Y013677D01*
X005667Y013735D02*
X007796Y013735D01*
X007796Y013794D02*
X005667Y013794D01*
X005667Y013852D02*
X007796Y013852D01*
X007796Y013911D02*
X005667Y013911D01*
X005667Y013969D02*
X007796Y013969D01*
X007796Y014028D02*
X005667Y014028D01*
X005667Y014086D02*
X007796Y014086D01*
X007797Y014145D02*
X005667Y014145D01*
X004380Y011961D02*
X004382Y011959D01*
X004382Y011335D01*
X004474Y011112D01*
X004510Y011024D01*
X004678Y010856D01*
X004681Y010854D01*
X005582Y009952D01*
X005582Y003120D01*
X005230Y003120D01*
X005109Y003070D01*
X005087Y003048D01*
X004865Y003048D01*
X004721Y003192D01*
X004633Y003229D01*
X004465Y003298D01*
X003073Y003298D01*
X002915Y003233D01*
X002906Y003229D01*
X002817Y003192D01*
X002796Y003171D01*
X002724Y003171D01*
X002603Y003121D01*
X002510Y003028D01*
X002460Y002907D01*
X002460Y002362D01*
X002510Y002241D01*
X002603Y002148D01*
X002724Y002098D01*
X003249Y002098D01*
X003370Y002148D01*
X003463Y002241D01*
X003514Y002362D01*
X003514Y002388D01*
X004238Y002388D01*
X004382Y002244D01*
X004471Y002207D01*
X004638Y002138D01*
X005087Y002138D01*
X005109Y002116D01*
X005230Y002066D01*
X005596Y002066D01*
X005660Y002002D01*
X005660Y001633D01*
X002187Y001633D01*
X002197Y014203D01*
X004307Y014203D01*
X004307Y012138D01*
X004380Y011961D01*
X004372Y011980D02*
X002195Y011980D01*
X002195Y011922D02*
X004382Y011922D01*
X004382Y011863D02*
X002195Y011863D01*
X002195Y011805D02*
X004382Y011805D01*
X004382Y011746D02*
X002195Y011746D01*
X002195Y011688D02*
X004382Y011688D01*
X004382Y011629D02*
X002195Y011629D01*
X002195Y011571D02*
X004382Y011571D01*
X004382Y011512D02*
X002194Y011512D01*
X002194Y011454D02*
X004382Y011454D01*
X004382Y011395D02*
X002194Y011395D01*
X002194Y011337D02*
X004382Y011337D01*
X004405Y011278D02*
X002194Y011278D01*
X002194Y011220D02*
X004429Y011220D01*
X004453Y011161D02*
X002194Y011161D01*
X002194Y011103D02*
X004478Y011103D01*
X004474Y011112D02*
X004474Y011112D01*
X004502Y011044D02*
X002194Y011044D01*
X002194Y010986D02*
X004549Y010986D01*
X004607Y010927D02*
X002194Y010927D01*
X002194Y010869D02*
X004666Y010869D01*
X004724Y010810D02*
X002194Y010810D01*
X002194Y010752D02*
X004783Y010752D01*
X004841Y010693D02*
X002194Y010693D01*
X002194Y010635D02*
X004900Y010635D01*
X004958Y010576D02*
X002194Y010576D01*
X002194Y010518D02*
X005017Y010518D01*
X005075Y010459D02*
X002194Y010459D01*
X002194Y010401D02*
X005134Y010401D01*
X005192Y010342D02*
X002194Y010342D01*
X002193Y010284D02*
X005251Y010284D01*
X005309Y010225D02*
X002193Y010225D01*
X002193Y010167D02*
X005368Y010167D01*
X005426Y010108D02*
X002193Y010108D01*
X002193Y010050D02*
X005485Y010050D01*
X005543Y009991D02*
X002193Y009991D01*
X002193Y009933D02*
X005582Y009933D01*
X005582Y009874D02*
X002193Y009874D01*
X002193Y009816D02*
X005582Y009816D01*
X005582Y009757D02*
X002193Y009757D01*
X002193Y009699D02*
X005582Y009699D01*
X005582Y009640D02*
X002193Y009640D01*
X002193Y009582D02*
X005582Y009582D01*
X005582Y009523D02*
X002193Y009523D01*
X002193Y009465D02*
X005582Y009465D01*
X005582Y009406D02*
X002193Y009406D01*
X002193Y009348D02*
X005582Y009348D01*
X005582Y009289D02*
X002193Y009289D01*
X002193Y009231D02*
X005582Y009231D01*
X005582Y009172D02*
X002193Y009172D01*
X002193Y009114D02*
X005582Y009114D01*
X005582Y009055D02*
X002193Y009055D01*
X002192Y008997D02*
X005582Y008997D01*
X005582Y008938D02*
X002192Y008938D01*
X002192Y008880D02*
X005582Y008880D01*
X005582Y008821D02*
X002192Y008821D01*
X002192Y008763D02*
X005582Y008763D01*
X005582Y008704D02*
X002192Y008704D01*
X002192Y008646D02*
X005582Y008646D01*
X005582Y008587D02*
X002192Y008587D01*
X002192Y008529D02*
X005582Y008529D01*
X005582Y008470D02*
X002192Y008470D01*
X002192Y008412D02*
X005582Y008412D01*
X005582Y008353D02*
X002192Y008353D01*
X002192Y008295D02*
X005582Y008295D01*
X005582Y008236D02*
X002192Y008236D01*
X002192Y008178D02*
X005582Y008178D01*
X005582Y008119D02*
X002192Y008119D01*
X002192Y008061D02*
X005582Y008061D01*
X005582Y008002D02*
X002192Y008002D01*
X002192Y007944D02*
X005582Y007944D01*
X005582Y007885D02*
X002192Y007885D01*
X002192Y007827D02*
X005582Y007827D01*
X005582Y007768D02*
X002192Y007768D01*
X002191Y007710D02*
X005582Y007710D01*
X005582Y007651D02*
X002191Y007651D01*
X002191Y007593D02*
X005582Y007593D01*
X005582Y007534D02*
X002191Y007534D01*
X002191Y007476D02*
X005582Y007476D01*
X005582Y007417D02*
X002191Y007417D01*
X002191Y007359D02*
X005582Y007359D01*
X005582Y007300D02*
X002191Y007300D01*
X002191Y007242D02*
X005582Y007242D01*
X005582Y007183D02*
X002191Y007183D01*
X002191Y007125D02*
X005582Y007125D01*
X005582Y007066D02*
X002191Y007066D01*
X002191Y007008D02*
X005582Y007008D01*
X005582Y006949D02*
X002191Y006949D01*
X002191Y006891D02*
X005582Y006891D01*
X005582Y006832D02*
X002191Y006832D01*
X002191Y006774D02*
X005582Y006774D01*
X005582Y006715D02*
X002191Y006715D01*
X002191Y006657D02*
X005582Y006657D01*
X005582Y006598D02*
X002191Y006598D01*
X002191Y006540D02*
X005582Y006540D01*
X005582Y006481D02*
X002190Y006481D01*
X002190Y006423D02*
X005582Y006423D01*
X005582Y006364D02*
X002190Y006364D01*
X002190Y006306D02*
X005582Y006306D01*
X005582Y006247D02*
X002190Y006247D01*
X002190Y006189D02*
X005582Y006189D01*
X005582Y006130D02*
X002190Y006130D01*
X002190Y006072D02*
X005582Y006072D01*
X005582Y006013D02*
X002190Y006013D01*
X002190Y005955D02*
X005582Y005955D01*
X005582Y005896D02*
X002190Y005896D01*
X002190Y005838D02*
X005582Y005838D01*
X005582Y005779D02*
X002190Y005779D01*
X002190Y005721D02*
X005582Y005721D01*
X005582Y005662D02*
X002190Y005662D01*
X002190Y005604D02*
X005582Y005604D01*
X005582Y005545D02*
X002190Y005545D01*
X002190Y005487D02*
X005582Y005487D01*
X005582Y005428D02*
X002190Y005428D01*
X002190Y005370D02*
X005582Y005370D01*
X005582Y005311D02*
X002190Y005311D01*
X002190Y005253D02*
X005582Y005253D01*
X005582Y005194D02*
X002189Y005194D01*
X002189Y005136D02*
X005582Y005136D01*
X005582Y005077D02*
X002189Y005077D01*
X002189Y005019D02*
X005582Y005019D01*
X005582Y004960D02*
X002189Y004960D01*
X002189Y004902D02*
X005582Y004902D01*
X005582Y004843D02*
X002189Y004843D01*
X002189Y004785D02*
X005582Y004785D01*
X005582Y004726D02*
X002189Y004726D01*
X002189Y004668D02*
X005582Y004668D01*
X005582Y004609D02*
X002189Y004609D01*
X002189Y004551D02*
X005582Y004551D01*
X005582Y004492D02*
X002189Y004492D01*
X002189Y004434D02*
X005582Y004434D01*
X005582Y004375D02*
X002189Y004375D01*
X002189Y004317D02*
X005582Y004317D01*
X005582Y004258D02*
X002189Y004258D01*
X002189Y004200D02*
X005582Y004200D01*
X005582Y004141D02*
X002189Y004141D01*
X002189Y004083D02*
X005582Y004083D01*
X005582Y004024D02*
X002189Y004024D01*
X002189Y003966D02*
X005582Y003966D01*
X005582Y003907D02*
X002188Y003907D01*
X002188Y003849D02*
X005582Y003849D01*
X005582Y003790D02*
X002188Y003790D01*
X002188Y003732D02*
X005582Y003732D01*
X005582Y003673D02*
X002188Y003673D01*
X002188Y003615D02*
X005582Y003615D01*
X005582Y003556D02*
X002188Y003556D01*
X002188Y003498D02*
X005582Y003498D01*
X005582Y003439D02*
X002188Y003439D01*
X002188Y003381D02*
X005582Y003381D01*
X005582Y003322D02*
X002188Y003322D01*
X002188Y003264D02*
X002990Y003264D01*
X002848Y003205D02*
X002188Y003205D01*
X002188Y003147D02*
X002665Y003147D01*
X002570Y003088D02*
X002188Y003088D01*
X002188Y003030D02*
X002512Y003030D01*
X002486Y002971D02*
X002188Y002971D01*
X002188Y002913D02*
X002462Y002913D01*
X002460Y002854D02*
X002188Y002854D01*
X002188Y002796D02*
X002460Y002796D01*
X002460Y002737D02*
X002188Y002737D01*
X002187Y002679D02*
X002460Y002679D01*
X002460Y002620D02*
X002187Y002620D01*
X002187Y002562D02*
X002460Y002562D01*
X002460Y002503D02*
X002187Y002503D01*
X002187Y002445D02*
X002460Y002445D01*
X002460Y002386D02*
X002187Y002386D01*
X002187Y002328D02*
X002474Y002328D01*
X002498Y002269D02*
X002187Y002269D01*
X002187Y002211D02*
X002540Y002211D01*
X002599Y002152D02*
X002187Y002152D01*
X002187Y002094D02*
X005164Y002094D01*
X005627Y002035D02*
X002187Y002035D01*
X002187Y001977D02*
X005660Y001977D01*
X005660Y001918D02*
X002187Y001918D01*
X002187Y001860D02*
X005660Y001860D01*
X005660Y001801D02*
X002187Y001801D01*
X002187Y001743D02*
X005660Y001743D01*
X005660Y001684D02*
X002187Y001684D01*
X003375Y002152D02*
X004604Y002152D01*
X004471Y002207D02*
X004471Y002207D01*
X004463Y002211D02*
X003433Y002211D01*
X003475Y002269D02*
X004357Y002269D01*
X004299Y002328D02*
X003499Y002328D01*
X003514Y002386D02*
X004240Y002386D01*
X004633Y003229D02*
X004633Y003229D01*
X004690Y003205D02*
X005582Y003205D01*
X005582Y003147D02*
X004767Y003147D01*
X004825Y003088D02*
X005153Y003088D01*
X005582Y003264D02*
X004549Y003264D01*
X006792Y003264D02*
X007788Y003264D01*
X007788Y003322D02*
X006792Y003322D01*
X006792Y003381D02*
X007788Y003381D01*
X007788Y003439D02*
X006792Y003439D01*
X006792Y003498D02*
X007788Y003498D01*
X007788Y003556D02*
X006792Y003556D01*
X006792Y003615D02*
X007788Y003615D01*
X007788Y003673D02*
X006792Y003673D01*
X006792Y003732D02*
X007788Y003732D01*
X007788Y003790D02*
X006792Y003790D01*
X006792Y003205D02*
X007788Y003205D01*
X007788Y003147D02*
X006792Y003147D01*
X006792Y003088D02*
X007788Y003088D01*
X007788Y003030D02*
X006818Y003030D01*
X006842Y002971D02*
X007788Y002971D01*
X007788Y002913D02*
X006867Y002913D01*
X006878Y002854D02*
X007788Y002854D01*
X007788Y002796D02*
X006878Y002796D01*
X006878Y002737D02*
X007788Y002737D01*
X007787Y002679D02*
X006878Y002679D01*
X006878Y002620D02*
X007787Y002620D01*
X007787Y002562D02*
X006878Y002562D01*
X006878Y002503D02*
X007787Y002503D01*
X007787Y002445D02*
X007650Y002445D01*
X007779Y002386D02*
X007787Y002386D01*
X007123Y002445D02*
X006878Y002445D01*
X004348Y012039D02*
X002195Y012039D01*
X002195Y012097D02*
X004323Y012097D01*
X004307Y012156D02*
X002195Y012156D01*
X002195Y012214D02*
X004307Y012214D01*
X004307Y012273D02*
X002195Y012273D01*
X002195Y012331D02*
X004307Y012331D01*
X004307Y012390D02*
X002195Y012390D01*
X002195Y012448D02*
X004307Y012448D01*
X004307Y012507D02*
X002195Y012507D01*
X002195Y012565D02*
X004307Y012565D01*
X004307Y012624D02*
X002195Y012624D01*
X002195Y012682D02*
X004307Y012682D01*
X004307Y012741D02*
X002195Y012741D01*
X002195Y012799D02*
X004307Y012799D01*
X004307Y012858D02*
X002196Y012858D01*
X002196Y012916D02*
X004307Y012916D01*
X004307Y012975D02*
X002196Y012975D01*
X002196Y013033D02*
X004307Y013033D01*
X004307Y013092D02*
X002196Y013092D01*
X002196Y013150D02*
X004307Y013150D01*
X004307Y013209D02*
X002196Y013209D01*
X002196Y013267D02*
X004307Y013267D01*
X004307Y013326D02*
X002196Y013326D01*
X002196Y013384D02*
X004307Y013384D01*
X004307Y013443D02*
X002196Y013443D01*
X002196Y013501D02*
X004307Y013501D01*
X004307Y013560D02*
X002196Y013560D01*
X002196Y013618D02*
X004307Y013618D01*
X004307Y013677D02*
X002196Y013677D01*
X002196Y013735D02*
X004307Y013735D01*
X004307Y013794D02*
X002196Y013794D01*
X002196Y013852D02*
X004307Y013852D01*
X004307Y013911D02*
X002196Y013911D01*
X002196Y013969D02*
X004307Y013969D01*
X004307Y014028D02*
X002196Y014028D01*
X002196Y014086D02*
X004307Y014086D01*
X004307Y014145D02*
X002197Y014145D01*
D20*
X004987Y013233D02*
X004987Y011455D01*
X005023Y011366D01*
X006150Y010240D01*
X006187Y010151D01*
X006187Y002568D01*
X006181Y002593D02*
X006168Y002607D01*
X006187Y001898D02*
X006776Y001898D01*
X006787Y001888D01*
X007376Y001888D01*
X007387Y001898D01*
X006787Y001218D02*
X006787Y000858D01*
X006662Y000733D01*
X006261Y000733D01*
X005512Y002593D02*
X004728Y002593D01*
X004640Y002630D02*
X004463Y002806D01*
X004375Y002843D02*
X003163Y002843D01*
X003075Y002806D01*
D21*
X006181Y002593D02*
X006181Y002573D01*
X006187Y002568D01*
D22*
X004728Y002593D02*
X004640Y002630D01*
X004463Y002806D02*
X004375Y002843D01*
X003075Y002806D02*
X002987Y002718D01*
X002987Y002634D01*
M02*
