G75*
G70*
%OFA0B0*%
%FSLAX24Y24*%
%IPPOS*%
%LPD*%
%AMOC8*
5,1,8,0,0,1.08239X$1,22.5*
%
%ADD10C,0.0060*%
%ADD11C,0.0080*%
%ADD12C,0.0040*%
%ADD13R,0.0157X0.0394*%
D10*
X003326Y004917D02*
X003326Y005237D01*
X003433Y005344D01*
X003646Y005344D01*
X003753Y005237D01*
X003753Y004917D01*
X003753Y005130D02*
X003967Y005344D01*
X003967Y005562D02*
X003326Y005562D01*
X003326Y005989D01*
X003646Y005775D02*
X003646Y005562D01*
X003967Y004917D02*
X003326Y004917D01*
X003326Y006851D02*
X003326Y007278D01*
X003326Y007064D02*
X003967Y007064D01*
X003860Y007495D02*
X003646Y007495D01*
X003540Y007602D01*
X003540Y007815D01*
X003646Y007922D01*
X003753Y007922D01*
X003753Y007495D01*
X003860Y007495D02*
X003967Y007602D01*
X003967Y007815D01*
X003967Y008140D02*
X003967Y008460D01*
X003860Y008567D01*
X003753Y008460D01*
X003753Y008246D01*
X003646Y008140D01*
X003540Y008246D01*
X003540Y008567D01*
X003540Y008784D02*
X003540Y008998D01*
X003433Y008891D02*
X003860Y008891D01*
X003967Y008998D01*
X003967Y009859D02*
X003540Y010286D01*
X003433Y010286D01*
X003326Y010179D01*
X003326Y009965D01*
X003433Y009859D01*
X003967Y009859D02*
X003967Y010286D01*
D11*
X003184Y001561D02*
X002790Y001561D01*
X003506Y000930D02*
X005868Y000930D01*
X005868Y000536D02*
X003506Y000536D01*
X003737Y014282D02*
X003737Y014853D01*
X004199Y014853D01*
X004199Y015700D01*
X003904Y015995D01*
X003904Y017491D01*
X004239Y017491D01*
X004239Y017954D01*
X005735Y017954D01*
X005735Y017491D01*
X006069Y017491D01*
X006069Y015995D01*
X005774Y015700D01*
X005774Y014853D01*
X006237Y014853D01*
X006237Y014282D01*
X003737Y014282D01*
D12*
X002918Y002033D02*
X002920Y002049D01*
X002925Y002064D01*
X002934Y002077D01*
X002946Y002088D01*
X002960Y002096D01*
X002975Y002101D01*
X002991Y002102D01*
X003007Y002099D01*
X003021Y002093D01*
X003034Y002083D01*
X003045Y002071D01*
X003052Y002057D01*
X003056Y002041D01*
X003056Y002025D01*
X003052Y002009D01*
X003045Y001995D01*
X003034Y001983D01*
X003022Y001973D01*
X003007Y001967D01*
X002991Y001964D01*
X002975Y001965D01*
X002960Y001970D01*
X002946Y001978D01*
X002934Y001989D01*
X002925Y002002D01*
X002920Y002017D01*
X002918Y002033D01*
X002711Y002033D02*
X002713Y002066D01*
X002719Y002098D01*
X002728Y002129D01*
X002741Y002159D01*
X002758Y002187D01*
X002778Y002213D01*
X002801Y002237D01*
X002826Y002257D01*
X002854Y002275D01*
X002883Y002289D01*
X002914Y002299D01*
X002946Y002306D01*
X002979Y002309D01*
X003012Y002308D01*
X003044Y002303D01*
X003075Y002294D01*
X003106Y002282D01*
X003134Y002266D01*
X003161Y002247D01*
X003185Y002225D01*
X003206Y002200D01*
X003225Y002173D01*
X003240Y002144D01*
X003251Y002114D01*
X003259Y002082D01*
X003263Y002049D01*
X003263Y002017D01*
X003259Y001984D01*
X003251Y001952D01*
X003240Y001922D01*
X003225Y001893D01*
X003206Y001866D01*
X003185Y001841D01*
X003161Y001819D01*
X003134Y001800D01*
X003106Y001784D01*
X003075Y001772D01*
X003044Y001763D01*
X003012Y001758D01*
X002979Y001757D01*
X002946Y001760D01*
X002914Y001767D01*
X002883Y001777D01*
X002854Y001791D01*
X002826Y001809D01*
X002801Y001829D01*
X002778Y001853D01*
X002758Y001879D01*
X002741Y001907D01*
X002728Y001937D01*
X002719Y001968D01*
X002713Y002000D01*
X002711Y002033D01*
D13*
X005671Y000733D03*
M02*
