G75*
G70*
%OFA0B0*%
%FSLAX24Y24*%
%IPPOS*%
%LPD*%
%AMOC8*
5,1,8,0,0,1.08239X$1,22.5*
%
%ADD10R,0.0631X0.0710*%
%ADD11R,0.0474X0.0513*%
%ADD12R,0.0395X0.0395*%
%ADD13R,0.0297X0.0552*%
%ADD14C,0.0820*%
%ADD15R,0.0828X0.0513*%
%ADD16R,0.0631X0.0218*%
%ADD17R,0.0828X0.0789*%
%ADD18R,0.0828X0.0828*%
%ADD19R,0.0789X0.0474*%
%ADD20R,0.0407X0.0328*%
%ADD21R,0.0159X0.0474*%
%ADD22R,0.0474X0.0159*%
%ADD23R,0.0513X0.0474*%
%ADD24R,0.0552X0.0552*%
%ADD25R,0.0552X0.0356*%
%ADD26R,0.0356X0.0552*%
%ADD27R,0.1025X0.0828*%
%ADD28R,0.0480X0.1080*%
%ADD29R,0.0474X0.0474*%
%ADD30R,0.0670X0.0300*%
%ADD31C,0.0010*%
%ADD32R,0.0470X0.0198*%
%ADD33C,0.0680*%
%ADD34OC8,0.0680*%
%ADD35OC8,0.1085*%
D10*
X009692Y018205D03*
X010794Y018205D03*
X010794Y021205D03*
X009692Y021205D03*
X034992Y015305D03*
X036094Y015305D03*
D11*
X024693Y010940D03*
X024693Y010270D03*
X021893Y010270D03*
X021893Y010940D03*
X024093Y014570D03*
X024093Y015240D03*
X021243Y015540D03*
X021243Y014870D03*
X008977Y014455D03*
X008977Y013855D03*
X008308Y013855D03*
X008308Y014455D03*
X007077Y012905D03*
X006408Y012905D03*
X005327Y015305D03*
X004658Y015305D03*
X004658Y015955D03*
X005327Y015955D03*
X005327Y016605D03*
X004658Y016605D03*
X004658Y017255D03*
X005327Y017255D03*
X007658Y025105D03*
X008327Y025105D03*
X006077Y028105D03*
X006077Y028705D03*
X006077Y029305D03*
X005408Y029305D03*
X005408Y028705D03*
X005408Y028105D03*
X013408Y025905D03*
X014077Y025905D03*
X006327Y009305D03*
X005658Y009305D03*
X004277Y002205D03*
X003608Y002205D03*
X006443Y001690D03*
X006443Y001020D03*
D12*
X004488Y028205D03*
X003898Y028205D03*
X003898Y028705D03*
X003898Y029205D03*
X004488Y029205D03*
X004488Y028705D03*
D13*
X009869Y020217D03*
X010243Y020217D03*
X010617Y020217D03*
X010617Y019193D03*
X009869Y019193D03*
D14*
X029243Y012705D03*
X029243Y011705D03*
X029243Y010705D03*
X029243Y009705D03*
X029243Y008705D03*
X029243Y007705D03*
X029243Y006705D03*
X029243Y005705D03*
X029243Y004705D03*
X029243Y003705D03*
X029243Y002705D03*
X029243Y001705D03*
X031243Y001705D03*
X031243Y002705D03*
X031243Y003705D03*
X031243Y004705D03*
X031243Y005705D03*
X031243Y006705D03*
X031243Y007705D03*
X031243Y008705D03*
X031243Y009705D03*
X031243Y010705D03*
X031243Y011705D03*
X031243Y012705D03*
X038243Y012705D03*
X038243Y011705D03*
X038243Y010705D03*
X038243Y009705D03*
X038243Y008705D03*
X038243Y007705D03*
X038243Y006705D03*
X038243Y005705D03*
X038243Y004705D03*
X038243Y003705D03*
X038243Y002705D03*
X038243Y001705D03*
X040243Y001705D03*
X040243Y002705D03*
X040243Y003705D03*
X040243Y004705D03*
X040243Y005705D03*
X040243Y006705D03*
X040243Y007705D03*
X040243Y008705D03*
X040243Y009705D03*
X040243Y010705D03*
X040243Y011705D03*
X040243Y012705D03*
D15*
X024021Y011058D03*
X024021Y010152D03*
X022564Y010152D03*
X022564Y011058D03*
D16*
X003286Y015693D03*
X003286Y015949D03*
X003286Y016205D03*
X003286Y016461D03*
X003286Y016717D03*
D17*
X002243Y017780D03*
X002243Y014630D03*
D18*
X002243Y015705D03*
X002243Y016705D03*
D19*
X008993Y019054D03*
X008993Y020156D03*
D20*
X008193Y020158D03*
X008193Y019252D03*
D21*
G36*
X019447Y018081D02*
X019335Y017969D01*
X019001Y018303D01*
X019113Y018415D01*
X019447Y018081D01*
G37*
G36*
X019587Y018220D02*
X019475Y018108D01*
X019141Y018442D01*
X019253Y018554D01*
X019587Y018220D01*
G37*
G36*
X019726Y018360D02*
X019614Y018248D01*
X019280Y018582D01*
X019392Y018694D01*
X019726Y018360D01*
G37*
G36*
X019865Y018499D02*
X019753Y018387D01*
X019419Y018721D01*
X019531Y018833D01*
X019865Y018499D01*
G37*
G36*
X020004Y018638D02*
X019892Y018526D01*
X019558Y018860D01*
X019670Y018972D01*
X020004Y018638D01*
G37*
G36*
X020143Y018777D02*
X020031Y018665D01*
X019697Y018999D01*
X019809Y019111D01*
X020143Y018777D01*
G37*
G36*
X020283Y018916D02*
X020171Y018804D01*
X019837Y019138D01*
X019949Y019250D01*
X020283Y018916D01*
G37*
G36*
X020422Y019056D02*
X020310Y018944D01*
X019976Y019278D01*
X020088Y019390D01*
X020422Y019056D01*
G37*
G36*
X020561Y019195D02*
X020449Y019083D01*
X020115Y019417D01*
X020227Y019529D01*
X020561Y019195D01*
G37*
G36*
X020700Y019334D02*
X020588Y019222D01*
X020254Y019556D01*
X020366Y019668D01*
X020700Y019334D01*
G37*
G36*
X020839Y019473D02*
X020727Y019361D01*
X020393Y019695D01*
X020505Y019807D01*
X020839Y019473D01*
G37*
G36*
X020979Y019612D02*
X020867Y019500D01*
X020533Y019834D01*
X020645Y019946D01*
X020979Y019612D01*
G37*
G36*
X023484Y017107D02*
X023372Y016995D01*
X023038Y017329D01*
X023150Y017441D01*
X023484Y017107D01*
G37*
G36*
X023345Y016968D02*
X023233Y016856D01*
X022899Y017190D01*
X023011Y017302D01*
X023345Y016968D01*
G37*
G36*
X023206Y016828D02*
X023094Y016716D01*
X022760Y017050D01*
X022872Y017162D01*
X023206Y016828D01*
G37*
G36*
X023067Y016689D02*
X022955Y016577D01*
X022621Y016911D01*
X022733Y017023D01*
X023067Y016689D01*
G37*
G36*
X022927Y016550D02*
X022815Y016438D01*
X022481Y016772D01*
X022593Y016884D01*
X022927Y016550D01*
G37*
G36*
X022788Y016411D02*
X022676Y016299D01*
X022342Y016633D01*
X022454Y016745D01*
X022788Y016411D01*
G37*
G36*
X022649Y016272D02*
X022537Y016160D01*
X022203Y016494D01*
X022315Y016606D01*
X022649Y016272D01*
G37*
G36*
X022510Y016132D02*
X022398Y016020D01*
X022064Y016354D01*
X022176Y016466D01*
X022510Y016132D01*
G37*
G36*
X022371Y015993D02*
X022259Y015881D01*
X021925Y016215D01*
X022037Y016327D01*
X022371Y015993D01*
G37*
G36*
X022231Y015854D02*
X022119Y015742D01*
X021785Y016076D01*
X021897Y016188D01*
X022231Y015854D01*
G37*
G36*
X022092Y015715D02*
X021980Y015603D01*
X021646Y015937D01*
X021758Y016049D01*
X022092Y015715D01*
G37*
G36*
X021953Y015576D02*
X021841Y015464D01*
X021507Y015798D01*
X021619Y015910D01*
X021953Y015576D01*
G37*
D22*
G36*
X020979Y015798D02*
X020645Y015464D01*
X020533Y015576D01*
X020867Y015910D01*
X020979Y015798D01*
G37*
G36*
X020839Y015937D02*
X020505Y015603D01*
X020393Y015715D01*
X020727Y016049D01*
X020839Y015937D01*
G37*
G36*
X020700Y016076D02*
X020366Y015742D01*
X020254Y015854D01*
X020588Y016188D01*
X020700Y016076D01*
G37*
G36*
X020561Y016215D02*
X020227Y015881D01*
X020115Y015993D01*
X020449Y016327D01*
X020561Y016215D01*
G37*
G36*
X020422Y016354D02*
X020088Y016020D01*
X019976Y016132D01*
X020310Y016466D01*
X020422Y016354D01*
G37*
G36*
X020283Y016494D02*
X019949Y016160D01*
X019837Y016272D01*
X020171Y016606D01*
X020283Y016494D01*
G37*
G36*
X020143Y016633D02*
X019809Y016299D01*
X019697Y016411D01*
X020031Y016745D01*
X020143Y016633D01*
G37*
G36*
X020004Y016772D02*
X019670Y016438D01*
X019558Y016550D01*
X019892Y016884D01*
X020004Y016772D01*
G37*
G36*
X019865Y016911D02*
X019531Y016577D01*
X019419Y016689D01*
X019753Y017023D01*
X019865Y016911D01*
G37*
G36*
X019726Y017050D02*
X019392Y016716D01*
X019280Y016828D01*
X019614Y017162D01*
X019726Y017050D01*
G37*
G36*
X019587Y017190D02*
X019253Y016856D01*
X019141Y016968D01*
X019475Y017302D01*
X019587Y017190D01*
G37*
G36*
X019447Y017329D02*
X019113Y016995D01*
X019001Y017107D01*
X019335Y017441D01*
X019447Y017329D01*
G37*
G36*
X022092Y019695D02*
X021758Y019361D01*
X021646Y019473D01*
X021980Y019807D01*
X022092Y019695D01*
G37*
G36*
X022231Y019556D02*
X021897Y019222D01*
X021785Y019334D01*
X022119Y019668D01*
X022231Y019556D01*
G37*
G36*
X022371Y019417D02*
X022037Y019083D01*
X021925Y019195D01*
X022259Y019529D01*
X022371Y019417D01*
G37*
G36*
X022510Y019278D02*
X022176Y018944D01*
X022064Y019056D01*
X022398Y019390D01*
X022510Y019278D01*
G37*
G36*
X022649Y019138D02*
X022315Y018804D01*
X022203Y018916D01*
X022537Y019250D01*
X022649Y019138D01*
G37*
G36*
X022788Y018999D02*
X022454Y018665D01*
X022342Y018777D01*
X022676Y019111D01*
X022788Y018999D01*
G37*
G36*
X022927Y018860D02*
X022593Y018526D01*
X022481Y018638D01*
X022815Y018972D01*
X022927Y018860D01*
G37*
G36*
X023067Y018721D02*
X022733Y018387D01*
X022621Y018499D01*
X022955Y018833D01*
X023067Y018721D01*
G37*
G36*
X023206Y018582D02*
X022872Y018248D01*
X022760Y018360D01*
X023094Y018694D01*
X023206Y018582D01*
G37*
G36*
X023345Y018442D02*
X023011Y018108D01*
X022899Y018220D01*
X023233Y018554D01*
X023345Y018442D01*
G37*
G36*
X023484Y018303D02*
X023150Y017969D01*
X023038Y018081D01*
X023372Y018415D01*
X023484Y018303D01*
G37*
G36*
X021953Y019834D02*
X021619Y019500D01*
X021507Y019612D01*
X021841Y019946D01*
X021953Y019834D01*
G37*
D23*
X021577Y020155D03*
X020908Y020155D03*
X019077Y017705D03*
X018408Y017705D03*
X015427Y025905D03*
X014758Y025905D03*
X007077Y025105D03*
X006408Y025105D03*
X003927Y009305D03*
X003258Y009305D03*
X006408Y002205D03*
X007077Y002205D03*
X032758Y015305D03*
X033427Y015305D03*
X034243Y025870D03*
X034243Y026540D03*
X035243Y026540D03*
X035243Y025870D03*
X037243Y025870D03*
X037243Y026540D03*
X038243Y026540D03*
X038243Y025870D03*
D24*
X007546Y008548D03*
X002940Y008548D03*
X002940Y002839D03*
X007546Y002839D03*
D25*
X007546Y003567D03*
X007546Y004040D03*
X007546Y004512D03*
X007546Y004985D03*
X007546Y005457D03*
X007546Y005929D03*
X007546Y006402D03*
X007546Y006874D03*
X007546Y007347D03*
X007546Y007819D03*
X002940Y007819D03*
X002940Y007347D03*
X002940Y006874D03*
X002940Y006402D03*
X002940Y005929D03*
X002940Y005457D03*
X002940Y004985D03*
X002940Y004512D03*
X002940Y004040D03*
X002940Y003567D03*
D26*
X003589Y002839D03*
X004062Y002839D03*
X004534Y002839D03*
X005007Y002839D03*
X005479Y002839D03*
X005951Y002839D03*
X006424Y002839D03*
X006896Y002839D03*
X006896Y008548D03*
X006424Y008548D03*
X005951Y008548D03*
X005479Y008548D03*
X005007Y008548D03*
X004534Y008548D03*
X004062Y008548D03*
X003589Y008548D03*
D27*
X004396Y007111D03*
X006089Y007111D03*
X006089Y005693D03*
X006089Y004276D03*
X004396Y004276D03*
X004396Y005693D03*
D28*
X002943Y001305D03*
X005543Y001305D03*
D29*
X006428Y022878D03*
X007058Y022878D03*
X007058Y024532D03*
X006428Y024532D03*
X004058Y024532D03*
X003428Y024532D03*
X003428Y022878D03*
X004058Y022878D03*
D30*
X012703Y023755D03*
X012703Y024255D03*
X012703Y024755D03*
X012703Y025255D03*
X015583Y025255D03*
X015583Y024755D03*
X015583Y024255D03*
X015583Y023755D03*
D31*
X037753Y013665D02*
X037983Y013615D01*
X038023Y013665D01*
X037983Y013715D01*
X037753Y013665D01*
X037772Y013661D02*
X038020Y013661D01*
X038019Y013669D02*
X037773Y013669D01*
X037812Y013678D02*
X038012Y013678D01*
X038006Y013686D02*
X037851Y013686D01*
X037890Y013695D02*
X037999Y013695D01*
X037992Y013703D02*
X037929Y013703D01*
X037969Y013712D02*
X037985Y013712D01*
X038032Y013746D02*
X038357Y013746D01*
X038362Y013754D02*
X038026Y013754D01*
X038021Y013763D02*
X038368Y013763D01*
X038374Y013771D02*
X038015Y013771D01*
X038010Y013780D02*
X038185Y013780D01*
X038193Y013775D02*
X037893Y013965D01*
X038083Y013665D01*
X037883Y013345D01*
X038193Y013545D01*
X038503Y013355D01*
X038303Y013665D01*
X038503Y013965D01*
X038193Y013775D01*
X038201Y013780D02*
X038379Y013780D01*
X038385Y013788D02*
X038215Y013788D01*
X038229Y013797D02*
X038391Y013797D01*
X038396Y013805D02*
X038242Y013805D01*
X038256Y013814D02*
X038402Y013814D01*
X038408Y013822D02*
X038270Y013822D01*
X038284Y013831D02*
X038413Y013831D01*
X038419Y013839D02*
X038298Y013839D01*
X038312Y013848D02*
X038425Y013848D01*
X038430Y013856D02*
X038326Y013856D01*
X038339Y013865D02*
X038436Y013865D01*
X038442Y013873D02*
X038353Y013873D01*
X038367Y013882D02*
X038447Y013882D01*
X038453Y013890D02*
X038381Y013890D01*
X038395Y013899D02*
X038459Y013899D01*
X038464Y013907D02*
X038409Y013907D01*
X038423Y013916D02*
X038470Y013916D01*
X038476Y013924D02*
X038437Y013924D01*
X038450Y013933D02*
X038481Y013933D01*
X038487Y013941D02*
X038464Y013941D01*
X038478Y013950D02*
X038493Y013950D01*
X038492Y013958D02*
X038498Y013958D01*
X038456Y013703D02*
X038396Y013703D01*
X038391Y013695D02*
X038495Y013695D01*
X038534Y013686D02*
X038386Y013686D01*
X038381Y013678D02*
X038574Y013678D01*
X038575Y013652D02*
X038380Y013652D01*
X038385Y013644D02*
X038536Y013644D01*
X038497Y013635D02*
X038391Y013635D01*
X038396Y013627D02*
X038457Y013627D01*
X038418Y013618D02*
X038401Y013618D01*
X038403Y013615D02*
X038633Y013665D01*
X038403Y013715D01*
X038373Y013665D01*
X038403Y013615D01*
X038375Y013661D02*
X038614Y013661D01*
X038613Y013669D02*
X038375Y013669D01*
X038401Y013712D02*
X038417Y013712D01*
X038351Y013737D02*
X038037Y013737D01*
X038042Y013729D02*
X038345Y013729D01*
X038340Y013720D02*
X038048Y013720D01*
X038053Y013712D02*
X038334Y013712D01*
X038328Y013703D02*
X038058Y013703D01*
X038064Y013695D02*
X038323Y013695D01*
X038317Y013686D02*
X038069Y013686D01*
X038075Y013678D02*
X038311Y013678D01*
X038306Y013669D02*
X038080Y013669D01*
X038080Y013661D02*
X038305Y013661D01*
X038311Y013652D02*
X038075Y013652D01*
X038070Y013644D02*
X038316Y013644D01*
X038322Y013635D02*
X038064Y013635D01*
X038059Y013627D02*
X038327Y013627D01*
X038333Y013618D02*
X038054Y013618D01*
X038048Y013610D02*
X038338Y013610D01*
X038344Y013601D02*
X038043Y013601D01*
X038038Y013593D02*
X038349Y013593D01*
X038355Y013584D02*
X038032Y013584D01*
X038027Y013576D02*
X038360Y013576D01*
X038366Y013567D02*
X038022Y013567D01*
X038016Y013559D02*
X038371Y013559D01*
X038377Y013550D02*
X038011Y013550D01*
X038006Y013542D02*
X038188Y013542D01*
X038198Y013542D02*
X038382Y013542D01*
X038388Y013533D02*
X038212Y013533D01*
X038226Y013525D02*
X038393Y013525D01*
X038399Y013516D02*
X038239Y013516D01*
X038253Y013508D02*
X038404Y013508D01*
X038410Y013499D02*
X038267Y013499D01*
X038281Y013491D02*
X038415Y013491D01*
X038421Y013482D02*
X038295Y013482D01*
X038309Y013474D02*
X038426Y013474D01*
X038432Y013465D02*
X038323Y013465D01*
X038337Y013457D02*
X038437Y013457D01*
X038443Y013448D02*
X038350Y013448D01*
X038364Y013440D02*
X038448Y013440D01*
X038454Y013431D02*
X038378Y013431D01*
X038392Y013423D02*
X038459Y013423D01*
X038464Y013414D02*
X038406Y013414D01*
X038420Y013406D02*
X038470Y013406D01*
X038475Y013397D02*
X038434Y013397D01*
X038448Y013389D02*
X038481Y013389D01*
X038486Y013380D02*
X038461Y013380D01*
X038475Y013372D02*
X038492Y013372D01*
X038489Y013363D02*
X038497Y013363D01*
X038234Y013414D02*
X038151Y013414D01*
X038153Y013406D02*
X038233Y013406D01*
X038231Y013397D02*
X038155Y013397D01*
X038157Y013389D02*
X038229Y013389D01*
X038227Y013380D02*
X038158Y013380D01*
X038160Y013372D02*
X038225Y013372D01*
X038224Y013363D02*
X038162Y013363D01*
X038164Y013355D02*
X038222Y013355D01*
X038220Y013346D02*
X038165Y013346D01*
X038167Y013338D02*
X038218Y013338D01*
X038217Y013329D02*
X038169Y013329D01*
X038171Y013321D02*
X038215Y013321D01*
X038213Y013312D02*
X038173Y013312D01*
X038174Y013304D02*
X038211Y013304D01*
X038210Y013295D02*
X038176Y013295D01*
X038178Y013287D02*
X038208Y013287D01*
X038206Y013278D02*
X038180Y013278D01*
X038181Y013270D02*
X038204Y013270D01*
X038202Y013261D02*
X038183Y013261D01*
X038185Y013253D02*
X038201Y013253D01*
X038199Y013244D02*
X038187Y013244D01*
X038188Y013236D02*
X038197Y013236D01*
X038195Y013227D02*
X038190Y013227D01*
X038192Y013219D02*
X038194Y013219D01*
X038193Y013215D02*
X038243Y013455D01*
X038193Y013485D01*
X038143Y013455D01*
X038193Y013215D01*
X038149Y013423D02*
X038236Y013423D01*
X038238Y013431D02*
X038148Y013431D01*
X038146Y013440D02*
X038240Y013440D01*
X038241Y013448D02*
X038144Y013448D01*
X038146Y013457D02*
X038240Y013457D01*
X038225Y013465D02*
X038160Y013465D01*
X038174Y013474D02*
X038211Y013474D01*
X038197Y013482D02*
X038188Y013482D01*
X038162Y013525D02*
X037995Y013525D01*
X037990Y013516D02*
X038148Y013516D01*
X038135Y013508D02*
X037985Y013508D01*
X037979Y013499D02*
X038122Y013499D01*
X038109Y013491D02*
X037974Y013491D01*
X037969Y013482D02*
X038096Y013482D01*
X038083Y013474D02*
X037963Y013474D01*
X037958Y013465D02*
X038069Y013465D01*
X038056Y013457D02*
X037953Y013457D01*
X037947Y013448D02*
X038043Y013448D01*
X038030Y013440D02*
X037942Y013440D01*
X037937Y013431D02*
X038017Y013431D01*
X038004Y013423D02*
X037931Y013423D01*
X037926Y013414D02*
X037990Y013414D01*
X037977Y013406D02*
X037921Y013406D01*
X037916Y013397D02*
X037964Y013397D01*
X037951Y013389D02*
X037910Y013389D01*
X037905Y013380D02*
X037938Y013380D01*
X037924Y013372D02*
X037900Y013372D01*
X037894Y013363D02*
X037911Y013363D01*
X037898Y013355D02*
X037889Y013355D01*
X037885Y013346D02*
X037884Y013346D01*
X038001Y013533D02*
X038175Y013533D01*
X038013Y013652D02*
X037811Y013652D01*
X037850Y013644D02*
X038006Y013644D01*
X037999Y013635D02*
X037889Y013635D01*
X037928Y013627D02*
X037992Y013627D01*
X037986Y013618D02*
X037967Y013618D01*
X038005Y013788D02*
X038172Y013788D01*
X038158Y013797D02*
X037999Y013797D01*
X037994Y013805D02*
X038145Y013805D01*
X038131Y013814D02*
X037989Y013814D01*
X037983Y013822D02*
X038118Y013822D01*
X038105Y013831D02*
X037978Y013831D01*
X037972Y013839D02*
X038091Y013839D01*
X038078Y013848D02*
X037967Y013848D01*
X037962Y013856D02*
X038064Y013856D01*
X038051Y013865D02*
X037956Y013865D01*
X037951Y013873D02*
X038037Y013873D01*
X038024Y013882D02*
X037945Y013882D01*
X037940Y013890D02*
X038011Y013890D01*
X037997Y013899D02*
X037935Y013899D01*
X037929Y013907D02*
X037984Y013907D01*
X037970Y013916D02*
X037924Y013916D01*
X037919Y013924D02*
X037957Y013924D01*
X037943Y013933D02*
X037913Y013933D01*
X037908Y013941D02*
X037930Y013941D01*
X037917Y013950D02*
X037902Y013950D01*
X037903Y013958D02*
X037897Y013958D01*
X038152Y013907D02*
X038234Y013907D01*
X038236Y013899D02*
X038150Y013899D01*
X038148Y013890D02*
X038238Y013890D01*
X038239Y013882D02*
X038146Y013882D01*
X038145Y013873D02*
X038241Y013873D01*
X038243Y013865D02*
X038193Y014105D01*
X038143Y013865D01*
X038243Y013865D01*
X038193Y013835D01*
X038143Y013865D01*
X038157Y013856D02*
X038228Y013856D01*
X038214Y013848D02*
X038171Y013848D01*
X038185Y013839D02*
X038200Y013839D01*
X038232Y013916D02*
X038153Y013916D01*
X038155Y013924D02*
X038230Y013924D01*
X038229Y013933D02*
X038157Y013933D01*
X038159Y013941D02*
X038227Y013941D01*
X038225Y013950D02*
X038160Y013950D01*
X038162Y013958D02*
X038223Y013958D01*
X038222Y013967D02*
X038164Y013967D01*
X038166Y013975D02*
X038220Y013975D01*
X038218Y013984D02*
X038168Y013984D01*
X038169Y013992D02*
X038216Y013992D01*
X038214Y014001D02*
X038171Y014001D01*
X038173Y014009D02*
X038213Y014009D01*
X038211Y014018D02*
X038175Y014018D01*
X038176Y014026D02*
X038209Y014026D01*
X038207Y014035D02*
X038178Y014035D01*
X038180Y014043D02*
X038206Y014043D01*
X038204Y014052D02*
X038182Y014052D01*
X038184Y014060D02*
X038202Y014060D01*
X038200Y014069D02*
X038185Y014069D01*
X038187Y014077D02*
X038199Y014077D01*
X038197Y014086D02*
X038189Y014086D01*
X038191Y014094D02*
X038195Y014094D01*
X038192Y014103D02*
X038193Y014103D01*
D32*
X007008Y014211D03*
X007008Y013955D03*
X007008Y013699D03*
X006374Y013699D03*
X006374Y013955D03*
X006374Y014211D03*
D33*
X010243Y008505D02*
X010243Y007905D01*
X011243Y007905D02*
X011243Y008505D01*
X012243Y008505D02*
X012243Y007905D01*
X013243Y007905D02*
X013243Y008505D01*
X022743Y024905D02*
X022743Y025505D01*
X023743Y025505D02*
X023743Y024905D01*
X024743Y024905D02*
X024743Y025505D01*
X025743Y025505D02*
X025743Y024905D01*
X024743Y027405D02*
X024743Y028005D01*
X023743Y028005D02*
X023743Y027405D01*
X022743Y027405D02*
X022743Y028005D01*
X022743Y029905D02*
X022743Y030505D01*
X023743Y030505D02*
X023743Y029905D01*
X024743Y029905D02*
X024743Y030505D01*
D34*
X029243Y029705D03*
X030243Y029705D03*
X031243Y029705D03*
X032243Y029705D03*
X033243Y029705D03*
X034243Y029705D03*
X035243Y029705D03*
X036243Y029705D03*
X037243Y029705D03*
X038243Y029705D03*
X038243Y028705D03*
X037243Y028705D03*
X036243Y028705D03*
X035243Y028705D03*
X034243Y028705D03*
X033243Y028705D03*
X032243Y028705D03*
X031243Y028705D03*
X030243Y028705D03*
X029243Y028705D03*
D35*
X024743Y001705D03*
X023243Y001705D03*
X021743Y001705D03*
X020243Y001705D03*
X018743Y001705D03*
X017243Y001705D03*
X015743Y001705D03*
X014243Y001705D03*
X012743Y001705D03*
X011243Y001705D03*
X009743Y001705D03*
M02*
