%
M48
M72
T01C0.0118
T02C0.0200
T03C0.0360
T04C0.0400
T05C0.0670
%
T01
X2343Y3005
X4743Y3405
X6143Y3405
X7043Y3405
X8143Y2905
X8223Y5405
X9263Y6285
X8063Y7325
X7743Y9105
X4623Y9005
X3943Y9905
X2643Y9105
X5543Y6405
X4843Y5005
X7543Y12905
X3843Y15605
X2943Y14505
X11023Y20605
X10223Y21405
X17743Y17705
X21663Y15325
X21243Y14305
X23243Y15905
X24143Y14005
X21843Y11605
X24743Y9705
X23983Y18285
X20943Y20705
T02
X20543Y21305
X20043Y21805
X19643Y21405
X20143Y20905
X19643Y20405
X19143Y20905
X18443Y21305
X17943Y21805
X18743Y22605
X19243Y22105
X20543Y22605
X21243Y21905
X22343Y23005
X21643Y23705
X22143Y23905
X22543Y24305
X23043Y23805
X23343Y22705
X23343Y22205
X22743Y20905
X22243Y20405
X23543Y20305
X24443Y19805
X24843Y20105
X26043Y20905
X26343Y21305
X26743Y21705
X25743Y22705
X25243Y23005
X26343Y24105
X26843Y24105
X26943Y23605
X26843Y24705
X26343Y24705
X27743Y22805
X26843Y20105
X26043Y18805
X26043Y18305
X27043Y18505
X28043Y18105
X28943Y15505
X29443Y15505
X29943Y15505
X30443Y15505
X30943Y15505
X31743Y15705
X32243Y15205
X32743Y15905
X32043Y16605
X30243Y14705
X30943Y14505
X31343Y14205
X31543Y13705
X29543Y14905
X27743Y15205
X26043Y13105
X25543Y13105
X25543Y12605
X25943Y12105
X26343Y11805
X26743Y11405
X27243Y11905
X26843Y12305
X26543Y12705
X27743Y12705
X26343Y10905
X24343Y11705
X23843Y12205
X23643Y12905
X23343Y13805
X22243Y14305
X21843Y14605
X21743Y13905
X21543Y13205
X20143Y13905
X19943Y13405
X18943Y13805
X19343Y14705
X19343Y15405
X18843Y15705
X18443Y16105
X18643Y16605
X19143Y16505
X20443Y17005
X21143Y17005
X21543Y17805
X22243Y17405
X22743Y17405
X24143Y15805
X23543Y15205
X23043Y15205
X22243Y15505
X24743Y17005
X21043Y18705
X20343Y17905
X19643Y17905
X18343Y18505
X17643Y18505
X17243Y17805
X16743Y17305
X16343Y16905
X16343Y16405
X17943Y15605
X18343Y15205
X15943Y18105
X15143Y18405
X14343Y20005
X15443Y21105
X15843Y20705
X16343Y20505
X16843Y20505
X17343Y19505
X12843Y18505
X12343Y18005
X11643Y18205
X10643Y19705
X11143Y20205
X11643Y21205
X12743Y21305
X12643Y21905
X13643Y22905
X13043Y23305
X13543Y24305
X14043Y24805
X14343Y25205
X15943Y25905
X12143Y25305
X12043Y24805
X10943Y23705
X10443Y24105
X8343Y25805
X7743Y26405
X8043Y26805
X7443Y27405
X6643Y28305
X7143Y28805
X3843Y27505
X3343Y25405
X6343Y23805
X3143Y17905
X2943Y17405
X3743Y15205
X2943Y15005
X5043Y14705
X5843Y13605
X6843Y14605
X8843Y15705
X9643Y16505
X10843Y16505
X10043Y15705
X8943Y13305
X9443Y12805
X5343Y10505
X4743Y10205
X4343Y9905
X4343Y10505
X5143Y9105
X5243Y7205
X3643Y7105
X5143Y5705
X6943Y6005
X8143Y6305
X9143Y5805
X8643Y5305
X9943Y4205
X8843Y3605
X9543Y3405
X10743Y3405
X12743Y4205
X13243Y4205
X13743Y4205
X13543Y3605
X14043Y3605
X13043Y3605
X11143Y5805
X10143Y6705
X8943Y7805
X8943Y8405
X9743Y8905
X12143Y6805
X8043Y3905
X6943Y3905
X19143Y2805
X19343Y3505
X20243Y2605
X27343Y3905
X28643Y5105
X30043Y5105
X29143Y1005
X28643Y505
X20543Y9805
X20343Y10305
X20343Y10805
X19343Y11305
X19343Y11805
X24943Y13705
X37043Y15305
X37243Y25005
X34243Y25005
X31643Y26805
X31143Y26805
X30543Y27505
X29943Y27205
X31043Y26105
X32243Y27405
X6043Y16505
T03
X10243Y8205
X11243Y8205
X12243Y8205
X13243Y8205
X22743Y25205
X23743Y25205
X24743Y25205
X25743Y25205
X24743Y27705
X23743Y27705
X22743Y27705
X22743Y30205
X23743Y30205
X24743Y30205
X29243Y29705
X30243Y29705
X31243Y29705
X32243Y29705
X33243Y29705
X34243Y29705
X35243Y29705
X36243Y29705
X37243Y29705
X38243Y29705
X38243Y28705
X37243Y28705
X36243Y28705
X35243Y28705
X34243Y28705
X33243Y28705
X32243Y28705
X31243Y28705
X30243Y28705
X29243Y28705
T04
X29243Y12705
X29243Y11705
X29243Y10705
X29243Y9705
X29243Y8705
X29243Y7705
X29243Y6705
X29243Y5705
X29243Y4705
X29243Y3705
X29243Y2705
X29243Y1705
X31243Y1705
X31243Y2705
X31243Y3705
X31243Y4705
X31243Y5705
X31243Y6705
X31243Y7705
X31243Y8705
X31243Y9705
X31243Y10705
X31243Y11705
X31243Y12705
X38243Y12705
X38243Y11705
X38243Y10705
X38243Y9705
X38243Y8705
X38243Y7705
X38243Y6705
X38243Y5705
X38243Y4705
X38243Y3705
X38243Y2705
X38243Y1705
X40243Y1705
X40243Y2705
X40243Y3705
X40243Y4705
X40243Y5705
X40243Y6705
X40243Y7705
X40243Y8705
X40243Y9705
X40243Y10705
X40243Y11705
X40243Y12705
T05
X24743Y1705
X23243Y1705
X21743Y1705
X20243Y1705
X18743Y1705
X17243Y1705
X15743Y1705
X14243Y1705
X12743Y1705
X11243Y1705
X9743Y1705
M30
