G75*
G70*
%OFA0B0*%
%FSLAX24Y24*%
%IPPOS*%
%LPD*%
%AMOC8*
5,1,8,0,0,1.08239X$1,22.5*
%
%ADD10C,0.0050*%
%ADD11C,0.0040*%
%ADD12C,0.0060*%
%ADD13C,0.0080*%
%ADD14C,0.0100*%
%ADD15C,0.0020*%
%ADD16C,0.0030*%
%ADD17C,0.0020*%
D10*
X010268Y007180D02*
X010495Y007180D01*
X010381Y007180D02*
X010381Y007520D01*
X010268Y007407D01*
X011268Y007464D02*
X011325Y007520D01*
X011438Y007520D01*
X011495Y007464D01*
X011495Y007407D01*
X011268Y007180D01*
X011495Y007180D01*
X012268Y007237D02*
X012325Y007180D01*
X012438Y007180D01*
X012495Y007237D01*
X012495Y007293D01*
X012438Y007350D01*
X012381Y007350D01*
X012438Y007350D02*
X012495Y007407D01*
X012495Y007464D01*
X012438Y007520D01*
X012325Y007520D01*
X012268Y007464D01*
X013268Y007350D02*
X013495Y007350D01*
X013438Y007180D02*
X013438Y007520D01*
X013268Y007350D01*
X007008Y013364D02*
X006968Y013364D01*
X006968Y013325D01*
X010093Y017805D02*
X010093Y018605D01*
X010093Y020805D02*
X010093Y021605D01*
X007333Y023114D02*
X007333Y024296D01*
X006152Y024296D02*
X006152Y023114D01*
X004333Y023114D02*
X004333Y024296D01*
X004137Y024830D02*
X004137Y025100D01*
X003957Y025100D02*
X004137Y024830D01*
X003957Y024830D02*
X003957Y025100D01*
X003843Y025100D02*
X003662Y025100D01*
X003753Y025100D02*
X003753Y024830D01*
X003548Y024875D02*
X003503Y024830D01*
X003368Y024830D01*
X003368Y025100D01*
X003503Y025100D01*
X003548Y025055D01*
X003548Y025010D01*
X003503Y024965D01*
X003368Y024965D01*
X003503Y024965D02*
X003548Y024920D01*
X003548Y024875D01*
X003152Y024296D02*
X003152Y023114D01*
X006468Y025780D02*
X006468Y026050D01*
X006603Y026050D01*
X006648Y026005D01*
X006648Y025915D01*
X006603Y025870D01*
X006468Y025870D01*
X006558Y025870D02*
X006648Y025780D01*
X006762Y025825D02*
X006807Y025780D01*
X006898Y025780D01*
X006943Y025825D01*
X006943Y025870D01*
X006898Y025915D01*
X006807Y025915D01*
X006762Y025960D01*
X006762Y026005D01*
X006807Y026050D01*
X006898Y026050D01*
X006943Y026005D01*
X007057Y026050D02*
X007237Y026050D01*
X007147Y026050D02*
X007147Y025780D01*
X022768Y026680D02*
X022995Y026680D01*
X022881Y026680D02*
X022881Y027020D01*
X022768Y026907D01*
X023768Y026964D02*
X023825Y027020D01*
X023938Y027020D01*
X023995Y026964D01*
X023995Y026907D01*
X023768Y026680D01*
X023995Y026680D01*
X024768Y026737D02*
X024825Y026680D01*
X024938Y026680D01*
X024995Y026737D01*
X024995Y026793D01*
X024938Y026850D01*
X024881Y026850D01*
X024938Y026850D02*
X024995Y026907D01*
X024995Y026964D01*
X024938Y027020D01*
X024825Y027020D01*
X024768Y026964D01*
X024825Y029180D02*
X024768Y029237D01*
X024825Y029180D02*
X024938Y029180D01*
X024995Y029237D01*
X024995Y029293D01*
X024938Y029350D01*
X024881Y029350D01*
X024938Y029350D02*
X024995Y029407D01*
X024995Y029464D01*
X024938Y029520D01*
X024825Y029520D01*
X024768Y029464D01*
X023995Y029464D02*
X023938Y029520D01*
X023825Y029520D01*
X023768Y029464D01*
X023995Y029464D02*
X023995Y029407D01*
X023768Y029180D01*
X023995Y029180D01*
X022995Y029180D02*
X022768Y029180D01*
X022881Y029180D02*
X022881Y029520D01*
X022768Y029407D01*
X028268Y029480D02*
X028568Y029780D01*
X028568Y029855D01*
X028493Y029930D01*
X028343Y029930D01*
X028268Y029855D01*
X028268Y029480D02*
X028568Y029480D01*
X028418Y028930D02*
X028268Y028780D01*
X028418Y028930D02*
X028418Y028480D01*
X028268Y028480D02*
X028568Y028480D01*
X033368Y028005D02*
X033443Y028080D01*
X033593Y028080D01*
X033668Y028005D01*
X033668Y027930D01*
X033368Y027630D01*
X033668Y027630D01*
X033828Y027705D02*
X034128Y028005D01*
X034128Y027705D01*
X034053Y027630D01*
X033903Y027630D01*
X033828Y027705D01*
X033828Y028005D01*
X033903Y028080D01*
X034053Y028080D01*
X034128Y028005D01*
X025938Y024520D02*
X025938Y024180D01*
X025995Y024350D02*
X025768Y024350D01*
X025938Y024520D01*
X024995Y024464D02*
X024995Y024407D01*
X024938Y024350D01*
X024995Y024293D01*
X024995Y024237D01*
X024938Y024180D01*
X024825Y024180D01*
X024768Y024237D01*
X024881Y024350D02*
X024938Y024350D01*
X024995Y024464D02*
X024938Y024520D01*
X024825Y024520D01*
X024768Y024464D01*
X023995Y024464D02*
X023938Y024520D01*
X023825Y024520D01*
X023768Y024464D01*
X023995Y024464D02*
X023995Y024407D01*
X023768Y024180D01*
X023995Y024180D01*
X022995Y024180D02*
X022768Y024180D01*
X022881Y024180D02*
X022881Y024520D01*
X022768Y024407D01*
X035393Y015705D02*
X035393Y014905D01*
X037468Y012990D02*
X037558Y012900D01*
X037738Y012900D01*
X037693Y012785D02*
X037513Y012785D01*
X037468Y012740D01*
X037468Y012650D01*
X037513Y012605D01*
X037513Y012491D02*
X037468Y012446D01*
X037468Y012356D01*
X037513Y012311D01*
X037513Y012491D02*
X037693Y012491D01*
X037738Y012446D01*
X037738Y012356D01*
X037693Y012311D01*
X037738Y012080D02*
X037468Y012080D01*
X037558Y012080D02*
X037558Y011945D01*
X037603Y011900D01*
X037693Y011900D01*
X037738Y011945D01*
X037738Y012080D01*
X037558Y011990D02*
X037468Y011900D01*
X037513Y011785D02*
X037468Y011740D01*
X037468Y011650D01*
X037513Y011605D01*
X037558Y011605D01*
X037603Y011650D01*
X037603Y011740D01*
X037648Y011785D01*
X037693Y011785D01*
X037738Y011740D01*
X037738Y011650D01*
X037693Y011605D01*
X037738Y011491D02*
X037738Y011311D01*
X037738Y011401D02*
X037468Y011401D01*
X037693Y012605D02*
X037738Y012650D01*
X037738Y012740D01*
X037693Y012785D01*
X037738Y013080D02*
X037558Y013080D01*
X037468Y012990D01*
X037513Y010080D02*
X037468Y010035D01*
X037468Y009945D01*
X037513Y009900D01*
X037603Y009900D01*
X037603Y009990D01*
X037693Y010080D02*
X037513Y010080D01*
X037693Y010080D02*
X037738Y010035D01*
X037738Y009945D01*
X037693Y009900D01*
X037738Y009785D02*
X037468Y009605D01*
X037738Y009605D01*
X037738Y009491D02*
X037738Y009356D01*
X037693Y009311D01*
X037513Y009311D01*
X037468Y009356D01*
X037468Y009491D01*
X037738Y009491D01*
X037738Y009785D02*
X037468Y009785D01*
X037468Y008980D02*
X037468Y008845D01*
X037513Y008800D01*
X037693Y008800D01*
X037738Y008845D01*
X037738Y008980D01*
X037468Y008980D01*
X037468Y008685D02*
X037513Y008685D01*
X037693Y008505D01*
X037738Y008505D01*
X037738Y008685D01*
X037738Y007980D02*
X037468Y007980D01*
X037468Y007845D01*
X037513Y007800D01*
X037693Y007800D01*
X037738Y007845D01*
X037738Y007980D01*
X037603Y007685D02*
X037513Y007685D01*
X037468Y007640D01*
X037468Y007550D01*
X037513Y007505D01*
X037558Y007505D01*
X037603Y007550D01*
X037603Y007685D01*
X037693Y007595D01*
X037738Y007505D01*
X037738Y006980D02*
X037468Y006980D01*
X037468Y006845D01*
X037513Y006800D01*
X037693Y006800D01*
X037738Y006845D01*
X037738Y006980D01*
X037738Y006685D02*
X037603Y006685D01*
X037648Y006595D01*
X037648Y006550D01*
X037603Y006505D01*
X037513Y006505D01*
X037468Y006550D01*
X037468Y006640D01*
X037513Y006685D01*
X037738Y006685D02*
X037738Y006505D01*
X037738Y005980D02*
X037468Y005980D01*
X037468Y005845D01*
X037513Y005800D01*
X037693Y005800D01*
X037738Y005845D01*
X037738Y005980D01*
X037603Y005685D02*
X037603Y005505D01*
X037738Y005550D02*
X037603Y005685D01*
X037468Y005550D02*
X037738Y005550D01*
X037738Y004980D02*
X037468Y004980D01*
X037468Y004845D01*
X037513Y004800D01*
X037693Y004800D01*
X037738Y004845D01*
X037738Y004980D01*
X037693Y004685D02*
X037738Y004640D01*
X037738Y004550D01*
X037693Y004505D01*
X037648Y004505D01*
X037603Y004550D01*
X037558Y004505D01*
X037513Y004505D01*
X037468Y004550D01*
X037468Y004640D01*
X037513Y004685D01*
X037603Y004595D02*
X037603Y004550D01*
X037738Y003980D02*
X037468Y003980D01*
X037468Y003845D01*
X037513Y003800D01*
X037693Y003800D01*
X037738Y003845D01*
X037738Y003980D01*
X037693Y003685D02*
X037738Y003640D01*
X037738Y003550D01*
X037693Y003505D01*
X037648Y003505D01*
X037468Y003685D01*
X037468Y003505D01*
X037468Y002880D02*
X037468Y002745D01*
X037513Y002700D01*
X037693Y002700D01*
X037738Y002745D01*
X037738Y002880D01*
X037468Y002880D01*
X037468Y002585D02*
X037468Y002405D01*
X037468Y002495D02*
X037738Y002495D01*
X037648Y002585D01*
X037738Y001980D02*
X037468Y001980D01*
X037468Y001845D01*
X037513Y001800D01*
X037693Y001800D01*
X037738Y001845D01*
X037738Y001980D01*
X037693Y001685D02*
X037513Y001685D01*
X037693Y001505D01*
X037513Y001505D01*
X037468Y001550D01*
X037468Y001640D01*
X037513Y001685D01*
X037693Y001685D02*
X037738Y001640D01*
X037738Y001550D01*
X037693Y001505D01*
X032018Y001530D02*
X031838Y001530D01*
X031748Y001620D01*
X031838Y001710D01*
X032018Y001710D01*
X031973Y001825D02*
X031793Y002005D01*
X031973Y002005D01*
X032018Y001960D01*
X032018Y001870D01*
X031973Y001825D01*
X031793Y001825D01*
X031748Y001870D01*
X031748Y001960D01*
X031793Y002005D01*
X031883Y001710D02*
X031883Y001530D01*
X031883Y002530D02*
X031883Y002710D01*
X031838Y002710D02*
X032018Y002710D01*
X032018Y002825D02*
X032018Y003005D01*
X032018Y002915D02*
X031748Y002915D01*
X031838Y002825D01*
X031838Y002710D02*
X031748Y002620D01*
X031838Y002530D01*
X032018Y002530D01*
X032018Y003530D02*
X031838Y003530D01*
X031748Y003620D01*
X031838Y003710D01*
X032018Y003710D01*
X032018Y003825D02*
X031838Y004005D01*
X031793Y004005D01*
X031748Y003960D01*
X031748Y003870D01*
X031793Y003825D01*
X031883Y003710D02*
X031883Y003530D01*
X032018Y003825D02*
X032018Y004005D01*
X032018Y004530D02*
X031838Y004530D01*
X031748Y004620D01*
X031838Y004710D01*
X032018Y004710D01*
X031973Y004825D02*
X032018Y004870D01*
X032018Y004960D01*
X031973Y005005D01*
X031928Y005005D01*
X031883Y004960D01*
X031883Y004915D01*
X031883Y004960D02*
X031838Y005005D01*
X031793Y005005D01*
X031748Y004960D01*
X031748Y004870D01*
X031793Y004825D01*
X031883Y004710D02*
X031883Y004530D01*
X031883Y005530D02*
X031883Y005710D01*
X031838Y005710D02*
X032018Y005710D01*
X031883Y005825D02*
X031883Y006005D01*
X032018Y005960D02*
X031748Y005960D01*
X031883Y005825D01*
X031838Y005710D02*
X031748Y005620D01*
X031838Y005530D01*
X032018Y005530D01*
X032018Y006530D02*
X031838Y006530D01*
X031748Y006620D01*
X031838Y006710D01*
X032018Y006710D01*
X031973Y006825D02*
X032018Y006870D01*
X032018Y006960D01*
X031973Y007005D01*
X031883Y007005D01*
X031838Y006960D01*
X031838Y006915D01*
X031883Y006825D01*
X031748Y006825D01*
X031748Y007005D01*
X031883Y006710D02*
X031883Y006530D01*
X031883Y007530D02*
X031883Y007710D01*
X031838Y007710D02*
X032018Y007710D01*
X031973Y007825D02*
X032018Y007870D01*
X032018Y007960D01*
X031973Y008005D01*
X031928Y008005D01*
X031883Y007960D01*
X031883Y007825D01*
X031973Y007825D01*
X031883Y007825D02*
X031793Y007915D01*
X031748Y008005D01*
X031838Y007710D02*
X031748Y007620D01*
X031838Y007530D01*
X032018Y007530D01*
X032018Y008530D02*
X031838Y008530D01*
X031748Y008620D01*
X031838Y008710D01*
X032018Y008710D01*
X032018Y008825D02*
X031973Y008825D01*
X031793Y009005D01*
X031748Y009005D01*
X031748Y008825D01*
X031883Y008710D02*
X031883Y008530D01*
X031928Y009530D02*
X031928Y009665D01*
X031883Y009710D01*
X031793Y009710D01*
X031748Y009665D01*
X031748Y009530D01*
X032018Y009530D01*
X031928Y009620D02*
X032018Y009710D01*
X032018Y009825D02*
X031748Y010005D01*
X031748Y009825D02*
X032018Y010005D01*
X031748Y010430D02*
X031748Y010610D01*
X031748Y010520D02*
X032018Y010520D01*
X032018Y010725D02*
X031748Y010905D01*
X031748Y010725D02*
X032018Y010905D01*
X031973Y011330D02*
X032018Y011375D01*
X032018Y011465D01*
X031973Y011510D01*
X031883Y011510D01*
X031883Y011420D01*
X031793Y011330D02*
X031973Y011330D01*
X031793Y011330D02*
X031748Y011375D01*
X031748Y011465D01*
X031793Y011510D01*
X031748Y011625D02*
X032018Y011805D01*
X031748Y011805D01*
X031748Y011919D02*
X031748Y012054D01*
X031793Y012099D01*
X031973Y012099D01*
X032018Y012054D01*
X032018Y011919D01*
X031748Y011919D01*
X031748Y011625D02*
X032018Y011625D01*
X032018Y012330D02*
X031748Y012330D01*
X031748Y012465D01*
X031793Y012510D01*
X031883Y012510D01*
X031928Y012465D01*
X031928Y012330D01*
X031928Y012420D02*
X032018Y012510D01*
X032018Y012625D02*
X031838Y012625D01*
X031748Y012715D01*
X031838Y012805D01*
X032018Y012805D01*
X032018Y012919D02*
X031928Y013009D01*
X032018Y013099D01*
X031748Y013099D01*
X031748Y012919D02*
X032018Y012919D01*
X031883Y012805D02*
X031883Y012625D01*
D11*
X037463Y011018D02*
X037530Y010952D01*
X037663Y010952D01*
X037663Y010864D02*
X037663Y010764D01*
X037630Y010731D01*
X037496Y010731D01*
X037463Y010764D01*
X037463Y010864D01*
X037663Y010864D01*
X037663Y010643D02*
X037663Y010543D01*
X037630Y010510D01*
X037496Y010510D01*
X037463Y010543D01*
X037463Y010643D01*
X037663Y010643D01*
X037596Y010422D02*
X037463Y010422D01*
X037563Y010422D02*
X037563Y010289D01*
X037596Y010289D02*
X037463Y010289D01*
X037596Y010289D02*
X037663Y010355D01*
X037596Y010422D01*
X037463Y011018D02*
X037530Y011085D01*
X037663Y011085D01*
X003573Y028125D02*
X003439Y028258D01*
X003406Y028258D01*
X003373Y028225D01*
X003373Y028158D01*
X003406Y028125D01*
X003573Y028125D02*
X003573Y028258D01*
X003573Y028625D02*
X003573Y028758D01*
X003573Y028692D02*
X003373Y028692D01*
X003439Y028625D01*
X003442Y029085D02*
X003442Y029285D01*
X003542Y029285D01*
X003575Y029252D01*
X003575Y029185D01*
X003542Y029152D01*
X003442Y029152D01*
X003509Y029152D02*
X003575Y029085D01*
X003354Y029085D02*
X003354Y029285D01*
X003221Y029285D02*
X003221Y029085D01*
X003288Y029152D01*
X003354Y029085D01*
X003133Y029185D02*
X003100Y029152D01*
X003000Y029152D01*
X003000Y029085D02*
X003000Y029285D01*
X003100Y029285D01*
X003133Y029252D01*
X003133Y029185D01*
D12*
X013083Y025565D02*
X013083Y025465D01*
X013083Y025565D02*
X014023Y025565D01*
X014263Y025565D01*
X015203Y025565D01*
X015203Y025465D01*
X015203Y025045D02*
X015203Y024965D01*
X015203Y024545D02*
X015203Y024465D01*
X015203Y024045D02*
X015203Y023965D01*
X015203Y023545D02*
X015203Y023445D01*
X013083Y023445D01*
X013083Y023545D01*
X013083Y023965D02*
X013083Y024045D01*
X013083Y024465D02*
X013083Y024545D01*
X013083Y024965D02*
X013083Y025045D01*
X014023Y025565D02*
X014025Y025544D01*
X014030Y025524D01*
X014039Y025505D01*
X014051Y025488D01*
X014066Y025473D01*
X014083Y025461D01*
X014102Y025452D01*
X014122Y025447D01*
X014143Y025445D01*
X014164Y025447D01*
X014184Y025452D01*
X014203Y025461D01*
X014220Y025473D01*
X014235Y025488D01*
X014247Y025505D01*
X014256Y025524D01*
X014261Y025544D01*
X014263Y025565D01*
X018273Y025519D02*
X018273Y025462D01*
X018330Y025405D01*
X018443Y025405D01*
X018500Y025348D01*
X018500Y025292D01*
X018443Y025235D01*
X018330Y025235D01*
X018273Y025292D01*
X018273Y025519D02*
X018330Y025575D01*
X018443Y025575D01*
X018500Y025519D01*
X018641Y025575D02*
X018868Y025575D01*
X018755Y025575D02*
X018755Y025235D01*
X019009Y025235D02*
X019009Y025575D01*
X019123Y025462D01*
X019236Y025575D01*
X019236Y025235D01*
X019378Y025292D02*
X019434Y025235D01*
X019548Y025235D01*
X019605Y025292D01*
X019605Y025348D01*
X019548Y025405D01*
X019491Y025405D01*
X019548Y025405D02*
X019605Y025462D01*
X019605Y025519D01*
X019548Y025575D01*
X019434Y025575D01*
X019378Y025519D01*
X019746Y025519D02*
X019803Y025575D01*
X019916Y025575D01*
X019973Y025519D01*
X019973Y025462D01*
X019746Y025235D01*
X019973Y025235D01*
X020483Y025292D02*
X020539Y025235D01*
X020653Y025235D01*
X020710Y025292D01*
X020710Y025575D01*
X020851Y025462D02*
X020964Y025575D01*
X021078Y025462D01*
X021078Y025235D01*
X021219Y025235D02*
X021219Y025575D01*
X021389Y025575D01*
X021446Y025519D01*
X021446Y025405D01*
X021389Y025348D01*
X021219Y025348D01*
X021333Y025348D02*
X021446Y025235D01*
X021701Y025235D02*
X021701Y025575D01*
X021588Y025575D02*
X021814Y025575D01*
X022243Y025605D02*
X022343Y025705D01*
X023143Y025705D01*
X023243Y025605D01*
X023343Y025705D01*
X024143Y025705D01*
X024243Y025605D01*
X024343Y025705D01*
X025143Y025705D01*
X025243Y025605D01*
X025343Y025705D01*
X026143Y025705D01*
X026243Y025605D01*
X026243Y024805D01*
X026143Y024705D01*
X025343Y024705D01*
X025243Y024805D01*
X025143Y024705D01*
X024343Y024705D01*
X024243Y024805D01*
X024143Y024705D01*
X023343Y024705D01*
X023243Y024805D01*
X023143Y024705D01*
X022343Y024705D01*
X022243Y024805D01*
X022243Y025605D01*
X021078Y025405D02*
X020851Y025405D01*
X020851Y025462D02*
X020851Y025235D01*
X020483Y025292D02*
X020483Y025575D01*
X022243Y027305D02*
X022343Y027205D01*
X023143Y027205D01*
X023243Y027305D01*
X023343Y027205D01*
X024143Y027205D01*
X024243Y027305D01*
X024343Y027205D01*
X025143Y027205D01*
X025243Y027305D01*
X025243Y028105D01*
X025143Y028205D01*
X024343Y028205D01*
X024243Y028105D01*
X024143Y028205D01*
X023343Y028205D01*
X023243Y028105D01*
X023143Y028205D01*
X022343Y028205D01*
X022243Y028105D01*
X022243Y027305D01*
X021973Y027735D02*
X021746Y027735D01*
X021859Y027735D02*
X021859Y028075D01*
X021746Y027962D01*
X021605Y028075D02*
X021378Y028075D01*
X021491Y028075D02*
X021491Y027735D01*
X021236Y027792D02*
X021236Y028019D01*
X021180Y028075D01*
X021066Y028075D01*
X021009Y028019D01*
X021009Y027792D01*
X021066Y027735D01*
X021180Y027735D01*
X021236Y027792D01*
X020868Y027792D02*
X020868Y028019D01*
X020811Y028075D01*
X020698Y028075D01*
X020641Y028019D01*
X020641Y027792D01*
X020698Y027735D01*
X020811Y027735D01*
X020868Y027792D01*
X020500Y027792D02*
X020443Y027735D01*
X020273Y027735D01*
X020273Y028075D01*
X020443Y028075D01*
X020500Y028019D01*
X020500Y027962D01*
X020443Y027905D01*
X020273Y027905D01*
X020443Y027905D02*
X020500Y027848D01*
X020500Y027792D01*
X022343Y029705D02*
X023143Y029705D01*
X023243Y029805D01*
X023343Y029705D01*
X024143Y029705D01*
X024243Y029805D01*
X024343Y029705D01*
X025143Y029705D01*
X025243Y029805D01*
X025243Y030605D01*
X025143Y030705D01*
X024343Y030705D01*
X024243Y030605D01*
X024143Y030705D01*
X023343Y030705D01*
X023243Y030605D01*
X023143Y030705D01*
X022343Y030705D01*
X022243Y030605D01*
X022243Y029805D01*
X022343Y029705D01*
X021916Y030235D02*
X021803Y030235D01*
X021746Y030292D01*
X021973Y030519D01*
X021973Y030292D01*
X021916Y030235D01*
X021746Y030292D02*
X021746Y030519D01*
X021803Y030575D01*
X021916Y030575D01*
X021973Y030519D01*
X021605Y030575D02*
X021378Y030575D01*
X021491Y030575D02*
X021491Y030235D01*
X021236Y030292D02*
X021236Y030519D01*
X021180Y030575D01*
X021066Y030575D01*
X021009Y030519D01*
X021009Y030292D01*
X021066Y030235D01*
X021180Y030235D01*
X021236Y030292D01*
X020868Y030292D02*
X020868Y030519D01*
X020811Y030575D01*
X020698Y030575D01*
X020641Y030519D01*
X020641Y030292D01*
X020698Y030235D01*
X020811Y030235D01*
X020868Y030292D01*
X020500Y030292D02*
X020500Y030348D01*
X020443Y030405D01*
X020273Y030405D01*
X020443Y030405D02*
X020500Y030462D01*
X020500Y030519D01*
X020443Y030575D01*
X020273Y030575D01*
X020273Y030235D01*
X020443Y030235D01*
X020500Y030292D01*
X027243Y030955D02*
X027243Y027455D01*
X028943Y027455D01*
X028943Y027505D01*
X029543Y027505D01*
X029543Y027455D01*
X030093Y027455D01*
X030243Y027655D01*
X030443Y027655D01*
X031043Y027655D01*
X031243Y027655D01*
X031393Y027455D01*
X032943Y027455D01*
X032943Y027855D01*
X032943Y027955D01*
X031043Y027955D01*
X030443Y027955D01*
X027743Y027955D01*
X027743Y030455D01*
X039743Y030455D01*
X039743Y027955D01*
X038043Y027955D01*
X037443Y027955D01*
X034543Y027955D01*
X034543Y027855D01*
X034543Y027455D01*
X032943Y027455D01*
X032943Y027955D02*
X032943Y028255D01*
X034543Y028255D01*
X034543Y027955D01*
X034543Y027455D02*
X037093Y027455D01*
X037243Y027655D01*
X037443Y027655D01*
X038043Y027655D01*
X038043Y027855D01*
X038043Y027955D01*
X038043Y027655D02*
X038243Y027655D01*
X038393Y027455D01*
X040243Y027455D01*
X040243Y030955D01*
X039743Y030955D01*
X039743Y031055D01*
X039243Y031055D01*
X039243Y030955D01*
X033993Y030955D01*
X033993Y031055D01*
X033493Y031055D01*
X033493Y030955D01*
X028243Y030955D01*
X028243Y031055D01*
X027743Y031055D01*
X027743Y030955D01*
X027243Y030955D01*
X030443Y027955D02*
X030443Y027855D01*
X030443Y027655D01*
X031043Y027655D02*
X031043Y027855D01*
X031043Y027955D01*
X037443Y027955D02*
X037443Y027855D01*
X037443Y027655D01*
X013733Y009325D02*
X013506Y009325D01*
X013619Y009325D02*
X013619Y008985D01*
X013364Y008985D02*
X013251Y009098D01*
X013308Y009098D02*
X013138Y009098D01*
X013138Y008985D02*
X013138Y009325D01*
X013308Y009325D01*
X013364Y009269D01*
X013364Y009155D01*
X013308Y009098D01*
X012996Y009155D02*
X012769Y009155D01*
X012769Y009212D02*
X012883Y009325D01*
X012996Y009212D01*
X012996Y008985D01*
X012769Y008985D02*
X012769Y009212D01*
X012628Y009325D02*
X012628Y009042D01*
X012571Y008985D01*
X012458Y008985D01*
X012401Y009042D01*
X012401Y009325D01*
X011891Y009269D02*
X011664Y009042D01*
X011721Y008985D01*
X011835Y008985D01*
X011891Y009042D01*
X011891Y009269D01*
X011835Y009325D01*
X011721Y009325D01*
X011664Y009269D01*
X011664Y009042D01*
X011523Y009042D02*
X011466Y008985D01*
X011353Y008985D01*
X011296Y009042D01*
X011523Y009269D01*
X011523Y009042D01*
X011523Y009269D02*
X011466Y009325D01*
X011353Y009325D01*
X011296Y009269D01*
X011296Y009042D01*
X011155Y009042D02*
X011098Y008985D01*
X010984Y008985D01*
X010928Y009042D01*
X011155Y009269D01*
X011155Y009042D01*
X011155Y009269D02*
X011098Y009325D01*
X010984Y009325D01*
X010928Y009269D01*
X010928Y009042D01*
X010786Y009042D02*
X010730Y008985D01*
X010616Y008985D01*
X010559Y009042D01*
X010418Y009042D02*
X010361Y008985D01*
X010248Y008985D01*
X010191Y009042D01*
X010191Y009269D01*
X010248Y009325D01*
X010361Y009325D01*
X010418Y009269D01*
X010559Y009269D02*
X010616Y009325D01*
X010730Y009325D01*
X010786Y009269D01*
X010786Y009212D01*
X010730Y009155D01*
X010786Y009098D01*
X010786Y009042D01*
X010730Y009155D02*
X010673Y009155D01*
X010643Y008705D02*
X009843Y008705D01*
X009743Y008605D01*
X009743Y007805D01*
X009843Y007705D01*
X010643Y007705D01*
X010743Y007805D01*
X010843Y007705D01*
X011643Y007705D01*
X011743Y007805D01*
X011843Y007705D01*
X012643Y007705D01*
X012743Y007805D01*
X012843Y007705D01*
X013643Y007705D01*
X013743Y007805D01*
X013743Y008605D01*
X013643Y008705D01*
X012843Y008705D01*
X012743Y008605D01*
X012643Y008705D01*
X011843Y008705D01*
X011743Y008605D01*
X011643Y008705D01*
X010843Y008705D01*
X010743Y008605D01*
X010643Y008705D01*
X010050Y009042D02*
X009993Y008985D01*
X009880Y008985D01*
X009823Y009042D01*
X009823Y009269D01*
X009880Y009325D01*
X009993Y009325D01*
X010050Y009269D01*
X009913Y005104D02*
X009913Y004990D01*
X009913Y005047D02*
X009573Y005047D01*
X009573Y004990D02*
X009573Y005104D01*
X009629Y004849D02*
X009573Y004792D01*
X009573Y004679D01*
X009629Y004622D01*
X009686Y004622D01*
X009743Y004679D01*
X009743Y004792D01*
X009799Y004849D01*
X009856Y004849D01*
X009913Y004792D01*
X009913Y004679D01*
X009856Y004622D01*
X009856Y004481D02*
X009629Y004481D01*
X009573Y004424D01*
X009573Y004311D01*
X009629Y004254D01*
X009856Y004254D01*
X009913Y004311D01*
X009913Y004424D01*
X009856Y004481D01*
X009913Y004112D02*
X009573Y004112D01*
X009686Y003999D01*
X009573Y003885D01*
X009913Y003885D01*
X009913Y003385D02*
X009913Y003272D01*
X009913Y003328D02*
X009573Y003328D01*
X009573Y003272D02*
X009573Y003385D01*
X009629Y003130D02*
X009573Y003073D01*
X009573Y002903D01*
X009913Y002903D01*
X009799Y002903D02*
X009799Y003073D01*
X009743Y003130D01*
X009629Y003130D01*
X009629Y002762D02*
X009573Y002705D01*
X009573Y002592D01*
X009629Y002535D01*
X009686Y002535D01*
X009743Y002592D01*
X009743Y002705D01*
X009799Y002762D01*
X009856Y002762D01*
X009913Y002705D01*
X009913Y002592D01*
X009856Y002535D01*
X011073Y002592D02*
X011129Y002535D01*
X011186Y002535D01*
X011243Y002592D01*
X011243Y002705D01*
X011299Y002762D01*
X011356Y002762D01*
X011413Y002705D01*
X011413Y002592D01*
X011356Y002535D01*
X011073Y002592D02*
X011073Y002705D01*
X011129Y002762D01*
X011073Y002903D02*
X011073Y003073D01*
X011129Y003130D01*
X011243Y003130D01*
X011299Y003073D01*
X011299Y002903D01*
X011413Y002903D02*
X011073Y002903D01*
X011073Y003272D02*
X011073Y003385D01*
X011073Y003328D02*
X011413Y003328D01*
X011413Y003272D02*
X011413Y003385D01*
X011413Y003885D02*
X011073Y003885D01*
X011186Y003999D01*
X011073Y004112D01*
X011413Y004112D01*
X011413Y004254D02*
X011413Y004367D01*
X011413Y004311D02*
X011073Y004311D01*
X011073Y004367D02*
X011073Y004254D01*
X011129Y004499D02*
X011186Y004499D01*
X011243Y004556D01*
X011243Y004669D01*
X011299Y004726D01*
X011356Y004726D01*
X011413Y004669D01*
X011413Y004556D01*
X011356Y004499D01*
X011129Y004499D02*
X011073Y004556D01*
X011073Y004669D01*
X011129Y004726D01*
X011129Y004868D02*
X011356Y004868D01*
X011413Y004924D01*
X011413Y005038D01*
X011356Y005095D01*
X011129Y005095D01*
X011073Y005038D01*
X011073Y004924D01*
X011129Y004868D01*
X012573Y004849D02*
X012799Y004622D01*
X012743Y004679D02*
X012913Y004849D01*
X012913Y004622D02*
X012573Y004622D01*
X012629Y004481D02*
X012573Y004424D01*
X012573Y004311D01*
X012629Y004254D01*
X012856Y004254D01*
X012913Y004311D01*
X012913Y004424D01*
X012856Y004481D01*
X012856Y004112D02*
X012913Y004056D01*
X012913Y003942D01*
X012856Y003885D01*
X012743Y003942D02*
X012743Y004056D01*
X012799Y004112D01*
X012856Y004112D01*
X012743Y003942D02*
X012686Y003885D01*
X012629Y003885D01*
X012573Y003942D01*
X012573Y004056D01*
X012629Y004112D01*
X012573Y003385D02*
X012573Y003272D01*
X012573Y003328D02*
X012913Y003328D01*
X012913Y003272D02*
X012913Y003385D01*
X012743Y003130D02*
X012799Y003073D01*
X012799Y002903D01*
X012913Y002903D02*
X012573Y002903D01*
X012573Y003073D01*
X012629Y003130D01*
X012743Y003130D01*
X012799Y002762D02*
X012856Y002762D01*
X012913Y002705D01*
X012913Y002592D01*
X012856Y002535D01*
X012743Y002592D02*
X012686Y002535D01*
X012629Y002535D01*
X012573Y002592D01*
X012573Y002705D01*
X012629Y002762D01*
X012743Y002705D02*
X012799Y002762D01*
X012743Y002705D02*
X012743Y002592D01*
X014073Y002535D02*
X014413Y002535D01*
X014299Y002648D01*
X014413Y002762D01*
X014073Y002762D01*
X014073Y002903D02*
X014073Y003017D01*
X014073Y002960D02*
X014413Y002960D01*
X014413Y002903D02*
X014413Y003017D01*
X014413Y003149D02*
X014073Y003149D01*
X014073Y003376D01*
X014073Y003517D02*
X014073Y003631D01*
X014073Y003574D02*
X014413Y003574D01*
X014413Y003517D02*
X014413Y003631D01*
X014243Y003262D02*
X014243Y003149D01*
X014129Y004131D02*
X014356Y004131D01*
X014413Y004188D01*
X014413Y004301D01*
X014356Y004358D01*
X014356Y004499D02*
X014413Y004556D01*
X014413Y004669D01*
X014356Y004726D01*
X014299Y004726D01*
X014243Y004669D01*
X014243Y004556D01*
X014186Y004499D01*
X014129Y004499D01*
X014073Y004556D01*
X014073Y004669D01*
X014129Y004726D01*
X014129Y004358D02*
X014073Y004301D01*
X014073Y004188D01*
X014129Y004131D01*
X015573Y004131D02*
X015573Y004244D01*
X015573Y004188D02*
X015913Y004188D01*
X015913Y004244D02*
X015913Y004131D01*
X015913Y004377D02*
X015573Y004377D01*
X015913Y004603D01*
X015573Y004603D01*
X015573Y004745D02*
X015573Y004972D01*
X015573Y004858D02*
X015913Y004858D01*
X017073Y004842D02*
X017073Y004729D01*
X017129Y004672D01*
X017186Y004672D01*
X017243Y004729D01*
X017243Y004842D01*
X017299Y004899D01*
X017356Y004899D01*
X017413Y004842D01*
X017413Y004729D01*
X017356Y004672D01*
X017413Y004540D02*
X017413Y004427D01*
X017413Y004483D02*
X017073Y004483D01*
X017073Y004427D02*
X017073Y004540D01*
X017129Y004285D02*
X017073Y004228D01*
X017073Y004058D01*
X017413Y004058D01*
X017413Y004228D01*
X017356Y004285D01*
X017129Y004285D01*
X017073Y004842D02*
X017129Y004899D01*
X017129Y005040D02*
X017356Y005040D01*
X017413Y005097D01*
X017413Y005211D01*
X017356Y005267D01*
X017129Y005267D02*
X017073Y005211D01*
X017073Y005097D01*
X017129Y005040D01*
X018573Y004597D02*
X018573Y004483D01*
X018629Y004427D01*
X018686Y004427D01*
X018743Y004483D01*
X018743Y004597D01*
X018799Y004653D01*
X018856Y004653D01*
X018913Y004597D01*
X018913Y004483D01*
X018856Y004427D01*
X018856Y004285D02*
X018913Y004228D01*
X018913Y004115D01*
X018856Y004058D01*
X018629Y004058D01*
X018573Y004115D01*
X018573Y004228D01*
X018629Y004285D01*
X018573Y004597D02*
X018629Y004653D01*
X018573Y003548D02*
X018913Y003548D01*
X018913Y003322D02*
X018573Y003322D01*
X018686Y003435D01*
X018573Y003548D01*
X018573Y003180D02*
X018573Y002953D01*
X018913Y002953D01*
X018913Y003180D01*
X018743Y003067D02*
X018743Y002953D01*
X018573Y002812D02*
X018913Y002812D01*
X018913Y002585D02*
X018573Y002585D01*
X018686Y002698D01*
X018573Y002812D01*
X017413Y002755D02*
X017356Y002812D01*
X017073Y002812D01*
X017129Y002953D02*
X017073Y003010D01*
X017073Y003123D01*
X017129Y003180D01*
X017243Y003123D02*
X017299Y003180D01*
X017356Y003180D01*
X017413Y003123D01*
X017413Y003010D01*
X017356Y002953D01*
X017243Y003010D02*
X017243Y003123D01*
X017243Y003010D02*
X017186Y002953D01*
X017129Y002953D01*
X017413Y002755D02*
X017413Y002642D01*
X017356Y002585D01*
X017073Y002585D01*
X017073Y003322D02*
X017073Y003492D01*
X017129Y003548D01*
X017186Y003548D01*
X017243Y003492D01*
X017243Y003322D01*
X017243Y003492D02*
X017299Y003548D01*
X017356Y003548D01*
X017413Y003492D01*
X017413Y003322D01*
X017073Y003322D01*
X015913Y003149D02*
X015573Y003149D01*
X015573Y003376D01*
X015573Y003517D02*
X015573Y003631D01*
X015573Y003574D02*
X015913Y003574D01*
X015913Y003517D02*
X015913Y003631D01*
X015743Y003262D02*
X015743Y003149D01*
X015913Y003017D02*
X015913Y002903D01*
X015913Y002960D02*
X015573Y002960D01*
X015573Y002903D02*
X015573Y003017D01*
X015573Y002762D02*
X015913Y002762D01*
X015799Y002648D01*
X015913Y002535D01*
X015573Y002535D01*
X020073Y002585D02*
X020413Y002585D01*
X020299Y002698D01*
X020413Y002812D01*
X020073Y002812D01*
X020073Y002953D02*
X020073Y003067D01*
X020073Y003010D02*
X020413Y003010D01*
X020413Y002953D02*
X020413Y003067D01*
X020413Y003199D02*
X020073Y003199D01*
X020073Y003426D01*
X020073Y003567D02*
X020073Y003681D01*
X020073Y003624D02*
X020413Y003624D01*
X020413Y003567D02*
X020413Y003681D01*
X020243Y003312D02*
X020243Y003199D01*
X020243Y004181D02*
X020243Y004294D01*
X020413Y004181D02*
X020413Y004408D01*
X020413Y004549D02*
X020073Y004549D01*
X020413Y004776D01*
X020073Y004776D01*
X020073Y004408D02*
X020073Y004181D01*
X020413Y004181D01*
X021573Y003860D02*
X021629Y003917D01*
X021686Y003917D01*
X021743Y003860D01*
X021799Y003917D01*
X021856Y003917D01*
X021913Y003860D01*
X021913Y003747D01*
X021856Y003690D01*
X021799Y003548D02*
X021573Y003548D01*
X021629Y003690D02*
X021573Y003747D01*
X021573Y003860D01*
X021743Y003860D02*
X021743Y003803D01*
X021799Y003548D02*
X021913Y003435D01*
X021799Y003322D01*
X021573Y003322D01*
X021629Y003180D02*
X021686Y003180D01*
X021743Y003123D01*
X021799Y003180D01*
X021856Y003180D01*
X021913Y003123D01*
X021913Y003010D01*
X021856Y002953D01*
X021743Y003067D02*
X021743Y003123D01*
X021629Y003180D02*
X021573Y003123D01*
X021573Y003010D01*
X021629Y002953D01*
X021743Y002812D02*
X021743Y002585D01*
X021856Y002698D02*
X021629Y002698D01*
X023073Y002692D02*
X023129Y002635D01*
X023356Y002635D01*
X023413Y002692D01*
X023413Y002805D01*
X023356Y002862D01*
X023243Y002862D01*
X023243Y002748D01*
X023129Y002862D02*
X023073Y002805D01*
X023073Y002692D01*
X023073Y003003D02*
X023413Y003230D01*
X023073Y003230D01*
X023073Y003372D02*
X023073Y003542D01*
X023129Y003598D01*
X023356Y003598D01*
X023413Y003542D01*
X023413Y003372D01*
X023073Y003372D01*
X023073Y003003D02*
X023413Y003003D01*
X024573Y003003D02*
X024573Y003173D01*
X024629Y003230D01*
X024856Y003230D01*
X024913Y003173D01*
X024913Y003003D01*
X024573Y003003D01*
X024573Y002862D02*
X024799Y002862D01*
X024913Y002748D01*
X024799Y002635D01*
X024573Y002635D01*
X024573Y003372D02*
X024573Y003542D01*
X024629Y003598D01*
X024856Y003598D01*
X024913Y003542D01*
X024913Y003372D01*
X024573Y003372D01*
X024686Y003740D02*
X024573Y003853D01*
X024686Y003967D01*
X024913Y003967D01*
X024743Y003967D02*
X024743Y003740D01*
X024686Y003740D02*
X024913Y003740D01*
D13*
X005193Y000855D02*
X003293Y000855D01*
X003543Y001155D02*
X003393Y001305D01*
X003543Y001455D01*
X003393Y001305D02*
X003743Y001305D01*
X003293Y001755D02*
X005193Y001755D01*
X006912Y013325D02*
X006914Y013339D01*
X006920Y013353D01*
X006928Y013365D01*
X006940Y013373D01*
X006954Y013379D01*
X006968Y013381D01*
X006982Y013379D01*
X006996Y013373D01*
X007008Y013365D01*
X007016Y013353D01*
X007022Y013339D01*
X007024Y013325D01*
X007022Y013311D01*
X007016Y013297D01*
X007008Y013285D01*
X006996Y013277D01*
X006982Y013271D01*
X006968Y013269D01*
X006954Y013271D01*
X006940Y013277D01*
X006928Y013285D01*
X006920Y013297D01*
X006914Y013311D01*
X006912Y013325D01*
X007008Y013483D02*
X006378Y013483D01*
X006378Y014427D02*
X007008Y014427D01*
X003365Y014866D02*
X002735Y014866D01*
X002814Y015339D02*
X003365Y015339D01*
X003365Y014866D01*
X002814Y015339D02*
X002814Y017071D01*
X003365Y017071D01*
X003365Y017544D01*
X002735Y017544D01*
X001672Y017544D02*
X001672Y014866D01*
X007937Y019351D02*
X007937Y019902D01*
X008449Y019902D01*
X008449Y019351D01*
X008693Y019355D02*
X008693Y019855D01*
X008449Y019902D02*
X008449Y020059D01*
X007937Y020059D02*
X007937Y019902D01*
X009293Y019855D02*
X009293Y019355D01*
X009683Y019536D02*
X009683Y019874D01*
X010137Y019386D02*
X010348Y019386D01*
X010803Y019536D02*
X010803Y019874D01*
X010637Y020733D02*
X011227Y020733D01*
X011227Y021677D01*
X010637Y021677D01*
X009849Y021677D02*
X009416Y021677D01*
X009259Y021520D01*
X009259Y020890D01*
X009416Y020733D01*
X009849Y020733D01*
X009849Y018677D02*
X009416Y018677D01*
X009259Y018520D01*
X009259Y017890D01*
X009416Y017733D01*
X009849Y017733D01*
X010637Y017733D02*
X011227Y017733D01*
X011227Y018677D01*
X010637Y018677D01*
X022309Y010723D02*
X022309Y010487D01*
X023057Y009975D02*
X023529Y009975D01*
X024277Y010487D02*
X024277Y010723D01*
X023529Y011235D02*
X023057Y011235D01*
X028743Y011455D02*
X028743Y011955D01*
X028993Y012205D01*
X028743Y012455D01*
X028743Y012955D01*
X028993Y013205D01*
X029493Y013205D01*
X029743Y012955D01*
X029743Y012455D01*
X029493Y012205D01*
X029743Y011955D01*
X029743Y011455D01*
X029493Y011205D01*
X029743Y010955D01*
X029743Y010455D01*
X029493Y010205D01*
X029743Y009955D01*
X029743Y009455D01*
X029493Y009205D01*
X029743Y008955D01*
X029743Y008455D01*
X029493Y008205D01*
X029743Y007955D01*
X029743Y007455D01*
X029493Y007205D01*
X029743Y006955D01*
X029743Y006455D01*
X029493Y006205D01*
X029743Y005955D01*
X029743Y005455D01*
X029493Y005205D01*
X029743Y004955D01*
X029743Y004455D01*
X029493Y004205D01*
X029743Y003955D01*
X029743Y003455D01*
X029493Y003205D01*
X029743Y002955D01*
X029743Y002455D01*
X029493Y002205D01*
X029743Y001955D01*
X029743Y001455D01*
X029493Y001205D01*
X028993Y001205D01*
X028743Y001455D01*
X028743Y001955D01*
X028993Y002205D01*
X028743Y002455D01*
X028743Y002955D01*
X028993Y003205D01*
X028743Y003455D01*
X028743Y003955D01*
X028993Y004205D01*
X028743Y004455D01*
X028743Y004955D01*
X028993Y005205D01*
X028743Y005455D01*
X028743Y005955D01*
X028993Y006205D01*
X028743Y006455D01*
X028743Y006955D01*
X028993Y007205D01*
X028743Y007455D01*
X028743Y007955D01*
X028993Y008205D01*
X028743Y008455D01*
X028743Y008955D01*
X028993Y009205D01*
X028743Y009455D01*
X028743Y009955D01*
X028993Y010205D01*
X028743Y010455D01*
X028743Y010955D01*
X028993Y011205D01*
X028743Y011455D01*
X034559Y014990D02*
X034716Y014833D01*
X035149Y014833D01*
X034559Y014990D02*
X034559Y015620D01*
X034716Y015777D01*
X035149Y015777D01*
X035937Y015777D02*
X036527Y015777D01*
X036527Y014833D01*
X035937Y014833D01*
X039743Y012955D02*
X039743Y012455D01*
X039993Y012205D01*
X039743Y011955D01*
X039743Y011455D01*
X039993Y011205D01*
X039743Y010955D01*
X039743Y010455D01*
X039993Y010205D01*
X039743Y009955D01*
X039743Y009455D01*
X039993Y009205D01*
X039743Y008955D01*
X039743Y008455D01*
X039993Y008205D01*
X039743Y007955D01*
X039743Y007455D01*
X039993Y007205D01*
X039743Y006955D01*
X039743Y006455D01*
X039993Y006205D01*
X039743Y005955D01*
X039743Y005455D01*
X039993Y005205D01*
X039743Y004955D01*
X039743Y004455D01*
X039993Y004205D01*
X039743Y003955D01*
X039743Y003455D01*
X039993Y003205D01*
X039743Y002955D01*
X039743Y002455D01*
X039993Y002205D01*
X039743Y001955D01*
X039743Y001455D01*
X039993Y001205D01*
X040493Y001205D01*
X040743Y001455D01*
X040743Y001955D01*
X040493Y002205D01*
X040743Y002455D01*
X040743Y002955D01*
X040493Y003205D01*
X040743Y003455D01*
X040743Y003955D01*
X040493Y004205D01*
X040743Y004455D01*
X040743Y004955D01*
X040493Y005205D01*
X040743Y005455D01*
X040743Y005955D01*
X040493Y006205D01*
X040743Y006455D01*
X040743Y006955D01*
X040493Y007205D01*
X040743Y007455D01*
X040743Y007955D01*
X040493Y008205D01*
X040743Y008455D01*
X040743Y008955D01*
X040493Y009205D01*
X040743Y009455D01*
X040743Y009955D01*
X040493Y010205D01*
X040743Y010455D01*
X040743Y010955D01*
X040493Y011205D01*
X040743Y011455D01*
X040743Y011955D01*
X040493Y012205D01*
X040743Y012455D01*
X040743Y012955D01*
X040493Y013205D01*
X039993Y013205D01*
X039743Y012955D01*
X004248Y028119D02*
X004132Y028195D01*
X004126Y028205D02*
X004248Y028297D01*
X004126Y028386D02*
X004126Y028205D01*
X004126Y028024D01*
X004126Y028524D02*
X004126Y028705D01*
X004248Y028797D01*
X004126Y028886D02*
X004126Y028705D01*
X004132Y028695D02*
X004248Y028619D01*
X004126Y029024D02*
X004126Y029205D01*
X004248Y029297D01*
X004126Y029386D02*
X004126Y029205D01*
X004132Y029195D02*
X004248Y029119D01*
D14*
X019440Y017782D02*
X019440Y017628D01*
X021166Y015902D01*
X021319Y015902D01*
X023045Y017628D01*
X023045Y017782D01*
X021319Y019508D01*
X021166Y019508D01*
X019440Y017782D01*
X021007Y016591D02*
X021009Y016621D01*
X021015Y016651D01*
X021024Y016680D01*
X021037Y016707D01*
X021054Y016732D01*
X021073Y016755D01*
X021096Y016776D01*
X021121Y016793D01*
X021147Y016807D01*
X021176Y016817D01*
X021205Y016824D01*
X021235Y016827D01*
X021266Y016826D01*
X021296Y016821D01*
X021325Y016812D01*
X021352Y016800D01*
X021378Y016785D01*
X021402Y016766D01*
X021423Y016744D01*
X021441Y016720D01*
X021456Y016693D01*
X021467Y016665D01*
X021475Y016636D01*
X021479Y016606D01*
X021479Y016576D01*
X021475Y016546D01*
X021467Y016517D01*
X021456Y016489D01*
X021441Y016462D01*
X021423Y016438D01*
X021402Y016416D01*
X021378Y016397D01*
X021352Y016382D01*
X021325Y016370D01*
X021296Y016361D01*
X021266Y016356D01*
X021235Y016355D01*
X021205Y016358D01*
X021176Y016365D01*
X021147Y016375D01*
X021121Y016389D01*
X021096Y016406D01*
X021073Y016427D01*
X021054Y016450D01*
X021037Y016475D01*
X021024Y016502D01*
X021015Y016531D01*
X021009Y016561D01*
X021007Y016591D01*
D15*
X007900Y008902D02*
X007900Y002485D01*
X002585Y002485D01*
X002585Y008902D01*
X007900Y008902D01*
D16*
X012398Y025518D02*
X012711Y025832D01*
X012555Y025832D02*
X012555Y025518D01*
X012711Y025518D02*
X012398Y025832D01*
X012398Y025675D02*
X012711Y025675D01*
D17*
X027643Y027855D02*
X030443Y027855D01*
X031043Y027855D02*
X032943Y027855D01*
X034543Y027855D02*
X037443Y027855D01*
X038043Y027855D02*
X039843Y027855D01*
X039843Y030555D01*
X027643Y030555D01*
X027643Y027855D01*
M02*
