G75*
%MOIN*%
%OFA0B0*%
%FSLAX24Y24*%
%IPPOS*%
%LPD*%
%AMOC8*
5,1,8,0,0,1.08239X$1,22.5*
%
%ADD10C,0.0397*%
%ADD11C,0.0550*%
%ADD12C,0.0080*%
%ADD13C,0.0278*%
%ADD14C,0.0060*%
D10*
X004150Y013755D03*
X006335Y013755D03*
D11*
X008743Y012755D03*
X008743Y011755D03*
X008743Y010755D03*
X008743Y009755D03*
X008743Y008755D03*
X008743Y007755D03*
X008743Y006755D03*
X008743Y005755D03*
X008743Y004755D03*
X008743Y003755D03*
X008743Y002755D03*
X008743Y001755D03*
X001743Y001755D03*
X001743Y002755D03*
X001743Y003755D03*
X001743Y004755D03*
X001743Y005755D03*
X001743Y006755D03*
X001743Y007755D03*
X001743Y008755D03*
X001743Y009755D03*
X001743Y010755D03*
X001743Y011755D03*
X001743Y012755D03*
D12*
X001920Y012423D02*
X002118Y012423D01*
X002104Y012457D02*
X002140Y012370D01*
X002207Y012302D01*
X002295Y012266D01*
X002390Y012266D01*
X002478Y012302D01*
X002545Y012370D01*
X002582Y012457D01*
X002582Y012553D01*
X002545Y012640D01*
X002486Y012700D01*
X002545Y012760D01*
X002582Y012847D01*
X002582Y012943D01*
X002545Y013030D01*
X002478Y013098D01*
X002390Y013134D01*
X002295Y013134D01*
X002207Y013098D01*
X002140Y013030D01*
X002104Y012943D01*
X002104Y012864D01*
X002061Y012967D01*
X001955Y013073D01*
X001817Y013130D01*
X001668Y013130D01*
X001530Y013073D01*
X001425Y012967D01*
X001368Y012830D01*
X001368Y012680D01*
X001425Y012543D01*
X001530Y012437D01*
X001668Y012380D01*
X001817Y012380D01*
X001955Y012437D01*
X002061Y012543D01*
X002118Y012680D01*
X002118Y012814D01*
X002140Y012760D01*
X002200Y012700D01*
X002140Y012640D01*
X002104Y012553D01*
X002104Y012457D01*
X002104Y012501D02*
X002019Y012501D01*
X002076Y012580D02*
X002115Y012580D01*
X002109Y012658D02*
X002158Y012658D01*
X002163Y012737D02*
X002118Y012737D01*
X002104Y012894D02*
X002091Y012894D01*
X002116Y012972D02*
X002056Y012972D01*
X001978Y013051D02*
X002160Y013051D01*
X002283Y013129D02*
X001820Y013129D01*
X001666Y013129D02*
X001363Y013129D01*
X001363Y013051D02*
X001508Y013051D01*
X001430Y012972D02*
X001363Y012972D01*
X001363Y012894D02*
X001394Y012894D01*
X001368Y012815D02*
X001363Y012815D01*
X001363Y012737D02*
X001368Y012737D01*
X001363Y012658D02*
X001377Y012658D01*
X001363Y012580D02*
X001410Y012580D01*
X001363Y012501D02*
X001466Y012501D01*
X001566Y012423D02*
X001363Y012423D01*
X001363Y012344D02*
X002166Y012344D01*
X001962Y012109D02*
X007778Y012109D01*
X007760Y012090D02*
X007827Y012158D01*
X007915Y012194D01*
X008010Y012194D01*
X008098Y012158D01*
X008165Y012090D01*
X008202Y012003D01*
X008202Y011907D01*
X008165Y011820D01*
X008098Y011752D01*
X008025Y011722D01*
X008042Y011683D01*
X008042Y011587D01*
X008005Y011500D01*
X007938Y011432D01*
X007850Y011396D01*
X007755Y011396D01*
X007667Y011432D01*
X007600Y011500D01*
X007564Y011587D01*
X007564Y011683D01*
X007600Y011770D01*
X007667Y011838D01*
X007740Y011868D01*
X007724Y011907D01*
X007724Y012003D01*
X007760Y012090D01*
X007735Y012030D02*
X002055Y012030D01*
X002059Y012025D02*
X002013Y012072D01*
X001960Y012110D01*
X001902Y012140D01*
X001840Y012160D01*
X001783Y012169D01*
X001783Y011795D01*
X002157Y011795D01*
X002148Y011852D01*
X002127Y011914D01*
X002098Y011973D01*
X002059Y012025D01*
X002108Y011952D02*
X007724Y011952D01*
X007738Y011873D02*
X002141Y011873D01*
X002157Y011715D02*
X001783Y011715D01*
X001783Y011795D01*
X001703Y011795D01*
X001703Y012169D01*
X001646Y012160D01*
X001583Y012140D01*
X001525Y012110D01*
X001472Y012072D01*
X001426Y012025D01*
X001388Y011973D01*
X001363Y011923D01*
X001363Y014135D01*
X009123Y014135D01*
X009123Y009923D01*
X009098Y009973D01*
X009059Y010025D01*
X009013Y010072D01*
X008960Y010110D01*
X008902Y010140D01*
X008840Y010160D01*
X008783Y010169D01*
X008783Y009795D01*
X008703Y009795D01*
X008703Y010169D01*
X008646Y010160D01*
X008583Y010140D01*
X008525Y010110D01*
X008472Y010072D01*
X008426Y010025D01*
X008388Y009973D01*
X008358Y009914D01*
X008338Y009852D01*
X008329Y009795D01*
X008703Y009795D01*
X008703Y009715D01*
X008783Y009715D01*
X008783Y009341D01*
X008840Y009350D01*
X008902Y009370D01*
X008960Y009400D01*
X009013Y009438D01*
X009059Y009485D01*
X009098Y009537D01*
X009123Y009587D01*
X009123Y001455D01*
X008973Y001455D01*
X009061Y001543D01*
X009118Y001680D01*
X009118Y001830D01*
X009061Y001967D01*
X008955Y002073D01*
X008817Y002130D01*
X008668Y002130D01*
X008530Y002073D01*
X008425Y001967D01*
X008368Y001830D01*
X008368Y001680D01*
X008425Y001543D01*
X008512Y001455D01*
X001973Y001455D01*
X002061Y001543D01*
X002118Y001680D01*
X002118Y001830D01*
X002061Y001967D01*
X001955Y002073D01*
X001817Y002130D01*
X001668Y002130D01*
X001530Y002073D01*
X001425Y001967D01*
X001368Y001830D01*
X001368Y001680D01*
X001425Y001543D01*
X001512Y001455D01*
X001363Y001455D01*
X001363Y011587D01*
X001388Y011537D01*
X001426Y011485D01*
X001472Y011438D01*
X001525Y011400D01*
X001583Y011370D01*
X001646Y011350D01*
X001703Y011341D01*
X001703Y011715D01*
X001783Y011715D01*
X001783Y011341D01*
X001840Y011350D01*
X001902Y011370D01*
X001960Y011400D01*
X002013Y011438D01*
X002059Y011485D01*
X002098Y011537D01*
X002127Y011596D01*
X002148Y011658D01*
X002157Y011715D01*
X002141Y011638D02*
X007564Y011638D01*
X007578Y011716D02*
X001783Y011716D01*
X001783Y011638D02*
X001703Y011638D01*
X001703Y011559D02*
X001783Y011559D01*
X001783Y011481D02*
X001703Y011481D01*
X001703Y011402D02*
X001783Y011402D01*
X001963Y011402D02*
X006572Y011402D01*
X006570Y011400D02*
X006534Y011313D01*
X006534Y011217D01*
X006570Y011130D01*
X006637Y011062D01*
X006725Y011026D01*
X006820Y011026D01*
X006908Y011062D01*
X006975Y011130D01*
X006991Y011168D01*
X007017Y011142D01*
X007105Y011106D01*
X007200Y011106D01*
X007288Y011142D01*
X007355Y011210D01*
X007392Y011297D01*
X007392Y011393D01*
X007355Y011480D01*
X007288Y011548D01*
X007200Y011584D01*
X007105Y011584D01*
X007017Y011548D01*
X006950Y011480D01*
X006934Y011442D01*
X006908Y011468D01*
X006820Y011504D01*
X006725Y011504D01*
X006637Y011468D01*
X006570Y011400D01*
X006538Y011324D02*
X001363Y011324D01*
X001363Y011402D02*
X001523Y011402D01*
X001430Y011481D02*
X001363Y011481D01*
X001363Y011559D02*
X001377Y011559D01*
X001363Y011245D02*
X006534Y011245D01*
X006555Y011167D02*
X001363Y011167D01*
X001363Y011088D02*
X001567Y011088D01*
X001530Y011073D02*
X001425Y010967D01*
X001368Y010830D01*
X001368Y010680D01*
X001425Y010543D01*
X001530Y010437D01*
X001668Y010380D01*
X001817Y010380D01*
X001955Y010437D01*
X002061Y010543D01*
X002118Y010680D01*
X002118Y010704D01*
X002140Y010650D01*
X002207Y010582D01*
X002285Y010550D01*
X002207Y010518D01*
X002140Y010450D01*
X002104Y010363D01*
X002104Y010267D01*
X002140Y010180D01*
X002207Y010112D01*
X002295Y010076D01*
X002390Y010076D01*
X002478Y010112D01*
X002492Y010126D01*
X002474Y010083D01*
X002474Y010064D01*
X002395Y010064D01*
X002307Y010028D01*
X002240Y009960D01*
X002204Y009873D01*
X002204Y009777D01*
X002240Y009690D01*
X002307Y009622D01*
X002395Y009586D01*
X002490Y009586D01*
X002578Y009622D01*
X002645Y009690D01*
X002682Y009777D01*
X002682Y009796D01*
X002760Y009796D01*
X002848Y009832D01*
X002915Y009900D01*
X002952Y009987D01*
X002952Y010083D01*
X002915Y010170D01*
X002848Y010238D01*
X002760Y010274D01*
X002665Y010274D01*
X002577Y010238D01*
X002564Y010224D01*
X002582Y010267D01*
X002582Y010363D01*
X002545Y010450D01*
X002478Y010518D01*
X002400Y010550D01*
X002478Y010582D01*
X002545Y010650D01*
X002582Y010737D01*
X002582Y010833D01*
X002545Y010920D01*
X002478Y010988D01*
X002390Y011024D01*
X002295Y011024D01*
X002207Y010988D01*
X002140Y010920D01*
X002110Y010848D01*
X002061Y010967D01*
X001955Y011073D01*
X001817Y011130D01*
X001668Y011130D01*
X001530Y011073D01*
X001467Y011010D02*
X001363Y011010D01*
X001363Y010931D02*
X001410Y010931D01*
X001377Y010853D02*
X001363Y010853D01*
X001363Y010774D02*
X001368Y010774D01*
X001363Y010696D02*
X001368Y010696D01*
X001363Y010617D02*
X001394Y010617D01*
X001363Y010539D02*
X001429Y010539D01*
X001363Y010460D02*
X001507Y010460D01*
X001363Y010382D02*
X001665Y010382D01*
X001668Y010130D02*
X001530Y010073D01*
X001425Y009967D01*
X001368Y009830D01*
X001368Y009680D01*
X001425Y009543D01*
X001530Y009437D01*
X001668Y009380D01*
X001817Y009380D01*
X001955Y009437D01*
X002061Y009543D01*
X002118Y009680D01*
X002118Y009830D01*
X002061Y009967D01*
X001955Y010073D01*
X001817Y010130D01*
X001668Y010130D01*
X001525Y010068D02*
X001363Y010068D01*
X001363Y010146D02*
X002174Y010146D01*
X002122Y010225D02*
X001363Y010225D01*
X001363Y010303D02*
X002104Y010303D01*
X002112Y010382D02*
X001821Y010382D01*
X001978Y010460D02*
X002150Y010460D01*
X002057Y010539D02*
X002258Y010539D01*
X002173Y010617D02*
X002092Y010617D01*
X002118Y010696D02*
X002121Y010696D01*
X002108Y010853D02*
X002112Y010853D01*
X002076Y010931D02*
X002151Y010931D01*
X002260Y011010D02*
X002019Y011010D01*
X001919Y011088D02*
X004211Y011088D01*
X004225Y011094D02*
X004137Y011058D01*
X004070Y010990D01*
X004034Y010903D01*
X004034Y010807D01*
X004070Y010720D01*
X004137Y010652D01*
X004225Y010616D01*
X004234Y010616D01*
X004234Y010607D01*
X004270Y010520D01*
X004337Y010452D01*
X004425Y010416D01*
X004520Y010416D01*
X004608Y010452D01*
X004675Y010520D01*
X004712Y010607D01*
X004712Y010703D01*
X004675Y010790D01*
X004608Y010858D01*
X004520Y010894D01*
X004512Y010894D01*
X004512Y010903D01*
X004475Y010990D01*
X004408Y011058D01*
X004320Y011094D01*
X004225Y011094D01*
X004335Y011088D02*
X006612Y011088D01*
X006640Y010984D02*
X006545Y010984D01*
X006457Y010948D01*
X006390Y010880D01*
X006354Y010793D01*
X006354Y010697D01*
X006390Y010610D01*
X006457Y010542D01*
X006545Y010506D01*
X006640Y010506D01*
X006728Y010542D01*
X006795Y010610D01*
X006832Y010697D01*
X006832Y010793D01*
X006795Y010880D01*
X006728Y010948D01*
X006640Y010984D01*
X006745Y010931D02*
X008410Y010931D01*
X008425Y010967D02*
X008368Y010830D01*
X008368Y010680D01*
X008425Y010543D01*
X008530Y010437D01*
X008668Y010380D01*
X008817Y010380D01*
X008955Y010437D01*
X009061Y010543D01*
X009118Y010680D01*
X009118Y010830D01*
X009061Y010967D01*
X008955Y011073D01*
X008817Y011130D01*
X008668Y011130D01*
X008530Y011073D01*
X008425Y010967D01*
X008467Y011010D02*
X008173Y011010D01*
X008140Y010996D02*
X008228Y011032D01*
X008295Y011100D01*
X008332Y011187D01*
X008332Y011283D01*
X008295Y011370D01*
X008228Y011438D01*
X008140Y011474D01*
X008045Y011474D01*
X007957Y011438D01*
X007890Y011370D01*
X007854Y011283D01*
X007854Y011187D01*
X007890Y011100D01*
X007957Y011032D01*
X008045Y010996D01*
X008140Y010996D01*
X008284Y011088D02*
X008567Y011088D01*
X008323Y011167D02*
X009123Y011167D01*
X009123Y011245D02*
X008332Y011245D01*
X008315Y011324D02*
X009123Y011324D01*
X009123Y011402D02*
X008871Y011402D01*
X008817Y011380D02*
X008955Y011437D01*
X009061Y011543D01*
X009118Y011680D01*
X009118Y011830D01*
X009061Y011967D01*
X008955Y012073D01*
X008817Y012130D01*
X008668Y012130D01*
X008530Y012073D01*
X008425Y011967D01*
X008368Y011830D01*
X008368Y011680D01*
X008425Y011543D01*
X008530Y011437D01*
X008668Y011380D01*
X008817Y011380D01*
X008615Y011402D02*
X008264Y011402D01*
X008386Y011638D02*
X008042Y011638D01*
X008028Y011716D02*
X008368Y011716D01*
X008368Y011795D02*
X008140Y011795D01*
X008188Y011873D02*
X008386Y011873D01*
X008418Y011952D02*
X008202Y011952D01*
X008190Y012030D02*
X008488Y012030D01*
X008616Y012109D02*
X008147Y012109D01*
X008027Y012187D02*
X009123Y012187D01*
X009123Y012109D02*
X008869Y012109D01*
X008998Y012030D02*
X009123Y012030D01*
X009123Y011952D02*
X009067Y011952D01*
X009100Y011873D02*
X009123Y011873D01*
X009118Y011795D02*
X009123Y011795D01*
X009118Y011716D02*
X009123Y011716D01*
X009123Y011638D02*
X009100Y011638D01*
X009123Y011559D02*
X009068Y011559D01*
X009123Y011481D02*
X008999Y011481D01*
X008919Y011088D02*
X009123Y011088D01*
X009123Y011010D02*
X009019Y011010D01*
X009076Y010931D02*
X009123Y010931D01*
X009123Y010853D02*
X009108Y010853D01*
X009118Y010774D02*
X009123Y010774D01*
X009118Y010696D02*
X009123Y010696D01*
X009123Y010617D02*
X009092Y010617D01*
X009123Y010539D02*
X009057Y010539D01*
X009123Y010460D02*
X008978Y010460D01*
X009123Y010382D02*
X008821Y010382D01*
X008783Y010146D02*
X008703Y010146D01*
X008703Y010068D02*
X008783Y010068D01*
X008783Y009989D02*
X008703Y009989D01*
X008703Y009911D02*
X008783Y009911D01*
X008783Y009832D02*
X008703Y009832D01*
X008703Y009754D02*
X008250Y009754D01*
X008252Y009757D02*
X008252Y009853D01*
X008215Y009940D01*
X008148Y010008D01*
X008060Y010044D01*
X007965Y010044D01*
X007877Y010008D01*
X007810Y009940D01*
X007795Y009903D01*
X007720Y009934D01*
X007625Y009934D01*
X007537Y009898D01*
X007470Y009830D01*
X007434Y009743D01*
X007434Y009647D01*
X007470Y009560D01*
X007537Y009492D01*
X007625Y009456D01*
X007720Y009456D01*
X007808Y009492D01*
X007875Y009560D01*
X007891Y009597D01*
X007965Y009566D01*
X008060Y009566D01*
X008148Y009602D01*
X008215Y009670D01*
X008252Y009757D01*
X008252Y009832D02*
X008335Y009832D01*
X008357Y009911D02*
X008228Y009911D01*
X008167Y009989D02*
X008400Y009989D01*
X008468Y010068D02*
X003994Y010068D01*
X003977Y010050D02*
X004044Y010117D01*
X004080Y010205D01*
X004080Y010300D01*
X004044Y010388D01*
X003977Y010455D01*
X003889Y010492D01*
X003794Y010492D01*
X003706Y010455D01*
X003639Y010388D01*
X003602Y010300D01*
X003602Y010205D01*
X003639Y010117D01*
X003706Y010050D01*
X003794Y010014D01*
X003889Y010014D01*
X003977Y010050D01*
X004056Y010146D02*
X008603Y010146D01*
X008665Y010382D02*
X004047Y010382D01*
X004079Y010303D02*
X009123Y010303D01*
X009123Y010225D02*
X004080Y010225D01*
X003965Y010460D02*
X004330Y010460D01*
X004262Y010539D02*
X002428Y010539D01*
X002513Y010617D02*
X004223Y010617D01*
X004094Y010696D02*
X002564Y010696D01*
X002582Y010774D02*
X004048Y010774D01*
X004034Y010853D02*
X002574Y010853D01*
X002535Y010931D02*
X004046Y010931D01*
X004089Y011010D02*
X002425Y011010D01*
X002536Y010460D02*
X003717Y010460D01*
X003636Y010382D02*
X002574Y010382D01*
X002582Y010303D02*
X003603Y010303D01*
X003602Y010225D02*
X002861Y010225D01*
X002926Y010146D02*
X003627Y010146D01*
X003688Y010068D02*
X002952Y010068D01*
X002952Y009989D02*
X007859Y009989D01*
X007798Y009911D02*
X007777Y009911D01*
X007568Y009911D02*
X002920Y009911D01*
X002847Y009832D02*
X007472Y009832D01*
X007438Y009754D02*
X002672Y009754D01*
X002631Y009675D02*
X007434Y009675D01*
X007455Y009597D02*
X002516Y009597D01*
X002370Y009597D02*
X002083Y009597D01*
X002116Y009675D02*
X002255Y009675D01*
X002214Y009754D02*
X002118Y009754D01*
X002117Y009832D02*
X002204Y009832D01*
X002219Y009911D02*
X002084Y009911D01*
X002039Y009989D02*
X002269Y009989D01*
X002474Y010068D02*
X001961Y010068D01*
X002036Y009518D02*
X007512Y009518D01*
X007834Y009518D02*
X008402Y009518D01*
X008388Y009537D02*
X008426Y009485D01*
X008472Y009438D01*
X008525Y009400D01*
X008583Y009370D01*
X008646Y009350D01*
X008703Y009341D01*
X008703Y009715D01*
X008329Y009715D01*
X008338Y009658D01*
X008358Y009596D01*
X008388Y009537D01*
X008358Y009597D02*
X008134Y009597D01*
X008218Y009675D02*
X008335Y009675D01*
X008471Y009440D02*
X001958Y009440D01*
X001828Y009126D02*
X008657Y009126D01*
X008668Y009130D02*
X008530Y009073D01*
X008425Y008967D01*
X008368Y008830D01*
X008368Y008680D01*
X008425Y008543D01*
X008530Y008437D01*
X008668Y008380D01*
X008817Y008380D01*
X008955Y008437D01*
X009061Y008543D01*
X009118Y008680D01*
X009118Y008830D01*
X009061Y008967D01*
X008955Y009073D01*
X008817Y009130D01*
X008668Y009130D01*
X008505Y009047D02*
X001981Y009047D01*
X001955Y009073D02*
X002061Y008967D01*
X002118Y008830D01*
X002118Y008680D01*
X002061Y008543D01*
X001955Y008437D01*
X001817Y008380D01*
X001668Y008380D01*
X001530Y008437D01*
X001425Y008543D01*
X001368Y008680D01*
X001368Y008830D01*
X001425Y008967D01*
X001530Y009073D01*
X001668Y009130D01*
X001817Y009130D01*
X001955Y009073D01*
X002060Y008969D02*
X008426Y008969D01*
X008393Y008890D02*
X006140Y008890D01*
X006130Y008894D02*
X006218Y008858D01*
X006285Y008790D01*
X006322Y008703D01*
X006322Y008607D01*
X006285Y008520D01*
X006218Y008452D01*
X006130Y008416D01*
X006035Y008416D01*
X005947Y008452D01*
X005880Y008520D01*
X005844Y008607D01*
X005844Y008703D01*
X005880Y008790D01*
X005947Y008858D01*
X006035Y008894D01*
X006130Y008894D01*
X006026Y008890D02*
X002093Y008890D01*
X002118Y008812D02*
X005901Y008812D01*
X005856Y008733D02*
X002118Y008733D01*
X002107Y008655D02*
X003373Y008655D01*
X003356Y008648D02*
X003289Y008580D01*
X003253Y008493D01*
X003253Y008397D01*
X003289Y008310D01*
X003356Y008242D01*
X003444Y008206D01*
X003539Y008206D01*
X003627Y008242D01*
X003694Y008310D01*
X003731Y008397D01*
X003731Y008493D01*
X003694Y008580D01*
X003627Y008648D01*
X003539Y008684D01*
X003444Y008684D01*
X003356Y008648D01*
X003287Y008576D02*
X002075Y008576D01*
X002016Y008498D02*
X003255Y008498D01*
X003253Y008419D02*
X001912Y008419D01*
X001817Y008130D02*
X001668Y008130D01*
X001530Y008073D01*
X001425Y007967D01*
X001368Y007830D01*
X001368Y007680D01*
X001425Y007543D01*
X001530Y007437D01*
X001668Y007380D01*
X001817Y007380D01*
X001955Y007437D01*
X002061Y007543D01*
X002118Y007680D01*
X002118Y007830D01*
X002061Y007967D01*
X001955Y008073D01*
X001817Y008130D01*
X001878Y008105D02*
X002263Y008105D01*
X002254Y008127D02*
X002290Y008040D01*
X002357Y007972D01*
X002445Y007936D01*
X002540Y007936D01*
X002628Y007972D01*
X002695Y008040D01*
X002732Y008127D01*
X002732Y008223D01*
X002695Y008310D01*
X002628Y008378D01*
X002540Y008414D01*
X002445Y008414D01*
X002357Y008378D01*
X002290Y008310D01*
X002254Y008223D01*
X002254Y008127D01*
X002254Y008184D02*
X001363Y008184D01*
X001363Y008262D02*
X002270Y008262D01*
X002320Y008341D02*
X001363Y008341D01*
X001363Y008419D02*
X001574Y008419D01*
X001470Y008498D02*
X001363Y008498D01*
X001363Y008576D02*
X001411Y008576D01*
X001379Y008655D02*
X001363Y008655D01*
X001363Y008733D02*
X001368Y008733D01*
X001363Y008812D02*
X001368Y008812D01*
X001363Y008890D02*
X001393Y008890D01*
X001363Y008969D02*
X001426Y008969D01*
X001363Y009047D02*
X001505Y009047D01*
X001363Y009126D02*
X001657Y009126D01*
X001528Y009440D02*
X001363Y009440D01*
X001363Y009518D02*
X001449Y009518D01*
X001403Y009597D02*
X001363Y009597D01*
X001363Y009675D02*
X001370Y009675D01*
X001363Y009754D02*
X001368Y009754D01*
X001363Y009832D02*
X001369Y009832D01*
X001363Y009911D02*
X001401Y009911D01*
X001363Y009989D02*
X001447Y009989D01*
X001363Y009361D02*
X008612Y009361D01*
X008703Y009361D02*
X008783Y009361D01*
X008783Y009440D02*
X008703Y009440D01*
X008703Y009518D02*
X008783Y009518D01*
X008783Y009597D02*
X008703Y009597D01*
X008703Y009675D02*
X008783Y009675D01*
X008873Y009361D02*
X009123Y009361D01*
X009123Y009283D02*
X001363Y009283D01*
X001363Y009204D02*
X009123Y009204D01*
X009123Y009126D02*
X008828Y009126D01*
X008981Y009047D02*
X009123Y009047D01*
X009123Y008969D02*
X009060Y008969D01*
X009093Y008890D02*
X009123Y008890D01*
X009118Y008812D02*
X009123Y008812D01*
X009118Y008733D02*
X009123Y008733D01*
X009123Y008655D02*
X009107Y008655D01*
X009123Y008576D02*
X009075Y008576D01*
X009123Y008498D02*
X009016Y008498D01*
X008912Y008419D02*
X009123Y008419D01*
X009123Y008341D02*
X007245Y008341D01*
X007228Y008358D02*
X007140Y008394D01*
X007045Y008394D01*
X007032Y008389D01*
X007032Y008403D01*
X006995Y008490D01*
X006928Y008558D01*
X006840Y008594D01*
X006745Y008594D01*
X006657Y008558D01*
X006590Y008490D01*
X006571Y008445D01*
X006568Y008448D01*
X006480Y008484D01*
X006385Y008484D01*
X006297Y008448D01*
X006230Y008380D01*
X006194Y008293D01*
X006194Y008197D01*
X006230Y008110D01*
X006297Y008042D01*
X006385Y008006D01*
X006480Y008006D01*
X006568Y008042D01*
X006635Y008110D01*
X006654Y008155D01*
X006657Y008152D01*
X006745Y008116D01*
X006840Y008116D01*
X006854Y008121D01*
X006854Y008107D01*
X006890Y008020D01*
X006957Y007952D01*
X007045Y007916D01*
X007140Y007916D01*
X007228Y007952D01*
X007295Y008020D01*
X007332Y008107D01*
X007332Y008203D01*
X007295Y008290D01*
X007228Y008358D01*
X007307Y008262D02*
X009123Y008262D01*
X009123Y008184D02*
X007332Y008184D01*
X007331Y008105D02*
X008608Y008105D01*
X008668Y008130D02*
X008530Y008073D01*
X008425Y007967D01*
X008368Y007830D01*
X008368Y007680D01*
X008425Y007543D01*
X008530Y007437D01*
X008668Y007380D01*
X008817Y007380D01*
X008955Y007437D01*
X009061Y007543D01*
X009118Y007680D01*
X009118Y007830D01*
X009061Y007967D01*
X008955Y008073D01*
X008817Y008130D01*
X008668Y008130D01*
X008574Y008419D02*
X007025Y008419D01*
X006988Y008498D02*
X008470Y008498D01*
X008411Y008576D02*
X006884Y008576D01*
X006702Y008576D02*
X006309Y008576D01*
X006322Y008655D02*
X008379Y008655D01*
X008368Y008733D02*
X006309Y008733D01*
X006264Y008812D02*
X008368Y008812D01*
X008484Y008027D02*
X007298Y008027D01*
X007218Y007948D02*
X008417Y007948D01*
X008384Y007870D02*
X005370Y007870D01*
X005382Y007897D02*
X005345Y007810D01*
X005278Y007742D01*
X005190Y007706D01*
X005095Y007706D01*
X005007Y007742D01*
X004940Y007810D01*
X004904Y007897D01*
X004904Y007993D01*
X004940Y008080D01*
X005007Y008148D01*
X005095Y008184D01*
X005190Y008184D01*
X005278Y008148D01*
X005345Y008080D01*
X005382Y007993D01*
X005382Y007897D01*
X005382Y007948D02*
X006968Y007948D01*
X006887Y008027D02*
X006530Y008027D01*
X006631Y008105D02*
X006855Y008105D01*
X006597Y008498D02*
X006263Y008498D01*
X006269Y008419D02*
X006138Y008419D01*
X006214Y008341D02*
X005802Y008341D01*
X005802Y008297D02*
X005765Y008210D01*
X005698Y008142D01*
X005610Y008106D01*
X005515Y008106D01*
X005427Y008142D01*
X005360Y008210D01*
X005346Y008243D01*
X005280Y008216D01*
X005185Y008216D01*
X005097Y008252D01*
X005030Y008320D01*
X004994Y008407D01*
X004994Y008503D01*
X005030Y008590D01*
X005097Y008658D01*
X005185Y008694D01*
X005280Y008694D01*
X005368Y008658D01*
X005435Y008590D01*
X005449Y008557D01*
X005515Y008584D01*
X005610Y008584D01*
X005698Y008548D01*
X005765Y008480D01*
X005802Y008393D01*
X005802Y008297D01*
X005787Y008262D02*
X006194Y008262D01*
X006200Y008184D02*
X005739Y008184D01*
X005791Y008419D02*
X006028Y008419D01*
X005902Y008498D02*
X005748Y008498D01*
X005857Y008576D02*
X005630Y008576D01*
X005496Y008576D02*
X005441Y008576D01*
X005371Y008655D02*
X005844Y008655D01*
X005386Y008184D02*
X005192Y008184D01*
X005094Y008184D02*
X002732Y008184D01*
X002723Y008105D02*
X003495Y008105D01*
X003527Y008138D02*
X003460Y008070D01*
X003424Y007983D01*
X003424Y007887D01*
X003460Y007800D01*
X003527Y007732D01*
X003615Y007696D01*
X003710Y007696D01*
X003798Y007732D01*
X003865Y007800D01*
X003902Y007887D01*
X003902Y007983D01*
X003865Y008070D01*
X003798Y008138D01*
X003710Y008174D01*
X003615Y008174D01*
X003527Y008138D01*
X003442Y008027D02*
X002682Y008027D01*
X002570Y007948D02*
X003424Y007948D01*
X003431Y007870D02*
X002101Y007870D01*
X002118Y007791D02*
X003469Y007791D01*
X003575Y007713D02*
X002118Y007713D01*
X002099Y007634D02*
X008387Y007634D01*
X008368Y007713D02*
X005206Y007713D01*
X005327Y007791D02*
X008368Y007791D01*
X008420Y007556D02*
X002066Y007556D01*
X001995Y007477D02*
X008490Y007477D01*
X008623Y007399D02*
X001862Y007399D01*
X001623Y007399D02*
X001363Y007399D01*
X001363Y007477D02*
X001490Y007477D01*
X001420Y007556D02*
X001363Y007556D01*
X001363Y007634D02*
X001387Y007634D01*
X001368Y007713D02*
X001363Y007713D01*
X001363Y007791D02*
X001368Y007791D01*
X001363Y007870D02*
X001384Y007870D01*
X001363Y007948D02*
X001417Y007948D01*
X001363Y008027D02*
X001484Y008027D01*
X001363Y008105D02*
X001608Y008105D01*
X002002Y008027D02*
X002303Y008027D01*
X002416Y007948D02*
X002069Y007948D01*
X001817Y007130D02*
X001668Y007130D01*
X001530Y007073D01*
X001425Y006967D01*
X001368Y006830D01*
X001368Y006680D01*
X001425Y006543D01*
X001530Y006437D01*
X001668Y006380D01*
X001817Y006380D01*
X001955Y006437D01*
X002061Y006543D01*
X002118Y006680D01*
X002118Y006830D01*
X002061Y006967D01*
X001955Y007073D01*
X001817Y007130D01*
X001927Y007085D02*
X004838Y007085D01*
X004840Y007090D02*
X004804Y007003D01*
X004804Y006907D01*
X004840Y006820D01*
X004907Y006752D01*
X004995Y006716D01*
X005090Y006716D01*
X005178Y006752D01*
X005243Y006817D01*
X005307Y006752D01*
X005395Y006716D01*
X005490Y006716D01*
X005578Y006752D01*
X005645Y006820D01*
X005682Y006907D01*
X005682Y007003D01*
X005645Y007090D01*
X005578Y007158D01*
X005490Y007194D01*
X005395Y007194D01*
X005307Y007158D01*
X005243Y007093D01*
X005178Y007158D01*
X005090Y007194D01*
X004995Y007194D01*
X004907Y007158D01*
X004840Y007090D01*
X004805Y007006D02*
X002022Y007006D01*
X002077Y006928D02*
X004804Y006928D01*
X004828Y006849D02*
X002110Y006849D01*
X002118Y006771D02*
X004889Y006771D01*
X004920Y007163D02*
X001363Y007163D01*
X001363Y007085D02*
X001558Y007085D01*
X001463Y007006D02*
X001363Y007006D01*
X001363Y006928D02*
X001408Y006928D01*
X001376Y006849D02*
X001363Y006849D01*
X001363Y006771D02*
X001368Y006771D01*
X001363Y006692D02*
X001368Y006692D01*
X001363Y006614D02*
X001396Y006614D01*
X001363Y006535D02*
X001432Y006535D01*
X001363Y006457D02*
X001511Y006457D01*
X001363Y006378D02*
X009123Y006378D01*
X009123Y006300D02*
X001363Y006300D01*
X001363Y006221D02*
X006851Y006221D01*
X006857Y006228D02*
X006790Y006160D01*
X006754Y006073D01*
X006754Y005977D01*
X006790Y005890D01*
X006857Y005822D01*
X006945Y005786D01*
X007040Y005786D01*
X007128Y005822D01*
X007195Y005890D01*
X007232Y005977D01*
X007232Y006073D01*
X007195Y006160D01*
X007128Y006228D01*
X007040Y006264D01*
X006945Y006264D01*
X006857Y006228D01*
X006783Y006143D02*
X001363Y006143D01*
X001363Y006064D02*
X001521Y006064D01*
X001530Y006073D02*
X001425Y005967D01*
X001368Y005830D01*
X001368Y005680D01*
X001425Y005543D01*
X001530Y005437D01*
X001668Y005380D01*
X001817Y005380D01*
X001955Y005437D01*
X002061Y005543D01*
X002118Y005680D01*
X002118Y005830D01*
X002061Y005967D01*
X001955Y006073D01*
X001817Y006130D01*
X001668Y006130D01*
X001530Y006073D01*
X001443Y005986D02*
X001363Y005986D01*
X001363Y005907D02*
X001400Y005907D01*
X001368Y005829D02*
X001363Y005829D01*
X001363Y005750D02*
X001368Y005750D01*
X001363Y005672D02*
X001371Y005672D01*
X001363Y005593D02*
X001404Y005593D01*
X001363Y005515D02*
X001453Y005515D01*
X001533Y005436D02*
X001363Y005436D01*
X001363Y005358D02*
X009123Y005358D01*
X009123Y005436D02*
X008953Y005436D01*
X008955Y005437D02*
X009061Y005543D01*
X009118Y005680D01*
X009118Y005830D01*
X009061Y005967D01*
X008955Y006073D01*
X008817Y006130D01*
X008668Y006130D01*
X008530Y006073D01*
X008425Y005967D01*
X008368Y005830D01*
X008368Y005680D01*
X008425Y005543D01*
X008530Y005437D01*
X008668Y005380D01*
X008817Y005380D01*
X008955Y005437D01*
X009033Y005515D02*
X009123Y005515D01*
X009123Y005593D02*
X009082Y005593D01*
X009114Y005672D02*
X009123Y005672D01*
X009118Y005750D02*
X009123Y005750D01*
X009118Y005829D02*
X009123Y005829D01*
X009123Y005907D02*
X009086Y005907D01*
X009123Y005986D02*
X009043Y005986D01*
X008964Y006064D02*
X009123Y006064D01*
X009123Y006143D02*
X007203Y006143D01*
X007232Y006064D02*
X008521Y006064D01*
X008443Y005986D02*
X007232Y005986D01*
X007203Y005907D02*
X008400Y005907D01*
X008368Y005829D02*
X007134Y005829D01*
X007135Y006221D02*
X009123Y006221D01*
X009123Y006457D02*
X008975Y006457D01*
X008955Y006437D02*
X009061Y006543D01*
X009118Y006680D01*
X009118Y006830D01*
X009061Y006967D01*
X008955Y007073D01*
X008817Y007130D01*
X008668Y007130D01*
X008530Y007073D01*
X008425Y006967D01*
X008368Y006830D01*
X008368Y006680D01*
X008425Y006543D01*
X008530Y006437D01*
X008668Y006380D01*
X008817Y006380D01*
X008955Y006437D01*
X009053Y006535D02*
X009123Y006535D01*
X009123Y006614D02*
X009090Y006614D01*
X009118Y006692D02*
X009123Y006692D01*
X009118Y006771D02*
X009123Y006771D01*
X009123Y006849D02*
X009110Y006849D01*
X009123Y006928D02*
X009077Y006928D01*
X009123Y007006D02*
X009022Y007006D01*
X008927Y007085D02*
X009123Y007085D01*
X009123Y007163D02*
X005565Y007163D01*
X005648Y007085D02*
X008558Y007085D01*
X008463Y007006D02*
X005680Y007006D01*
X005682Y006928D02*
X008408Y006928D01*
X008376Y006849D02*
X005658Y006849D01*
X005596Y006771D02*
X008368Y006771D01*
X008368Y006692D02*
X002118Y006692D01*
X002090Y006614D02*
X008396Y006614D01*
X008432Y006535D02*
X002053Y006535D01*
X001975Y006457D02*
X008511Y006457D01*
X008368Y005750D02*
X002118Y005750D01*
X002118Y005829D02*
X006851Y005829D01*
X006783Y005907D02*
X002086Y005907D01*
X002043Y005986D02*
X006754Y005986D01*
X006754Y006064D02*
X001964Y006064D01*
X002114Y005672D02*
X008371Y005672D01*
X008404Y005593D02*
X002082Y005593D01*
X002033Y005515D02*
X008453Y005515D01*
X008533Y005436D02*
X001953Y005436D01*
X001817Y005130D02*
X001668Y005130D01*
X001530Y005073D01*
X001425Y004967D01*
X001368Y004830D01*
X001368Y004680D01*
X001425Y004543D01*
X001530Y004437D01*
X001668Y004380D01*
X001817Y004380D01*
X001955Y004437D01*
X002061Y004543D01*
X002118Y004680D01*
X002118Y004830D01*
X002061Y004967D01*
X001955Y005073D01*
X001817Y005130D01*
X001837Y005122D02*
X006824Y005122D01*
X006824Y005123D02*
X006824Y005027D01*
X006860Y004940D01*
X006927Y004872D01*
X007015Y004836D01*
X007110Y004836D01*
X007198Y004872D01*
X007265Y004940D01*
X007302Y005027D01*
X007302Y005123D01*
X007265Y005210D01*
X007198Y005278D01*
X007110Y005314D01*
X007015Y005314D01*
X006927Y005278D01*
X006860Y005210D01*
X006824Y005123D01*
X006824Y005044D02*
X001985Y005044D01*
X002062Y004965D02*
X006850Y004965D01*
X006913Y004887D02*
X002094Y004887D01*
X002118Y004808D02*
X008368Y004808D01*
X008368Y004830D02*
X008368Y004680D01*
X008425Y004543D01*
X008530Y004437D01*
X008668Y004380D01*
X008817Y004380D01*
X008955Y004437D01*
X009061Y004543D01*
X009118Y004680D01*
X009118Y004830D01*
X009061Y004967D01*
X008955Y005073D01*
X008817Y005130D01*
X008668Y005130D01*
X008530Y005073D01*
X008425Y004967D01*
X008368Y004830D01*
X008391Y004887D02*
X007212Y004887D01*
X007276Y004965D02*
X008424Y004965D01*
X008501Y005044D02*
X007302Y005044D01*
X007302Y005122D02*
X008649Y005122D01*
X008837Y005122D02*
X009123Y005122D01*
X009123Y005044D02*
X008985Y005044D01*
X009062Y004965D02*
X009123Y004965D01*
X009123Y004887D02*
X009094Y004887D01*
X009118Y004808D02*
X009123Y004808D01*
X009118Y004730D02*
X009123Y004730D01*
X009123Y004651D02*
X009106Y004651D01*
X009123Y004573D02*
X009073Y004573D01*
X009123Y004494D02*
X009012Y004494D01*
X008903Y004416D02*
X009123Y004416D01*
X009123Y004337D02*
X001363Y004337D01*
X001363Y004259D02*
X009123Y004259D01*
X009123Y004180D02*
X006563Y004180D01*
X006568Y004178D02*
X006480Y004214D01*
X006385Y004214D01*
X006297Y004178D01*
X006230Y004110D01*
X006213Y004070D01*
X006130Y004104D01*
X006035Y004104D01*
X005947Y004068D01*
X005880Y004000D01*
X005844Y003913D01*
X005844Y003817D01*
X005880Y003730D01*
X005947Y003662D01*
X006035Y003626D01*
X006130Y003626D01*
X006218Y003662D01*
X006285Y003730D01*
X006302Y003770D01*
X006385Y003736D01*
X006480Y003736D01*
X006568Y003772D01*
X006635Y003840D01*
X006672Y003927D01*
X006672Y004023D01*
X006713Y004023D01*
X006720Y004040D02*
X006684Y003953D01*
X006684Y003857D01*
X006720Y003770D01*
X006787Y003702D01*
X006875Y003666D01*
X006970Y003666D01*
X007058Y003702D01*
X007125Y003770D01*
X007162Y003857D01*
X007162Y003953D01*
X007125Y004040D01*
X007058Y004108D01*
X006970Y004144D01*
X006875Y004144D01*
X006787Y004108D01*
X006720Y004040D01*
X006672Y004023D02*
X006635Y004110D01*
X006568Y004178D01*
X006639Y004102D02*
X006781Y004102D01*
X006684Y003945D02*
X006672Y003945D01*
X006684Y003866D02*
X006646Y003866D01*
X006583Y003788D02*
X006713Y003788D01*
X006781Y003709D02*
X006265Y003709D01*
X006141Y003631D02*
X008388Y003631D01*
X008368Y003680D02*
X008425Y003543D01*
X008530Y003437D01*
X008668Y003380D01*
X008817Y003380D01*
X008955Y003437D01*
X009061Y003543D01*
X009118Y003680D01*
X009118Y003830D01*
X009061Y003967D01*
X008955Y004073D01*
X008817Y004130D01*
X008668Y004130D01*
X008530Y004073D01*
X008425Y003967D01*
X008368Y003830D01*
X008368Y003680D01*
X008368Y003709D02*
X007065Y003709D01*
X007133Y003788D02*
X008368Y003788D01*
X008383Y003866D02*
X007162Y003866D01*
X007162Y003945D02*
X008415Y003945D01*
X008480Y004023D02*
X007133Y004023D01*
X007064Y004102D02*
X008599Y004102D01*
X008582Y004416D02*
X001903Y004416D01*
X002012Y004494D02*
X008473Y004494D01*
X008412Y004573D02*
X002073Y004573D01*
X002106Y004651D02*
X008380Y004651D01*
X008368Y004730D02*
X002118Y004730D01*
X001886Y004102D02*
X006029Y004102D01*
X005903Y004023D02*
X002005Y004023D01*
X001955Y004073D02*
X002061Y003967D01*
X002118Y003830D01*
X002118Y003680D01*
X002061Y003543D01*
X001955Y003437D01*
X001817Y003380D01*
X001668Y003380D01*
X001530Y003437D01*
X001425Y003543D01*
X001368Y003680D01*
X001368Y003830D01*
X001425Y003967D01*
X001530Y004073D01*
X001668Y004130D01*
X001817Y004130D01*
X001955Y004073D01*
X002070Y003945D02*
X005857Y003945D01*
X005844Y003866D02*
X002103Y003866D01*
X002118Y003788D02*
X005856Y003788D01*
X005901Y003709D02*
X002118Y003709D01*
X002097Y003631D02*
X006024Y003631D01*
X006136Y004102D02*
X006226Y004102D01*
X006303Y004180D02*
X001363Y004180D01*
X001363Y004102D02*
X001599Y004102D01*
X001480Y004023D02*
X001363Y004023D01*
X001363Y003945D02*
X001415Y003945D01*
X001383Y003866D02*
X001363Y003866D01*
X001363Y003788D02*
X001368Y003788D01*
X001363Y003709D02*
X001368Y003709D01*
X001363Y003631D02*
X001388Y003631D01*
X001363Y003552D02*
X001421Y003552D01*
X001363Y003474D02*
X001494Y003474D01*
X001363Y003395D02*
X001632Y003395D01*
X001854Y003395D02*
X008632Y003395D01*
X008494Y003474D02*
X001992Y003474D01*
X002065Y003552D02*
X008421Y003552D01*
X008550Y003081D02*
X001936Y003081D01*
X001955Y003073D02*
X001817Y003130D01*
X001668Y003130D01*
X001530Y003073D01*
X001425Y002967D01*
X001368Y002830D01*
X001368Y002680D01*
X001425Y002543D01*
X001530Y002437D01*
X001668Y002380D01*
X001817Y002380D01*
X001955Y002437D01*
X002061Y002543D01*
X002118Y002680D01*
X002118Y002830D01*
X002061Y002967D01*
X001955Y003073D01*
X002026Y003003D02*
X008460Y003003D01*
X008425Y002967D02*
X008368Y002830D01*
X008368Y002680D01*
X008425Y002543D01*
X008530Y002437D01*
X008668Y002380D01*
X008817Y002380D01*
X008955Y002437D01*
X009061Y002543D01*
X009118Y002680D01*
X009118Y002830D01*
X009061Y002967D01*
X008955Y003073D01*
X008817Y003130D01*
X008668Y003130D01*
X008530Y003073D01*
X008425Y002967D01*
X008407Y002924D02*
X002079Y002924D01*
X002111Y002846D02*
X008374Y002846D01*
X008368Y002767D02*
X002118Y002767D01*
X002118Y002689D02*
X008368Y002689D01*
X008397Y002610D02*
X002089Y002610D01*
X002050Y002532D02*
X008436Y002532D01*
X008514Y002453D02*
X001971Y002453D01*
X001968Y002061D02*
X008518Y002061D01*
X008439Y001982D02*
X002046Y001982D01*
X002087Y001904D02*
X008398Y001904D01*
X008368Y001825D02*
X002118Y001825D01*
X002118Y001747D02*
X008368Y001747D01*
X008373Y001668D02*
X002113Y001668D01*
X002080Y001590D02*
X008405Y001590D01*
X008456Y001511D02*
X002029Y001511D01*
X001518Y002061D02*
X001363Y002061D01*
X001363Y002139D02*
X009123Y002139D01*
X009123Y002061D02*
X008968Y002061D01*
X009046Y001982D02*
X009123Y001982D01*
X009123Y001904D02*
X009087Y001904D01*
X009118Y001825D02*
X009123Y001825D01*
X009118Y001747D02*
X009123Y001747D01*
X009113Y001668D02*
X009123Y001668D01*
X009123Y001590D02*
X009080Y001590D01*
X009123Y001511D02*
X009029Y001511D01*
X009123Y002218D02*
X001363Y002218D01*
X001363Y002296D02*
X009123Y002296D01*
X009123Y002375D02*
X001363Y002375D01*
X001363Y002453D02*
X001514Y002453D01*
X001436Y002532D02*
X001363Y002532D01*
X001363Y002610D02*
X001397Y002610D01*
X001368Y002689D02*
X001363Y002689D01*
X001363Y002767D02*
X001368Y002767D01*
X001363Y002846D02*
X001374Y002846D01*
X001363Y002924D02*
X001407Y002924D01*
X001363Y003003D02*
X001460Y003003D01*
X001550Y003081D02*
X001363Y003081D01*
X001363Y003160D02*
X009123Y003160D01*
X009123Y003238D02*
X001363Y003238D01*
X001363Y003317D02*
X009123Y003317D01*
X009123Y003395D02*
X008854Y003395D01*
X008992Y003474D02*
X009123Y003474D01*
X009123Y003552D02*
X009065Y003552D01*
X009097Y003631D02*
X009123Y003631D01*
X009118Y003709D02*
X009123Y003709D01*
X009118Y003788D02*
X009123Y003788D01*
X009123Y003866D02*
X009103Y003866D01*
X009123Y003945D02*
X009070Y003945D01*
X009123Y004023D02*
X009005Y004023D01*
X008886Y004102D02*
X009123Y004102D01*
X009123Y003081D02*
X008936Y003081D01*
X009026Y003003D02*
X009123Y003003D01*
X009123Y002924D02*
X009079Y002924D01*
X009111Y002846D02*
X009123Y002846D01*
X009118Y002767D02*
X009123Y002767D01*
X009118Y002689D02*
X009123Y002689D01*
X009123Y002610D02*
X009089Y002610D01*
X009123Y002532D02*
X009050Y002532D01*
X009123Y002453D02*
X008971Y002453D01*
X009123Y005201D02*
X007270Y005201D01*
X007195Y005279D02*
X009123Y005279D01*
X009123Y007242D02*
X001363Y007242D01*
X001363Y007320D02*
X009123Y007320D01*
X009123Y007399D02*
X008862Y007399D01*
X008995Y007477D02*
X009123Y007477D01*
X009123Y007556D02*
X009066Y007556D01*
X009099Y007634D02*
X009123Y007634D01*
X009118Y007713D02*
X009123Y007713D01*
X009118Y007791D02*
X009123Y007791D01*
X009123Y007870D02*
X009101Y007870D01*
X009123Y007948D02*
X009069Y007948D01*
X009123Y008027D02*
X009002Y008027D01*
X009123Y008105D02*
X008878Y008105D01*
X009014Y009440D02*
X009123Y009440D01*
X009123Y009518D02*
X009084Y009518D01*
X009086Y009989D02*
X009123Y009989D01*
X009123Y010068D02*
X009017Y010068D01*
X009123Y010146D02*
X008882Y010146D01*
X008507Y010460D02*
X004616Y010460D01*
X004683Y010539D02*
X006467Y010539D01*
X006387Y010617D02*
X004712Y010617D01*
X004712Y010696D02*
X006355Y010696D01*
X006354Y010774D02*
X004682Y010774D01*
X004613Y010853D02*
X006379Y010853D01*
X006441Y010931D02*
X004500Y010931D01*
X004456Y011010D02*
X008012Y011010D01*
X007902Y011088D02*
X006934Y011088D01*
X006991Y011167D02*
X006993Y011167D01*
X006950Y011481D02*
X006877Y011481D01*
X007045Y011559D02*
X002109Y011559D01*
X002055Y011481D02*
X006668Y011481D01*
X006807Y010853D02*
X008377Y010853D01*
X008368Y010774D02*
X006832Y010774D01*
X006831Y010696D02*
X008368Y010696D01*
X008394Y010617D02*
X006799Y010617D01*
X006719Y010539D02*
X008429Y010539D01*
X007862Y011167D02*
X007312Y011167D01*
X007370Y011245D02*
X007854Y011245D01*
X007871Y011324D02*
X007392Y011324D01*
X007388Y011402D02*
X007741Y011402D01*
X007865Y011402D02*
X007922Y011402D01*
X007986Y011481D02*
X008487Y011481D01*
X008418Y011559D02*
X008030Y011559D01*
X007898Y012187D02*
X001363Y012187D01*
X001363Y012109D02*
X001523Y012109D01*
X001431Y012030D02*
X001363Y012030D01*
X001363Y011952D02*
X001377Y011952D01*
X001363Y012266D02*
X009123Y012266D01*
X009123Y012344D02*
X002520Y012344D01*
X002567Y012423D02*
X008566Y012423D01*
X008530Y012437D02*
X008668Y012380D01*
X008817Y012380D01*
X008955Y012437D01*
X009061Y012543D01*
X009118Y012680D01*
X009118Y012830D01*
X009061Y012967D01*
X008955Y013073D01*
X008817Y013130D01*
X008668Y013130D01*
X008530Y013073D01*
X008425Y012967D01*
X008368Y012830D01*
X008368Y012680D01*
X008425Y012543D01*
X008530Y012437D01*
X008466Y012501D02*
X002582Y012501D01*
X002571Y012580D02*
X008410Y012580D01*
X008377Y012658D02*
X006978Y012658D01*
X006988Y012662D02*
X006900Y012626D01*
X006805Y012626D01*
X006717Y012662D01*
X006650Y012730D01*
X006614Y012817D01*
X006614Y012888D01*
X006578Y012852D01*
X006490Y012816D01*
X006395Y012816D01*
X006307Y012852D01*
X006240Y012920D01*
X006209Y012996D01*
X006209Y012846D01*
X006093Y012730D01*
X005928Y012730D01*
X005812Y012846D01*
X005812Y013010D01*
X005928Y013126D01*
X006093Y013126D01*
X006204Y013015D01*
X006204Y013103D01*
X006240Y013190D01*
X006307Y013258D01*
X006395Y013294D01*
X006490Y013294D01*
X006578Y013258D01*
X006645Y013190D01*
X006682Y013103D01*
X006682Y013032D01*
X006717Y013068D01*
X006805Y013104D01*
X006900Y013104D01*
X006988Y013068D01*
X007055Y013000D01*
X007092Y012913D01*
X007092Y012817D01*
X007055Y012730D01*
X006988Y012662D01*
X007058Y012737D02*
X008368Y012737D01*
X008368Y012815D02*
X007091Y012815D01*
X007092Y012894D02*
X008394Y012894D01*
X008430Y012972D02*
X007067Y012972D01*
X007005Y013051D02*
X008508Y013051D01*
X008666Y013129D02*
X006671Y013129D01*
X006682Y013051D02*
X006700Y013051D01*
X006628Y013208D02*
X007522Y013208D01*
X007537Y013192D02*
X007625Y013156D01*
X007720Y013156D01*
X007808Y013192D01*
X007875Y013260D01*
X007912Y013347D01*
X007912Y013443D01*
X009123Y013443D01*
X009123Y013365D02*
X007912Y013365D01*
X007912Y013443D02*
X007875Y013530D01*
X007808Y013598D01*
X007720Y013634D01*
X007625Y013634D01*
X007537Y013598D01*
X007470Y013530D01*
X007434Y013443D01*
X006467Y013443D01*
X006496Y013455D02*
X006551Y013492D01*
X006598Y013539D01*
X006635Y013595D01*
X006661Y013656D01*
X006674Y013722D01*
X006674Y013746D01*
X006345Y013746D01*
X006345Y013764D01*
X006674Y013764D01*
X006674Y013788D01*
X006661Y013854D01*
X006635Y013915D01*
X006598Y013971D01*
X006551Y014018D01*
X006496Y014055D01*
X006434Y014080D01*
X006369Y014093D01*
X006345Y014093D01*
X006345Y013764D01*
X006326Y013764D01*
X006326Y013746D01*
X005997Y013746D01*
X005997Y013722D01*
X006010Y013656D01*
X006035Y013595D01*
X006072Y013539D01*
X006120Y013492D01*
X006175Y013455D01*
X006237Y013430D01*
X006302Y013417D01*
X006326Y013417D01*
X006326Y013746D01*
X006345Y013746D01*
X006345Y013417D01*
X006369Y013417D01*
X006434Y013430D01*
X006496Y013455D01*
X006580Y013522D02*
X007466Y013522D01*
X007434Y013443D02*
X007434Y013347D01*
X007470Y013260D01*
X007537Y013192D01*
X007459Y013286D02*
X006510Y013286D01*
X006376Y013286D02*
X003932Y013286D01*
X003932Y013257D02*
X003895Y013170D01*
X003828Y013102D01*
X003740Y013066D01*
X003645Y013066D01*
X003557Y013102D01*
X003490Y013170D01*
X003454Y013257D01*
X003454Y013353D01*
X003490Y013440D01*
X003557Y013508D01*
X003645Y013544D01*
X003740Y013544D01*
X003828Y013508D01*
X003895Y013440D01*
X003932Y013353D01*
X003932Y013257D01*
X003911Y013208D02*
X006257Y013208D01*
X006215Y013129D02*
X003855Y013129D01*
X003927Y013365D02*
X007434Y013365D01*
X007543Y013600D02*
X006637Y013600D01*
X006665Y013679D02*
X009123Y013679D01*
X009123Y013757D02*
X006345Y013757D01*
X006326Y013757D02*
X004160Y013757D01*
X004160Y013764D02*
X004489Y013764D01*
X004489Y013788D01*
X004476Y013854D01*
X004450Y013915D01*
X004413Y013971D01*
X004366Y014018D01*
X004311Y014055D01*
X004249Y014080D01*
X004184Y014093D01*
X004159Y014093D01*
X004159Y013764D01*
X004141Y013764D01*
X004141Y013746D01*
X003812Y013746D01*
X003812Y013722D01*
X003825Y013656D01*
X003850Y013595D01*
X003887Y013539D01*
X003935Y013492D01*
X003990Y013455D01*
X004052Y013430D01*
X004117Y013417D01*
X004141Y013417D01*
X004141Y013746D01*
X004159Y013746D01*
X004159Y013417D01*
X004184Y013417D01*
X004249Y013430D01*
X004311Y013455D01*
X004366Y013492D01*
X004413Y013539D01*
X004450Y013595D01*
X004476Y013656D01*
X004489Y013722D01*
X004489Y013746D01*
X004160Y013746D01*
X004160Y013764D01*
X004141Y013764D02*
X004141Y014093D01*
X004117Y014093D01*
X004052Y014080D01*
X003990Y014055D01*
X003935Y014018D01*
X003887Y013971D01*
X003850Y013915D01*
X003825Y013854D01*
X003812Y013788D01*
X003812Y013764D01*
X004141Y013764D01*
X004141Y013757D02*
X001363Y013757D01*
X001363Y013679D02*
X003820Y013679D01*
X003848Y013600D02*
X001363Y013600D01*
X001363Y013522D02*
X003591Y013522D01*
X003493Y013443D02*
X001363Y013443D01*
X001363Y013365D02*
X003459Y013365D01*
X003454Y013286D02*
X001363Y013286D01*
X001363Y013208D02*
X003474Y013208D01*
X003531Y013129D02*
X002402Y013129D01*
X002525Y013051D02*
X004317Y013051D01*
X004277Y013010D02*
X004277Y012846D01*
X004393Y012730D01*
X004557Y012730D01*
X004673Y012846D01*
X004673Y013010D01*
X004557Y013126D01*
X004393Y013126D01*
X004277Y013010D01*
X004277Y012972D02*
X002570Y012972D01*
X002582Y012894D02*
X004277Y012894D01*
X004308Y012815D02*
X002568Y012815D01*
X002522Y012737D02*
X004387Y012737D01*
X004564Y012737D02*
X005922Y012737D01*
X005844Y012815D02*
X004642Y012815D01*
X004673Y012894D02*
X005812Y012894D01*
X005812Y012972D02*
X004673Y012972D01*
X004633Y013051D02*
X005853Y013051D01*
X006099Y012737D02*
X006647Y012737D01*
X006615Y012815D02*
X006178Y012815D01*
X006209Y012894D02*
X006266Y012894D01*
X006218Y012972D02*
X006209Y012972D01*
X006204Y013051D02*
X006168Y013051D01*
X006204Y013443D02*
X004281Y013443D01*
X004159Y013443D02*
X004141Y013443D01*
X004141Y013522D02*
X004159Y013522D01*
X004159Y013600D02*
X004141Y013600D01*
X004141Y013679D02*
X004159Y013679D01*
X004159Y013836D02*
X004141Y013836D01*
X004141Y013914D02*
X004159Y013914D01*
X004159Y013993D02*
X004141Y013993D01*
X004141Y014071D02*
X004159Y014071D01*
X004272Y014071D02*
X006214Y014071D01*
X006237Y014080D02*
X006175Y014055D01*
X006120Y014018D01*
X006072Y013971D01*
X006035Y013915D01*
X006010Y013854D01*
X005997Y013788D01*
X005997Y013764D01*
X006326Y013764D01*
X006326Y014093D01*
X006302Y014093D01*
X006237Y014080D01*
X006326Y014071D02*
X006345Y014071D01*
X006345Y013993D02*
X006326Y013993D01*
X006326Y013914D02*
X006345Y013914D01*
X006345Y013836D02*
X006326Y013836D01*
X006326Y013679D02*
X006345Y013679D01*
X006345Y013600D02*
X006326Y013600D01*
X006326Y013522D02*
X006345Y013522D01*
X006345Y013443D02*
X006326Y013443D01*
X006090Y013522D02*
X004395Y013522D01*
X004452Y013600D02*
X006033Y013600D01*
X006005Y013679D02*
X004480Y013679D01*
X004479Y013836D02*
X006006Y013836D01*
X006035Y013914D02*
X004451Y013914D01*
X004391Y013993D02*
X006094Y013993D01*
X006457Y014071D02*
X009123Y014071D01*
X009123Y013993D02*
X006576Y013993D01*
X006636Y013914D02*
X009123Y013914D01*
X009123Y013836D02*
X006664Y013836D01*
X006728Y012658D02*
X002528Y012658D01*
X001783Y012109D02*
X001703Y012109D01*
X001703Y012030D02*
X001783Y012030D01*
X001783Y011952D02*
X001703Y011952D01*
X001703Y011873D02*
X001783Y011873D01*
X001783Y011795D02*
X007624Y011795D01*
X007576Y011559D02*
X007261Y011559D01*
X007355Y011481D02*
X007619Y011481D01*
X007823Y013208D02*
X009123Y013208D01*
X009123Y013286D02*
X007886Y013286D01*
X007879Y013522D02*
X009123Y013522D01*
X009123Y013600D02*
X007802Y013600D01*
X008820Y013129D02*
X009123Y013129D01*
X009123Y013051D02*
X008978Y013051D01*
X009056Y012972D02*
X009123Y012972D01*
X009123Y012894D02*
X009091Y012894D01*
X009118Y012815D02*
X009123Y012815D01*
X009118Y012737D02*
X009123Y012737D01*
X009123Y012658D02*
X009109Y012658D01*
X009123Y012580D02*
X009076Y012580D01*
X009123Y012501D02*
X009019Y012501D01*
X008920Y012423D02*
X009123Y012423D01*
X007891Y009597D02*
X007891Y009597D01*
X006336Y008027D02*
X005368Y008027D01*
X005321Y008105D02*
X006235Y008105D01*
X005320Y007163D02*
X005165Y007163D01*
X005196Y006771D02*
X005289Y006771D01*
X005079Y007713D02*
X003750Y007713D01*
X003857Y007791D02*
X004959Y007791D01*
X004915Y007870D02*
X003894Y007870D01*
X003902Y007948D02*
X004904Y007948D01*
X004918Y008027D02*
X003884Y008027D01*
X003831Y008105D02*
X004965Y008105D01*
X004888Y008262D02*
X004955Y008330D01*
X004992Y008417D01*
X004992Y008513D01*
X004955Y008600D01*
X004888Y008668D01*
X004800Y008704D01*
X004705Y008704D01*
X004617Y008668D01*
X004550Y008600D01*
X004514Y008513D01*
X004514Y008417D01*
X004550Y008330D01*
X004617Y008262D01*
X004705Y008226D01*
X004800Y008226D01*
X004888Y008262D01*
X004887Y008262D02*
X005088Y008262D01*
X005021Y008341D02*
X004960Y008341D01*
X004992Y008419D02*
X004994Y008419D01*
X004992Y008498D02*
X004994Y008498D01*
X004966Y008576D02*
X005024Y008576D01*
X005094Y008655D02*
X004901Y008655D01*
X004604Y008655D02*
X004411Y008655D01*
X004408Y008658D02*
X004320Y008694D01*
X004225Y008694D01*
X004137Y008658D01*
X004070Y008590D01*
X004034Y008503D01*
X004034Y008407D01*
X004070Y008320D01*
X004137Y008252D01*
X004225Y008216D01*
X004320Y008216D01*
X004408Y008252D01*
X004475Y008320D01*
X004512Y008407D01*
X004512Y008503D01*
X004475Y008590D01*
X004408Y008658D01*
X004481Y008576D02*
X004540Y008576D01*
X004512Y008498D02*
X004514Y008498D01*
X004512Y008419D02*
X004514Y008419D01*
X004484Y008341D02*
X004546Y008341D01*
X004618Y008262D02*
X004418Y008262D01*
X004128Y008262D02*
X003647Y008262D01*
X003707Y008341D02*
X004061Y008341D01*
X004034Y008419D02*
X003731Y008419D01*
X003729Y008498D02*
X004034Y008498D01*
X004064Y008576D02*
X003696Y008576D01*
X003611Y008655D02*
X004134Y008655D01*
X003337Y008262D02*
X002716Y008262D01*
X002665Y008341D02*
X003276Y008341D01*
X002564Y010225D02*
X002564Y010225D01*
X003893Y013443D02*
X004019Y013443D01*
X003905Y013522D02*
X003795Y013522D01*
X003821Y013836D02*
X001363Y013836D01*
X001363Y013914D02*
X003850Y013914D01*
X003909Y013993D02*
X001363Y013993D01*
X001363Y014071D02*
X004029Y014071D01*
X001363Y005279D02*
X006931Y005279D01*
X006856Y005201D02*
X001363Y005201D01*
X001363Y005122D02*
X001649Y005122D01*
X001501Y005044D02*
X001363Y005044D01*
X001363Y004965D02*
X001424Y004965D01*
X001391Y004887D02*
X001363Y004887D01*
X001363Y004808D02*
X001368Y004808D01*
X001363Y004730D02*
X001368Y004730D01*
X001363Y004651D02*
X001380Y004651D01*
X001363Y004573D02*
X001412Y004573D01*
X001363Y004494D02*
X001473Y004494D01*
X001363Y004416D02*
X001582Y004416D01*
X001439Y001982D02*
X001363Y001982D01*
X001363Y001904D02*
X001398Y001904D01*
X001368Y001825D02*
X001363Y001825D01*
X001363Y001747D02*
X001368Y001747D01*
X001363Y001668D02*
X001373Y001668D01*
X001363Y001590D02*
X001405Y001590D01*
X001363Y001511D02*
X001456Y001511D01*
D13*
X001743Y001155D03*
X002143Y000755D03*
X002693Y000505D03*
X002693Y001205D03*
X003043Y001605D03*
X002543Y002865D03*
X004293Y001605D03*
X005343Y001605D03*
X006443Y001605D03*
X007793Y001605D03*
X006923Y003905D03*
X007083Y004585D03*
X007063Y005075D03*
X006993Y006025D03*
X005973Y005415D03*
X005063Y004475D03*
X006083Y003865D03*
X006433Y003975D03*
X008073Y004115D03*
X005943Y007075D03*
X005443Y006955D03*
X005043Y006955D03*
X005083Y007435D03*
X005143Y007945D03*
X005233Y008455D03*
X005563Y008345D03*
X006083Y008655D03*
X006433Y008245D03*
X006663Y008675D03*
X006793Y008355D03*
X007093Y008155D03*
X007673Y009695D03*
X008013Y009805D03*
X008093Y011235D03*
X007803Y011635D03*
X007963Y011955D03*
X007953Y012475D03*
X007673Y013395D03*
X006853Y012865D03*
X006443Y013055D03*
X007153Y011345D03*
X006773Y011265D03*
X006593Y010745D03*
X006443Y010245D03*
X006073Y010635D03*
X004753Y008465D03*
X004273Y008455D03*
X003663Y007935D03*
X003492Y008445D03*
X002713Y010035D03*
X002443Y009825D03*
X002343Y010315D03*
X002343Y010785D03*
X002343Y012505D03*
X002343Y012895D03*
X001603Y013375D03*
X003693Y013305D03*
X003893Y012635D03*
X003903Y010835D03*
X004273Y010855D03*
X004473Y010655D03*
X003841Y010253D03*
X002493Y008175D03*
X008243Y008255D03*
D14*
X001353Y002105D02*
X001353Y001301D01*
X002288Y000365D01*
X002843Y000365D01*
X002843Y002105D01*
X001852Y002105D01*
X001950Y002064D01*
X002052Y001962D01*
X002108Y001828D01*
X002108Y001682D01*
X002052Y001548D01*
X001950Y001446D01*
X001815Y001390D01*
X001670Y001390D01*
X001536Y001446D01*
X001433Y001548D01*
X001378Y001682D01*
X001378Y001828D01*
X001433Y001962D01*
X001536Y002064D01*
X001634Y002105D01*
X001353Y002105D01*
X001353Y002069D02*
X001546Y002069D01*
X001482Y002010D02*
X001353Y002010D01*
X001353Y001952D02*
X001429Y001952D01*
X001405Y001893D02*
X001353Y001893D01*
X001353Y001835D02*
X001381Y001835D01*
X001378Y001776D02*
X001353Y001776D01*
X001353Y001718D02*
X001378Y001718D01*
X001387Y001659D02*
X001353Y001659D01*
X001353Y001601D02*
X001412Y001601D01*
X001440Y001542D02*
X001353Y001542D01*
X001353Y001484D02*
X001498Y001484D01*
X001586Y001425D02*
X001353Y001425D01*
X001353Y001367D02*
X002843Y001367D01*
X002843Y001425D02*
X001900Y001425D01*
X001987Y001484D02*
X002843Y001484D01*
X002843Y001542D02*
X002046Y001542D01*
X002074Y001601D02*
X002843Y001601D01*
X002843Y001659D02*
X002098Y001659D01*
X002108Y001718D02*
X002843Y001718D01*
X002843Y001776D02*
X002108Y001776D01*
X002105Y001835D02*
X002843Y001835D01*
X002843Y001893D02*
X002081Y001893D01*
X002056Y001952D02*
X002843Y001952D01*
X002843Y002010D02*
X002004Y002010D01*
X001940Y002069D02*
X002843Y002069D01*
X002843Y001308D02*
X001353Y001308D01*
X001404Y001250D02*
X002843Y001250D01*
X002843Y001191D02*
X001462Y001191D01*
X001521Y001133D02*
X002843Y001133D01*
X002843Y001074D02*
X001579Y001074D01*
X001638Y001016D02*
X002843Y001016D01*
X002843Y000957D02*
X001696Y000957D01*
X001755Y000899D02*
X002843Y000899D01*
X002843Y000840D02*
X001813Y000840D01*
X001872Y000782D02*
X002843Y000782D01*
X002843Y000723D02*
X001930Y000723D01*
X001989Y000665D02*
X002843Y000665D01*
X002843Y000606D02*
X002047Y000606D01*
X002106Y000548D02*
X002843Y000548D01*
X002843Y000489D02*
X002164Y000489D01*
X002223Y000431D02*
X002843Y000431D01*
X002843Y000372D02*
X002281Y000372D01*
M02*
