G75*
G70*
%OFA0B0*%
%FSLAX24Y24*%
%IPPOS*%
%LPD*%
%AMOC8*
5,1,8,0,0,1.08239X$1,22.5*
%
%ADD10C,0.0080*%
D10*
X000987Y001583D02*
X001237Y001333D01*
X001737Y001333D01*
X001987Y001583D01*
X001987Y002083D01*
X001737Y002333D01*
X001987Y002583D01*
X001987Y003083D01*
X001737Y003333D01*
X001987Y003583D01*
X001987Y004083D01*
X001737Y004333D01*
X001987Y004583D01*
X001987Y005083D01*
X001737Y005333D01*
X001987Y005583D01*
X001987Y006083D01*
X001737Y006333D01*
X001987Y006583D01*
X001987Y007083D01*
X001737Y007333D01*
X001987Y007583D01*
X001987Y008083D01*
X001737Y008333D01*
X001987Y008583D01*
X001987Y009083D01*
X001737Y009333D01*
X001987Y009583D01*
X001987Y010083D01*
X001737Y010333D01*
X001987Y010583D01*
X001987Y011083D01*
X001737Y011333D01*
X001987Y011583D01*
X001987Y012083D01*
X001737Y012333D01*
X001987Y012583D01*
X001987Y013083D01*
X001737Y013333D01*
X001237Y013333D01*
X000987Y013083D01*
X000987Y012583D01*
X001237Y012333D01*
X000987Y012083D01*
X000987Y011583D01*
X001237Y011333D01*
X000987Y011083D01*
X000987Y010583D01*
X001237Y010333D01*
X000987Y010083D01*
X000987Y009583D01*
X001237Y009333D01*
X000987Y009083D01*
X000987Y008583D01*
X001237Y008333D01*
X000987Y008083D01*
X000987Y007583D01*
X001237Y007333D01*
X000987Y007083D01*
X000987Y006583D01*
X001237Y006333D01*
X000987Y006083D01*
X000987Y005583D01*
X001237Y005333D01*
X000987Y005083D01*
X000987Y004583D01*
X001237Y004333D01*
X000987Y004083D01*
X000987Y003583D01*
X001237Y003333D01*
X000987Y003083D01*
X000987Y002583D01*
X001237Y002333D01*
X000987Y002083D01*
X000987Y001583D01*
X007987Y001583D02*
X008237Y001333D01*
X008737Y001333D01*
X008987Y001583D01*
X008987Y002083D01*
X008737Y002333D01*
X008987Y002583D01*
X008987Y003083D01*
X008737Y003333D01*
X008987Y003583D01*
X008987Y004083D01*
X008737Y004333D01*
X008987Y004583D01*
X008987Y005083D01*
X008737Y005333D01*
X008987Y005583D01*
X008987Y006083D01*
X008737Y006333D01*
X008987Y006583D01*
X008987Y007083D01*
X008737Y007333D01*
X008987Y007583D01*
X008987Y008083D01*
X008737Y008333D01*
X008987Y008583D01*
X008987Y009083D01*
X008737Y009333D01*
X008987Y009583D01*
X008987Y010083D01*
X008737Y010333D01*
X008987Y010583D01*
X008987Y011083D01*
X008737Y011333D01*
X008987Y011583D01*
X008987Y012083D01*
X008737Y012333D01*
X008987Y012583D01*
X008987Y013083D01*
X008737Y013333D01*
X008237Y013333D01*
X007987Y013083D01*
X007987Y012583D01*
X008237Y012333D01*
X007987Y012083D01*
X007987Y011583D01*
X008237Y011333D01*
X007987Y011083D01*
X007987Y010583D01*
X008237Y010333D01*
X007987Y010083D01*
X007987Y009583D01*
X008237Y009333D01*
X007987Y009083D01*
X007987Y008583D01*
X008237Y008333D01*
X007987Y008083D01*
X007987Y007583D01*
X008237Y007333D01*
X007987Y007083D01*
X007987Y006583D01*
X008237Y006333D01*
X007987Y006083D01*
X007987Y005583D01*
X008237Y005333D01*
X007987Y005083D01*
X007987Y004583D01*
X008237Y004333D01*
X007987Y004083D01*
X007987Y003583D01*
X008237Y003333D01*
X007987Y003083D01*
X007987Y002583D01*
X008237Y002333D01*
X007987Y002083D01*
X007987Y001583D01*
M02*
