G75*
G70*
%OFA0B0*%
%FSLAX24Y24*%
%IPPOS*%
%LPD*%
%AMOC8*
5,1,8,0,0,1.08239X$1,22.5*
%
%ADD10C,0.0600*%
%ADD11C,0.0278*%
D10*
X001487Y001833D03*
X001487Y002833D03*
X001487Y003833D03*
X001487Y004833D03*
X001487Y005833D03*
X001487Y006833D03*
X001487Y007833D03*
X001487Y008833D03*
X001487Y009833D03*
X001487Y010833D03*
X001487Y011833D03*
X001487Y012833D03*
X008487Y012833D03*
X008487Y011833D03*
X008487Y010833D03*
X008487Y009833D03*
X008487Y008833D03*
X008487Y007833D03*
X008487Y006833D03*
X008487Y005833D03*
X008487Y004833D03*
X008487Y003833D03*
X008487Y002833D03*
X008487Y001833D03*
D11*
X007537Y003833D03*
X007327Y003133D03*
X007087Y003833D03*
X007087Y004833D03*
X007537Y004833D03*
X007537Y005833D03*
X007087Y005833D03*
X007087Y006833D03*
X007537Y006833D03*
X007537Y007833D03*
X007087Y007833D03*
X007087Y008833D03*
X007537Y008833D03*
X007537Y009833D03*
X007087Y009833D03*
X006887Y010833D03*
X007537Y010833D03*
X007537Y011833D03*
X007537Y012833D03*
X007537Y013833D03*
X005987Y011833D03*
X005187Y009833D03*
X005187Y008833D03*
X005187Y007833D03*
X005187Y006833D03*
X005187Y005833D03*
X005187Y004833D03*
X005187Y003833D03*
X005487Y001833D03*
X004537Y001833D03*
X003587Y001833D03*
X003817Y003633D03*
X002437Y003833D03*
X002307Y003013D03*
X002387Y001833D03*
X002437Y004833D03*
X002437Y005833D03*
X002437Y006833D03*
X002437Y007833D03*
X002437Y008833D03*
X002437Y009833D03*
X002437Y010833D03*
X002437Y011833D03*
X002437Y012833D03*
X002437Y013833D03*
X003987Y011833D03*
X004437Y010833D03*
M02*
